<?xml version="1.0" encoding="UTF-8" standalone="no"?>
<svg
   xmlns:v="http://schemas.microsoft.com/visio/2003/SVGExtensions/"
   xmlns:dc="http://purl.org/dc/elements/1.1/"
   xmlns:cc="http://creativecommons.org/ns#"
   xmlns:rdf="http://www.w3.org/1999/02/22-rdf-syntax-ns#"
   xmlns:svg="http://www.w3.org/2000/svg"
   xmlns="http://www.w3.org/2000/svg"
   style="font-size:12px;overflow:visible;color-interpolation-filters:sRGB;fill:none;fill-rule:evenodd;stroke-linecap:square;stroke-miterlimit:3"
   id="svg2612"
   version="1.1"
   class="st18"
   xml:space="preserve"
   viewBox="0 0 450.00011 525.00077"
   height="700"
   width="600"><metadata
   id="metadata2618"><rdf:RDF><cc:Work
       rdf:about=""><dc:format>image/svg+xml</dc:format><dc:type
         rdf:resource="http://purl.org/dc/dcmitype/StillImage" /><dc:title></dc:title></cc:Work></rdf:RDF></metadata><defs
   id="defs2616">
	</defs>
	<v:documentProperties
   v:viewMarkup="false"
   v:metric="true"
   v:langID="1031">
		<v:userDefs>
			<v:ud
   v:val="VT0(1):26"
   v:nameU="msvNoAutoConnect" />
			<v:ud
   v:val="VT4(Data Graphic.28)"
   v:nameU="msvLastAppliedDataGraphic" />
			<v:ud
   v:val="VT0(1):5"
   v:nameU="msvNoApplyDataGraphicAfterLink" />
		</v:userDefs>
	</v:documentProperties>

	<style
   id="style1315"
   type="text/css">
	<![CDATA[
		.st1 {fill:#5a1212;stroke:#000000;stroke-linecap:butt;stroke-width:1}
		.st2 {stroke:none;stroke-linecap:round;stroke-linejoin:round;stroke-width:0.75}
		
		.st4 {fill:#821212;stroke:#000000;stroke-linecap:butt;stroke-width:1}
		.st5 {fill:#6e1212;stroke:#000000;stroke-linecap:butt;stroke-width:1}
		.st6 {fill:#551212;stroke:#000000;stroke-linecap:butt;stroke-width:1}
		.st7 {fill:#fdfecd;stroke:#000000;stroke-linecap:butt;stroke-width:1}
	
		.st9 {fill:#321212;stroke:#000000;stroke-linecap:butt;stroke-width:1}
		.st10 {fill:#5f1212;stroke:#000000;stroke-linecap:butt;stroke-width:1}
		.st11 {fill:#961212;stroke:#000000;stroke-linecap:butt;stroke-width:1}
		.st12 {fill:#a51412;stroke:#000000;stroke-linecap:butt;stroke-width:1}
		.st13 {fill:#671212;stroke:#000000;stroke-linecap:butt;stroke-width:1}
		.st14 {fill:#961212;stroke:#000000;stroke-linecap:round;stroke-linejoin:round;stroke-width:1}
		.st15 {fill:#501212;stroke:#000000;stroke-linecap:butt;stroke-width:1}
		.st16 {fill:#b42215;stroke:#000000;stroke-linecap:butt;stroke-width:1}
		.st17 {fill:none;stroke:none;stroke-linecap:round;stroke-linejoin:round;stroke-width:0.75}
		.st18 {fill:none;fill-rule:evenodd;font-size:12px;overflow:visible;stroke-linecap:square;stroke-miterlimit:3}
	]]>
	</style>

	<g
   transform="translate(0,-316.88925)"
   id="g2610"
   v:groupContext="foregroundPage"
   v:index="1"
   v:mID="0">
		<v:userDefs>
			<v:ud
   v:val="VT0(0.0625):26"
   v:nameU="msvDGCalloutGap" />
		</v:userDefs>
		<title
   id="title1317">Zeichenblatt-1</title>
		<v:pageProperties
   v:shadowOffsetY="-8.50394"
   v:shadowOffsetX="8.50394"
   v:drawingUnits="24"
   v:pageScale="0.0393701"
   v:drawingScale="0.0393701" />
		<v:layer
   v:index="0"
   v:name="Datengrafik" />
		<v:layer
   v:index="1"
   v:name="Vereinfacht" />
<!-- Metadaten
Ausgabe: H:\Corona-Stab AS21\Landkreis Corona Karte\Landkreiskarte_svg.xlsx_AS21_201208140657085.SVG
User:    AS21
-->
<!-- Gemeinde   -->
<path
   style="fill:#961212;fill-opacity:1;stroke:#000000;stroke-width:0.8854503;stroke-linecap:butt"
   onmouseout="style.opacity = 1;"
   onmouseover="style.opacity = 0.5;"
   id="010"
   class="st4"
   d="m 103.98519,624.27204 0.72607,-3.52409 0.86774,0.0266 0.23907,-2.29331 -2.30217,-3.18763 1.65579,-0.61096 1.23963,1.33703 1.6558,-4.51579 2.24904,-0.2922 10.75822,6.45493 6.45493,-1.31932 2.08081,0.974 1.85945,-1.27505 0.81461,2.31102 4.6132,2.55895 0.2922,1.62923 -1.97456,2.78917 2.23134,2.42614 -1.70892,2.07195 0.76149,0.73492 2.51468,-1.59381 -0.65524,1.66465 0.73493,3.77202 1.15108,0.15052 0.80576,1.78861 3.1522,0.91202 4.07308,3.72774 2.49697,0.13282 -3.31159,8.2524 1.94799,1.83288 -3.37356,2.24019 -1.94799,-1.06254 -1.34589,0.56669 -2.58551,-1.70892 -2.54125,1.35474 -2.85115,-2.11623 -2.9574,0.66409 -0.82347,3.08137 -4.59549,-1.5584 0.24793,-1.20421 -3.01053,-0.40731 -1.73548,0.86774 0.12396,2.26676 -2.39072,2.00997 -4.94966,0.46929 -1.59381,-1.89487 -1.63809,-0.0974 -0.61096,-1.66465 2.17821,1.66465 -3.21419,-3.64806 -0.54897,0.37189 0.15052,-3.39128 -1.62923,0.14168 -0.73492,-1.53183 -1.98341,-0.70836 1.2839,-4.20589 -2.81573,-6.73828 -2.15164,0.27449 -3.41784,-5.33926 3.31158,-2.73605 0.92087,-2.39071 z">
<title
   id="title010">Arnsdorf     absolute Anzahl: 19 relativ zur Einwohnerzahl: 0,39 %
</title>
</path>

<!-- Gemeinde   -->
<path
   style="fill:#6e1212;fill-opacity:1;stroke:#000000;stroke-width:0.8854503;stroke-linecap:butt"
   onmouseout="style.opacity = 1;"
   onmouseover="style.opacity = 0.5;"
   id="020"
   class="st7"
   d="m 337.09681,548.03742 1.73548,0.14168 -0.94743,2.22248 0.80576,0.32761 -0.27449,1.14223 2.56781,1.42558 -0.67294,2.52353 4.81685,0.92087 -0.17709,0.92087 2.09851,1.75319 -3.32929,3.92255 0.96514,3.29387 1.84174,1.02712 0.23907,4.00224 -2.10737,-0.36304 -0.35418,1.23078 -1.11567,-0.0531 -0.41616,1.98341 -4.08193,-0.31876 1.59381,1.46099 -0.55783,2.11623 -2.89542,0.33647 3.16105,-0.23022 3.01939,2.33759 0.31876,1.58496 -3.13449,0.39845 3.08136,2.31103 -3.86941,1.94799 -3.3293,3.42669 -5.33041,0.0354 -0.81461,1.37245 -1.34589,-0.46044 -0.95628,1.79747 -2.56781,-0.41617 0.6818,2.79803 -0.92087,-0.11511 -0.14167,2.6475 -4.17933,0.71721 0.24793,3.50638 -2.37301,0.91202 -2.68291,2.93969 -0.84118,0.487 -3.09908,-5.19759 0.0266,-2.67406 -0.96514,-1.0714 1.59381,-0.36303 0.75263,-5.81741 1.53183,-1.98341 -1.33703,-1.02712 -2.52354,1.26619 -0.43387,-1.70892 -2.57666,0.487 -6.06533,-2.38186 0.23907,-2.40843 -3.82514,-0.23021 -2.17821,0.6995 1.39015,1.1688 -1.6735,1.56724 -5.85282,1.17765 1.95684,-4.45381 1.5761,-10.04986 -5.17988,-1.35474 -0.36304,1.80632 -1.39015,0.0443 -1.05369,2.12508 -1.85059,-0.41616 -1.10681,1.50526 -3.41784,0.0354 -0.39845,-1.15108 -1.40787,0.0266 -1.19536,-3.94911 2.23134,-5.64917 -5.15332,-2.10737 3.36471,-9.37692 3.79858,-2.31103 -0.70836,-0.63752 1.91257,0.18594 -0.77034,-0.2922 1.02712,-1.3813 -1.85944,-1.93028 1.0891,-1.52298 1.74434,1.20422 2.0631,-1.5761 1.55839,1.31932 2.51468,-2.29332 2.12508,1.83288 0.63752,-0.93857 0.74378,2.06309 -1.12452,0.54898 3.2496,1.95685 0.54898,-1.31047 -0.9917,-0.70836 1.1865,-2.10737 2.63864,-1.46985 2.7449,1.93914 -0.21251,0.71721 0.86774,-0.54012 -0.46929,1.27505 0.90316,-0.062 0.0266,-1.1688 1.51412,0.23022 -0.23908,1.4787 4.08193,2.10737 1.54068,-2.2579 6.69401,1.45214 2.24904,-0.67294 1.44329,-3.76316 1.43443,1.59381 -0.83233,0.0443 -0.0177,1.44328 -2.99282,1.34589 3.86057,1.64694 1.44328,-5.03822 4.08193,-0.3099 1.69121,-3.79859 1.46099,-0.72607 0.11511,-2.18706 z">
<title
   id="title020">Bautzen     absolute Anzahl: 295 relativ zur Einwohnerzahl: 0,77 %
</title>
</path>
<!-- Gemeinde   -->

 <path
   style="fill:#6e1212;fill-opacity:1;stroke:#000000;stroke-width:0.8854503;stroke-linecap:butt"
   onmouseout="style.opacity = 1;"
   onmouseover="style.opacity = 0.5;"
   id="030"
   class="st4"
   d="m 132.93765,439.87524 -1.74434,-7.34924 0.63752,-1.58495 3.65691,-1.90372 0.91202,-2.28446 -1.9657,-1.17765 0.15938,-1.80632 4.1439,-1.66465 6.46379,1.43443 -0.90316,-3.91369 -3.74545,0.009 -0.61982,-2.15165 2.18707,-2.2756 2.84229,-0.0885 4.27673,-5.95908 3.4444,-1.41672 0.59325,5.85283 1.02712,1.59381 5.1179,2.5678 2.56781,3.16106 4.30329,2.4527 0.92087,-4.4184 -2.54125,1.62923 -1.43442,-0.2922 -0.51357,-3.29388 1.39902,-1.69121 11.23636,7.79197 2.15164,-1.00942 1.19536,3.3293 2.51468,1.7709 3.53295,0.61096 9.17326,-0.7792 2.00112,0.62867 4.97623,-5.23301 6.87995,-1.74434 1.08025,1.1688 -1.88601,4.46267 1.2662,1.24848 -0.6818,1.85945 h -2.99282 l -1.54954,1.41672 1.97455,5.16217 -7.03047,-0.14167 1.16879,9.54516 -2.63864,4.09963 -5.12676,-7.71227 -0.85003,-2.79802 -3.28502,3.08136 -3.86942,-0.0708 -1.75319,-6.7737 -3.20533,0.79691 0.49585,2.08081 -4.60434,-0.23908 -0.42502,2.24905 2.68292,3.09022 2.39071,-0.009 -0.59325,9.09357 -0.62867,1.85059 -1.68235,-0.17709 -1.1688,1.72663 -3.09907,0.86774 0.80576,5.56948 -2.15165,-0.4073 -1.03597,1.39015 -3.69233,0.2922 -1.70007,2.04539 -1.14223,0.0531 -8.24354,-4.00224 -1.73548,2.47926 -5.06478,0.17709 -4.4184,-2.90427 -8.21698,1.48755 -3.32043,-3.29387 -1.78861,-2.9397 3.65691,-7.03933 3.9314,-3.92254 z">
<title
   id="title030">Bernsdorf     absolute Anzahl: 52 relativ zur Einwohnerzahl: 0,81 %
</title>
</path>
   <!-- Gemeinde   -->

<path
   style="fill:#671212;fill-opacity:1;stroke:#000000;stroke-width:0.8854503;stroke-linecap:butt"
   onmouseout="style.opacity = 1;"
   onmouseover="style.opacity = 0.5;"
   id="040"
   class="st4"
   d="m 195.73024,602.09417 -0.85003,-5.83512 4.37412,-5.90595 5.0028,-0.74378 4.9231,1.49641 3.13449,-0.18595 5.6846,-7.59716 2.19591,-1.43443 3.41784,5.67574 0.83232,-0.6818 -0.38074,3.82515 1.42558,5.57833 3.61263,-0.24792 2.55895,1.04483 -5.55177,6.81797 1.21307,3.79858 -3.6392,1.77975 -0.85889,2.63864 2.70948,1.18651 2.00112,2.47926 -0.77035,1.23963 0.72607,0.77034 -5.22415,9.0493 -2.09852,-1.31932 -2.90428,0.10626 -2.12508,-1.94799 -4.39183,0.64637 -2.41728,2.23134 1.14223,0.25678 -1.20421,1.03598 1.19535,6.27784 -3.91369,-0.27449 -0.94743,1.23963 4.16162,1.24849 -0.28335,0.77034 -2.00111,-0.65524 -0.62867,0.74378 2.62978,0.94743 -1.84173,3.05481 1.41672,0.80576 -0.3896,0.92087 2.03654,0.61981 -0.93858,4.50694 -2.23134,-0.6021 -1.48755,1.00941 3.41784,2.56781 -5.45438,0.0708 -0.2922,1.81518 2.48812,0.56668 -4.1262,0.76149 -8.20812,-5.43666 0.0266,-3.14335 -2.31103,-2.61208 1.11567,-1.90372 -0.87659,0.50471 -2.59437,-3.81629 -1.57611,-1.12453 0.009,-5.77313 -2.78917,-1.39901 -0.81461,-2.07196 3.71889,-1.7709 -0.82347,-0.94743 -0.15938,-7.61487 1.31046,-0.93858 -0.80576,-0.73492 0.57555,-1.17765 -1.89487,-3.47982 0.6818,-2.21363 3.22304,-1.2839 -0.53127,-2.79802 z">
<title
   id="title4635">Bischofswerda     absolute Anzahl: 127 relativ zur Einwohnerzahl: 1,16 %
</title>
</path>

<!-- Gemeinde   -->
<path
   style="fill:#671212;fill-opacity:1;stroke:#000000;stroke-width:0.8854503;stroke-linecap:butt"
   onmouseout="style.opacity = 1;"
   onmouseover="style.opacity = 0.5;"
   id="060"
   class="st5"
   d="m 217.66904,559.10555 -2.80687,0.60211 -0.28335,-4.67518 3.97567,0.71722 0.24793,-1.90372 0.30991,1.39901 0.85888,-1.17765 -0.10625,-1.93913 2.78917,-2.72719 1.43443,-0.23022 0.0885,1.14223 0.18595,-1.19536 6.41951,-1.2839 -0.33647,3.56837 2.76261,0.9917 -0.062,0.76149 1.68236,-0.42502 0.85889,1.93028 2.08966,0.65524 -0.81461,1.33703 4.05536,-3.46211 3.87827,3.10793 3.08137,0.062 1.3813,1.42557 -0.78805,-0.44272 -0.52242,2.36415 -0.82347,-0.12396 -0.0443,2.2579 -3.29387,-0.51357 -1.82403,4.54236 0.12396,1.6558 2.07196,0.13281 -0.34533,1.10682 3.48867,-0.17709 -0.47814,1.69121 1.53183,-0.99171 0.0177,1.461 -0.73492,1.85059 -5.16218,3.11678 -0.009,2.28446 -2.00112,0.28335 -0.26564,1.29276 -4.19703,-1.23964 -3.31159,1.38131 -5.0205,-1.43443 -5.12676,1.3813 -2.44384,2.22248 -2.19592,1.43443 -5.69344,7.59716 -3.12564,0.18595 -4.93196,-1.49641 -5.00279,0.74378 -2.24905,-0.45158 0.28335,-2.44385 -10.94417,-9.33264 6.20701,-3.63035 0.1948,-3.56836 3.37356,-1.63809 3.55951,4.32985 2.72719,-0.16823 4.70174,-2.00997 2.48812,-3.94026 2.86,0.49586 5.23301,-2.22249 1.4787,-2.73604 -1.09795,-0.90316 0.62867,-1.31932 z">
<title
   id="title060">Burkau     absolute Anzahl: 32 relativ zur Einwohnerzahl: 1,23 %
</title>
</path>

<!-- Gemeinde   -->
<path
   style="fill:#551212;fill-opacity:1;stroke:#000000;stroke-width:0.8854503;stroke-linecap:butt"
   onmouseout="style.opacity = 1;"
   onmouseover="style.opacity = 0.5;"
   id="080"
   class="st9"
   d="m 243.45424,512.38565 -0.0443,1.87716 2.58551,0.28334 -0.5047,0.79691 1.25734,2.30217 0.15938,6.51691 -2.22248,1.32818 0.13282,4.09078 -1.11567,0.92972 1.75319,3.55951 5.48979,1.39901 0.12396,6.01221 1.5584,0.28334 0.49585,1.15994 3.64805,0.15053 -0.59325,0.85003 1.81518,2.90428 -2.12508,-0.49585 -0.39846,1.94799 -5.72886,-1.29276 -0.38074,2.14279 -2.29332,-0.43387 0.31876,-1.41672 -5.91481,-0.98285 -0.0708,-1.59381 -1.39901,-0.0974 -0.66409,1.46099 -2.80688,-0.32761 -0.0885,-2.32874 1.15994,-0.98285 -1.88601,0.75264 -1.05369,-1.8683 -4.25016,-0.72607 -0.74378,-2.75375 -0.96514,0.16823 1.23078,-1.35474 -1.09796,-1.72663 -4.26787,-0.15052 3.72774,-3.49753 -0.43387,-2.16935 2.30217,-0.69951 -0.55783,-0.3896 1.55839,-1.05368 -0.0177,-1.61152 1.49641,0.0443 0.54898,-1.4787 0.26564,1.35474 1.09796,-1.32818 2.43498,0.92087 -0.0354,-1.75319 -1.20422,-0.63753 0.21251,-2.83344 1.17765,0.0443 0.0177,-3.30273 0.69951,-3.06365 1.886,0.53127 -1.61151,-1.14223 1.80631,0.53127 0.2922,-1.43443 z">
<title
   id="title080">Crostwitz     absolute Anzahl: 18 relativ zur Einwohnerzahl: 1,76 %
</title>
</path>

<!-- Gemeinde   -->
<path
   style="fill:#821212;fill-opacity:1;stroke:#000000;stroke-width:0.8854503;stroke-linecap:butt"
   onmouseout="style.opacity = 1;"
   onmouseover="style.opacity = 0.5;"
   id="090"
   class="st4"
   d="m 341.29739,625.88002 -1.11567,-4.20589 3.42669,-0.35418 1.24849,-1.34588 -0.30106,-1.14224 4.78144,1.54069 3.19647,-1.63809 -0.0885,-1.00055 4.70174,1.55839 2.92198,-0.0797 4.40955,-0.88545 2.55895,2.49697 7.11016,0.9917 3.3293,-0.62867 4.32985,1.31047 3.00168,1.64694 0.0797,2.28446 1.88601,2.4527 -7.34039,3.30273 -0.78805,1.5761 1.62923,1.44328 1.33703,-0.1948 0.23907,2.41728 -6.60546,9.19098 -2.77146,0.4073 -3.31158,-2.49697 -2.75375,-0.0266 -16.34541,2.61208 -5.87939,1.43443 0.25678,-7.94249 -4.16162,-1.00942 -2.93084,-4.41839 0.11511,-1.08025 2.63864,-1.42558 0.53127,-5.71115 z">
<title
   id="title090">Cunewalde     absolute Anzahl: 32 relativ zur Einwohnerzahl: 0,70 %
</title>
</path>

<!-- Gemeinde   -->
<path
   style="fill:#821212;fill-opacity:1;stroke:#000000;stroke-width:0.8854503;stroke-linecap:butt"
   onmouseout="style.opacity = 1;"
   onmouseover="style.opacity = 0.5;"
   id="100"
   class="st4"
   d="m 227.77026,578.28264 5.02936,1.43443 3.30273,-1.38131 4.20589,1.24849 -0.47815,2.5678 2.28447,1.01827 1.09795,-2.51468 5.74658,0.21251 0.93857,3.10793 1.0714,0.55784 -1.46985,2.86 3.1345,2.30217 2.47926,-0.74378 1.82402,3.94026 0.46929,2.93969 -1.31932,2.92199 0.85003,2.2579 -0.33647,0.85888 -2.15164,-1.59381 -2.66521,4.19704 -0.43387,6.25128 -0.80576,0.78805 -6.41066,-1.74434 -5.17988,1.01827 -2.67406,-2.05425 -5.27729,0.42502 -4.2413,-2.86886 -0.64638,-2.39072 5.54292,-6.81796 -2.5501,-1.04483 -3.62149,0.24792 -1.41672,-5.57834 0.37189,-3.82514 -0.83233,0.6818 -3.40898,-5.67574 2.44384,-2.22248 z">
<title
   id="title100">Demitz-Thumitz     absolute Anzahl: 18 relativ zur Einwohnerzahl: 0,68 %
</title>
</path>

<!-- Gemeinde   -->
<path
   style="fill:#821212;fill-opacity:1;stroke:#000000;stroke-width:0.8854503;stroke-linecap:butt"
   onmouseout="style.opacity = 1;"
   onmouseover="style.opacity = 0.5;"
   id="110"
   class="st4"
   d="m 276.7392,596.47333 -0.32761,-2.24019 2.39071,0.76149 2.09852,-5.09134 6.05648,1.52297 0.85003,-3.18762 2.04539,-0.6818 5.86169,-1.17765 1.6735,-1.56724 -1.39016,-1.1688 2.17821,-0.6995 3.81629,0.22136 -0.23907,2.41728 6.06533,2.38186 2.57666,-0.49585 0.44273,1.70892 2.52353,-1.25734 1.33703,1.02712 -1.53183,1.98341 -0.76149,5.80855 -1.58495,0.36304 0.96514,1.08025 -1.70007,-0.32762 0.50471,-1.23963 -3.55951,-0.63752 -1.09796,0.46928 0.41616,1.28391 -1.39015,0.37189 -0.78805,2.62978 -1.14224,-1.13337 -1.41672,2.80688 -1.19535,-0.11511 -3.07252,7.40236 -0.0531,5.76428 -3.40013,-0.52241 -1.64694,11.80305 -5.12676,-1.76205 -14.25575,-0.33647 -9.78422,-2.99282 -9.6337,2.73604 -0.26564,-2.30217 -0.82347,0.15938 -0.23907,-1.05368 -0.61096,-6.00336 -1.46099,-2.30217 0.5047,-1.36359 0.79691,-0.79691 0.44272,-6.25128 2.66521,-4.19703 2.14279,1.60267 0.34533,-0.85889 -0.85004,-2.26675 1.31932,-2.92199 -0.46928,-2.9397 0.20365,-2.62978 4.57778,2.36415 3.80743,0.73492 0.78805,-0.65523 1.05369,0.62867 -0.69951,4.63976 5.36583,0.23022 1.58496,0.9917 z">
<title
   id="title1008">Doberschau-Gaußig     absolute Anzahl: 22 relativ zur Einwohnerzahl: 0,53 %
</title>
</path>


<!-- Gemeinde   -->
<path
   style="fill:#5a1212;fill-opacity:1;stroke:#000000;stroke-width:0.8854503;stroke-linecap:butt"
   onmouseout="style.opacity = 1;"
   onmouseover="style.opacity = 0.5;"
   id="120"
   class="st4"
   d="m 196.79898,321.16734 1.70006,1.7532 4.66633,0.78805 3.40013,-0.5844 3.92254,1.48756 5.28614,-0.6818 5.03821,1.23077 2.81573,-0.96514 3.74546,0.30991 3.01938,0.98285 3.66577,3.79858 4.96737,0.69065 0.64638,-0.84117 1.3636,1.41672 -1.32818,0.55783 -0.0177,1.00941 2.04539,0.73493 2.62094,-0.96514 0.17709,-1.89487 8.73054,-0.16823 5.78199,2.70948 2.89542,2.45269 3.52409,0.0974 9.21754,3.97567 1.77975,8.37636 0.17709,2.7449 -1.01826,-0.062 -0.69065,1.84174 3.38242,1.23963 2.89542,3.26731 -1.53183,1.22192 0.0266,2.87771 3.49753,3.1345 3.21419,0.82347 -0.88545,3.834 -4.35642,7.39351 -7.41122,-4.68404 0.062,-2.34644 -7.94249,-3.96682 -0.11511,8.87222 -1.4787,1.30161 1.54954,0.37189 0.0974,3.38242 -5.35697,0.11511 -0.0354,-1.32818 -4.47153,-1.37245 -1.59381,2.91313 0.95629,0.0177 -3.9314,2.63864 -3.40013,-0.44272 -4.7106,6.49035 -4.48037,2.47041 -3.30273,-0.65524 -0.23022,-1.50526 -7.06589,-5.63147 -0.51357,2.46156 -2.92198,-1.56725 -1.83288,2.02768 -5.32156,-0.0354 -1.48756,5.47208 -2.39957,-0.32761 -0.0531,1.04483 -1.94799,0.30105 -1.6558,-1.49641 -1.15108,0.33647 -0.33647,1.40787 -1.83289,-1.9657 -2.26675,0.66409 0.974,-2.29332 -3.78088,-3.30273 2.09852,-1.92143 2.08081,-5.43666 0.7969,0.44272 0.8766,-1.70892 -0.30991,-2.41728 0.92087,-0.44272 0.88545,-3.31158 2.92199,0.78805 0.23907,-1.88601 0.57554,0.73492 1.02712,-0.73492 -2.96625,-1.22192 1.07139,-2.87772 -1.21307,0.52242 0.8766,-0.94743 -1.0891,-0.94744 -0.62867,0.78805 -2.49697,-1.75319 -3.7366,-0.27449 -3.70119,-1.62922 -1.62923,0.49585 0.77035,1.12452 -0.974,1.24848 -5.62261,-0.61981 0.14167,3.71889 -3.29387,-1.14223 -4.59549,4.58663 -4.31214,-0.37189 -2.67406,-1.60266 -1.30161,8.59772 -4.17933,-0.28334 -0.93858,-0.974 -1.46984,0.72607 -1.15109,-1.37245 -2.31988,-0.0708 -1.44328,-2.03654 0.13281,-2.23133 6.63203,-3.43555 0.5047,-1.32818 -6.28669,-9.10243 5.79084,-0.98285 3.76317,-3.39127 2.50582,-11.24522 3.1522,-4.84341 4.09078,-0.94744 7.63259,1.60267 1.33703,-1.70006 1.78861,0.46928 -3.98453,-3.71889 -1.35474,-3.91369 0.50471,-2.91313 2.5678,-3.7366 1.29276,-0.41616 z">
<title
   id="title120">Elsterheide     absolute Anzahl: 60 relativ zur Einwohnerzahl: 1,73 %
</title>
</path>
   <!-- Gemeinde   -->

 <path
   style="fill:#821212;fill-opacity:1;stroke:#000000;stroke-width:0.8854503;stroke-linecap:butt"
   onmouseout="style.opacity = 1;"
   onmouseover="style.opacity = 0.5;"
   id="130"
   class="st10"
   d="m 202.55352,532.87763 -1.00941,4.47152 1.94799,1.15994 -0.20366,3.04595 3.17877,2.19592 -0.40731,1.27505 -1.94799,-0.8766 -1.11566,1.5761 0.82346,1.21307 -0.92086,5.40125 1.81517,0.15052 0.85003,4.20589 -1.77975,1.22192 0.2922,1.87716 -2.0454,0.43387 -1.65579,4.17047 -2.41728,0.65523 -1.84173,4.23246 -3.37357,1.63808 -0.1948,3.56836 -6.19815,3.63035 -4.15276,-2.7626 -1.51412,2.50582 -0.88545,-0.57554 -0.81462,1.43443 -4.17932,-1.99227 0.83232,-0.49585 -0.49585,-3.33815 3.01053,-2.13393 -3.18762,-7.18986 -0.99171,-1.22192 -1.85944,-3.77202 0.94743,-13.69791 -2.65635,-2.66521 -0.0531,-2.78031 4.42725,0.0266 1.83289,-3.97567 0.43387,-4.40069 1.98341,-1.31047 5.26842,-2.11622 1.7532,1.40786 -0.90316,-1.62037 0.83232,-0.42502 4.03765,2.53239 1.76205,-0.0443 0.15053,-1.3813 1.72662,1.36359 2.13394,-0.82347 0.35418,-3.09022 5.43667,4.17047 -0.60211,2.72719 z">
<title
   id="title130">Elstra     absolute Anzahl: 14 relativ zur Einwohnerzahl: 0,51 %
</title>
</path>

    <!-- Gemeinde   -->
<path
   style="fill:#671212;fill-opacity:1;stroke:#000000;stroke-width:0.8854503;stroke-linecap:butt"
   onmouseout="style.opacity = 1;"
   onmouseover="style.opacity = 0.5;"
   id="140"
   class="st11"
   d="m 184.16183,602.26063 4.19704,2.24905 0.53127,2.79802 -3.2319,1.2839 -0.68179,2.21363 1.89486,3.47982 -0.56669,1.1865 -1.82403,0.974 -4.47152,0.15938 -5.07363,-1.8683 -7.17215,1.34588 -0.23022,1.19536 -3.7543,-6.82682 2.12508,-6.60546 -0.61096,-5.18874 14.99067,-1.45214 z">
<title
   id="title140">Frankenthal     absolute Anzahl: 10 relativ zur Einwohnerzahl: 1,08 %
</title>
</path>

   <!-- Gemeinde   -->
<path
   style="fill:#6e1212;fill-opacity:1;stroke:#000000;stroke-width:0.8854503;stroke-linecap:butt"
   onmouseout="style.opacity = 1;"
   onmouseover="style.opacity = 0.5;"
   id="150"
   class="st5"
   d="m 280.28278,546.19923 0.68179,0.49585 -1.09795,1.53183 1.8683,1.93028 -1.02713,1.38131 0.76149,0.29219 -1.90372,-0.1948 0.70836,0.64638 -3.79858,2.31103 -3.36471,9.36806 5.15332,2.10738 -2.24019,5.65802 1.19536,3.94026 1.41672,-0.0177 0.3896,1.15108 3.42669,-0.0354 1.09796,-1.50527 1.85059,0.41616 1.06254,-2.13393 1.3813,-0.0443 0.36304,-1.79746 5.18874,1.34588 -1.58496,10.05872 -1.95685,4.45381 -2.04539,0.6818 -0.85003,3.18762 -6.06533,-1.52297 -2.09852,5.09134 -2.38186,-0.76149 0.32762,2.24019 -3.11679,2.71833 -1.58496,-1.00056 -5.36582,-0.22136 0.69065,-4.63976 -1.04483,-0.62867 -0.78806,0.65523 -3.80743,-0.74377 -4.58663,-2.3553 -0.20366,2.62979 -1.82403,-3.9314 -2.47926,0.73492 -3.12564,-2.30217 1.46985,-2.86001 -1.07139,-0.55783 -0.94744,-3.09908 -5.73771,-0.22136 -1.10682,2.52354 -2.28446,-1.01827 0.74378,-3.86942 1.99226,-0.2922 0.0177,-2.28446 5.15332,-3.11679 0.73493,-1.84173 -0.009,-1.461 -1.54068,0.98285 0.47814,-1.69121 -3.48867,0.18595 0.35418,-1.10681 -2.07196,-0.13282 -0.12396,-1.65579 1.82403,-4.54236 3.29387,0.51356 0.0354,-2.26676 0.83233,0.12397 0.52241,-2.36415 0.7792,0.45157 -1.38131,-1.43442 0.30991,-2.86001 -1.70892,-0.8943 0.974,-2.28447 -0.47814,-1.61152 2.28446,0.42502 0.3896,-2.14279 5.72,1.29276 0.40731,-1.94799 2.12508,0.49585 -1.81517,-2.90428 0.5844,-0.85003 4.20589,0.39845 1.39015,-0.92087 2.68292,-0.19479 -1.32818,1.4787 1.49641,0.7969 2.28446,0.1948 0.26564,-1.08025 1.4787,-0.0177 1.3813,1.08025 -0.73492,0.84118 0.61096,-0.30105 0.15938,-0.63753 1.51412,0.15938 0.34533,1.35474 4.78143,0.64638 0.0531,1.14223 1.19535,0.0443 z">
<title
   id="title150">Göda     absolute Anzahl: 23 relativ zur Einwohnerzahl: 0,75 %
</title>
</path>

<!-- Gemeinde Groszdubrau   -->
<path
   style="fill:#6e1212;fill-opacity:1;stroke:#000000;stroke-width:0.8854503;stroke-linecap:butt"
   onmouseout="style.opacity = 1;"
   onmouseover="style.opacity = 0.5;"
   id="160"
   class="st5"
   d="m 339.35737,503.00962 -0.0885,-6.41952 -2.4527,-2.08966 -0.36303,-2.00112 2.75375,-2.99282 2.73604,-11.59054 6.89766,-3.67462 3.49753,-0.66409 -0.23907,3.0371 2.49697,1.94799 -0.36304,-4.03766 0.69951,-0.0974 3.13449,6.55234 2.05425,0.30105 1.70006,2.10737 0.91201,-1.40787 3.09023,-0.6021 0.25678,0.88545 1.93913,-0.13282 -0.0443,1.00941 -2.01883,0.59326 0.70836,14.71618 6.20701,0.009 -0.81461,8.08416 3.41783,0.0177 2.68292,-2.4527 1.30161,1.87715 -3.69233,4.14391 -2.62978,0.32762 0.22136,0.84117 -1.46985,0.42502 -1.03598,1.95685 -2.22248,-0.0531 1.89487,2.99282 -2.04539,8.87221 -1.82403,1.83289 -4.37413,-0.84118 -0.33647,1.12452 -0.94743,-0.12396 0.10626,-1.21307 -1.19536,-0.47814 0.76149,-1.80632 -2.65636,-0.77034 -1.27504,2.39071 -2.41728,1.58496 -0.98285,-0.33647 -1.22193,2.81573 -1.51412,0.8943 -8.3675,-1.46099 -1.88601,2.47926 0.8766,0.93858 -1.47871,0.21251 -0.6021,2.09851 0.75263,1.34589 -0.65523,-0.14167 -0.30991,2.35529 -2.56781,-0.65523 0.46044,1.85945 -1.66465,0.62867 0.20365,2.04539 1.08025,-0.009 -1.31932,1.31932 0.10626,2.26676 -5.98565,-5.87054 -0.11511,2.17821 -1.46984,0.73492 -1.69121,3.78973 -4.07307,0.30991 -1.44329,5.03821 -3.86056,-1.64694 2.99282,-1.33703 0.0177,-1.45214 0.82347,-0.0354 -1.42558,-1.60267 -1.45214,3.76316 -2.24018,0.67295 -6.69401,-1.44329 -1.15108,-6.95964 3.32043,-0.0177 2.19592,2.61208 4.86998,-0.92087 1.00056,-3.74545 0.90316,-1.27505 1.11566,0.26564 0.78805,-3.16106 1.3636,0.26563 1.88601,-8.9519 1.84173,0.15938 0.88545,-1.51412 1.95685,-0.64638 -1.2839,-2.4704 -1.93914,-0.0886 2.83344,-1.55839 -1.30161,-2.57666 -1.54068,-1.03598 -3.85171,-0.15053 0.0266,-1.48755 1.00941,-0.54898 -0.64638,-1.79747 2.00998,0.24793 2.1605,-1.48756 -0.0177,-3.2496 1.1865,-1.54954 4.52465,-0.76148 0.10626,1.6735 z">
<title
   id="title160">Großdubrau     absolute Anzahl: 35 relativ zur Einwohnerzahl: 0,82 %
</title>
</path>
   <!-- Gemeinde   -->
<path
   style="fill:#961212;fill-opacity:1;stroke:#000000;stroke-width:0.8854503;stroke-linecap:butt"
   onmouseout="style.opacity = 1;"
   onmouseover="style.opacity = 0.5;"
   id="170"
   class="st12"
   d="m 152.78856,640.61037 -2.01883,0.50471 -2.49697,-0.12397 -4.07307,-3.72774 -3.15221,-0.91202 -0.80575,-1.78861 -1.15109,-0.15052 -0.73492,-3.78087 0.65523,-1.6558 -2.51468,1.58496 -0.76149,-0.72607 1.70892,-2.08081 -2.23133,-2.41728 1.97455,-2.78917 -0.2922,-1.62922 -4.61319,-2.55896 -0.81462,-2.31102 1.46985,-0.66409 0.25678,0.79691 5.03821,1.1865 5.06478,-2.15164 1.39016,-3.77202 3.26731,0.16823 3.67462,1.62038 5.8174,0.3099 6.33097,-3.09022 3.75431,6.82682 0.23022,-1.19535 7.17215,-1.34589 5.07363,1.8683 4.47152,-0.15938 1.82403,-0.98285 0.80576,0.73493 -1.31047,0.93857 0.15939,7.61488 0.82346,0.94743 -3.71889,1.7709 0.80576,2.07195 2.79803,1.39901 -0.009,5.77314 1.5761,1.13338 -2.39957,1.82402 -0.14167,2.03654 -3.08137,1.56725 -2.373,2.60322 -1.41672,-0.85889 -3.14335,4.40069 -2.23134,0.44273 -5.44552,-2.70948 -1.37245,2.07195 -1.31932,0.32762 -1.46099,-1.13338 -3.35586,-0.23907 -2.47926,0.94743 z">
<title
   id="title170">Großharthau     absolute Anzahl: 13 relativ zur Einwohnerzahl: 0,47 %
</title>
</path>

   <!-- Gemeinde   -->
<path
   style="fill:#821212;fill-opacity:1;stroke:#000000;stroke-width:0.8854503;stroke-linecap:butt"
   onmouseout="style.opacity = 1;"
   onmouseover="style.opacity = 0.5;"
   id="180"
   class="st4"
   d="m 108.42927,538.5454 2.93969,2.31988 0.79691,4.52465 1.83288,-0.37189 1.54068,5.30385 4.4184,3.33814 2.54124,7.30497 -1.41672,4.74601 -3.91369,4.15277 -0.39845,1.83288 -0.74378,-0.69065 0.52242,-1.88601 -2.23134,-1.54954 -1.58496,-4.94081 -4.65746,4.69288 -5.64032,-1.63808 -1.76205,0.41616 -3.355856,-2.94855 -2.116226,1.00942 -2.815732,-2.36416 2.983968,-0.70836 1.815173,-2.46155 -2.018827,-0.63752 -1.708919,1.14223 -3.683464,-0.98285 -2.249047,0.5047 0.247926,-1.52297 8.934188,-4.58663 0.17709,-5.7997 5.418956,-8.96076 2.38186,0.69951 1.68236,-0.974 z">
<title
   id="title180">Großnaundorf     absolute Anzahl: 5 relativ zur Einwohnerzahl: 0,52 %
</title>
</path>

   <!-- Gemeinde   -->
<path
   style="fill:#821212;fill-opacity:1;stroke:#000000;stroke-width:0.8854503;stroke-linecap:butt"
   onmouseout="style.opacity = 1;"
   onmouseover="style.opacity = 0.5;"
   id="190"
   class="st4"
   d="m 329.55809,601.86661 1.31932,-2.67406 2.39957,-0.55784 0.2922,-2.11622 3.4444,3.77201 2.83344,-0.66408 1.16879,1.4787 1.06254,8.38521 -3.09022,0.56669 0.009,2.46155 1.36359,0.25678 1.79747,6.86224 2.39957,-0.80576 0.30105,1.14224 -1.24849,1.35473 -3.43554,0.34533 1.12452,4.20589 -0.67294,1.08025 -5.26843,-0.15053 -2.93084,0.96514 -0.25678,1.62038 -2.22248,-0.81462 -0.47815,-1.32817 -2.57666,-0.49586 -1.27505,-2.24904 -11.58169,0.17709 3.12564,-7.91592 0.0708,-2.97512 0.96514,0.36304 1.87715,-2.99283 -1.73548,-3.53294 -2.14279,-0.0531 -0.5047,-2.00997 2.69176,-2.9397 2.37301,-0.91201 -0.24793,-3.51524 4.17933,-0.70836 0.21251,-1.0891 1.22192,0.14167 1.15994,2.85115 -0.78805,2.33759 0.65523,-0.81462 z">
<title
   id="title190">Großpostwitz     absolute Anzahl: 15 relativ zur Einwohnerzahl: 0,55 %
</title>
</path>

   <!-- Gemeinde   -->
<path
   style="fill:#821212;fill-opacity:1;stroke:#000000;stroke-width:0.8854503;stroke-linecap:butt"
   onmouseout="style.opacity = 1;"
   onmouseover="style.opacity = 0.5;"
   id="200"
   class="st11"
   d="m 163.35375,584.37099 1.97455,-2.23133 -0.23907,-1.61152 0.47815,0.7969 4.85226,-1.15994 0.54898,1.22193 3.38242,-2.12509 0.75264,2.5501 -0.88546,1.84174 3.94026,-0.062 0.93858,6.06533 -0.78805,4.85227 1.97455,2.70062 -14.99067,1.44329 0.61096,5.18874 -2.12508,6.60546 -6.33983,3.09907 -5.80855,-0.31876 -3.68348,-1.61152 -3.25845,-0.16824 -1.39016,3.76317 -5.06478,2.1605 -5.03821,-1.19536 -0.25678,-0.78805 -3.32929,1.93913 -2.08081,-0.98285 -6.45493,1.32818 -10.75822,-6.46379 1.52297,-1.00941 -1.3813,-1.0714 -0.33647,-4.19703 4.36527,-2.4527 1.06254,-0.15052 0.98285,1.26619 -0.0708,-2.05424 5.93252,-2.66521 0.0708,-2.72719 1.85945,-0.009 1.19536,-1.7709 -0.49586,-2.26676 -2.50582,-0.84117 5.79085,-8.58887 2.47926,1.39016 5.96793,-1.53183 3.02824,2.77146 3.81629,-1.59381 2.41728,0.95628 2.83344,2.96626 4.65747,-1.24848 2.88657,1.63808 z">
<title
   id="title200">Großröhrsdorf     absolute Anzahl: 54 relativ zur Einwohnerzahl: 0,56 %
</title>
</path>

   <!-- Gemeinde   -->
<path
   style="fill:#821212;fill-opacity:1;stroke:#000000;stroke-width:0.8854503;stroke-linecap:butt"
   onmouseout="style.opacity = 1;"
   onmouseover="style.opacity = 0.5;"
   id="220"
   class="st6"
   d="m 128.93452,518.00561 3.27617,-0.40731 5.76428,1.50526 13.72448,1.32818 3.28502,4.08193 -0.062,1.09795 5.67574,1.9657 2.87771,2.36416 -0.52241,5.0205 -1.48756,0.36303 -0.14167,1.44329 1.59381,0.45158 2.12508,-0.8766 5.30385,3.09908 0.0531,2.78031 2.66521,2.65635 -0.95629,13.69792 1.85945,3.77202 -4.71945,-2.3553 -3.92255,-0.15053 -3.55065,-5.58719 -4.09078,0.86774 -0.2922,-1.55839 1.14223,-1.68235 -2.12508,-2.67406 -8.22584,0.81461 -2.51467,-8.27896 -9.10243,0.7969 -0.63753,0.82347 -2.14279,0.17709 0.81462,-2.24019 -1.11567,-3.37356 1.19536,-0.52242 -2.68292,-4.25901 -4.98508,1.00056 -0.76149,-2.58552 0.0354,1.23963 -8.32323,1.2839 -8.63315,5.17103 -0.8943,-0.70836 0.6818,-0.92972 -0.73493,-4.48923 -2.21362,0.81461 -2.82459,-3.71003 0.46043,-1.62923 2.05425,-0.1948 -1.22192,-5.7997 0.53127,-2.50583 -3.60378,-3.31158 1.00055,-1.46985 4.54236,0.22136 4.81685,-2.39957 6.49921,4.35642 z">
<title
   id="title220">Haselbachtal     absolute Anzahl: 28 relativ zur Einwohnerzahl: 0,70 %
</title>
</path>

   <!-- Gemeinde   -->
<path
   style="fill:#961212;fill-opacity:1;stroke:#000000;stroke-width:0.8854503;stroke-linecap:butt"
   onmouseout="style.opacity = 1;"
   onmouseover="style.opacity = 0.5;"
   id="230"
   class="st5"
   d="m 374.54605,583.5245 4.16161,0.52242 1.35474,-3.26731 0.78805,0.85888 2.19592,-0.38959 0.94743,-2.73605 1.19536,0.61096 3.87827,-3.47096 1.19536,-3.55066 0.78805,0.32762 0.27449,2.66521 3.71004,-1.54069 3.03709,3.17877 -1.87715,-0.0354 1.39901,1.98341 -2.39072,2.98397 0.14168,2.15164 1.24848,1.35474 -0.60211,2.96626 4.2236,0.65523 1.62923,-1.92142 0.17709,-2.82459 1.15994,0.28334 1.01827,3.92255 3.98452,0.11511 -1.02712,4.47152 0.20366,5.25072 1.93913,0.14167 0.73493,3.75431 1.72662,-1.33703 0.23022,0.76149 -0.70836,-0.0974 -0.11511,3.86942 -2.65635,0.2922 -0.35418,1.53183 2.03654,2.11622 2.57666,-0.59325 -0.93858,1.4787 -1.75319,-0.64638 -2.24019,2.27561 -2.57666,-0.16824 -2.36415,1.60267 -3.51524,-0.64638 -0.75263,-1.06254 -2.80688,3.89598 0.15938,1.13338 2.82459,0.44272 0.22136,1.70007 2.83344,0.70836 -0.0708,1.06254 -5.9945,0.49585 -4.74601,-2.09852 -4.55121,-0.34532 -1.15109,0.95628 -2.36415,-0.92086 -1.17765,4.09963 -4.32985,-1.31932 -3.3293,0.63752 -7.11902,-0.9917 -2.55009,-2.49697 -4.40955,0.8766 -0.15052,-12.98071 2.15164,-7.44663 1.35474,0.0974 -1.45214,-5.25958 6.23357,-1.21306 3.16106,-6.52577 z">
<title
   id="title230">Hochkirch     absolute Anzahl: 8 relativ zur Einwohnerzahl: 0,35 %
</title>
</path>

   <!-- Gemeinde   -->

<path
   style="fill:#821212;fill-opacity:1;stroke:#000000;stroke-width:0.8854503;stroke-linecap:butt"
   onmouseout="style.opacity = 1;"
   onmouseover="style.opacity = 0.5;"
   id="240"
   class="st4"
   d="m 260.54432,377.4687 0.0354,1.33703 10.04986,-0.27449 0.31876,1.19536 1.31047,-0.76149 6.96849,1.43443 0.56669,0.76149 -2.24905,0.94743 4.56007,7.35809 -5.48093,0.11511 0.0974,4.37413 -2.5501,-0.0885 0.25678,7.41122 8.99617,-1.76204 -2.18706,3.78972 0.25678,2.54125 3.53295,1.45213 -1.09796,1.45214 -0.0708,3.08137 -5.44552,7.5706 4.10849,1.11567 4.26787,-0.77034 1.12452,0.68179 -0.81462,-3.79858 7.59717,1.00056 -8.87222,9.66026 -1.99226,3.51524 -4.3387,3.89598 -4.06422,-1.1865 -0.53127,-2.69177 -3.14335,-0.487 0.50471,-0.72607 -1.49641,-0.90316 0.77034,-4.94966 -2.65635,-3.54181 0.85888,-2.08966 -2.22248,-1.90372 v -5.79084 l -5.38354,2.68291 -2.81573,-2.16935 -3.85171,1.5761 -1.62923,-3.29387 -5.59604,-1.78861 -4.81685,0.84117 0.46043,6.41952 -3.41783,-0.0885 0.0531,4.35642 -2.39957,2.96626 -3.07251,0.14167 0.0708,-1.81517 -6.76485,-5.68459 -1.21306,1.54953 -0.99171,-0.13281 0.11511,-1.41672 h -5.35697 l -1.65579,1.31046 -3.49753,-0.009 -1.50527,2.24019 -2.58551,0.58439 -2.79803,3.1345 -1.07139,-1.1688 -6.87995,1.74434 -4.98509,5.23301 -1.99226,-0.62867 -9.18212,0.7792 -3.52409,-0.61096 -2.51468,-1.7709 -1.20421,-3.3293 -2.14279,1.00942 -11.24522,-7.79197 -2.08081,-1.15994 -0.37189,-1.2839 4.2236,-0.0885 4.25016,-4.04651 0.50471,1.21307 2.00997,-0.51357 -0.50471,-1.34588 -1.54954,-0.24793 2.49697,-3.88712 3.30273,-1.91258 1.76205,1.66465 -0.26563,-2.41728 3.67461,-2.09852 -2.55895,-6.02106 9.46547,-4.93196 -1.27505,-0.0177 0.487,-1.20421 1.7709,-0.13282 -0.0531,3.71004 1.99226,0.26564 0.24793,-3.15221 1.58495,0.20366 1.81518,-3.95797 3.23189,3.96682 2.00997,-3.84285 5.27729,4.36527 -0.974,2.29331 2.26676,-0.66408 1.83288,1.95684 0.33647,-1.39901 1.15108,-0.33647 1.6558,1.48756 1.94799,-0.2922 0.0443,-1.05369 2.39957,0.32762 1.49641,-5.47209 5.32156,0.0354 1.82402,-2.01882 2.93085,1.55839 0.51356,-2.46155 7.05704,5.63146 0.23021,1.51412 3.31159,0.65523 4.48038,-2.4704 4.71059,-6.49035 3.39128,0.44272 3.94025,-2.63864 -0.95629,-0.0177 1.59381,-2.91313 z">
<title
   id="title240">Hoyerswerda     absolute Anzahl: 201 relativ zur Einwohnerzahl: 0,62 %
</title>
</path>

   <!-- Gemeinde   -->
<path
   style="fill:#5f1212;fill-opacity:1;stroke:#000000;stroke-width:0.8854503;stroke-linecap:butt"
   onmouseout="style.opacity = 1;"
   onmouseover="style.opacity = 0.5;"
   id="250"
   class="st5"
   d="m 202.45789,488.44219 4.64862,7.65915 1.03597,8.42948 -5.39239,2.89543 -3.21418,0.0797 0.0797,1.29275 -1.70007,0.57555 -1.24848,-3.30273 -3.76317,0.44272 -2.63864,4.69289 -2.36415,0.0797 0.73492,3.98453 4.11735,4.63976 0.0354,2.55009 2.41728,0.46929 -0.73492,1.68236 1.6735,0.97399 -0.36303,3.08137 -2.13394,0.83232 -1.71777,-1.36359 -0.15053,1.37245 -1.76205,0.0443 -4.03765,-2.52353 -0.83232,0.41616 0.90316,1.62923 -1.75319,-1.41672 -5.26843,2.12508 -1.98341,1.31046 -0.44273,4.40069 -1.83288,3.97567 -4.4184,-0.0266 -5.30384,-3.09908 -2.12508,0.8766 -1.59382,-0.45158 0.13282,-1.44328 1.48756,-0.36304 0.53127,-5.02936 -2.88657,-2.35529 -5.67574,-1.9657 0.062,-1.09796 -3.28503,-4.08193 -13.71562,-1.32817 -5.76428,-1.50527 -3.28502,0.40731 4.20589,-9.91705 2.40842,-8.62428 -2.6475,-1.73549 -1.54068,-2.81573 -0.97399,-6.76484 4.01994,-2.28446 -3.16991,-3.23189 12.67965,-8.82794 4.71945,-0.69065 2.23133,-2.26676 1.00056,-5.87053 2.7449,-3.48868 8.24354,4.00224 1.14223,-0.0531 1.70892,-2.04539 7.51747,-0.75263 2.91313,1.21307 1.41672,-3.01054 1.35474,1.23078 -0.6021,1.15994 0.95628,0.23907 0.7792,2.96626 1.15994,0.55783 -0.24793,2.31103 4.43611,1.80632 3.31158,-0.92972 -0.16823,-2.24905 1.16879,-0.91201 3.88713,8.58001 4.09963,4.16162 z">
<title
   id="title250">Kamenz     absolute Anzahl: 213 relativ zur Einwohnerzahl: 1,26 %
</title>
</path>

   <!-- Gemeinde   -->
<path
   style="fill:#6e1212;fill-opacity:1;stroke:#000000;stroke-width:0.8854503;stroke-linecap:butt"
   onmouseout="style.opacity = 1;"
   onmouseover="style.opacity = 0.5;"
   id="270"
   class="st5"
   d="m 64.134794,432.19484 8.951903,0.33648 0.115109,1.60266 2.30217,2.22248 6.552333,1.20421 4.011092,12.09526 4.861125,-2.58552 1.239622,4.67518 -1.372439,2.78031 1.221921,5.59605 7.065885,2.61208 3.382425,12.96299 -3.798587,-0.44273 -11.590538,3.19648 1.204212,2.50582 2.125084,0.31877 3.67461,2.6652 -6.056474,5.03821 -4.090781,1.08911 -0.185944,1.34588 1.59381,0.39845 0.194799,3.01054 2.638642,5.49864 2.417282,-0.0354 0.699506,6.02992 3.382411,-0.21251 1.097959,2.7449 -1.770901,0.9917 -0.664088,1.74434 9.226388,3.74546 -1.00055,1.46984 3.60378,3.30273 -0.52242,2.51468 1.21307,5.79085 -2.05424,0.1948 -0.46044,1.62922 2.82459,3.71004 2.21362,-0.81461 0.73493,4.48923 -0.6818,0.92972 -2.0631,-1.03597 -1.69121,0.97399 -2.37301,-0.70836 -1.63808,0.17709 -1.22192,-1.71777 -2.364153,0.34532 -3.329293,-2.44384 -1.744328,-2.7449 0.08854,-2.87771 -4.967377,-0.71721 0.301054,-5.0028 -6.844534,-0.78805 1.354739,-2.08966 0.256781,-3.50639 -0.708361,-0.43387 -2.656351,0.13282 -8.048743,5.66688 1.51412,-4.27672 -0.469289,-1.7709 4.843414,-3.53295 -5.233012,0.71722 0.345326,-5.3924 -0.973996,-1.39901 -6.339824,-0.14167 -2.523533,2.02768 -2.009973,-0.009 -6.844531,-3.51524 -6.66744,-12.24578 -0.991705,-3.51524 -2.054245,-0.77919 1.549539,-1.42558 1.283903,-3.59493 6.508059,-7.11902 3.727746,-9.66026 -0.203653,-5.3127 13.264045,3.09907 0.345326,-2.68291 -1.390157,-1.37245 0.486998,-2.26675 -2.054245,-2.8423 0.345326,-3.52409 -1.345885,-3.55065 1.071395,-0.91202 -1.496411,-0.65523 -0.425016,-2.31988 -4.843413,-4.29444 0.478143,-3.47096 0.690651,-0.85889 -0.858887,-4.14391 z">
<title
   id="title270">Königsbrück     absolute Anzahl: 39 relativ zur Einwohnerzahl: 0,86 %
</title>
</path>

    <!-- Gemeinde   -->
<path
   style="fill:#671212;fill-opacity:1;stroke:#000000;stroke-width:0.8854503;stroke-linecap:butt"
   onmouseout="style.opacity = 1;"
   onmouseover="style.opacity = 0.5;"
   id="280"
   class="st5"
   d="m 247.31923,464.85114 -0.0797,-0.89431 8.59772,-3.41783 6.52577,-3.9137 6.80912,-0.59325 -1.31932,-4.37412 8.11072,-2.7449 8.32323,0.96514 1.5584,3.89598 -0.40731,4.85227 -2.04539,5.14447 4.37412,1.07139 0.47815,9.07587 0.86774,1.59381 3.36471,1.85059 0.77034,2.99282 8.62429,0.92973 -1.72663,7.30496 6.23357,1.08911 2.54124,-3.49753 1.85945,-1.0714 2.58551,0.0974 0.86774,-2.6475 1.461,-0.46928 -1.0714,-1.46985 -0.26563,-4.84341 3.16991,2.59436 -1.43443,2.08967 0.009,1.90372 2.19592,7.21642 -3.12564,3.50638 -1.09796,4.17932 -11.56398,-3.16991 -9.0493,-1.48755 -2.53239,5.36582 -2.21363,-0.81461 -2.33758,-3.5418 -6.19816,-0.062 0.31877,-1.48756 -6.00336,0.42502 -1.55839,1.49641 -2.27561,-0.51356 -10.17382,1.87715 -0.0708,-1.24848 -2.80687,0.2922 -1.93029,2.41727 1.64694,1.0714 0.1948,1.43443 -1.34588,0.23022 0.30105,-0.99171 -3.42669,-0.54898 -0.11511,-1.76204 h -4.38298 l -0.0531,-4.45382 2.17821,-8.34094 0.15938,-4.36527 -0.40731,-6.51692 z">
<title
   id="title280">Königswartha     absolute Anzahl: 36 relativ zur Einwohnerzahl: 1,04 %
</title>
</path>

    <!-- Gemeinde   -->
<path
   style="fill:#6e1212;fill-opacity:1;stroke:#000000;stroke-width:0.8854503;stroke-linecap:butt"
   onmouseout="style.opacity = 1;"
   onmouseover="style.opacity = 0.5;"
   id="290"
   class="st13"
   d="m 343.27814,584.45777 -3.08137,-2.31988 3.1345,-0.3896 -0.31877,-1.59381 -3.01938,-2.32874 -3.16106,0.23022 2.89542,-0.33647 0.55784,-2.11623 -1.59381,-1.46984 4.08192,0.32761 0.41616,-1.98341 1.11567,0.0531 0.35418,-1.23077 2.10737,0.36303 -0.23907,-4.00224 -1.84173,-1.02712 -0.96514,-3.29387 3.32929,-3.92255 -2.10737,-1.75319 0.18594,-0.92087 -0.59325,-1.33703 2.62093,0.47815 1.21307,-2.27561 2.56781,0.54012 0.31876,-1.4787 0.91201,0.24793 -0.25678,0.86774 2.34644,0.21251 0.62867,1.50526 2.53239,1.49641 4.81685,0.92087 3.41784,-2.08081 0.7969,-1.82402 3.66577,-1.47871 1.31047,2.80688 -0.84118,0.47814 2.78917,1.23078 0.61096,1.97455 0.17709,1.94799 -1.85059,1.54954 0.73492,6.41066 -0.86774,0.18595 -0.28335,4.03765 -2.19591,1.08025 1.46984,-0.2922 -0.33647,2.3553 -0.93857,-0.11511 -0.20366,1.0714 -1.45214,-0.28335 0.74378,3.87827 -1.92142,3.55066 0.0177,1.15109 1.63809,1.19535 2.65635,-0.87659 -3.16106,6.52577 -6.24242,1.22192 1.46099,5.25072 -1.36359,-0.0974 -2.14279,7.44664 0.15052,12.98955 -2.92198,0.0797 -4.7106,-1.55839 0.0974,1.00056 -3.19648,1.64694 -4.79028,-1.54954 -2.39957,0.80576 -1.78861,-6.86224 -1.3636,-0.25678 -0.0177,-2.46155 3.09907,-0.56669 -1.07139,-8.38522 -1.1688,-1.4787 -2.83344,0.66409 -3.4444,-3.77202 -0.28334,2.11623 -2.39957,0.55783 -1.32818,2.67406 -2.40842,-0.94743 -0.64638,0.81461 0.78805,-2.33759 -1.1688,-2.85115 -1.21306,-0.14167 -0.0797,-1.55839 0.92086,0.11511 -0.68179,-2.80688 2.5678,0.41616 0.95629,-1.78861 1.34588,0.46044 0.81462,-1.37245 5.32155,-0.0354 3.33815,-3.42669 z">
<title
   id="title290">Kubschütz     absolute Anzahl: 21 relativ zur Einwohnerzahl: 0,83 %
</title>
</path>
<!--        Lausznitz     -->
<path
   style="fill:#6e1212;fill-opacity:1;stroke:#000000;stroke-width:0.8854503;stroke-linecap:butt"
   onmouseout="style.opacity = 1;"
   onmouseover="style.opacity = 0.5;"
   id="300"
   class="st4"
   d="m 71.834228,515.72734 0.460434,1.7709 -1.51412,4.27673 8.048743,-5.66688 2.665206,-0.13282 0.699505,0.43387 -0.247926,3.50638 -1.363593,2.09852 6.844533,0.7792 -0.292198,5.00279 4.958515,0.71722 -0.07969,2.88656 1.735482,2.73604 3.329294,2.44385 2.364152,-0.33647 1.221925,1.70892 1.63808,-0.16824 -5.418956,8.96076 -0.17709,5.7997 -8.943045,4.58663 -0.239072,1.52297 -4.347561,-0.47814 -4.436109,2.49697 -4.019944,0.3896 -4.427252,2.39071 -2.142789,-0.69065 -1.221922,-0.80576 -0.02656,-1.90371 -1.567247,0.58439 -2.523534,-1.44328 -2.001118,1.75319 -1.744337,-0.0974 0.486998,-4.06422 -2.921986,6.23357 -2.240189,-0.41616 -2.824587,1.22192 -9.961316,-2.92198 -2.390716,-3.53295 -2.116226,0.59325 -3.727746,-2.50582 1.363594,-3.58608 -6.286698,-1.63808 -2.275607,-2.3553 8.898776,-1.55839 1.452138,-8.33209 0.265635,1.45214 5.064776,2.70063 1.531829,-0.17709 0.717215,-1.40787 0.212508,0.61096 -0.203654,-3.02824 5.029358,0.062 -0.770342,-1.49641 0.80576,-2.43499 -1.41672,-1.40786 -3.913691,0.28334 0.566689,-0.74378 -1.425575,-1.15994 0.07969,-1.8683 1.310467,-1.71777 -2.337589,-1.45214 0.858886,-2.33759 0.159382,1.83288 0.239071,-1.74433 4.179326,2.13393 -0.363035,1.01827 0.602106,-0.92087 2.585515,-0.30105 -2.364152,-7.83624 2.505824,-1.51412 0.35418,0.5844 1.319321,-1.79746 2.868859,0.82346 0.327617,-0.63752 0.283344,-2.87771 -1.832882,0.76148 -4.931958,-1.9834 -2.975113,-2.7449 4.949667,-3.55951 -3.665764,-2.14279 4.754868,-0.89431 1.195358,2.41728 6.844531,3.51524 2.009972,0.009 2.532388,-2.02769 6.33097,0.14168 0.982849,1.39901 -0.35418,5.39239 5.241866,-0.71721 z">
<title
   id="title300">Laußnitz     absolute Anzahl: 14 relativ zur Einwohnerzahl: 0,76 %
</title>
</path>
   <!-- Gemeinde   -->

<path
   style="fill:#961212;fill-opacity:1;stroke:#000000;stroke-width:0.8854503;stroke-linecap:butt"
   onmouseout="style.opacity = 1;"
   onmouseover="style.opacity = 0.5;"
   id="310"
   class="st11"
   d="m 203.71523,362.51876 3.7366,0.27449 2.49697,1.74434 0.62867,-0.7792 1.08911,0.94743 -0.8766,0.94743 1.21307,-0.52241 -1.0714,2.86886 2.96626,1.23077 -1.02712,0.73493 -0.5844,-0.73493 -0.23022,1.88601 -2.92198,-0.78805 -0.88545,3.31159 -0.92087,0.44272 0.30991,2.41728 -0.8766,1.70892 -0.7969,-0.44273 -2.08081,5.43667 -2.09852,1.92143 -1.49641,-1.06254 -2.00997,3.84285 -3.2319,-3.96682 -1.81517,3.95797 -1.58496,-0.20366 -0.24792,3.16106 -1.99227,-0.26564 0.0531,-3.71003 -1.7709,0.13282 -0.487,1.20421 1.27505,0.009 -9.46546,4.94081 2.55895,6.01221 -3.67462,2.09852 0.26564,2.42613 -1.76205,-1.6735 -3.30273,1.91258 -2.49697,3.89598 1.54954,0.23907 0.5047,1.34588 -2.00997,0.51356 -0.5047,-1.21306 -4.25017,4.0465 -4.22359,0.0885 0.37188,1.2839 2.08081,1.1688 -1.39015,1.69121 0.51356,3.29387 1.42557,0.28335 2.54124,-1.62923 -0.91201,4.4184 -4.30329,-2.44385 -2.5678,-3.16991 -5.11791,-2.55895 -1.02712,-1.60267 -1.12452,-9.7488 -2.22248,-2.71834 3.5418,0.26564 -0.23022,-1.29276 -0.95628,-2.31102 -2.80688,-0.99171 2.93969,-3.49753 8.26126,-3.95796 -4.321,-4.30329 1.24848,-6.4815 -8.37636,-7.60601 -1.20421,-2.12508 2.56781,-3.74546 14.5568,5.6049 -0.13282,2.23134 1.44329,2.03653 2.31102,0.0708 1.15994,1.36359 1.46985,-0.71721 0.93858,0.97399 4.17932,0.27449 1.30161,-8.58887 2.67406,1.59381 4.31215,0.38075 4.58663,-4.58664 3.30273,1.14224 -0.15053,-3.7189 5.62261,0.61982 0.98285,-1.24849 -0.77034,-1.12452 1.62923,-0.49585 z">
<title
   id="title310">Lauta     absolute Anzahl: 29 relativ zur Einwohnerzahl: 0,35 %
</title>
</path>

   <!-- Gemeinde   -->
<path
   style="fill:#961212;fill-opacity:1;stroke:#000000;stroke-width:0.8854503;stroke-linecap:butt"
   onmouseout="style.opacity = 1;"
   onmouseover="style.opacity = 0.5;"
   id="320"
   class="st7"
   d="m 102.38164,587.22834 -2.443843,-0.66409 -1.053685,-3.0548 0.194799,-4.5158 1.106809,-1.53183 -1.133373,-1.14223 2.461553,-4.10849 -0.84118,-6.1096 1.76205,-0.41616 5.64032,1.63808 4.65746,-4.69289 1.58496,4.94081 2.23134,1.54954 -0.52242,1.88601 0.74378,0.69065 0.39845,-1.83288 3.91369,-4.15276 1.41672,-4.74602 4.5158,0.88546 -1.12452,3.834 0.84117,1.85059 -0.73492,4.51579 1.52297,2.83344 -0.90315,0.37189 1.69121,7.41122 -6.25128,9.46547 -3.80744,-3.51524 -0.86774,0.66409 -11.2098,-6.13617 z">
<title
   id="title320">Lichtenberg     absolute Anzahl: 8 relativ zur Einwohnerzahl: 0,49 %
</title>
</path>

   <!--        Lohsa     -->
<path
   style="fill:#821212;fill-opacity:1;stroke:#000000;stroke-width:0.8854503;stroke-linecap:butt"
   onmouseout="style.opacity = 1;"
   onmouseover="style.opacity = 0.5;"
   id="330"
   class="st1"
   d="m 275.96798,448.90949 -8.11958,2.7449 1.32817,4.37412 -6.80911,0.59325 -5.64032,-13.52082 -0.74378,-9.48318 0.75264,-1.46984 5.90595,-1.1688 -0.009,-1.4787 1.82402,-0.83232 1.45214,-0.30106 0.80576,2.46156 2.30217,-1.948 0.54898,1.03598 1.19536,-1.21307 1.49641,0.91202 -0.50471,0.72607 3.14335,0.487 0.53127,2.69176 4.07307,1.18651 4.32986,-3.90484 1.99226,-3.50638 8.87221,-9.66026 -7.59716,-1.00056 0.81461,3.79858 -1.12452,-0.6818 -4.26787,0.77034 -4.10849,-1.11566 5.44552,-7.5706 0.0708,-3.08137 1.09795,-1.45214 -3.53294,-1.45214 -0.25678,-2.54124 2.18706,-3.78973 -8.99618,1.76205 -0.25678,-7.41122 2.5501,0.0797 -0.0974,-4.36527 5.48094,-0.11511 1.2839,2.18706 0.73492,-1.54068 3.834,-0.64638 2.09852,0.82347 -0.13282,1.85945 3.94026,-4.24131 3.40013,-1.5761 1.42557,0.12396 0.6818,2.78031 6.68515,0.41617 -0.062,-2.17821 3.36471,0.0177 -0.10626,1.65579 1.11567,0.1948 -1.33703,7.51747 5.6049,2.44384 14.68962,0.0797 1.47871,-0.93857 -0.18595,-1.46985 2.56781,-2.82459 3.07251,5.01165 2.93969,0.72607 1.1688,2.00997 4.03765,1.7709 3.30273,-0.65523 -1.6735,12.66194 5.79085,1.35474 -1.19536,2.78031 -3.11679,1.48756 -2.60322,6.694 -1.72663,1.44329 -1.22192,4.01994 2.39072,4.4184 -0.17709,2.08081 -2.19592,3.77202 -1.05369,-0.59326 -1.24848,2.62979 -0.79691,-0.12396 -4.17932,7.97791 -2.19592,7.07474 2.29332,-0.25678 -2.47041,2.01883 -1.14223,2.7449 -6.20701,1.39015 -3.97567,8.19927 -2.16935,3.29388 -1.31047,0.2922 -3.16106,-2.59437 0.26564,4.84341 1.07139,1.46099 -1.46099,0.46929 -0.8766,2.65635 -2.57666,-0.10625 -1.85944,1.07139 -2.5501,3.49753 -6.22471,-1.0891 1.72662,-7.30497 -8.63314,-0.92972 -0.76148,-2.98397 -3.37357,-1.85944 -0.86774,-1.58496 -0.47814,-9.08472 -4.37413,-1.07139 2.04539,-5.14447 0.40731,-4.84341 -1.55839,-3.90484 z">
<title
   id="title330">Lohsa     absolute Anzahl: 37 relativ zur Einwohnerzahl: 0,71 %
</title>
</path>
<!-- Gemeinde   -->
<path
   style="fill:#821212;fill-opacity:1;stroke:#000000;stroke-width:0.8854503;stroke-linecap:butt"
   onmouseout="style.opacity = 1;"
   onmouseover="style.opacity = 0.5;"
   id="340"
   class="st4"
   d="m 379.46472,505.98739 -1.31046,-1.88601 -2.68292,2.46155 -3.41784,-0.0177 0.82347,-8.08416 -6.207,-0.009 -0.71722,-14.71619 2.02768,-0.59325 0.0354,-1.01827 -1.93028,0.13282 -0.25678,-0.8766 -3.09908,0.60211 -0.90316,1.39901 -1.70892,-2.09851 -2.04539,-0.30106 -3.14334,-6.55233 -0.69951,0.0974 -0.21251,-1.23963 1.20421,-0.90316 5.14447,0.0354 -1.04483,-3.49753 1.91257,-0.82347 -1.23963,-1.29276 1.40787,-1.39015 -1.02713,-0.52242 -0.39845,-2.88657 1.31932,-0.54012 0.41616,-1.75319 5.14447,-0.77035 1.78861,-4.94966 1.90372,-1.06254 -1.59381,5.38353 -3.55951,6.40181 0.75263,0.57554 0.89431,-0.98285 1.70006,2.27561 3.65691,1.73548 0.3896,4.11735 2.09852,0.96514 -0.30991,0.88545 1.70006,0.97399 3.09908,5.73772 2.1605,-0.0266 3.22304,-5.14447 1.73548,1.36359 3.47982,0.41617 -0.78805,1.51412 3.10793,0.26563 -3.0371,2.1605 -0.52241,2.81573 5.12676,0.51356 -1.91258,3.37357 5.28614,-0.39845 -0.78805,3.80743 -2.6475,4.75487 0.67295,4.54236 4.37412,2.69177 1.11567,3.6392 4.50694,0.22136 -1.8683,9.00503 -2.51468,4.53351 6.07419,1.08025 4.06422,6.74713 -0.43387,5.09134 -1.18651,-0.1948 -1.85059,1.63808 -3.56836,7.33153 -2.29332,6.10075 1.52298,1.71778 -1.25734,-0.77034 -1.48756,2.96626 -1.83288,-0.27449 -0.74378,7.29611 -2.50582,2.51468 -1.23078,-0.38075 -0.2922,2.37301 -2.32873,1.13337 -1.39016,-0.4073 -3.21419,-2.00112 -0.48699,-2.37301 -2.02768,0.38075 -0.49586,-1.33703 -0.92086,0.31876 -1.31933,-1.1865 -2.51467,2.22248 -0.7792,-1.10682 -3.60378,-0.90316 -0.61096,-1.97455 -2.78917,-1.22192 0.84117,-0.487 -1.31046,-2.80688 -3.65691,1.4787 -0.80576,1.82403 -3.41784,2.08081 -4.81685,-0.91201 -2.53239,-1.50527 -0.62867,-1.50526 -2.34644,-0.21251 0.25678,-0.86774 -0.91201,-0.24793 -0.30991,1.4787 -2.57666,-0.54012 -1.20421,2.2756 -2.62094,-0.47814 0.5844,1.33703 -4.81685,-0.92972 0.67294,-2.51468 -2.5678,-1.42558 0.27449,-1.14223 -0.80576,-0.32761 0.94743,-2.22248 -1.72663,-0.14168 -1.87715,-2.18706 -0.10626,-2.2756 1.32818,-1.31047 -1.08025,0.009 -0.21251,-2.05424 1.6735,-0.62867 -0.46929,-1.85945 2.57666,0.66409 0.30106,-2.3553 0.65523,0.13282 -0.74378,-1.34588 0.60211,-2.08967 1.4787,-0.22136 -0.8766,-0.92972 1.87716,-2.47926 8.37636,1.46099 1.50526,-0.8943 1.23078,-2.81574 0.97399,0.32762 2.41728,-1.5761 1.27505,-2.39072 2.65635,0.77034 -0.76148,1.79747 1.19535,0.487 -0.10625,1.21306 0.94743,0.12397 0.34533,-1.12453 4.36527,0.83233 1.82403,-1.82403 2.04539,-8.87221 -1.89487,-2.99282 2.23134,0.0531 1.02712,-1.9657 1.4787,-0.42501 -0.22136,-0.84118 2.62093,-0.31876 z">
<title
   id="title340">Malschwitz     absolute Anzahl: 26 relativ zur Einwohnerzahl: 0,56 %
</title>
</path>
<!-- Gemeinde   -->

<path
   style="fill:#6e1212;fill-opacity:1;stroke:#000000;stroke-width:0.8854503;stroke-linecap:butt"
   onmouseout="style.opacity = 1;"
   onmouseover="style.opacity = 0.5;"
   id="350"
   class="st15"
   d="m 225.51856,509.46632 -6.02106,-2.45269 -3.87827,1.16879 -2.39957,2.73604 -0.12397,3.78087 1.14223,0.82347 -0.42501,2.78917 -0.88545,-0.45158 -0.25678,1.15994 0.38959,3.01053 2.32874,-0.11511 0.1948,1.5584 2.51468,1.15994 v 1.97455 l -2.60323,0.20366 0.35418,1.20421 2.55895,0.39845 0.24793,1.00056 -0.44273,1.62923 -1.73548,-0.30991 0.74378,3.75431 -3.62149,-0.46929 0.0177,1.06254 h -2.9397 l -0.58439,-1.26619 -3.56837,1.32817 -3.96682,-2.26675 -1.58495,-0.39845 0.6021,-2.71834 -5.42781,-4.17932 -1.68235,-0.96514 0.73492,-1.68236 -2.41728,-0.47814 -0.0266,-2.54124 -4.11735,-4.63976 -0.73492,-3.99338 2.36415,-0.0797 2.63864,-4.68404 3.76317,-0.44272 1.23963,3.29387 1.70892,-0.56668 -0.0797,-1.29276 3.21418,-0.0797 5.39239,-2.90428 -1.04483,-8.42949 -4.63976,-7.65029 6.8711,-2.7626 0.26563,1.48755 -1.61152,1.32818 0.0443,1.35474 1.46099,0.61096 2.52353,-1.50527 3.11679,0.18595 1.36359,-0.92972 0.45158,-3.70119 5.75543,7.25184 -0.45158,6.3841 2.43499,4.71945 z">
<title
   id="title350">Nebelschütz     absolute Anzahl: 11 relativ zur Einwohnerzahl: 0,90 %
</title>
</path>

   <!-- Gemeinde   -->
 <path
   style="fill:#821212;fill-opacity:1;stroke:#000000;stroke-width:0.8854503;stroke-linecap:butt"
   onmouseout="style.opacity = 1;"
   onmouseover="style.opacity = 0.5;"
   id="360"
   class="st13"
   d="m 260.48853,495.35047 10.17383,-1.8683 2.27561,0.50471 1.55839,-1.49641 5.9945,-0.41616 -0.30991,1.48755 6.19815,0.0531 2.33759,3.55066 2.21363,0.80576 2.52353,-5.36583 9.05816,1.48755 -6.27785,14.43285 -3.47982,5.56062 0.22137,1.83289 -0.96514,0.44272 0.43387,4.52465 -2.95741,5.74657 1.0714,0.31877 0.57554,2.62978 -1.29276,7.20757 -5.05592,-1.0891 0.64638,2.18706 -1.00056,4.54236 -3.5418,-0.92972 -0.61096,4.69288 -1.72663,1.85945 -1.20421,-0.0443 -0.0443,-1.14224 -4.79029,-0.63752 -0.34533,-1.36359 -1.50526,-0.15938 -0.16824,0.63752 -0.6021,0.30991 0.72607,-0.85004 -1.37245,-1.08024 -1.4787,0.0177 -0.26564,1.08911 -2.29331,-0.1948 -1.48756,-0.79691 1.32817,-1.4787 -2.69176,0.1948 -1.82403,-0.5844 0.23021,-1.83288 2.11623,-0.15052 1.65579,-2.6475 -0.66408,-4.86112 1.05368,-0.31877 0.40731,-2.18706 1.19536,-0.0708 -0.27449,-0.85889 2.92198,-1.73548 2.55895,-3.09023 -1.22192,-0.15938 -2.99282,-4.7283 -4.5158,0.0531 -0.34532,-1.54954 -3.28502,-1.58496 -0.95629,2.03654 -1.53183,-0.18595 -0.41616,1.39016 -3.47096,-2.75375 -0.39846,1.03598 -5.85282,-0.12397 -1.25734,-2.31102 0.51356,-0.78805 -2.59437,-0.28335 0.0177,-4.08192 2.70062,-1.8683 -0.16823,-2.49697 2.19591,-2.11623 0.3896,-7.44664 4.38298,-0.009 0.11511,1.76205 3.43554,0.54897 -0.30105,1.00056 1.34589,-0.23021 -0.1948,-1.44329 -1.64694,-1.06254 1.93028,-2.42613 2.80688,-0.2922 z">
<title
   id="title360">Neschwitz     absolute Anzahl: 13 relativ zur Einwohnerzahl: 0,54 %
</title>
</path>

    <!-- Gemeinde   -->
<path
   style="fill:#961212;fill-opacity:1;stroke:#000000;stroke-width:0.8854503;stroke-linecap:butt"
   onmouseout="style.opacity = 1;"
   onmouseover="style.opacity = 0.5;"
   id="370"
   class="st13"
   d="m 102.47284,475.69436 6.53463,0.46044 2.87771,2.03653 5.00279,0.0443 3.53295,2.21362 0.16824,-1.50526 2.53238,2.04539 2.44385,0.25678 -4.25902,2.38186 1.05369,2.68291 1.74433,-2.0631 4.56893,-0.38074 1.39901,-1.4787 1.15994,0.24792 3.16991,3.2319 -4.01994,2.28446 0.97399,6.75598 1.54068,2.82459 2.6475,1.73548 -2.40842,8.62429 -4.20589,9.91704 -10.5103,-0.5047 -6.49035,-4.35642 -4.81685,2.39957 -4.55121,-0.22136 -9.226396,-3.7366 0.672943,-1.75319 1.762046,-0.99171 -1.097959,-2.74489 -3.382411,0.2125 -0.699506,-6.02991 -2.417282,0.0443 -2.638642,-5.5075 -0.194799,-3.01053 -1.59381,-0.39845 0.185944,-1.33703 4.090781,-1.09796 6.056474,-5.03821 -3.67461,-2.66521 -2.125084,-0.30991 -1.195358,-2.51468 11.590539,-3.19647 z">
<title
   id="title370">Neukirch     absolute Anzahl: 8 relativ zur Einwohnerzahl: 0,49 %
</title>
</path>
 <!-- Gemeinde   -->

<path
   style="fill:#6e1212;fill-opacity:1;stroke:#000000;stroke-width:0.8854503;stroke-linecap:butt"
   onmouseout="style.opacity = 1;"
   onmouseover="style.opacity = 0.5;"
   id="380"
   class="st11"
   d="m 272.85916,624.64393 9.69568,0.41616 0.15938,8.65971 -1.53183,0.85888 0.82347,1.83288 -0.53127,3.45326 1.0714,1.15109 -9.12014,2.63864 -0.57554,1.5761 -4.28558,2.59437 -0.63753,2.34644 2.71834,4.04651 -8.50033,-0.61096 -4.26787,-2.94855 -5.61375,-0.94743 -5.54292,-6.7737 0.35418,-3.69232 1.62923,-0.27449 -1.63809,-2.46156 0.11511,-2.39071 1.32818,-1.98341 0.17709,-6.50806 14.39742,-3.98453 z">
<title
   id="title380">Neukirch/Lausitz     absolute Anzahl: 44 relativ zur Einwohnerzahl: 0,91 %
</title>
</path>

    <!-- Gemeinde   -->
<path
   style="fill:#961212;fill-opacity:1;stroke:#000000;stroke-width:0.8854503;stroke-linecap:butt"
   onmouseout="style.opacity = 1;"
   onmouseover="style.opacity = 0.5;"
   id="390"
   class="st5"
   d="m 311.78444,598.17693 -0.0266,2.67406 3.09908,5.1976 0.83232,-0.47815 0.50471,2.00998 2.14279,0.0531 1.73548,3.5241 -1.87716,3.00167 -0.96514,-0.36303 -0.0708,2.97511 -3.12564,7.90707 -0.6818,-0.20365 -1.68236,-1.92143 -3.71003,-0.35418 -0.46044,-2.49697 -6.64973,-1.40786 -0.86774,-0.46044 0.23907,-1.7709 -2.01883,0.51356 -0.91201,-1.12452 0.0531,-5.75543 3.07251,-7.41122 1.20421,0.12397 1.41672,-2.80688 1.13338,1.12452 0.78805,-2.62979 1.39016,-0.36303 -0.41616,-1.29276 1.10681,-0.46043 3.55065,0.62867 -0.49585,1.24848 z">
<title
   id="title390">Obergurig     absolute Anzahl: 8 relativ zur Einwohnerzahl: 0,39 %
</title>
</path>

   <!-- Gemeinde   -->
<path
   style="fill:#961212;fill-opacity:1;stroke:#000000;stroke-width:0.8854503;stroke-linecap:butt"
   onmouseout="style.opacity = 1;"
   onmouseover="style.opacity = 0.5;"
   id="410"
   class="st11"
   d="m 175.14263,572.8991 0.487,3.33815 -0.82347,0.49585 -2.81573,0.50471 0.38075,1.43443 -1.948,1.49641 -4.86112,1.15994 -0.46929,-0.79691 0.23022,1.60267 -1.9657,2.24019 -6.95964,3.64805 -2.89542,-1.63808 -4.64862,1.23963 -2.83344,-2.96626 -2.41728,-0.94743 1.54069,-3.16991 -0.99171,-1.13338 -0.90316,0.50471 -1.85059,-3.05481 4.13506,-2.14279 -2.33759,-0.46043 0.91201,-0.57554 5.25072,-0.63753 0.63753,-2.83344 2.14279,-1.6735 0.0266,-1.14223 4.52465,0.31876 9.03159,3.45326 5.80856,-3.7189 3.42669,-3.86056 3.19648,7.181 z">
<title
   id="title410">Ohorn     absolute Anzahl: 10 relativ zur Einwohnerzahl: 0,41 %
</title>
</path>

   <!-- Gemeinde   -->
<path
   style="fill:#501212;fill-opacity:1;stroke:#000000;stroke-width:0.8854503;stroke-linecap:butt"
   onmouseout="style.opacity = 1;"
   onmouseover="style.opacity = 0.5;"
   id="420"
   class="st5"
   d="m 197.966,435.83936 7.03048,0.15052 2.04539,2.14279 0.98285,4.1262 2.4527,3.31159 8.59772,-4.52465 5.87053,-1.39902 0.90316,4.44497 -1.24848,5.59604 -5.35698,5.72001 1.62038,1.98341 1.45214,4.64861 0.29219,5.4898 1.11567,-0.63753 1.61152,2.14279 0.54013,7.34924 -2.24019,1.23077 -2.23134,-2.05424 -1.31932,0.50471 -10.04101,6.84453 -0.71721,2.77146 -6.87109,2.7626 -4.77258,-8.67741 -4.09078,-4.17047 -3.89598,-8.57116 -1.1688,0.91201 0.17709,2.24905 -3.32044,0.92972 -4.4361,-1.80632 0.24792,-2.31102 -1.15994,-0.55784 -0.77919,-2.96626 -0.95629,-0.23907 0.60211,-1.15994 -1.35474,-1.23077 -1.41672,3.01053 -2.91313,-1.22192 -3.82515,0.46928 1.03598,-1.39015 2.15164,0.4073 -0.81461,-5.56948 3.10793,-0.86774 1.16879,-1.72663 1.68236,0.16824 0.62867,-1.85059 0.58439,-9.09358 -2.38186,0.0177 -2.68291,-3.09022 0.42502,-2.24904 4.60434,0.23021 -0.50471,-2.07195 3.21418,-0.79691 1.7532,6.7737 3.86941,0.0708 3.28503,-3.08136 0.85003,2.79802 5.12675,7.71227 2.63865,-4.09963 z">
<title
   id="title420">Oßling     absolute Anzahl: 73 relativ zur Einwohnerzahl: 3,23 %
</title>
</path>

   <!-- Gemeinde   -->
<path
   style="fill:#961212;fill-opacity:1;stroke:#000000;stroke-width:0.8854503;stroke-linecap:butt"
   onmouseout="style.opacity = 1;"
   onmouseover="style.opacity = 0.5;"
   id="430"
   class="st4"
   d="m 37.735447,582.7639 -3.639201,-0.18594 0.407308,-0.95629 -3.842855,-4.84341 -2.700623,-0.53127 -0.07084,-2.91313 1.850591,-4.40069 5.047067,-3.97567 5.153321,-0.92973 0.407307,-2.74489 1.257339,-0.38075 9.961316,2.92199 2.824587,-1.22192 2.240189,0.41616 2.921986,-6.23357 -0.486998,4.06422 1.744338,0.0974 2.001117,-1.7532 2.523534,1.44329 1.567247,-0.5844 0.02656,1.91257 1.221922,0.79691 2.142789,0.69065 1.301612,-0.77034 0.575543,1.16879 1.762046,0.45158 -3.037094,6.72057 -0.371889,5.75543 -3.293876,0.66408 -0.78805,1.44329 0.318762,2.75375 0.832323,0.0531 1.186503,3.52409 -1.469847,-1.93028 0.912014,4.4361 1.142231,0.93858 -4.498088,3.347 -3.187621,0.64638 -1.859446,4.03765 -1.452138,-0.65523 -1.930282,1.31047 -1.097958,-2.34645 -4.267871,-3.7366 -3.807436,-0.91201 -0.867742,-3.03709 -0.929722,-0.009 -1.584957,-6.25128 -1.328175,-0.98285 z">
<title
   id="title430">Ottendorf-Okrilla     absolute Anzahl: 46 relativ zur Einwohnerzahl: 0,46 %
</title>
</path>

   <!-- Gemeinde   -->
<path
   style="fill:#5a1212;fill-opacity:1;stroke:#000000;stroke-width:0.8854503;stroke-linecap:butt"
   onmouseout="style.opacity = 1;"
   onmouseover="style.opacity = 0.5;"
   id="440"
   class="st15"
   d="m 219.86142,552.12289 0.11511,1.93914 -0.86774,1.17765 -0.30991,-1.39016 -0.23907,1.90372 -3.98453,-0.71722 0.2922,4.66633 2.80688,-0.60211 1.02712,1.71777 -0.62867,1.31933 1.0891,0.90316 -1.4787,2.73604 -5.22416,2.22248 -2.86886,-0.49586 -2.48811,3.94026 -4.69289,2.00997 -2.72718,0.16824 -3.56837,-4.32986 1.84174,-4.2413 2.42613,-0.64638 1.64694,-4.17047 2.04539,-0.43387 -0.2922,-1.87716 1.77976,-1.22192 -0.85004,-4.20589 -1.81517,-0.15052 0.92087,-5.40125 -0.81462,-1.22192 1.11567,-1.56725 1.93914,0.86774 0.4073,-1.26619 -3.17876,-2.20477 0.20365,-3.04595 -1.93913,-1.15109 1.00941,-4.47152 3.96682,2.2579 3.56836,-1.31933 0.5844,1.25734 h 2.93969 l -0.0177,-1.06254 3.6215,0.46929 -0.74378,-3.74545 1.73548,0.30105 0.44273,-1.62037 1.24848,0.41616 -0.51356,1.85944 1.93914,1.10682 3.7543,0.81461 1.99227,-1.41672 -2.50583,2.56781 4.26787,0.15052 1.09796,1.72663 -1.23077,1.35474 0.95628,-0.16824 0.74378,2.75375 4.25902,0.73493 1.04483,1.85944 1.88601,-0.75263 -1.15109,0.98285 0.0885,2.32874 2.80687,0.32761 0.65524,-1.46099 1.39901,0.0974 0.0797,1.59381 5.90595,0.98285 -0.3099,1.42557 0.47814,1.61152 -0.974,2.28447 1.70892,0.8943 -0.3099,2.86001 -3.08137,-0.062 -3.87827,-3.09907 -4.05537,3.46211 0.82347,-1.33703 -2.08966,-0.66409 -0.86774,-1.92143 -1.6735,0.41617 0.0531,-0.75264 -2.75375,-0.9917 0.32762,-3.56837 -6.41951,1.27505 -0.17709,1.19536 -0.0885,-1.13338 -1.44328,0.23022 z">
<title
   id="title440">Panschwitz-Kuckau     absolute Anzahl: 32 relativ zur Einwohnerzahl: 1,53 %
</title>
</path>

    <!-- Gemeinde   -->
<path
   style="fill:#5f1212;fill-opacity:1;stroke:#000000;stroke-width:0.8854503;stroke-linecap:butt"
   onmouseout="style.opacity = 1;"
   onmouseover="style.opacity = 0.5;"
   id="450"
   class="st4"
   d="m 127.01752,561.84956 -4.51579,-0.88545 -2.5501,-7.30496 -4.40954,-3.32929 -1.54069,-5.31271 -1.84173,0.37189 -0.79691,-4.52465 -2.02768,-1.61152 8.63314,-5.17103 8.31438,-1.2839 -0.0354,-1.23963 0.76149,2.58551 4.98509,-1.00055 2.68291,4.26787 -1.19536,0.52241 1.12452,3.37357 -0.82346,2.23133 2.14278,-0.17709 2.48812,6.65859 1.1865,0.33647 0.22137,6.71171 1.05368,1.62923 1.18651,-0.23022 0.7969,1.77976 2.99282,0.28334 3.64806,1.84174 1.22192,1.56725 -0.86774,1.62037 2.31102,1.83288 -0.0266,1.14223 -2.14279,1.67351 -0.63752,2.83344 -5.25072,0.63752 -0.91202,0.57554 2.33759,0.46044 -4.13505,2.14279 1.85059,3.0548 0.90316,-0.50471 1.00056,1.13338 -1.54954,3.16991 -3.81629,1.58496 -3.0371,-2.77146 -5.95908,1.53183 -2.48811,-1.39016 -1.68236,-7.41122 0.90316,-0.36303 -1.52297,-2.83344 0.73492,-4.52465 -0.85003,-1.8506 z">
<title
   id="title450">Pulsnitz     absolute Anzahl: 100 relativ zur Einwohnerzahl: 1,34 %
</title>
</path>

    <!-- Gemeinde   -->
<path
   style="fill:#821212;fill-opacity:1;stroke:#000000;stroke-width:0.8854503;stroke-linecap:butt"
   onmouseout="style.opacity = 1;"
   onmouseover="style.opacity = 0.5;"
   id="460"
   class="st11"
   d="m 256.46771,519.49051 0.41616,-1.39016 1.53183,0.18594 0.95628,-2.03653 3.28502,1.58495 0.34533,1.54954 4.5158,-0.0531 2.99282,4.7283 1.22192,0.15053 -2.55895,3.09907 -2.92199,1.73549 0.27449,0.85888 -1.19536,0.0708 -0.4073,2.17821 -1.05369,0.32761 0.66409,4.86112 -1.65579,2.6475 -2.11623,0.15053 -0.23022,1.83288 1.82403,0.5844 -1.3813,0.91201 -7.85395,-0.54012 -0.49585,-1.1688 -1.54954,-0.27449 -0.13281,-6.01221 -5.48094,-1.40786 -1.75319,-3.55066 1.10681,-0.92972 -0.13282,-4.09963 2.23134,-1.32818 -0.16824,-6.50806 5.85283,0.12396 0.39845,-1.04483 z">
<title
   id="title460">Puschwitz     absolute Anzahl: 6 relativ zur Einwohnerzahl: 0,73 %
</title>
</path>

    <!-- Gemeinde   -->
<path
   style="fill:#501212;fill-opacity:1;stroke:#000000;stroke-width:0.8854503;stroke-linecap:butt"
   onmouseout="style.opacity = 1;"
   onmouseover="style.opacity = 0.5;"
   id="470"
   class="st9"
   d="m 231.99651,507.39171 2.77146,-0.71721 0.80576,1.73548 -0.92972,1.3813 1.23078,0.009 -0.16824,6.45493 1.45214,0.13282 -0.009,3.30273 -1.18651,-0.0531 -0.21251,2.83344 1.21307,0.63753 0.0266,1.75319 -2.43498,-0.92087 -1.08911,1.32818 -0.27449,-1.35474 -0.54012,1.4787 -1.50527,-0.0354 0.0177,1.60267 -1.55839,1.05368 0.56669,0.3896 -2.31103,0.70836 0.44273,2.1605 -1.22192,0.92972 -2.00112,1.41672 -3.74546,-0.81461 -1.93913,-1.09796 0.51356,-1.8683 -1.24849,-0.41616 -0.25678,-1.00942 -2.55009,-0.38959 -0.36304,-1.20422 2.61208,-0.2125 v -1.97456 l -2.51468,-1.15994 -0.20365,-1.54954 -2.31988,0.11511 -0.39846,-3.01053 0.25678,-1.15994 0.88545,0.45158 0.42502,-2.78917 -1.13338,-0.83232 0.12397,-3.77202 2.39957,-2.73604 3.87827,-1.1688 6.02106,2.44385 0.2922,1.33703 1.76205,0.32761 z">
<title
   id="title470">Räckelwitz     absolute Anzahl: 28 relativ zur Einwohnerzahl: 2,48 %
</title>
</path>

    <!-- Gemeinde   -->
<path
   style="fill:#961212;fill-opacity:1;stroke:#000000;stroke-width:0.8854503;stroke-linecap:butt"
   onmouseout="style.opacity = 1;"
   onmouseover="style.opacity = 0.5;"
   id="480"
   class="st4"
   d="m 110.12136,604.92849 0.33647,4.19704 1.38131,1.07139 -1.52298,1.00942 -2.24904,0.30105 -1.6558,4.50694 -1.23963,-1.33703 -1.65579,0.61096 2.30217,3.18762 -0.23907,2.30217 -0.85889,-0.0266 -0.73492,3.51524 -1.80632,0.50471 -0.92087,2.39071 -3.31158,2.73604 3.41784,5.33927 2.15164,-0.27449 2.81573,6.74713 -1.2839,4.19703 1.98341,0.71722 0.73492,1.53183 -2.69177,0.9917 -0.92086,-0.6021 -2.28447,3.84285 1.00056,1.46099 0.54013,-0.77034 1.53183,1.15994 -0.52242,0.70836 -8.827938,1.87716 0.832323,-1.11567 -1.762046,0.64638 -0.965141,-1.22192 0.832323,-0.86774 -3.594919,-2.78917 -8.101873,-1.12453 -4.223601,-1.91257 3.12564,-3.51524 2.470409,-1.15108 0.371889,-1.7709 -2.488118,-0.71722 2.257901,-1.84173 -0.06198,-1.31932 2.311026,-0.49586 -0.327617,1.39902 -1.664646,0.0797 2.337588,2.34644 1.88601,-1.35474 -0.717215,-2.05424 0.726069,-1.27505 1.443287,-0.18595 0.690651,-2.99282 -0.973995,-1.50527 0.637524,-0.41616 -1.531832,-1.32817 -1.611519,0.15052 -1.452139,-2.7626 -1.877155,-0.95629 1.638083,-3.11678 -2.815732,-2.15165 0.185945,-1.32817 h -2.399573 l -3.02824,-7.22528 -2.665206,-1.90371 -1.133376,-2.62094 -0.814614,-4.17047 8.163852,-3.07251 0.08854,-3.81629 0.699505,1.92142 2.638645,-0.12396 1.416721,1.23078 0.761487,-1.15994 2.213626,1.13337 0.398455,-2.1782 2.31988,2.08966 -0.336471,1.07139 2.833432,3.47097 0.265635,-0.79691 2.85115,0.72607 6.85339,-1.72662 2.89542,2.10737 1.79747,-1.61152 z">
<title
   id="title480">Radeberg     absolute Anzahl: 73 relativ zur Einwohnerzahl: 0,39 %
</title>
</path>

    <!-- Gemeinde   -->
<path
   style="fill:#821212;fill-opacity:1;stroke:#000000;stroke-width:0.8854503;stroke-linecap:butt"
   onmouseout="style.opacity = 1;"
   onmouseover="style.opacity = 0.5;"
   id="490"
   class="st5"
   d="m 292.00791,516.36664 0.974,-0.44273 -0.22137,-1.83288 3.47097,-5.56948 6.2867,-14.42399 11.55512,3.16991 1.09796,-4.17932 3.12564,-3.50638 -2.19592,-7.21642 -0.009,-1.90372 1.43443,-2.08967 1.31046,-0.28334 2.1605,-3.30273 3.97568,-8.19927 6.21586,-1.3813 1.14223,-2.75375 2.4704,-2.00997 2.22248,0.20365 1.44329,1.94799 0.0708,8.09302 1.37245,1.66464 0.39845,2.60323 -0.92972,-0.0354 -0.39845,1.23963 1.7709,1.99226 1.1865,-0.23022 -2.72718,11.59055 -2.76261,2.98397 0.37189,2.00111 2.4527,2.08967 0.0797,6.41951 -6.49035,5.2153 -0.0974,-1.68235 -4.52465,0.76149 -1.19536,1.55839 0.0266,3.2496 -2.1605,1.48756 -2.00997,-0.25678 0.63753,1.79746 -1.00056,0.54898 -0.0266,1.48756 3.84286,0.15938 1.54954,1.02712 1.29275,2.57666 -2.83344,1.56725 1.94799,0.0885 1.27505,2.47041 -1.94799,0.64638 -0.88545,1.51412 -1.84174,-0.15938 -1.88601,8.94305 -1.36359,-0.26564 -0.7969,3.16106 -1.10682,-0.26564 -0.91201,1.27505 -0.99171,3.75431 -4.86997,0.92087 -2.20477,-2.62093 -3.32044,0.0177 1.15994,6.95964 -1.54069,2.25789 -4.08192,-2.10737 0.23022,-1.48755 -1.51412,-0.23022 -0.0177,1.17765 -0.91202,0.0531 0.46929,-1.26619 -0.86774,0.54012 0.21251,-0.71721 -2.7449,-1.93914 -2.63864,1.461 -1.17765,2.11622 0.98285,0.70836 -0.54012,1.31047 -3.25846,-1.9657 1.12452,-0.54012 -0.74378,-2.0631 -0.63752,0.92972 -2.12508,-1.83288 -2.51468,2.29331 -1.55839,-1.31046 -2.0631,1.5761 -2.41728,-1.70892 0.61096,-4.69289 3.5418,0.92973 0.9917,-4.54236 -0.64637,-2.19592 5.05592,1.09796 1.29275,-7.21642 -0.57554,-2.62094 -1.07139,-0.31876 2.9574,-5.75543 z">
<title
   id="title490">Radibor     absolute Anzahl: 22 relativ zur Einwohnerzahl: 0,71 %
</title>
</path>

<!-- Gemeinde Ralbitz-Rosenthal  -->
<path
   style="fill:#961212;fill-opacity:1;stroke:#000000;stroke-width:0.8854503;stroke-linecap:butt"
   onmouseout="style.opacity = 1;"
   onmouseover="style.opacity = 0.5;"
   id="500"
   class="st6"
   d="m 247.31658,464.85202 3.10793,7.72113 0.4073,6.51691 -0.15052,4.36527 -2.18707,8.34095 -0.33647,11.9093 -2.20477,2.11623 0.16824,2.49697 -2.69177,1.8683 0.0266,2.19592 -3.22304,-0.5844 -0.2922,1.43443 -1.80631,-0.53127 1.61152,1.14223 -1.89487,-0.53127 -0.6995,3.07251 -1.45214,-0.14167 0.17709,-6.44608 -1.23078,-0.009 0.92087,-1.38131 -0.79691,-1.73548 -2.78031,0.71722 -4.4184,3.7366 -1.76204,-0.32762 -1.12452,-7.92478 -2.43499,-4.7283 0.45158,-6.3841 -5.75543,-7.25184 -0.45158,3.70118 -1.36359,0.92973 -3.11679,-0.18595 -2.52353,1.51412 -1.46099,-0.61981 -0.0443,-1.35474 1.61152,-1.32818 -0.26563,-1.4787 0.70836,-2.78031 10.041,-6.84454 1.31933,-0.49585 2.23133,2.05425 2.24904,-1.23078 -0.54898,-7.35809 5.31271,-1.51412 4.95852,-2.56781 0.45158,-1.15108 1.45214,0.83232 z">
<title
   id="title500">Ralbitz-Rosenthal     absolute Anzahl: 7 relativ zur Einwohnerzahl: 0,41 %
</title>
</path>

    <!-- Gemeinde   -->
<path
   style="fill:#6e1212;fill-opacity:1;stroke:#000000;stroke-width:0.8854503;stroke-linecap:butt"
   onmouseout="style.opacity = 1;"
   onmouseover="style.opacity = 0.5;"
   id="510"
   class="st11"
   d="m 174.34484,579.26549 -3.38242,2.11622 -0.54012,-1.21306 1.95684,-1.48756 -0.38959,-1.44328 2.81573,-0.50471 4.17932,1.99226 0.81462,-1.42557 0.87659,0.57554 1.51412,-2.51468 4.15277,2.76261 10.94416,9.33264 -0.28334,2.44385 2.24904,0.45157 -4.36527,5.91481 0.84118,5.82627 -7.3758,2.41728 -4.18818,-2.24905 -5.85283,-7.74769 0.7792,-4.85227 -0.92972,-6.06533 -3.94026,0.0531 0.88545,-1.83289 z">
<title
   id="title510">Rammenau     absolute Anzahl: 11 relativ zur Einwohnerzahl: 0,82 %
</title>
</path>

    <!-- Gemeinde   -->
<path
   style="fill:#6e1212;fill-opacity:1;stroke:#000000;stroke-width:0.8854503;stroke-linecap:butt"
   onmouseout="style.opacity = 1;"
   onmouseover="style.opacity = 0.5;"
   id="525"
   class="st5"
   d="m 314.03437,624.67758 11.59055,-0.16824 1.26619,2.24905 2.57666,0.48699 0.487,1.33703 2.21362,0.81462 0.25679,-1.62038 2.93084,-0.97399 5.27728,0.15938 -0.53127,5.71115 -2.63864,1.41672 -0.11511,1.08911 2.93084,4.4184 4.16162,1.00055 -0.26564,7.94249 -5.26843,1.80632 -0.96514,2.52354 1.11567,1.50526 -3.66577,0.6818 -1.03597,-2.58552 -5.95908,-1.09796 -8.65085,2.20478 1.55839,3.84285 -3.75431,2.24904 -2.78031,-0.92086 -3.10793,0.38959 -7.00392,-3.71889 -3.01938,-2.93969 -1.53183,-4.0288 8.35865,-4.92311 0.42502,-1.84173 2.58551,-1.93028 -1.36359,-0.50471 0.84118,-1.0714 0.16823,-4.34756 1.4787,-1.56724 0.75264,-7.79197 z">
<title
   id="title525">Schirgiswalde-Kirschau     absolute Anzahl: 52 relativ zur Einwohnerzahl: 0,84 %
</title>
</path>

   <!-- Gemeinde   -->
<path
   style="fill:#961212;fill-opacity:1;stroke:#000000;stroke-width:0.8854503;stroke-linecap:butt"
   onmouseout="style.opacity = 1;"
   onmouseover="style.opacity = 0.5;"
   id="530"
   class="st4"
   d="m 250.54847,611.51182 -0.50471,1.36359 1.461,2.31103 0.61096,6.00335 0.23021,1.05368 0.83233,-0.15938 0.26563,2.30217 -4.75487,1.23963 -0.17709,6.50806 -1.32817,1.98341 -0.12396,2.39072 1.64693,2.46155 -1.62923,0.27449 -0.35418,3.69233 5.54292,6.77369 -3.08136,5.23301 -4.26787,3.41784 -3.76317,0.85004 0.76149,-3.16992 -1.91257,-1.46984 0.2125,-1.49642 -1.75319,-3.26731 -5.1179,-1.27505 0.82347,-1.29275 -2.07196,-1.20422 -12.35203,-5.20644 -0.58439,0.73492 -7.23413,-1.92143 -2.22248,3.91369 -2.03654,-0.62867 0.3896,-0.91201 -1.41672,-0.81461 1.84173,-3.04595 -2.63864,-0.95629 0.63753,-0.74378 2.00111,0.65524 0.28335,-0.76149 -4.16162,-1.25734 0.94743,-1.23963 3.91369,0.28334 -1.19535,-6.27784 1.20421,-1.04483 -1.14223,-0.25678 2.41728,-2.22248 4.39183,-0.65524 2.11623,1.94799 2.91313,-0.0974 2.09852,1.31046 5.22415,-9.0493 -0.72607,-0.77034 0.76149,-1.23963 -1.99226,-2.47926 -2.70948,-1.18651 0.85889,-2.62978 3.6392,-1.77976 -0.55784,-1.41672 4.23246,2.86886 5.28613,-0.42502 2.67406,2.05425 5.17989,-1.00942 z">
<title
   id="title530">Schmölln-Putzkau     absolute Anzahl: 10 relativ zur Einwohnerzahl: 0,33 %
</title>
</path>

    <!-- Gemeinde   -->
<path
   style="fill:#821212;fill-opacity:1;stroke:#000000;stroke-width:0.8854503;stroke-linecap:butt"
   onmouseout="style.opacity = 1;"
   onmouseover="style.opacity = 0.5;"
   id="550"
   class="st11"
   d="m 92.013911,460.11841 -1.213067,-5.59605 1.363585,-2.77146 -1.239622,-4.68403 -4.861124,2.59437 -4.011093,-12.09525 2.992825,-1.90372 0.628669,0.63752 1.894864,-0.81461 1.328176,1.09796 4.250155,-1.3636 -0.371889,-3.25845 9.1467,-2.24019 2.81573,-2.00112 1.49641,0.28334 6.10076,-5.32155 3.56836,-0.30991 4.99394,2.7626 -1.07139,12.36089 13.11352,2.38186 4.71945,5.65803 -3.9314,3.92254 -3.65691,7.03933 1.78861,2.9397 3.32044,3.29387 8.21697,-1.49641 4.4184,2.91314 5.06478,-0.17709 -1.01827,1.00941 -0.9917,5.87053 -2.23134,2.26676 -4.71945,0.69065 -12.6885,8.82794 -1.15109,-0.24793 -1.40786,1.4787 -4.56893,0.38075 -1.74434,2.0631 -1.04483,-2.68292 4.25017,-2.38186 -2.44385,-0.25678 -2.53239,-2.04539 -0.15938,1.50527 -3.53294,-2.21363 -5.0028,-0.0354 -2.88657,-2.04539 -6.53462,-0.46043 -3.382419,-12.963 z">
<title
   id="title550">Schwepnitz     absolute Anzahl: 13 relativ zur Einwohnerzahl: 0,52 %
</title>
</path>

    <!-- Gemeinde   -->
<path
   style="fill:#6e1212;fill-opacity:1;stroke:#000000;stroke-width:0.8854503;stroke-linecap:butt"
   onmouseout="style.opacity = 1;"
   onmouseover="style.opacity = 0.5;"
   id="560"
   class="st13"
   d="m 294.07189,674.71792 -5.26842,-4.72831 4.63975,-14.05209 8.19927,-3.46212 3.01939,2.94855 7.00391,3.7189 3.09908,-0.3896 2.78031,0.92087 3.76317,-2.2579 -1.5584,-3.84286 8.642,-2.19591 5.95908,1.0891 1.04483,2.58552 3.66577,-0.6818 1.89486,1.41672 -0.45158,0.5844 4.71945,2.94855 -2.40843,8.64199 2.80688,0.487 v 3.19647 l 1.35474,5.47209 -0.77034,8.61543 -8.03989,-1.54068 0.44273,-2.78032 -2.16936,-1.00056 -2.0631,-3.09022 -5.2153,-0.45158 -8.26125,6.16274 -1.39901,2.51467 -5.38354,2.99283 -4.55121,0.15938 -9.52745,-4.62205 -1.99226,-2.17821 -0.16824,-7.0836 z">
<title
   id="title560">Sohland a. d. Spree     absolute Anzahl: 59 relativ zur Einwohnerzahl: 0,87 %
</title>
</path>

   <!-- Gemeinde   -->
<path
   style="fill:#821212;fill-opacity:1;stroke:#000000;stroke-width:0.8854503;stroke-linecap:butt"
   onmouseout="style.opacity = 1;"
   onmouseover="style.opacity = 0.5;"
   id="570"
   class="st4"
   d="m 329.13396,323.65369 1.15108,1.5761 0.69951,6.78255 -5.5075,12.8833 8.53574,0.23022 6.39295,1.72663 0.0443,7.28725 4.7106,1.97456 -2.09852,1.69121 -2.3553,-0.65524 -1.35474,6.69401 1.94799,1.37245 -0.17709,2.36415 -1.60266,2.41728 -0.80576,-0.55784 2.59437,3.96682 4.62205,2.22248 -1.15109,1.31047 2.54125,3.07251 2.01882,0.24793 -3.6392,2.86886 -1.5761,4.4361 3.13449,1.60267 6.80026,0.10625 1.64694,3.06366 -0.55783,4.40954 6.02991,0.73493 0.76149,1.81517 -0.82347,2.77146 -0.97399,-0.11511 -4.25016,7.73884 1.10681,3.24074 -3.0371,-0.0443 0.062,1.76205 -7.99561,1.02712 1.6735,-12.66194 -3.30273,0.66409 -4.0288,-1.77976 -1.16879,-2.00997 -2.9397,-0.72607 -3.08137,-5.01165 -2.5678,2.83344 0.1948,1.461 -1.4787,0.93857 -14.69848,-0.0797 -5.6049,-2.44384 1.33703,-7.51747 -1.10681,-0.1948 0.10625,-1.65579 -3.36471,-0.0177 0.062,2.17821 -6.694,-0.41617 -0.67295,-2.78031 -1.43443,-0.12396 -3.40012,1.5761 -3.9314,4.24131 0.13281,-1.85945 -2.09851,-0.82347 -3.834,0.64638 -0.73493,1.54068 -5.85282,-9.54515 2.25789,-0.94743 -0.56668,-0.77035 -6.9685,-1.42557 -1.31046,0.75263 -0.31877,-1.1865 -4.70174,0.15053 -0.0974,-3.38242 -1.54068,-0.37189 1.46985,-1.30162 0.12396,-8.87221 7.94249,3.96682 -0.0708,2.34644 7.42008,4.69289 4.35641,-7.40237 0.88545,-3.83399 -3.22304,-0.82347 -3.49752,-3.12564 -0.0266,-2.87772 1.54069,-1.23077 -2.89543,-3.26731 -3.38242,-1.23963 0.69065,-1.84174 1.00942,0.0708 -0.17709,-2.74489 2.22248,1.73548 3.39127,-1.73548 1.43443,-7.18986 -1.35474,0.009 0.30106,-2.34645 7.19871,-0.61096 8.57116,-7.88936 4.21474,-0.20365 -0.009,-5.43667 5.25958,-0.14167 4.73716,3.32044 2.36415,-1.64694 11.51971,-3.48867 z">
<title
   id="title570">Spreetal     absolute Anzahl: 13 relativ zur Einwohnerzahl: 0,70 %
</title>
</path>

    <!-- Gemeinde   -->
<path
   style="fill:#821212;fill-opacity:1;stroke:#000000;stroke-width:0.8854503;stroke-linecap:butt"
   onmouseout="style.opacity = 1;"
   onmouseover="style.opacity = 0.5;"
   id="580"
   class="st16"
   d="m 148.18864,550.02526 8.22584,-0.81461 2.12508,2.67406 -1.15109,1.68235 0.2922,1.55839 4.09078,-0.86774 3.55951,5.58719 3.91369,0.15053 4.71945,2.3553 1.00056,1.23078 -3.43555,3.86941 -5.80855,3.71004 -9.02274,-3.4444 -4.53351,-0.32762 -2.31102,-1.83288 0.86774,-1.62037 -1.22192,-1.56725 -3.64806,-1.83288 -2.99282,-0.2922 -0.7969,-1.7709 -1.18651,0.22136 -1.05368,-1.62037 -0.22137,-6.72057 -1.1865,-0.32762 -2.48812,-6.65859 0.63753,-0.82346 9.10243,-0.79691 z">
<title
   id="title580">Steina     absolute Anzahl: 11 relativ zur Einwohnerzahl: 0,68 %
</title>
</path>

    <!-- Gemeinde   -->
<path
   style="fill:#6e1212;fill-opacity:1;stroke:#000000;stroke-width:0.8854503;stroke-linecap:butt"
   onmouseout="style.opacity = 1;"
   onmouseover="style.opacity = 0.5;"
   id="590"
   class="st11"
   d="m 267.92189,650.17412 0.64638,-2.34644 4.27672,-2.59437 0.5844,-1.57611 9.12014,-2.63864 3.68347,-0.74378 4.35642,0.61982 3.12564,3.94911 6.39295,3.61264 1.53183,4.01994 -8.19042,3.46211 -4.63976,14.0521 -6.68515,2.64749 -0.76148,1.69121 -3.61264,-0.009 -4.33871,-5.64032 -0.10625,-1.62923 -3.80744,-3.78087 0.46929,-1.37245 -1.02712,-2.65635 -2.47041,0.44273 -1.01827,-1.30162 2.65635,-0.1151 0.83233,0.8943 1.70006,-4.94081 z">
<title
   id="title590">Steinigtwolmsdorf     absolute Anzahl: 22 relativ zur Einwohnerzahl: 0,78 %
</title>
</path>

    <!-- Gemeinde   -->
<path
   style="fill:#961212;fill-opacity:1;stroke:#000000;stroke-width:0.8854503;stroke-linecap:butt"
   onmouseout="style.opacity = 1;"
   onmouseover="style.opacity = 0.5;"
   id="600"
   class="st11"
   d="m 73.931682,564.29518 -1.762046,-0.44273 -0.575543,-1.16879 3.12564,-1.62038 4.019945,-0.38959 4.436108,-2.49697 4.347561,0.47814 2.249047,-0.50471 3.683464,0.98285 1.708919,-1.14223 2.018827,0.63753 -1.815173,2.46155 -2.983968,0.70836 2.815732,2.36415 2.116227,-1.00941 3.355858,2.94855 0.84118,6.1096 -2.461556,4.10849 1.133376,1.14223 -1.106812,1.53183 -0.194799,4.5158 1.053686,3.0548 2.443845,0.66409 3.78972,-4.08192 11.20981,6.13617 0.86774,-0.66409 3.80743,3.51524 0.46044,-0.86775 2.50582,0.83233 0.49585,2.27561 -1.19535,1.7709 -1.85945,0.009 -0.0708,2.72719 -5.93251,2.65635 0.0797,2.05424 -0.99171,-1.26619 -1.06254,0.15053 -4.36527,2.45269 -1.13337,-1.40786 -1.79747,1.61152 -2.89542,-2.10737 -6.844531,1.72662 -2.860004,-0.72607 -0.265635,0.79691 -2.833433,-3.47097 0.336472,-1.07139 -2.31988,-2.08966 -0.398456,2.1782 -2.213625,-1.13337 -0.761488,1.15994 -1.41672,-1.23078 -2.638645,0.12396 -0.699505,-1.92142 -1.859446,-0.44273 0.371889,-1.92142 -1.753192,-0.6818 -0.06198,-1.34589 -0.90316,-0.26563 0.672943,-1.22192 -1.832882,-0.51356 -0.814615,-1.53183 -3.240748,1.17765 -3.7366,-2.89543 -0.912014,-4.4361 1.478702,1.92142 -1.195358,-3.51523 -0.832323,-0.0531 -0.318762,-2.75375 0.78805,-1.44328 3.293876,-0.66409 0.371889,-5.75543 z">
<title
   id="title600">Wachau     absolute Anzahl: 14 relativ zur Einwohnerzahl: 0,33 %
</title>
</path>

    <!-- Gemeinde   -->
<path
   style="fill:#5f1212;fill-opacity:1;stroke:#000000;stroke-width:0.8854503;stroke-linecap:butt"
   onmouseout="style.opacity = 1;"
   onmouseover="style.opacity = 0.5;"
   id="610"
   class="st5"
   d="m 406.59935,543.28964 2.87771,5.12676 0.1948,-0.88545 1.34589,0.0797 0.65523,-2.89542 2.42613,-2.87772 1.60267,-0.23022 1.74434,3.37357 -1.34589,1.19536 -0.82347,4.36527 1.75319,-0.0354 0.59326,1.52297 2.2756,0.974 -0.35418,0.80576 2.99282,1.65579 3.22304,-0.0974 0.28335,-1.33703 1.07139,0.34533 -0.15052,0.92972 4.47152,-0.12396 -1.39016,3.4444 0.23907,3.67462 -2.79802,1.64694 1.12452,2.59437 -4.0465,1.68235 3.01053,0.69065 0.47814,0.974 1.03598,-0.85003 -0.41616,0.57554 2.42613,1.31932 -1.95685,0.27449 0.96514,0.88545 4.79029,1.06254 2.31988,-0.54898 -1.35474,0.94743 2.7449,2.61208 -0.13282,0.85003 -2.48812,0.69065 -0.1151,1.20422 -3.09908,2.6652 1.2839,1.87716 -0.96514,0.73492 0.26564,2.27561 -2.93084,-1.23078 0.77034,0.96514 -1.87716,0.51356 0.0797,2.05425 -1.3813,0.77034 0.12396,1.4787 2.16936,1.08911 -1.08025,3.90483 1.19536,0.6818 -0.062,2.08081 -3.08137,0.0354 0.65523,-1.76205 -0.87659,0.0266 -0.23022,1.83288 -1.40787,-0.0974 0.50471,-1.56725 -2.39957,-0.54898 -0.28335,-2.24019 -0.49585,0.64638 -2.18706,-2.17821 -0.60211,0.92087 -1.39901,-0.96514 -2.7626,3.13449 -0.75264,-0.2922 0.5844,0.88545 -1.11567,3.17877 -1.70006,0.009 -0.82347,1.62922 -0.23022,-0.76148 -1.72662,1.33703 -0.73493,-3.76317 -1.93913,-0.14167 -0.20366,-5.24187 1.02712,-4.47152 -3.98452,-0.11511 -1.01827,-3.92254 -1.15994,-0.28335 -0.17709,2.82459 -1.62923,1.91257 -4.2236,-0.64638 0.60211,-2.97511 -1.24848,-1.34588 -0.14168,-2.15165 2.39072,-2.98397 -1.39901,-1.9834 1.87715,0.0354 -3.03709,-3.17876 -3.71004,1.54068 -0.27449,-2.66521 -0.78805,-0.32761 -1.19536,3.55065 -3.87827,3.46211 -1.19536,-0.6021 -0.94743,2.73604 -2.19592,0.3896 -0.78805,-0.85889 -1.35474,3.25846 -4.16161,-0.52242 -3.17877,2.3553 -2.65635,0.8766 -1.63808,-1.20422 -0.0177,-1.15108 1.93028,-3.55066 -0.74378,-3.86942 1.44328,0.27449 0.21251,-1.06254 0.92973,0.10626 0.33647,-2.3553 -1.461,0.2922 2.18707,-1.08025 0.29219,-4.0288 0.86775,-0.1948 -0.73493,-6.41066 1.85059,-1.54068 -0.17709,-1.95685 3.59493,0.90316 0.7792,1.10681 2.51468,-2.22248 1.32817,1.18651 0.92087,-0.31876 0.49585,1.33703 2.02768,-0.38075 0.487,2.37301 3.20533,2.00112 1.39016,0.41616 2.32873,-1.14223 0.30106,-2.37301 1.23077,0.38074 2.50583,-2.51467 0.73492,-7.29612 1.83288,0.27449 1.48756,-2.96625 1.25734,0.77034 -1.52298,-1.71778 2.29332,-6.10075 z">
<title
   id="title610">Weißenberg     absolute Anzahl: 44 relativ zur Einwohnerzahl: 1,42 %
</title>
</path>

   <!-- Gemeinde   -->
<path
   style="fill:#671212;fill-opacity:1;stroke:#000000;stroke-width:0.8854503;stroke-linecap:butt"
   onmouseout="style.opacity = 1;"
   onmouseover="style.opacity = 0.5;"
   id="630"
   class="st11"
   d="m 293.89303,614.93497 3.40013,0.52241 0.91202,1.12453 2.01882,-0.52242 -0.23907,1.7709 0.85889,0.46929 6.65859,1.40786 0.46043,2.48812 3.70118,0.35418 1.68236,1.92143 -0.74378,7.79196 -1.48756,1.56725 -0.15938,4.34756 -0.84118,1.07139 1.3636,0.51356 -2.59437,1.93029 -0.41616,1.83288 -8.35866,4.93196 -6.39295,-3.61264 -3.12564,-3.95796 -4.35641,-0.61096 -3.68347,0.73492 -1.08025,-1.14223 0.53127,-3.46211 -0.81462,-1.82403 1.53183,-0.85889 -0.16823,-8.66856 4.56892,-0.0797 5.12676,1.76205 z">
<title
   id="title630">Wilthen     absolute Anzahl: 56 relativ zur Einwohnerzahl: 1,15 %
</title>
</path>
   <!-- Gemeinde   -->

<path
   style="fill:#671212;fill-opacity:1;stroke:#000000;stroke-width:0.8854503;stroke-linecap:butt"
   onmouseout="style.opacity = 1;"
   onmouseover="style.opacity = 0.5;"
   id="640"
   class="st5"
   d="m 248.23656,407.43942 5.59604,1.78861 1.62923,3.29388 3.85171,-1.5761 2.81573,2.16935 5.38354,-2.68291 v 5.79084 l 2.22248,1.91257 -0.85888,2.08081 2.65635,3.5418 -0.77034,4.94967 -1.20422,1.20421 -0.54012,-1.02712 -2.30217,1.93914 -0.80576,-2.46155 -1.45214,0.30105 -1.82403,0.83232 0.009,1.48756 -5.90596,1.15994 -0.75263,1.46985 0.74378,9.49202 5.64032,13.52083 -6.52577,3.91369 -8.59773,3.41784 0.0708,0.8943 -9.81079,-0.22136 -1.45214,-0.83232 -0.45158,1.15108 -4.95852,2.56781 -5.3127,1.51412 -1.60267,-2.14279 -1.12452,0.64638 -0.2922,-5.49865 -1.45214,-4.64861 -1.61151,-1.98341 5.35697,-5.72001 1.23963,-5.59605 -0.8943,-4.44496 -5.87054,1.40787 -8.60658,4.52465 -2.44384,-3.31158 -0.9917,-4.1262 -2.04539,-2.14279 -1.97456,-5.17103 1.54954,-1.41672 h 2.99282 l 0.6818,-1.85945 -1.25734,-1.24848 1.87715,-4.46267 2.79803,-3.1345 2.58551,-0.58439 1.50527,-2.23134 h 3.49753 l 1.65579,-1.31047 h 5.35697 l -0.11511,1.41672 0.99171,0.13282 1.21306,-1.54954 6.76485,5.6846 -0.0708,1.81517 3.07251,-0.14167 2.39957,-2.96626 -0.0531,-4.35642 3.41783,0.0886 -0.46043,-6.41952 z">
<title
   id="title640">Wittichenau     absolute Anzahl: 58 relativ zur Einwohnerzahl: 1,01 %
</title>
</path>

<g
   transform="matrix(0.88545032,0,0,0.88545032,-19.084431,122.46876)"
   id="g3848"><rect
     style="fill:none;stroke:none;stroke-width:0.75;stroke-linecap:round;stroke-linejoin:round"
     id="rect2088"
     class="st17"
     height="126.51"
     width="256.50699"
     y="677.96271"
     x="299.104"
     v:rectContext="foreign" /><rect
     style="fill:none;stroke:none;stroke-width:0.75;stroke-linecap:round;stroke-linejoin:round"
     id="rect2607"
     class="st17"
     height="126.51"
     width="256.50699"
     y="677.96271"
     x="299.104"
     v:rectContext="foreign" /></g>
	
	  <!-- Legende   -->
	<rect
   style="fill:#d7fcc8;fill-opacity:1;stroke-width:0.24100363"
   y="715.21466"
   x="7.317637"
   height="13.505139"
   width="28.495302"
   id="RE_d7fcc8">
<title
   id="TRE_D7FCC8">#D7FCC8</title></rect>

<!-- Legende   -->
<rect
   style="fill:#fbf77b;fill-opacity:1;stroke-width:0.24100363"
   y="742.22498"
   x="7.317637"
   height="13.505139"
   width="28.495302"
   id="rect4574">
<title
   id="TRE_FBF77B">#fbf77b</title></rect>

<!-- Legende   -->
<rect
   style="fill:#fdfecd;fill-opacity:1;stroke-width:0.24100363"
   y="728.71985"
   x="7.317637"
   height="13.505139"
   width="28.495302"
   id="RE_FDFECD">
<title
   id="TRE_FDFECD">#FDFECD</title></rect>

<!-- Legende   -->
<rect
   style="fill:#ffb534;fill-opacity:1;stroke-width:0.24100363"
   y="755.73016"
   x="7.317637"
   height="13.505139"
   width="28.495302"
   id="RE_FFB534">
<title
   id="TRE_FFB534">#FFB534</title></rect>

<!-- Legende   -->
<rect
   style="fill:#b42215;fill-opacity:1;stroke-width:0.24100363"
   y="782.74042"
   x="7.317637"
   height="13.505139"
   width="28.495302"
   id="RE_B42215">
<title
   id="TRE_B42215">#B42215</title></rect>

<!-- Legende   -->
<rect
   style="fill:#be311d;fill-opacity:1;stroke-width:0.24100363"
   y="769.23529"
   x="7.317637"
   height="13.505139"
   width="28.495302"
   id="RE_BE311D">
<title
   id="TRE_BE311D">#BE311D</title></rect>

<!-- Legende   -->
<rect
   style="fill:#a51412;fill-opacity:1;stroke-width:0.24100363"
   y="796.24561"
   x="7.317637"
   height="13.505139"
   width="28.495302"
   id="RE_A51412">
<title
   id="TRE_A51412">#A51412</title></rect>

<!-- Legende   -->
<rect
   style="fill:#821212;fill-opacity:1;stroke-width:0.24100363"
   y="823.25592"
   x="7.317637"
   height="13.505139"
   width="28.495302"
   id="RE_821212">
<title
   id="TRE_821212">#821212</title></rect>

<!-- Legende   -->
<rect
   style="fill:#961212;fill-opacity:1;stroke-width:0.24100363"
   y="809.75079"
   x="7.317637"
   height="13.505139"
   width="28.495302"
   id="RE_961212">
<title
   id="TRE_961212">#961212</title></rect>

<!-- Legende   -->
<rect
   style="fill:#6e1212;fill-opacity:1;stroke-width:0.2469645"
   y="715.69043"
   x="159.83345"
   height="13.505139"
   width="29.922459"
   id="RE_6E1212">
<title
   id="TRE_6E1212">#6E1212</title></rect>

<!-- Legende   -->
<rect
   style="fill:#5f1212;fill-opacity:1;stroke-width:0.2469645"
   y="742.70074"
   x="159.83345"
   height="13.505139"
   width="29.922459"
   id="RE_5F1212">
<title
   id="TRE_5F1212">#5F1212</title></rect>

<!-- Legende   -->
<rect
   style="fill:#671212;fill-opacity:1;stroke-width:0.2469645"
   y="729.19562"
   x="159.83345"
   height="13.505139"
   width="29.922459"
   id="RE_671212">
<title
   id="TRE_671212">#671212</title></rect>

<!-- Legende   -->
<rect
   style="fill:#5a1212;fill-opacity:1;stroke-width:0.2469645"
   y="756.20587"
   x="159.83345"
   height="13.505139"
   width="29.922459"
   id="RE_5A1212">
<title
   id="TRE_5A1212">#5A1212</title></rect>

<!-- Legende   -->
<rect
   style="fill:#501212;fill-opacity:1;stroke-width:0.2469645"
   y="783.21619"
   x="159.83345"
   height="13.505139"
   width="29.922459"
   id="RE_501212">
<title
   id="TRE_501212">#501212</title></rect>

<!-- Legende   -->
<rect
   style="fill:#551212;fill-opacity:1;stroke-width:0.2469645"
   y="769.71106"
   x="159.83345"
   height="13.505139"
   width="29.922459"
   id="RE_551212">
<title
   id="TRE_551212">#551212</title></rect>

<!-- Legende   -->
<rect
   style="fill:#321212;fill-opacity:1;stroke-width:0.2469645"
   y="796.72137"
   x="159.83345"
   height="13.505139"
   width="29.922459"
   id="RE_321212">
<title
   id="TRE_321212">#321212</title></rect>

<rect
   style="fill:#141212;fill-opacity:1;stroke-width:0.2469645"
   y="810.2265"
   x="159.83345"
   height="13.505139"
   width="29.922459"
   id="RE_141212">
<title
   id="TRE_141212">#141212</title></rect>

<rect
   style="fill:#ed2083;fill-opacity:1;stroke-width:0.2469645"
   y="823.73163"
   x="159.83345"
   height="13.505139"
   width="29.922459"
   id="RE_ED2083">
<title
   id="TRE_ED2083">#ED2083</title></rect>

<text
   id="text5722"
   y="723.37683"
   x="43.756966"
   style="font-style:normal;font-weight:normal;font-size:26.56350899px;line-height:1.25;font-family:sans-serif;fill:#000000;fill-opacity:1;stroke:none;stroke-width:0.66408867"
   xml:space="preserve"><tspan
   style="font-style:normal;font-variant:normal;font-weight:normal;font-stretch:normal;font-size:7.08361101px;font-family:sans-serif;font-variant-ligatures:normal;font-variant-caps:normal;font-variant-numeric:normal;stroke-width:0.66408867"
   y="723.37683"
   x="43.756966"
   id="tspan5720">keine Daten	 </tspan>	 </text>

	
	 <text
   id="text5726"
   y="735.99054"
   x="43.497559"
   style="font-style:normal;font-weight:normal;font-size:26.56350899px;line-height:1.25;font-family:sans-serif;fill:#000000;fill-opacity:1;stroke:none;stroke-width:0.66408867"
   xml:space="preserve"><tspan
   style="font-style:normal;font-variant:normal;font-weight:normal;font-stretch:normal;font-size:7.08361101px;font-family:sans-serif;font-variant-ligatures:normal;font-variant-caps:normal;font-variant-numeric:normal;stroke-width:0.66408867"
   y="735.99054"
   x="43.497559"
   id="tspan5724">&gt;0,0000% &lt;=0,0100 %	 </tspan>	 </text>

	
	 <text
   id="text5730"
   y="749.77686"
   x="43.497559"
   style="font-style:normal;font-weight:normal;font-size:26.56350899px;line-height:1.25;font-family:sans-serif;fill:#000000;fill-opacity:1;stroke:none;stroke-width:0.66408867"
   xml:space="preserve"><tspan
   style="font-style:normal;font-variant:normal;font-weight:normal;font-stretch:normal;font-size:7.08361101px;font-family:sans-serif;font-variant-ligatures:normal;font-variant-caps:normal;font-variant-numeric:normal;stroke-width:0.66408867"
   y="749.77686"
   x="43.497559"
   id="tspan5728">&gt;0,0100% &lt;=0,0500 %</tspan></text>

<text
   id="text5734"
   y="763.56317"
   x="43.497559"
   style="font-style:normal;font-weight:normal;font-size:26.56350899px;line-height:1.25;font-family:sans-serif;fill:#000000;fill-opacity:1;stroke:none;stroke-width:0.66408867"
   xml:space="preserve"><tspan
     style="font-style:normal;font-variant:normal;font-weight:normal;font-stretch:normal;font-size:7.08361101px;font-family:sans-serif;font-variant-ligatures:normal;font-variant-caps:normal;font-variant-numeric:normal;stroke-width:0.66408867"
     y="763.56317"
     x="43.497559"
     id="tspan5732">&gt;0,0500% &lt;=0,1000 %</tspan></text>
<text
   id="text5738"
   y="777.34943"
   x="43.497559"
   style="font-style:normal;font-weight:normal;font-size:26.56350899px;line-height:1.25;font-family:sans-serif;fill:#000000;fill-opacity:1;stroke:none;stroke-width:0.66408867"
   xml:space="preserve"><tspan
     style="font-style:normal;font-variant:normal;font-weight:normal;font-stretch:normal;font-size:7.08361101px;font-family:sans-serif;font-variant-ligatures:normal;font-variant-caps:normal;font-variant-numeric:normal;stroke-width:0.66408867"
     y="777.34943"
     x="43.497559"
     id="tspan5736">&gt;0,1000% &lt;=0,1500 %</tspan></text>
<text
   id="text5742"
   y="791.13916"
   x="43.497559"
   style="font-style:normal;font-weight:normal;font-size:26.56350899px;line-height:1.25;font-family:sans-serif;fill:#000000;fill-opacity:1;stroke:none;stroke-width:0.66408867"
   xml:space="preserve"><tspan
     style="font-style:normal;font-variant:normal;font-weight:normal;font-stretch:normal;font-size:7.08361101px;font-family:sans-serif;font-variant-ligatures:normal;font-variant-caps:normal;font-variant-numeric:normal;stroke-width:0.66408867"
     y="791.13916"
     x="43.497559"
     id="tspan5740">&gt;0,1500% &lt;=0,2000 %</tspan></text>
<text
   id="text5746"
   y="804.92889"
   x="43.497559"
   style="font-style:normal;font-weight:normal;font-size:26.56350899px;line-height:1.25;font-family:sans-serif;fill:#000000;fill-opacity:1;stroke:none;stroke-width:0.66408867"
   xml:space="preserve"><tspan
     style="font-style:normal;font-variant:normal;font-weight:normal;font-stretch:normal;font-size:7.08361101px;font-family:sans-serif;font-variant-ligatures:normal;font-variant-caps:normal;font-variant-numeric:normal;stroke-width:0.66408867"
     y="804.92889"
     x="43.497559"
     id="tspan5744">&gt;0,2000% &lt;=0,2500 %</tspan></text>
<text
   id="text5750"
   y="818.71863"
   x="43.497559"
   style="font-style:normal;font-weight:normal;font-size:26.56350899px;line-height:1.25;font-family:sans-serif;fill:#000000;fill-opacity:1;stroke:none;stroke-width:0.66408867"
   xml:space="preserve"><tspan
     style="font-style:normal;font-variant:normal;font-weight:normal;font-stretch:normal;font-size:7.08361101px;font-family:sans-serif;font-variant-ligatures:normal;font-variant-caps:normal;font-variant-numeric:normal;stroke-width:0.66408867"
     y="818.71863"
     x="43.497559"
     id="tspan5748">&gt;0,2500% &lt;=0,5000 %</tspan></text>
<text
   id="text5754"
   y="832.50488"
   x="43.497559"
   style="font-style:normal;font-weight:normal;font-size:26.56350899px;line-height:1.25;font-family:sans-serif;fill:#000000;fill-opacity:1;stroke:none;stroke-width:0.66408867"
   xml:space="preserve"><tspan
     style="font-style:normal;font-variant:normal;font-weight:normal;font-stretch:normal;font-size:7.08361101px;font-family:sans-serif;font-variant-ligatures:normal;font-variant-caps:normal;font-variant-numeric:normal;stroke-width:0.66408867"
     y="832.50488"
     x="43.497559"
     id="tspan5752">&gt;0,5000% &lt;=0,7500 %</tspan></text>
<text
   id="text5762"
   y="723.85815"
   x="193.99065"
   style="font-style:normal;font-weight:normal;font-size:26.56350899px;line-height:1.25;font-family:sans-serif;fill:#000000;fill-opacity:1;stroke:none;stroke-width:0.66408867"
   xml:space="preserve"><tspan
     style="font-style:normal;font-variant:normal;font-weight:normal;font-stretch:normal;font-size:7.08361101px;font-family:sans-serif;font-variant-ligatures:normal;font-variant-caps:normal;font-variant-numeric:normal;stroke-width:0.66408867"
     y="723.85815"
     x="193.99065"
     id="tspan5760">&gt;0,7500% &lt;=1,0000 %</tspan></text>
<text
   id="text5766"
   y="737.48724"
   x="193.99065"
   style="font-style:normal;font-weight:normal;font-size:26.56350899px;line-height:1.25;font-family:sans-serif;fill:#000000;fill-opacity:1;stroke:none;stroke-width:0.66408867"
   xml:space="preserve"><tspan
     style="font-style:normal;font-variant:normal;font-weight:normal;font-stretch:normal;font-size:7.08361101px;font-family:sans-serif;font-variant-ligatures:normal;font-variant-caps:normal;font-variant-numeric:normal;stroke-width:0.66408867"
     y="737.48724"
     x="193.99065"
     id="tspan5764">&gt;1,0000% &lt;=1,2500 %</tspan></text>
<text
   id="text5770"
   y="751.11627"
   x="193.99065"
   style="font-style:normal;font-weight:normal;font-size:26.56350899px;line-height:1.25;font-family:sans-serif;fill:#000000;fill-opacity:1;stroke:none;stroke-width:0.66408867"
   xml:space="preserve"><tspan
     style="font-style:normal;font-variant:normal;font-weight:normal;font-stretch:normal;font-size:7.08361101px;font-family:sans-serif;font-variant-ligatures:normal;font-variant-caps:normal;font-variant-numeric:normal;stroke-width:0.66408867"
     y="751.11627"
     x="193.99065"
     id="tspan5768">&gt;1,2500% &lt;=1,5000 %</tspan></text>
<text
   id="text5774"
   y="764.74188"
   x="193.99065"
   style="font-style:normal;font-weight:normal;font-size:26.56350899px;line-height:1.25;font-family:sans-serif;fill:#000000;fill-opacity:1;stroke:none;stroke-width:0.66408867"
   xml:space="preserve"><tspan
     style="font-style:normal;font-variant:normal;font-weight:normal;font-stretch:normal;font-size:7.08361101px;font-family:sans-serif;font-variant-ligatures:normal;font-variant-caps:normal;font-variant-numeric:normal;stroke-width:0.66408867"
     y="764.74188"
     x="193.99065"
     id="tspan5772">&gt;1,5000% &lt;=1,7500 %</tspan></text>
<text
   id="text5778"
   y="778.37103"
   x="193.99065"
   style="font-style:normal;font-weight:normal;font-size:26.56350899px;line-height:1.25;font-family:sans-serif;fill:#000000;fill-opacity:1;stroke:none;stroke-width:0.66408867"
   xml:space="preserve"><tspan
     style="font-style:normal;font-variant:normal;font-weight:normal;font-stretch:normal;font-size:7.08361101px;font-family:sans-serif;font-variant-ligatures:normal;font-variant-caps:normal;font-variant-numeric:normal;stroke-width:0.66408867"
     y="778.37103"
     x="193.99065"
     id="tspan5776">&gt;1,7500% &lt;=2,0000 %</tspan></text>
<text
   id="text5782"
   y="792.00006"
   x="193.99065"
   style="font-style:normal;font-weight:normal;font-size:26.56350899px;line-height:1.25;font-family:sans-serif;fill:#000000;fill-opacity:1;stroke:none;stroke-width:0.66408867"
   xml:space="preserve"><tspan
     style="font-style:normal;font-variant:normal;font-weight:normal;font-stretch:normal;font-size:7.08361101px;font-family:sans-serif;font-variant-ligatures:normal;font-variant-caps:normal;font-variant-numeric:normal;stroke-width:0.66408867"
     y="792.00006"
     x="193.99065"
     id="tspan5780">&gt;2,0000% &lt;=4,0000 %</tspan></text>
<text
   id="text5786"
   y="805.63947"
   x="193.99065"
   style="font-style:normal;font-weight:normal;font-size:26.56350899px;line-height:1.25;font-family:sans-serif;fill:#000000;fill-opacity:1;stroke:none;stroke-width:0.66408867"
   xml:space="preserve"><tspan
     style="font-style:normal;font-variant:normal;font-weight:normal;font-stretch:normal;font-size:7.08361101px;font-family:sans-serif;font-variant-ligatures:normal;font-variant-caps:normal;font-variant-numeric:normal;stroke-width:0.66408867"
     y="805.63947"
     x="193.99065"
     id="tspan5784">&gt;4,0000% &lt;=8,0000 %</tspan></text>
<text
   id="text5790"
   y="819.27893"
   x="193.99065"
   style="font-style:normal;font-weight:normal;font-size:26.56350899px;line-height:1.25;font-family:sans-serif;fill:#000000;fill-opacity:1;stroke:none;stroke-width:0.66408867"
   xml:space="preserve"><tspan
     style="font-style:normal;font-variant:normal;font-weight:normal;font-stretch:normal;font-size:7.08361101px;font-family:sans-serif;font-variant-ligatures:normal;font-variant-caps:normal;font-variant-numeric:normal;stroke-width:0.66408867"
     y="819.27893"
     x="193.99065"
     id="tspan5788">&gt;8,0000% </tspan></text>

</g>
</svg>