<?xml version="1.0" encoding="UTF-8" standalone="no"?>
<svg
   xmlns:v="http://schemas.microsoft.com/visio/2003/SVGExtensions/"
   xmlns:dc="http://purl.org/dc/elements/1.1/"
   xmlns:cc="http://creativecommons.org/ns#"
   xmlns:rdf="http://www.w3.org/1999/02/22-rdf-syntax-ns#"
   xmlns:svg="http://www.w3.org/2000/svg"
   xmlns="http://www.w3.org/2000/svg"
   style="font-size:12px;overflow:visible;color-interpolation-filters:sRGB;fill:none;fill-rule:evenodd;stroke-linecap:square;stroke-miterlimit:3"
   id="svg2612"
   version="1.1"
   class="st18"
   xml:space="preserve"
   viewBox="0 0 450.00009 525.00079"
   height="700"
   width="600"><metadata
   id="metadata2618"><rdf:RDF><cc:Work
       rdf:about=""><dc:format>image/svg+xml</dc:format><dc:type
         rdf:resource="http://purl.org/dc/dcmitype/StillImage" /><dc:title></dc:title></cc:Work></rdf:RDF></metadata><defs
   id="defs2616">
	</defs>
	<v:documentProperties
   v:viewMarkup="false"
   v:metric="true"
   v:langID="1031">
		<v:userDefs>
			<v:ud
   v:val="VT0(1):26"
   v:nameU="msvNoAutoConnect" />
			<v:ud
   v:val="VT4(Data Graphic.28)"
   v:nameU="msvLastAppliedDataGraphic" />
			<v:ud
   v:val="VT0(1):5"
   v:nameU="msvNoApplyDataGraphicAfterLink" />
		</v:userDefs>
	</v:documentProperties>

	<style
   id="style1315"
   type="text/css">
	<![CDATA[
		.st1 {fill:#5a1212;stroke:#000000;stroke-linecap:butt;stroke-width:1}
		.st2 {stroke:none;stroke-linecap:round;stroke-linejoin:round;stroke-width:0.75}
		
		.st4 {fill:#821212;stroke:#000000;stroke-linecap:butt;stroke-width:1}
		.st5 {fill:#6e1212;stroke:#000000;stroke-linecap:butt;stroke-width:1}
		.st6 {fill:#551212;stroke:#000000;stroke-linecap:butt;stroke-width:1}
		.st7 {fill:#fdfecd;stroke:#000000;stroke-linecap:butt;stroke-width:1}
	
		.st9 {fill:#321212;stroke:#000000;stroke-linecap:butt;stroke-width:1}
		.st10 {fill:#5f1212;stroke:#000000;stroke-linecap:butt;stroke-width:1}
		.st11 {fill:#961212;stroke:#000000;stroke-linecap:butt;stroke-width:1}
		.st12 {fill:#a51412;stroke:#000000;stroke-linecap:butt;stroke-width:1}
		.st13 {fill:#671212;stroke:#000000;stroke-linecap:butt;stroke-width:1}
		.st14 {fill:#961212;stroke:#000000;stroke-linecap:round;stroke-linejoin:round;stroke-width:1}
		.st15 {fill:#501212;stroke:#000000;stroke-linecap:butt;stroke-width:1}
		.st16 {fill:#b42215;stroke:#000000;stroke-linecap:butt;stroke-width:1}
		.st17 {fill:none;stroke:none;stroke-linecap:round;stroke-linejoin:round;stroke-width:0.75}
		.st18 {fill:none;fill-rule:evenodd;font-size:12px;overflow:visible;stroke-linecap:square;stroke-miterlimit:3}
	]]>
	</style>

	<g
   transform="translate(0,-316.88916)"
   id="g2610"
   v:groupContext="foregroundPage"
   v:index="1"
   v:mID="0">
		<v:userDefs>
			<v:ud
   v:val="VT0(0.0625):26"
   v:nameU="msvDGCalloutGap" />
		</v:userDefs>
		<title
   id="title1317">Zeichenblatt-1</title>
		<v:pageProperties
   v:shadowOffsetY="-8.50394"
   v:shadowOffsetX="8.50394"
   v:drawingUnits="24"
   v:pageScale="0.0393701"
   v:drawingScale="0.0393701" />
		<v:layer
   v:index="0"
   v:name="Datengrafik" />
		<v:layer
   v:index="1"
   v:name="Vereinfacht" />
<!-- Metadaten
Ausgabe: H:\Corona-Stab AS21\Landkreis Corona Karte\Landkreiskarte_svg.xlsx_AS21_201211141913958.SVG
User:    AS21
-->
<!-- Gemeinde   -->
<path
   style="fill:#961212;fill-opacity:1;stroke:#000000;stroke-width:0.8837406;stroke-linecap:butt"
   onmouseout="style.opacity = 1;"
   onmouseover="style.opacity = 0.5;"
   id="010"
   class="st4"
   d="m 100.79854,624.68325 0.72466,-3.51729 0.86607,0.0265 0.23861,-2.28889 -2.29773,-3.18147 1.6526,-0.60978 1.23724,1.33445 1.65259,-4.50708 2.2447,-0.29163 10.73745,6.44247 6.44247,-1.31678 2.07679,0.97212 1.85586,-1.27259 0.81304,2.30656 4.60429,2.55401 0.29163,1.62609 -1.97074,2.78378 2.22702,2.42145 -1.70561,2.06795 0.76001,0.73351 2.50983,-1.59074 -0.65397,1.66144 0.7335,3.76473 1.14886,0.15024 0.80421,1.78515 3.14612,0.91026 4.0652,3.72054 2.49215,0.13257 -3.30519,8.23646 1.94423,1.82934 -3.36705,2.23586 -1.94423,-1.06048 -1.34329,0.56559 -2.58052,-1.70562 -2.53633,1.35212 -2.84565,-2.11214 -2.95169,0.66281 -0.82188,3.07542 -4.58662,-1.55539 0.24745,-1.20188 -3.00472,-0.40653 -1.73213,0.86607 0.12373,2.26238 -2.3861,2.00609 -4.94011,0.46838 -1.59074,-1.8912 -1.63492,-0.0972 -0.60978,-1.66143 2.174,1.66143 -3.20798,-3.64101 -0.54791,0.37117 0.15023,-3.38472 -1.62608,0.1414 -0.73351,-1.52888 -1.97957,-0.70699 1.28142,-4.19777 -2.8103,-6.72526 -2.147486,0.27396 -3.411239,-5.32896 3.30519,-2.73076 0.919091,-2.3861 z">
<title
   id="title010">Arnsdorf     absolute Anzahl: 23 relativ zur Einwohnerzahl: 0,47 %
</title>
</path>

<!-- Gemeinde   -->
<path
   style="fill:#6e1212;fill-opacity:1;stroke:#000000;stroke-width:0.8837406;stroke-linecap:butt"
   onmouseout="style.opacity = 1;"
   onmouseover="style.opacity = 0.5;"
   id="020"
   class="st7"
   d="m 333.46005,548.59584 1.73213,0.14139 -0.94561,2.21819 0.80421,0.32699 -0.27396,1.14002 2.56285,1.42282 -0.67165,2.51867 4.80755,0.91909 -0.17675,0.91909 2.09447,1.7498 -3.32286,3.91497 0.96327,3.28752 1.83818,1.02514 0.23861,3.9945 -2.1033,-0.36233 -0.3535,1.2284 -1.11351,-0.053 -0.41536,1.97958 -4.07404,-0.31815 1.59073,1.45817 -0.55675,2.11214 -2.88984,0.33582 3.15496,-0.22977 3.01355,2.33307 0.31815,1.5819 -3.12844,0.39768 3.07542,2.30657 -3.86195,1.94423 -3.32287,3.42007 -5.32011,0.0353 -0.81305,1.3698 -1.34328,-0.45955 -0.95444,1.794 -2.56285,-0.41536 0.68048,2.79262 -0.91909,-0.11489 -0.1414,2.64239 -4.17125,0.71583 0.24744,3.49961 -2.36842,0.91025 -2.67774,2.93402 -0.83955,0.48606 -3.09309,-5.18756 0.0265,-2.66889 -0.96328,-1.06933 1.59074,-0.36233 0.75118,-5.80618 1.52887,-1.97958 -1.33445,-1.02514 -2.51866,1.26375 -0.43303,-1.70562 -2.57169,0.48606 -6.05362,-2.37726 0.23861,-2.40378 -3.81776,-0.22977 -2.174,0.69816 1.38747,1.16653 -1.67027,1.56422 -5.84153,1.17538 1.95307,-4.44522 1.57306,-10.03045 -5.16988,-1.35213 -0.36234,1.80284 -1.38747,0.0442 -1.05165,2.12098 -1.84702,-0.41536 -1.10468,1.50236 -3.41123,0.0353 -0.39769,-1.14886 -1.40515,0.0265 -1.19304,-3.94148 2.22702,-5.63827 -5.14337,-2.1033 3.35822,-9.35881 3.79124,-2.30657 -0.70699,-0.63629 1.90888,0.18558 -0.76885,-0.29163 1.02513,-1.37863 -1.85585,-1.92656 1.087,-1.52003 1.74097,1.20188 2.05911,-1.57305 1.55539,1.31677 2.50982,-2.28889 2.12098,1.82934 0.63629,-0.93676 0.74234,2.05911 -1.12235,0.54792 3.24333,1.95307 0.54792,-1.30794 -0.98979,-0.70699 1.18421,-2.1033 2.63355,-1.46701 2.7396,1.93539 -0.2121,0.71583 0.86607,-0.53908 -0.46839,1.27259 0.90142,-0.0619 0.0265,-1.16653 1.5112,0.22977 -0.23861,1.47585 4.07404,2.1033 1.53771,-2.25354 6.68108,1.44934 2.2447,-0.67165 1.4405,-3.7559 1.43166,1.59074 -0.83072,0.0442 -0.0177,1.4405 -2.98705,1.34329 3.85311,1.64376 1.4405,-5.02849 4.07404,-0.30931 1.68795,-3.79125 1.45817,-0.72466 0.11489,-2.18284 z">
<title
   id="title020">Bautzen     absolute Anzahl: 364 relativ zur Einwohnerzahl: 0,95 %
</title>
</path>
<!-- Gemeinde   -->

 <path
   style="fill:#6e1212;fill-opacity:1;stroke:#000000;stroke-width:0.8837406;stroke-linecap:butt"
   onmouseout="style.opacity = 1;"
   onmouseover="style.opacity = 0.5;"
   id="030"
   class="st4"
   d="m 129.69509,440.6425 -1.74097,-7.33505 0.63629,-1.58189 3.64985,-1.90005 0.91025,-2.28005 -1.9619,-1.17537 0.15907,-1.80283 4.13591,-1.66143 6.4513,1.43166 -0.90141,-3.90614 -3.73822,0.009 -0.61862,-2.14749 2.18284,-2.27121 2.8368,-0.0884 4.26847,-5.94757 3.43775,-1.41399 0.59211,5.84153 1.02514,1.59073 5.10802,2.56285 2.56285,3.15495 4.29498,2.44796 0.91909,-4.40986 -2.53634,1.62608 -1.43166,-0.29163 -0.51257,-3.28752 1.39631,-1.68794 11.21467,7.77691 2.14749,-1.00746 1.19305,3.32287 2.50982,1.76748 3.52613,0.60978 9.15555,-0.77769 1.99725,0.62745 4.96663,-5.22291 6.86666,-1.74096 1.07817,1.16653 -1.88237,4.45406 1.26375,1.24607 -0.68048,1.85586 h -2.98705 l -1.54654,1.41398 1.97074,5.15221 -7.0169,-0.1414 1.16654,9.52672 -2.63355,4.09172 -5.11686,-7.69738 -0.84839,-2.79262 -3.27868,3.07542 -3.86194,-0.0707 -1.74981,-6.76062 -3.19914,0.79537 0.49489,2.07679 -4.59545,-0.23861 -0.42419,2.2447 2.67773,3.08426 2.3861,-0.009 -0.59211,9.07602 -0.62745,1.84701 -1.67911,-0.17674 -1.16654,1.72329 -3.09309,0.86607 0.8042,5.55872 -2.14748,-0.40652 -1.03398,1.38748 -3.6852,0.29163 -1.69678,2.04144 -1.14003,0.053 -8.22762,-3.99451 -1.73213,2.47447 -5.055,0.17675 -4.40987,-2.89867 -8.20111,1.48469 -3.31403,-3.28752 -1.78515,-2.93402 3.64985,-7.02574 3.9238,-3.91497 z">
<title
   id="title030">Bernsdorf     absolute Anzahl: 56 relativ zur Einwohnerzahl: 0,87 %
</title>
</path>
   <!-- Gemeinde   -->

<path
   style="fill:#5f1212;fill-opacity:1;stroke:#000000;stroke-width:0.8837406;stroke-linecap:butt"
   onmouseout="style.opacity = 1;"
   onmouseover="style.opacity = 0.5;"
   id="040"
   class="st4"
   d="m 192.36644,602.5482 -0.84839,-5.82385 4.36567,-5.89455 4.99314,-0.74234 4.9136,1.49352 3.12844,-0.18559 5.67361,-7.58249 2.19168,-1.43166 3.41124,5.66478 0.83072,-0.68048 -0.38001,3.81776 1.42282,5.56756 3.60566,-0.24745 2.55401,1.04282 -5.54105,6.8048 1.21072,3.79125 -3.63217,1.77632 -0.85723,2.63354 2.70425,1.18422 1.99725,2.47447 -0.76885,1.23724 0.72466,0.76885 -5.21407,9.03183 -2.09446,-1.31677 -2.89867,0.10605 -2.12098,-1.94423 -4.38335,0.64513 -2.41261,2.22702 1.14002,0.25629 -1.20189,1.03397 1.19305,6.26573 -3.90613,-0.27396 -0.9456,1.23723 4.15358,1.24608 -0.2828,0.76885 -1.99725,-0.65397 -0.62746,0.74235 2.62471,0.9456 -1.83818,3.0489 1.41399,0.80421 -0.38885,0.91909 2.0326,0.61862 -0.93676,4.49824 -2.22703,-0.60095 -1.48468,1.00747 3.41124,2.56284 -5.44385,0.0707 -0.29163,1.81167 2.48331,0.5656 -4.11823,0.76001 -8.19228,-5.42617 0.0265,-3.13727 -2.30657,-2.60704 1.11352,-1.90004 -0.87491,0.50373 -2.58936,-3.80892 -1.57305,-1.12235 0.009,-5.76199 -2.78378,-1.39631 -0.81304,-2.06795 3.71171,-1.76749 -0.82188,-0.9456 -0.15907,-7.60017 1.30793,-0.93676 -0.8042,-0.73351 0.57443,-1.17537 -1.8912,-3.4731 0.68048,-2.20935 3.21681,-1.28143 -0.53024,-2.79262 z">
<title
   id="title4635">Bischofswerda     absolute Anzahl: 162 relativ zur Einwohnerzahl: 1,48 %
</title>
</path>

<!-- Gemeinde   -->
<path
   style="fill:#5a1212;fill-opacity:1;stroke:#000000;stroke-width:0.8837406;stroke-linecap:butt"
   onmouseout="style.opacity = 1;"
   onmouseover="style.opacity = 0.5;"
   id="060"
   class="st5"
   d="m 214.26288,559.64259 -2.80146,0.60095 -0.2828,-4.66615 3.968,0.71583 0.24745,-1.90005 0.30931,1.39631 0.85722,-1.17537 -0.10604,-1.93539 2.78378,-2.72192 1.43166,-0.22978 0.0884,1.14003 0.18559,-1.19305 6.40712,-1.28143 -0.33582,3.56148 2.75727,0.98979 -0.0619,0.76002 1.67911,-0.4242 0.85723,1.92655 2.08563,0.65397 -0.81304,1.33445 4.04753,-3.45542 3.87078,3.10193 3.07542,0.0619 1.37864,1.42282 -0.78653,-0.44187 -0.52141,2.35959 -0.82188,-0.12373 -0.0442,2.25354 -3.28751,-0.51257 -1.82051,4.53359 0.12373,1.6526 2.06795,0.13256 -0.34466,1.10467 3.48194,-0.17675 -0.47722,1.68795 1.52887,-0.98979 0.0177,1.45817 -0.7335,1.84702 -5.15221,3.11077 -0.009,2.28005 -1.99725,0.28279 -0.26512,1.29027 -4.18893,-1.23724 -3.30519,1.37863 -5.01081,-1.43166 -5.11686,1.37864 -2.43912,2.21819 -2.19168,1.43166 -5.68245,7.58249 -3.11961,0.18559 -4.92243,-1.49352 -4.99314,0.74234 -2.2447,-0.45071 0.2828,-2.43912 -10.92303,-9.31463 6.19502,-3.62334 0.19442,-3.56147 3.36705,-1.63492 3.55264,4.32149 2.72192,-0.16791 4.69266,-2.00609 2.48331,-3.93265 2.85449,0.4949 5.2229,-2.21819 1.47585,-2.73076 -1.09584,-0.90141 0.62746,-1.31678 z">
<title
   id="title060">Burkau     absolute Anzahl: 41 relativ zur Einwohnerzahl: 1,57 %
</title>
</path>

<!-- Gemeinde   -->
<path
   style="fill:#5a1212;fill-opacity:1;stroke:#000000;stroke-width:0.8837406;stroke-linecap:butt"
   onmouseout="style.opacity = 1;"
   onmouseover="style.opacity = 0.5;"
   id="080"
   class="st9"
   d="m 239.99829,513.0129 -0.0442,1.87353 2.58052,0.2828 -0.50373,0.79537 1.25491,2.29772 0.15908,6.50433 -2.21819,1.32561 0.13256,4.08289 -1.11351,0.92792 1.7498,3.55264 5.47919,1.39631 0.12373,6.0006 1.55538,0.2828 0.4949,1.1577 3.64101,0.15023 -0.59211,0.84839 1.81167,2.89867 -2.12098,-0.49489 -0.39768,1.94423 -5.7178,-1.29026 -0.38001,2.13865 -2.28889,-0.43303 0.31815,-1.41399 -5.90339,-0.98095 -0.0707,-1.59073 -1.39631,-0.0972 -0.6628,1.45818 -2.80146,-0.32699 -0.0884,-2.32424 1.1577,-0.98095 -1.88236,0.75118 -1.05166,-1.86469 -4.24195,-0.72467 -0.74234,-2.74843 -0.96328,0.16791 1.2284,-1.35212 -1.09584,-1.7233 -4.25963,-0.15023 3.72055,-3.49078 -0.43303,-2.16516 2.29772,-0.69816 -0.55675,-0.38885 1.55538,-1.05165 -0.0177,-1.6084 1.49353,0.0442 0.54792,-1.47584 0.26512,1.35212 1.09584,-1.32561 2.43028,0.91909 -0.0353,-1.74981 -1.20188,-0.63629 0.21209,-2.82797 1.17538,0.0442 0.0177,-3.29636 0.69816,-3.05774 1.88237,0.53024 -1.60841,-1.14002 1.80283,0.53024 0.29163,-1.43166 z">
<title
   id="title080">Crostwitz     absolute Anzahl: 16 relativ zur Einwohnerzahl: 1,56 %
</title>
</path>

<!-- Gemeinde   -->
<path
   style="fill:#821212;fill-opacity:1;stroke:#000000;stroke-width:0.8837406;stroke-linecap:butt"
   onmouseout="style.opacity = 1;"
   onmouseover="style.opacity = 0.5;"
   id="090"
   class="st4"
   d="m 337.65251,626.28812 -1.11351,-4.19776 3.42007,-0.3535 1.24608,-1.34329 -0.30047,-1.14002 4.7722,1.53771 3.1903,-1.63492 -0.0884,-0.99863 4.69266,1.55538 2.91634,-0.0795 4.40103,-0.88374 2.55401,2.49215 7.09644,0.98978 3.32286,-0.62745 4.32149,1.30793 2.99589,1.64376 0.0795,2.28005 1.88237,2.44796 -7.32621,3.29636 -0.78653,1.57306 1.62608,1.44049 1.33445,-0.19442 0.23861,2.41261 -6.5927,9.17323 -2.76611,0.40652 -3.30519,-2.49215 -2.74843,-0.0265 -16.31386,2.60703 -5.86803,1.43166 0.25628,-7.92715 -4.15358,-1.00746 -2.92518,-4.40987 0.11488,-1.07816 2.63355,-1.42283 0.53025,-5.70012 z">
<title
   id="title090">Cunewalde     absolute Anzahl: 29 relativ zur Einwohnerzahl: 0,63 %
</title>
</path>

<!-- Gemeinde   -->
<path
   style="fill:#6e1212;fill-opacity:1;stroke:#000000;stroke-width:0.8837406;stroke-linecap:butt"
   onmouseout="style.opacity = 1;"
   onmouseover="style.opacity = 0.5;"
   id="100"
   class="st4"
   d="m 224.34459,578.78265 5.01965,1.43166 3.29635,-1.37864 4.19777,1.24608 -0.47722,2.56284 2.28005,1.01631 1.09584,-2.50983 5.73547,0.2121 0.93677,3.10193 1.06933,0.55676 -1.46701,2.85448 3.12844,2.29772 2.47447,-0.74234 1.82051,3.93265 0.46838,2.93402 -1.31677,2.91634 0.84839,2.25354 -0.33582,0.85723 -2.14749,-1.59074 -2.66006,4.18893 -0.43304,6.23921 -0.8042,0.78653 -6.39828,-1.74097 -5.16988,1.01631 -2.6689,-2.05028 -5.2671,0.42419 -4.23311,-2.86332 -0.64513,-2.3861 5.53221,-6.8048 -2.54517,-1.04281 -3.6145,0.24744 -1.41398,-5.56756 0.37117,-3.81776 -0.83072,0.68048 -3.4024,-5.66478 2.43912,-2.21819 z">
<title
   id="title100">Demitz-Thumitz     absolute Anzahl: 20 relativ zur Einwohnerzahl: 0,76 %
</title>
</path>

<!-- Gemeinde   -->
<path
   style="fill:#821212;fill-opacity:1;stroke:#000000;stroke-width:0.8837406;stroke-linecap:butt"
   onmouseout="style.opacity = 1;"
   onmouseover="style.opacity = 0.5;"
   id="110"
   class="st4"
   d="m 273.21898,596.93821 -0.32698,-2.23586 2.3861,0.76002 2.09446,-5.08151 6.04479,1.52003 0.84839,-3.18146 2.04144,-0.68048 5.85036,-1.17538 1.67027,-1.56422 -1.38747,-1.16654 2.174,-0.69815 3.80893,0.22093 -0.23861,2.41261 6.05362,2.37727 2.57168,-0.4949 0.44187,1.70562 2.51866,-1.25491 1.33445,1.02514 -1.52887,1.97958 -0.76002,5.79734 -1.58189,0.36233 0.96328,1.07816 -1.69679,-0.32698 0.50374,-1.23724 -3.55264,-0.63629 -1.09584,0.46838 0.41536,1.28143 -1.38747,0.37117 -0.78653,2.62471 -1.14003,-1.13119 -1.41398,2.80146 -1.19305,-0.11489 -3.06658,7.38807 -0.053,5.75315 -3.39356,-0.5214 -1.64376,11.78026 -5.11686,-1.75865 -14.22822,-0.33582 -9.76534,-2.98704 -9.61509,2.73076 -0.26513,-2.29773 -0.82187,0.15908 -0.23861,-1.05165 -0.60979,-5.99177 -1.45817,-2.29772 0.50374,-1.36096 0.79536,-0.79537 0.44187,-6.23921 2.66006,-4.18893 2.13865,1.59957 0.34466,-0.85723 -0.84839,-2.26237 1.31677,-2.91635 -0.46838,-2.93402 0.20326,-2.6247 4.56894,2.35958 3.80009,0.73351 0.78653,-0.65397 1.05165,0.62746 -0.69816,4.6308 5.35547,0.22977 1.5819,0.98979 z">
<title
   id="title1008">Doberschau-Gaußig     absolute Anzahl: 29 relativ zur Einwohnerzahl: 0,70 %
</title>
</path>


<!-- Gemeinde   -->
<path
   style="fill:#551212;fill-opacity:1;stroke:#000000;stroke-width:0.8837406;stroke-linecap:butt"
   onmouseout="style.opacity = 1;"
   onmouseover="style.opacity = 0.5;"
   id="120"
   class="st4"
   d="m 193.43311,322.16381 1.69678,1.74981 4.65732,0.78653 3.39356,-0.58327 3.91497,1.48468 5.27593,-0.68048 5.02849,1.2284 2.81029,-0.96327 3.73823,0.30931 3.01355,0.98095 3.65869,3.79125 4.95778,0.68931 0.64513,-0.83955 1.36096,1.41398 -1.32561,0.55676 -0.0177,1.00747 2.04144,0.7335 2.61587,-0.96328 0.17675,-1.8912 8.71368,-0.16791 5.77083,2.70424 2.88983,2.44796 3.51729,0.0972 9.19974,3.96799 1.77632,8.36019 0.17674,2.73959 -1.0163,-0.0619 -0.68932,1.83818 3.37589,1.23724 2.88984,3.261 -1.52888,1.21956 0.0265,2.87216 3.49077,3.12844 3.20798,0.82188 -0.88374,3.8266 -4.348,7.37923 -7.39691,-4.67499 0.0619,-2.34191 -7.92715,-3.95916 -0.11489,8.85509 -1.47585,1.29909 1.54655,0.37118 0.0972,3.37588 -5.34663,0.11489 -0.0353,-1.32561 -4.46289,-1.3698 -1.59073,2.90751 0.95444,0.0177 -3.92381,2.63355 -3.39357,-0.44187 -4.7015,6.47782 -4.47172,2.46563 -3.29636,-0.65396 -0.22977,-1.50236 -7.05225,-5.62059 -0.51257,2.4568 -2.91634,-1.56422 -1.82935,2.02376 -5.31128,-0.0353 -1.48468,5.46152 -2.39494,-0.32699 -0.053,1.04282 -1.94423,0.30047 -1.6526,-1.49352 -1.14886,0.33582 -0.33582,1.40515 -1.82934,-1.96191 -2.26238,0.66281 0.97211,-2.28889 -3.77357,-3.29635 2.09447,-1.91772 2.07679,-5.42617 0.79536,0.44187 0.87491,-1.70562 -0.30931,-2.41261 0.91909,-0.44187 0.88374,-3.30519 2.91634,0.78653 0.23861,-1.88237 0.57443,0.73351 1.02514,-0.73351 -2.96053,-1.21956 1.06933,-2.87215 -1.21073,0.5214 0.87491,-0.9456 -1.087,-0.9456 -0.62746,0.78653 -2.49215,-1.74981 -3.72938,-0.27396 -3.69404,-1.62608 -1.62608,0.49489 0.76885,1.12235 -0.97211,1.24608 -5.61176,-0.61862 0.1414,3.71171 -3.28751,-1.14003 -4.58662,4.57778 -4.30381,-0.37117 -2.6689,-1.59957 -1.2991,8.58112 -4.17125,-0.2828 -0.93677,-0.97211 -1.46701,0.72467 -1.14886,-1.3698 -2.3154,-0.0707 -1.4405,-2.0326 0.13256,-2.22703 6.61922,-3.42891 0.50373,-1.32562 -6.27456,-9.08485 5.77967,-0.98095 3.75589,-3.38473 2.50099,-11.2235 3.14612,-4.83406 4.08288,-0.94561 7.61784,1.59957 1.33445,-1.69678 1.78516,0.46838 -3.97684,-3.71171 -1.35212,-3.90613 0.50373,-2.90751 2.56285,-3.72938 1.29026,-0.41536 z">
<title
   id="title120">Elsterheide     absolute Anzahl: 64 relativ zur Einwohnerzahl: 1,85 %
</title>
</path>
   <!-- Gemeinde   -->

 <path
   style="fill:#6e1212;fill-opacity:1;stroke:#000000;stroke-width:0.8837406;stroke-linecap:butt"
   onmouseout="style.opacity = 1;"
   onmouseover="style.opacity = 0.5;"
   id="130"
   class="st10"
   d="m 199.17654,533.46531 -1.00746,4.46289 1.94423,1.1577 -0.20326,3.04007 3.17263,2.19168 -0.40652,1.27258 -1.94423,-0.8749 -1.11352,1.57306 0.82188,1.21072 -0.91909,5.39082 1.81167,0.15024 0.84839,4.19776 -1.77632,1.21957 0.29164,1.87353 -2.04144,0.43303 -1.6526,4.16242 -2.41261,0.65397 -1.83818,4.22428 -3.36705,1.63492 -0.19443,3.56147 -6.18618,3.62334 -4.14474,-2.75727 -1.5112,2.50098 -0.88374,-0.57443 -0.81304,1.43166 -4.17126,-1.98842 0.83072,-0.49489 -0.4949,-3.3317 3.00472,-2.12982 -3.18147,-7.17597 -0.98978,-1.21956 -1.85586,-3.76474 0.9456,-13.67147 -2.65122,-2.66005 -0.053,-2.77495 4.4187,0.0265 1.82934,-3.96799 0.43304,-4.39219 1.97957,-1.30794 5.25826,-2.11214 1.74981,1.40515 -0.90142,-1.61725 0.83072,-0.42419 4.02986,2.52749 1.75864,-0.0442 0.15023,-1.37864 1.7233,1.36096 2.12981,-0.82188 0.3535,-3.08425 5.42617,4.16242 -0.60095,2.72192 z">
<title
   id="title130">Elstra     absolute Anzahl: 25 relativ zur Einwohnerzahl: 0,92 %
</title>
</path>

    <!-- Gemeinde   -->
<path
   style="fill:#6e1212;fill-opacity:1;stroke:#000000;stroke-width:0.8837406;stroke-linecap:butt"
   onmouseout="style.opacity = 1;"
   onmouseover="style.opacity = 0.5;"
   id="140"
   class="st11"
   d="m 180.82037,602.71434 4.18893,2.2447 0.53024,2.79262 -3.22565,1.28143 -0.68048,2.20935 1.8912,3.4731 -0.56559,1.18421 -1.82051,0.97212 -4.46289,0.15907 -5.06383,-1.86469 -7.1583,1.34328 -0.22977,1.19305 -3.74706,-6.81364 2.12097,-6.5927 -0.60978,-5.17872 14.96173,-1.44934 z">
<title
   id="title140">Frankenthal     absolute Anzahl: 8 relativ zur Einwohnerzahl: 0,87 %
</title>
</path>

   <!-- Gemeinde   -->
<path
   style="fill:#821212;fill-opacity:1;stroke:#000000;stroke-width:0.8837406;stroke-linecap:butt"
   onmouseout="style.opacity = 1;"
   onmouseover="style.opacity = 0.5;"
   id="150"
   class="st5"
   d="m 276.75571,546.76119 0.68048,0.49489 -1.09584,1.52888 1.8647,1.92655 -1.02514,1.37864 0.76001,0.29163 -1.90004,-0.19442 0.707,0.64513 -3.79125,2.30656 -3.35822,9.34998 5.14337,2.1033 -2.23586,5.6471 1.19305,3.93265 1.41398,-0.0177 0.38885,1.14887 3.42008,-0.0353 1.09584,-1.50236 1.84701,0.41535 1.06049,-2.12981 1.37864,-0.0442 0.36233,-1.79399 5.17872,1.34329 -1.58189,10.03929 -1.95307,4.44521 -2.04144,0.68048 -0.84839,3.18147 -6.05363,-1.52003 -2.09446,5.08151 -2.37726,-0.76002 0.32698,2.23586 -3.11077,2.71309 -1.58189,-0.99863 -5.35547,-0.22094 0.68932,-4.6308 -1.04282,-0.62745 -0.78653,0.65396 -3.80008,-0.74234 -4.57778,-2.35075 -0.20326,2.62471 -1.8205,-3.92381 -2.47448,0.73351 -3.1196,-2.29773 1.46701,-2.85448 -1.06933,-0.55676 -0.9456,-3.09309 -5.72664,-0.22093 -1.10468,2.51866 -2.28005,-1.0163 0.74235,-3.86195 1.98841,-0.29163 0.0177,-2.28006 5.14337,-3.11076 0.7335,-1.83818 -0.009,-1.45818 -1.5377,0.98096 0.47722,-1.68795 -3.48194,0.18559 0.35349,-1.10468 -2.06795,-0.13256 -0.12372,-1.65259 1.8205,-4.53359 3.28752,0.51257 0.0354,-2.26238 0.83071,0.12372 0.52141,-2.35958 0.77769,0.4507 -1.37863,-1.43166 0.30931,-2.85448 -1.70562,-0.89258 0.97211,-2.28005 -0.47722,-1.6084 2.28005,0.42419 0.38885,-2.13865 5.70896,1.29026 0.40652,-1.94423 2.12098,0.4949 -1.81167,-2.89867 0.58327,-0.84839 4.19777,0.39768 1.38747,-0.91909 2.67774,-0.19442 -1.32561,1.47584 1.49352,0.79537 2.28005,0.19442 0.26512,-1.07816 1.47585,-0.0177 1.37863,1.07817 -0.7335,0.83955 0.60978,-0.30047 0.15907,-0.63629 1.5112,0.15907 0.34466,1.35212 4.7722,0.64513 0.053,1.14003 1.19305,0.0442 z">
<title
   id="title150">Göda     absolute Anzahl: 21 relativ zur Einwohnerzahl: 0,69 %
</title>
</path>

<!-- Gemeinde Groszdubrau   -->
<path
   style="fill:#6e1212;fill-opacity:1;stroke:#000000;stroke-width:0.8837406;stroke-linecap:butt"
   onmouseout="style.opacity = 1;"
   onmouseover="style.opacity = 0.5;"
   id="160"
   class="st5"
   d="m 335.71624,503.65497 -0.0884,-6.40712 -2.44796,-2.08562 -0.36233,-1.99726 2.74843,-2.98704 2.73076,-11.56817 6.88434,-3.66752 3.49077,-0.6628 -0.23861,3.03123 2.49215,1.94422 -0.36233,-4.02985 0.69815,-0.0972 3.12844,6.53968 2.05028,0.30047 1.69678,2.1033 0.91026,-1.40515 3.08425,-0.60094 0.25629,0.88374 1.93539,-0.13256 -0.0442,1.00746 -2.01493,0.59211 0.707,14.68777 6.19502,0.009 -0.81304,8.06855 3.41124,0.0177 2.67773,-2.44796 1.2991,1.87353 -3.6852,4.13591 -2.62471,0.32698 0.22094,0.83956 -1.46701,0.42419 -1.03398,1.95307 -2.21819,-0.053 1.89121,2.98705 -2.04145,8.85508 -1.8205,1.82934 -4.36568,-0.83955 -0.33582,1.12235 -0.9456,-0.12373 0.10605,-1.21072 -1.19305,-0.47722 0.76001,-1.80283 -2.65122,-0.76886 -1.27259,2.3861 -2.41261,1.5819 -0.98095,-0.33582 -1.21956,2.81029 -1.5112,0.89258 -8.35135,-1.45817 -1.88237,2.47447 0.87491,0.93677 -1.47585,0.2121 -0.60094,2.09446 0.75118,1.34329 -0.65397,-0.1414 -0.30931,2.35075 -2.56285,-0.65397 0.45955,1.85586 -1.66144,0.62745 0.20327,2.04144 1.07816,-0.009 -1.31677,1.31678 0.10604,2.26237 -5.97408,-5.8592 -0.11489,2.17401 -1.46701,0.7335 -1.68794,3.78241 -4.06521,0.30931 -1.4405,5.02848 -3.85311,-1.64375 2.98705,-1.33445 0.0177,-1.44934 0.82188,-0.0353 -1.42282,-1.59957 -1.44934,3.7559 -2.23586,0.67164 -6.68108,-1.44049 -1.14886,-6.9462 3.31403,-0.0177 2.19167,2.60704 4.86058,-0.91909 0.99862,-3.73823 0.90142,-1.27258 1.11351,0.26512 0.78653,-3.15496 1.36096,0.26513 1.88237,-8.93462 1.83818,0.15907 0.88374,-1.51119 1.95307,-0.64514 -1.28143,-2.46563 -1.93539,-0.0884 2.82797,-1.55538 -1.2991,-2.57168 -1.53771,-1.03398 -3.84427,-0.15024 0.0265,-1.48468 1.00747,-0.54792 -0.64513,-1.79399 2.00609,0.24744 2.15633,-1.48468 -0.0177,-3.24333 1.18421,-1.54654 4.51592,-0.76002 0.10605,1.67027 z">
<title
   id="title160">Großdubrau     absolute Anzahl: 34 relativ zur Einwohnerzahl: 0,80 %
</title>
</path>
   <!-- Gemeinde   -->
<path
   style="fill:#821212;fill-opacity:1;stroke:#000000;stroke-width:0.8837406;stroke-linecap:butt"
   onmouseout="style.opacity = 1;"
   onmouseover="style.opacity = 0.5;"
   id="170"
   class="st12"
   d="m 149.50767,640.99003 -2.01493,0.50374 -2.49215,-0.12373 -4.06521,-3.72055 -3.14611,-0.91025 -0.80421,-1.78516 -1.14886,-0.15023 -0.7335,-3.77357 0.65396,-1.6526 -2.50982,1.5819 -0.76002,-0.72467 1.70562,-2.07679 -2.22702,-2.41261 1.97074,-2.78379 -0.29164,-1.62608 -4.60428,-2.55401 -0.81305,-2.30656 1.46701,-0.66281 0.25629,0.79537 5.02848,1.18421 5.055,-2.14749 1.38747,-3.76473 3.261,0.16791 3.66753,1.61724 5.80617,0.30931 6.31875,-3.08425 3.74706,6.81364 0.22977,-1.19305 7.1583,-1.34329 5.06383,1.86469 4.46289,-0.15907 1.82051,-0.98095 0.8042,0.7335 -1.30793,0.93677 0.15907,7.60017 0.82188,0.9456 -3.71171,1.76748 0.8042,2.06796 2.79262,1.39631 -0.009,5.76198 1.57306,1.13119 -2.39494,1.82051 -0.1414,2.0326 -3.07542,1.56422 -2.36842,2.5982 -1.41399,-0.85723 -3.13728,4.39219 -2.22702,0.44187 -5.43501,-2.70424 -1.3698,2.06795 -1.31677,0.32698 -1.45817,-1.13118 -3.34938,-0.23861 -2.47447,0.9456 z">
<title
   id="title170">Großharthau     absolute Anzahl: 15 relativ zur Einwohnerzahl: 0,54 %
</title>
</path>

   <!-- Gemeinde   -->
<path
   style="fill:#821212;fill-opacity:1;stroke:#000000;stroke-width:0.8837406;stroke-linecap:butt"
   onmouseout="style.opacity = 1;"
   onmouseover="style.opacity = 0.5;"
   id="180"
   class="st4"
   d="m 105.23403,539.12214 2.93402,2.3154 0.79537,4.51591 1.82934,-0.37117 1.53771,5.29361 4.40986,3.3317 2.53634,7.29086 -1.41399,4.73685 -3.90613,4.14474 -0.39768,1.82934 -0.74234,-0.68931 0.5214,-1.88237 -2.22702,-1.54655 -1.5819,-4.93127 -4.64848,4.68383 -5.629423,-1.63492 -1.758644,0.41535 -3.349377,-2.94285 -2.11214,1.00746 -2.810295,-2.35959 2.978206,-0.70699 1.811668,-2.4568 -2.014929,-0.63629 -1.705619,1.14002 -3.676359,-0.98095 -2.244701,0.50374 0.247448,-1.52004 8.91694,-4.57778 0.176748,-5.7885 5.408493,-8.94345 2.377264,0.69815 1.67911,-0.97211 z">
<title
   id="title180">Großnaundorf     absolute Anzahl: 5 relativ zur Einwohnerzahl: 0,52 %
</title>
</path>

   <!-- Gemeinde   -->
<path
   style="fill:#6e1212;fill-opacity:1;stroke:#000000;stroke-width:0.8837406;stroke-linecap:butt"
   onmouseout="style.opacity = 1;"
   onmouseover="style.opacity = 0.5;"
   id="190"
   class="st4"
   d="m 325.93588,602.32108 1.31677,-2.6689 2.39494,-0.55675 0.29163,-2.11214 3.43775,3.76473 2.82797,-0.66281 1.16654,1.47585 1.06049,8.36903 -3.08425,0.56559 0.009,2.4568 1.36096,0.25628 1.794,6.84899 2.39493,-0.8042 0.30048,1.14002 -1.24608,1.35213 -3.42891,0.34466 1.12235,4.19776 -0.67164,1.07817 -5.25826,-0.15024 -2.92518,0.96328 -0.25629,1.61724 -2.21819,-0.81304 -0.47722,-1.32561 -2.57168,-0.49489 -1.27259,-2.2447 -11.55933,0.17674 3.11961,-7.90064 0.0707,-2.96937 0.96328,0.36234 1.87353,-2.98704 -1.73214,-3.52613 -2.13865,-0.053 -0.50373,-2.0061 2.68657,-2.93401 2.36843,-0.91026 -0.24745,-3.50845 4.17125,-0.70699 0.2121,-1.087 1.21956,0.1414 1.1577,2.84564 -0.78652,2.33308 0.65396,-0.81304 z">
<title
   id="title190">Großpostwitz     absolute Anzahl: 23 relativ zur Einwohnerzahl: 0,84 %
</title>
</path>

   <!-- Gemeinde   -->
<path
   style="fill:#6e1212;fill-opacity:1;stroke:#000000;stroke-width:0.8837406;stroke-linecap:butt"
   onmouseout="style.opacity = 1;"
   onmouseover="style.opacity = 0.5;"
   id="200"
   class="st11"
   d="m 160.05246,584.85925 1.97074,-2.22703 -0.23861,-1.60841 0.47722,0.79537 4.8429,-1.1577 0.54792,1.21956 3.37589,-2.12098 0.75118,2.54518 -0.88374,1.83818 3.93264,-0.0619 0.93677,6.05362 -0.78653,4.8429 1.97074,2.69541 -14.96173,1.44049 0.60978,5.17872 -2.12097,6.59271 -6.32759,3.09309 -5.79733,-0.31815 -3.67637,-1.6084 -3.25216,-0.16791 -1.38747,3.75589 -5.055,2.15633 -5.02848,-1.19305 -0.25629,-0.78653 -3.32286,1.93539 -2.07679,-0.98095 -6.44247,1.32561 -10.73745,-6.4513 1.52003,-1.00747 -1.37863,-1.06932 -0.33582,-4.18894 4.35684,-2.44796 1.06049,-0.15023 0.98095,1.26375 -0.0707,-2.05028 5.92106,-2.66006 0.0707,-2.72192 1.85585,-0.009 1.19305,-1.76748 -0.49489,-2.26238 -2.50099,-0.83955 5.77967,-8.57228 2.47447,1.38747 5.95641,-1.52887 3.0224,2.76611 3.80892,-1.59074 2.41261,0.95444 2.82797,2.96053 4.64848,-1.24607 2.88099,1.63492 z">
<title
   id="title200">Großröhrsdorf     absolute Anzahl: 75 relativ zur Einwohnerzahl: 0,78 %
</title>
</path>

   <!-- Gemeinde   -->
<path
   style="fill:#671212;fill-opacity:1;stroke:#000000;stroke-width:0.8837406;stroke-linecap:butt"
   onmouseout="style.opacity = 1;"
   onmouseover="style.opacity = 0.5;"
   id="220"
   class="st6"
   d="m 125.6997,518.622 3.26984,-0.40652 5.75315,1.50236 13.69798,1.32561 3.27867,4.07405 -0.0619,1.09584 5.66478,1.9619 2.87216,2.35959 -0.52141,5.01081 -1.48468,0.36233 -0.1414,1.4405 1.59073,0.45071 2.12098,-0.87491 5.2936,3.09309 0.053,2.77495 2.66006,2.65122 -0.95444,13.67147 1.85585,3.76473 -4.71033,-2.35075 -3.91497,-0.15023 -3.5438,-5.5764 -4.08289,0.86606 -0.29163,-1.55538 1.14002,-1.67911 -2.12097,-2.6689 -8.20995,0.81305 -2.50983,-8.26298 -9.08485,0.79537 -0.63629,0.82188 -2.13866,0.17674 0.81305,-2.23586 -1.11352,-3.36705 1.19305,-0.52141 -2.67773,-4.25079 -4.97546,0.99863 -0.76002,-2.58053 0.0353,1.23724 -8.30716,1.28142 -8.61647,5.16105 -0.89258,-0.70699 0.68048,-0.92793 -0.7335,-4.48057 -2.20936,0.81305 -2.81913,-3.70288 0.45955,-1.62608 2.05028,-0.19442 -1.21957,-5.7885 0.53025,-2.50099 -3.596827,-3.30519 0.998627,-1.46701 4.53359,0.22094 4.80755,-2.39494 6.48665,4.348 z">
<title
   id="title220">Haselbachtal     absolute Anzahl: 41 relativ zur Einwohnerzahl: 1,02 %
</title>
</path>

   <!-- Gemeinde   -->
<path
   style="fill:#821212;fill-opacity:1;stroke:#000000;stroke-width:0.8837406;stroke-linecap:butt"
   onmouseout="style.opacity = 1;"
   onmouseover="style.opacity = 0.5;"
   id="230"
   class="st5"
   d="m 370.83697,584.01439 4.15358,0.52141 1.35213,-3.261 0.78652,0.85722 2.19168,-0.38884 0.9456,-2.73076 1.19305,0.60978 3.87079,-3.46426 1.19305,-3.5438 0.78653,0.32698 0.27396,2.66006 3.70287,-1.53771 3.03123,3.17263 -1.87353,-0.0353 1.39631,1.97958 -2.3861,2.97821 0.1414,2.14749 1.24607,1.35212 -0.60094,2.96053 4.21544,0.65397 1.62608,-1.91772 0.17675,-2.81913 1.1577,0.2828 1.0163,3.91497 3.97684,0.11488 -1.02514,4.46289 0.20326,5.24058 1.93539,0.1414 0.73351,3.74706 1.72329,-1.33444 0.22977,0.76001 -0.70699,-0.0972 -0.11489,3.86195 -2.65122,0.29163 -0.35349,1.52887 2.0326,2.11214 2.57168,-0.5921 -0.93676,1.47584 -1.74981,-0.64513 -2.23586,2.27122 -2.57169,-0.16791 -2.35958,1.59957 -3.50845,-0.64513 -0.75118,-1.06049 -2.80146,3.88846 0.15907,1.13118 2.81913,0.44187 0.22094,1.69679 2.82797,0.70699 -0.0707,1.06049 -5.98292,0.49489 -4.73685,-2.09446 -4.54243,-0.34466 -1.14886,0.95444 -2.35959,-0.91909 -1.17538,4.09172 -4.32149,-1.31678 -3.32286,0.6363 -7.10528,-0.98979 -2.54517,-2.49215 -4.40103,0.8749 -0.15023,-12.95564 2.14749,-7.43225 1.35212,0.0972 -1.44934,-5.24942 6.22154,-1.21073 3.15495,-6.51317 z">
<title
   id="title230">Hochkirch     absolute Anzahl: 14 relativ zur Einwohnerzahl: 0,62 %
</title>
</path>

   <!-- Gemeinde   -->

<path
   style="fill:#821212;fill-opacity:1;stroke:#000000;stroke-width:0.8837406;stroke-linecap:butt"
   onmouseout="style.opacity = 1;"
   onmouseover="style.opacity = 0.5;"
   id="240"
   class="st4"
   d="m 257.05537,378.35646 0.0353,1.33445 10.03045,-0.27396 0.31815,1.19305 1.30794,-0.76002 6.95503,1.43166 0.5656,0.76002 -2.2447,0.9456 4.55126,7.34389 -5.47035,0.11488 0.0972,4.36568 -2.54518,-0.0884 0.25629,7.39691 8.9788,-1.75865 -2.18284,3.78241 0.25629,2.53634 3.52612,1.44933 -1.09583,1.44934 -0.0707,3.07541 -5.43501,7.55599 4.10056,1.11351 4.25963,-0.76885 1.12235,0.68048 -0.81304,-3.79125 7.58249,0.99863 -8.85508,9.64161 -1.98842,3.50845 -4.33032,3.88845 -4.05637,-1.18421 -0.53025,-2.68657 -3.13728,-0.48606 0.50374,-0.72466 -1.49353,-0.90142 0.76886,-4.94011 -2.65122,-3.53496 0.85722,-2.08563 -2.21818,-1.90004 v -5.77967 l -5.37315,2.67774 -2.81029,-2.16517 -3.84427,1.57306 -1.62609,-3.28751 -5.58524,-1.78516 -4.80755,0.83955 0.45955,6.40712 -3.41124,-0.0884 0.053,4.348 -2.39493,2.96053 -3.06658,0.1414 0.0707,-1.81167 -6.75178,-5.67361 -1.21073,1.54655 -0.98979,-0.13256 0.11489,-1.41399 h -5.34663 l -1.6526,1.30794 -3.49077,-0.009 -1.50236,2.23586 -2.58052,0.58327 -2.79262,3.12844 -1.06933,-1.16653 -6.86666,1.74096 -4.97546,5.22291 -1.98842,-0.62745 -9.16439,0.77769 -3.51729,-0.60978 -2.50982,-1.76748 -1.20189,-3.32287 -2.13865,1.00746 -11.22351,-7.77691 -2.07679,-1.1577 -0.37117,-1.28143 4.21544,-0.0884 4.24196,-4.0387 0.50373,1.21073 2.00609,-0.51257 -0.50373,-1.34329 -1.54655,-0.24744 2.49215,-3.87962 3.29636,-1.90888 1.75864,1.66143 -0.26512,-2.41261 3.66752,-2.09447 -2.55401,-6.00944 9.44719,-4.92243 -1.27259,-0.0177 0.48606,-1.20188 1.76748,-0.13256 -0.053,3.70287 1.98841,0.26512 0.24745,-3.14611 1.58189,0.20326 1.81167,-3.95033 3.22566,3.95916 2.00609,-3.83543 5.26709,4.35684 -0.97211,2.28889 2.26237,-0.66281 1.82935,1.95307 0.33582,-1.39631 1.14886,-0.33582 1.6526,1.48468 1.94422,-0.29163 0.0442,-1.05165 2.39494,0.32698 1.49352,-5.46152 5.31128,0.0353 1.82051,-2.01493 2.92518,1.55539 0.51257,-2.4568 7.04341,5.62059 0.22977,1.5112 3.30519,0.65396 4.47173,-2.46563 4.7015,-6.47782 3.38473,0.44187 3.93264,-2.63355 -0.95444,-0.0177 1.59074,-2.90751 z">
<title
   id="title240">Hoyerswerda     absolute Anzahl: 193 relativ zur Einwohnerzahl: 0,60 %
</title>
</path>

   <!-- Gemeinde   -->
<path
   style="fill:#5f1212;fill-opacity:1;stroke:#000000;stroke-width:0.8837406;stroke-linecap:butt"
   onmouseout="style.opacity = 1;"
   onmouseover="style.opacity = 0.5;"
   id="250"
   class="st5"
   d="m 199.0811,489.11567 4.63964,7.64436 1.03397,8.41321 -5.38198,2.88983 -3.20798,0.0795 0.0795,1.29026 -1.69678,0.57443 -1.24608,-3.29635 -3.75589,0.44187 -2.63355,4.68382 -2.35959,0.0795 0.73351,3.97683 4.10939,4.6308 0.0354,2.54518 2.41261,0.46838 -0.7335,1.67911 1.67027,0.97211 -0.36234,3.07542 -2.12981,0.83072 -1.71446,-1.36097 -0.15023,1.3698 -1.75865,0.0442 -4.02985,-2.51866 -0.83072,0.41536 0.90141,1.62608 -1.7498,-1.41399 -5.25826,2.12098 -1.97958,1.30794 -0.44187,4.39219 -1.82934,3.96799 -4.40987,-0.0265 -5.2936,-3.09309 -2.12098,0.8749 -1.59073,-0.4507 0.13256,-1.4405 1.48468,-0.36234 0.53025,-5.01964 -2.881,-2.35075 -5.66478,-1.96191 0.0619,-1.09583 -3.27868,-4.07405 -13.68914,-1.32561 -5.75316,-1.50236 -3.27867,0.40652 4.19777,-9.89789 2.40377,-8.60764 -2.64238,-1.73213 -1.53771,-2.81029 -0.97212,-6.75178 4.01218,-2.28005 -3.16379,-3.22566 12.65517,-8.81089 4.71034,-0.68932 2.22702,-2.26237 0.99863,-5.8592 2.7396,-3.48194 8.22762,3.99451 1.14003,-0.053 1.70562,-2.04144 7.50295,-0.75118 2.90751,1.21073 1.41398,-3.00472 1.35213,1.2284 -0.60095,1.1577 0.95444,0.23861 0.7777,2.96053 1.1577,0.55675 -0.24745,2.30657 4.42754,1.80283 3.30519,-0.92793 -0.16791,-2.2447 1.16654,-0.91025 3.87962,8.56344 4.09172,4.15358 z">
<title
   id="title250">Kamenz     absolute Anzahl: 215 relativ zur Einwohnerzahl: 1,27 %
</title>
</path>

   <!-- Gemeinde   -->
<path
   style="fill:#821212;fill-opacity:1;stroke:#000000;stroke-width:0.8837406;stroke-linecap:butt"
   onmouseout="style.opacity = 1;"
   onmouseover="style.opacity = 0.5;"
   id="270"
   class="st5"
   d="m 61.025083,432.97693 8.934618,0.33583 0.114886,1.59957 2.297726,2.21818 6.53968,1.20189 4.003348,12.0719 4.851736,-2.58052 1.237234,4.66615 -1.369795,2.77494 1.219562,5.58524 7.052247,2.60704 3.375889,12.93796 -3.791247,-0.44187 -11.568162,3.1903 1.201887,2.50099 2.120978,0.31815 3.667521,2.66006 -6.044783,5.02848 -4.082882,1.087 -0.185586,1.34329 1.590733,0.39768 0.194423,3.00472 2.633547,5.48803 2.412612,-0.0353 0.698155,6.01827 3.375887,-0.2121 1.095838,2.7396 -1.767481,0.98979 -0.662805,1.74097 9.208577,3.73822 -0.998627,1.46701 3.596821,3.29635 -0.5214,2.50983 1.21072,5.77966 -2.05028,0.19442 -0.45954,1.62608 2.81913,3.70288 2.20935,-0.81304 0.73351,4.48056 -0.68048,0.92793 -2.05912,-1.03398 -1.68794,0.97212 -2.368429,-0.70699 -1.63492,0.17674 -1.219562,-1.71445 -2.359588,0.34466 -3.322864,-2.43913 -1.740967,-2.73959 0.08837,-2.87216 -4.957763,-0.71583 0.300472,-4.99314 -6.831318,-0.78653 1.352123,-2.08562 0.256285,-3.49962 -0.706993,-0.43303 -2.651222,0.13256 -8.033202,5.65594 1.511197,-4.26847 -0.468383,-1.76748 4.834061,-3.52612 -5.222907,0.71583 0.344659,-5.38198 -0.972115,-1.39631 -6.327582,-0.1414 -2.518661,2.02377 -2.006091,-0.009 -6.831315,-3.50845 -6.654567,-12.22214 -0.98979,-3.50845 -2.050278,-0.77769 1.546546,-1.42282 1.281424,-3.58799 6.495494,-7.10527 3.720548,-9.64161 -0.203261,-5.30244 13.238435,3.09309 0.344659,-2.67774 -1.387473,-1.36979 0.486057,-2.26238 -2.050278,-2.83681 0.344659,-3.51729 -1.343286,-3.5438 1.069326,-0.91025 -1.493522,-0.65397 -0.424195,-2.3154 -4.834061,-4.28614 0.47722,-3.46426 0.689317,-0.85723 -0.857228,-4.13591 z">
<title
   id="title270">Königsbrück     absolute Anzahl: 34 relativ zur Einwohnerzahl: 0,75 %
</title>
</path>

    <!-- Gemeinde   -->
<path
   style="fill:#671212;fill-opacity:1;stroke:#000000;stroke-width:0.8837406;stroke-linecap:butt"
   onmouseout="style.opacity = 1;"
   onmouseover="style.opacity = 0.5;"
   id="280"
   class="st5"
   d="m 243.85582,465.57017 -0.0795,-0.89258 8.58112,-3.41124 6.51317,-3.90613 6.79597,-0.59211 -1.31678,-4.36567 8.09507,-2.7396 8.30716,0.96328 1.55538,3.88846 -0.40652,4.84289 -2.04144,5.13454 4.36568,1.06932 0.47722,9.05835 0.86606,1.59073 3.35822,1.84702 0.76885,2.98704 8.60764,0.92793 -1.7233,7.29086 6.22154,1.087 2.53633,-3.49078 1.85586,-1.06932 2.58052,0.0972 0.86607,-2.64239 1.45817,-0.46838 -1.06933,-1.46701 -0.26512,-4.83406 3.16379,2.58936 -1.43166,2.08563 0.009,1.90004 2.19167,7.20249 -3.1196,3.49961 -1.09584,4.17126 -11.54165,-3.1638 -9.03183,-1.48468 -2.5275,5.35547 -2.20935,-0.81304 -2.33307,-3.53497 -6.18619,-0.0619 0.31815,-1.48468 -5.99176,0.42419 -1.55539,1.49353 -2.27121,-0.51257 -10.15418,1.87353 -0.0707,-1.24608 -2.80146,0.29164 -1.92655,2.41261 1.64376,1.06932 0.19442,1.43166 -1.34329,0.22978 0.30047,-0.98979 -3.42007,-0.54792 -0.11489,-1.75865 h -4.37451 l -0.053,-4.44521 2.174,-8.32484 0.15908,-4.35684 -0.40652,-6.50433 z">
<title
   id="title280">Königswartha     absolute Anzahl: 39 relativ zur Einwohnerzahl: 1,13 %
</title>
</path>

    <!-- Gemeinde   -->
<path
   style="fill:#6e1212;fill-opacity:1;stroke:#000000;stroke-width:0.8837406;stroke-linecap:butt"
   onmouseout="style.opacity = 1;"
   onmouseover="style.opacity = 0.5;"
   id="290"
   class="st13"
   d="m 339.62944,584.94585 -3.07542,-2.3154 3.12844,-0.38884 -0.31814,-1.59074 -3.01356,-2.32423 -3.15495,0.22977 2.88983,-0.33582 0.55676,-2.11214 -1.59074,-1.46701 4.07405,0.32698 0.41535,-1.97958 1.11352,0.053 0.35349,-1.2284 2.10331,0.36233 -0.23861,-3.99451 -1.83818,-1.02513 -0.96328,-3.28752 3.32286,-3.91497 -2.1033,-1.74981 0.18559,-0.91909 -0.59211,-1.33445 2.61587,0.47722 1.21073,-2.27121 2.56285,0.53908 0.31814,-1.47584 0.91025,0.24744 -0.25628,0.86607 2.34191,0.2121 0.62746,1.50236 2.5275,1.49352 4.80755,0.91909 3.41123,-2.07679 0.79537,-1.82051 3.65869,-1.47585 1.30793,2.80146 -0.83955,0.47722 2.78378,1.2284 0.60978,1.97074 0.17675,1.94423 -1.84702,1.54655 0.73351,6.39828 -0.86607,0.18559 -0.28279,4.02985 -2.19168,1.07817 1.46701,-0.29164 -0.33582,2.35075 -0.93677,-0.11488 -0.20326,1.06932 -1.44933,-0.28279 0.74234,3.87078 -1.91772,3.5438 0.0177,1.14886 1.63492,1.19305 2.65122,-0.8749 -3.15496,6.51317 -6.23037,1.21956 1.45818,5.24058 -1.36097,-0.0972 -2.13865,7.43226 0.15024,12.96447 -2.91635,0.0795 -4.7015,-1.55538 0.0972,0.99862 -3.19031,1.64376 -4.78103,-1.54654 -2.39494,0.8042 -1.78516,-6.84899 -1.36096,-0.25629 -0.0177,-2.45679 3.09309,-0.5656 -1.06933,-8.36902 -1.16653,-1.47585 -2.82797,0.66281 -3.43776,-3.76474 -0.28279,2.11214 -2.39494,0.55676 -1.32561,2.66889 -2.40378,-0.9456 -0.64513,0.81304 0.78653,-2.33307 -1.16653,-2.84565 -1.21073,-0.14139 -0.0795,-1.55539 0.91909,0.11489 -0.68048,-2.80146 2.56285,0.41536 0.95444,-1.78516 1.34329,0.45955 0.81304,-1.3698 5.31128,-0.0353 3.3317,-3.42008 z">
<title
   id="title290">Kubschütz     absolute Anzahl: 23 relativ zur Einwohnerzahl: 0,91 %
</title>
</path>
<!--        Lausznitz     -->
<path
   style="fill:#6e1212;fill-opacity:1;stroke:#000000;stroke-width:0.8837406;stroke-linecap:butt"
   onmouseout="style.opacity = 1;"
   onmouseover="style.opacity = 0.5;"
   id="300"
   class="st4"
   d="m 68.70965,516.34814 0.459545,1.76748 -1.511197,4.26847 8.033202,-5.65594 2.66006,-0.13256 0.698155,0.43303 -0.247448,3.49961 -1.36096,2.09447 6.831317,0.77769 -0.291634,4.99313 4.948945,0.71583 -0.07954,2.881 1.732132,2.73076 3.322865,2.43912 2.359587,-0.33582 1.219562,1.70562 1.63492,-0.16791 -5.408492,8.94345 -0.176749,5.7885 -8.92578,4.57778 -0.23861,1.52004 -4.339166,-0.47722 -4.427543,2.49214 -4.012183,0.38885 -4.418703,2.3861 -2.138652,-0.68932 -1.219562,-0.8042 -0.02651,-1.90004 -1.564221,0.58326 -2.518661,-1.44049 -1.997254,1.7498 -1.740969,-0.0972 0.486057,-4.05637 -2.916344,6.22154 -2.235863,-0.41536 -2.819133,1.21956 -9.942082,-2.91634 -2.3861,-3.52613 -2.11214,0.59211 -3.720548,-2.50099 1.360961,-3.57915 -6.274558,-1.63492 -2.271214,-2.35075 8.881593,-1.55538 1.449335,-8.316 0.265122,1.44933 5.054996,2.69541 1.528872,-0.17675 0.71583,-1.40514 0.212097,0.60978 -0.20326,-3.0224 5.019647,0.0619 -0.768855,-1.49352 0.804204,-2.43029 -1.413985,-1.40515 -3.906133,0.2828 0.565594,-0.74234 -1.422823,-1.1577 0.07954,-1.8647 1.307936,-1.71445 -2.333075,-1.44934 0.857228,-2.33307 0.159074,1.82934 0.23861,-1.74097 4.171255,2.12982 -0.362333,1.0163 0.600943,-0.91909 2.580523,-0.30048 -2.359587,-7.8211 2.500985,-1.5112 0.353497,0.58327 1.316773,-1.79399 2.86332,0.82188 0.326984,-0.6363 0.282797,-2.87215 -1.829343,0.76001 -4.922435,-1.97957 -2.969369,-2.7396 4.94011,-3.55264 -3.658686,-2.13865 4.745687,-0.89258 1.19305,2.41261 6.831315,3.50845 2.006091,0.009 2.527498,-2.02376 6.318746,0.14139 0.980952,1.39631 -0.353496,5.38198 5.231744,-0.71583 z">
<title
   id="title300">Laußnitz     absolute Anzahl: 15 relativ zur Einwohnerzahl: 0,81 %
</title>
</path>
   <!-- Gemeinde   -->

<path
   style="fill:#961212;fill-opacity:1;stroke:#000000;stroke-width:0.8837406;stroke-linecap:butt"
   onmouseout="style.opacity = 1;"
   onmouseover="style.opacity = 0.5;"
   id="310"
   class="st11"
   d="m 200.33601,363.43538 3.72939,0.27396 2.49214,1.74097 0.62746,-0.77769 1.087,0.9456 -0.8749,0.94561 1.21072,-0.52141 -1.06932,2.86332 2.96053,1.2284 -1.02514,0.7335 -0.58327,-0.7335 -0.22977,1.88237 -2.91635,-0.78653 -0.88374,3.30519 -0.91909,0.44187 0.30931,2.41261 -0.8749,1.70562 -0.79537,-0.44187 -2.07679,5.42617 -2.09446,1.91771 -1.49353,-1.06049 -2.00609,3.83544 -3.22565,-3.95916 -1.81167,3.95032 -1.58189,-0.20326 -0.24745,3.15495 -1.98842,-0.26512 0.053,-3.70287 -1.76749,0.13256 -0.48605,1.20189 1.27258,0.009 -9.44718,4.93128 2.55401,6.0006 -3.66753,2.09446 0.26513,2.42145 -1.75865,-1.67027 -3.29635,1.90888 -2.49215,3.88846 1.54655,0.23861 0.50373,1.34328 -2.00609,0.51257 -0.50373,-1.21072 -4.24196,4.03869 -4.21544,0.0884 0.37117,1.28142 2.07679,1.16654 -1.38747,1.68794 0.51257,3.28752 1.42282,0.2828 2.53633,-1.62609 -0.91025,4.40987 -4.29498,-2.43912 -2.56285,-3.1638 -5.10802,-2.55401 -1.02514,-1.59957 -1.12235,-9.72998 -2.21819,-2.71308 3.53497,0.26512 -0.22978,-1.29026 -0.95444,-2.30657 -2.80145,-0.98979 2.93402,-3.49077 8.2453,-3.95032 -4.31266,-4.29498 1.24608,-6.46898 -8.36019,-7.59134 -1.20189,-2.12097 2.56285,-3.73823 14.5287,5.59408 -0.13257,2.22703 1.4405,2.0326 2.30657,0.0707 1.1577,1.36096 1.467,-0.71583 0.93677,0.97212 4.17126,0.27396 1.29909,-8.57229 2.6689,1.59074 4.30382,0.38 4.57777,-4.57777 3.29636,1.14002 -0.15024,-3.71171 5.61175,0.61862 0.98096,-1.24607 -0.76886,-1.12235 1.62608,-0.4949 z">
<title
   id="title310">Lauta     absolute Anzahl: 37 relativ zur Einwohnerzahl: 0,44 %
</title>
</path>

   <!-- Gemeinde   -->
<path
   style="fill:#961212;fill-opacity:1;stroke:#000000;stroke-width:0.8837406;stroke-linecap:butt"
   onmouseout="style.opacity = 1;"
   onmouseover="style.opacity = 0.5;"
   id="320"
   class="st7"
   d="m 99.198082,587.71108 -2.439124,-0.66281 -1.051651,-3.0489 0.194423,-4.50708 1.104676,-1.52887 -1.131188,-1.14003 2.456798,-4.10055 -0.839553,-6.09781 1.758644,-0.41536 5.629423,1.63492 4.64848,-4.68383 1.5819,4.93128 2.22702,1.54654 -0.5214,1.88237 0.74234,0.68932 0.39768,-1.82934 3.90613,-4.14475 1.41399,-4.73685 4.50708,0.88374 -1.12235,3.8266 0.83955,1.84702 -0.73351,4.50707 1.52004,2.82797 -0.90142,0.37118 1.68795,7.3969 -6.23921,9.44719 -3.80009,-3.50845 -0.86606,0.66281 -11.18816,-6.12433 z">
<title
   id="title320">Lichtenberg     absolute Anzahl: 6 relativ zur Einwohnerzahl: 0,37 %
</title>
</path>

   <!--        Lohsa     -->
<path
   style="fill:#821212;fill-opacity:1;stroke:#000000;stroke-width:0.8837406;stroke-linecap:butt"
   onmouseout="style.opacity = 1;"
   onmouseover="style.opacity = 0.5;"
   id="330"
   class="st1"
   d="m 272.44924,449.65931 -8.1039,2.73959 1.32561,4.36568 -6.79596,0.59211 -5.62943,-13.49472 -0.74234,-9.46487 0.75118,-1.467 5.89455,-1.16654 -0.009,-1.47585 1.82051,-0.83072 1.44933,-0.30047 0.8042,2.4568 2.29773,-1.94423 0.54792,1.03398 1.19305,-1.21073 1.49352,0.91026 -0.50373,0.72466 3.13728,0.48606 0.53024,2.68657 4.06521,1.18422 4.32149,-3.8973 1.98842,-3.49961 8.85508,-9.64161 -7.5825,-0.99863 0.81305,3.79125 -1.12236,-0.68048 -4.25962,0.76885 -4.10056,-1.11351 5.435,-7.55598 0.0707,-3.07542 1.09584,-1.44934 -3.52612,-1.44933 -0.25629,-2.53634 2.18284,-3.78241 -8.9788,1.75865 -0.25629,-7.39691 2.54517,0.0795 -0.0972,-4.35685 5.47036,-0.11488 1.28142,2.18284 0.73351,-1.53771 3.82659,-0.64513 2.09447,0.82188 -0.13256,1.85585 3.93264,-4.23312 3.39357,-1.57305 1.42282,0.12372 0.68048,2.77494 6.67224,0.41536 -0.0619,-2.174 3.35821,0.0177 -0.10605,1.65259 1.11352,0.19442 -1.33445,7.50296 5.59408,2.43913 14.66125,0.0795 1.47585,-0.93676 -0.18558,-1.46701 2.56284,-2.81913 3.06658,5.00197 2.93402,0.72466 1.16654,2.0061 4.02986,1.76748 3.29635,-0.65397 -1.67027,12.63749 5.77966,1.35212 -1.19305,2.77495 -3.11076,1.48468 -2.5982,6.68108 -1.7233,1.4405 -1.21956,4.01218 2.3861,4.40987 -0.17675,2.07679 -2.19167,3.76473 -1.05165,-0.5921 -1.24608,2.62471 -0.79536,-0.12373 -4.17126,7.96251 -2.19168,7.06108 2.28889,-0.25628 -2.46564,2.01493 -1.14002,2.73959 -6.19502,1.38748 -3.968,8.18343 -2.16516,3.28752 -1.30794,0.29163 -3.15495,-2.58936 0.26512,4.83406 1.06933,1.45818 -1.45818,0.46838 -0.8749,2.65122 -2.57168,-0.10605 -1.85586,1.06933 -2.54517,3.49077 -6.2127,-1.087 1.72329,-7.29086 -8.61647,-0.92793 -0.76001,-2.9782 -3.36705,-1.85586 -0.86607,-1.58189 -0.47722,-9.06718 -4.36568,-1.06933 2.04144,-5.13453 0.40652,-4.83406 -1.55538,-3.8973 z">
<title
   id="title330">Lohsa     absolute Anzahl: 36 relativ zur Einwohnerzahl: 0,69 %
</title>
</path>
<!-- Gemeinde   -->
<path
   style="fill:#6e1212;fill-opacity:1;stroke:#000000;stroke-width:0.8837406;stroke-linecap:butt"
   onmouseout="style.opacity = 1;"
   onmouseover="style.opacity = 0.5;"
   id="340"
   class="st4"
   d="m 375.74615,506.62699 -1.30794,-1.88236 -2.67773,2.45679 -3.41124,-0.0177 0.82188,-8.06855 -6.19502,-0.009 -0.71583,-14.68777 2.02376,-0.5921 0.0354,-1.01631 -1.92655,0.13256 -0.25629,-0.8749 -3.09309,0.60094 -0.90141,1.39632 -1.70562,-2.09447 -2.04144,-0.30047 -3.13728,-6.53968 -0.69816,0.0972 -0.21209,-1.23724 1.20188,-0.90141 5.13454,0.0353 -1.04282,-3.49078 1.90888,-0.82188 -1.23724,-1.29026 1.40515,-1.38747 -1.02514,-0.52141 -0.39768,-2.88099 1.31677,-0.53909 0.41536,-1.7498 5.13453,-0.76886 1.78516,-4.94011 1.90004,-1.06048 -1.59073,5.37314 -3.55264,6.38944 0.75118,0.57443 0.89258,-0.98095 1.69678,2.27122 3.64985,1.73213 0.38885,4.10939 2.09446,0.96328 -0.30931,0.88374 1.69678,0.97211 3.0931,5.72664 2.15632,-0.0265 3.21682,-5.13453 1.73213,1.36096 3.4731,0.41536 -0.78653,1.51119 3.10193,0.26512 -3.03123,2.15633 -0.52141,2.8103 5.11686,0.51257 -1.90888,3.36705 5.27593,-0.39768 -0.78652,3.80008 -2.64239,4.74569 0.67164,4.53359 4.36568,2.68657 1.11352,3.63217 4.49824,0.22094 -1.8647,8.98764 -2.50982,4.52475 6.06246,1.07816 4.05637,6.73411 -0.43303,5.08151 -1.18422,-0.19443 -1.84701,1.63492 -3.56148,7.31738 -2.28889,6.08897 1.52004,1.71446 -1.25491,-0.76886 -1.48469,2.96053 -1.82934,-0.27396 -0.74234,7.28203 -2.50099,2.50982 -1.2284,-0.38001 -0.29163,2.36843 -2.32424,1.13118 -1.38747,-0.40652 -3.20798,-1.99725 -0.48606,-2.36843 -2.02377,0.38001 -0.49489,-1.33445 -0.91909,0.31815 -1.31677,-1.18421 -2.50983,2.21819 -0.77769,-1.10468 -3.59682,-0.90141 -0.60978,-1.97075 -2.78379,-1.21956 0.83956,-0.48605 -1.30794,-2.80146 -3.64985,1.47584 -0.8042,1.82051 -3.41124,2.07679 -4.80755,-0.91025 -2.5275,-1.50236 -0.62745,-1.50236 -2.34192,-0.2121 0.25629,-0.86606 -0.91026,-0.24745 -0.3093,1.47585 -2.57169,-0.53909 -1.20189,2.27122 -2.61587,-0.47722 0.58327,1.33445 -4.80755,-0.92793 0.67164,-2.50983 -2.56284,-1.42282 0.27395,-1.14002 -0.8042,-0.32699 0.9456,-2.21819 -1.72329,-0.14139 -1.87353,-2.18284 -0.10605,-2.27122 1.32561,-1.30793 -1.07816,0.009 -0.2121,-2.05027 1.67027,-0.62746 -0.46838,-1.85586 2.57168,0.66281 0.30047,-2.35075 0.65397,0.13256 -0.74234,-1.34328 0.60094,-2.08563 1.47585,-0.22094 -0.8749,-0.92793 1.87353,-2.47447 8.36018,1.45817 1.50236,-0.89258 1.2284,-2.81029 0.97212,0.32698 2.41261,-1.57305 1.27259,-2.3861 2.65122,0.76885 -0.76002,1.79399 1.19305,0.48606 -0.10605,1.21073 0.9456,0.12372 0.34466,-1.12235 4.35684,0.83071 1.82051,-1.8205 2.04144,-8.85508 -1.8912,-2.98705 2.22702,0.053 1.02514,-1.96191 1.47585,-0.42419 -0.22094,-0.83955 2.61587,-0.31815 z">
<title
   id="title340">Malschwitz     absolute Anzahl: 39 relativ zur Einwohnerzahl: 0,84 %
</title>
</path>
<!-- Gemeinde   -->

<path
   style="fill:#821212;fill-opacity:1;stroke:#000000;stroke-width:0.8837406;stroke-linecap:butt"
   onmouseout="style.opacity = 1;"
   onmouseover="style.opacity = 0.5;"
   id="350"
   class="st15"
   d="m 222.09724,510.09921 -6.00944,-2.44796 -3.87078,1.16654 -2.39494,2.73075 -0.12372,3.77358 1.14002,0.82188 -0.42419,2.78378 -0.88374,-0.45071 -0.25629,1.1577 0.38885,3.00472 2.32424,-0.11489 0.19442,1.55539 2.50982,1.1577 v 1.97074 l -2.59819,0.20326 0.35349,1.20189 2.55401,0.39768 0.24745,0.99863 -0.44187,1.62608 -1.73213,-0.30931 0.74234,3.74706 -3.6145,-0.46838 0.0177,1.06049 h -2.93402 l -0.58327,-1.26375 -3.56148,1.32561 -3.95916,-2.26238 -1.58189,-0.39768 0.60094,-2.71309 -5.41733,-4.17125 -1.6791,-0.96328 0.7335,-1.67911 -2.41261,-0.47722 -0.0265,-2.53633 -4.1094,-4.6308 -0.7335,-3.98567 2.35958,-0.0795 2.63355,-4.67499 3.7559,-0.44187 1.23724,3.28752 1.70562,-0.5656 -0.0795,-1.29026 3.20798,-0.0795 5.38198,-2.89867 -1.04282,-8.41321 -4.6308,-7.63552 6.85783,-2.75727 0.26512,1.48468 -1.60841,1.32561 0.0442,1.35213 1.45817,0.60978 2.51866,-1.50236 3.11077,0.18558 1.36096,-0.92792 0.45071,-3.69404 5.74431,7.23783 -0.4507,6.37177 2.43028,4.71034 z">
<title
   id="title350">Nebelschütz     absolute Anzahl: 8 relativ zur Einwohnerzahl: 0,65 %
</title>
</path>

   <!-- Gemeinde   -->
 <path
   style="fill:#821212;fill-opacity:1;stroke:#000000;stroke-width:0.8837406;stroke-linecap:butt"
   onmouseout="style.opacity = 1;"
   onmouseover="style.opacity = 0.5;"
   id="360"
   class="st13"
   d="m 256.99969,496.01062 10.15418,-1.8647 2.27121,0.50374 1.55539,-1.49353 5.98292,-0.41535 -0.30931,1.48468 6.18619,0.053 2.33307,3.5438 2.20935,0.8042 2.51866,-5.35547 9.04067,1.48469 -6.26572,14.40497 -3.4731,5.54989 0.22093,1.82934 -0.96327,0.44187 0.43303,4.51592 -2.95169,5.73547 1.06932,0.31815 0.57443,2.62471 -1.29026,7.19365 -5.04616,-1.087 0.64513,2.18284 -0.99862,4.53359 -3.53497,-0.92793 -0.60978,4.68382 -1.72329,1.85586 -1.20189,-0.0442 -0.0442,-1.14002 -4.78104,-0.6363 -0.34466,-1.36096 -1.50236,-0.15907 -0.16791,0.63629 -0.60094,0.30931 0.72466,-0.84839 -1.36979,-1.07816 -1.47585,0.0177 -0.26512,1.087 -2.28889,-0.19442 -1.48469,-0.79537 1.32562,-1.47584 -2.68658,0.19442 -1.8205,-0.58327 0.22977,-1.82934 2.11214,-0.15024 1.6526,-2.64238 -0.66281,-4.85174 1.05165,-0.31815 0.40652,-2.18283 1.19305,-0.0707 -0.27396,-0.85723 2.91635,-1.73213 2.55401,-3.08426 -1.21957,-0.15907 -2.98704,-4.71918 -4.50708,0.053 -0.34465,-1.54655 -3.27868,-1.58189 -0.95444,2.0326 -1.52887,-0.18559 -0.41536,1.38748 -3.46426,-2.74844 -0.39769,1.03398 -5.84152,-0.12372 -1.25492,-2.30657 0.51257,-0.78653 -2.58936,-0.28279 0.0177,-4.07405 2.69541,-1.86469 -0.16791,-2.49215 2.19167,-2.11214 0.38885,-7.43226 4.37452,-0.009 0.11488,1.75865 3.42892,0.54792 -0.30048,0.99862 1.34329,-0.22977 -0.19442,-1.44049 -1.64376,-1.06049 1.92655,-2.42145 2.80146,-0.29164 z">
<title
   id="title360">Neschwitz     absolute Anzahl: 14 relativ zur Einwohnerzahl: 0,58 %
</title>
</path>

    <!-- Gemeinde   -->
<path
   style="fill:#821212;fill-opacity:1;stroke:#000000;stroke-width:0.8837406;stroke-linecap:butt"
   onmouseout="style.opacity = 1;"
   onmouseover="style.opacity = 0.5;"
   id="370"
   class="st13"
   d="m 99.289108,476.39246 6.522002,0.45954 2.87216,2.03261 4.99313,0.0442 3.52613,2.20936 0.16791,-1.50236 2.5275,2.04144 2.43912,0.25628 -4.25079,2.37726 1.05165,2.67774 1.74097,-2.05912 4.5601,-0.38001 1.39631,-1.47584 1.1577,0.24745 3.16379,3.22565 -4.01218,2.28005 0.97212,6.74294 1.53771,2.81913 2.64238,1.73213 -2.40377,8.60764 -4.19777,9.89789 -10.49,-0.50373 -6.47782,-4.348 -4.80755,2.39493 -4.542428,-0.22093 -9.208578,-3.72939 0.671643,-1.7498 1.758644,-0.98979 -1.095838,-2.7396 -3.375887,0.2121 -0.698155,-6.01827 -2.412612,0.0442 -2.633547,-5.49686 -0.194423,-3.00472 -1.590733,-0.39769 0.185586,-1.33444 4.082881,-1.09584 6.044783,-5.02849 -3.66752,-2.66006 -2.120978,-0.3093 -1.19305,-2.50983 11.568162,-3.1903 z">
<title
   id="title370">Neukirch     absolute Anzahl: 12 relativ zur Einwohnerzahl: 0,74 %
</title>
</path>
 <!-- Gemeinde   -->

<path
   style="fill:#6e1212;fill-opacity:1;stroke:#000000;stroke-width:0.8837406;stroke-linecap:butt"
   onmouseout="style.opacity = 1;"
   onmouseover="style.opacity = 0.5;"
   id="380"
   class="st11"
   d="m 269.34643,625.05442 9.67696,0.41536 0.15907,8.64298 -1.52887,0.85723 0.82188,1.82935 -0.53024,3.44658 1.06932,1.14887 -9.10252,2.63354 -0.57444,1.57306 -4.2773,2.58936 -0.63629,2.34191 2.71308,4.0387 -8.48391,-0.60978 -4.25963,-2.94286 -5.60292,-0.9456 -5.53221,-6.76062 0.35349,-3.68519 1.62609,-0.27396 -1.63492,-2.4568 0.11488,-2.3861 1.32561,-1.97958 0.17675,-6.4955 14.36962,-3.97683 z">
<title
   id="title380">Neukirch/Lausitz     absolute Anzahl: 43 relativ zur Einwohnerzahl: 0,89 %
</title>
</path>

    <!-- Gemeinde   -->
<path
   style="fill:#961212;fill-opacity:1;stroke:#000000;stroke-width:0.8837406;stroke-linecap:butt"
   onmouseout="style.opacity = 1;"
   onmouseover="style.opacity = 0.5;"
   id="390"
   class="st5"
   d="m 308.19655,598.63853 -0.0265,2.6689 3.09309,5.18756 0.83072,-0.47722 0.50373,2.00609 2.13865,0.053 1.73213,3.51729 -1.87353,2.99588 -0.96327,-0.36233 -0.0707,2.96936 -3.11961,7.89181 -0.68048,-0.20326 -1.6791,-1.91772 -3.70288,-0.3535 -0.45954,-2.49214 -6.63689,-1.40515 -0.86607,-0.45955 0.23861,-1.76748 -2.01493,0.51257 -0.91025,-1.12235 0.053,-5.74431 3.06658,-7.39691 1.20189,0.12372 1.41399,-2.80146 1.13118,1.12235 0.78653,-2.62471 1.38748,-0.36233 -0.41536,-1.29026 1.10467,-0.45955 3.5438,0.62746 -0.49489,1.24607 z">
<title
   id="title390">Obergurig     absolute Anzahl: 9 relativ zur Einwohnerzahl: 0,43 %
</title>
</path>

   <!-- Gemeinde   -->
<path
   style="fill:#821212;fill-opacity:1;stroke:#000000;stroke-width:0.8837406;stroke-linecap:butt"
   onmouseout="style.opacity = 1;"
   onmouseover="style.opacity = 0.5;"
   id="410"
   class="st11"
   d="m 171.81858,573.4095 0.48606,3.33171 -0.82188,0.49489 -2.81029,0.50373 0.38001,1.43166 -1.94423,1.49352 -4.85174,1.1577 -0.46838,-0.79536 0.22977,1.59957 -1.9619,2.23586 -6.94621,3.64101 -2.88983,-1.63492 -4.63964,1.23724 -2.82797,-2.96053 -2.41261,-0.9456 1.53771,-3.16379 -0.98979,-1.13119 -0.90141,0.50373 -1.84702,-3.04891 4.12707,-2.13865 -2.33308,-0.45954 0.91026,-0.57443 5.24058,-0.6363 0.63629,-2.82797 2.13865,-1.67027 0.0265,-1.14002 4.51592,0.31814 9.01415,3.44659 5.79734,-3.71171 3.42008,-3.85311 3.1903,7.16714 z">
<title
   id="title410">Ohorn     absolute Anzahl: 13 relativ zur Einwohnerzahl: 0,53 %
</title>
</path>

   <!-- Gemeinde   -->
<path
   style="fill:#671212;fill-opacity:1;stroke:#000000;stroke-width:0.8837406;stroke-linecap:butt"
   onmouseout="style.opacity = 1;"
   onmouseover="style.opacity = 0.5;"
   id="420"
   class="st5"
   d="m 194.59788,436.61441 7.0169,0.15024 2.04144,2.13865 0.98096,4.11823 2.44796,3.30519 8.58112,-4.51592 5.8592,-1.39631 0.90141,4.43638 -1.24607,5.58524 -5.34663,5.70897 1.61724,1.97958 1.44934,4.63963 0.29163,5.4792 1.11352,-0.6363 1.6084,2.13866 0.53909,7.33504 -2.23587,1.2284 -2.22702,-2.05028 -1.31678,0.50374 -10.02162,6.83131 -0.71583,2.76611 -6.85782,2.75727 -4.76336,-8.66066 -4.08289,-4.16242 -3.88846,-8.55461 -1.16653,0.91026 0.17675,2.2447 -3.31403,0.92793 -4.42754,-1.80283 0.24744,-2.30657 -1.1577,-0.55675 -0.77769,-2.96054 -0.95444,-0.23861 0.60095,-1.1577 -1.35213,-1.22839 -1.41398,3.00471 -2.90751,-1.21956 -3.81776,0.46838 1.03398,-1.38747 2.14749,0.40652 -0.81304,-5.55873 3.10193,-0.86606 1.16653,-1.7233 1.67911,0.16791 0.62746,-1.84701 0.58327,-9.07602 -2.37727,0.0177 -2.67773,-3.08425 0.4242,-2.2447 4.59545,0.22977 -0.50374,-2.06795 3.20798,-0.79537 1.74981,6.76062 3.86195,0.0707 3.27867,-3.07542 0.84839,2.79262 5.11686,7.69738 2.63355,-4.09172 z">
<title
   id="title420">Oßling     absolute Anzahl: 23 relativ zur Einwohnerzahl: 1,02 %
</title>
</path>

   <!-- Gemeinde   -->
<path
   style="fill:#821212;fill-opacity:1;stroke:#000000;stroke-width:0.8837406;stroke-linecap:butt"
   onmouseout="style.opacity = 1;"
   onmouseover="style.opacity = 0.5;"
   id="430"
   class="st4"
   d="m 34.67671,583.25526 -3.632174,-0.18559 0.406521,-0.95444 -3.835435,-4.83406 -2.695409,-0.53024 -0.0707,-2.90751 1.847018,-4.39219 5.037322,-3.968 5.14337,-0.92792 0.406521,-2.7396 1.254911,-0.38001 9.942082,2.91635 2.819133,-1.21957 2.235864,0.41536 2.916344,-6.22153 -0.486058,4.05637 1.740969,0.0972 1.997254,-1.74981 2.518661,1.4405 1.564221,-0.58327 0.02651,1.90888 1.219562,0.79537 2.138652,0.68932 1.299099,-0.76886 0.574432,1.16654 1.758643,0.45071 -3.03123,6.70759 -0.371171,5.74431 -3.287515,0.66281 -0.786529,1.44049 0.318146,2.74844 0.830717,0.053 1.184212,3.51729 -1.467009,-1.92655 0.910252,4.42754 1.140026,0.93676 -4.489403,3.34054 -3.181466,0.64513 -1.855855,4.02986 -1.449335,-0.65397 -1.926554,1.30794 -1.095839,-2.34192 -4.259629,-3.72938 -3.800085,-0.91025 -0.866066,-3.03123 -0.927928,-0.009 -1.581895,-6.23921 -1.325611,-0.98095 z">
<title
   id="title430">Ottendorf-Okrilla     absolute Anzahl: 50 relativ zur Einwohnerzahl: 0,50 %
</title>
</path>

   <!-- Gemeinde   -->
<path
   style="fill:#551212;fill-opacity:1;stroke:#000000;stroke-width:0.8837406;stroke-linecap:butt"
   onmouseout="style.opacity = 1;"
   onmouseover="style.opacity = 0.5;"
   id="440"
   class="st15"
   d="m 216.45102,552.67341 0.11489,1.9354 -0.86607,1.17537 -0.30931,-1.38747 -0.23861,1.90004 -3.97683,-0.71583 0.29163,4.65731 2.80146,-0.60094 1.02514,1.71446 -0.62746,1.31677 1.08701,0.90142 -1.47585,2.73075 -5.21407,2.21819 -2.86332,-0.49489 -2.48331,3.93264 -4.68383,2.0061 -2.72192,0.16791 -3.56147,-4.3215 1.83818,-4.23311 2.42145,-0.64513 1.64375,-4.16242 2.04144,-0.43303 -0.29163,-1.87353 1.77632,-1.21957 -0.84839,-4.19776 -1.81167,-0.15024 0.91909,-5.39082 -0.81304,-1.21956 1.11351,-1.56422 1.93539,0.86606 0.40652,-1.26374 -3.17262,-2.20052 0.20326,-3.04007 -1.9354,-1.14886 1.00747,-4.46289 3.95916,2.25354 3.56147,-1.31677 0.58327,1.25491 h 2.93402 l -0.0177,-1.06049 3.6145,0.46838 -0.74234,-3.73822 1.73213,0.30047 0.44187,-1.61725 1.24608,0.41536 -0.51257,1.85586 1.93539,1.10467 3.74706,0.81305 1.98842,-1.41399 -2.50099,2.56285 4.25963,0.15023 1.09584,1.7233 -1.2284,1.35212 0.95444,-0.16791 0.74234,2.74843 4.25079,0.73351 1.04282,1.85585 1.88236,-0.75118 -1.14886,0.98096 0.0884,2.32423 2.80145,0.32699 0.65397,-1.45817 1.39631,0.0972 0.0795,1.59073 5.89455,0.98095 -0.30931,1.42283 0.47722,1.6084 -0.97212,2.28005 1.70562,0.89258 -0.30931,2.85448 -3.07541,-0.0619 -3.87079,-3.09309 -4.04753,3.45543 0.82188,-1.33445 -2.08563,-0.66281 -0.86606,-1.91771 -1.67027,0.41535 0.053,-0.75118 -2.74843,-0.98979 0.32698,-3.56147 -6.40712,1.27259 -0.17675,1.19305 -0.0884,-1.13119 -1.4405,0.22977 z">
<title
   id="title440">Panschwitz-Kuckau     absolute Anzahl: 38 relativ zur Einwohnerzahl: 1,82 %
</title>
</path>

    <!-- Gemeinde   -->
<path
   style="fill:#5f1212;fill-opacity:1;stroke:#000000;stroke-width:0.8837406;stroke-linecap:butt"
   onmouseout="style.opacity = 1;"
   onmouseover="style.opacity = 0.5;"
   id="450"
   class="st4"
   d="m 123.7864,562.3813 -4.50708,-0.88374 -2.54517,-7.29086 -4.40103,-3.32286 -1.53771,-5.30244 -1.83818,0.37117 -0.79537,-4.51592 -2.02376,-1.60841 8.61647,-5.16104 8.29832,-1.28142 -0.0354,-1.23724 0.76002,2.58052 4.97546,-0.99863 2.67773,4.25963 -1.19305,0.52141 1.12235,3.36705 -0.82187,2.22703 2.13865,-0.17675 2.48331,6.64573 1.18421,0.33582 0.22094,6.69876 1.05165,1.62608 1.18421,-0.22977 0.79537,1.77631 2.98704,0.2828 3.64101,1.83818 1.21956,1.56422 -0.86606,1.61725 2.30656,1.82934 -0.0265,1.14003 -2.13865,1.67027 -0.6363,2.82797 -5.24058,0.63629 -0.91025,0.57443 2.33307,0.45955 -4.12706,2.13865 1.84701,3.0489 0.90142,-0.50373 0.99863,1.13119 -1.54655,3.16379 -3.80892,1.5819 -3.03123,-2.76611 -5.94758,1.52887 -2.48331,-1.38747 -1.67911,-7.39691 0.90142,-0.36234 -1.52003,-2.82797 0.7335,-4.51591 -0.84839,-1.84702 z">
<title
   id="title450">Pulsnitz     absolute Anzahl: 104 relativ zur Einwohnerzahl: 1,39 %
</title>
</path>

    <!-- Gemeinde   -->
<path
   style="fill:#961212;fill-opacity:1;stroke:#000000;stroke-width:0.8837406;stroke-linecap:butt"
   onmouseout="style.opacity = 1;"
   onmouseover="style.opacity = 0.5;"
   id="460"
   class="st11"
   d="m 252.98662,520.10404 0.41536,-1.38748 1.52887,0.18559 0.95444,-2.0326 3.27868,1.58189 0.34466,1.54655 4.50708,-0.053 2.98704,4.71918 1.21956,0.15023 -2.55401,3.0931 -2.91634,1.73213 0.27396,0.85723 -1.19305,0.0707 -0.40652,2.174 -1.05165,0.32698 0.6628,4.85174 -1.65259,2.64238 -2.11214,0.15024 -0.22978,1.82934 1.82051,0.58327 -1.37864,0.91025 -7.83877,-0.53908 -0.4949,-1.16654 -1.54655,-0.27396 -0.13256,-6.00059 -5.47035,-1.40515 -1.74981,-3.5438 1.10468,-0.92793 -0.13256,-4.09172 2.22702,-1.32561 -0.16791,-6.49549 5.84153,0.12372 0.39768,-1.04281 z">
<title
   id="title460">Puschwitz     absolute Anzahl: 3 relativ zur Einwohnerzahl: 0,37 %
</title>
</path>

    <!-- Gemeinde   -->
<path
   style="fill:#5f1212;fill-opacity:1;stroke:#000000;stroke-width:0.8837406;stroke-linecap:butt"
   onmouseout="style.opacity = 1;"
   onmouseover="style.opacity = 0.5;"
   id="470"
   class="st9"
   d="m 228.56269,508.02861 2.7661,-0.71583 0.80421,1.73213 -0.92793,1.37863 1.2284,0.009 -0.16791,6.44247 1.44933,0.13256 -0.009,3.29635 -1.18422,-0.053 -0.21209,2.82797 1.21072,0.63629 0.0265,1.74981 -2.43028,-0.91909 -1.08701,1.32561 -0.27395,-1.35212 -0.53909,1.47584 -1.50236,-0.0353 0.0177,1.59957 -1.55538,1.05165 0.56559,0.38885 -2.30656,0.70699 0.44187,2.15633 -1.21957,0.92793 -1.99725,1.41398 -3.73822,-0.81304 -1.93539,-1.09584 0.51257,-1.86469 -1.24608,-0.41536 -0.25628,-1.00746 -2.54518,-0.38885 -0.36233,-1.20189 2.60703,-0.21209 v -1.97074 l -2.50982,-1.1577 -0.20326,-1.54655 -2.3154,0.11489 -0.39768,-3.00472 0.25628,-1.1577 0.88374,0.4507 0.4242,-2.78378 -1.13119,-0.83071 0.12372,-3.76474 2.39494,-2.73076 3.87079,-1.16654 6.00943,2.43913 0.29164,1.33445 1.75864,0.32698 z">
<title
   id="title470">Räckelwitz     absolute Anzahl: 16 relativ zur Einwohnerzahl: 1,41 %
</title>
</path>

    <!-- Gemeinde   -->
<path
   style="fill:#961212;fill-opacity:1;stroke:#000000;stroke-width:0.8837406;stroke-linecap:butt"
   onmouseout="style.opacity = 1;"
   onmouseover="style.opacity = 0.5;"
   id="480"
   class="st4"
   d="m 106.92286,605.37705 0.33582,4.18893 1.37864,1.06933 -1.52004,1.00746 -2.2447,0.30048 -1.65259,4.49824 -1.23724,-1.33445 -1.6526,0.60978 2.29773,3.18147 -0.23861,2.29772 -0.85723,-0.0265 -0.7335,3.50845 -1.802834,0.50373 -0.919091,2.3861 -3.30519,2.73076 3.411239,5.32895 2.147486,-0.27395 2.8103,6.7341 -1.28142,4.18893 1.97957,0.71583 0.73351,1.52887 -2.68657,0.98979 -0.91909,-0.60094 -2.280054,3.83543 0.998627,1.45817 0.539087,-0.76885 1.52887,1.1577 -0.52141,0.70699 -8.810895,1.87353 0.830717,-1.11351 -1.758644,0.64513 -0.963277,-1.21956 0.830716,-0.86607 -3.587985,-2.78378 -8.086226,-1.12235 -4.215446,-1.90888 3.119605,-3.50845 2.465639,-1.14887 0.371171,-1.76748 -2.483314,-0.71583 2.253541,-1.83818 -0.06186,-1.31677 2.306563,-0.4949 -0.326984,1.39631 -1.661432,0.0795 2.333075,2.34191 1.882368,-1.35212 -0.71583,-2.05028 0.724667,-1.27258 1.440497,-0.18559 0.689318,-2.98704 -0.972115,-1.50236 0.636294,-0.41536 -1.528872,-1.32561 -1.608408,0.15024 -1.449334,-2.75728 -1.87353,-0.95444 1.63492,-3.11076 -2.810295,-2.14749 0.185585,-1.32561 h -2.39494 l -3.022392,-7.21133 -2.66006,-1.90004 -1.131188,-2.61587 -0.813041,-4.16242 8.148088,-3.06658 0.08837,-3.80892 0.698155,1.91772 2.633549,-0.12373 1.413985,1.2284 0.760017,-1.1577 2.209352,1.13119 0.397683,-2.174 2.3154,2.08563 -0.335821,1.06932 2.827967,3.46426 0.265123,-0.79536 2.845644,0.72467 6.84016,-1.7233 2.88983,2.1033 1.79399,-1.6084 z">
<title
   id="title480">Radeberg     absolute Anzahl: 72 relativ zur Einwohnerzahl: 0,39 %
</title>
</path>

    <!-- Gemeinde   -->
<path
   style="fill:#821212;fill-opacity:1;stroke:#000000;stroke-width:0.8837406;stroke-linecap:butt"
   onmouseout="style.opacity = 1;"
   onmouseover="style.opacity = 0.5;"
   id="490"
   class="st5"
   d="m 288.45821,516.9862 0.97211,-0.44187 -0.22093,-1.82934 3.46426,-5.55873 6.27456,-14.39614 11.53281,3.1638 1.09584,-4.17126 3.1196,-3.49961 -2.19167,-7.20249 -0.009,-1.90004 1.43166,-2.08563 1.30794,-0.2828 2.15632,-3.29635 3.968,-8.18344 6.20386,-1.37863 1.14002,-2.74844 2.46564,-2.00609 2.21819,0.20326 1.4405,1.94423 0.0707,8.07739 1.36979,1.66143 0.39769,2.5982 -0.92793,-0.0354 -0.39768,1.23724 1.76748,1.98842 1.18421,-0.22978 -2.72192,11.56817 -2.75727,2.9782 0.37117,1.99726 2.44796,2.08563 0.0795,6.40711 -6.47782,5.20524 -0.0972,-1.67911 -4.51592,0.76002 -1.19305,1.55538 0.0265,3.24333 -2.15632,1.48468 -2.00609,-0.25628 0.63629,1.79399 -0.99863,0.54792 -0.0265,1.48468 3.83543,0.15908 1.54655,1.02514 1.29026,2.57168 -2.82797,1.56422 1.94423,0.0884 1.27259,2.46563 -1.94423,0.64513 -0.88374,1.5112 -1.83818,-0.15907 -1.88237,8.92578 -1.36096,-0.26512 -0.79537,3.15495 -1.10467,-0.26512 -0.91026,1.27258 -0.98979,3.74706 -4.86057,0.91909 -2.20051,-2.61587 -3.31403,0.0177 1.1577,6.9462 -1.53771,2.25354 -4.07404,-2.10331 0.22977,-1.48468 -1.5112,-0.22977 -0.0177,1.17537 -0.91025,0.053 0.46838,-1.26375 -0.86607,0.53908 0.2121,-0.71583 -2.7396,-1.93539 -2.63354,1.45817 -1.17538,2.11214 0.98095,0.70699 -0.53908,1.30794 -3.25216,-1.96191 1.12235,-0.53908 -0.74234,-2.05911 -0.6363,0.92792 -2.12098,-1.82934 -2.50982,2.28889 -1.55538,-1.30794 -2.05912,1.57306 -2.41261,-1.70562 0.60978,-4.68382 3.53496,0.92792 0.98979,-4.53358 -0.64513,-2.19168 5.04616,1.09584 1.29026,-7.20249 -0.57443,-2.61587 -1.06932,-0.31815 2.95169,-5.74431 z">
<title
   id="title490">Radibor     absolute Anzahl: 23 relativ zur Einwohnerzahl: 0,74 %
</title>
</path>

<!-- Gemeinde Ralbitz-Rosenthal  -->
<path
   style="fill:#821212;fill-opacity:1;stroke:#000000;stroke-width:0.8837406;stroke-linecap:butt"
   onmouseout="style.opacity = 1;"
   onmouseover="style.opacity = 0.5;"
   id="500"
   class="st6"
   d="m 243.85317,465.57106 3.10193,7.70621 0.40652,6.50433 -0.15024,4.35685 -2.18284,8.32483 -0.33582,11.88631 -2.20052,2.11214 0.16792,2.49215 -2.68658,1.86469 0.0265,2.19168 -3.21682,-0.58327 -0.29163,1.43166 -1.80283,-0.53024 1.6084,1.14002 -1.8912,-0.53024 -0.69816,3.06658 -1.44933,-0.1414 0.17675,-6.43363 -1.2284,-0.009 0.91909,-1.37863 -0.79537,-1.73214 -2.77494,0.71583 -4.40987,3.72939 -1.75864,-0.32698 -1.12235,-7.90948 -2.43029,-4.71918 0.45071,-6.37177 -5.74432,-7.23783 -0.45071,3.69403 -1.36096,0.92793 -3.11076,-0.18559 -2.51866,1.5112 -1.45818,-0.61862 -0.0442,-1.35212 1.60841,-1.32561 -0.26513,-1.47585 0.707,-2.77494 10.02161,-6.83132 1.31678,-0.49489 2.22702,2.05027 2.24471,-1.22839 -0.54792,-7.34389 5.30244,-1.5112 4.94895,-2.56284 0.4507,-1.14887 1.44934,0.83072 z">
<title
   id="title500">Ralbitz-Rosenthal     absolute Anzahl: 10 relativ zur Einwohnerzahl: 0,59 %
</title>
</path>

    <!-- Gemeinde   -->
<path
   style="fill:#671212;fill-opacity:1;stroke:#000000;stroke-width:0.8837406;stroke-linecap:butt"
   onmouseout="style.opacity = 1;"
   onmouseover="style.opacity = 0.5;"
   id="510"
   class="st11"
   d="m 171.02233,579.7636 -3.37589,2.11214 -0.53908,-1.21073 1.95307,-1.48468 -0.38885,-1.4405 2.8103,-0.50373 4.17125,1.98842 0.81305,-1.42282 0.8749,0.57443 1.5112,-2.50983 4.14474,2.75727 10.92303,9.31463 -0.28279,2.43912 2.2447,0.45071 -4.35684,5.90339 0.83955,5.81501 -7.36156,2.41261 -4.18009,-2.2447 -5.84153,-7.73273 0.77769,-4.8429 -0.92792,-6.05362 -3.93265,0.053 0.88374,-1.82935 z">
<title
   id="title510">Rammenau     absolute Anzahl: 16 relativ zur Einwohnerzahl: 1,20 %
</title>
</path>

    <!-- Gemeinde   -->
<path
   style="fill:#6e1212;fill-opacity:1;stroke:#000000;stroke-width:0.8837406;stroke-linecap:butt"
   onmouseout="style.opacity = 1;"
   onmouseover="style.opacity = 0.5;"
   id="525"
   class="st5"
   d="m 310.44214,625.088 11.56816,-0.16791 1.26375,2.2447 2.57169,0.48606 0.48605,1.33445 2.20936,0.81304 0.25628,-1.61724 2.92518,-0.97212 5.2671,0.15908 -0.53025,5.70012 -2.63355,1.41399 -0.11488,1.087 2.92518,4.40986 4.15358,0.99863 -0.26512,7.92715 -5.25826,1.80283 -0.96328,2.51867 1.11352,1.50235 -3.65869,0.68048 -1.03398,-2.58052 -5.94757,-1.09584 -8.63415,2.20052 1.55539,3.83543 -3.74706,2.2447 -2.77495,-0.91909 -3.10193,0.38885 -6.99039,-3.71171 -3.01355,-2.93402 -1.52887,-4.02102 8.34251,-4.9136 0.42419,-1.83818 2.58053,-1.92655 -1.36096,-0.50374 0.83955,-1.06932 0.16791,-4.33917 1.47585,-1.56422 0.75118,-7.77692 z">
<title
   id="title525">Schirgiswalde-Kirschau     absolute Anzahl: 47 relativ zur Einwohnerzahl: 0,76 %
</title>
</path>

   <!-- Gemeinde   -->
<path
   style="fill:#821212;fill-opacity:1;stroke:#000000;stroke-width:0.8837406;stroke-linecap:butt"
   onmouseout="style.opacity = 1;"
   onmouseover="style.opacity = 0.5;"
   id="530"
   class="st4"
   d="m 247.07882,611.94767 -0.50373,1.36096 1.45817,2.30656 0.60978,5.99176 0.22977,1.05165 0.83072,-0.15907 0.26512,2.29772 -4.74569,1.23724 -0.17674,6.49549 -1.32562,1.97958 -0.12372,2.3861 1.64376,2.4568 -1.62608,0.27396 -0.3535,3.6852 5.53222,6.76062 -3.07542,5.2229 -4.25963,3.41124 -3.7559,0.84839 0.76002,-3.16379 -1.90888,-1.46701 0.2121,-1.49352 -1.74981,-3.261 -5.10802,-1.27259 0.82188,-1.29026 -2.06796,-1.20189 -12.32818,-5.19639 -0.58327,0.7335 -7.22016,-1.91772 -2.21819,3.90614 -2.0326,-0.62746 0.38885,-0.91025 -1.41399,-0.81304 1.83818,-3.04007 -2.63355,-0.95444 0.6363,-0.74234 1.99725,0.65397 0.2828,-0.76002 -4.15358,-1.25491 0.9456,-1.23724 3.90613,0.2828 -1.19305,-6.26572 1.20189,-1.04282 -1.14002,-0.25628 2.41261,-2.21819 4.38335,-0.65397 2.11214,1.94423 2.90751,-0.0972 2.09446,1.30794 5.21407,-9.03183 -0.72466,-0.76886 0.76001,-1.23724 -1.98841,-2.47447 -2.70425,-1.18421 0.85723,-2.62471 3.63217,-1.77632 -0.55675,-1.41398 4.22428,2.86332 5.27593,-0.4242 2.66889,2.05028 5.16989,-1.00747 z">
<title
   id="title530">Schmölln-Putzkau     absolute Anzahl: 16 relativ zur Einwohnerzahl: 0,53 %
</title>
</path>

    <!-- Gemeinde   -->
<path
   style="fill:#821212;fill-opacity:1;stroke:#000000;stroke-width:0.8837406;stroke-linecap:butt"
   onmouseout="style.opacity = 1;"
   onmouseover="style.opacity = 0.5;"
   id="550"
   class="st11"
   d="m 88.850366,460.84658 -1.210725,-5.58524 1.360958,-2.76611 -1.237234,-4.67499 -4.851736,2.58936 -4.003348,-12.0719 2.987046,-1.90004 0.627456,0.6363 1.891205,-0.81305 1.325611,1.09584 4.241952,-1.36096 -0.371171,-3.25216 9.129041,-2.23587 2.810299,-1.99725 1.49352,0.2828 6.08897,-5.31129 3.56148,-0.3093 4.98429,2.75727 -1.06932,12.33701 13.08819,2.37727 4.71034,5.6471 -3.92381,3.91497 -3.64984,7.02574 1.78515,2.93402 3.31403,3.28751 8.20111,-1.49352 4.40987,2.90751 5.05499,-0.17675 -1.0163,1.00746 -0.98979,5.8592 -2.22702,2.26238 -4.71034,0.68932 -12.664,8.81089 -1.14887,-0.24745 -1.40515,1.47585 -4.5601,0.38001 -1.74097,2.05912 -1.04281,-2.67774 4.24196,-2.37726 -2.43913,-0.25629 -2.5275,-2.04144 -0.15907,1.50236 -3.52613,-2.20935 -4.99313,-0.0353 -2.88099,-2.04144 -6.52201,-0.45954 -3.375889,-12.93797 z">
<title
   id="title550">Schwepnitz     absolute Anzahl: 16 relativ zur Einwohnerzahl: 0,65 %
</title>
</path>

    <!-- Gemeinde   -->
<path
   style="fill:#821212;fill-opacity:1;stroke:#000000;stroke-width:0.8837406;stroke-linecap:butt"
   onmouseout="style.opacity = 1;"
   onmouseover="style.opacity = 0.5;"
   id="560"
   class="st13"
   d="m 290.51821,675.03172 -5.25826,-4.71917 4.6308,-14.02497 8.18344,-3.45542 3.01355,2.94285 6.99039,3.71171 3.09309,-0.38884 2.77495,0.91909 3.7559,-2.25354 -1.55539,-3.83543 8.62531,-2.19168 5.94758,1.087 1.04281,2.58052 3.65869,-0.68048 1.8912,1.41399 -0.45071,0.58327 4.71034,2.94285 -2.40377,8.62531 2.80145,0.48606 v 3.1903 l 1.35213,5.46152 -0.76886,8.59879 -8.02436,-1.5377 0.44187,-2.77495 -2.16517,-0.99863 -2.05911,-3.08425 -5.20523,-0.45071 -8.2453,6.15084 -1.39631,2.50982 -5.37315,2.98704 -4.54242,0.15908 -9.50905,-4.61313 -1.98842,-2.174 -0.16791,-7.06993 z">
<title
   id="title560">Sohland a. d. Spree     absolute Anzahl: 36 relativ zur Einwohnerzahl: 0,53 %
</title>
</path>

   <!-- Gemeinde   -->
<path
   style="fill:#6e1212;fill-opacity:1;stroke:#000000;stroke-width:0.8837406;stroke-linecap:butt"
   onmouseout="style.opacity = 1;"
   onmouseover="style.opacity = 0.5;"
   id="570"
   class="st4"
   d="m 325.51257,324.64536 1.14886,1.57306 0.69815,6.76945 -5.49686,12.85842 8.51926,0.22978 6.3806,1.72329 0.0442,7.27319 4.7015,1.97074 -2.09446,1.68794 -2.35075,-0.65397 -1.35213,6.68108 1.94423,1.3698 -0.17675,2.35959 -1.59957,2.41261 -0.8042,-0.55676 2.58936,3.95916 4.61313,2.21819 -1.14887,1.30794 2.53634,3.06658 2.01493,0.24745 -3.63218,2.86331 -1.57306,4.42755 3.12845,1.59957 6.78712,0.10604 1.64376,3.05775 -0.55675,4.40103 6.01827,0.7335 0.76002,1.81167 -0.82188,2.76611 -0.97212,-0.11489 -4.24195,7.72389 1.10467,3.23449 -3.03123,-0.0442 0.0619,1.75864 -7.98018,1.02514 1.67027,-12.63749 -3.29636,0.6628 -4.02102,-1.77631 -1.16653,-2.0061 -2.93402,-0.72466 -3.07542,-5.00197 -2.56285,2.82797 0.19443,1.45817 -1.47585,0.93676 -14.6701,-0.0795 -5.59407,-2.43913 1.33445,-7.50296 -1.10468,-0.19442 0.10605,-1.65259 -3.35822,-0.0177 0.0619,2.174 -6.68108,-0.41536 -0.67165,-2.77494 -1.43166,-0.12372 -3.39356,1.57305 -3.92381,4.23312 0.13256,-1.85585 -2.09446,-0.82188 -3.8266,0.64513 -0.7335,1.53771 -5.84153,-9.52673 2.25354,-0.9456 -0.5656,-0.76885 -6.95503,-1.42283 -1.30794,0.75118 -0.31815,-1.18421 -4.69266,0.15024 -0.0972,-3.37589 -1.53771,-0.37117 1.46701,-1.2991 0.12372,-8.85508 7.92716,3.95915 -0.0707,2.34192 7.40574,4.68382 4.34801,-7.38807 0.88374,-3.8266 -3.21682,-0.82187 -3.49077,-3.11961 -0.0265,-2.87216 1.5377,-1.2284 -2.88983,-3.261 -3.37589,-1.23724 0.68932,-1.83818 1.00746,0.0707 -0.17674,-2.73959 2.21819,1.73213 3.38472,-1.73213 1.43166,-7.17598 -1.35212,0.009 0.30047,-2.34191 7.18481,-0.60978 8.55461,-7.87413 4.20661,-0.20326 -0.009,-5.42617 5.24942,-0.1414 4.72801,3.31403 2.35959,-1.64376 11.49746,-3.48194 z">
<title
   id="title570">Spreetal     absolute Anzahl: 14 relativ zur Einwohnerzahl: 0,76 %
</title>
</path>

    <!-- Gemeinde   -->
<path
   style="fill:#821212;fill-opacity:1;stroke:#000000;stroke-width:0.8837406;stroke-linecap:butt"
   onmouseout="style.opacity = 1;"
   onmouseover="style.opacity = 0.5;"
   id="580"
   class="st16"
   d="m 144.91664,550.57983 8.20995,-0.81304 2.12097,2.6689 -1.14886,1.67911 0.29164,1.55538 4.08288,-0.86607 3.55263,5.57641 3.90614,0.15023 4.71034,2.35075 0.99862,1.2284 -3.42891,3.86195 -5.79734,3.70287 -9.00532,-3.43775 -4.52475,-0.32698 -2.30656,-1.82935 0.86606,-1.61724 -1.21956,-1.56422 -3.64101,-1.82935 -2.98704,-0.29163 -0.79537,-1.76748 -1.18421,0.22093 -1.05165,-1.61724 -0.22094,-6.70759 -1.18421,-0.32699 -2.48331,-6.64573 0.63629,-0.82188 9.08485,-0.79536 z">
<title
   id="title580">Steina     absolute Anzahl: 11 relativ zur Einwohnerzahl: 0,68 %
</title>
</path>

    <!-- Gemeinde   -->
<path
   style="fill:#821212;fill-opacity:1;stroke:#000000;stroke-width:0.8837406;stroke-linecap:butt"
   onmouseout="style.opacity = 1;"
   onmouseover="style.opacity = 0.5;"
   id="590"
   class="st11"
   d="m 264.41869,650.53532 0.64513,-2.34192 4.26847,-2.58936 0.58327,-1.57306 9.10253,-2.63354 3.67636,-0.74234 4.348,0.61861 3.11961,3.94149 6.3806,3.60566 1.52888,4.01218 -8.1746,3.45543 -4.63081,14.02496 -6.67224,2.64238 -0.76001,1.68795 -3.60567,-0.009 -4.33032,-5.62943 -0.10605,-1.62608 -3.80009,-3.77357 0.46838,-1.3698 -1.02513,-2.65122 -2.46564,0.44187 -1.0163,-1.2991 2.65122,-0.11489 0.83072,0.89258 1.69678,-4.93127 z">
<title
   id="title590">Steinigtwolmsdorf     absolute Anzahl: 18 relativ zur Einwohnerzahl: 0,64 %
</title>
</path>

    <!-- Gemeinde   -->
<path
   style="fill:#961212;fill-opacity:1;stroke:#000000;stroke-width:0.8837406;stroke-linecap:butt"
   onmouseout="style.opacity = 1;"
   onmouseover="style.opacity = 0.5;"
   id="600"
   class="st11"
   d="m 70.803054,564.8222 -1.758644,-0.44187 -0.574431,-1.16654 3.119604,-1.61725 4.012183,-0.38884 4.427543,-2.49215 4.339166,0.47722 2.244702,-0.50373 3.676358,0.98095 1.705619,-1.14003 2.014929,0.6363 -1.811668,2.4568 -2.978206,0.70699 2.810295,2.35959 2.11214,-1.00747 3.349377,2.94286 0.839554,6.09781 -2.456799,4.10055 1.131188,1.14003 -1.104676,1.52887 -0.194423,4.50708 1.051651,3.0489 2.439124,0.66281 3.78241,-4.07405 11.18816,6.12433 0.86606,-0.66281 3.80009,3.50845 0.45954,-0.86606 2.50099,0.83071 0.49489,2.27122 -1.19305,1.76748 -1.85585,0.009 -0.0707,2.72193 -5.92106,2.65122 0.0795,2.05028 -0.98979,-1.26375 -1.06049,0.15023 -4.35684,2.44796 -1.13118,-1.40514 -1.794,1.6084 -2.88983,-2.1033 -6.831315,1.7233 -2.854482,-0.72467 -0.265122,0.79536 -2.827968,-3.46426 0.335822,-1.06932 -2.315401,-2.08563 -0.397683,2.174 -2.209351,-1.13119 -0.760017,1.1577 -1.413985,-1.2284 -2.63355,0.12373 -0.698155,-1.91772 -1.855855,-0.44187 0.371171,-1.91772 -1.749807,-0.68048 -0.06186,-1.34328 -0.901415,-0.26513 0.671643,-1.21956 -1.829343,-0.51257 -0.813042,-1.52887 -3.23449,1.17538 -3.729386,-2.88984 -0.910253,-4.42754 1.475847,1.91772 -1.19305,-3.50845 -0.830716,-0.053 -0.318146,-2.74844 0.786529,-1.4405 3.287515,-0.6628 0.371171,-5.74431 z">
<title
   id="title600">Wachau     absolute Anzahl: 21 relativ zur Einwohnerzahl: 0,49 %
</title>
</path>

    <!-- Gemeinde   -->
<path
   style="fill:#5a1212;fill-opacity:1;stroke:#000000;stroke-width:0.8837406;stroke-linecap:butt"
   onmouseout="style.opacity = 1;"
   onmouseover="style.opacity = 0.5;"
   id="610"
   class="st5"
   d="m 402.82838,543.85722 2.87216,5.11686 0.19442,-0.88374 1.34329,0.0795 0.65397,-2.88983 2.42144,-2.87216 1.59958,-0.22977 1.74096,3.36705 -1.34328,1.19305 -0.82188,4.35684 1.74981,-0.0353 0.5921,1.52004 2.27122,0.97211 -0.3535,0.80421 2.98704,1.65259 3.21682,-0.0972 0.2828,-1.33445 1.06932,0.34466 -0.15023,0.92793 4.46289,-0.12373 -1.38748,3.43776 0.23861,3.66752 -2.79262,1.64376 1.12235,2.58936 -4.03869,1.6791 3.00472,0.68932 0.47722,0.97212 1.03397,-0.84839 -0.41535,0.57443 2.42144,1.31677 -1.95306,0.27396 0.96328,0.88374 4.78103,1.06049 2.3154,-0.54792 -1.35212,0.9456 2.7396,2.60704 -0.13257,0.84839 -2.48331,0.68932 -0.11488,1.20188 -3.0931,2.66006 1.28143,1.87353 -0.96328,0.73351 0.26512,2.27121 -2.92518,-1.2284 0.76886,0.96328 -1.87353,0.51257 0.0795,2.05028 -1.37863,0.76885 0.12372,1.47585 2.16517,1.087 -1.07817,3.89729 1.19305,0.68048 -0.0619,2.0768 -3.07542,0.0353 0.65397,-1.75864 -0.8749,0.0265 -0.22978,1.82935 -1.40514,-0.0972 0.50373,-1.56422 -2.39494,-0.54792 -0.28279,-2.23586 -0.4949,0.64513 -2.18284,-2.174 -0.60094,0.91909 -1.39631,-0.96328 -2.75727,3.12844 -0.75118,-0.29163 0.58327,0.88374 -1.11352,3.17263 -1.69678,0.009 -0.82188,1.62608 -0.22977,-0.76002 -1.72329,1.33445 -0.73351,-3.7559 -1.93539,-0.1414 -0.20326,-5.23174 1.02514,-4.46289 -3.97684,-0.11489 -1.0163,-3.91497 -1.1577,-0.28279 -0.17675,2.81913 -1.62608,1.90888 -4.21544,-0.64513 0.60094,-2.96937 -1.24607,-1.34329 -0.1414,-2.14749 2.3861,-2.9782 -1.39631,-1.97958 1.87353,0.0353 -3.03123,-3.17263 -3.70287,1.53771 -0.27396,-2.66006 -0.78653,-0.32699 -1.19305,3.5438 -3.87079,3.45543 -1.19305,-0.60094 -0.9456,2.73076 -2.19168,0.38884 -0.78652,-0.85723 -1.35213,3.25217 -4.15358,-0.52141 -3.17263,2.35075 -2.65122,0.8749 -1.63492,-1.20188 -0.0177,-1.14887 1.92655,-3.5438 -0.74234,-3.86194 1.4405,0.27396 0.21209,-1.06049 0.92793,0.10605 0.33582,-2.35075 -1.45817,0.29163 2.18284,-1.07816 0.29163,-4.02102 0.86607,-0.19442 -0.73351,-6.39829 1.84702,-1.5377 -0.17675,-1.95307 3.58799,0.90141 0.77769,1.10468 2.50983,-2.21819 1.32561,1.18421 0.91909,-0.31814 0.49489,1.33445 2.02377,-0.38001 0.48606,2.36842 3.19914,1.99726 1.38747,0.41535 2.32424,-1.14002 0.30047,-2.36843 1.2284,0.38001 2.50098,-2.50982 0.73351,-7.28202 1.82934,0.27396 1.48469,-2.96054 1.25491,0.76886 -1.52004,-1.71446 2.28889,-6.08897 z">
<title
   id="title610">Weißenberg     absolute Anzahl: 48 relativ zur Einwohnerzahl: 1,55 %
</title>
</path>

   <!-- Gemeinde   -->
<path
   style="fill:#671212;fill-opacity:1;stroke:#000000;stroke-width:0.8837406;stroke-linecap:butt"
   onmouseout="style.opacity = 1;"
   onmouseover="style.opacity = 0.5;"
   id="630"
   class="st11"
   d="m 290.33969,615.36421 3.39356,0.5214 0.91026,1.12235 2.01492,-0.5214 -0.2386,1.76748 0.85722,0.46838 6.64573,1.40515 0.45955,2.48331 3.69403,0.3535 1.67911,1.91771 -0.74234,7.77692 -1.48469,1.56422 -0.15907,4.33917 -0.83955,1.06932 1.36096,0.51257 -2.58936,1.92656 -0.41536,1.82934 -8.34251,4.92244 -6.38061,-3.60567 -3.1196,-3.95032 -4.34801,-0.60978 -3.67636,0.73351 -1.07816,-1.14003 0.53024,-3.45542 -0.81304,-1.82051 1.52887,-0.85723 -0.16791,-8.65182 4.5601,-0.0795 5.11686,1.75865 z">
<title
   id="title630">Wilthen     absolute Anzahl: 53 relativ zur Einwohnerzahl: 1,09 %
</title>
</path>
   <!-- Gemeinde   -->

<path
   style="fill:#671212;fill-opacity:1;stroke:#000000;stroke-width:0.8837406;stroke-linecap:butt"
   onmouseout="style.opacity = 1;"
   onmouseover="style.opacity = 0.5;"
   id="640"
   class="st5"
   d="m 244.77137,408.26931 5.58524,1.78516 1.62609,3.28751 3.84427,-1.57305 2.81029,2.16516 5.37315,-2.67773 v 5.77966 l 2.21818,1.90888 -0.85722,2.07679 2.65122,3.53496 -0.76886,4.94011 -1.20188,1.20189 -0.53909,-1.02514 -2.29772,1.93539 -0.80421,-2.4568 -1.44933,0.30048 -1.82051,0.83071 0.009,1.48469 -5.89455,1.1577 -0.75118,1.46701 0.74234,9.4737 5.62943,13.49471 -6.51317,3.90614 -8.58112,3.41124 0.0707,0.89258 -9.79184,-0.22094 -1.44934,-0.83072 -0.45071,1.14887 -4.94894,2.56284 -5.30245,1.5112 -1.59957,-2.13865 -1.12235,0.64513 -0.29163,-5.48803 -1.44934,-4.63964 -1.60841,-1.97958 5.34663,-5.70896 1.23724,-5.58524 -0.89258,-4.43638 -5.8592,1.40515 -8.58996,4.51591 -2.43912,-3.30519 -0.98979,-4.11823 -2.04144,-2.13865 -1.97074,-5.16105 1.54654,-1.41398 h 2.98705 l 0.68048,-1.85586 -1.25491,-1.24607 1.87353,-4.45405 2.79262,-3.12845 2.58052,-0.58326 1.50236,-2.22703 h 3.49077 l 1.6526,-1.30794 h 5.34663 l -0.11489,1.41399 0.98979,0.13256 1.21073,-1.54655 6.75178,5.67362 -0.0707,1.81167 3.06658,-0.1414 2.39493,-2.96053 -0.053,-4.34801 3.41124,0.0884 -0.45955,-6.40712 z">
<title
   id="title640">Wittichenau     absolute Anzahl: 59 relativ zur Einwohnerzahl: 1,03 %
</title>
</path>

<g
   transform="matrix(0.88374062,0,0,0.88374062,-22.033456,123.84889)"
   id="g3848"><rect
     style="fill:none;stroke:none;stroke-width:0.75;stroke-linecap:round;stroke-linejoin:round"
     id="rect2088"
     class="st17"
     height="126.51"
     width="256.50699"
     y="677.96271"
     x="299.104"
     v:rectContext="foreign" /><rect
     style="fill:none;stroke:none;stroke-width:0.75;stroke-linecap:round;stroke-linejoin:round"
     id="rect2607"
     class="st17"
     height="126.51"
     width="256.50699"
     y="677.96271"
     x="299.104"
     v:rectContext="foreign" /></g>
	
	  <!-- Legende   -->
	<rect
   style="fill:#d7fcc8;fill-opacity:1;stroke-width:0.24053828"
   y="715.45032"
   x="4.3176322"
   height="13.479063"
   width="28.440281"
   id="RE_d7fcc8">
<title
   id="TRE_D7FCC8">#D7FCC8</title></rect>

<!-- Legende   -->
<rect
   style="fill:#fbf77b;fill-opacity:1;stroke-width:0.24053828"
   y="742.40845"
   x="4.3176322"
   height="13.479063"
   width="28.440281"
   id="rect4574">
<title
   id="TRE_FBF77B">#fbf77b</title></rect>

<!-- Legende   -->
<rect
   style="fill:#fdfecd;fill-opacity:1;stroke-width:0.24053828"
   y="728.92938"
   x="4.3176322"
   height="13.479063"
   width="28.440281"
   id="RE_FDFECD">
<title
   id="TRE_FDFECD">#FDFECD</title></rect>

<!-- Legende   -->
<rect
   style="fill:#ffb534;fill-opacity:1;stroke-width:0.24053828"
   y="755.88751"
   x="4.3176322"
   height="13.479063"
   width="28.440281"
   id="RE_FFB534">
<title
   id="TRE_FFB534">#FFB534</title></rect>

<!-- Legende   -->
<rect
   style="fill:#b42215;fill-opacity:1;stroke-width:0.24053828"
   y="782.84564"
   x="4.3176322"
   height="13.479063"
   width="28.440281"
   id="RE_B42215">
<title
   id="TRE_B42215">#B42215</title></rect>

<!-- Legende   -->
<rect
   style="fill:#be311d;fill-opacity:1;stroke-width:0.24053828"
   y="769.36664"
   x="4.3176322"
   height="13.479063"
   width="28.440281"
   id="RE_BE311D">
<title
   id="TRE_BE311D">#BE311D</title></rect>

<!-- Legende   -->
<rect
   style="fill:#a51412;fill-opacity:1;stroke-width:0.24053828"
   y="796.32477"
   x="4.3176322"
   height="13.479063"
   width="28.440281"
   id="RE_A51412">
<title
   id="TRE_A51412">#A51412</title></rect>

<!-- Legende   -->
<rect
   style="fill:#821212;fill-opacity:1;stroke-width:0.24053828"
   y="823.2829"
   x="4.3176322"
   height="13.479063"
   width="28.440281"
   id="RE_821212">
<title
   id="TRE_821212">#821212</title></rect>

<!-- Legende   -->
<rect
   style="fill:#961212;fill-opacity:1;stroke-width:0.24053828"
   y="809.80383"
   x="4.3176322"
   height="13.479063"
   width="28.440281"
   id="RE_961212">
<title
   id="TRE_961212">#961212</title></rect>

<!-- Legende   -->
<rect
   style="fill:#6e1212;fill-opacity:1;stroke-width:0.24648763"
   y="715.92511"
   x="156.53896"
   height="13.479063"
   width="29.864681"
   id="RE_6E1212">
<title
   id="TRE_6E1212">#6E1212</title></rect>

<!-- Legende   -->
<rect
   style="fill:#5f1212;fill-opacity:1;stroke-width:0.24648763"
   y="742.88324"
   x="156.53896"
   height="13.479063"
   width="29.864681"
   id="RE_5F1212">
<title
   id="TRE_5F1212">#5F1212</title></rect>

<!-- Legende   -->
<rect
   style="fill:#671212;fill-opacity:1;stroke-width:0.24648763"
   y="729.40424"
   x="156.53896"
   height="13.479063"
   width="29.864681"
   id="RE_671212">
<title
   id="TRE_671212">#671212</title></rect>

<!-- Legende   -->
<rect
   style="fill:#5a1212;fill-opacity:1;stroke-width:0.24648763"
   y="756.36237"
   x="156.53896"
   height="13.479063"
   width="29.864681"
   id="RE_5A1212">
<title
   id="TRE_5A1212">#5A1212</title></rect>

<!-- Legende   -->
<rect
   style="fill:#501212;fill-opacity:1;stroke-width:0.24648763"
   y="783.3205"
   x="156.53896"
   height="13.479063"
   width="29.864681"
   id="RE_501212">
<title
   id="TRE_501212">#501212</title></rect>

<!-- Legende   -->
<rect
   style="fill:#551212;fill-opacity:1;stroke-width:0.24648763"
   y="769.84143"
   x="156.53896"
   height="13.479063"
   width="29.864681"
   id="RE_551212">
<title
   id="TRE_551212">#551212</title></rect>

<!-- Legende   -->
<rect
   style="fill:#321212;fill-opacity:1;stroke-width:0.24648763"
   y="796.79956"
   x="156.53896"
   height="13.479063"
   width="29.864681"
   id="RE_321212">
<title
   id="TRE_321212">#321212</title></rect>

<rect
   style="fill:#141212;fill-opacity:1;stroke-width:0.24648763"
   y="810.27869"
   x="156.53896"
   height="13.479063"
   width="29.864681"
   id="RE_141212">
<title
   id="TRE_141212">#141212</title></rect>

<rect
   style="fill:#ed2083;fill-opacity:1;stroke-width:0.24648763"
   y="823.75769"
   x="156.53896"
   height="13.479063"
   width="29.864681"
   id="RE_ED2083">
<title
   id="TRE_ED2083">#ED2083</title></rect>

<text
   id="text5722"
   y="723.59668"
   x="40.6866"
   style="font-style:normal;font-weight:normal;font-size:26.51221848px;line-height:1.25;font-family:sans-serif;fill:#000000;fill-opacity:1;stroke:none;stroke-width:0.66280633"
   xml:space="preserve"><tspan
   style="font-style:normal;font-variant:normal;font-weight:normal;font-stretch:normal;font-size:7.06993341px;font-family:sans-serif;font-variant-ligatures:normal;font-variant-caps:normal;font-variant-numeric:normal;stroke-width:0.66280633"
   y="723.59668"
   x="40.6866"
   id="tspan5720">keine Daten	 </tspan>	 </text>

	
	 <text
   id="text5726"
   y="736.18604"
   x="40.427692"
   style="font-style:normal;font-weight:normal;font-size:26.51221848px;line-height:1.25;font-family:sans-serif;fill:#000000;fill-opacity:1;stroke:none;stroke-width:0.66280633"
   xml:space="preserve"><tspan
   style="font-style:normal;font-variant:normal;font-weight:normal;font-stretch:normal;font-size:7.06993341px;font-family:sans-serif;font-variant-ligatures:normal;font-variant-caps:normal;font-variant-numeric:normal;stroke-width:0.66280633"
   y="736.18604"
   x="40.427692"
   id="tspan5724">&gt;0,0000% &lt;=0,0100 %	 </tspan>	 </text>

	
	 <text
   id="text5730"
   y="749.94574"
   x="40.427692"
   style="font-style:normal;font-weight:normal;font-size:26.51221848px;line-height:1.25;font-family:sans-serif;fill:#000000;fill-opacity:1;stroke:none;stroke-width:0.66280633"
   xml:space="preserve"><tspan
   style="font-style:normal;font-variant:normal;font-weight:normal;font-stretch:normal;font-size:7.06993341px;font-family:sans-serif;font-variant-ligatures:normal;font-variant-caps:normal;font-variant-numeric:normal;stroke-width:0.66280633"
   y="749.94574"
   x="40.427692"
   id="tspan5728">&gt;0,0100% &lt;=0,0500 %</tspan></text>

<text
   id="text5734"
   y="763.70544"
   x="40.427692"
   style="font-style:normal;font-weight:normal;font-size:26.51221848px;line-height:1.25;font-family:sans-serif;fill:#000000;fill-opacity:1;stroke:none;stroke-width:0.66280633"
   xml:space="preserve"><tspan
     style="font-style:normal;font-variant:normal;font-weight:normal;font-stretch:normal;font-size:7.06993341px;font-family:sans-serif;font-variant-ligatures:normal;font-variant-caps:normal;font-variant-numeric:normal;stroke-width:0.66280633"
     y="763.70544"
     x="40.427692"
     id="tspan5732">&gt;0,0500% &lt;=0,1000 %</tspan></text>
<text
   id="text5738"
   y="777.46509"
   x="40.427692"
   style="font-style:normal;font-weight:normal;font-size:26.51221848px;line-height:1.25;font-family:sans-serif;fill:#000000;fill-opacity:1;stroke:none;stroke-width:0.66280633"
   xml:space="preserve"><tspan
     style="font-style:normal;font-variant:normal;font-weight:normal;font-stretch:normal;font-size:7.06993341px;font-family:sans-serif;font-variant-ligatures:normal;font-variant-caps:normal;font-variant-numeric:normal;stroke-width:0.66280633"
     y="777.46509"
     x="40.427692"
     id="tspan5736">&gt;0,1000% &lt;=0,1500 %</tspan></text>
<text
   id="text5742"
   y="791.22821"
   x="40.427692"
   style="font-style:normal;font-weight:normal;font-size:26.51221848px;line-height:1.25;font-family:sans-serif;fill:#000000;fill-opacity:1;stroke:none;stroke-width:0.66280633"
   xml:space="preserve"><tspan
     style="font-style:normal;font-variant:normal;font-weight:normal;font-stretch:normal;font-size:7.06993341px;font-family:sans-serif;font-variant-ligatures:normal;font-variant-caps:normal;font-variant-numeric:normal;stroke-width:0.66280633"
     y="791.22821"
     x="40.427692"
     id="tspan5740">&gt;0,1500% &lt;=0,2000 %</tspan></text>
<text
   id="text5746"
   y="804.99127"
   x="40.427692"
   style="font-style:normal;font-weight:normal;font-size:26.51221848px;line-height:1.25;font-family:sans-serif;fill:#000000;fill-opacity:1;stroke:none;stroke-width:0.66280633"
   xml:space="preserve"><tspan
     style="font-style:normal;font-variant:normal;font-weight:normal;font-stretch:normal;font-size:7.06993341px;font-family:sans-serif;font-variant-ligatures:normal;font-variant-caps:normal;font-variant-numeric:normal;stroke-width:0.66280633"
     y="804.99127"
     x="40.427692"
     id="tspan5744">&gt;0,2000% &lt;=0,2500 %</tspan></text>
<text
   id="text5750"
   y="818.75439"
   x="40.427692"
   style="font-style:normal;font-weight:normal;font-size:26.51221848px;line-height:1.25;font-family:sans-serif;fill:#000000;fill-opacity:1;stroke:none;stroke-width:0.66280633"
   xml:space="preserve"><tspan
     style="font-style:normal;font-variant:normal;font-weight:normal;font-stretch:normal;font-size:7.06993341px;font-family:sans-serif;font-variant-ligatures:normal;font-variant-caps:normal;font-variant-numeric:normal;stroke-width:0.66280633"
     y="818.75439"
     x="40.427692"
     id="tspan5748">&gt;0,2500% &lt;=0,5000 %</tspan></text>
<text
   id="text5754"
   y="832.51398"
   x="40.427692"
   style="font-style:normal;font-weight:normal;font-size:26.51221848px;line-height:1.25;font-family:sans-serif;fill:#000000;fill-opacity:1;stroke:none;stroke-width:0.66280633"
   xml:space="preserve"><tspan
     style="font-style:normal;font-variant:normal;font-weight:normal;font-stretch:normal;font-size:7.06993341px;font-family:sans-serif;font-variant-ligatures:normal;font-variant-caps:normal;font-variant-numeric:normal;stroke-width:0.66280633"
     y="832.51398"
     x="40.427692"
     id="tspan5752">&gt;0,5000% &lt;=0,7500 %</tspan></text>
<text
   id="text5762"
   y="724.07709"
   x="190.6302"
   style="font-style:normal;font-weight:normal;font-size:26.51221848px;line-height:1.25;font-family:sans-serif;fill:#000000;fill-opacity:1;stroke:none;stroke-width:0.66280633"
   xml:space="preserve"><tspan
     style="font-style:normal;font-variant:normal;font-weight:normal;font-stretch:normal;font-size:7.06993341px;font-family:sans-serif;font-variant-ligatures:normal;font-variant-caps:normal;font-variant-numeric:normal;stroke-width:0.66280633"
     y="724.07709"
     x="190.6302"
     id="tspan5760">&gt;0,7500% &lt;=1,0000 %</tspan></text>
<text
   id="text5766"
   y="737.67987"
   x="190.6302"
   style="font-style:normal;font-weight:normal;font-size:26.51221848px;line-height:1.25;font-family:sans-serif;fill:#000000;fill-opacity:1;stroke:none;stroke-width:0.66280633"
   xml:space="preserve"><tspan
     style="font-style:normal;font-variant:normal;font-weight:normal;font-stretch:normal;font-size:7.06993341px;font-family:sans-serif;font-variant-ligatures:normal;font-variant-caps:normal;font-variant-numeric:normal;stroke-width:0.66280633"
     y="737.67987"
     x="190.6302"
     id="tspan5764">&gt;1,0000% &lt;=1,2500 %</tspan></text>
<text
   id="text5770"
   y="751.28259"
   x="190.6302"
   style="font-style:normal;font-weight:normal;font-size:26.51221848px;line-height:1.25;font-family:sans-serif;fill:#000000;fill-opacity:1;stroke:none;stroke-width:0.66280633"
   xml:space="preserve"><tspan
     style="font-style:normal;font-variant:normal;font-weight:normal;font-stretch:normal;font-size:7.06993341px;font-family:sans-serif;font-variant-ligatures:normal;font-variant-caps:normal;font-variant-numeric:normal;stroke-width:0.66280633"
     y="751.28259"
     x="190.6302"
     id="tspan5768">&gt;1,2500% &lt;=1,5000 %</tspan></text>
<text
   id="text5774"
   y="764.88184"
   x="190.6302"
   style="font-style:normal;font-weight:normal;font-size:26.51221848px;line-height:1.25;font-family:sans-serif;fill:#000000;fill-opacity:1;stroke:none;stroke-width:0.66280633"
   xml:space="preserve"><tspan
     style="font-style:normal;font-variant:normal;font-weight:normal;font-stretch:normal;font-size:7.06993341px;font-family:sans-serif;font-variant-ligatures:normal;font-variant-caps:normal;font-variant-numeric:normal;stroke-width:0.66280633"
     y="764.88184"
     x="190.6302"
     id="tspan5772">&gt;1,5000% &lt;=1,7500 %</tspan></text>
<text
   id="text5778"
   y="778.48468"
   x="190.6302"
   style="font-style:normal;font-weight:normal;font-size:26.51221848px;line-height:1.25;font-family:sans-serif;fill:#000000;fill-opacity:1;stroke:none;stroke-width:0.66280633"
   xml:space="preserve"><tspan
     style="font-style:normal;font-variant:normal;font-weight:normal;font-stretch:normal;font-size:7.06993341px;font-family:sans-serif;font-variant-ligatures:normal;font-variant-caps:normal;font-variant-numeric:normal;stroke-width:0.66280633"
     y="778.48468"
     x="190.6302"
     id="tspan5776">&gt;1,7500% &lt;=2,0000 %</tspan></text>
<text
   id="text5782"
   y="792.0874"
   x="190.6302"
   style="font-style:normal;font-weight:normal;font-size:26.51221848px;line-height:1.25;font-family:sans-serif;fill:#000000;fill-opacity:1;stroke:none;stroke-width:0.66280633"
   xml:space="preserve"><tspan
     style="font-style:normal;font-variant:normal;font-weight:normal;font-stretch:normal;font-size:7.06993341px;font-family:sans-serif;font-variant-ligatures:normal;font-variant-caps:normal;font-variant-numeric:normal;stroke-width:0.66280633"
     y="792.0874"
     x="190.6302"
     id="tspan5780">&gt;2,0000% &lt;=4,0000 %</tspan></text>
<text
   id="text5786"
   y="805.7005"
   x="190.6302"
   style="font-style:normal;font-weight:normal;font-size:26.51221848px;line-height:1.25;font-family:sans-serif;fill:#000000;fill-opacity:1;stroke:none;stroke-width:0.66280633"
   xml:space="preserve"><tspan
     style="font-style:normal;font-variant:normal;font-weight:normal;font-stretch:normal;font-size:7.06993341px;font-family:sans-serif;font-variant-ligatures:normal;font-variant-caps:normal;font-variant-numeric:normal;stroke-width:0.66280633"
     y="805.7005"
     x="190.6302"
     id="tspan5784">&gt;4,0000% &lt;=8,0000 %</tspan></text>
<text
   id="text5790"
   y="819.3136"
   x="190.6302"
   style="font-style:normal;font-weight:normal;font-size:26.51221848px;line-height:1.25;font-family:sans-serif;fill:#000000;fill-opacity:1;stroke:none;stroke-width:0.66280633"
   xml:space="preserve"><tspan
     style="font-style:normal;font-variant:normal;font-weight:normal;font-stretch:normal;font-size:7.06993341px;font-family:sans-serif;font-variant-ligatures:normal;font-variant-caps:normal;font-variant-numeric:normal;stroke-width:0.66280633"
     y="819.3136"
     x="190.6302"
     id="tspan5788">&gt;8,0000% </tspan></text>

</g>
</svg>