<?xml version="1.0" encoding="UTF-8" standalone="no"?>
<svg
   xmlns:v="http://schemas.microsoft.com/visio/2003/SVGExtensions/"
   xmlns:dc="http://purl.org/dc/elements/1.1/"
   xmlns:cc="http://creativecommons.org/ns#"
   xmlns:rdf="http://www.w3.org/1999/02/22-rdf-syntax-ns#"
   xmlns:svg="http://www.w3.org/2000/svg"
   xmlns="http://www.w3.org/2000/svg"
   style="font-size:12px;overflow:visible;color-interpolation-filters:sRGB;fill:none;fill-rule:evenodd;stroke-linecap:square;stroke-miterlimit:3"
   id="svg2612"
   version="1.1"
   class="st18"
   xml:space="preserve"
   viewBox="0 0 450.00011 525.00077"
   height="700"
   width="600"><metadata
   id="metadata2618"><rdf:RDF><cc:Work
       rdf:about=""><dc:format>image/svg+xml</dc:format><dc:type
         rdf:resource="http://purl.org/dc/dcmitype/StillImage" /><dc:title></dc:title></cc:Work></rdf:RDF></metadata><defs
   id="defs2616">
	</defs>
	<v:documentProperties
   v:viewMarkup="false"
   v:metric="true"
   v:langID="1031">
		<v:userDefs>
			<v:ud
   v:val="VT0(1):26"
   v:nameU="msvNoAutoConnect" />
			<v:ud
   v:val="VT4(Data Graphic.28)"
   v:nameU="msvLastAppliedDataGraphic" />
			<v:ud
   v:val="VT0(1):5"
   v:nameU="msvNoApplyDataGraphicAfterLink" />
		</v:userDefs>
	</v:documentProperties>

	<style
   id="style1315"
   type="text/css">
	<![CDATA[
		.st1 {fill:#5a1212;stroke:#000000;stroke-linecap:butt;stroke-width:1}
		.st2 {stroke:none;stroke-linecap:round;stroke-linejoin:round;stroke-width:0.75}
		
		.st4 {fill:#821212;stroke:#000000;stroke-linecap:butt;stroke-width:1}
		.st5 {fill:#6e1212;stroke:#000000;stroke-linecap:butt;stroke-width:1}
		.st6 {fill:#551212;stroke:#000000;stroke-linecap:butt;stroke-width:1}
		.st7 {fill:#fdfecd;stroke:#000000;stroke-linecap:butt;stroke-width:1}
	
		.st9 {fill:#321212;stroke:#000000;stroke-linecap:butt;stroke-width:1}
		.st10 {fill:#5f1212;stroke:#000000;stroke-linecap:butt;stroke-width:1}
		.st11 {fill:#961212;stroke:#000000;stroke-linecap:butt;stroke-width:1}
		.st12 {fill:#a51412;stroke:#000000;stroke-linecap:butt;stroke-width:1}
		.st13 {fill:#671212;stroke:#000000;stroke-linecap:butt;stroke-width:1}
		.st14 {fill:#961212;stroke:#000000;stroke-linecap:round;stroke-linejoin:round;stroke-width:1}
		.st15 {fill:#501212;stroke:#000000;stroke-linecap:butt;stroke-width:1}
		.st16 {fill:#b42215;stroke:#000000;stroke-linecap:butt;stroke-width:1}
		.st17 {fill:none;stroke:none;stroke-linecap:round;stroke-linejoin:round;stroke-width:0.75}
		.st18 {fill:none;fill-rule:evenodd;font-size:12px;overflow:visible;stroke-linecap:square;stroke-miterlimit:3}
	]]>
	</style>

	<g
   transform="translate(0,-316.88915)"
   id="g2610"
   v:groupContext="foregroundPage"
   v:index="1"
   v:mID="0">
		<v:userDefs>
			<v:ud
   v:val="VT0(0.0625):26"
   v:nameU="msvDGCalloutGap" />
		</v:userDefs>
		<title
   id="title1317">Zeichenblatt-1</title>
		<v:pageProperties
   v:shadowOffsetY="-8.50394"
   v:shadowOffsetX="8.50394"
   v:drawingUnits="24"
   v:pageScale="0.0393701"
   v:drawingScale="0.0393701" />
		<v:layer
   v:index="0"
   v:name="Datengrafik" />
		<v:layer
   v:index="1"
   v:name="Vereinfacht" />
<!-- Metadaten
Ausgabe: H:\Corona-Stab AS21\Landkreis Corona Karte\Landkreiskarte_svg.xlsx_AS21_201207145801317.SVG
User:    AS21
-->
<!-- Gemeinde   -->
<path
   style="fill:#961212;fill-opacity:1;stroke:#000000;stroke-width:0.886172;stroke-linecap:butt"
   onmouseout="style.opacity = 1;"
   onmouseover="style.opacity = 0.5;"
   id="010"
   class="st4"
   d="m 104.06398,624.09847 0.72666,-3.52697 0.86845,0.0266 0.23927,-2.29519 -2.30405,-3.19022 1.65714,-0.61146 1.24064,1.33812 1.65714,-4.51947 2.25088,-0.29244 10.76699,6.46019 6.46019,-1.32039 2.08251,0.97479 1.86096,-1.27609 0.81528,2.31291 4.61695,2.56103 0.29244,1.63056 -1.97616,2.79144 2.23315,2.42811 -1.71031,2.07365 0.76211,0.73552 2.51672,-1.59511 -0.65576,1.666 0.73552,3.77509 1.15202,0.15065 0.80642,1.79007 3.15477,0.91276 4.07639,3.73078 2.49901,0.13293 -3.31429,8.25912 1.94958,1.83438 -3.37631,2.24201 -1.94958,-1.0634 -1.34698,0.56715 -2.58762,-1.71032 -2.54332,1.35585 -2.85347,-2.11795 -2.95982,0.66463 -0.82414,3.08387 -4.59923,-1.55966 0.24813,-1.20519 -3.01299,-0.40764 -1.73689,0.86845 0.12406,2.2686 -2.39266,2.01161 -4.9537,0.46967 -1.59511,-1.89641 -1.63942,-0.0975 -0.61146,-1.666 2.17998,1.666 -3.2168,-3.65103 -0.54943,0.3722 0.15065,-3.39404 -1.63056,0.14178 -0.73552,-1.53307 -1.98502,-0.70894 1.28495,-4.20932 -2.81803,-6.74377 -2.1534,0.27472 -3.420624,-5.34362 3.314284,-2.73827 0.92162,-2.39267 z">
<title
   id="title010">Arnsdorf     absolute Anzahl: 14 relativ zur Einwohnerzahl: 0,29 %
</title>
</path>

<!-- Gemeinde   -->
<path
   style="fill:#821212;fill-opacity:1;stroke:#000000;stroke-width:0.886172;stroke-linecap:butt"
   onmouseout="style.opacity = 1;"
   onmouseover="style.opacity = 0.5;"
   id="020"
   class="st7"
   d="m 337.3656,547.80171 1.73689,0.14179 -0.9482,2.22429 0.80642,0.32789 -0.27472,1.14316 2.5699,1.42674 -0.67349,2.52559 4.82078,0.92162 -0.17724,0.92161 2.10023,1.75462 -3.33201,3.92575 0.96593,3.29656 1.84324,1.02796 0.23926,4.00549 -2.10909,-0.36333 -0.35446,1.23178 -1.11658,-0.0532 -0.4165,1.98503 -4.08525,-0.31902 1.59511,1.46218 -0.55829,2.11795 -2.89779,0.33675 3.16364,-0.23041 3.02184,2.33949 0.31903,1.58625 -3.13705,0.39878 3.08388,2.31291 -3.87258,1.94958 -3.332,3.42948 -5.33476,0.0355 -0.81528,1.37357 -1.34698,-0.46081 -0.95706,1.79893 -2.5699,-0.4165 0.68235,2.8003 -0.92162,-0.1152 -0.14179,2.64965 -4.18273,0.7178 0.24813,3.50924 -2.37494,0.91276 -2.6851,2.94209 -0.84186,0.48739 -3.10161,-5.20183 0.0266,-2.67624 -0.96593,-1.07226 1.59511,-0.36333 0.75325,-5.82215 1.53307,-1.98503 -1.33812,-1.02796 -2.52559,1.26723 -0.43422,-1.71031 -2.57876,0.48739 -6.07028,-2.3838 0.23927,-2.41039 -3.82827,-0.23041 -2.17998,0.70008 1.39129,1.16975 -1.67486,1.56852 -5.8576,1.17861 1.95844,-4.45744 1.57739,-10.05806 -5.18411,-1.35584 -0.36333,1.80779 -1.39129,0.0443 -1.05455,2.12681 -1.85209,-0.4165 -1.10772,1.50649 -3.42062,0.0354 -0.39878,-1.15202 -1.40901,0.0266 -1.19634,-3.95232 2.23316,-5.65378 -5.15752,-2.10909 3.36745,-9.38456 3.80168,-2.31291 -0.70894,-0.63805 1.91413,0.1861 -0.77097,-0.29244 1.02796,-1.38242 -1.86096,-1.93186 1.08999,-1.52422 1.74576,1.2052 2.06478,-1.57739 1.55966,1.3204 2.51673,-2.29519 2.12681,1.83438 0.63805,-0.93934 0.74438,2.06478 -1.12544,0.54942 3.25226,1.95844 0.54942,-1.31153 -0.99251,-0.70894 1.18747,-2.10909 2.64079,-1.47104 2.74714,1.94071 -0.21269,0.7178 0.86845,-0.54056 -0.46967,1.27609 0.9039,-0.062 0.0266,-1.16974 1.51536,0.2304 -0.23927,1.47991 4.08525,2.10909 1.54194,-2.25974 6.69946,1.45332 2.25088,-0.67349 1.44446,-3.76623 1.4356,1.59511 -0.833,0.0443 -0.0177,1.44446 -2.99526,1.34698 3.86371,1.64828 1.44446,-5.04232 4.08526,-0.31016 1.69258,-3.80168 1.46219,-0.72666 0.1152,-2.18884 z">
<title
   id="title020">Bautzen     absolute Anzahl: 227 relativ zur Einwohnerzahl: 0,59 %
</title>
</path>
<!-- Gemeinde   -->

 <path
   style="fill:#821212;fill-opacity:1;stroke:#000000;stroke-width:0.886172;stroke-linecap:butt"
   onmouseout="style.opacity = 1;"
   onmouseover="style.opacity = 0.5;"
   id="030"
   class="st4"
   d="m 133.04003,439.55137 -1.74576,-7.35522 0.63805,-1.58625 3.65989,-1.90527 0.91275,-2.28633 -1.9673,-1.1786 0.15951,-1.8078 4.14729,-1.666 6.46905,1.4356 -0.90389,-3.91688 -3.74851,0.009 -0.62032,-2.1534 2.18884,-2.27746 2.84462,-0.0886 4.28021,-5.96393 3.44721,-1.41788 0.59373,5.8576 1.02796,1.59511 5.12208,2.5699 2.56989,3.16363 4.3068,2.4547 0.92162,-4.422 -2.54331,1.63056 -1.4356,-0.29244 -0.51398,-3.29656 1.40015,-1.69259 11.24552,7.79831 2.1534,-1.01023 1.19633,3.332 2.51673,1.77235 3.53583,0.61146 9.18074,-0.77983 2.00275,0.62918 4.98028,-5.23728 6.88556,-1.74576 1.08113,1.16975 -1.88755,4.46631 1.26723,1.2495 -0.68235,1.86096 h -2.99526 l -1.5508,1.41788 1.97616,5.16638 -7.03621,-0.14179 1.16975,9.55294 -2.64079,4.10297 -5.13094,-7.71856 -0.85072,-2.8003 -3.2877,3.08388 -3.87257,-0.0709 -1.75462,-6.77921 -3.20795,0.79755 0.49626,2.08251 -4.60809,-0.23927 -0.42537,2.25088 2.6851,3.09274 2.39267,-0.009 -0.59374,9.10098 -0.62918,1.8521 -1.68373,-0.17723 -1.16974,1.72803 -3.1016,0.86845 0.80641,5.57402 -2.1534,-0.40763 -1.03682,1.39129 -3.69533,0.29243 -1.70145,2.04706 -1.14317,0.0532 -8.25026,-4.0055 -1.7369,2.48128 -5.0689,0.17724 -4.422,-2.90665 -8.22367,1.48877 -3.32315,-3.29656 -1.79007,-2.94209 3.65989,-7.04507 3.93461,-3.92574 z">
<title
   id="title030">Bernsdorf     absolute Anzahl: 43 relativ zur Einwohnerzahl: 0,67 %
</title>
</path>
   <!-- Gemeinde   -->

<path
   style="fill:#6e1212;fill-opacity:1;stroke:#000000;stroke-width:0.886172;stroke-linecap:butt"
   onmouseout="style.opacity = 1;"
   onmouseover="style.opacity = 0.5;"
   id="040"
   class="st4"
   d="m 195.88381,601.90252 -0.85073,-5.83988 4.37769,-5.91077 5.00687,-0.74438 4.92712,1.49763 3.13705,-0.1861 5.68922,-7.60335 2.19771,-1.4356 3.42062,5.68036 0.833,-0.68235 -0.38105,3.82826 1.42674,5.58289 3.61558,-0.24813 2.56103,1.04568 -5.55629,6.82353 1.21405,3.80167 -3.64216,1.78121 -0.85959,2.64079 2.71168,1.18747 2.00275,2.48128 -0.77097,1.24065 0.72666,0.77096 -5.22841,9.05668 -2.10023,-1.32039 -2.90664,0.10634 -2.12681,-1.94958 -4.39542,0.6469 -2.41925,2.23316 1.14316,0.25699 -1.20519,1.03682 1.19633,6.28296 -3.91688,-0.27472 -0.9482,1.24065 4.16501,1.2495 -0.28358,0.77097 -2.00275,-0.65577 -0.62918,0.74439 2.63193,0.9482 -1.84324,3.05729 1.41788,0.80642 -0.38992,0.92162 2.0382,0.62032 -0.93934,4.51061 -2.23316,-0.60259 -1.48877,1.01023 3.42063,2.5699 -5.45882,0.0709 -0.29244,1.81665 2.49015,0.56715 -4.12957,0.76211 -8.21481,-5.4411 0.0266,-3.14591 -2.3129,-2.61421 1.11657,-1.90527 -0.87731,0.50512 -2.59648,-3.8194 -1.57739,-1.12544 0.009,-5.77784 -2.79144,-1.40015 -0.81528,-2.07365 3.72193,-1.77234 -0.82414,-0.9482 -0.15951,-7.62108 1.31153,-0.93934 -0.80642,-0.73553 0.57601,-1.17861 -1.8964,-3.48265 0.68235,-2.21543 3.22567,-1.28495 -0.53171,-2.80031 z">
<title
   id="title4635">Bischofswerda     absolute Anzahl: 104 relativ zur Einwohnerzahl: 0,95 %
</title>
</path>

<!-- Gemeinde   -->
<path
   style="fill:#671212;fill-opacity:1;stroke:#000000;stroke-width:0.886172;stroke-linecap:butt"
   onmouseout="style.opacity = 1;"
   onmouseover="style.opacity = 0.5;"
   id="060"
   class="st5"
   d="m 217.84049,558.87886 -2.80917,0.6026 -0.28357,-4.67899 3.97891,0.7178 0.24813,-1.90527 0.31016,1.40015 0.85959,-1.1786 -0.10634,-1.94072 2.79144,-2.72941 1.4356,-0.23041 0.0886,1.14317 0.1861,-1.19634 6.42475,-1.28495 -0.33675,3.57128 2.76486,0.99251 -0.062,0.76211 1.68372,-0.42536 0.85959,1.93185 2.09136,0.65577 -0.81527,1.33812 4.05866,-3.46493 3.88144,3.11046 3.08388,0.062 1.38242,1.42674 -0.78869,-0.44309 -0.52284,2.36608 -0.82414,-0.12406 -0.0443,2.25974 -3.29656,-0.51398 -1.82551,4.54606 0.12406,1.65714 2.07364,0.13293 -0.3456,1.10771 3.49151,-0.17723 -0.47853,1.69259 1.53308,-0.99252 0.0177,1.46219 -0.73552,1.8521 -5.16638,3.11932 -0.009,2.28633 -2.00275,0.28357 -0.26585,1.29381 -4.20046,-1.24064 -3.31428,1.38243 -5.0246,-1.4356 -5.13093,1.38243 -2.44584,2.22429 -2.19771,1.4356 -5.69808,7.60335 -3.12819,0.1861 -4.93598,-1.49763 -5.00687,0.74438 -2.25088,-0.45194 0.28358,-2.44584 -10.95309,-9.34025 6.21207,-3.63331 0.19496,-3.57127 3.37631,-1.63942 3.56241,4.33338 2.72941,-0.16837 4.70558,-2.01161 2.49014,-3.94346 2.86234,0.49625 5.23727,-2.22429 1.47991,-2.73827 -1.09885,-0.9039 0.62918,-1.32039 z">
<title
   id="title060">Burkau     absolute Anzahl: 29 relativ zur Einwohnerzahl: 1,11 %
</title>
</path>

<!-- Gemeinde   -->
<path
   style="fill:#5a1212;fill-opacity:1;stroke:#000000;stroke-width:0.886172;stroke-linecap:butt"
   onmouseout="style.opacity = 1;"
   onmouseover="style.opacity = 0.5;"
   id="080"
   class="st9"
   d="m 243.6467,512.12088 -0.0443,1.87869 2.58763,0.28357 -0.50512,0.79756 1.25836,2.30405 0.15951,6.52222 -2.22429,1.32926 0.13293,4.09412 -1.11658,0.93048 1.75462,3.56241 5.49427,1.40015 0.12406,6.01711 1.55967,0.28357 0.49625,1.16089 3.65103,0.15065 -0.59373,0.85072 1.81665,2.90665 -2.12681,-0.49626 -0.39878,1.94958 -5.73354,-1.29381 -0.38105,2.14453 -2.29518,-0.43422 0.31902,-1.41788 -5.91963,-0.98365 -0.0709,-1.59511 -1.40015,-0.0975 -0.66463,1.46219 -2.80916,-0.32789 -0.0886,-2.33063 1.16089,-0.98365 -1.88755,0.75325 -1.05454,-1.86983 -4.25363,-0.72666 -0.74438,-2.75599 -0.96593,0.16837 1.23178,-1.35584 -1.09886,-1.72804 -4.27135,-0.15065 3.73079,-3.50038 -0.43423,-2.17112 2.30405,-0.70007 -0.55829,-0.38992 1.55967,-1.05454 -0.0177,-1.61284 1.49763,0.0443 0.54943,-1.47991 0.26585,1.35585 1.09885,-1.32926 2.43698,0.92162 -0.0354,-1.75462 -1.20519,-0.63805 0.21268,-2.83575 1.17861,0.0443 0.0177,-3.30542 0.70008,-3.06615 1.88754,0.5317 -1.61283,-1.14316 1.80779,0.5317 0.29244,-1.4356 z">
<title
   id="title080">Crostwitz     absolute Anzahl: 17 relativ zur Einwohnerzahl: 1,66 %
</title>
</path>

<!-- Gemeinde   -->
<path
   style="fill:#821212;fill-opacity:1;stroke:#000000;stroke-width:0.886172;stroke-linecap:butt"
   onmouseout="style.opacity = 1;"
   onmouseover="style.opacity = 0.5;"
   id="090"
   class="st4"
   d="m 341.5696,625.70775 -1.11658,-4.20931 3.42948,-0.35447 1.24951,-1.34698 -0.3013,-1.14317 4.78533,1.54194 3.19908,-1.63941 -0.0886,-1.00138 4.70557,1.55966 2.92437,-0.0797 4.41314,-0.88617 2.56104,2.499 7.11596,0.99251 3.332,-0.62918 4.33339,1.31154 3.00412,1.64828 0.0797,2.28632 1.88755,2.4547 -7.34637,3.30542 -0.78869,1.57738 1.63056,1.44446 1.33812,-0.19495 0.23926,2.41925 -6.61084,9.19846 -2.77372,0.40764 -3.31428,-2.499 -2.756,-0.0266 -16.35873,2.61421 -5.88418,1.4356 0.25699,-7.94897 -4.16501,-1.01023 -2.93323,-4.422 0.1152,-1.08113 2.64079,-1.42674 0.53171,-5.71581 z">
<title
   id="title090">Cunewalde     absolute Anzahl: 29 relativ zur Einwohnerzahl: 0,63 %
</title>
</path>

<!-- Gemeinde   -->
<path
   style="fill:#821212;fill-opacity:1;stroke:#000000;stroke-width:0.886172;stroke-linecap:butt"
   onmouseout="style.opacity = 1;"
   onmouseover="style.opacity = 0.5;"
   id="100"
   class="st4"
   d="m 227.94994,578.07158 5.03346,1.4356 3.30542,-1.38243 4.20931,1.2495 -0.47853,2.5699 2.28633,1.0191 1.09885,-2.51673 5.75125,0.21268 0.93935,3.11046 1.07227,0.55829 -1.47105,2.86234 3.13705,2.30404 2.48128,-0.74438 1.82551,3.94347 0.46968,2.94209 -1.3204,2.92436 0.85072,2.25974 -0.33674,0.85959 -2.1534,-1.59511 -2.66738,4.20046 -0.43422,6.25637 -0.80642,0.78869 -6.41588,-1.74576 -5.18411,1.0191 -2.67624,-2.05592 -5.28158,0.42537 -4.24477,-2.8712 -0.6469,-2.39267 5.54743,-6.82352 -2.55217,-1.04568 -3.62444,0.24812 -1.41788,-5.58288 0.37219,-3.82826 -0.833,0.68235 -3.41176,-5.68036 2.44583,-2.22429 z">
<title
   id="title100">Demitz-Thumitz     absolute Anzahl: 14 relativ zur Einwohnerzahl: 0,53 %
</title>
</path>

<!-- Gemeinde   -->
<path
   style="fill:#961212;fill-opacity:1;stroke:#000000;stroke-width:0.886172;stroke-linecap:butt"
   onmouseout="style.opacity = 1;"
   onmouseover="style.opacity = 0.5;"
   id="110"
   class="st4"
   d="m 276.9588,596.2771 -0.32789,-2.24202 2.39267,0.76211 2.10022,-5.09549 6.06142,1.52421 0.85073,-3.19021 2.04705,-0.68236 5.86646,-1.17861 1.67487,-1.56852 -1.39129,-1.16975 2.17998,-0.70007 3.8194,0.22154 -0.23927,2.41925 6.07028,2.3838 2.57876,-0.49625 0.44309,1.71031 2.52559,-1.25837 1.33812,1.02796 -1.53308,1.98503 -0.76211,5.81329 -1.58624,0.36333 0.96592,1.08113 -1.70145,-0.32789 0.50512,-1.24064 -3.56241,-0.63804 -1.09885,0.46967 0.4165,1.28495 -1.39129,0.37219 -0.7887,2.63193 -1.14316,-1.1343 -1.41787,2.80917 -1.19634,-0.1152 -3.07501,7.40839 -0.0532,5.76898 -3.4029,-0.52284 -1.64828,11.81267 -5.13094,-1.76348 -14.26737,-0.33674 -9.7922,-2.99526 -9.64155,2.73827 -0.26585,-2.30405 -0.82414,0.15951 -0.23927,-1.05454 -0.61146,-6.00825 -1.46218,-2.30405 0.50512,-1.3647 0.79755,-0.79756 0.44309,-6.25637 2.66738,-4.20046 2.14453,1.60397 0.34561,-0.85958 -0.85073,-2.2686 1.3204,-2.92437 -0.46967,-2.94209 0.20382,-2.63193 4.58151,2.36608 3.81054,0.73552 0.78869,-0.65577 1.05455,0.62918 -0.70008,4.64355 5.3702,0.2304 1.58625,0.99251 z">
<title
   id="title1008">Doberschau-Gaußig     absolute Anzahl: 19 relativ zur Einwohnerzahl: 0,46 %
</title>
</path>


<!-- Gemeinde   -->
<path
   style="fill:#5f1212;fill-opacity:1;stroke:#000000;stroke-width:0.886172;stroke-linecap:butt"
   onmouseout="style.opacity = 1;"
   onmouseover="style.opacity = 0.5;"
   id="120"
   class="st4"
   d="m 196.95341,320.74672 1.70145,1.75462 4.67013,0.7887 3.4029,-0.58488 3.92574,1.48877 5.29045,-0.68235 5.04232,1.23178 2.81803,-0.96593 3.7485,0.31016 3.02185,0.98365 3.66875,3.80168 4.97143,0.69122 0.6469,-0.84187 1.36471,1.41788 -1.32926,0.55829 -0.0177,1.01023 2.04705,0.73552 2.62307,-0.96592 0.17724,-1.89641 8.73765,-0.16837 5.78671,2.71168 2.89778,2.4547 3.52696,0.0975 9.22505,3.97891 1.78121,8.38319 0.17723,2.74713 -1.01909,-0.062 -0.69122,1.84324 3.38518,1.24064 2.89778,3.26997 -1.53308,1.22292 0.0266,2.88006 3.50038,3.13705 3.2168,0.82414 -0.88617,3.83712 -4.35997,7.39954 -7.41725,-4.68785 0.062,-2.34836 -7.94897,-3.97005 -0.1152,8.87945 -1.47991,1.30267 1.55081,0.37219 0.0975,3.38518 -5.36134,0.1152 -0.0354,-1.32926 -4.47517,-1.37356 -1.59511,2.9155 0.95706,0.0177 -3.9346,2.6408 -3.4029,-0.44309 -4.71443,6.49564 -4.48403,2.47242 -3.30543,-0.65577 -0.2304,-1.50649 -7.07165,-5.63605 -0.51398,2.46356 -2.92437,-1.56853 -1.83438,2.02934 -5.32589,-0.0354 -1.48877,5.47654 -2.40153,-0.32788 -0.0532,1.04568 -1.94957,0.3013 -1.65715,-1.49763 -1.15202,0.33674 -0.33675,1.40902 -1.83437,-1.9673 -2.2686,0.66462 0.97479,-2.29518 -3.78396,-3.30542 2.10023,-1.923 2.0825,-5.44109 0.79756,0.44308 0.87731,-1.71031 -0.31016,-2.41925 0.92162,-0.44308 0.88617,-3.31429 2.92437,0.7887 0.23926,-1.88755 0.57602,0.73552 1.02796,-0.73552 -2.96868,-1.22292 1.07227,-2.88006 -1.21406,0.52285 0.87731,-0.94821 -1.08999,-0.9482 -0.62918,0.78869 -2.49901,-1.75462 -3.73964,-0.27471 -3.7042,-1.63056 -1.63056,0.49626 0.77097,1.12543 -0.97479,1.24951 -5.62719,-0.62032 0.14179,3.72192 -3.29656,-1.14316 -4.59923,4.59037 -4.31566,-0.37219 -2.67624,-1.60398 -1.30267,8.60474 -4.18274,-0.28358 -0.93934,-0.97479 -1.47104,0.72666 -1.15203,-1.37356 -2.32177,-0.0709 -1.44446,-2.03819 0.13293,-2.23316 6.63743,-3.43834 0.50511,-1.32926 -6.29182,-9.10985 5.79557,-0.98365 3.76623,-3.39404 2.50787,-11.25439 3.15477,-4.84736 4.09411,-0.9482 7.6388,1.60397 1.33812,-1.70145 1.79007,0.46967 -3.98777,-3.72192 -1.35585,-3.91688 0.50512,-2.91551 2.5699,-3.73964 1.29381,-0.4165 z">
<title
   id="title120">Elsterheide     absolute Anzahl: 51 relativ zur Einwohnerzahl: 1,47 %
</title>
</path>
   <!-- Gemeinde   -->

 <path
   style="fill:#821212;fill-opacity:1;stroke:#000000;stroke-width:0.886172;stroke-linecap:butt"
   onmouseout="style.opacity = 1;"
   onmouseover="style.opacity = 0.5;"
   id="130"
   class="st10"
   d="m 202.71265,532.62956 -1.01024,4.47517 1.94958,1.16089 -0.20382,3.04843 3.18136,2.19771 -0.40764,1.27608 -1.94958,-0.87731 -1.11658,1.57739 0.82414,1.21406 -0.92162,5.40564 1.81666,0.15065 0.85072,4.20932 -1.7812,1.22292 0.29243,1.87868 -2.04706,0.43423 -1.65714,4.17387 -2.41925,0.65576 -1.84323,4.23591 -3.37632,1.63941 -0.19496,3.57128 -6.2032,3.6333 -4.15615,-2.76485 -1.51535,2.50786 -0.88617,-0.57601 -0.81528,1.4356 -4.18273,-1.99389 0.833,-0.49625 -0.49626,-3.34087 3.01299,-2.13568 -3.19022,-7.19571 -0.99252,-1.22292 -1.86096,-3.77509 0.94821,-13.70908 -2.65852,-2.66738 -0.0532,-2.78258 4.43086,0.0266 1.83438,-3.97891 0.43422,-4.40427 1.98503,-1.31154 5.27272,-2.11795 1.75462,1.40901 -0.9039,-1.62169 0.83301,-0.42536 4.04094,2.53445 1.76348,-0.0443 0.15065,-1.38243 1.72804,1.36471 2.13567,-0.82414 0.35447,-3.09274 5.4411,4.17387 -0.6026,2.72941 z">
<title
   id="title130">Elstra     absolute Anzahl: 14 relativ zur Einwohnerzahl: 0,51 %
</title>
</path>

    <!-- Gemeinde   -->
<path
   style="fill:#821212;fill-opacity:1;stroke:#000000;stroke-width:0.886172;stroke-linecap:butt"
   onmouseout="style.opacity = 1;"
   onmouseover="style.opacity = 0.5;"
   id="140"
   class="st11"
   d="m 184.30597,602.06912 4.20045,2.25087 0.53171,2.80031 -3.23453,1.28495 -0.68235,2.21543 1.8964,3.48265 -0.56715,1.18747 -1.82551,0.97479 -4.47517,0.15951 -5.07776,-1.86982 -7.178,1.34698 -0.2304,1.19633 -3.75737,-6.83238 2.12681,-6.61085 -0.61146,-5.19296 15.00289,-1.45333 z">
<title
   id="title140">Frankenthal     absolute Anzahl: 6 relativ zur Einwohnerzahl: 0,65 %
</title>
</path>

   <!-- Gemeinde   -->
<path
   style="fill:#821212;fill-opacity:1;stroke:#000000;stroke-width:0.886172;stroke-linecap:butt"
   onmouseout="style.opacity = 1;"
   onmouseover="style.opacity = 0.5;"
   id="150"
   class="st5"
   d="m 280.50526,545.96202 0.68235,0.49626 -1.09886,1.53308 1.86983,1.93185 -1.02796,1.38243 0.76211,0.29244 -1.90527,-0.19496 0.70893,0.6469 -3.80167,2.31291 -3.36746,9.3757 5.15752,2.10909 -2.24201,5.66264 1.19633,3.94347 1.41788,-0.0177 0.38991,1.15203 3.42949,-0.0354 1.09885,-1.50649 1.8521,0.4165 1.06341,-2.13568 1.38242,-0.0443 0.36334,-1.79892 5.19296,1.34698 -1.58624,10.06691 -1.95845,4.45745 -2.04705,0.68235 -0.85073,3.19022 -6.07028,-1.52422 -2.10022,5.09549 -2.38381,-0.76211 0.32789,2.24202 -3.11933,2.72055 -1.58625,-1.00138 -5.3702,-0.22154 0.69122,-4.64354 -1.04569,-0.62919 -0.78869,0.65577 -3.81054,-0.74438 -4.59037,-2.35722 -0.20382,2.63193 -1.82551,-3.9346 -2.48129,0.73552 -3.12818,-2.30405 1.47104,-2.86233 -1.07227,-0.55829 -0.9482,-3.1016 -5.74239,-0.22155 -1.10772,2.52559 -2.28632,-1.01909 0.74438,-3.87258 1.99389,-0.29243 0.0177,-2.28633 5.15752,-3.11932 0.73553,-1.84324 -0.009,-1.46218 -1.54194,0.98365 0.47854,-1.69259 -3.49152,0.1861 0.35447,-1.10772 -2.07364,-0.13293 -0.12407,-1.65714 1.82552,-4.54606 3.29656,0.51398 0.0354,-2.2686 0.833,0.12406 0.52285,-2.36607 0.77983,0.45194 -1.38243,-1.4356 0.31016,-2.86233 -1.71031,-0.89504 0.97479,-2.28632 -0.47854,-1.61283 2.28633,0.42536 0.38991,-2.14454 5.72467,1.29382 0.40764,-1.94958 2.12682,0.49625 -1.81666,-2.90664 0.58488,-0.85073 4.20931,0.39878 1.39129,-0.92162 2.68511,-0.19496 -1.32926,1.47991 1.49763,0.79756 2.28632,0.19495 0.26585,-1.08113 1.47991,-0.0177 1.38243,1.08113 -0.73552,0.84186 0.61146,-0.30129 0.15951,-0.63805 1.51535,0.15951 0.34561,1.35585 4.78533,0.6469 0.0532,1.14316 1.19633,0.0443 z">
<title
   id="title150">Göda     absolute Anzahl: 20 relativ zur Einwohnerzahl: 0,65 %
</title>
</path>

<!-- Gemeinde Groszdubrau   -->
<path
   style="fill:#6e1212;fill-opacity:1;stroke:#000000;stroke-width:0.886172;stroke-linecap:butt"
   onmouseout="style.opacity = 1;"
   onmouseover="style.opacity = 0.5;"
   id="160"
   class="st5"
   d="m 339.62799,502.73721 -0.0886,-6.42475 -2.4547,-2.09136 -0.36333,-2.00275 2.75599,-2.99526 2.73828,-11.59999 6.90328,-3.67762 3.50037,-0.66463 -0.23926,3.03957 2.499,1.94958 -0.36333,-4.04094 0.70008,-0.0975 3.13705,6.55767 2.05592,0.3013 1.70145,2.10909 0.91275,-1.40902 3.09274,-0.60259 0.25699,0.88617 1.94072,-0.13293 -0.0443,1.01024 -2.02047,0.59374 0.70894,14.72817 6.21206,0.009 -0.81527,8.09075 3.42062,0.0177 2.6851,-2.4547 1.30267,1.87869 -3.69533,4.14728 -2.63194,0.32789 0.22155,0.84186 -1.47105,0.42536 -1.03682,1.95844 -2.22429,-0.0532 1.89641,2.99526 -2.04706,8.87945 -1.82551,1.83437 -4.37769,-0.84186 -0.33675,1.12544 -0.9482,-0.12407 0.10634,-1.21405 -1.19633,-0.47853 0.7621,-1.8078 -2.65851,-0.77097 -1.27609,2.39267 -2.41925,1.58625 -0.98365,-0.33675 -1.22292,2.81803 -1.51535,0.89503 -8.37433,-1.46218 -1.88754,2.48128 0.87731,0.93934 -1.47991,0.21268 -0.6026,2.10023 0.75325,1.34698 -0.65577,-0.14178 -0.31016,2.35721 -2.5699,-0.65576 0.46081,1.86096 -1.666,0.62918 0.20382,2.04706 1.08113,-0.009 -1.3204,1.3204 0.10634,2.2686 -5.99052,-5.87532 -0.1152,2.17998 -1.47105,0.73553 -1.69259,3.79281 -4.07639,0.31016 -1.44446,5.04232 -3.86371,-1.64828 2.99526,-1.33812 0.0177,-1.45332 0.82414,-0.0354 -1.42674,-1.60397 -1.45332,3.76623 -2.24202,0.67349 -6.69946,-1.44446 -1.15202,-6.96531 3.32314,-0.0177 2.19771,2.61421 4.87395,-0.92162 1.00137,-3.74851 0.90389,-1.27609 1.11658,0.26585 0.78869,-3.16363 1.36471,0.26585 1.88755,-8.9592 1.84323,0.15951 0.88618,-1.51535 1.95844,-0.64691 -1.28495,-2.47242 -1.94072,-0.0886 2.83575,-1.55967 -1.30267,-2.57876 -1.54194,-1.03682 -3.85485,-0.15065 0.0266,-1.48877 1.01023,-0.54942 -0.6469,-1.79893 2.01161,0.24813 2.16226,-1.48877 -0.0177,-3.25226 1.18747,-1.5508 4.52834,-0.7621 0.10634,1.67486 z">
<title
   id="title160">Großdubrau     absolute Anzahl: 33 relativ zur Einwohnerzahl: 0,78 %
</title>
</path>
   <!-- Gemeinde   -->
<path
   style="fill:#961212;fill-opacity:1;stroke:#000000;stroke-width:0.886172;stroke-linecap:butt"
   onmouseout="style.opacity = 1;"
   onmouseover="style.opacity = 0.5;"
   id="170"
   class="st12"
   d="m 152.90712,640.45011 -2.02047,0.50512 -2.49901,-0.12406 -4.07639,-3.73079 -3.15477,-0.91276 -0.80642,-1.79006 -1.15202,-0.15065 -0.73552,-3.78396 0.65577,-1.65714 -2.51673,1.58625 -0.76211,-0.72666 1.71031,-2.08251 -2.23315,-2.41925 1.97616,-2.79144 -0.29244,-1.63055 -4.61695,-2.56104 -0.81528,-2.31291 1.47105,-0.66463 0.25699,0.79756 5.04231,1.18747 5.06891,-2.1534 1.39129,-3.77509 3.26997,0.16837 3.67762,1.62169 5.82215,0.31016 6.33613,-3.09274 3.75737,6.83239 0.2304,-1.19633 7.17799,-1.34698 5.07777,1.86982 4.47517,-0.15951 1.82551,-0.98365 0.80642,0.73552 -1.31154,0.93934 0.15951,7.62108 0.82414,0.9482 -3.72192,1.77235 0.80642,2.07364 2.8003,1.40015 -0.009,5.77784 1.57739,1.1343 -2.40153,1.82552 -0.14179,2.03819 -3.08388,1.56853 -2.37494,2.60534 -1.41787,-0.85958 -3.14591,4.40427 -2.23316,0.44309 -5.44995,-2.71169 -1.37357,2.07364 -1.3204,0.32789 -1.46218,-1.1343 -3.35859,-0.23927 -2.48128,0.94821 z">
<title
   id="title170">Großharthau     absolute Anzahl: 10 relativ zur Einwohnerzahl: 0,36 %
</title>
</path>

   <!-- Gemeinde   -->
<path
   style="fill:#a51412;fill-opacity:1;stroke:#000000;stroke-width:0.886172;stroke-linecap:butt"
   onmouseout="style.opacity = 1;"
   onmouseover="style.opacity = 0.5;"
   id="180"
   class="st4"
   d="m 108.51168,538.30195 2.94209,2.32177 0.79755,4.52834 1.83438,-0.37219 1.54194,5.30817 4.422,3.34087 2.54331,7.31092 -1.41788,4.74988 -3.91688,4.15614 -0.39877,1.83438 -0.74439,-0.69121 0.52284,-1.88755 -2.23315,-1.5508 -1.58625,-4.94484 -4.66126,4.69671 -5.64492,-1.63942 -1.76348,0.4165 -3.358592,-2.95095 -2.117951,1.01024 -2.818027,-2.36608 2.986399,-0.70894 1.816653,-2.46356 -2.020472,-0.63804 -1.710312,1.14316 -3.686467,-0.98365 -2.250879,0.50512 0.248128,-1.52422 8.941469,-4.59037 0.177235,-5.80443 5.423376,-8.96806 2.3838,0.70008 1.68373,-0.97479 z">
<title
   id="title180">Großnaundorf     absolute Anzahl: 2 relativ zur Einwohnerzahl: 0,21 %
</title>
</path>

   <!-- Gemeinde   -->
<path
   style="fill:#961212;fill-opacity:1;stroke:#000000;stroke-width:0.886172;stroke-linecap:butt"
   onmouseout="style.opacity = 1;"
   onmouseover="style.opacity = 0.5;"
   id="190"
   class="st4"
   d="m 329.82073,601.67477 1.32039,-2.67624 2.40153,-0.55829 0.29244,-2.11795 3.44721,3.77509 2.83575,-0.66463 1.16974,1.47991 1.06341,8.39205 -3.09274,0.56715 0.009,2.46356 1.36471,0.25699 1.79893,6.86783 2.40152,-0.80642 0.3013,1.14317 -1.2495,1.35584 -3.43835,0.34561 1.12544,4.20931 -0.67349,1.08113 -5.27273,-0.15065 -2.93323,0.96593 -0.25699,1.6217 -2.22429,-0.81528 -0.47853,-1.32926 -2.57876,-0.49626 -1.27609,-2.25087 -11.59113,0.17723 3.12819,-7.92238 0.0709,-2.97753 0.96593,0.36333 1.87869,-2.99526 -1.7369,-3.53583 -2.14454,-0.0532 -0.50512,-2.01161 2.69397,-2.94209 2.37494,-0.91276 -0.24813,-3.5181 4.18273,-0.70894 0.21268,-1.08999 1.22292,0.14179 1.16089,2.85347 -0.7887,2.33949 0.65577,-0.81528 z">
<title
   id="title190">Großpostwitz     absolute Anzahl: 9 relativ zur Einwohnerzahl: 0,33 %
</title>
</path>

   <!-- Gemeinde   -->
<path
   style="fill:#961212;fill-opacity:1;stroke:#000000;stroke-width:0.886172;stroke-linecap:butt"
   onmouseout="style.opacity = 1;"
   onmouseover="style.opacity = 0.5;"
   id="200"
   class="st11"
   d="m 163.48093,584.1649 1.97616,-2.23316 -0.23927,-1.61283 0.47854,0.79755 4.85622,-1.16088 0.54942,1.22292 3.38518,-2.12682 0.75325,2.55218 -0.88617,1.84324 3.94346,-0.062 0.93934,6.07027 -0.78869,4.85623 1.97616,2.70282 -15.00289,1.44446 0.61146,5.19297 -2.12681,6.61084 -6.34499,3.1016 -5.81329,-0.31902 -3.68648,-1.61283 -3.26111,-0.16837 -1.39129,3.76623 -5.0689,2.16226 -5.04232,-1.19634 -0.25699,-0.78869 -3.33201,1.94072 -2.0825,-0.98365 -6.4602,1.32926 -10.76699,-6.46906 1.52422,-1.01024 -1.38243,-1.07226 -0.33675,-4.20046 4.36883,-2.4547 1.06341,-0.15065 0.98365,1.26723 -0.0709,-2.05592 5.93735,-2.66738 0.0709,-2.72941 1.86096,-0.009 1.19634,-1.77234 -0.49626,-2.2686 -2.50787,-0.84187 5.79557,-8.59586 2.48128,1.39129 5.9728,-1.53308 3.03071,2.77372 3.8194,-1.59511 2.41925,0.95706 2.83575,2.96868 4.66126,-1.2495 2.88892,1.63942 z">
<title
   id="title200">Großröhrsdorf     absolute Anzahl: 41 relativ zur Einwohnerzahl: 0,43 %
</title>
</path>

   <!-- Gemeinde   -->
<path
   style="fill:#961212;fill-opacity:1;stroke:#000000;stroke-width:0.886172;stroke-linecap:butt"
   onmouseout="style.opacity = 1;"
   onmouseover="style.opacity = 0.5;"
   id="220"
   class="st6"
   d="m 129.03365,517.74542 3.27883,-0.40764 5.76898,1.50649 13.73567,1.32926 3.2877,4.08525 -0.062,1.09886 5.68036,1.9673 2.88006,2.36608 -0.52284,5.02459 -1.48877,0.36333 -0.14179,1.44446 1.59511,0.45195 2.12681,-0.87731 5.30817,3.1016 0.0532,2.78258 2.66738,2.65852 -0.95707,13.70908 1.86097,3.77509 -4.7233,-2.35721 -3.92574,-0.15065 -3.55355,-5.59175 -4.09412,0.86845 -0.29243,-1.55966 1.14316,-1.68373 -2.12682,-2.67624 -8.23253,0.81528 -2.51673,-8.28571 -9.10985,0.79755 -0.63804,0.82414 -2.14454,0.17724 0.81528,-2.24202 -1.11658,-3.37631 1.19633,-0.52284 -2.6851,-4.26249 -4.98915,1.00137 -0.7621,-2.58762 0.0354,1.24064 -8.33001,1.28495 -8.64018,5.17525 -0.89503,-0.70894 0.68235,-0.93048 -0.73552,-4.49289 -2.21543,0.81527 -2.82689,-3.71306 0.46081,-1.63055 2.05592,-0.19496 -1.22292,-5.80443 0.5317,-2.50786 -3.60672,-3.31429 1.00138,-1.47104 4.54606,0.22154 4.82077,-2.40153 6.50451,4.35997 z">
<title
   id="title220">Haselbachtal     absolute Anzahl: 19 relativ zur Einwohnerzahl: 0,47 %
</title>
</path>

   <!-- Gemeinde   -->
<path
   style="fill:#961212;fill-opacity:1;stroke:#000000;stroke-width:0.886172;stroke-linecap:butt"
   onmouseout="style.opacity = 1;"
   onmouseover="style.opacity = 0.5;"
   id="230"
   class="st5"
   d="m 374.84535,583.31772 4.16501,0.52284 1.35585,-3.26998 0.78869,0.85959 2.19771,-0.38992 0.9482,-2.73827 1.19633,0.61146 3.88144,-3.47379 1.19633,-3.55355 0.78869,0.32788 0.27471,2.66738 3.71306,-1.54194 3.03957,3.18136 -1.87868,-0.0354 1.40015,1.98503 -2.39266,2.98639 0.14178,2.1534 1.24951,1.35585 -0.6026,2.96867 4.22704,0.65577 1.63056,-1.92299 0.17723,-2.82689 1.16089,0.28357 1.01909,3.92574 3.98778,0.11521 -1.02796,4.47517 0.20382,5.255 1.94072,0.14178 0.73552,3.75737 1.72803,-1.33812 0.23041,0.76211 -0.70894,-0.0975 -0.1152,3.87257 -2.65852,0.29244 -0.35447,1.53308 2.0382,2.11795 2.57876,-0.59374 -0.93934,1.47991 -1.75462,-0.64691 -2.24202,2.27747 -2.57876,-0.16838 -2.36608,1.60398 -3.5181,-0.64691 -0.75325,-1.06341 -2.80916,3.89916 0.15951,1.1343 2.82689,0.44309 0.22154,1.70145 2.83575,0.70893 -0.0709,1.06341 -5.99939,0.49626 -4.74988,-2.10023 -4.55492,-0.34561 -1.15203,0.95707 -2.36608,-0.92162 -1.1786,4.10298 -4.33339,-1.3204 -3.332,0.63804 -7.12483,-0.99251 -2.55217,-2.499 -4.41314,0.87731 -0.15065,-12.99129 2.1534,-7.4527 1.35584,0.0975 -1.45332,-5.26386 6.23865,-1.21406 3.16364,-6.53109 z">
<title
   id="title230">Hochkirch     absolute Anzahl: 7 relativ zur Einwohnerzahl: 0,31 %
</title>
</path>

   <!-- Gemeinde   -->

<path
   style="fill:#961212;fill-opacity:1;stroke:#000000;stroke-width:0.886172;stroke-linecap:butt"
   onmouseout="style.opacity = 1;"
   onmouseover="style.opacity = 0.5;"
   id="240"
   class="st4"
   d="m 260.75071,377.09397 0.0354,1.33812 10.05805,-0.27471 0.31902,1.19633 1.31153,-0.76211 6.97418,1.4356 0.56715,0.76211 -2.25088,0.9482 4.56379,7.36409 -5.48541,0.1152 0.0975,4.37769 -2.55217,-0.0886 0.25699,7.41726 9.0035,-1.76349 -2.18884,3.79282 0.25699,2.54331 3.53583,1.45333 -1.09886,1.45332 -0.0709,3.08388 -5.44996,7.57677 4.11184,1.11657 4.27135,-0.77097 1.12544,0.68236 -0.81528,-3.80168 7.60335,1.00137 -8.87944,9.66814 -1.99389,3.5181 -4.34224,3.89916 -4.06753,-1.18747 -0.5317,-2.69396 -3.14591,-0.4874 0.50511,-0.72666 -1.49763,-0.9039 0.77097,-4.9537 -2.65851,-3.54468 0.85958,-2.09137 -2.22429,-1.90527 v -5.79557 l -5.38792,2.68511 -2.81803,-2.17113 -3.85485,1.57739 -1.63055,-3.29656 -5.60061,-1.79007 -4.82078,0.84187 0.46081,6.42474 -3.42062,-0.0886 0.0532,4.35996 -2.40153,2.96868 -3.07501,0.14179 0.0709,-1.81666 -6.77035,-5.68922 -1.21406,1.5508 -0.99251,-0.13293 0.1152,-1.41787 h -5.36134 l -1.65714,1.31153 -3.50038,-0.009 -1.50649,2.24202 -2.58763,0.58487 -2.8003,3.13705 -1.07227,-1.16975 -6.88555,1.74576 -4.98915,5.23728 -1.99389,-0.62918 -9.1896,0.77983 -3.52697,-0.61146 -2.51673,-1.77235 -1.20519,-3.332 -2.14454,1.01023 -11.25438,-7.79831 -2.08251,-1.16088 -0.37219,-1.28495 4.22704,-0.0886 4.25363,-4.04981 0.50512,1.21406 2.01161,-0.51398 -0.50512,-1.34698 -1.5508,-0.24813 2.499,-3.8903 3.30542,-1.91413 1.76349,1.66601 -0.26586,-2.41925 3.67762,-2.10023 -2.56104,-6.02597 9.47318,-4.93598 -1.27609,-0.0177 0.4874,-1.2052 1.77234,-0.13292 -0.0532,3.71306 1.99389,0.26585 0.24813,-3.15477 1.58624,0.20382 1.81666,-3.96119 3.23452,3.97005 2.01161,-3.84599 5.28159,4.36883 -0.97479,2.29519 2.2686,-0.66463 1.83438,1.95844 0.33674,-1.40015 1.15203,-0.33675 1.65714,1.48877 1.94958,-0.29244 0.0443,-1.05454 2.40153,0.32788 1.49763,-5.47654 5.3259,0.0354 1.82551,-2.02047 2.93323,1.55967 0.51398,-2.46356 7.06279,5.63605 0.2304,1.51536 3.31429,0.65576 4.48403,-2.47242 4.71443,-6.49564 3.39404,0.44309 3.94347,-2.64079 -0.95707,-0.0177 1.59511,-2.9155 z">
<title
   id="title240">Hoyerswerda     absolute Anzahl: 161 relativ zur Einwohnerzahl: 0,50 %
</title>
</path>

   <!-- Gemeinde   -->
<path
   style="fill:#6e1212;fill-opacity:1;stroke:#000000;stroke-width:0.886172;stroke-linecap:butt"
   onmouseout="style.opacity = 1;"
   onmouseover="style.opacity = 0.5;"
   id="250"
   class="st5"
   d="m 202.61694,488.15791 4.6524,7.66539 1.03682,8.43635 -5.39678,2.89779 -3.21681,0.0797 0.0798,1.29381 -1.70145,0.57601 -1.24951,-3.30542 -3.76623,0.44309 -2.64079,4.69671 -2.36608,0.0798 0.73552,3.98777 4.1207,4.64354 0.0354,2.55218 2.41925,0.46967 -0.73552,1.68372 1.67486,0.97479 -0.36333,3.08388 -2.13567,0.833 -1.71918,-1.3647 -0.15064,1.37357 -1.76349,0.0443 -4.04094,-2.52559 -0.833,0.4165 0.90389,1.63056 -1.75462,-1.41787 -5.27272,2.12681 -1.98503,1.31153 -0.44308,4.40428 -1.83438,3.97891 -4.422,-0.0266 -5.30817,-3.10161 -2.12681,0.87731 -1.59511,-0.45194 0.13293,-1.44446 1.48877,-0.36334 0.5317,-5.03345 -2.88892,-2.35722 -5.68036,-1.9673 0.062,-1.09885 -3.2877,-4.08526 -13.72681,-1.32926 -5.76898,-1.50649 -3.28769,0.40764 4.20931,-9.92513 2.41039,-8.63131 -2.64965,-1.7369 -1.54194,-2.81802 -0.97479,-6.77036 4.02322,-2.28632 -3.1725,-3.23453 12.68999,-8.83514 4.72329,-0.69121 2.23316,-2.2686 1.00137,-5.87532 2.74713,-3.49152 8.25027,4.0055 1.14316,-0.0532 1.71031,-2.04706 7.5236,-0.75324 2.91551,1.21405 1.41787,-3.01298 1.35584,1.23178 -0.60259,1.16088 0.95706,0.23927 0.77983,2.96867 1.16089,0.55829 -0.24813,2.31291 4.43972,1.80779 3.31429,-0.93048 -0.16838,-2.25088 1.16975,-0.91275 3.8903,8.587 4.10297,4.16501 z">
<title
   id="title250">Kamenz     absolute Anzahl: 166 relativ zur Einwohnerzahl: 0,98 %
</title>
</path>

   <!-- Gemeinde   -->
<path
   style="fill:#821212;fill-opacity:1;stroke:#000000;stroke-width:0.886172;stroke-linecap:butt"
   onmouseout="style.opacity = 1;"
   onmouseover="style.opacity = 0.5;"
   id="270"
   class="st5"
   d="m 64.181103,431.86472 8.959199,0.33674 0.115202,1.60397 2.304047,2.2243 6.557673,1.20519 4.014362,12.10511 4.865087,-2.58762 1.240632,4.67899 -1.373558,2.78258 1.222918,5.6006 7.071643,2.61421 3.385182,12.97356 -3.801683,-0.44309 -11.599985,3.19908 1.205194,2.50787 2.126815,0.31902 3.677605,2.66738 -6.06141,5.04232 -4.094115,1.08999 -0.186096,1.34698 1.59511,0.39878 0.194958,3.01298 2.640792,5.50313 2.419253,-0.0354 0.700075,6.03484 3.385169,-0.21269 1.098853,2.74714 -1.772344,0.99251 -0.664629,1.74576 9.233908,3.74851 -1.00137,1.47104 3.60672,3.30542 -0.52284,2.51673 1.21405,5.79557 -2.05592,0.19496 -0.4608,1.63055 2.82688,3.71306 2.21543,-0.81528 0.73553,4.4929 -0.68236,0.93048 -2.06478,-1.03682 -1.69258,0.97478 -2.37495,-0.70893 -1.63941,0.17723 -1.222921,-1.71917 -2.366079,0.3456 -3.332007,-2.44583 -1.74575,-2.74713 0.08862,-2.88006 -4.971425,-0.7178 0.301299,-5.00687 -6.850113,-0.7887 1.355843,-2.09136 0.25699,-3.50924 -0.708937,-0.43423 -2.658516,0.13293 -8.055304,5.6715 1.515354,-4.28021 -0.469671,-1.77235 4.847361,-3.53582 -5.237276,0.7178 0.345607,-5.39679 -0.97479,-1.40015 -6.344991,-0.14179 -2.52559,2.02933 -2.011611,-0.009 -6.850109,-3.5181 -6.672876,-12.25576 -0.992512,-3.5181 -2.055919,-0.77983 1.550801,-1.42674 1.284949,-3.59786 6.513364,-7.12482 3.730785,-9.66814 -0.20382,-5.31703 13.274857,3.1016 0.345607,-2.6851 -1.39129,-1.37357 0.487394,-2.2686 -2.055919,-2.84461 0.345607,-3.52696 -1.346981,-3.55355 1.072268,-0.91276 -1.497631,-0.65577 -0.425362,-2.32177 -4.847361,-4.29793 0.478533,-3.4738 0.691214,-0.85958 -0.859587,-4.14729 z">
<title
   id="title270">Königsbrück     absolute Anzahl: 30 relativ zur Einwohnerzahl: 0,66 %
</title>
</path>

    <!-- Gemeinde   -->
<path
   style="fill:#6e1212;fill-opacity:1;stroke:#000000;stroke-width:0.886172;stroke-linecap:butt"
   onmouseout="style.opacity = 1;"
   onmouseover="style.opacity = 0.5;"
   id="280"
   class="st5"
   d="m 247.51484,464.54763 -0.0797,-0.89504 8.60473,-3.42062 6.53109,-3.91688 6.81466,-0.59374 -1.3204,-4.37769 8.11734,-2.74713 8.33002,0.96593 1.55966,3.89916 -0.40764,4.85622 -2.04706,5.14866 4.37769,1.07227 0.47853,9.08326 0.86845,1.59511 3.36746,1.8521 0.77097,2.99526 8.63131,0.93048 -1.72803,7.31092 6.23865,1.08999 2.54331,-3.50038 1.86096,-1.07227 2.58762,0.0975 0.86845,-2.64965 1.46219,-0.46967 -1.07227,-1.47105 -0.26585,-4.84736 3.17249,2.59648 -1.4356,2.09137 0.009,1.90527 2.1977,7.2223 -3.12819,3.50924 -1.09885,4.18273 -11.5734,-3.17249 -9.05668,-1.48877 -2.53445,5.3702 -2.21543,-0.81528 -2.3395,-3.54468 -6.2032,-0.062 0.31902,-1.48877 -6.00825,0.42537 -1.55966,1.49763 -2.27746,-0.51398 -10.18212,1.87868 -0.0709,-1.2495 -2.80917,0.29244 -1.93185,2.41925 1.64828,1.07226 0.19496,1.4356 -1.34699,0.23041 0.3013,-0.99251 -3.42948,-0.54943 -0.11521,-1.76348 h -4.38655 l -0.0532,-4.45745 2.17999,-8.34774 0.15951,-4.36883 -0.40764,-6.52222 z">
<title
   id="title280">Königswartha     absolute Anzahl: 33 relativ zur Einwohnerzahl: 0,95 %
</title>
</path>

    <!-- Gemeinde   -->
<path
   style="fill:#821212;fill-opacity:1;stroke:#000000;stroke-width:0.886172;stroke-linecap:butt"
   onmouseout="style.opacity = 1;"
   onmouseover="style.opacity = 0.5;"
   id="290"
   class="st13"
   d="m 343.55196,584.25174 -3.08388,-2.32177 3.13705,-0.38992 -0.31902,-1.5951 -3.02185,-2.33064 -3.16363,0.23041 2.89778,-0.33675 0.55829,-2.11795 -1.59511,-1.47104 4.08525,0.32788 0.41651,-1.98503 1.11657,0.0532 0.35447,-1.23177 2.10909,0.36333 -0.23927,-4.0055 -1.84323,-1.02796 -0.96593,-3.29656 3.33201,-3.92574 -2.10909,-1.75462 0.18609,-0.92162 -0.59373,-1.33812 2.62307,0.47853 1.21405,-2.27746 2.5699,0.54056 0.31902,-1.4799 0.91276,0.24812 -0.25699,0.86845 2.34836,0.21268 0.62918,1.5065 2.53445,1.49763 4.82078,0.92162 3.42062,-2.08251 0.79755,-1.82551 3.66876,-1.47991 1.31153,2.80917 -0.84186,0.47853 2.79144,1.23178 0.61146,1.97616 0.17723,1.94958 -1.8521,1.5508 0.73553,6.41589 -0.86845,0.18609 -0.28358,4.04095 -2.1977,1.08113 1.47104,-0.29244 -0.33674,2.35722 -0.93935,-0.11521 -0.20382,1.07227 -1.45332,-0.28357 0.74439,3.88143 -1.923,3.55355 0.0177,1.15202 1.63941,1.19634 2.65852,-0.87731 -3.16363,6.53108 -6.24752,1.22292 1.46219,5.255 -1.36471,-0.0975 -2.14453,7.45271 0.15065,13.00014 -2.92437,0.0798 -4.71444,-1.55966 0.0975,1.00137 -3.19908,1.64828 -4.79419,-1.5508 -2.40153,0.80641 -1.79006,-6.86783 -1.36471,-0.25699 -0.0177,-2.46356 3.1016,-0.56715 -1.07227,-8.39205 -1.16974,-1.4799 -2.83576,0.66463 -3.4472,-3.7751 -0.28358,2.11796 -2.40153,0.55828 -1.32925,2.67624 -2.41039,-0.9482 -0.64691,0.81528 0.7887,-2.3395 -1.16975,-2.85347 -1.21406,-0.14179 -0.0797,-1.55966 0.92162,0.1152 -0.68236,-2.80916 2.5699,0.4165 0.95707,-1.79007 1.34698,0.46081 0.81528,-1.37357 5.32589,-0.0354 3.34087,-3.42949 z">
<title
   id="title290">Kubschütz     absolute Anzahl: 18 relativ zur Einwohnerzahl: 0,71 %
</title>
</path>
<!--        Lausznitz     -->
<path
   style="fill:#821212;fill-opacity:1;stroke:#000000;stroke-width:0.886172;stroke-linecap:butt"
   onmouseout="style.opacity = 1;"
   onmouseover="style.opacity = 0.5;"
   id="300"
   class="st4"
   d="m 71.886811,515.4653 0.46081,1.77234 -1.515354,4.28021 8.055303,-5.6715 2.667378,-0.13292 0.700076,0.43422 -0.248128,3.50924 -1.364705,2.10023 6.850112,0.77983 -0.292437,5.00687 4.962557,0.7178 -0.07976,2.88892 1.736897,2.73827 3.332007,2.44584 2.366079,-0.33675 1.222914,1.71032 1.63942,-0.16838 -5.423371,8.96806 -0.177235,5.80443 -8.950333,4.59037 -0.239267,1.52422 -4.351104,-0.47854 -4.439725,2.49901 -4.02322,0.38991 -4.43086,2.39267 -2.144537,-0.69122 -1.222917,-0.80641 -0.02659,-1.90527 -1.568525,0.58487 -2.52559,-1.44446 -2.002749,1.75462 -1.745758,-0.0975 0.487394,-4.06753 -2.924367,6.23865 -2.242016,-0.4165 -2.826888,1.22292 -9.969435,-2.92437 -2.392665,-3.53582 -2.117951,0.59373 -3.730784,-2.50786 1.364705,-3.589 -6.291821,-1.63942 -2.277462,-2.35722 8.906028,-1.55966 1.453322,-8.33888 0.265852,1.45332 5.068904,2.70283 1.533077,-0.17724 0.7178,-1.40901 0.212681,0.61146 -0.20382,-3.03071 5.033457,0.062 -0.770969,-1.49763 0.806416,-2.43697 -1.417875,-1.40901 -3.91688,0.28357 0.56715,-0.74438 -1.426737,-1.16089 0.07976,-1.86982 1.311535,-1.71918 -2.339494,-1.45332 0.859587,-2.33949 0.159511,1.83437 0.239266,-1.74575 4.182732,2.13567 -0.36333,1.0191 0.602597,-0.92162 2.587622,-0.3013 -2.366079,-7.84262 2.507866,-1.51536 0.354469,0.58488 1.320396,-1.79893 2.871198,0.82414 0.327883,-0.63804 0.283575,-2.88006 -1.834376,0.7621 -4.935978,-1.98502 -2.977538,-2.74713 4.953702,-3.56242 -3.668752,-2.14453 4.758743,-0.89504 1.196333,2.41925 6.850109,3.51811 2.011611,0.009 2.534452,-2.02934 6.336129,0.14179 0.983651,1.40015 -0.354469,5.39679 5.246139,-0.7178 z">
<title
   id="title300">Laußnitz     absolute Anzahl: 10 relativ zur Einwohnerzahl: 0,54 %
</title>
</path>
   <!-- Gemeinde   -->

<path
   style="fill:#961212;fill-opacity:1;stroke:#000000;stroke-width:0.886172;stroke-linecap:butt"
   onmouseout="style.opacity = 1;"
   onmouseover="style.opacity = 0.5;"
   id="310"
   class="st11"
   d="m 203.8753,362.13184 3.73965,0.27472 2.49901,1.74575 0.62918,-0.77983 1.08999,0.94821 -0.87731,0.9482 1.21405,-0.52284 -1.07226,2.8712 2.96867,1.23178 -1.02796,0.73552 -0.58487,-0.73552 -0.23041,1.88754 -2.92436,-0.78869 -0.88618,3.31428 -0.92161,0.44309 0.31016,2.41925 -0.87731,1.71031 -0.79756,-0.44309 -2.0825,5.4411 -2.10023,1.92299 -1.49763,-1.0634 -2.01161,3.84598 -3.23453,-3.97005 -1.81665,3.96119 -1.58625,-0.20382 -0.24813,3.16364 -1.99389,-0.26585 0.0532,-3.71307 -1.77234,0.13293 -0.48739,1.20519 1.27608,0.009 -9.47317,4.94484 2.56103,6.0171 -3.67761,2.10023 0.26585,2.42811 -1.76348,-1.67486 -3.30542,1.91413 -2.49901,3.89916 1.5508,0.23926 0.50512,1.34698 -2.01161,0.51398 -0.50512,-1.21405 -4.25362,4.0498 -4.22704,0.0886 0.37219,1.28495 2.0825,1.16975 -1.39129,1.69259 0.51398,3.29656 1.42674,0.28357 2.54331,-1.63056 -0.91275,4.422 -4.3068,-2.44583 -2.5699,-3.1725 -5.12207,-2.56103 -1.02796,-1.60398 -1.12544,-9.75675 -2.22429,-2.72055 3.54468,0.26585 -0.2304,-1.29381 -0.95707,-2.31291 -2.80916,-0.99251 2.94209,-3.50038 8.26798,-3.96119 -4.32451,-4.30679 1.2495,-6.48678 -8.38319,-7.61222 -1.20519,-2.12681 2.5699,-3.74851 14.56866,5.60947 -0.13292,2.23315 1.44446,2.0382 2.31291,0.0709 1.16088,1.36471 1.47105,-0.7178 0.93934,0.97479 4.18273,0.27471 1.30267,-8.59587 2.67624,1.59511 4.31566,0.38105 4.59037,-4.59037 3.30542,1.14317 -0.15064,-3.72193 5.62719,0.62032 0.98365,-1.2495 -0.77097,-1.12544 1.63056,-0.49625 z">
<title
   id="title310">Lauta     absolute Anzahl: 24 relativ zur Einwohnerzahl: 0,29 %
</title>
</path>

   <!-- Gemeinde   -->
<path
   style="fill:#961212;fill-opacity:1;stroke:#000000;stroke-width:0.886172;stroke-linecap:butt"
   onmouseout="style.opacity = 1;"
   onmouseover="style.opacity = 0.5;"
   id="320"
   class="st7"
   d="m 102.45912,587.02457 -2.44583,-0.66463 -1.054548,-3.05729 0.194958,-4.51948 1.10772,-1.53307 -1.134305,-1.14317 2.463555,-4.11183 -0.84186,-6.11459 1.76348,-0.4165 5.64492,1.63942 4.66126,-4.69671 1.58625,4.94484 2.23315,1.5508 -0.52284,1.88754 0.74439,0.69122 0.39877,-1.83438 3.91688,-4.15615 1.41788,-4.74988 4.51948,0.88617 -1.12544,3.83713 0.84186,1.8521 -0.73552,4.51948 1.52421,2.83575 -0.90389,0.37219 1.69259,7.41726 -6.25638,9.47318 -3.81054,-3.51811 -0.86844,0.66463 -11.21894,-6.14117 z">
<title
   id="title320">Lichtenberg     absolute Anzahl: 6 relativ zur Einwohnerzahl: 0,37 %
</title>
</path>

   <!--        Lohsa     -->
<path
   style="fill:#821212;fill-opacity:1;stroke:#000000;stroke-width:0.886172;stroke-linecap:butt"
   onmouseout="style.opacity = 1;"
   onmouseover="style.opacity = 0.5;"
   id="330"
   class="st1"
   d="m 276.18694,448.59299 -8.1262,2.74713 1.32926,4.37769 -6.81466,0.59373 -5.64492,-13.53184 -0.74438,-9.4909 0.75324,-1.47105 5.91077,-1.16975 -0.009,-1.4799 1.82551,-0.83301 1.45333,-0.30129 0.80641,2.46355 2.30405,-1.94957 0.54943,1.03682 1.19633,-1.21406 1.49763,0.91276 -0.50512,0.72666 3.14591,0.48739 0.5317,2.69397 4.0764,1.18747 4.33338,-3.90802 1.99388,-3.50924 8.87945,-9.66814 -7.60336,-1.00137 0.81528,3.80167 -1.12544,-0.68235 -4.27135,0.77097 -4.11184,-1.11657 5.44996,-7.57678 0.0709,-3.08387 1.09885,-1.45333 -3.53583,-1.45332 -0.25699,-2.54331 2.18885,-3.79282 -9.00351,1.76348 -0.25699,-7.41726 2.55218,0.0798 -0.0975,-4.36883 5.4854,-0.1152 1.28495,2.18884 0.73552,-1.54193 3.83713,-0.64691 2.10023,0.82414 -0.13293,1.86096 3.94347,-4.24476 3.4029,-1.57739 1.42673,0.12407 0.68236,2.78258 6.69059,0.4165 -0.062,-2.17999 3.36746,0.0177 -0.10634,1.65714 1.11657,0.19496 -1.33812,7.5236 5.60947,2.44583 14.70159,0.0798 1.47991,-0.93935 -0.18609,-1.47104 2.56989,-2.82689 3.07502,5.01573 2.94209,0.72666 1.16975,2.01161 4.04094,1.77235 3.30543,-0.65577 -1.67487,12.67226 5.79556,1.35584 -1.19633,2.78258 -3.11932,1.48877 -2.60535,6.69946 -1.72803,1.44446 -1.22292,4.02323 2.39266,4.42199 -0.17723,2.08251 -2.19771,3.77509 -1.05454,-0.59373 -1.2495,2.63193 -0.79756,-0.12407 -4.18273,7.98441 -2.19771,7.08052 2.29519,-0.25699 -2.47242,2.02047 -1.14316,2.74713 -6.21207,1.39129 -3.97891,8.20595 -2.17112,3.29656 -1.31154,0.29244 -3.16363,-2.59648 0.26585,4.84736 1.07227,1.46218 -1.46219,0.46967 -0.87731,2.65852 -2.57876,-0.10634 -1.86096,1.07227 -2.55217,3.50038 -6.22979,-1.09 1.72803,-7.31092 -8.64017,-0.93048 -0.76211,-2.9864 -3.37632,-1.86096 -0.86845,-1.58624 -0.47853,-9.09213 -4.37769,-1.07227 2.04706,-5.14866 0.40764,-4.84736 -1.55967,-3.90802 z">
<title
   id="title330">Lohsa     absolute Anzahl: 34 relativ zur Einwohnerzahl: 0,65 %
</title>
</path>
<!-- Gemeinde   -->
<path
   style="fill:#961212;fill-opacity:1;stroke:#000000;stroke-width:0.886172;stroke-linecap:butt"
   onmouseout="style.opacity = 1;"
   onmouseover="style.opacity = 0.5;"
   id="340"
   class="st4"
   d="m 379.76804,505.71741 -1.31153,-1.88755 -2.68511,2.46356 -3.42062,-0.0177 0.82414,-8.09075 -6.21207,-0.009 -0.71779,-14.72818 2.02933,-0.59373 0.0355,-1.0191 -1.93186,0.13293 -0.25699,-0.87731 -3.1016,0.60259 -0.9039,1.40015 -1.71031,-2.10022 -2.04706,-0.3013 -3.14591,-6.55767 -0.70007,0.0975 -0.21268,-1.24064 1.20519,-0.90389 5.14866,0.0355 -1.04568,-3.50038 1.91413,-0.82414 -1.24064,-1.29381 1.40901,-1.3913 -1.02796,-0.52284 -0.39878,-2.88892 1.3204,-0.54056 0.4165,-1.75462 5.14866,-0.77097 1.79007,-4.9537 1.90527,-1.06341 -1.59511,5.38793 -3.56241,6.40702 0.75324,0.57601 0.89504,-0.98365 1.70145,2.27746 3.65989,1.7369 0.38991,4.1207 2.10023,0.96593 -0.31016,0.88617 1.70145,0.97479 3.1016,5.74239 2.16226,-0.0266 3.22567,-5.14866 1.7369,1.3647 3.48265,0.4165 -0.78869,1.51536 3.11046,0.26585 -3.03957,2.16226 -0.52284,2.81803 5.13094,0.51398 -1.91413,3.37631 5.29044,-0.39878 -0.78869,3.81054 -2.64966,4.75875 0.6735,4.54606 4.37769,2.69396 1.11657,3.64217 4.51062,0.22154 -1.86983,9.01237 -2.51672,4.5372 6.07914,1.08113 4.06753,6.75263 -0.43423,5.09549 -1.18747,-0.19496 -1.8521,1.63942 -3.57127,7.33751 -2.29519,6.10572 1.52422,1.71917 -1.25837,-0.77096 -1.48876,2.96867 -1.83438,-0.27471 -0.74439,7.30206 -2.50786,2.51672 -1.23178,-0.38105 -0.29244,2.37494 -2.33063,1.1343 -1.39129,-0.40764 -3.2168,-2.00275 -0.4874,-2.37494 -2.02933,0.38106 -0.49626,-1.33812 -0.92162,0.31902 -1.32039,-1.18747 -2.51673,2.22429 -0.77983,-1.10772 -3.60672,-0.90389 -0.61146,-1.97616 -2.79145,-1.22292 0.84187,-0.4874 -1.31154,-2.80916 -3.65989,1.47991 -0.80641,1.82551 -3.42063,2.0825 -4.82077,-0.91275 -2.53445,-1.5065 -0.62919,-1.50649 -2.34835,-0.21268 0.25699,-0.86845 -0.91276,-0.24813 -0.31016,1.47991 -2.57876,-0.54056 -1.20519,2.27746 -2.62307,-0.47853 0.58487,1.33812 -4.82078,-0.93049 0.67349,-2.51672 -2.56989,-1.42674 0.27471,-1.14316 -0.80642,-0.32789 0.94821,-2.22429 -1.72804,-0.14179 -1.87868,-2.18884 -0.10634,-2.27746 1.32925,-1.31154 -1.08113,0.009 -0.21268,-2.05591 1.67487,-0.62919 -0.46967,-1.86096 2.57876,0.66463 0.3013,-2.35722 0.65576,0.13293 -0.74438,-1.34698 0.6026,-2.09137 1.4799,-0.22154 -0.87731,-0.93048 1.87869,-2.48128 8.38318,1.46218 1.5065,-0.89503 1.23178,-2.81803 0.97479,0.32788 2.41924,-1.57738 1.27609,-2.39267 2.65852,0.77097 -0.76211,1.79893 1.19633,0.4874 -0.10634,1.21405 0.94821,0.12407 0.3456,-1.12544 4.36883,0.833 1.82552,-1.82551 2.04705,-8.87945 -1.89641,-2.99526 2.23316,0.0532 1.02796,-1.9673 1.4799,-0.42536 -0.22154,-0.84187 2.62307,-0.31902 z">
<title
   id="title340">Malschwitz     absolute Anzahl: 22 relativ zur Einwohnerzahl: 0,47 %
</title>
</path>
<!-- Gemeinde   -->

<path
   style="fill:#6e1212;fill-opacity:1;stroke:#000000;stroke-width:0.886172;stroke-linecap:butt"
   onmouseout="style.opacity = 1;"
   onmouseover="style.opacity = 0.5;"
   id="350"
   class="st15"
   d="m 225.6964,509.19918 -6.02597,-2.4547 -3.88143,1.16975 -2.40153,2.73827 -0.12406,3.78395 1.14316,0.82414 -0.42536,2.79144 -0.88617,-0.45194 -0.25699,1.16088 0.38991,3.01299 2.33064,-0.11521 0.19495,1.55967 2.51673,1.16088 v 1.97617 l -2.60534,0.20382 0.35447,1.20519 2.56103,0.39878 0.24813,1.00137 -0.44309,1.63056 -1.73689,-0.31016 0.74438,3.75737 -3.62444,-0.46967 0.0177,1.0634 h -2.94209 l -0.58487,-1.26722 -3.57128,1.32925 -3.97005,-2.2686 -1.58624,-0.39877 0.60259,-2.72055 -5.43223,-4.18273 -1.68373,-0.96593 0.73552,-1.68373 -2.41925,-0.47853 -0.0266,-2.54331 -4.1207,-4.64355 -0.73552,-3.99663 2.36608,-0.0798 2.64079,-4.68785 3.76623,-0.44308 1.24064,3.29656 1.71031,-0.56715 -0.0797,-1.29381 3.2168,-0.0798 5.39679,-2.90664 -1.04568,-8.43636 -4.64355,-7.65653 6.8767,-2.76485 0.26585,1.48876 -1.61283,1.32926 0.0443,1.35585 1.46218,0.61145 2.52559,-1.50649 3.11933,0.1861 1.3647,-0.93048 0.45195,-3.7042 5.76012,7.25775 -0.45195,6.3893 2.43697,4.72329 z">
<title
   id="title350">Nebelschütz     absolute Anzahl: 11 relativ zur Einwohnerzahl: 0,90 %
</title>
</path>

   <!-- Gemeinde   -->
 <path
   style="fill:#961212;fill-opacity:1;stroke:#000000;stroke-width:0.886172;stroke-linecap:butt"
   onmouseout="style.opacity = 1;"
   onmouseover="style.opacity = 0.5;"
   id="360"
   class="st13"
   d="m 260.69488,495.07182 10.18212,-1.86982 2.27746,0.50512 1.55966,-1.49763 5.99939,-0.4165 -0.31016,1.48876 6.2032,0.0532 2.33949,3.55355 2.21543,0.80642 2.52559,-5.3702 9.06554,1.48877 -6.28296,14.4446 -3.48265,5.56516 0.22154,1.83438 -0.96593,0.44308 0.43423,4.52834 -2.95982,5.75126 1.07227,0.31902 0.57601,2.63193 -1.29381,7.21344 -5.06004,-1.08999 0.64691,2.18884 -1.00138,4.54607 -3.54469,-0.93048 -0.61146,4.69671 -1.72803,1.86096 -1.20519,-0.0443 -0.0443,-1.14316 -4.79419,-0.63804 -0.34561,-1.36471 -1.50649,-0.15951 -0.16838,0.63804 -0.60259,0.31016 0.72666,-0.85072 -1.37357,-1.08113 -1.47991,0.0177 -0.26585,1.08999 -2.29518,-0.19495 -1.48877,-0.79756 1.32926,-1.47991 -2.69397,0.19496 -1.82551,-0.58487 0.2304,-1.83438 2.11795,-0.15065 1.65715,-2.64965 -0.66463,-4.86509 1.05454,-0.31902 0.40764,-2.18884 1.19633,-0.0709 -0.27471,-0.85958 2.92437,-1.7369 2.56103,-3.09274 -1.22291,-0.15951 -2.99526,-4.73216 -4.51948,0.0532 -0.34561,-1.5508 -3.2877,-1.58625 -0.95706,2.0382 -1.53308,-0.1861 -0.4165,1.39129 -3.47379,-2.75599 -0.39878,1.03682 -5.8576,-0.12407 -1.25836,-2.31291 0.51398,-0.78869 -2.59649,-0.28357 0.0177,-4.08526 2.70282,-1.86982 -0.16837,-2.49901 2.1977,-2.11795 0.38992,-7.4527 4.38655,-0.009 0.1152,1.76348 3.43835,0.54942 -0.3013,1.00138 1.34698,-0.23041 -0.19495,-1.44446 -1.64828,-1.0634 1.93185,-2.42811 2.80917,-0.29244 z">
<title
   id="title360">Neschwitz     absolute Anzahl: 9 relativ zur Einwohnerzahl: 0,37 %
</title>
</path>

    <!-- Gemeinde   -->
<path
   style="fill:#a51412;fill-opacity:1;stroke:#000000;stroke-width:0.886172;stroke-linecap:butt"
   onmouseout="style.opacity = 1;"
   onmouseover="style.opacity = 0.5;"
   id="370"
   class="st13"
   d="m 102.5504,475.39969 6.53995,0.46081 2.88006,2.03819 5.00687,0.0443 3.53582,2.21543 0.16838,-1.50649 2.53445,2.04706 2.44583,0.25699 -4.26248,2.3838 1.05454,2.6851 1.74576,-2.06478 4.57265,-0.38105 1.40015,-1.47991 1.16088,0.24813 3.1725,3.23453 -4.02322,2.28632 0.97479,6.76149 1.54194,2.82689 2.64965,1.7369 -2.41039,8.63131 -4.20931,9.92513 -10.51886,-0.50512 -6.49565,-4.35996 -4.82077,2.40152 -4.55493,-0.22154 -9.233908,-3.73965 0.673491,-1.75462 1.763482,-0.99251 -1.098853,-2.74713 -3.385168,0.21268 -0.700076,-6.03483 -2.419252,0.0443 -2.640793,-5.51199 -0.194958,-3.01298 -1.595109,-0.39878 0.186096,-1.33812 4.094115,-1.09885 6.06141,-5.04232 -3.677605,-2.66738 -2.126816,-0.31016 -1.196332,-2.51673 11.599986,-3.19908 z">
<title
   id="title370">Neukirch     absolute Anzahl: 4 relativ zur Einwohnerzahl: 0,25 %
</title>
</path>
 <!-- Gemeinde   -->

<path
   style="fill:#6e1212;fill-opacity:1;stroke:#000000;stroke-width:0.886172;stroke-linecap:butt"
   onmouseout="style.opacity = 1;"
   onmouseover="style.opacity = 0.5;"
   id="380"
   class="st11"
   d="m 273.07559,624.47066 9.70358,0.4165 0.15951,8.66676 -1.53307,0.85959 0.82414,1.83437 -0.53171,3.45607 1.07227,1.15203 -9.12757,2.64079 -0.57601,1.57739 -4.28907,2.59648 -0.63805,2.34836 2.72055,4.0498 -8.50725,-0.61146 -4.27135,-2.95095 -5.61833,-0.9482 -5.54744,-6.77922 0.35447,-3.69534 1.63056,-0.27471 -1.63942,-2.46356 0.1152,-2.39266 1.32926,-1.98503 0.17723,-6.51336 14.40916,-3.98778 z">
<title
   id="title380">Neukirch/Lausitz     absolute Anzahl: 43 relativ zur Einwohnerzahl: 0,89 %
</title>
</path>

    <!-- Gemeinde   -->
<path
   style="fill:#961212;fill-opacity:1;stroke:#000000;stroke-width:0.886172;stroke-linecap:butt"
   onmouseout="style.opacity = 1;"
   onmouseover="style.opacity = 0.5;"
   id="390"
   class="st5"
   d="m 312.0326,597.98209 -0.0266,2.67624 3.1016,5.20183 0.83301,-0.47853 0.50511,2.01161 2.14454,0.0532 1.7369,3.52696 -1.87869,3.00412 -0.96593,-0.36333 -0.0709,2.97754 -3.12819,7.91352 -0.68235,-0.20382 -1.68373,-1.92299 -3.71306,-0.35447 -0.46081,-2.49901 -6.65515,-1.40901 -0.86845,-0.46081 0.23927,-1.77235 -2.02047,0.51398 -0.91276,-1.12543 0.0532,-5.76012 3.07502,-7.41726 1.20519,0.12406 1.41788,-2.80916 1.1343,1.12544 0.78869,-2.63194 1.39129,-0.36333 -0.4165,-1.29381 1.10772,-0.46081 3.55354,0.62919 -0.49625,1.2495 z">
<title
   id="title390">Obergurig     absolute Anzahl: 6 relativ zur Einwohnerzahl: 0,29 %
</title>
</path>

   <!-- Gemeinde   -->
<path
   style="fill:#a51412;fill-opacity:1;stroke:#000000;stroke-width:0.886172;stroke-linecap:butt"
   onmouseout="style.opacity = 1;"
   onmouseover="style.opacity = 0.5;"
   id="410"
   class="st11"
   d="m 175.27942,572.68365 0.48739,3.34087 -0.82414,0.49626 -2.81802,0.50511 0.38105,1.4356 -1.94958,1.49763 -4.86508,1.16089 -0.46967,-0.79756 0.2304,1.60398 -1.9673,2.24201 -6.96531,3.65103 -2.89778,-1.63942 -4.65241,1.24064 -2.83575,-2.96867 -2.41925,-0.94821 1.54194,-3.17249 -0.99251,-1.1343 -0.9039,0.50511 -1.8521,-3.05729 4.13843,-2.14454 -2.3395,-0.4608 0.91276,-0.57602 5.255,-0.63804 0.63804,-2.83575 2.14454,-1.67487 0.0266,-1.14316 4.52834,0.31902 9.03895,3.45607 5.81329,-3.72192 3.42948,-3.86371 3.19908,7.18686 z">
<title
   id="title410">Ohorn     absolute Anzahl: 5 relativ zur Einwohnerzahl: 0,20 %
</title>
</path>

   <!-- Gemeinde   -->
<path
   style="fill:#501212;fill-opacity:1;stroke:#000000;stroke-width:0.886172;stroke-linecap:butt"
   onmouseout="style.opacity = 1;"
   onmouseover="style.opacity = 0.5;"
   id="420"
   class="st5"
   d="m 198.12139,435.5122 7.03621,0.15065 2.04705,2.14454 0.98365,4.12956 2.4547,3.31428 8.60473,-4.52834 5.87532,-1.40015 0.9039,4.44858 -1.24951,5.60061 -5.36134,5.72467 1.6217,1.98503 1.45332,4.6524 0.29244,5.49427 1.11657,-0.63805 1.61284,2.14454 0.54056,7.35523 -2.24201,1.23178 -2.23316,-2.05592 -1.32039,0.50512 -10.04919,6.85011 -0.7178,2.77371 -6.8767,2.76486 -4.77647,-8.68449 -4.09411,-4.17387 -3.89916,-8.57814 -1.16974,0.91276 0.17723,2.25087 -3.32314,0.93048 -4.43973,-1.80779 0.24813,-2.31291 -1.16088,-0.55828 -0.77984,-2.96868 -0.95706,-0.23927 0.6026,-1.16088 -1.35585,-1.23178 -1.41787,3.01298 -2.91551,-1.22291 -3.82826,0.46967 1.03682,-1.39129 2.1534,0.40764 -0.81528,-5.57403 3.11046,-0.86844 1.16975,-1.72804 1.68373,0.16837 0.62918,-1.8521 0.58487,-9.10098 -2.3838,0.0177 -2.6851,-3.09274 0.42536,-2.25088 4.6081,0.23041 -0.50512,-2.07364 3.2168,-0.79756 1.75462,6.77922 3.87257,0.0709 3.2877,-3.08388 0.85073,2.80031 5.13093,7.71855 2.6408,-4.10297 z">
<title
   id="title420">Oßling     absolute Anzahl: 70 relativ zur Einwohnerzahl: 3,10 %
</title>
</path>

   <!-- Gemeinde   -->
<path
   style="fill:#961212;fill-opacity:1;stroke:#000000;stroke-width:0.886172;stroke-linecap:butt"
   onmouseout="style.opacity = 1;"
   onmouseover="style.opacity = 0.5;"
   id="430"
   class="st4"
   d="m 37.760239,582.55649 -3.642167,-0.18609 0.407639,-0.95707 -3.845986,-4.84736 -2.702825,-0.5317 -0.07089,-2.91551 1.8521,-4.40427 5.05118,-3.97891 5.157521,-0.93049 0.407639,-2.74713 1.258365,-0.38105 9.969435,2.92437 2.826888,-1.22292 2.242016,0.4165 2.924367,-6.23865 -0.487394,4.06753 1.745758,0.0975 2.002749,-1.75462 2.52559,1.44446 1.568525,-0.58488 0.02658,1.91413 1.222917,0.79756 2.144537,0.69121 1.302672,-0.77097 0.576012,1.16975 1.763483,0.45195 -3.03957,6.72604 -0.372193,5.76012 -3.29656,0.66463 -0.788693,1.44446 0.319022,2.756 0.833002,0.0532 1.18747,3.52696 -1.471045,-1.93185 0.912757,4.43972 1.143162,0.93934 -4.501754,3.34973 -3.190219,0.64691 -1.860961,4.04094 -1.453322,-0.65577 -1.931855,1.31154 -1.098854,-2.34836 -4.271349,-3.73964 -3.810539,-0.91276 -0.868449,-3.03957 -0.93048,-0.009 -1.586248,-6.25638 -1.329258,-0.98365 z">
<title
   id="title430">Ottendorf-Okrilla     absolute Anzahl: 40 relativ zur Einwohnerzahl: 0,40 %
</title>
</path>

   <!-- Gemeinde   -->
<path
   style="fill:#671212;fill-opacity:1;stroke:#000000;stroke-width:0.886172;stroke-linecap:butt"
   onmouseout="style.opacity = 1;"
   onmouseover="style.opacity = 0.5;"
   id="440"
   class="st15"
   d="m 220.03465,551.89051 0.1152,1.94072 -0.86845,1.17861 -0.31016,-1.39129 -0.23926,1.90527 -3.98778,-0.7178 0.29244,4.67012 2.80917,-0.60259 1.02796,1.71917 -0.62919,1.3204 1.08999,0.90389 -1.4799,2.73827 -5.22842,2.2243 -2.87119,-0.49626 -2.49015,3.94347 -4.69671,2.01161 -2.72941,0.16837 -3.57127,-4.33338 1.84324,-4.24477 2.42811,-0.6469 1.64828,-4.17387 2.04705,-0.43423 -0.29243,-1.87868 1.7812,-1.22292 -0.85072,-4.20932 -1.81665,-0.15064 0.92161,-5.40565 -0.81527,-1.22292 1.11657,-1.56853 1.94072,0.86845 0.40764,-1.26722 -3.18136,-2.20657 0.20382,-3.04843 -1.94072,-1.15203 1.01024,-4.47517 3.97005,2.25974 3.57127,-1.32039 0.58488,1.25836 h 2.94209 l -0.0177,-1.06341 3.62445,0.46968 -0.74439,-3.74851 1.7369,0.3013 0.44309,-1.6217 1.2495,0.4165 -0.51398,1.86096 1.94072,1.10772 3.75737,0.81528 1.99388,-1.41788 -2.50786,2.5699 4.27134,0.15065 1.09886,1.72804 -1.23178,1.35584 0.95706,-0.16837 0.74439,2.75599 4.26249,0.73552 1.04568,1.86096 1.88755,-0.75324 -1.15203,0.98365 0.0886,2.33063 2.80916,0.32789 0.65577,-1.46219 1.40015,0.0975 0.0798,1.59511 5.91077,0.98365 -0.31016,1.42674 0.47853,1.61283 -0.97479,2.28632 1.71031,0.89504 -0.31016,2.86233 -3.08388,-0.062 -3.88143,-3.1016 -4.05867,3.46493 0.82414,-1.33812 -2.09136,-0.66463 -0.86845,-1.92299 -1.67487,0.4165 0.0532,-0.75324 -2.75599,-0.99252 0.32788,-3.57127 -6.42475,1.27609 -0.17723,1.19633 -0.0886,-1.1343 -1.44446,0.2304 z">
<title
   id="title440">Panschwitz-Kuckau     absolute Anzahl: 26 relativ zur Einwohnerzahl: 1,24 %
</title>
</path>

    <!-- Gemeinde   -->
<path
   style="fill:#671212;fill-opacity:1;stroke:#000000;stroke-width:0.886172;stroke-linecap:butt"
   onmouseout="style.opacity = 1;"
   onmouseover="style.opacity = 0.5;"
   id="450"
   class="st4"
   d="m 127.11509,561.62511 -4.51948,-0.88617 -2.55218,-7.31092 -4.41313,-3.33201 -1.54194,-5.31703 -1.84324,0.37219 -0.79756,-4.52833 -2.02933,-1.61284 8.64018,-5.17524 8.32115,-1.28495 -0.0354,-1.24064 0.7621,2.58762 4.98915,-1.00137 2.6851,4.27134 -1.19633,0.52285 1.12544,3.37631 -0.82414,2.23315 2.14454,-0.17723 2.49014,6.66401 1.18747,0.33675 0.22154,6.71718 1.05455,1.63056 1.18747,-0.23041 0.79755,1.78121 2.99526,0.28358 3.65103,1.84323 1.22292,1.56853 -0.86845,1.62169 2.31291,1.83438 -0.0266,1.14316 -2.14454,1.67487 -0.63805,2.83575 -5.255,0.63804 -0.91275,0.57601 2.33949,0.46081 -4.13842,2.14454 1.8521,3.05729 0.90389,-0.50512 1.00138,1.1343 -1.5508,3.1725 -3.8194,1.58625 -3.03957,-2.77372 -5.96394,1.53308 -2.49015,-1.39129 -1.68372,-7.41726 0.90389,-0.36333 -1.52421,-2.83576 0.73552,-4.52833 -0.85072,-1.8521 z">
<title
   id="title450">Pulsnitz     absolute Anzahl: 84 relativ zur Einwohnerzahl: 1,12 %
</title>
</path>

    <!-- Gemeinde   -->
<path
   style="fill:#821212;fill-opacity:1;stroke:#000000;stroke-width:0.886172;stroke-linecap:butt"
   onmouseout="style.opacity = 1;"
   onmouseover="style.opacity = 0.5;"
   id="460"
   class="st11"
   d="m 256.67077,519.23153 0.4165,-1.39129 1.53308,0.1861 0.95707,-2.0382 3.2877,1.58625 0.3456,1.5508 4.51948,-0.0532 2.99526,4.73216 1.22292,0.15065 -2.56104,3.1016 -2.92437,1.7369 0.27472,0.85958 -1.19633,0.0709 -0.40764,2.17998 -1.05455,0.32788 0.66463,4.86509 -1.65714,2.64965 -2.11795,0.15065 -0.23041,1.83438 1.82552,0.58487 -1.38243,0.91276 -7.86035,-0.54057 -0.49625,-1.16975 -1.5508,-0.27471 -0.13293,-6.01711 -5.4854,-1.40901 -1.75463,-3.55355 1.10772,-0.93048 -0.13293,-4.10298 2.23316,-1.32925 -0.16838,-6.51337 5.8576,0.12407 0.39878,-1.04569 z">
<title
   id="title460">Puschwitz     absolute Anzahl: 6 relativ zur Einwohnerzahl: 0,73 %
</title>
</path>

    <!-- Gemeinde   -->
<path
   style="fill:#551212;fill-opacity:1;stroke:#000000;stroke-width:0.886172;stroke-linecap:butt"
   onmouseout="style.opacity = 1;"
   onmouseover="style.opacity = 0.5;"
   id="470"
   class="st9"
   d="m 232.17964,507.12287 2.77372,-0.71779 0.80641,1.73689 -0.93048,1.38243 1.23178,0.009 -0.16837,6.4602 1.45332,0.13292 -0.009,3.30542 -1.18747,-0.0532 -0.21268,2.83575 1.21405,0.63805 0.0266,1.75462 -2.43698,-0.92162 -1.08999,1.32926 -0.27471,-1.35585 -0.54056,1.47991 -1.5065,-0.0354 0.0177,1.60398 -1.55967,1.05454 0.56715,0.38992 -2.31291,0.70893 0.44309,2.16226 -1.22292,0.93048 -2.00275,1.41788 -3.7485,-0.81528 -1.94072,-1.09885 0.51398,-1.86982 -1.2495,-0.41651 -0.25699,-1.01023 -2.55218,-0.38992 -0.36333,-1.20519 2.61421,-0.21268 v -1.97617 l -2.51673,-1.16088 -0.20382,-1.5508 -2.32177,0.1152 -0.39878,-3.01299 0.25699,-1.16088 0.88617,0.45195 0.42537,-2.79144 -1.1343,-0.83301 0.12406,-3.77509 2.40153,-2.73827 3.88143,-1.16975 6.02597,2.44584 0.29244,1.33812 1.76348,0.32788 z">
<title
   id="title470">Räckelwitz     absolute Anzahl: 22 relativ zur Einwohnerzahl: 1,95 %
</title>
</path>

    <!-- Gemeinde   -->
<path
   style="fill:#961212;fill-opacity:1;stroke:#000000;stroke-width:0.886172;stroke-linecap:butt"
   onmouseout="style.opacity = 1;"
   onmouseover="style.opacity = 0.5;"
   id="480"
   class="st4"
   d="m 110.20515,604.73915 0.33675,4.20046 1.38242,1.07227 -1.52421,1.01023 -2.25088,0.3013 -1.65714,4.51062 -1.24064,-1.33812 -1.65714,0.61145 2.30405,3.19022 -0.23927,2.30405 -0.85959,-0.0266 -0.73552,3.5181 -1.80779,0.50512 -0.92162,2.39266 -3.314284,2.73827 3.420624,5.34362 2.1534,-0.27471 2.81803,6.75263 -1.28495,4.20045 1.98502,0.7178 0.73552,1.53308 -2.69396,0.99251 -0.92162,-0.6026 -2.28632,3.84599 1.00137,1.46218 0.54057,-0.77096 1.53307,1.16088 -0.52284,0.70894 -8.835131,1.87868 0.833001,-1.11657 -1.763482,0.6469 -0.965927,-1.22292 0.833001,-0.86844 -3.597849,-2.79145 -8.108477,-1.12543 -4.227043,-1.91414 3.128187,-3.5181 2.472423,-1.15202 0.372192,-1.77235 -2.490146,-0.7178 2.259741,-1.84323 -0.06203,-1.3204 2.312909,-0.49626 -0.327883,1.40016 -1.666004,0.0797 2.339494,2.34836 1.887547,-1.35585 -0.7178,-2.05592 0.726661,-1.27608 1.444463,-0.1861 0.691215,-2.99526 -0.97479,-1.50649 0.638044,-0.4165 -1.53308,-1.32926 -1.612833,0.15065 -1.453322,-2.76486 -1.878685,-0.95706 1.639418,-3.11933 -2.818026,-2.1534 0.186096,-1.32926 h -2.401529 l -3.030708,-7.23116 -2.667378,-1.90527 -1.1343,-2.62307 -0.815279,-4.17387 8.170506,-3.07502 0.08862,-3.8194 0.700075,1.923 2.640796,-0.12407 1.417875,1.23178 0.762108,-1.16088 2.21543,1.1343 0.39878,-2.17999 2.32177,2.09137 -0.336745,1.07227 2.835742,3.47379 0.265851,-0.79755 2.853474,0.72666 6.858968,-1.72804 2.89778,2.10909 1.79893,-1.61283 z">
<title
   id="title480">Radeberg     absolute Anzahl: 63 relativ zur Einwohnerzahl: 0,34 %
</title>
</path>

    <!-- Gemeinde   -->
<path
   style="fill:#821212;fill-opacity:1;stroke:#000000;stroke-width:0.886172;stroke-linecap:butt"
   onmouseout="style.opacity = 1;"
   onmouseover="style.opacity = 0.5;"
   id="490"
   class="st5"
   d="m 292.23995,516.10511 0.97478,-0.44308 -0.22154,-1.83438 3.4738,-5.57402 6.29182,-14.43574 11.56454,3.17249 1.09885,-4.18273 3.12819,-3.50924 -2.1977,-7.2223 -0.009,-1.90527 1.4356,-2.09137 1.31154,-0.28357 2.16226,-3.30542 3.97891,-8.20596 6.22093,-1.38242 1.14316,-2.756 2.47242,-2.01161 2.22429,0.20382 1.44446,1.94958 0.0709,8.09961 1.37357,1.666 0.39878,2.60535 -0.93048,-0.0354 -0.39878,1.24064 1.77234,1.99389 1.18747,-0.2304 -2.72941,11.59999 -2.76485,2.9864 0.37219,2.00275 2.4547,2.09136 0.0797,6.42475 -6.49564,5.21955 -0.0975,-1.68372 -4.52834,0.7621 -1.19633,1.55967 0.0266,3.25225 -2.16226,1.48877 -2.01161,-0.25699 0.63804,1.79893 -1.00137,0.54942 -0.0266,1.48877 3.84599,0.15951 1.5508,1.02796 1.29381,2.57876 -2.83575,1.56853 1.94958,0.0886 1.27609,2.47242 -1.94958,0.64691 -0.88618,1.51535 -1.84323,-0.15951 -1.88755,8.95034 -1.3647,-0.26585 -0.79756,3.16363 -1.10771,-0.26585 -0.91276,1.27609 -0.99251,3.75737 -4.87395,0.92162 -2.20657,-2.62307 -3.32314,0.0177 1.16088,6.96531 -1.54194,2.25974 -4.08525,-2.10909 0.2304,-1.48877 -1.51535,-0.2304 -0.0177,1.17861 -0.91276,0.0532 0.46967,-1.26723 -0.86845,0.54057 0.21268,-0.7178 -2.74713,-1.94072 -2.64079,1.46218 -1.17861,2.11795 0.98365,0.70894 -0.54056,1.31154 -3.26112,-1.9673 1.12544,-0.54057 -0.74438,-2.06478 -0.63805,0.93048 -2.12681,-1.83438 -2.51673,2.29519 -1.55966,-1.31154 -2.06478,1.57739 -2.41925,-1.71031 0.61146,-4.69671 3.54468,0.93048 0.99252,-4.54606 -0.64691,-2.19771 5.06004,1.09885 1.29382,-7.2223 -0.57602,-2.62307 -1.07226,-0.31902 2.95981,-5.76012 z">
<title
   id="title490">Radibor     absolute Anzahl: 17 relativ zur Einwohnerzahl: 0,55 %
</title>
</path>

<!-- Gemeinde Ralbitz-Rosenthal  -->
<path
   style="fill:#961212;fill-opacity:1;stroke:#000000;stroke-width:0.886172;stroke-linecap:butt"
   onmouseout="style.opacity = 1;"
   onmouseover="style.opacity = 0.5;"
   id="500"
   class="st6"
   d="m 247.51219,464.54851 3.11046,7.72742 0.40764,6.52223 -0.15065,4.36883 -2.18885,8.34774 -0.33674,11.91901 -2.20657,2.11795 0.16837,2.49901 -2.69396,1.86982 0.0266,2.19771 -3.22567,-0.58488 -0.29244,1.4356 -1.80779,-0.5317 1.61284,1.14316 -1.89641,-0.5317 -0.70008,3.07501 -1.45332,-0.14178 0.17723,-6.45134 -1.23178,-0.009 0.92162,-1.38243 -0.79755,-1.73689 -2.78258,0.7178 -4.422,3.73964 -1.76348,-0.32788 -1.12544,-7.93124 -2.43697,-4.73216 0.45194,-6.3893 -5.76011,-7.25775 -0.45195,3.7042 -1.36471,0.93048 -3.11932,-0.18609 -2.52559,1.51535 -1.46219,-0.62032 -0.0443,-1.35584 1.61283,-1.32926 -0.26585,-1.47991 0.70893,-2.78258 10.0492,-6.85011 1.32039,-0.49626 2.23315,2.05592 2.25088,-1.23178 -0.54942,-7.36408 5.31703,-1.51536 4.96256,-2.5699 0.45195,-1.15202 1.45332,0.833 z">
<title
   id="title500">Ralbitz-Rosenthal     absolute Anzahl: 6 relativ zur Einwohnerzahl: 0,35 %
</title>
</path>

    <!-- Gemeinde   -->
<path
   style="fill:#821212;fill-opacity:1;stroke:#000000;stroke-width:0.886172;stroke-linecap:butt"
   onmouseout="style.opacity = 1;"
   onmouseover="style.opacity = 0.5;"
   id="510"
   class="st11"
   d="m 174.48098,579.05523 -3.38518,2.11795 -0.54056,-1.21406 1.95844,-1.48876 -0.38992,-1.44447 2.81803,-0.50511 4.18273,1.99388 0.81528,-1.42673 0.87731,0.57601 1.51535,-2.51673 4.15615,2.76486 10.95309,9.34025 -0.28358,2.44583 2.25088,0.45195 -4.36883,5.91963 0.84186,5.83101 -7.38181,2.41925 -4.19159,-2.25087 -5.8576,-7.75401 0.77983,-4.85622 -0.93048,-6.07028 -3.94347,0.0532 0.88618,-1.83438 z">
<title
   id="title510">Rammenau     absolute Anzahl: 7 relativ zur Einwohnerzahl: 0,52 %
</title>
</path>

    <!-- Gemeinde   -->
<path
   style="fill:#821212;fill-opacity:1;stroke:#000000;stroke-width:0.886172;stroke-linecap:butt"
   onmouseout="style.opacity = 1;"
   onmouseover="style.opacity = 0.5;"
   id="525"
   class="st5"
   d="m 314.28436,624.50433 11.59999,-0.16837 1.26723,2.25088 2.57876,0.48739 0.48739,1.33812 2.21543,0.81528 0.25699,-1.6217 2.93323,-0.97479 5.28159,0.15952 -0.53171,5.71581 -2.64079,1.41787 -0.1152,1.08999 2.93323,4.422 4.16501,1.00137 -0.26586,7.94897 -5.27272,1.80779 -0.96593,2.52559 1.11658,1.50649 -3.66875,0.68235 -1.03682,-2.58762 -5.96394,-1.09885 -8.6579,2.20657 1.55966,3.84598 -3.75737,2.25088 -2.78258,-0.92162 -3.11046,0.38992 -7.00962,-3.72193 -3.02185,-2.94209 -1.53308,-4.03208 8.36547,-4.92712 0.42536,-1.84323 2.58762,-1.93186 -1.3647,-0.50512 0.84186,-1.07226 0.16837,-4.35111 1.47991,-1.56852 0.75325,-7.79832 z">
<title
   id="title525">Schirgiswalde-Kirschau     absolute Anzahl: 35 relativ zur Einwohnerzahl: 0,57 %
</title>
</path>

   <!-- Gemeinde   -->
<path
   style="fill:#b42215;fill-opacity:1;stroke:#000000;stroke-width:0.886172;stroke-linecap:butt"
   onmouseout="style.opacity = 1;"
   onmouseover="style.opacity = 0.5;"
   id="530"
   class="st4"
   d="m 250.74671,611.32784 -0.50511,1.36471 1.46218,2.3129 0.61146,6.00825 0.2304,1.05455 0.833,-0.15952 0.26586,2.30405 -4.75875,1.24064 -0.17723,6.51337 -1.32926,1.98502 -0.12406,2.39267 1.64828,2.46355 -1.63056,0.27472 -0.35447,3.69533 5.54744,6.77922 -3.08388,5.23728 -4.27135,3.42062 -3.76623,0.85073 0.76211,-3.1725 -1.91413,-1.47104 0.21268,-1.49764 -1.75462,-3.26997 -5.12208,-1.27609 0.82414,-1.29381 -2.07364,-1.20519 -12.3621,-5.21069 -0.58487,0.73552 -7.24003,-1.92299 -2.22429,3.91688 -2.0382,-0.62919 0.38992,-0.91275 -1.41788,-0.81528 1.84324,-3.04843 -2.64079,-0.95707 0.63804,-0.74438 2.00275,0.65576 0.28358,-0.7621 -4.16501,-1.25837 0.9482,-1.24064 3.91688,0.28358 -1.19633,-6.28296 1.20519,-1.04569 -1.14316,-0.25699 2.41925,-2.22429 4.39542,-0.65577 2.11795,1.94958 2.9155,-0.0975 2.10023,1.31154 5.22841,-9.05668 -0.72666,-0.77097 0.76211,-1.24064 -1.99389,-2.48128 -2.71168,-1.18747 0.85959,-2.63193 3.64216,-1.78121 -0.55829,-1.41787 4.23591,2.87119 5.29044,-0.42536 2.67624,2.05592 5.18411,-1.01024 z">
<title
   id="title530">Schmölln-Putzkau     absolute Anzahl: 6 relativ zur Einwohnerzahl: 0,20 %
</title>
</path>

    <!-- Gemeinde   -->
<path
   style="fill:#961212;fill-opacity:1;stroke:#000000;stroke-width:0.886172;stroke-linecap:butt"
   onmouseout="style.opacity = 1;"
   onmouseover="style.opacity = 0.5;"
   id="550"
   class="st11"
   d="m 92.082943,459.81104 -1.214056,-5.60061 1.364696,-2.77372 -1.240632,-4.68785 -4.865087,2.59649 -4.014362,-12.10511 2.995264,-1.90527 0.629182,0.63804 1.896408,-0.81528 1.329258,1.09886 4.25362,-1.36471 -0.372192,-3.26111 9.154158,-2.24202 2.81803,-2.00275 1.49763,0.28358 6.10572,-5.32589 3.57127,-0.31016 4.99801,2.76485 -1.07226,12.37096 13.1242,2.38381 4.7233,5.66264 -3.9346,3.92574 -3.65989,7.04506 1.79006,2.9421 3.32315,3.29656 8.22368,-1.49764 4.42199,2.91551 5.06891,-0.17723 -1.0191,1.01023 -0.99251,5.87532 -2.23316,2.2686 -4.72329,0.69122 -12.69885,8.83513 -1.15202,-0.24813 -1.40902,1.47991 -4.57264,0.38105 -1.74576,2.06479 -1.04568,-2.68511 4.25362,-2.3838 -2.44583,-0.25699 -2.53446,-2.04706 -0.15951,1.5065 -3.53582,-2.21543 -5.00687,-0.0354 -2.88893,-2.04706 -6.53994,-0.46081 -3.385182,-12.97355 z">
<title
   id="title550">Schwepnitz     absolute Anzahl: 11 relativ zur Einwohnerzahl: 0,44 %
</title>
</path>

    <!-- Gemeinde   -->
<path
   style="fill:#821212;fill-opacity:1;stroke:#000000;stroke-width:0.886172;stroke-linecap:butt"
   onmouseout="style.opacity = 1;"
   onmouseover="style.opacity = 0.5;"
   id="560"
   class="st13"
   d="m 294.30561,674.58546 -5.27272,-4.73216 4.64354,-14.06355 8.20595,-3.46493 3.02185,2.95095 7.00962,3.72192 3.1016,-0.38991 2.78258,0.92161 3.76623,-2.25973 -1.55966,-3.84599 8.64904,-2.19771 5.96394,1.08999 1.04568,2.58763 3.66875,-0.68236 1.89641,1.41788 -0.45195,0.58487 4.7233,2.95096 -2.41039,8.64903 2.80917,0.4874 v 3.19908 l 1.35584,5.47654 -0.77097,8.62246 -8.04644,-1.54194 0.44308,-2.78258 -2.17112,-1.00138 -2.06478,-3.09274 -5.21955,-0.45195 -8.26799,6.16776 -1.40015,2.51673 -5.38792,2.99526 -4.55493,0.15951 -9.53521,-4.62582 -1.99389,-2.17998 -0.16837,-7.08937 z">
<title
   id="title560">Sohland a. d. Spree     absolute Anzahl: 50 relativ zur Einwohnerzahl: 0,74 %
</title>
</path>

   <!-- Gemeinde   -->
<path
   style="fill:#821212;fill-opacity:1;stroke:#000000;stroke-width:0.886172;stroke-linecap:butt"
   onmouseout="style.opacity = 1;"
   onmouseover="style.opacity = 0.5;"
   id="570"
   class="st4"
   d="m 329.39625,323.2351 1.15202,1.57738 0.70008,6.78808 -5.51199,12.8938 8.5427,0.23041 6.39816,1.72803 0.0443,7.2932 4.71443,1.97616 -2.10022,1.69259 -2.35722,-0.65577 -1.35584,6.69946 1.94957,1.37357 -0.17723,2.36608 -1.60397,2.41925 -0.80642,-0.55829 2.59649,3.97005 4.62581,2.22429 -1.15202,1.31154 2.54331,3.07501 2.02048,0.24813 -3.64217,2.8712 -1.57739,4.43972 3.13705,1.60397 6.8058,0.10634 1.64828,3.06616 -0.55829,4.41313 6.03484,0.73553 0.7621,1.81665 -0.82414,2.77372 -0.97479,-0.1152 -4.25362,7.74514 1.10771,3.24339 -3.03957,-0.0443 0.062,1.76348 -8.00214,1.02796 1.67487,-12.67226 -3.30542,0.66463 -4.03209,-1.78121 -1.16974,-2.01161 -2.94209,-0.72666 -3.08388,-5.01573 -2.5699,2.83575 0.19496,1.46218 -1.47991,0.93935 -14.71046,-0.0798 -5.60947,-2.44583 1.33812,-7.5236 -1.10771,-0.19496 0.10634,-1.65714 -3.36745,-0.0177 0.062,2.17999 -6.69946,-0.4165 -0.67349,-2.78258 -1.4356,-0.12407 -3.4029,1.57739 -3.93461,4.24476 0.13293,-1.86096 -2.10023,-0.82414 -3.83712,0.64691 -0.73552,1.54193 -5.8576,-9.55293 2.25974,-0.9482 -0.56715,-0.77097 -6.97418,-1.42674 -1.31153,0.75325 -0.31902,-1.18747 -4.70558,0.15065 -0.0975,-3.38518 -1.54193,-0.37219 1.47104,-1.30268 0.12407,-8.87944 7.94896,3.97005 -0.0709,2.34836 7.42613,4.69671 4.35996,-7.4084 0.88617,-3.83713 -3.22566,-0.82414 -3.50038,-3.12818 -0.0266,-2.88006 1.54194,-1.23178 -2.89778,-3.26998 -3.38518,-1.24064 0.69122,-1.84323 1.01023,0.0709 -0.17723,-2.74713 2.22429,1.73689 3.39404,-1.73689 1.4356,-7.19572 -1.35585,0.009 0.3013,-2.34835 7.20458,-0.61146 8.57815,-7.8958 4.21818,-0.20381 -0.009,-5.4411 5.26387,-0.14179 4.74102,3.32315 2.36607,-1.64828 11.5291,-3.49152 z">
<title
   id="title570">Spreetal     absolute Anzahl: 11 relativ zur Einwohnerzahl: 0,60 %
</title>
</path>

    <!-- Gemeinde   -->
<path
   style="fill:#821212;fill-opacity:1;stroke:#000000;stroke-width:0.886172;stroke-linecap:butt"
   onmouseout="style.opacity = 1;"
   onmouseover="style.opacity = 0.5;"
   id="580"
   class="st16"
   d="m 148.30346,549.79117 8.23254,-0.81528 2.12681,2.67624 -1.15203,1.68373 0.29244,1.55966 4.09412,-0.86845 3.56241,5.59175 3.91688,0.15065 4.72329,2.35721 1.00138,1.23178 -3.43835,3.87258 -5.81329,3.71306 -9.03009,-3.44721 -4.5372,-0.32789 -2.31291,-1.83437 0.86845,-1.6217 -1.22292,-1.56852 -3.65103,-1.83438 -2.99526,-0.29243 -0.79755,-1.77235 -1.18747,0.22154 -1.05455,-1.62169 -0.22154,-6.72605 -1.18747,-0.32788 -2.49014,-6.66401 0.63804,-0.82414 9.10985,-0.79756 z">
<title
   id="title580">Steina     absolute Anzahl: 9 relativ zur Einwohnerzahl: 0,55 %
</title>
</path>

    <!-- Gemeinde   -->
<path
   style="fill:#821212;fill-opacity:1;stroke:#000000;stroke-width:0.886172;stroke-linecap:butt"
   onmouseout="style.opacity = 1;"
   onmouseover="style.opacity = 0.5;"
   id="590"
   class="st11"
   d="m 268.13429,650.02165 0.64691,-2.34835 4.28021,-2.59648 0.58487,-1.57739 9.12758,-2.64079 3.68647,-0.74439 4.35997,0.62032 3.12818,3.95233 6.39817,3.61558 1.53307,4.02322 -8.19709,3.46493 -4.64354,14.06355 -6.6906,2.64966 -0.7621,1.69259 -3.61559,-0.009 -4.34224,-5.64492 -0.10634,-1.63056 -3.81054,-3.78395 0.46967,-1.37357 -1.02796,-2.65851 -2.47242,0.44308 -1.0191,-1.30267 2.65852,-0.1152 0.833,0.89503 1.70145,-4.94484 z">
<title
   id="title590">Steinigtwolmsdorf     absolute Anzahl: 18 relativ zur Einwohnerzahl: 0,64 %
</title>
</path>

    <!-- Gemeinde   -->
<path
   style="fill:#961212;fill-opacity:1;stroke:#000000;stroke-width:0.886172;stroke-linecap:butt"
   onmouseout="style.opacity = 1;"
   onmouseover="style.opacity = 0.5;"
   id="600"
   class="st11"
   d="m 73.985976,564.07272 -1.763483,-0.44309 -0.576011,-1.16974 3.128187,-1.6217 4.023221,-0.38991 4.439724,-2.49901 4.351105,0.47853 2.250879,-0.50512 3.686467,0.98366 1.710312,-1.14317 2.020472,0.63805 -1.816653,2.46356 -2.986399,0.70893 2.818027,2.36608 2.117951,-1.01023 3.358595,2.95095 0.84186,6.11459 -2.463558,4.11183 1.134298,1.14317 -1.107713,1.53307 -0.194958,4.51948 1.054541,3.05729 2.44584,0.66463 3.79281,-4.08525 11.21894,6.14117 0.86845,-0.66463 3.81054,3.51811 0.46081,-0.86845 2.50787,0.833 0.49625,2.27746 -1.19633,1.77235 -1.86096,0.009 -0.0709,2.72941 -5.93736,2.65851 0.0798,2.05592 -0.99251,-1.26722 -1.06341,0.15065 -4.36883,2.45469 -1.1343,-1.40901 -1.79893,1.61283 -2.89778,-2.10909 -6.850109,1.72804 -2.862336,-0.72666 -0.265852,0.79755 -2.835741,-3.47379 0.336745,-1.07227 -2.32177,-2.09137 -0.39878,2.17999 -2.21543,-1.1343 -0.762108,1.16088 -1.417876,-1.23178 -2.640795,0.12407 -0.700076,-1.923 -1.860961,-0.44308 0.372192,-1.923 -1.75462,-0.68235 -0.06203,-1.34698 -0.903896,-0.26585 0.673491,-1.22292 -1.834376,-0.51398 -0.815278,-1.53308 -3.24339,1.17861 -3.739646,-2.89778 -0.912757,-4.43972 1.479907,1.92299 -1.196332,-3.5181 -0.833001,-0.0532 -0.319022,-2.756 0.788693,-1.44446 3.29656,-0.66463 0.372192,-5.76011 z">
<title
   id="title600">Wachau     absolute Anzahl: 13 relativ zur Einwohnerzahl: 0,30 %
</title>
</path>

    <!-- Gemeinde   -->
<path
   style="fill:#671212;fill-opacity:1;stroke:#000000;stroke-width:0.886172;stroke-linecap:butt"
   onmouseout="style.opacity = 1;"
   onmouseover="style.opacity = 0.5;"
   id="610"
   class="st5"
   d="m 406.92478,543.05006 2.88006,5.13094 0.19496,-0.88618 1.34698,0.0798 0.65577,-2.89778 2.42811,-2.88006 1.60397,-0.23041 1.74576,3.37632 -1.34698,1.19633 -0.82414,4.36883 1.75462,-0.0354 0.59373,1.52422 2.27746,0.97479 -0.35446,0.80641 2.99526,1.65715 3.22566,-0.0975 0.28358,-1.33812 1.07227,0.3456 -0.15065,0.93048 4.47517,-0.12406 -1.39129,3.44721 0.23926,3.67761 -2.8003,1.64828 1.12544,2.59649 -4.04981,1.68372 3.01299,0.69122 0.47853,0.97479 1.03682,-0.85073 -0.4165,0.57601 2.42811,1.3204 -1.95844,0.27471 0.96593,0.88618 4.79419,1.0634 2.32177,-0.54942 -1.35584,0.9482 2.74713,2.61421 -0.13293,0.85072 -2.49014,0.69122 -0.1152,1.20519 -3.1016,2.66738 1.28494,1.87868 -0.96592,0.73552 0.26585,2.27747 -2.93323,-1.23178 0.77097,0.96593 -1.87869,0.51398 0.0798,2.05591 -1.38243,0.77097 0.12407,1.47991 2.17112,1.08999 -1.08113,3.90802 1.19633,0.68235 -0.062,2.08251 -3.08388,0.0354 0.65577,-1.76348 -0.87731,0.0266 -0.23041,1.83437 -1.40901,-0.0975 0.50512,-1.56852 -2.40153,-0.54943 -0.28358,-2.24201 -0.49625,0.6469 -2.18885,-2.17998 -0.60259,0.92162 -1.40016,-0.96593 -2.76485,3.13705 -0.75325,-0.29244 0.58488,0.88618 -1.11658,3.18135 -1.70145,0.009 -0.82414,1.63055 -0.23041,-0.76211 -1.72803,1.33812 -0.73552,-3.76623 -1.94072,-0.14178 -0.20382,-5.24614 1.02796,-4.47517 -3.98778,-0.1152 -1.01909,-3.92575 -1.16089,-0.28357 -0.17723,2.82689 -1.63056,1.91413 -4.22704,-0.64691 0.6026,-2.97753 -1.24951,-1.34699 -0.14178,-2.15339 2.39266,-2.9864 -1.40015,-1.98503 1.87868,0.0354 -3.03957,-3.18136 -3.71306,1.54194 -0.27471,-2.66738 -0.78869,-0.32788 -1.19633,3.55355 -3.88144,3.46493 -1.19633,-0.6026 -0.9482,2.73828 -2.19771,0.38991 -0.78869,-0.85959 -1.35585,3.26112 -4.16501,-0.52284 -3.18135,2.35721 -2.65852,0.87731 -1.63942,-1.20519 -0.0177,-1.15202 1.93185,-3.55355 -0.74438,-3.87258 1.44446,0.27472 0.21268,-1.06341 0.93048,0.10634 0.33675,-2.35722 -1.46219,0.29244 2.18885,-1.08113 0.29244,-4.03208 0.86844,-0.19496 -0.73552,-6.41588 1.8521,-1.54194 -0.17723,-1.95844 3.59785,0.90389 0.77984,1.10772 2.51672,-2.22429 1.32926,1.18747 0.92162,-0.31903 0.49626,1.33812 2.02933,-0.38105 0.4874,2.37494 3.20794,2.00275 1.39129,0.4165 2.33063,-1.14316 0.3013,-2.37494 1.23178,0.38105 2.50787,-2.51673 0.73552,-7.30205 1.83437,0.27471 1.48877,-2.96868 1.25837,0.77097 -1.52422,-1.71917 2.29519,-6.10573 z">
<title
   id="title610">Weißenberg     absolute Anzahl: 37 relativ zur Einwohnerzahl: 1,20 %
</title>
</path>

   <!-- Gemeinde   -->
<path
   style="fill:#671212;fill-opacity:1;stroke:#000000;stroke-width:0.886172;stroke-linecap:butt"
   onmouseout="style.opacity = 1;"
   onmouseover="style.opacity = 0.5;"
   id="630"
   class="st11"
   d="m 294.12661,614.75378 3.4029,0.52284 0.91275,1.12544 2.02048,-0.52284 -0.23927,1.77234 0.85959,0.46968 6.66401,1.40901 0.46081,2.49014 3.7042,0.35447 1.68372,1.92299 -0.74438,7.79832 -1.48877,1.56852 -0.15951,4.35111 -0.84186,1.07226 1.3647,0.51398 -2.59648,1.93186 -0.4165,1.83438 -8.36547,4.93597 -6.39816,-3.61558 -3.12819,-3.96119 -4.35996,-0.61146 -3.68648,0.73553 -1.08113,-1.14316 0.53171,-3.46494 -0.81528,-1.82551 1.53307,-0.85959 -0.16837,-8.67562 4.57265,-0.0798 5.13094,1.76348 z">
<title
   id="title630">Wilthen     absolute Anzahl: 50 relativ zur Einwohnerzahl: 1,02 %
</title>
</path>
   <!-- Gemeinde   -->

<path
   style="fill:#6e1212;fill-opacity:1;stroke:#000000;stroke-width:0.886172;stroke-linecap:butt"
   onmouseout="style.opacity = 1;"
   onmouseover="style.opacity = 0.5;"
   id="640"
   class="st5"
   d="m 248.43292,407.08912 5.60061,1.79007 1.63055,3.29656 3.85485,-1.57739 2.81803,2.17112 5.38792,-2.6851 v 5.79557 l 2.22429,1.91413 -0.85958,2.0825 2.65851,3.54469 -0.77097,4.9537 -1.20519,1.2052 -0.54056,-1.02796 -2.30405,1.94071 -0.80642,-2.46355 -1.45332,0.30129 -1.82551,0.83301 0.009,1.48876 -5.91077,1.16089 -0.75325,1.47105 0.74439,9.49976 5.64491,13.53185 -6.53108,3.91688 -8.60473,3.42062 0.0709,0.89503 -9.81879,-0.22154 -1.45332,-0.833 -0.45195,1.15202 -4.96256,2.5699 -5.31703,1.51536 -1.60397,-2.14454 -1.12544,0.6469 -0.29244,-5.50312 -1.45332,-4.65241 -1.61283,-1.98502 5.36134,-5.72467 1.24064,-5.60061 -0.89504,-4.44858 -5.87532,1.40901 -8.61359,4.52834 -2.44583,-3.31428 -0.99251,-4.12957 -2.04706,-2.14453 -1.97617,-5.17525 1.55081,-1.41787 h 2.99526 l 0.68235,-1.86096 -1.25837,-1.24951 1.87869,-4.4663 2.8003,-3.13705 2.58763,-0.58487 1.50649,-2.23316 h 3.50038 l 1.65714,-1.31153 h 5.36134 l -0.1152,1.41787 0.99251,0.13293 1.21406,-1.5508 6.77035,5.68922 -0.0709,1.81665 3.07501,-0.14178 2.40153,-2.96868 -0.0532,-4.35997 3.42062,0.0886 -0.46081,-6.42475 z">
<title
   id="title640">Wittichenau     absolute Anzahl: 43 relativ zur Einwohnerzahl: 0,75 %
</title>
</path>

<g
   transform="matrix(0.886172,0,0,0.886172,-19.10595,121.88619)"
   id="g3848"><rect
     style="fill:none;stroke:none;stroke-width:0.75;stroke-linecap:round;stroke-linejoin:round"
     id="rect2088"
     class="st17"
     height="126.51"
     width="256.50699"
     y="677.96271"
     x="299.104"
     v:rectContext="foreign" /><rect
     style="fill:none;stroke:none;stroke-width:0.75;stroke-linecap:round;stroke-linejoin:round"
     id="rect2607"
     class="st17"
     height="126.51"
     width="256.50699"
     y="677.96271"
     x="299.104"
     v:rectContext="foreign" /></g>
	
	  <!-- Legende   -->
	<rect
   style="fill:#d7fcc8;fill-opacity:1;stroke-width:0.24120006"
   y="715.11523"
   x="7.317637"
   height="13.516147"
   width="28.518526"
   id="RE_d7fcc8">
<title
   id="TRE_D7FCC8">#D7FCC8</title></rect>

<!-- Legende   -->
<rect
   style="fill:#fbf77b;fill-opacity:1;stroke-width:0.24120006"
   y="742.14752"
   x="7.317637"
   height="13.516147"
   width="28.518526"
   id="rect4574">
<title
   id="TRE_FBF77B">#fbf77b</title></rect>

<!-- Legende   -->
<rect
   style="fill:#fdfecd;fill-opacity:1;stroke-width:0.24120006"
   y="728.63141"
   x="7.317637"
   height="13.516147"
   width="28.518526"
   id="RE_FDFECD">
<title
   id="TRE_FDFECD">#FDFECD</title></rect>

<!-- Legende   -->
<rect
   style="fill:#ffb534;fill-opacity:1;stroke-width:0.24120006"
   y="755.6637"
   x="7.317637"
   height="13.516147"
   width="28.518526"
   id="RE_FFB534">
<title
   id="TRE_FFB534">#FFB534</title></rect>

<!-- Legende   -->
<rect
   style="fill:#b42215;fill-opacity:1;stroke-width:0.24120006"
   y="782.69604"
   x="7.317637"
   height="13.516147"
   width="28.518526"
   id="RE_B42215">
<title
   id="TRE_B42215">#B42215</title></rect>

<!-- Legende   -->
<rect
   style="fill:#be311d;fill-opacity:1;stroke-width:0.24120006"
   y="769.17987"
   x="7.317637"
   height="13.516147"
   width="28.518526"
   id="RE_BE311D">
<title
   id="TRE_BE311D">#BE311D</title></rect>

<!-- Legende   -->
<rect
   style="fill:#a51412;fill-opacity:1;stroke-width:0.24120006"
   y="796.21222"
   x="7.317637"
   height="13.516147"
   width="28.518526"
   id="RE_A51412">
<title
   id="TRE_A51412">#A51412</title></rect>

<!-- Legende   -->
<rect
   style="fill:#821212;fill-opacity:1;stroke-width:0.24120006"
   y="823.24451"
   x="7.317637"
   height="13.516147"
   width="28.518526"
   id="RE_821212">
<title
   id="TRE_821212">#821212</title></rect>

<!-- Legende   -->
<rect
   style="fill:#961212;fill-opacity:1;stroke-width:0.24120006"
   y="809.72839"
   x="7.317637"
   height="13.516147"
   width="28.518526"
   id="RE_961212">
<title
   id="TRE_961212">#961212</title></rect>

<!-- Legende   -->
<rect
   style="fill:#6e1212;fill-opacity:1;stroke-width:0.24716578"
   y="715.59137"
   x="159.95775"
   height="13.516147"
   width="29.946846"
   id="RE_6E1212">
<title
   id="TRE_6E1212">#6E1212</title></rect>

<!-- Legende   -->
<rect
   style="fill:#5f1212;fill-opacity:1;stroke-width:0.24716578"
   y="742.62366"
   x="159.95775"
   height="13.516147"
   width="29.946846"
   id="RE_5F1212">
<title
   id="TRE_5F1212">#5F1212</title></rect>

<!-- Legende   -->
<rect
   style="fill:#671212;fill-opacity:1;stroke-width:0.24716578"
   y="729.10754"
   x="159.95775"
   height="13.516147"
   width="29.946846"
   id="RE_671212">
<title
   id="TRE_671212">#671212</title></rect>

<!-- Legende   -->
<rect
   style="fill:#5a1212;fill-opacity:1;stroke-width:0.24716578"
   y="756.13983"
   x="159.95775"
   height="13.516147"
   width="29.946846"
   id="RE_5A1212">
<title
   id="TRE_5A1212">#5A1212</title></rect>

<!-- Legende   -->
<rect
   style="fill:#501212;fill-opacity:1;stroke-width:0.24716578"
   y="783.17218"
   x="159.95775"
   height="13.516147"
   width="29.946846"
   id="RE_501212">
<title
   id="TRE_501212">#501212</title></rect>

<!-- Legende   -->
<rect
   style="fill:#551212;fill-opacity:1;stroke-width:0.24716578"
   y="769.65601"
   x="159.95775"
   height="13.516147"
   width="29.946846"
   id="RE_551212">
<title
   id="TRE_551212">#551212</title></rect>

<!-- Legende   -->
<rect
   style="fill:#321212;fill-opacity:1;stroke-width:0.24716578"
   y="796.68835"
   x="159.95775"
   height="13.516147"
   width="29.946846"
   id="RE_321212">
<title
   id="TRE_321212">#321212</title></rect>

<rect
   style="fill:#141212;fill-opacity:1;stroke-width:0.24716578"
   y="810.20453"
   x="159.95775"
   height="13.516147"
   width="29.946846"
   id="RE_141212">
<title
   id="TRE_141212">#141212</title></rect>

<rect
   style="fill:#ed2083;fill-opacity:1;stroke-width:0.24716578"
   y="823.72064"
   x="159.95775"
   height="13.516147"
   width="29.946846"
   id="RE_ED2083">
<title
   id="TRE_ED2083">#ED2083</title></rect>

<text
   id="text5722"
   y="723.28406"
   x="43.786667"
   style="font-style:normal;font-weight:normal;font-size:26.5851593px;line-height:1.25;font-family:sans-serif;fill:#000000;fill-opacity:1;stroke:none;stroke-width:0.66462988"
   xml:space="preserve"><tspan
   style="font-style:normal;font-variant:normal;font-weight:normal;font-stretch:normal;font-size:7.08938456px;font-family:sans-serif;font-variant-ligatures:normal;font-variant-caps:normal;font-variant-numeric:normal;stroke-width:0.66462988"
   y="723.28406"
   x="43.786667"
   id="tspan5720">keine Daten	 </tspan>	 </text>

	
	 <text
   id="text5726"
   y="735.90802"
   x="43.527046"
   style="font-style:normal;font-weight:normal;font-size:26.5851593px;line-height:1.25;font-family:sans-serif;fill:#000000;fill-opacity:1;stroke:none;stroke-width:0.66462988"
   xml:space="preserve"><tspan
   style="font-style:normal;font-variant:normal;font-weight:normal;font-stretch:normal;font-size:7.08938456px;font-family:sans-serif;font-variant-ligatures:normal;font-variant-caps:normal;font-variant-numeric:normal;stroke-width:0.66462988"
   y="735.90802"
   x="43.527046"
   id="tspan5724">&gt;0,0000% &lt;=0,0100 %	 </tspan>	 </text>

	
	 <text
   id="text5730"
   y="749.70557"
   x="43.527046"
   style="font-style:normal;font-weight:normal;font-size:26.5851593px;line-height:1.25;font-family:sans-serif;fill:#000000;fill-opacity:1;stroke:none;stroke-width:0.66462988"
   xml:space="preserve"><tspan
   style="font-style:normal;font-variant:normal;font-weight:normal;font-stretch:normal;font-size:7.08938456px;font-family:sans-serif;font-variant-ligatures:normal;font-variant-caps:normal;font-variant-numeric:normal;stroke-width:0.66462988"
   y="749.70557"
   x="43.527046"
   id="tspan5728">&gt;0,0100% &lt;=0,0500 %</tspan></text>

<text
   id="text5734"
   y="763.50311"
   x="43.527046"
   style="font-style:normal;font-weight:normal;font-size:26.5851593px;line-height:1.25;font-family:sans-serif;fill:#000000;fill-opacity:1;stroke:none;stroke-width:0.66462988"
   xml:space="preserve"><tspan
     style="font-style:normal;font-variant:normal;font-weight:normal;font-stretch:normal;font-size:7.08938456px;font-family:sans-serif;font-variant-ligatures:normal;font-variant-caps:normal;font-variant-numeric:normal;stroke-width:0.66462988"
     y="763.50311"
     x="43.527046"
     id="tspan5732">&gt;0,0500% &lt;=0,1000 %</tspan></text>
<text
   id="text5738"
   y="777.3006"
   x="43.527046"
   style="font-style:normal;font-weight:normal;font-size:26.5851593px;line-height:1.25;font-family:sans-serif;fill:#000000;fill-opacity:1;stroke:none;stroke-width:0.66462988"
   xml:space="preserve"><tspan
     style="font-style:normal;font-variant:normal;font-weight:normal;font-stretch:normal;font-size:7.08938456px;font-family:sans-serif;font-variant-ligatures:normal;font-variant-caps:normal;font-variant-numeric:normal;stroke-width:0.66462988"
     y="777.3006"
     x="43.527046"
     id="tspan5736">&gt;0,1000% &lt;=0,1500 %</tspan></text>
<text
   id="text5742"
   y="791.10162"
   x="43.527046"
   style="font-style:normal;font-weight:normal;font-size:26.5851593px;line-height:1.25;font-family:sans-serif;fill:#000000;fill-opacity:1;stroke:none;stroke-width:0.66462988"
   xml:space="preserve"><tspan
     style="font-style:normal;font-variant:normal;font-weight:normal;font-stretch:normal;font-size:7.08938456px;font-family:sans-serif;font-variant-ligatures:normal;font-variant-caps:normal;font-variant-numeric:normal;stroke-width:0.66462988"
     y="791.10162"
     x="43.527046"
     id="tspan5740">&gt;0,1500% &lt;=0,2000 %</tspan></text>
<text
   id="text5746"
   y="804.90259"
   x="43.527046"
   style="font-style:normal;font-weight:normal;font-size:26.5851593px;line-height:1.25;font-family:sans-serif;fill:#000000;fill-opacity:1;stroke:none;stroke-width:0.66462988"
   xml:space="preserve"><tspan
     style="font-style:normal;font-variant:normal;font-weight:normal;font-stretch:normal;font-size:7.08938456px;font-family:sans-serif;font-variant-ligatures:normal;font-variant-caps:normal;font-variant-numeric:normal;stroke-width:0.66462988"
     y="804.90259"
     x="43.527046"
     id="tspan5744">&gt;0,2000% &lt;=0,2500 %</tspan></text>
<text
   id="text5750"
   y="818.70349"
   x="43.527046"
   style="font-style:normal;font-weight:normal;font-size:26.5851593px;line-height:1.25;font-family:sans-serif;fill:#000000;fill-opacity:1;stroke:none;stroke-width:0.66462988"
   xml:space="preserve"><tspan
     style="font-style:normal;font-variant:normal;font-weight:normal;font-stretch:normal;font-size:7.08938456px;font-family:sans-serif;font-variant-ligatures:normal;font-variant-caps:normal;font-variant-numeric:normal;stroke-width:0.66462988"
     y="818.70349"
     x="43.527046"
     id="tspan5748">&gt;0,2500% &lt;=0,5000 %</tspan></text>
<text
   id="text5754"
   y="832.50098"
   x="43.527046"
   style="font-style:normal;font-weight:normal;font-size:26.5851593px;line-height:1.25;font-family:sans-serif;fill:#000000;fill-opacity:1;stroke:none;stroke-width:0.66462988"
   xml:space="preserve"><tspan
     style="font-style:normal;font-variant:normal;font-weight:normal;font-stretch:normal;font-size:7.08938456px;font-family:sans-serif;font-variant-ligatures:normal;font-variant-caps:normal;font-variant-numeric:normal;stroke-width:0.66462988"
     y="832.50098"
     x="43.527046"
     id="tspan5752">&gt;0,5000% &lt;=0,7500 %</tspan></text>
<text
   id="text5762"
   y="723.76575"
   x="194.14279"
   style="font-style:normal;font-weight:normal;font-size:26.5851593px;line-height:1.25;font-family:sans-serif;fill:#000000;fill-opacity:1;stroke:none;stroke-width:0.66462988"
   xml:space="preserve"><tspan
     style="font-style:normal;font-variant:normal;font-weight:normal;font-stretch:normal;font-size:7.08938456px;font-family:sans-serif;font-variant-ligatures:normal;font-variant-caps:normal;font-variant-numeric:normal;stroke-width:0.66462988"
     y="723.76575"
     x="194.14279"
     id="tspan5760">&gt;0,7500% &lt;=1,0000 %</tspan></text>
<text
   id="text5766"
   y="737.40594"
   x="194.14279"
   style="font-style:normal;font-weight:normal;font-size:26.5851593px;line-height:1.25;font-family:sans-serif;fill:#000000;fill-opacity:1;stroke:none;stroke-width:0.66462988"
   xml:space="preserve"><tspan
     style="font-style:normal;font-variant:normal;font-weight:normal;font-stretch:normal;font-size:7.08938456px;font-family:sans-serif;font-variant-ligatures:normal;font-variant-caps:normal;font-variant-numeric:normal;stroke-width:0.66462988"
     y="737.40594"
     x="194.14279"
     id="tspan5764">&gt;1,0000% &lt;=1,2500 %</tspan></text>
<text
   id="text5770"
   y="751.04608"
   x="194.14279"
   style="font-style:normal;font-weight:normal;font-size:26.5851593px;line-height:1.25;font-family:sans-serif;fill:#000000;fill-opacity:1;stroke:none;stroke-width:0.66462988"
   xml:space="preserve"><tspan
     style="font-style:normal;font-variant:normal;font-weight:normal;font-stretch:normal;font-size:7.08938456px;font-family:sans-serif;font-variant-ligatures:normal;font-variant-caps:normal;font-variant-numeric:normal;stroke-width:0.66462988"
     y="751.04608"
     x="194.14279"
     id="tspan5768">&gt;1,2500% &lt;=1,5000 %</tspan></text>
<text
   id="text5774"
   y="764.6828"
   x="194.14279"
   style="font-style:normal;font-weight:normal;font-size:26.5851593px;line-height:1.25;font-family:sans-serif;fill:#000000;fill-opacity:1;stroke:none;stroke-width:0.66462988"
   xml:space="preserve"><tspan
     style="font-style:normal;font-variant:normal;font-weight:normal;font-stretch:normal;font-size:7.08938456px;font-family:sans-serif;font-variant-ligatures:normal;font-variant-caps:normal;font-variant-numeric:normal;stroke-width:0.66462988"
     y="764.6828"
     x="194.14279"
     id="tspan5772">&gt;1,5000% &lt;=1,7500 %</tspan></text>
<text
   id="text5778"
   y="778.32306"
   x="194.14279"
   style="font-style:normal;font-weight:normal;font-size:26.5851593px;line-height:1.25;font-family:sans-serif;fill:#000000;fill-opacity:1;stroke:none;stroke-width:0.66462988"
   xml:space="preserve"><tspan
     style="font-style:normal;font-variant:normal;font-weight:normal;font-stretch:normal;font-size:7.08938456px;font-family:sans-serif;font-variant-ligatures:normal;font-variant-caps:normal;font-variant-numeric:normal;stroke-width:0.66462988"
     y="778.32306"
     x="194.14279"
     id="tspan5776">&gt;1,7500% &lt;=2,0000 %</tspan></text>
<text
   id="text5782"
   y="791.9632"
   x="194.14279"
   style="font-style:normal;font-weight:normal;font-size:26.5851593px;line-height:1.25;font-family:sans-serif;fill:#000000;fill-opacity:1;stroke:none;stroke-width:0.66462988"
   xml:space="preserve"><tspan
     style="font-style:normal;font-variant:normal;font-weight:normal;font-stretch:normal;font-size:7.08938456px;font-family:sans-serif;font-variant-ligatures:normal;font-variant-caps:normal;font-variant-numeric:normal;stroke-width:0.66462988"
     y="791.9632"
     x="194.14279"
     id="tspan5780">&gt;2,0000% &lt;=4,0000 %</tspan></text>
<text
   id="text5786"
   y="805.61371"
   x="194.14279"
   style="font-style:normal;font-weight:normal;font-size:26.5851593px;line-height:1.25;font-family:sans-serif;fill:#000000;fill-opacity:1;stroke:none;stroke-width:0.66462988"
   xml:space="preserve"><tspan
     style="font-style:normal;font-variant:normal;font-weight:normal;font-stretch:normal;font-size:7.08938456px;font-family:sans-serif;font-variant-ligatures:normal;font-variant-caps:normal;font-variant-numeric:normal;stroke-width:0.66462988"
     y="805.61371"
     x="194.14279"
     id="tspan5784">&gt;4,0000% &lt;=8,0000 %</tspan></text>
<text
   id="text5790"
   y="819.26428"
   x="194.14279"
   style="font-style:normal;font-weight:normal;font-size:26.5851593px;line-height:1.25;font-family:sans-serif;fill:#000000;fill-opacity:1;stroke:none;stroke-width:0.66462988"
   xml:space="preserve"><tspan
     style="font-style:normal;font-variant:normal;font-weight:normal;font-stretch:normal;font-size:7.08938456px;font-family:sans-serif;font-variant-ligatures:normal;font-variant-caps:normal;font-variant-numeric:normal;stroke-width:0.66462988"
     y="819.26428"
     x="194.14279"
     id="tspan5788">&gt;8,0000% </tspan></text>

</g>
</svg>