<?xml version="1.0" encoding="UTF-8" standalone="no"?>
<svg
   xmlns:v="http://schemas.microsoft.com/visio/2003/SVGExtensions/"
   xmlns:dc="http://purl.org/dc/elements/1.1/"
   xmlns:cc="http://creativecommons.org/ns#"
   xmlns:rdf="http://www.w3.org/1999/02/22-rdf-syntax-ns#"
   xmlns:svg="http://www.w3.org/2000/svg"
   xmlns="http://www.w3.org/2000/svg"
   style="font-size:12px;overflow:visible;color-interpolation-filters:sRGB;fill:none;fill-rule:evenodd;stroke-linecap:square;stroke-miterlimit:3"
   id="svg2612"
   version="1.1"
   class="st18"
   xml:space="preserve"
   viewBox="0 0 450.00009 525.00079"
   height="700"
   width="600"><metadata
   id="metadata2618"><rdf:RDF><cc:Work
       rdf:about=""><dc:format>image/svg+xml</dc:format><dc:type
         rdf:resource="http://purl.org/dc/dcmitype/StillImage" /><dc:title></dc:title></cc:Work></rdf:RDF></metadata><defs
   id="defs2616">
	</defs>
	<v:documentProperties
   v:viewMarkup="false"
   v:metric="true"
   v:langID="1031">
		<v:userDefs>
			<v:ud
   v:val="VT0(1):26"
   v:nameU="msvNoAutoConnect" />
			<v:ud
   v:val="VT4(Data Graphic.28)"
   v:nameU="msvLastAppliedDataGraphic" />
			<v:ud
   v:val="VT0(1):5"
   v:nameU="msvNoApplyDataGraphicAfterLink" />
		</v:userDefs>
	</v:documentProperties>

	<style
   id="style1315"
   type="text/css">
	<![CDATA[
		.st1 {fill:#5a1212;stroke:#000000;stroke-linecap:butt;stroke-width:1}
		.st2 {stroke:none;stroke-linecap:round;stroke-linejoin:round;stroke-width:0.75}
		
		.st4 {fill:#821212;stroke:#000000;stroke-linecap:butt;stroke-width:1}
		.st5 {fill:#6e1212;stroke:#000000;stroke-linecap:butt;stroke-width:1}
		.st6 {fill:#551212;stroke:#000000;stroke-linecap:butt;stroke-width:1}
		.st7 {fill:#fdfecd;stroke:#000000;stroke-linecap:butt;stroke-width:1}
	
		.st9 {fill:#321212;stroke:#000000;stroke-linecap:butt;stroke-width:1}
		.st10 {fill:#5f1212;stroke:#000000;stroke-linecap:butt;stroke-width:1}
		.st11 {fill:#961212;stroke:#000000;stroke-linecap:butt;stroke-width:1}
		.st12 {fill:#a51412;stroke:#000000;stroke-linecap:butt;stroke-width:1}
		.st13 {fill:#671212;stroke:#000000;stroke-linecap:butt;stroke-width:1}
		.st14 {fill:#961212;stroke:#000000;stroke-linecap:round;stroke-linejoin:round;stroke-width:1}
		.st15 {fill:#501212;stroke:#000000;stroke-linecap:butt;stroke-width:1}
		.st16 {fill:#b42215;stroke:#000000;stroke-linecap:butt;stroke-width:1}
		.st17 {fill:none;stroke:none;stroke-linecap:round;stroke-linejoin:round;stroke-width:0.75}
		.st18 {fill:none;fill-rule:evenodd;font-size:12px;overflow:visible;stroke-linecap:square;stroke-miterlimit:3}
	]]>
	</style>

	<g
   transform="translate(0,-316.88916)"
   id="g2610"
   v:groupContext="foregroundPage"
   v:index="1"
   v:mID="0">
		<v:userDefs>
			<v:ud
   v:val="VT0(0.0625):26"
   v:nameU="msvDGCalloutGap" />
		</v:userDefs>
		<title
   id="title1317">Zeichenblatt-1</title>
		<v:pageProperties
   v:shadowOffsetY="-8.50394"
   v:shadowOffsetX="8.50394"
   v:drawingUnits="24"
   v:pageScale="0.0393701"
   v:drawingScale="0.0393701" />
		<v:layer
   v:index="0"
   v:name="Datengrafik" />
		<v:layer
   v:index="1"
   v:name="Vereinfacht" />
<!-- Metadaten
Ausgabe: H:\Corona-Stab AS21\Landkreis Corona Karte\Landkreiskarte_svg.xlsx_AS21_201212134645268.SVG
User:    AS21
-->
<!-- Gemeinde   -->
<path
   style="fill:#821212;fill-opacity:1;stroke:#000000;stroke-width:0.882815;stroke-linecap:butt"
   onmouseout="style.opacity = 1;"
   onmouseover="style.opacity = 0.5;"
   id="010"
   class="st4"
   d="m 100.69748,624.90588 0.72391,-3.5136 0.86516,0.0265 0.23836,-2.28649 -2.29532,-3.17813 1.65086,-0.60915 1.23595,1.33305 1.65086,-4.50235 2.24235,-0.29133 10.7262,6.43572 6.43572,-1.31539 2.07462,0.97109 1.85391,-1.27125 0.81219,2.30415 4.59947,2.55133 0.29132,1.62438 -1.96867,2.78087 2.22469,2.41891 -1.70383,2.06579 0.75922,0.73273 2.50719,-1.58906 -0.65328,1.65969 0.73274,3.76079 1.14766,0.15008 0.80336,1.78329 3.14282,0.9093 4.06095,3.71665 2.48954,0.13242 -3.30173,8.22784 1.94219,1.82742 -3.36352,2.23352 -1.9422,-1.05937 -1.34188,0.565 -2.57782,-1.70384 -2.53367,1.35071 -2.84267,-2.10993 -2.9486,0.66212 -0.82102,3.07219 -4.58181,-1.55375 0.24719,-1.20063 -3.00157,-0.4061 -1.73032,0.86516 0.1236,2.26001 -2.38361,2.00399 -4.93493,0.46789 -1.58907,-1.88922 -1.63321,-0.0971 -0.60914,-1.6597 2.17173,1.6597 -3.20462,-3.6372 -0.54735,0.37078 0.15008,-3.38118 -1.62438,0.14125 -0.73273,-1.52727 -1.97751,-0.70625 1.28008,-4.19337 -2.80735,-6.71822 -2.14524,0.27367 -3.407666,-5.32338 3.301728,-2.72789 0.918128,-2.38361 z">
<title
   id="title010">Arnsdorf     absolute Anzahl: 31 relativ zur Einwohnerzahl: 0,64 %
</title>
</path>

<!-- Gemeinde   -->
<path
   style="fill:#671212;fill-opacity:1;stroke:#000000;stroke-width:0.882815;stroke-linecap:butt"
   onmouseout="style.opacity = 1;"
   onmouseover="style.opacity = 0.5;"
   id="020"
   class="st7"
   d="m 333.1153,548.89816 1.73032,0.14125 -0.94461,2.21586 0.80336,0.32665 -0.27367,1.13883 2.56016,1.42133 -0.67094,2.51602 4.80251,0.91813 -0.17656,0.91813 2.09227,1.74797 -3.31938,3.91087 0.96227,3.28407 1.83625,1.02407 0.23836,3.99032 -2.1011,-0.36195 -0.35312,1.22711 -1.11235,-0.053 -0.41492,1.97751 -4.06978,-0.31782 1.58907,1.45665 -0.55618,2.10993 -2.8868,0.33547 3.15165,-0.22954 3.0104,2.33064 0.31781,1.58023 -3.12517,0.39727 3.0722,2.30415 -3.8579,1.94219 -3.31939,3.4165 -5.31454,0.0353 -0.81219,1.36836 -1.34188,-0.45906 -0.95344,1.79211 -2.56016,-0.41492 0.67976,2.78969 -0.91812,-0.11476 -0.14126,2.63962 -4.16688,0.71508 0.24719,3.49594 -2.36595,0.9093 -2.67493,2.93095 -0.83867,0.48555 -3.08985,-5.18213 0.0265,-2.6661 -0.96227,-1.06821 1.58907,-0.36195 0.75039,-5.80009 1.52727,-1.97751 -1.33305,-1.02406 -2.51602,1.26242 -0.43258,-1.70383 -2.56899,0.48555 -6.04729,-2.37478 0.23836,-2.40125 -3.81376,-0.22953 -2.17172,0.69742 1.38602,1.16531 -1.66852,1.56259 -5.83541,1.17414 1.95102,-4.44056 1.57141,-10.01995 -5.16446,-1.35071 -0.36196,1.80095 -1.38602,0.0441 -1.05055,2.11875 -1.84508,-0.41492 -1.10352,1.50079 -3.40767,0.0353 -0.39726,-1.14766 -1.40368,0.0265 -1.1918,-3.93735 2.2247,-5.63236 -5.13799,-2.1011 3.3547,-9.34901 3.78728,-2.30415 -0.70626,-0.63562 1.90688,0.18539 -0.76805,-0.29133 1.02407,-1.37719 -1.85391,-1.92454 1.08586,-1.51844 1.73915,1.20063 2.05696,-1.57141 1.55375,1.31539 2.50719,-2.28649 2.11876,1.82743 0.63563,-0.93579 0.74156,2.05696 -1.12117,0.54735 3.23993,1.95102 0.54734,-1.30657 -0.98875,-0.70625 1.18297,-2.1011 2.63079,-1.46547 2.73673,1.93336 -0.21188,0.71508 0.86516,-0.53852 -0.46789,1.27126 0.90047,-0.0618 0.0265,-1.16531 1.50962,0.22953 -0.23836,1.4743 4.06977,2.1011 1.5361,-2.25118 6.67408,1.44782 2.24235,-0.67094 1.43899,-3.75197 1.43016,1.58907 -0.82984,0.0441 -0.0177,1.43899 -2.98391,1.34188 3.84907,1.64203 1.43899,-5.02321 4.06977,-0.30899 1.68618,-3.78727 1.45665,-0.72391 0.11476,-2.18056 z">
<title
   id="title020">Bautzen     absolute Anzahl: 438 relativ zur Einwohnerzahl: 1,14 %
</title>
</path>
<!-- Gemeinde   -->

 <path
   style="fill:#6e1212;fill-opacity:1;stroke:#000000;stroke-width:0.882815;stroke-linecap:butt"
   onmouseout="style.opacity = 1;"
   onmouseover="style.opacity = 0.5;"
   id="030"
   class="st4"
   d="m 129.56377,441.05789 -1.73915,-7.32736 0.63563,-1.58024 3.64602,-1.89805 0.9093,-2.27766 -1.95985,-1.17415 0.15891,-1.80094 4.13157,-1.65969 6.44455,1.43016 -0.90047,-3.90205 -3.7343,0.009 -0.61797,-2.14524 2.18055,-2.26883 2.83383,-0.0883 4.264,-5.94135 3.43415,-1.4125 0.59149,5.8354 1.02406,1.58907 5.10267,2.56017 2.56017,3.15164 4.29048,2.4454 0.91812,-4.40524 -2.53367,1.62437 -1.43016,-0.29132 -0.51204,-3.28408 1.39485,-1.68617 11.20292,7.76877 2.14524,-1.00641 1.1918,3.31938 2.5072,1.76563 3.52243,0.60915 9.14596,-0.77688 1.99516,0.6268 4.96143,-5.21744 6.85947,-1.73914 1.07703,1.16531 -1.88039,4.44939 1.26242,1.24477 -0.67977,1.85391 h -2.98391 l -1.54493,1.4125 1.96868,5.14682 -7.00955,-0.14125 1.16532,9.51674 -2.63079,4.08743 -5.1115,-7.68931 -0.8475,-2.7897 -3.27525,3.0722 -3.8579,-0.0706 -1.74797,-6.75353 -3.19579,0.79453 0.49437,2.07462 -4.59064,-0.23836 -0.42375,2.24235 2.67493,3.08102 2.3836,-0.009 -0.59148,9.06651 -0.6268,1.84508 -1.67735,-0.17656 -1.16532,1.72149 -3.08985,0.86516 0.80336,5.55291 -2.14524,-0.4061 -1.03289,1.38602 -3.68134,0.29133 -1.695,2.0393 -1.13883,0.053 -8.21901,-3.99032 -1.73032,2.47188 -5.0497,0.17656 -4.40525,-2.89563 -8.19252,1.48313 -3.31056,-3.28407 -1.78328,-2.93095 3.64602,-7.01838 3.9197,-3.91087 z">
<title
   id="title030">Bernsdorf     absolute Anzahl: 61 relativ zur Einwohnerzahl: 0,95 %
</title>
</path>
   <!-- Gemeinde   -->

<path
   style="fill:#5a1212;fill-opacity:1;stroke:#000000;stroke-width:0.882815;stroke-linecap:butt"
   onmouseout="style.opacity = 1;"
   onmouseover="style.opacity = 0.5;"
   id="040"
   class="st4"
   d="m 192.16947,602.79401 -0.8475,-5.81775 4.36111,-5.88837 4.9879,-0.74157 4.90845,1.49196 3.12517,-0.18539 5.66767,-7.57455 2.18938,-1.43016 3.40767,5.65884 0.82984,-0.67977 -0.37961,3.81376 1.42134,5.56174 3.60188,-0.24719 2.55134,1.04172 -5.53525,6.79768 1.20945,3.78727 -3.62837,1.77446 -0.85633,2.63079 2.70142,1.18297 1.99516,2.47188 -0.76805,1.23594 0.72391,0.76805 -5.20861,9.02237 -2.09227,-1.31539 -2.89564,0.10594 -2.11875,-1.9422 -4.37876,0.64446 -2.41009,2.22469 1.13883,0.25602 -1.20063,1.03289 1.1918,6.25916 -3.90204,-0.27367 -0.94461,1.23594 4.14923,1.24477 -0.2825,0.76805 -1.99516,-0.65329 -0.6268,0.74157 2.62196,0.94461 -1.83626,3.04571 1.41251,0.80336 -0.38844,0.91813 2.03047,0.61797 -0.93578,4.49353 -2.22469,-0.60031 -1.48313,1.0064 3.40766,2.56017 -5.43814,0.0706 -0.29133,1.80977 2.48071,0.56501 -4.11391,0.75922 -8.1837,-5.42049 0.0265,-3.13399 -2.30415,-2.60431 1.11235,-1.89805 -0.87399,0.50321 -2.58665,-3.80494 -1.57141,-1.12117 0.009,-5.75595 -2.78087,-1.39485 -0.81219,-2.06579 3.70782,-1.76563 -0.82101,-0.94461 -0.15891,-7.59221 1.30657,-0.93578 -0.80337,-0.73274 0.57383,-1.17414 -1.88922,-3.46947 0.67977,-2.20703 3.21344,-1.28009 -0.52968,-2.78969 z">
<title
   id="title4635">Bischofswerda     absolute Anzahl: 174 relativ zur Einwohnerzahl: 1,59 %
</title>
</path>

<!-- Gemeinde   -->
<path
   style="fill:#5a1212;fill-opacity:1;stroke:#000000;stroke-width:0.882815;stroke-linecap:butt"
   onmouseout="style.opacity = 1;"
   onmouseover="style.opacity = 0.5;"
   id="060"
   class="st5"
   d="m 214.04298,559.93335 -2.79852,0.60031 -0.2825,-4.66126 3.96384,0.71508 0.24718,-1.89806 0.30899,1.39485 0.85633,-1.17414 -0.10594,-1.93337 2.78087,-2.71907 1.43016,-0.22953 0.0883,1.13883 0.18539,-1.1918 6.40041,-1.28008 -0.33547,3.55775 2.75438,0.98875 -0.0618,0.75922 1.67735,-0.42375 0.85633,1.92453 2.08344,0.65329 -0.81219,1.33305 4.04329,-3.45181 3.86673,3.09868 3.0722,0.0618 1.37719,1.42133 -0.78571,-0.44141 -0.52086,2.35712 -0.82101,-0.12359 -0.0442,2.25117 -3.28407,-0.51203 -1.8186,4.52884 0.1236,1.65087 2.06579,0.13242 -0.3443,1.10352 3.47829,-0.17657 -0.47672,1.68618 1.52727,-0.98875 0.0177,1.45664 -0.73273,1.84509 -5.14681,3.1075 -0.009,2.27767 -1.99516,0.2825 -0.26485,1.28891 -4.18454,-1.23594 -3.30173,1.37719 -5.00556,-1.43016 -5.1115,1.37719 -2.43657,2.21587 -2.18938,1.43016 -5.6765,7.57455 -3.11634,0.18539 -4.91728,-1.49196 -4.9879,0.74157 -2.24235,-0.45024 0.2825,-2.43657 -10.91159,-9.30487 6.18853,-3.61954 0.19422,-3.55774 3.36352,-1.63321 3.54892,4.31696 2.71907,-0.16773 4.68775,-2.00399 2.48071,-3.92853 2.85149,0.49438 5.21744,-2.21587 1.4743,-2.7279 -1.09469,-0.90047 0.6268,-1.31539 z">
<title
   id="title060">Burkau     absolute Anzahl: 43 relativ zur Einwohnerzahl: 1,65 %
</title>
</path>

<!-- Gemeinde   -->
<path
   style="fill:#5f1212;fill-opacity:1;stroke:#000000;stroke-width:0.882815;stroke-linecap:butt"
   onmouseout="style.opacity = 1;"
   onmouseover="style.opacity = 0.5;"
   id="080"
   class="st9"
   d="m 239.75144,513.3525 -0.0441,1.87156 2.57782,0.2825 -0.50321,0.79454 1.2536,2.29532 0.1589,6.49751 -2.21586,1.32423 0.13242,4.0786 -1.11235,0.92696 1.74798,3.54891 5.47345,1.39485 0.1236,5.99432 1.55375,0.2825 0.49438,1.15648 3.63719,0.15008 -0.59148,0.84751 1.80977,2.89563 -2.11876,-0.49438 -0.39726,1.9422 -5.71182,-1.28891 -0.37961,2.13641 -2.28649,-0.43258 0.31781,-1.41251 -5.8972,-0.97992 -0.0706,-1.58907 -1.39485,-0.0971 -0.66211,1.45665 -2.79853,-0.32664 -0.0883,-2.32181 1.15649,-0.97992 -1.8804,0.75039 -1.05055,-1.86274 -4.23751,-0.72391 -0.74156,-2.74555 -0.96227,0.16773 1.22711,-1.3507 -1.09469,-1.72149 -4.25517,-0.15008 3.71665,-3.48712 -0.43258,-2.1629 2.29532,-0.69742 -0.55617,-0.38844 1.55375,-1.05055 -0.0177,-1.60672 1.49196,0.0441 0.54734,-1.4743 0.26485,1.3507 1.09469,-1.32422 2.42774,0.91813 -0.0353,-1.74797 -1.20062,-0.63563 0.21187,-2.82501 1.17415,0.0441 0.0176,-3.2929 0.69743,-3.05454 1.88039,0.52969 -1.60672,-1.13883 1.80094,0.52969 0.29133,-1.43016 z">
<title
   id="title080">Crostwitz     absolute Anzahl: 14 relativ zur Einwohnerzahl: 1,37 %
</title>
</path>

<!-- Gemeinde   -->
<path
   style="fill:#821212;fill-opacity:1;stroke:#000000;stroke-width:0.882815;stroke-linecap:butt"
   onmouseout="style.opacity = 1;"
   onmouseover="style.opacity = 0.5;"
   id="090"
   class="st4"
   d="m 337.30338,626.50907 -1.11235,-4.19337 3.41649,-0.35312 1.24477,-1.34188 -0.30016,-1.13884 4.76721,1.5361 3.18696,-1.6332 -0.0883,-0.99759 4.68774,1.55376 2.91329,-0.0794 4.39642,-0.88282 2.55134,2.48954 7.089,0.98875 3.31939,-0.6268 4.31696,1.30657 2.99274,1.64203 0.0795,2.27767 1.88039,2.4454 -7.31853,3.29289 -0.78571,1.57142 1.62438,1.43898 1.33305,-0.19422 0.23836,2.41009 -6.5858,9.16362 -2.76321,0.40609 -3.30173,-2.48953 -2.74555,-0.0265 -16.29677,2.60431 -5.86189,1.43016 0.25602,-7.91885 -4.14923,-1.00641 -2.92212,-4.40525 0.11477,-1.07703 2.63079,-1.42134 0.52968,-5.69415 z">
<title
   id="title090">Cunewalde     absolute Anzahl: 30 relativ zur Einwohnerzahl: 0,65 %
</title>
</path>

<!-- Gemeinde   -->
<path
   style="fill:#821212;fill-opacity:1;stroke:#000000;stroke-width:0.882815;stroke-linecap:butt"
   onmouseout="style.opacity = 1;"
   onmouseover="style.opacity = 0.5;"
   id="100"
   class="st4"
   d="m 224.11413,579.05335 5.01439,1.43016 3.2929,-1.37719 4.19337,1.24477 -0.47672,2.56016 2.27767,1.01524 1.09469,-2.50719 5.72947,0.21187 0.93578,3.09868 1.06821,0.55618 -1.46548,2.85149 3.12517,2.29532 2.47188,-0.74157 1.8186,3.92853 0.46789,2.93095 -1.31539,2.91329 0.8475,2.25117 -0.33547,0.85633 -2.14524,-1.58906 -2.65727,4.18454 -0.43258,6.23267 -0.80336,0.78571 -6.39158,-1.73915 -5.16447,1.01524 -2.6661,-2.04813 -5.26158,0.42375 -4.22868,-2.86032 -0.64446,-2.3836 5.52642,-6.79768 -2.5425,-1.04172 -3.61072,0.24719 -1.4125,-5.56173 0.37078,-3.81376 -0.82985,0.67976 -3.39883,-5.65884 2.43657,-2.21587 z">
<title
   id="title100">Demitz-Thumitz     absolute Anzahl: 18 relativ zur Einwohnerzahl: 0,68 %
</title>
</path>

<!-- Gemeinde   -->
<path
   style="fill:#821212;fill-opacity:1;stroke:#000000;stroke-width:0.882815;stroke-linecap:butt"
   onmouseout="style.opacity = 1;"
   onmouseover="style.opacity = 0.5;"
   id="110"
   class="st4"
   d="m 272.93733,597.1899 -0.32664,-2.23352 2.3836,0.75922 2.09228,-5.07618 6.03845,1.51844 0.8475,-3.17814 2.0393,-0.67976 5.84424,-1.17415 1.66852,-1.56258 -1.38602,-1.16532 2.17173,-0.69742 3.80493,0.2207 -0.23836,2.41009 6.04728,2.37477 2.56899,-0.49437 0.44141,1.70383 2.51602,-1.2536 1.33305,1.02407 -1.52727,1.9775 -0.75922,5.79127 -1.58024,0.36195 0.96227,1.07704 -1.695,-0.32664 0.5032,-1.23595 -3.54891,-0.63562 -1.0947,0.46789 0.41493,1.28008 -1.38602,0.37078 -0.78571,2.62196 -1.13883,-1.13 -1.4125,2.79852 -1.1918,-0.11476 -3.06337,7.38033 -0.053,5.74713 -3.39001,-0.52086 -1.64203,11.76792 -5.1115,-1.7568 -14.21333,-0.33547 -9.7551,-2.98392 -9.60503,2.7279 -0.26484,-2.29532 -0.82102,0.15891 -0.23836,-1.05055 -0.60914,-5.98549 -1.45665,-2.29531 0.50321,-1.35954 0.79453,-0.79453 0.44141,-6.23268 2.65727,-4.18454 2.13641,1.5979 0.3443,-0.85634 -0.8475,-2.26 1.31539,-2.91329 -0.46789,-2.93095 0.20305,-2.62196 4.56415,2.35712 3.79611,0.73273 0.7857,-0.65328 1.05055,0.6268 -0.69742,4.62595 5.34986,0.22953 1.58024,0.98876 z">
<title
   id="title1008">Doberschau-Gaußig     absolute Anzahl: 23 relativ zur Einwohnerzahl: 0,56 %
</title>
</path>


<!-- Gemeinde   -->
<path
   style="fill:#501212;fill-opacity:1;stroke:#000000;stroke-width:0.882815;stroke-linecap:butt"
   onmouseout="style.opacity = 1;"
   onmouseover="style.opacity = 0.5;"
   id="120"
   class="st4"
   d="m 193.23503,322.7033 1.69501,1.74798 4.65243,0.7857 3.39001,-0.58266 3.91087,1.48313 5.27041,-0.67977 5.02321,1.22712 2.80736,-0.96227 3.7343,0.30898 3.0104,0.97993 3.65486,3.78728 4.95259,0.68859 0.64445,-0.83867 1.35954,1.4125 -1.32422,0.55617 -0.0177,1.00641 2.0393,0.73274 2.61313,-0.96227 0.17657,-1.88922 8.70455,-0.16774 5.76479,2.70142 2.8868,2.44539 3.5136,0.0971 9.19011,3.96384 1.77446,8.35143 0.17656,2.73673 -1.01524,-0.0618 -0.68859,1.83626 3.37235,1.23594 2.8868,3.25759 -1.52727,1.21828 0.0265,2.86915 3.48712,3.12516 3.20462,0.82102 -0.88282,3.82259 -4.34345,7.37151 -7.38916,-4.6701 0.0618,-2.33945 -7.91885,-3.95502 -0.11477,8.84581 -1.4743,1.29774 1.54493,0.37078 0.0971,3.37235 -5.34103,0.11477 -0.0353,-1.32422 -4.45821,-1.36837 -1.58907,2.90447 0.95344,0.0177 -3.9197,2.63079 -3.39001,-0.44141 -4.69657,6.47104 -4.46705,2.46305 -3.2929,-0.65328 -0.22953,-1.50079 -7.04486,-5.6147 -0.51204,2.45422 -2.91328,-1.56258 -1.82743,2.02165 -5.30572,-0.0353 -1.48313,5.45579 -2.39243,-0.32664 -0.053,1.04172 -1.94219,0.30016 -1.65086,-1.49196 -1.14766,0.33547 -0.33547,1.40368 -1.82743,-1.95985 -2.26001,0.66211 0.9711,-2.28649 -3.76962,-3.2929 2.09227,-1.91571 2.07462,-5.42048 0.79453,0.4414 0.87399,-1.70383 -0.30899,-2.41008 0.91813,-0.44141 0.88281,-3.30173 2.91329,0.78571 0.23836,-1.8804 0.57383,0.73274 1.02407,-0.73274 -2.95743,-1.21828 1.06821,-2.86915 -1.20946,0.52086 0.87399,-0.94461 -1.08587,-0.94462 -0.6268,0.78571 -2.48953,-1.74798 -3.72548,-0.27367 -3.69017,-1.62438 -1.62438,0.49438 0.76805,1.12117 -0.9711,1.24477 -5.60587,-0.61797 0.14125,3.70783 -3.28407,-1.13884 -4.58181,4.57299 -4.29931,-0.37079 -2.6661,-1.59789 -1.29774,8.57213 -4.16689,-0.2825 -0.93578,-0.9711 -1.46547,0.72391 -1.14766,-1.36836 -2.31298,-0.0706 -1.43899,-2.03047 0.13242,-2.22469 6.61229,-3.42533 0.5032,-1.32422 -6.26798,-9.07534 5.77361,-0.97992 3.75196,-3.38118 2.49837,-11.21175 3.14282,-4.829 4.0786,-0.94461 7.60987,1.59789 1.33305,-1.695 1.78329,0.46789 -3.97267,-3.70782 -1.35071,-3.90205 0.50321,-2.90446 2.56016,-3.72548 1.28891,-0.41492 z">
<title
   id="title120">Elsterheide     absolute Anzahl: 74 relativ zur Einwohnerzahl: 2,14 %
</title>
</path>
   <!-- Gemeinde   -->

 <path
   style="fill:#671212;fill-opacity:1;stroke:#000000;stroke-width:0.882815;stroke-linecap:butt"
   onmouseout="style.opacity = 1;"
   onmouseover="style.opacity = 0.5;"
   id="130"
   class="st10"
   d="m 198.97245,533.78348 -1.00641,4.45822 1.94219,1.15649 -0.20305,3.03688 3.16931,2.18938 -0.4061,1.27125 -1.94219,-0.87398 -1.11235,1.57141 0.82102,1.20945 -0.91813,5.38518 1.80978,0.15007 0.8475,4.19338 -1.77446,1.21828 0.29133,1.87157 -2.0393,0.43258 -1.65087,4.15806 -2.41008,0.65328 -1.83626,4.21986 -3.36352,1.6332 -0.19422,3.55775 -6.17971,3.61954 -4.1404,-2.75438 -1.50961,2.49836 -0.88282,-0.57383 -0.81219,1.43016 -4.16689,-1.98633 0.82985,-0.49438 -0.49438,-3.32821 3.00158,-2.12758 -3.17814,-7.16846 -0.98875,-1.21829 -1.85391,-3.76079 0.94461,-13.65715 -2.64845,-2.65727 -0.053,-2.77204 4.41407,0.0265 1.82743,-3.96384 0.43258,-4.38759 1.9775,-1.30657 5.25275,-2.10993 1.74798,1.40368 -0.90048,-1.61555 0.82985,-0.42375 4.02564,2.52485 1.7568,-0.0441 0.15008,-1.3772 1.72149,1.35954 2.12758,-0.82102 0.35313,-3.08102 5.42048,4.15806 -0.60031,2.71907 z">
<title
   id="title130">Elstra     absolute Anzahl: 29 relativ zur Einwohnerzahl: 1,07 %
</title>
</path>

    <!-- Gemeinde   -->
<path
   style="fill:#671212;fill-opacity:1;stroke:#000000;stroke-width:0.882815;stroke-linecap:butt"
   onmouseout="style.opacity = 1;"
   onmouseover="style.opacity = 0.5;"
   id="140"
   class="st11"
   d="m 180.6355,602.95998 4.18454,2.24235 0.52969,2.7897 -3.22228,1.28008 -0.67976,2.20704 1.88922,3.46946 -0.565,1.18297 -1.8186,0.9711 -4.45822,0.15891 -5.05853,-1.86274 -7.1508,1.34187 -0.22953,1.1918 -3.74313,-6.8065 2.11875,-6.5858 -0.60914,-5.17329 14.94606,-1.44782 z">
<title
   id="title140">Frankenthal     absolute Anzahl: 10 relativ zur Einwohnerzahl: 1,08 %
</title>
</path>

   <!-- Gemeinde   -->
<path
   style="fill:#6e1212;fill-opacity:1;stroke:#000000;stroke-width:0.882815;stroke-linecap:butt"
   onmouseout="style.opacity = 1;"
   onmouseover="style.opacity = 0.5;"
   id="150"
   class="st5"
   d="m 276.47036,547.06543 0.67977,0.49438 -1.09469,1.52727 1.86274,1.92454 -1.02407,1.37719 0.75922,0.29133 -1.89805,-0.19422 0.70625,0.64445 -3.78727,2.30415 -3.3547,9.34018 5.13798,2.1011 -2.23352,5.64119 1.1918,3.92853 1.4125,-0.0177 0.38844,1.14766 3.4165,-0.0353 1.09469,-1.50079 1.84508,0.41493 1.05938,-2.12759 1.37719,-0.0441 0.36195,-1.79211 5.1733,1.34187 -1.58024,10.02878 -1.95102,4.44056 -2.0393,0.67977 -0.8475,3.17813 -6.04729,-1.51844 -2.09227,5.07619 -2.37477,-0.75922 0.32664,2.23352 -3.10751,2.71024 -1.58024,-0.99758 -5.34986,-0.2207 0.6886,-4.62595 -1.04172,-0.6268 -0.78571,0.65328 -3.7961,-0.74156 -4.57298,-2.34829 -0.20305,2.62196 -1.8186,-3.9197 -2.47188,0.73274 -3.11634,-2.29532 1.46547,-2.85149 -1.0682,-0.55618 -0.94461,-3.08985 -5.72065,-0.2207 -1.10351,2.51602 -2.27767,-1.01524 0.74157,-3.8579 1.98633,-0.29133 0.0177,-2.27766 5.13798,-3.10751 0.73274,-1.83626 -0.009,-1.45664 -1.5361,0.97992 0.47672,-1.68617 -3.47829,0.18539 0.35313,-1.10352 -2.06579,-0.13242 -0.12359,-1.65087 1.81859,-4.52884 3.28408,0.51204 0.0353,-2.26001 0.82984,0.12359 0.52087,-2.35711 0.77687,0.45023 -1.37719,-1.43016 0.30899,-2.85149 -1.70384,-0.89164 0.9711,-2.27767 -0.47672,-1.60672 2.27766,0.42375 0.38844,-2.13641 5.70299,1.28891 0.40609,-1.94219 2.11876,0.49437 -1.80977,-2.89563 0.58265,-0.8475 4.19338,0.39726 1.38601,-0.91812 2.67493,-0.19422 -1.32422,1.4743 1.49196,0.79453 2.27766,0.19422 0.26485,-1.07703 1.4743,-0.0177 1.37719,1.07703 -0.73274,0.83868 0.60914,-0.30016 0.15891,-0.63562 1.50961,0.1589 0.3443,1.35071 4.7672,0.64445 0.053,1.13884 1.1918,0.0441 z">
<title
   id="title150">Göda     absolute Anzahl: 23 relativ zur Einwohnerzahl: 0,75 %
</title>
</path>

<!-- Gemeinde Groszdubrau   -->
<path
   style="fill:#6e1212;fill-opacity:1;stroke:#000000;stroke-width:0.882815;stroke-linecap:butt"
   onmouseout="style.opacity = 1;"
   onmouseover="style.opacity = 0.5;"
   id="160"
   class="st5"
   d="m 335.36913,504.00437 -0.0883,-6.40041 -2.4454,-2.08344 -0.36196,-1.99517 2.74556,-2.98391 2.7279,-11.55605 6.87713,-3.66368 3.48712,-0.66211 -0.23836,3.02805 2.48953,1.9422 -0.36195,-4.02564 0.69742,-0.0971 3.12517,6.53283 2.04813,0.30016 1.695,2.1011 0.9093,-1.40368 3.08103,-0.60031 0.25601,0.88281 1.93337,-0.13242 -0.0441,1.00641 -2.01282,0.59149 0.70625,14.67238 6.18853,0.009 -0.81218,8.0601 3.40766,0.0177 2.67493,-2.4454 1.29774,1.87157 -3.68134,4.13157 -2.62196,0.32664 0.2207,0.83868 -1.46547,0.42375 -1.03289,1.95102 -2.21587,-0.053 1.88923,2.98391 -2.03931,8.84581 -1.8186,1.82743 -4.3611,-0.83868 -0.33547,1.12118 -0.94461,-0.1236 0.10593,-1.20945 -1.1918,-0.47672 0.75922,-1.80095 -2.64844,-0.76804 -1.27125,2.3836 -2.41009,1.58024 -0.97992,-0.33547 -1.21829,2.80735 -1.50961,0.89164 -8.3426,-1.45664 -1.8804,2.47188 0.87399,0.93578 -1.4743,0.21188 -0.60032,2.09227 0.75039,1.34188 -0.65328,-0.14125 -0.30898,2.34828 -2.56017,-0.65328 0.45907,1.85391 -1.6597,0.6268 0.20305,2.0393 1.07704,-0.009 -1.3154,1.31539 0.10594,2.26001 -5.96783,-5.85307 -0.11477,2.17173 -1.46547,0.73273 -1.68617,3.77845 -4.06095,0.30899 -1.43899,5.02322 -3.84908,-1.64204 2.98392,-1.33305 0.0177,-1.44782 0.82101,-0.0353 -1.42133,-1.5979 -1.44782,3.75197 -2.23352,0.67094 -6.67408,-1.43899 -1.14766,-6.93893 3.31056,-0.0177 2.18938,2.6043 4.85548,-0.91813 0.99758,-3.7343 0.90047,-1.27126 1.11235,0.26485 0.78571,-3.15165 1.35953,0.26484 1.8804,-8.92526 1.83625,0.15891 0.88282,-1.50961 1.95102,-0.64446 -1.28008,-2.46305 -1.93337,-0.0883 2.82501,-1.55376 -1.29774,-2.56899 -1.5361,-1.03289 -3.84024,-0.15008 0.0265,-1.48313 1.00641,-0.54735 -0.64445,-1.79211 2.00399,0.24719 2.15407,-1.48313 -0.0177,-3.23993 1.18297,-1.54493 4.51119,-0.75922 0.10593,1.66852 z">
<title
   id="title160">Großdubrau     absolute Anzahl: 36 relativ zur Einwohnerzahl: 0,85 %
</title>
</path>
   <!-- Gemeinde   -->
<path
   style="fill:#821212;fill-opacity:1;stroke:#000000;stroke-width:0.882815;stroke-linecap:butt"
   onmouseout="style.opacity = 1;"
   onmouseover="style.opacity = 0.5;"
   id="170"
   class="st12"
   d="m 149.3556,641.19558 -2.01282,0.50321 -2.48954,-0.1236 -4.06095,-3.71665 -3.14282,-0.9093 -0.80336,-1.78328 -1.14766,-0.15008 -0.73274,-3.76962 0.65328,-1.65087 -2.50719,1.58024 -0.75922,-0.72391 1.70383,-2.07461 -2.22469,-2.41009 1.96868,-2.78086 -0.29133,-1.62438 -4.59947,-2.55134 -0.81219,-2.30415 1.46547,-0.66211 0.25602,0.79454 5.02322,1.18297 5.0497,-2.14524 1.38602,-3.76079 3.25759,0.16773 3.66368,1.61555 5.80009,0.30899 6.31213,-3.08103 3.74314,6.80651 0.22953,-1.1918 7.1508,-1.34188 5.05853,1.86274 4.45821,-0.15891 1.8186,-0.97992 0.80336,0.73273 -1.30656,0.93579 0.15891,7.59221 0.82101,0.94461 -3.70782,1.76563 0.80336,2.06579 2.7897,1.39484 -0.009,5.75596 1.57141,1.13 -2.39243,1.8186 -0.14125,2.03047 -3.0722,1.56259 -2.36594,2.59547 -1.4125,-0.85633 -3.134,4.38759 -2.22469,0.44141 -5.42931,-2.70141 -1.36837,2.06578 -1.31539,0.32664 -1.45664,-1.13 -3.34587,-0.23836 -2.47189,0.94461 z">
<title
   id="title170">Großharthau     absolute Anzahl: 18 relativ zur Einwohnerzahl: 0,64 %
</title>
</path>

   <!-- Gemeinde   -->
<path
   style="fill:#961212;fill-opacity:1;stroke:#000000;stroke-width:0.882815;stroke-linecap:butt"
   onmouseout="style.opacity = 1;"
   onmouseover="style.opacity = 0.5;"
   id="180"
   class="st4"
   d="m 105.12833,539.43438 2.93095,2.31298 0.79453,4.51118 1.82743,-0.37078 1.53609,5.28806 4.40525,3.32821 2.53368,7.28323 -1.4125,4.73189 -3.90205,4.1404 -0.39726,1.82742 -0.74157,-0.68859 0.52086,-1.8804 -2.22469,-1.54492 -1.58024,-4.92611 -4.64361,4.67892 -5.623527,-1.63321 -1.756802,0.41492 -3.345868,-2.93977 -2.109928,1.00641 -2.807352,-2.35712 2.975087,-0.70625 1.80977,-2.45422 -2.012818,-0.63563 -1.703833,1.13883 -3.672508,-0.97992 -2.24235,0.5032 0.247189,-1.51844 8.9076,-4.57298 0.176563,-5.78244 5.402828,-8.93409 2.374769,0.69742 1.67735,-0.97109 z">
<title
   id="title180">Großnaundorf     absolute Anzahl: 4 relativ zur Einwohnerzahl: 0,42 %
</title>
</path>

   <!-- Gemeinde   -->
<path
   style="fill:#671212;fill-opacity:1;stroke:#000000;stroke-width:0.882815;stroke-linecap:butt"
   onmouseout="style.opacity = 1;"
   onmouseover="style.opacity = 0.5;"
   id="190"
   class="st4"
   d="m 325.59901,602.56713 1.3154,-2.6661 2.39243,-0.55617 0.29133,-2.10993 3.43415,3.76079 2.825,-0.66211 1.16532,1.4743 1.05938,8.36026 -3.08103,0.565 0.009,2.45422 1.35954,0.25602 1.79211,6.84182 2.39243,-0.80337 0.30016,1.13884 -1.24477,1.3507 -3.42532,0.3443 1.12117,4.19337 -0.67094,1.07704 -5.25275,-0.15008 -2.92212,0.96227 -0.25601,1.61555 -2.21587,-0.81219 -0.47672,-1.32422 -2.56899,-0.49438 -1.27125,-2.24235 -11.54722,0.17656 3.11633,-7.89236 0.0706,-2.96626 0.96227,0.36195 1.87157,-2.98391 -1.73032,-3.52243 -2.13641,-0.053 -0.50321,-2.00399 2.68376,-2.93095 2.36594,-0.9093 -0.24718,-3.50477 4.16688,-0.70626 0.21188,-1.08586 1.21828,0.14125 1.15649,2.84267 -0.78571,2.33063 0.65329,-0.81219 z">
<title
   id="title190">Großpostwitz     absolute Anzahl: 28 relativ zur Einwohnerzahl: 1,02 %
</title>
</path>

   <!-- Gemeinde   -->
<path
   style="fill:#5f1212;fill-opacity:1;stroke:#000000;stroke-width:0.882815;stroke-linecap:butt"
   onmouseout="style.opacity = 1;"
   onmouseover="style.opacity = 0.5;"
   id="200"
   class="st11"
   d="m 159.88934,585.12359 1.96868,-2.2247 -0.23836,-1.60672 0.47672,0.79453 4.83783,-1.15648 0.54734,1.21828 3.37236,-2.11875 0.75039,2.5425 -0.88282,1.83626 3.92853,-0.0618 0.93578,6.04728 -0.7857,4.83783 1.96868,2.69259 -14.94606,1.43898 0.60914,5.1733 -2.11875,6.5858 -6.32096,3.08985 -5.79127,-0.31781 -3.67251,-1.60672 -3.24876,-0.16774 -1.38602,3.75196 -5.0497,2.15407 -5.02321,-1.1918 -0.25602,-0.7857 -3.31938,1.93336 -2.07462,-0.97992 -6.43572,1.32422 -10.7262,-6.44455 1.51844,-1.00641 -1.37719,-1.0682 -0.33547,-4.18455 4.35228,-2.4454 1.05937,-0.15007 0.97993,1.26242 -0.0706,-2.04813 5.91486,-2.65727 0.0706,-2.71907 1.85391,-0.009 1.1918,-1.76563 -0.49438,-2.26001 -2.49836,-0.83867 5.77361,-8.56331 2.47188,1.38602 5.95017,-1.52727 3.01923,2.76321 3.80493,-1.58906 2.41009,0.95344 2.825,2.95743 4.64361,-1.24477 2.87798,1.63321 z">
<title
   id="title200">Großröhrsdorf     absolute Anzahl: 128 relativ zur Einwohnerzahl: 1,33 %
</title>
</path>

   <!-- Gemeinde   -->
<path
   style="fill:#671212;fill-opacity:1;stroke:#000000;stroke-width:0.882815;stroke-linecap:butt"
   onmouseout="style.opacity = 1;"
   onmouseover="style.opacity = 0.5;"
   id="220"
   class="st6"
   d="m 125.57256,518.95572 3.26642,-0.40609 5.74712,1.50078 13.68363,1.32423 3.27525,4.06977 -0.0618,1.09469 5.65884,1.95985 2.86915,2.35712 -0.52086,5.00556 -1.48313,0.36195 -0.14125,1.43899 1.58907,0.45024 2.11876,-0.87399 5.28806,3.08985 0.053,2.77204 2.65727,2.64845 -0.95344,13.65715 1.85391,3.76079 -4.7054,-2.34829 -3.91087,-0.15008 -3.54009,-5.57056 -4.07861,0.86516 -0.29133,-1.55376 1.13884,-1.67735 -2.11876,-2.6661 -8.20135,0.81219 -2.5072,-8.25432 -9.07533,0.79454 -0.63563,0.82101 -2.13641,0.17657 0.81219,-2.23353 -1.11235,-3.36352 1.1918,-0.52086 -2.67493,-4.24634 -4.97025,0.99758 -0.75922,-2.57782 0.0353,1.23594 -8.29846,1.28008 -8.60744,5.15564 -0.89165,-0.70625 0.67977,-0.92696 -0.73274,-4.47587 -2.20703,0.81219 -2.81618,-3.69899 0.45906,-1.62438 2.04813,-0.19422 -1.21828,-5.78244 0.52969,-2.49837 -3.593061,-3.30172 0.997581,-1.46548 4.52884,0.22071 4.80251,-2.39243 6.47987,4.34345 z">
<title
   id="title220">Haselbachtal     absolute Anzahl: 48 relativ zur Einwohnerzahl: 1,20 %
</title>
</path>

   <!-- Gemeinde   -->
<path
   style="fill:#6e1212;fill-opacity:1;stroke:#000000;stroke-width:0.882815;stroke-linecap:butt"
   onmouseout="style.opacity = 1;"
   onmouseover="style.opacity = 0.5;"
   id="230"
   class="st5"
   d="m 370.45308,584.27962 4.14923,0.52086 1.35071,-3.25759 0.7857,0.85633 2.18938,-0.38844 0.94461,-2.7279 1.1918,0.60915 3.86673,-3.46064 1.1918,-3.54009 0.78571,0.32665 0.27367,2.65727 3.699,-1.5361 3.02805,3.16931 -1.87157,-0.0353 1.39485,1.97751 -2.3836,2.97509 0.14125,2.14524 1.24477,1.3507 -0.60031,2.95743 4.21102,0.65329 1.62438,-1.91571 0.17657,-2.81618 1.15648,0.2825 1.01524,3.91087 3.97267,0.11477 -1.02407,4.45821 0.20305,5.23509 1.93337,0.14125 0.73273,3.74314 1.72149,-1.33305 0.22953,0.75922 -0.70625,-0.0971 -0.11476,3.8579 -2.64845,0.29133 -0.35312,1.52727 2.03047,2.10993 2.56899,-0.59149 -0.93578,1.4743 -1.74798,-0.64445 -2.23352,2.26883 -2.56899,-0.16773 -2.35712,1.59789 -3.50477,-0.64445 -0.75039,-1.05938 -2.79853,3.88439 0.15891,1.13 2.81618,0.44141 0.2207,1.695 2.82501,0.70625 -0.0706,1.05938 -5.97666,0.49438 -4.73189,-2.09227 -4.53767,-0.3443 -1.14766,0.95344 -2.35712,-0.91813 -1.17414,4.08743 -4.31696,-1.31539 -3.31939,0.63563 -7.09783,-0.98876 -2.54251,-2.48953 -4.39642,0.87398 -0.15008,-12.94206 2.14524,-7.42448 1.35071,0.0971 -1.44781,-5.24392 6.21501,-1.20946 3.15165,-6.50634 z">
<title
   id="title230">Hochkirch     absolute Anzahl: 18 relativ zur Einwohnerzahl: 0,80 %
</title>
</path>

   <!-- Gemeinde   -->

<path
   style="fill:#821212;fill-opacity:1;stroke:#000000;stroke-width:0.882815;stroke-linecap:butt"
   onmouseout="style.opacity = 1;"
   onmouseover="style.opacity = 0.5;"
   id="240"
   class="st4"
   d="m 256.79065,378.83709 0.0353,1.33305 10.01995,-0.27367 0.31781,1.1918 1.30657,-0.75922 6.94775,1.43016 0.56501,0.75922 -2.24235,0.94461 4.54649,7.3362 -5.46462,0.11476 0.0971,4.36111 -2.54251,-0.0883 0.25602,7.38916 8.9694,-1.7568 -2.18056,3.77844 0.25602,2.53368 3.52243,1.44782 -1.09469,1.44782 -0.0706,3.07219 -5.42932,7.54807 4.09627,1.11235 4.25516,-0.76805 1.12118,0.67977 -0.81219,-3.78728 7.57455,0.99758 -8.8458,9.63151 -1.98634,3.50478 -4.32579,3.88438 -4.05212,-1.18297 -0.52969,-2.68376 -3.13399,-0.48554 0.5032,-0.72391 -1.49196,-0.90047 0.76805,-4.93494 -2.64844,-3.53126 0.85633,-2.08344 -2.21587,-1.89805 v -5.77361 l -5.36751,2.67492 -2.80735,-2.16289 -3.84025,1.57141 -1.62438,-3.28407 -5.57939,-1.78329 -4.80251,0.83867 0.45906,6.40041 -3.40767,-0.0883 0.053,4.34345 -2.39243,2.95743 -3.06336,0.14125 0.0706,-1.80977 -6.7447,-5.66767 -1.20946,1.54493 -0.98875,-0.13243 0.11476,-1.4125 h -5.34103 l -1.65086,1.30657 -3.48712,-0.009 -1.50079,2.23352 -2.57782,0.58266 -2.78969,3.12516 -1.06821,-1.16531 -6.85947,1.73914 -4.97025,5.21744 -1.98633,-0.6268 -9.15479,0.77688 -3.51361,-0.60915 -2.50719,-1.76563 -1.20063,-3.31938 -2.13641,1.00641 -11.21175,-7.76877 -2.07462,-1.15649 -0.37078,-1.28008 4.21103,-0.0883 4.23751,-4.03447 0.5032,1.20946 2.00399,-0.51203 -0.5032,-1.34188 -1.54493,-0.24719 2.48954,-3.87556 3.2929,-1.90688 1.7568,1.65969 -0.26484,-2.41008 3.66368,-2.09227 -2.55134,-6.00315 9.4373,-4.91727 -1.27126,-0.0177 0.48555,-1.20063 1.76563,-0.13242 -0.053,3.69899 1.98634,0.26485 0.24718,-3.14282 1.58024,0.20304 1.80977,-3.94618 3.22228,3.95501 2.00399,-3.83142 5.26158,4.35228 -0.9711,2.28649 2.26001,-0.66211 1.82742,1.95102 0.33547,-1.39484 1.14766,-0.33547 1.65087,1.48313 1.94219,-0.29133 0.0441,-1.05055 2.39243,0.32664 1.49196,-5.4558 5.30571,0.0353 1.8186,-2.01281 2.92212,1.55375 0.51203,-2.45423 7.03604,5.61471 0.22953,1.50961 3.30173,0.65328 4.46704,-2.46305 4.69658,-6.47103 3.38118,0.4414 3.92853,-2.63078 -0.95344,-0.0177 1.58906,-2.90446 z">
<title
   id="title240">Hoyerswerda     absolute Anzahl: 213 relativ zur Einwohnerzahl: 0,66 %
</title>
</path>

   <!-- Gemeinde   -->
<path
   style="fill:#5a1212;fill-opacity:1;stroke:#000000;stroke-width:0.882815;stroke-linecap:butt"
   onmouseout="style.opacity = 1;"
   onmouseover="style.opacity = 0.5;"
   id="250"
   class="st5"
   d="m 198.8771,489.4803 4.63478,7.63635 1.03289,8.40439 -5.37634,2.88681 -3.20462,0.0795 0.0795,1.28891 -1.69501,0.57383 -1.24477,-3.2929 -3.75196,0.44141 -2.63079,4.67892 -2.35712,0.0795 0.73274,3.97267 4.10509,4.62595 0.0353,2.54251 2.41009,0.46789 -0.73274,1.67735 1.66852,0.97109 -0.36195,3.0722 -2.12759,0.82985 -1.71266,-1.35954 -0.15008,1.36836 -1.7568,0.0441 -4.02563,-2.51603 -0.82985,0.41493 0.90047,1.62438 -1.74797,-1.41251 -5.25275,2.11876 -1.97751,1.30656 -0.44141,4.38759 -1.82742,3.96384 -4.40525,-0.0265 -5.28806,-3.08985 -2.11876,0.87398 -1.58906,-0.45023 0.13242,-1.43899 1.48313,-0.36196 0.52969,-5.01438 -2.87798,-2.34829 -5.65884,-1.95985 0.0618,-1.09469 -3.27524,-4.06978 -13.6748,-1.32422 -5.74713,-1.50079 -3.27524,0.4061 4.19337,-9.88753 2.40125,-8.59862 -2.63961,-1.73032 -1.5361,-2.80735 -0.9711,-6.7447 4.00798,-2.27767 -3.16048,-3.22227 12.64192,-8.80167 4.7054,-0.68859 2.22469,-2.26001 0.99758,-5.85306 2.73673,-3.47829 8.21901,3.99032 1.13883,-0.053 1.70383,-2.0393 7.4951,-0.75039 2.90446,1.20945 1.41251,-3.00157 1.3507,1.22712 -0.60031,1.15648 0.95344,0.23836 0.77688,2.95743 1.15648,0.55618 -0.24718,2.30414 4.4229,1.80095 3.30173,-0.92696 -0.16774,-2.24235 1.16532,-0.9093 3.87556,8.55448 4.08743,4.14923 z">
<title
   id="title250">Kamenz     absolute Anzahl: 272 relativ zur Einwohnerzahl: 1,61 %
</title>
</path>

   <!-- Gemeinde   -->
<path
   style="fill:#6e1212;fill-opacity:1;stroke:#000000;stroke-width:0.882815;stroke-linecap:butt"
   onmouseout="style.opacity = 1;"
   onmouseover="style.opacity = 0.5;"
   id="270"
   class="st5"
   d="m 60.965687,433.40036 8.92526,0.33547 0.114766,1.59789 2.295319,2.21587 6.532831,1.20063 3.999154,12.05925 4.846655,-2.57782 1.235938,4.66126 -1.368361,2.77204 1.218285,5.57939 7.044861,2.60431 3.372353,12.92441 -3.787276,-0.44141 -11.556046,3.18696 1.200629,2.49837 2.118756,0.31781 3.663679,2.65727 -6.038452,5.02322 -4.078605,1.08586 -0.185391,1.34188 1.589067,0.39727 0.194219,3.00157 2.630789,5.48228 2.410085,-0.0353 0.697424,6.01197 3.37235,-0.21188 1.094691,2.73673 -1.76563,0.98875 -0.662111,1.73915 9.198932,3.73431 -0.997581,1.46547 3.593053,3.2929 -0.52086,2.50719 1.20946,5.77361 -2.04813,0.19422 -0.45906,1.62438 2.81617,3.699 2.20704,-0.81219 0.73274,4.47587 -0.67977,0.92695 -2.05696,-1.03289 -1.68617,0.9711 -2.365948,-0.70625 -1.633208,0.17656 -1.218285,-1.71266 -2.357116,0.3443 -3.319384,-2.43657 -1.739143,-2.73673 0.08828,-2.86915 -4.952571,-0.71508 0.300158,-4.9879 -6.824163,-0.78571 1.350707,-2.08344 0.256016,-3.49595 -0.706252,-0.43258 -2.648445,0.13242 -8.024788,5.65002 1.509614,-4.264 -0.467892,-1.76563 4.828998,-3.52243 -5.217437,0.71508 0.344298,-5.37634 -0.971096,-1.39485 -6.320956,-0.14125 -2.516022,2.02165 -2.00399,-0.009 -6.82416,-3.50478 -6.647597,-12.20933 -0.988753,-3.50477 -2.048131,-0.77688 1.544927,-1.42133 1.280081,-3.58423 6.48869,-7.09784 3.716652,-9.63151 -0.203048,-5.29689 13.224569,3.08986 0.344297,-2.67493 -1.386019,-1.36837 0.485548,-2.26 -2.048131,-2.83384 0.344298,-3.5136 -1.341879,-3.54009 1.068207,-0.9093 -1.491958,-0.65328 -0.423751,-2.31298 -4.828998,-4.28165 0.47672,-3.46064 0.688596,-0.85633 -0.856331,-4.13157 z">
<title
   id="title270">Königsbrück     absolute Anzahl: 45 relativ zur Einwohnerzahl: 0,99 %
</title>
</path>

    <!-- Gemeinde   -->
<path
   style="fill:#5f1212;fill-opacity:1;stroke:#000000;stroke-width:0.882815;stroke-linecap:butt"
   onmouseout="style.opacity = 1;"
   onmouseover="style.opacity = 0.5;"
   id="280"
   class="st5"
   d="m 243.60492,465.95946 -0.0794,-0.89165 8.57213,-3.40766 6.50635,-3.90205 6.78885,-0.59148 -1.3154,-4.36111 8.08659,-2.73672 8.29846,0.96226 1.55375,3.88439 -0.40609,4.83783 -2.0393,5.12915 4.3611,1.06821 0.47672,9.04885 0.86516,1.58907 3.3547,1.84508 0.76805,2.98392 8.59862,0.92695 -1.72149,7.28323 6.21501,1.08586 2.53368,-3.48712 1.85391,-1.06821 2.57782,0.0971 0.86516,-2.63961 1.45665,-0.4679 -1.06821,-1.46547 -0.26484,-4.829 3.16047,2.58665 -1.43016,2.08344 0.009,1.89806 2.18938,7.19494 -3.11633,3.49595 -1.09469,4.16688 -11.52957,-3.16048 -9.02237,-1.48312 -2.52485,5.34985 -2.20704,-0.81219 -2.33063,-3.53126 -6.1797,-0.0618 0.31781,-1.48313 -5.98548,0.42375 -1.55376,1.49196 -2.26883,-0.51204 -10.14355,1.87157 -0.0706,-1.24477 -2.79853,0.29133 -1.92453,2.41009 1.64203,1.0682 0.19422,1.43016 -1.34188,0.22954 0.30016,-0.98876 -3.41649,-0.54734 -0.11477,-1.7568 h -4.36993 l -0.053,-4.44056 2.17172,-8.31612 0.15891,-4.35228 -0.4061,-6.49752 z">
<title
   id="title280">Königswartha     absolute Anzahl: 45 relativ zur Einwohnerzahl: 1,30 %
</title>
</path>

    <!-- Gemeinde   -->
<path
   style="fill:#6e1212;fill-opacity:1;stroke:#000000;stroke-width:0.882815;stroke-linecap:butt"
   onmouseout="style.opacity = 1;"
   onmouseover="style.opacity = 0.5;"
   id="290"
   class="st13"
   d="m 339.27823,585.2101 -3.07219,-2.31297 3.12516,-0.38844 -0.31781,-1.58907 -3.0104,-2.3218 -3.15165,0.22953 2.8868,-0.33547 0.55618,-2.10993 -1.58907,-1.46547 4.06978,0.32664 0.41492,-1.9775 1.11235,0.053 0.35312,-1.22712 2.1011,0.36196 -0.23836,-3.99033 -1.83625,-1.02406 -0.96227,-3.28407 3.31938,-3.91087 -2.1011,-1.74798 0.1854,-0.91812 -0.59149,-1.33306 2.61313,0.47672 1.20946,-2.26883 2.56016,0.53852 0.31782,-1.4743 0.90929,0.24718 -0.25601,0.86516 2.33946,0.21188 0.6268,1.50078 2.52485,1.49196 4.80251,0.91813 3.40767,-2.07462 0.79453,-1.81859 3.65485,-1.47431 1.30657,2.79853 -0.83867,0.47672 2.78086,1.22711 0.60915,1.96868 0.17656,1.94219 -1.84508,1.54493 0.73273,6.39158 -0.86516,0.18539 -0.2825,4.02564 -2.18938,1.07703 1.46547,-0.29133 -0.33547,2.34829 -0.93578,-0.11477 -0.20305,1.06821 -1.44781,-0.2825 0.74156,3.86673 -1.91571,3.54009 0.0177,1.14765 1.63321,1.19181 2.64844,-0.87399 -3.15165,6.50634 -6.22384,1.21829 1.45664,5.23509 -1.35953,-0.0971 -2.13642,7.42448 0.15008,12.95089 -2.91329,0.0795 -4.69657,-1.55376 0.0971,0.99758 -3.18696,1.64204 -4.77603,-1.54493 -2.39243,0.80336 -1.78329,-6.84181 -1.35953,-0.25602 -0.0177,-2.45422 3.08985,-0.56501 -1.0682,-8.36025 -1.16532,-1.4743 -2.82501,0.66211 -3.43415,-3.7608 -0.2825,2.10993 -2.39243,0.55618 -1.32422,2.6661 -2.40126,-0.94462 -0.64445,0.81219 0.7857,-2.33063 -1.16531,-2.84266 -1.20946,-0.14125 -0.0794,-1.55376 0.91813,0.11477 -0.67977,-2.79852 2.56016,0.41492 0.95344,-1.78329 1.34188,0.45907 0.81219,-1.36837 5.30572,-0.0353 3.32821,-3.41649 z">
<title
   id="title290">Kubschütz     absolute Anzahl: 22 relativ zur Einwohnerzahl: 0,87 %
</title>
</path>
<!--        Lausznitz     -->
<path
   style="fill:#671212;fill-opacity:1;stroke:#000000;stroke-width:0.882815;stroke-linecap:butt"
   onmouseout="style.opacity = 1;"
   onmouseover="style.opacity = 0.5;"
   id="300"
   class="st4"
   d="m 68.642205,516.68424 0.459064,1.76563 -1.509614,4.264 8.024789,-5.65002 2.657273,-0.13242 0.697424,0.43258 -0.247189,3.49594 -1.359535,2.09228 6.824163,0.77687 -0.291329,4.98791 4.943761,0.71508 -0.07945,2.87797 1.730317,2.7279 3.319384,2.43657 2.357116,-0.33547 1.218285,1.70384 1.633208,-0.16774 -5.402828,8.93409 -0.176563,5.78244 -8.916431,4.57298 -0.23836,1.51844 -4.334622,-0.47672 -4.422906,2.48954 -4.00798,0.38844 -4.414075,2.3836 -2.136412,-0.6886 -1.218285,-0.80336 -0.02648,-1.89805 -1.562582,0.58266 -2.516023,-1.43899 -1.995162,1.74797 -1.739146,-0.0971 0.485549,-4.05212 -2.91329,6.21502 -2.233522,-0.41493 -2.81618,1.21829 -9.931668,-2.91329 -2.383601,-3.52243 -2.109927,0.59148 -3.716652,-2.49836 1.359536,-3.5754 -6.267987,-1.63321 -2.268834,-2.34829 8.87229,-1.55375 1.447817,-8.30729 0.264844,1.44781 5.049702,2.69259 1.52727,-0.17656 0.71508,-1.40368 0.211876,0.60914 -0.203048,-3.01922 5.014389,0.0618 -0.768049,-1.49195 0.803362,-2.42774 -1.412504,-1.40368 -3.902042,0.2825 0.565001,-0.74156 -1.421332,-1.15649 0.07945,-1.86274 1.306566,-1.71266 -2.330632,-1.44782 0.856331,-2.33063 0.158906,1.82743 0.23836,-1.73915 4.166887,2.12758 -0.361954,1.01524 0.600314,-0.91813 2.57782,-0.30015 -2.357116,-7.81292 2.498366,-1.50961 0.353126,0.58266 1.315395,-1.79212 2.86032,0.82102 0.326642,-0.63562 0.282501,-2.86915 -1.827427,0.75922 -4.91728,-1.97751 -2.966258,-2.73672 4.934936,-3.54892 -3.654854,-2.13641 4.740716,-0.89165 1.1918,2.41009 6.82416,3.50477 2.00399,0.009 2.524851,-2.02164 6.312127,0.14125 0.979925,1.39484 -0.353126,5.37635 5.226264,-0.71508 z">
<title
   id="title300">Laußnitz     absolute Anzahl: 19 relativ zur Einwohnerzahl: 1,03 %
</title>
</path>
   <!-- Gemeinde   -->

<path
   style="fill:#961212;fill-opacity:1;stroke:#000000;stroke-width:0.882815;stroke-linecap:butt"
   onmouseout="style.opacity = 1;"
   onmouseover="style.opacity = 0.5;"
   id="310"
   class="st11"
   d="m 200.1307,363.93164 3.72548,0.27368 2.48954,1.73914 0.6268,-0.77687 1.08586,0.94461 -0.87399,0.94461 1.20946,-0.52086 -1.06821,2.86032 2.95743,1.22711 -1.02406,0.73274 -0.58266,-0.73274 -0.22953,1.8804 -2.91329,-0.78571 -0.88282,3.30173 -0.91813,0.44141 0.30899,2.41008 -0.87399,1.70384 -0.79453,-0.44141 -2.07462,5.42048 -2.09227,1.91571 -1.49195,-1.05938 -2.00399,3.83142 -3.22228,-3.95501 -1.80977,3.94618 -1.58024,-0.20304 -0.24719,3.15164 -1.98633,-0.26484 0.053,-3.69899 -1.76563,0.13242 -0.48555,1.20063 1.27125,0.009 -9.43729,4.92611 2.55134,5.99432 -3.66369,2.09227 0.26485,2.41891 -1.7568,-1.66852 -3.2929,1.90688 -2.48954,3.88439 1.54493,0.23836 0.5032,1.34187 -2.00399,0.51204 -0.5032,-1.20946 -4.23752,4.03447 -4.21102,0.0883 0.37078,1.28008 2.07461,1.16531 -1.38602,1.68618 0.51204,3.28407 1.42133,0.2825 2.53368,-1.62438 -0.9093,4.40525 -4.29048,-2.43657 -2.56017,-3.16048 -5.10267,-2.55133 -1.02406,-1.5979 -1.12118,-9.71979 -2.21586,-2.71024 3.53126,0.26484 -0.22953,-1.28891 -0.95344,-2.30414 -2.79853,-0.98876 2.93095,-3.48712 8.23666,-3.94618 -4.30814,-4.29048 1.24477,-6.46221 -8.35143,-7.58338 -1.20062,-2.11875 2.56016,-3.73431 14.51348,5.58822 -0.13243,2.22469 1.43899,2.03048 2.30415,0.0706 1.15649,1.35954 1.46547,-0.71508 0.93578,0.97109 4.16689,0.27368 1.29774,-8.56331 2.6661,1.58907 4.29931,0.37961 4.57298,-4.57298 3.2929,1.13883 -0.15008,-3.70782 5.60588,0.61797 0.97992,-1.24477 -0.76805,-1.12118 1.62438,-0.49437 z">
<title
   id="title310">Lauta     absolute Anzahl: 39 relativ zur Einwohnerzahl: 0,47 %
</title>
</path>

   <!-- Gemeinde   -->
<path
   style="fill:#821212;fill-opacity:1;stroke:#000000;stroke-width:0.882815;stroke-linecap:butt"
   onmouseout="style.opacity = 1;"
   onmouseover="style.opacity = 0.5;"
   id="320"
   class="st7"
   d="m 99.098704,587.97243 -2.436569,-0.66211 -1.05055,-3.04571 0.194219,-4.50236 1.103519,-1.52727 -1.130003,-1.13883 2.454226,-4.09626 -0.838675,-6.09142 1.756802,-0.41493 5.623527,1.63321 4.64361,-4.67892 1.58024,4.92611 2.22469,1.54493 -0.52086,1.88039 0.74157,0.6886 0.39726,-1.82743 3.90205,-4.1404 1.4125,-4.73189 4.50236,0.88281 -1.12118,3.82259 0.83868,1.84509 -0.73274,4.50235 1.51844,2.82501 -0.90047,0.37078 1.68618,7.38917 -6.23268,9.43729 -3.7961,-3.50478 -0.86516,0.66211 -11.17644,-6.1179 z">
<title
   id="title320">Lichtenberg     absolute Anzahl: 12 relativ zur Einwohnerzahl: 0,74 %
</title>
</path>

   <!--        Lohsa     -->
<path
   style="fill:#821212;fill-opacity:1;stroke:#000000;stroke-width:0.882815;stroke-linecap:butt"
   onmouseout="style.opacity = 1;"
   onmouseover="style.opacity = 0.5;"
   id="330"
   class="st1"
   d="m 272.1684,450.06525 -8.09541,2.73673 1.32422,4.36111 -6.78885,0.59148 -5.62353,-13.48058 -0.74156,-9.45495 0.75039,-1.46547 5.88838,-1.16532 -0.009,-1.4743 1.8186,-0.82985 1.44781,-0.30015 0.80337,2.45422 2.29532,-1.94219 0.54734,1.03289 1.1918,-1.20945 1.49196,0.9093 -0.50321,0.7239 3.134,0.48555 0.52969,2.68376 4.06094,1.18297 4.31697,-3.89321 1.98633,-3.49595 8.84581,-9.63151 -7.57455,-0.99758 0.81219,3.78727 -1.12118,-0.67976 -4.25517,0.76805 -4.09626,-1.11235 5.42931,-7.54807 0.0706,-3.07219 1.09469,-1.44782 -3.52243,-1.44782 -0.25602,-2.53368 2.18055,-3.77845 -8.9694,1.75681 -0.25601,-7.38916 2.54251,0.0795 -0.0971,-4.35228 5.46462,-0.11477 1.28008,2.18056 0.73274,-1.5361 3.82259,-0.64446 2.09227,0.82102 -0.13242,1.85391 3.92852,-4.22868 3.39001,-1.57141 1.42134,0.12359 0.67976,2.77204 6.66526,0.41493 -0.0618,-2.17173 3.3547,0.0177 -0.10594,1.65086 1.11235,0.19422 -1.33306,7.4951 5.58822,2.43657 14.6459,0.0795 1.4743,-0.93578 -0.18539,-1.46547 2.56017,-2.81618 3.06337,4.99673 2.93094,0.72391 1.16532,2.00399 4.02563,1.76563 3.2929,-0.65329 -1.66852,12.62426 5.77361,1.35071 -1.1918,2.77203 -3.10751,1.48313 -2.59547,6.67408 -1.72149,1.43899 -1.21829,4.00798 2.3836,4.40525 -0.17656,2.07462 -2.18938,3.76079 -1.05055,-0.59149 -1.24477,2.62196 -0.79453,-0.12359 -4.16689,7.95416 -2.18938,7.05369 2.28649,-0.25601 -2.46305,2.01281 -1.13883,2.73673 -6.18854,1.38602 -3.96384,8.17487 -2.16289,3.28407 -1.30657,0.29133 -3.15165,-2.58665 0.26485,4.829 1.0682,1.45664 -1.45664,0.46789 -0.87399,2.64845 -2.56899,-0.10594 -1.85391,1.06821 -2.54251,3.48712 -6.20619,-1.08587 1.72149,-7.28322 -8.60745,-0.92696 -0.75922,-2.97508 -3.36352,-1.85391 -0.86516,-1.58024 -0.47672,-9.05768 -4.36111,-1.06821 2.0393,-5.12915 0.4061,-4.829 -1.55375,-3.89322 z">
<title
   id="title330">Lohsa     absolute Anzahl: 34 relativ zur Einwohnerzahl: 0,65 %
</title>
</path>
<!-- Gemeinde   -->
<path
   style="fill:#6e1212;fill-opacity:1;stroke:#000000;stroke-width:0.882815;stroke-linecap:butt"
   onmouseout="style.opacity = 1;"
   onmouseover="style.opacity = 0.5;"
   id="340"
   class="st4"
   d="m 375.35712,506.97327 -1.30657,-1.88039 -2.67493,2.45422 -3.40767,-0.0177 0.82102,-8.0601 -6.18853,-0.009 -0.71508,-14.67239 2.02164,-0.59148 0.0353,-1.01524 -1.92454,0.13242 -0.25602,-0.87398 -3.08985,0.60031 -0.90047,1.39485 -1.70383,-2.09227 -2.0393,-0.30016 -3.134,-6.53283 -0.69742,0.0971 -0.21188,-1.23594 1.20063,-0.90047 5.12916,0.0353 -1.04173,-3.48712 1.90688,-0.82102 -1.23594,-1.28891 1.40368,-1.38602 -1.02407,-0.52086 -0.39726,-2.87798 1.31539,-0.53851 0.41492,-1.74798 5.12916,-0.76805 1.78329,-4.93493 1.89805,-1.05938 -1.58907,5.36752 -3.54891,6.38275 0.75039,0.57383 0.89164,-0.97993 1.69501,2.26884 3.64602,1.73031 0.38844,4.10509 2.09227,0.96227 -0.30898,0.88282 1.695,0.97109 3.08985,5.72065 2.15407,-0.0265 3.21345,-5.12915 1.73032,1.35953 3.46946,0.41492 -0.78571,1.50962 3.09868,0.26484 -3.02805,2.15407 -0.52086,2.80735 5.1115,0.51204 -1.90688,3.36352 5.2704,-0.39727 -0.7857,3.79611 -2.63962,4.74071 0.67094,4.52885 4.36111,2.68375 1.11234,3.62837 4.49353,0.22071 -1.86274,8.97822 -2.50719,4.52002 6.05611,1.07703 4.05212,6.72705 -0.43258,5.07619 -1.18297,-0.19422 -1.84509,1.63321 -3.55774,7.3097 -2.28649,6.0826 1.51844,1.71266 -1.2536,-0.76805 -1.48313,2.95743 -1.82742,-0.27367 -0.74157,7.27439 -2.49836,2.5072 -1.22712,-0.37961 -0.29133,2.36594 -2.3218,1.13001 -1.38602,-0.4061 -3.20462,-1.99516 -0.48555,-2.36594 -2.02164,0.37961 -0.49438,-1.33305 -0.91813,0.31781 -1.31539,-1.18297 -2.5072,2.21586 -0.77687,-1.10352 -3.59306,-0.90047 -0.60914,-1.96868 -2.78087,-1.21828 0.83868,-0.48555 -1.30657,-2.79852 -3.64603,1.4743 -0.80336,1.8186 -3.40766,2.07461 -4.80252,-0.9093 -2.52485,-1.50078 -0.6268,-1.50079 -2.33946,-0.21187 0.25602,-0.86516 -0.9093,-0.24719 -0.30899,1.4743 -2.56899,-0.53852 -1.20063,2.26884 -2.61313,-0.47672 0.58266,1.33305 -4.80251,-0.92696 0.67094,-2.50719 -2.56017,-1.42133 0.27368,-1.13883 -0.80337,-0.32665 0.94462,-2.21586 -1.72149,-0.14125 -1.87157,-2.18055 -0.10594,-2.26884 1.32422,-1.30657 -1.07703,0.009 -0.21188,-2.04813 1.66852,-0.6268 -0.46789,-1.85391 2.56899,0.66211 0.30016,-2.34828 0.65328,0.13242 -0.74156,-1.34188 0.60031,-2.08344 1.4743,-0.22071 -0.87398,-0.92695 1.87157,-2.47189 8.35142,1.45665 1.50079,-0.89164 1.22711,-2.80736 0.9711,0.32665 2.41008,-1.57142 1.27126,-2.3836 2.64844,0.76805 -0.75922,1.79212 1.1918,0.48555 -0.10594,1.20945 0.94462,0.1236 0.34429,-1.12118 4.35228,0.82985 1.8186,-1.8186 2.0393,-8.84581 -1.88922,-2.98391 2.22469,0.053 1.02407,-1.95985 1.4743,-0.42375 -0.2207,-0.83868 2.61313,-0.31781 z">
<title
   id="title340">Malschwitz     absolute Anzahl: 41 relativ zur Einwohnerzahl: 0,88 %
</title>
</path>
<!-- Gemeinde   -->

<path
   style="fill:#671212;fill-opacity:1;stroke:#000000;stroke-width:0.882815;stroke-linecap:butt"
   onmouseout="style.opacity = 1;"
   onmouseover="style.opacity = 0.5;"
   id="350"
   class="st15"
   d="m 221.86914,510.44185 -6.00315,-2.44539 -3.86673,1.16531 -2.39242,2.7279 -0.1236,3.76962 1.13883,0.82102 -0.42375,2.78087 -0.88281,-0.45024 -0.25602,1.15649 0.38844,3.00157 2.3218,-0.11477 0.19422,1.55376 2.5072,1.15649 v 1.96867 l -2.59548,0.20305 0.35313,1.20063 2.55133,0.39727 0.24719,0.99758 -0.44141,1.62438 -1.73031,-0.30899 0.74156,3.74314 -3.61071,-0.4679 0.0177,1.05938 h -2.93094 l -0.58266,-1.26242 -3.55775,1.32422 -3.95501,-2.26001 -1.58024,-0.39726 0.60032,-2.71025 -5.41166,-4.16688 -1.67735,-0.96227 0.73274,-1.67735 -2.41008,-0.47672 -0.0265,-2.53368 -4.10509,-4.62595 -0.73273,-3.98149 2.35711,-0.0795 2.63079,-4.67009 3.75196,-0.44141 1.23594,3.28407 1.70384,-0.565 -0.0795,-1.28891 3.20462,-0.0795 5.37635,-2.89563 -1.04173,-8.4044 -4.62595,-7.62752 6.85065,-2.75439 0.26484,1.48313 -1.60672,1.32423 0.0441,1.3507 1.45664,0.60914 2.51603,-1.50078 3.10751,0.18539 1.35953,-0.92696 0.45024,-3.69016 5.73829,7.23025 -0.45023,6.3651 2.42774,4.7054 z">
<title
   id="title350">Nebelschütz     absolute Anzahl: 13 relativ zur Einwohnerzahl: 1,06 %
</title>
</path>

   <!-- Gemeinde   -->
 <path
   style="fill:#821212;fill-opacity:1;stroke:#000000;stroke-width:0.882815;stroke-linecap:butt"
   onmouseout="style.opacity = 1;"
   onmouseover="style.opacity = 0.5;"
   id="360"
   class="st13"
   d="m 256.73503,496.36802 10.14355,-1.86274 2.26883,0.5032 1.55375,-1.49195 5.97666,-0.41493 -0.30898,1.48313 6.1797,0.053 2.33063,3.54009 2.20704,0.80336 2.51602,-5.34986 9.0312,1.48313 -6.25916,14.38989 -3.46946,5.54407 0.2207,1.82743 -0.96227,0.44141 0.43258,4.51118 -2.9486,5.72947 1.06821,0.31781 0.57383,2.62197 -1.28891,7.18611 -5.04088,-1.08586 0.64446,2.18055 -0.99758,4.52884 -3.53126,-0.92695 -0.60914,4.67891 -1.72149,1.85392 -1.20063,-0.0441 -0.0441,-1.13884 -4.77603,-0.63562 -0.3443,-1.35954 -1.50078,-0.1589 -0.16774,0.63562 -0.60031,0.30899 0.7239,-0.8475 -1.36836,-1.07704 -1.4743,0.0177 -0.26484,1.08586 -2.28649,-0.19422 -1.48313,-0.79453 1.32422,-1.4743 -2.68376,0.19422 -1.8186,-0.58266 0.22953,-1.82743 2.10993,-0.15008 1.65087,-2.63962 -0.66212,-4.84665 1.05055,-0.31781 0.4061,-2.18056 1.1918,-0.0706 -0.27367,-0.85633 2.91329,-1.73032 2.55133,-3.08102 -1.21828,-0.15891 -2.98392,-4.71423 -4.50235,0.053 -0.3443,-1.54493 -3.27525,-1.58024 -0.95344,2.03048 -1.52727,-0.18539 -0.41492,1.38601 -3.46063,-2.74555 -0.39727,1.03289 -5.83541,-0.12359 -1.25359,-2.30415 0.51203,-0.7857 -2.58665,-0.2825 0.0177,-4.06978 2.69258,-1.86274 -0.16773,-2.48954 2.18938,-2.10993 0.38844,-7.42447 4.36993,-0.009 0.11477,1.7568 3.42532,0.54735 -0.30016,0.99758 1.34188,-0.22953 -0.19422,-1.43899 -1.64203,-1.05938 1.92453,-2.41891 2.79853,-0.29133 z">
<title
   id="title360">Neschwitz     absolute Anzahl: 18 relativ zur Einwohnerzahl: 0,75 %
</title>
</path>

    <!-- Gemeinde   -->
<path
   style="fill:#501212;fill-opacity:1;stroke:#000000;stroke-width:0.882815;stroke-linecap:butt"
   onmouseout="style.opacity = 1;"
   onmouseover="style.opacity = 0.5;"
   id="370"
   class="st13"
   d="m 99.189634,476.77041 6.515176,0.45906 2.86915,2.03048 4.9879,0.0441 3.52243,2.20703 0.16774,-1.50078 2.52485,2.0393 2.43657,0.25602 -4.24634,2.37477 1.05055,2.67493 1.73914,-2.05696 4.55533,-0.37961 1.39485,-1.4743 1.15648,0.24719 3.16048,3.22227 -4.00798,2.27767 0.9711,6.73587 1.5361,2.81618 2.63961,1.73032 -2.40125,8.59862 -4.19337,9.88753 -10.47902,-0.50321 -6.47103,-4.34345 -4.80252,2.39243 -4.537664,-0.2207 -9.198932,-3.72548 0.670939,-1.74798 1.756802,-0.98875 -1.094691,-2.73673 -3.37235,0.21188 -0.697424,-6.01197 -2.410085,0.0441 -2.630789,-5.49111 -0.194219,-3.00157 -1.589067,-0.39727 0.185391,-1.33305 4.078605,-1.09469 6.038452,-5.02321 -3.663679,-2.65728 -2.118756,-0.30898 -1.191801,-2.5072 11.556046,-3.18696 z">
<title
   id="title370">Neukirch     absolute Anzahl: 43 relativ zur Einwohnerzahl: 2,66 %
</title>
</path>
 <!-- Gemeinde   -->

<path
   style="fill:#821212;fill-opacity:1;stroke:#000000;stroke-width:0.882815;stroke-linecap:butt"
   onmouseout="style.opacity = 1;"
   onmouseover="style.opacity = 0.5;"
   id="380"
   class="st11"
   d="m 269.06884,625.27666 9.66682,0.41493 0.15891,8.63393 -1.52727,0.85633 0.82102,1.82742 -0.52969,3.44298 1.06821,1.14766 -9.093,2.63079 -0.57383,1.57141 -4.27282,2.58665 -0.63563,2.33946 2.71024,4.03446 -8.47502,-0.60914 -4.25517,-2.93977 -5.59705,-0.94462 -5.52642,-6.75353 0.35313,-3.68134 1.62438,-0.27367 -1.63321,-2.45423 0.11476,-2.3836 1.32423,-1.9775 0.17656,-6.48869 14.35457,-3.97267 z">
<title
   id="title380">Neukirch/Lausitz     absolute Anzahl: 34 relativ zur Einwohnerzahl: 0,70 %
</title>
</path>

    <!-- Gemeinde   -->
<path
   style="fill:#821212;fill-opacity:1;stroke:#000000;stroke-width:0.882815;stroke-linecap:butt"
   onmouseout="style.opacity = 1;"
   onmouseover="style.opacity = 0.5;"
   id="390"
   class="st5"
   d="m 307.87827,598.88844 -0.0265,2.6661 3.08986,5.18212 0.82984,-0.47672 0.50321,2.00399 2.13641,0.053 1.73032,3.51361 -1.87157,2.99274 -0.96227,-0.36195 -0.0706,2.96625 -3.11634,7.88354 -0.67977,-0.20305 -1.67735,-1.9157 -3.69899,-0.35313 -0.45907,-2.48954 -6.62994,-1.40367 -0.86515,-0.45907 0.23836,-1.76563 -2.01282,0.51204 -0.9093,-1.12118 0.053,-5.7383 3.06336,-7.38916 1.20063,0.1236 1.41251,-2.79853 1.13,1.12118 0.78571,-2.62196 1.38601,-0.36196 -0.41492,-1.28891 1.10352,-0.45906 3.54009,0.6268 -0.49438,1.24477 z">
<title
   id="title390">Obergurig     absolute Anzahl: 13 relativ zur Einwohnerzahl: 0,63 %
</title>
</path>

   <!-- Gemeinde   -->
<path
   style="fill:#821212;fill-opacity:1;stroke:#000000;stroke-width:0.882815;stroke-linecap:butt"
   onmouseout="style.opacity = 1;"
   onmouseover="style.opacity = 0.5;"
   id="410"
   class="st11"
   d="m 171.64314,573.68584 0.48555,3.32821 -0.82102,0.49438 -2.80735,0.5032 0.37961,1.43016 -1.94219,1.49196 -4.84666,1.15649 -0.46789,-0.79454 0.22953,1.5979 -1.95984,2.23352 -6.93893,3.6372 -2.88681,-1.63321 -4.63477,1.23594 -2.82501,-2.95743 -2.41009,-0.94461 1.5361,-3.16048 -0.98875,-1.13 -0.90047,0.5032 -1.84509,-3.04571 4.12275,-2.13641 -2.33063,-0.45907 0.9093,-0.57383 5.23509,-0.63562 0.63563,-2.82501 2.13641,-1.66852 0.0265,-1.13883 4.51119,0.31781 9.00471,3.44298 5.79127,-3.70782 3.41649,-3.84908 3.18696,7.15963 z">
<title
   id="title410">Ohorn     absolute Anzahl: 15 relativ zur Einwohnerzahl: 0,61 %
</title>
</path>

   <!-- Gemeinde   -->
<path
   style="fill:#671212;fill-opacity:1;stroke:#000000;stroke-width:0.882815;stroke-linecap:butt"
   onmouseout="style.opacity = 1;"
   onmouseover="style.opacity = 0.5;"
   id="420"
   class="st5"
   d="m 194.39858,437.03402 7.00955,0.15008 2.03931,2.13641 0.97992,4.11392 2.4454,3.30173 8.57213,-4.51119 5.85306,-1.39484 0.90048,4.43173 -1.24477,5.57939 -5.34103,5.70298 1.61555,1.97751 1.44781,4.63478 0.29133,5.47345 1.11235,-0.63563 1.60672,2.13642 0.53852,7.32736 -2.23352,1.22711 -2.2247,-2.04813 -1.31539,0.50321 -10.01112,6.82416 -0.71508,2.76321 -6.85065,2.75438 -4.75837,-8.65159 -4.0786,-4.15805 -3.88439,-8.54565 -1.16532,0.9093 0.17657,2.24235 -3.31056,0.92695 -4.4229,-1.80094 0.24719,-2.30415 -1.15649,-0.55617 -0.77688,-2.95743 -0.95344,-0.23836 0.60032,-1.15649 -1.35071,-1.22711 -1.41251,3.00157 -2.90446,-1.21829 -3.81376,0.4679 1.0329,-1.38602 2.14524,0.40609 -0.81219,-5.5529 3.09868,-0.86516 1.16531,-1.72149 1.67735,0.16773 0.6268,-1.84508 0.58266,-9.06651 -2.37477,0.0177 -2.67493,-3.08103 0.42375,-2.24235 4.59064,0.22953 -0.50321,-2.06578 3.20462,-0.79454 1.74797,6.75354 3.8579,0.0706 3.27525,-3.07219 0.8475,2.78969 5.1115,7.68932 2.63079,-4.08743 z">
<title
   id="title420">Oßling     absolute Anzahl: 26 relativ zur Einwohnerzahl: 1,15 %
</title>
</path>

   <!-- Gemeinde   -->
<path
   style="fill:#821212;fill-opacity:1;stroke:#000000;stroke-width:0.882815;stroke-linecap:butt"
   onmouseout="style.opacity = 1;"
   onmouseover="style.opacity = 0.5;"
   id="430"
   class="st4"
   d="m 34.644912,583.52128 -3.62837,-0.18539 0.406095,-0.95344 -3.831417,-4.829 -2.692586,-0.52969 -0.07062,-2.90446 1.845083,-4.38759 5.032046,-3.96384 5.137983,-0.92696 0.406095,-2.73672 1.253597,-0.37961 9.931669,2.91329 2.81618,-1.21829 2.233522,0.41493 2.913289,-6.21502 -0.485548,4.05212 1.739145,0.0971 1.995162,-1.74798 2.516023,1.43899 1.562582,-0.58266 0.02649,1.90689 1.218285,0.79453 2.136412,0.68859 1.297738,-0.76804 0.57383,1.16531 1.756801,0.45024 -3.028055,6.70056 -0.370782,5.7383 -3.284072,0.66211 -0.785705,1.43899 0.317813,2.74555 0.829846,0.053 1.182972,3.51361 -1.465473,-1.92454 0.9093,4.4229 1.138831,0.93579 -4.4847,3.33704 -3.178134,0.64445 -1.853912,4.02564 -1.447816,-0.65328 -1.924537,1.30656 -1.09469,-2.33946 -4.255169,-3.72548 -3.796104,-0.9093 -0.865159,-3.02805 -0.926955,-0.009 -1.580239,-6.23267 -1.324223,-0.97993 z">
<title
   id="title430">Ottendorf-Okrilla     absolute Anzahl: 53 relativ zur Einwohnerzahl: 0,53 %
</title>
</path>

   <!-- Gemeinde   -->
<path
   style="fill:#551212;fill-opacity:1;stroke:#000000;stroke-width:0.882815;stroke-linecap:butt"
   onmouseout="style.opacity = 1;"
   onmouseover="style.opacity = 0.5;"
   id="440"
   class="st15"
   d="m 216.22883,552.97147 0.11477,1.93336 -0.86516,1.17415 -0.30899,-1.38602 -0.23836,1.89805 -3.97266,-0.71508 0.29132,4.65243 2.79853,-0.60031 1.02406,1.71266 -0.6268,1.31539 1.08587,0.90048 -1.4743,2.72789 -5.20861,2.21587 -2.86032,-0.49438 -2.48071,3.92853 -4.67892,2.00399 -2.71907,0.16773 -3.55775,-4.31696 1.83626,-4.22868 2.41891,-0.64446 1.64204,-4.15806 2.0393,-0.43258 -0.29133,-1.87157 1.77446,-1.21828 -0.8475,-4.19337 -1.80977,-0.15008 0.91812,-5.38517 -0.81219,-1.21829 1.11235,-1.56258 1.93337,0.86516 0.40609,-1.26243 -3.16931,-2.1982 0.20305,-3.03689 -1.93336,-1.14766 1.00641,-4.45821 3.95501,2.25118 3.55774,-1.3154 0.58266,1.2536 h 2.93095 l -0.0177,-1.05938 3.61071,0.46789 -0.74156,-3.73431 1.73032,0.30016 0.4414,-1.61555 1.24477,0.41492 -0.51203,1.85391 1.93336,1.10352 3.74314,0.81219 1.98633,-1.4125 -2.49836,2.56016 4.25517,0.15008 1.09469,1.72149 -1.22712,1.35071 0.95344,-0.16774 0.74157,2.74556 4.24634,0.73273 1.04172,1.85392 1.8804,-0.7504 -1.14766,0.97993 0.0883,2.3218 2.79852,0.32664 0.65328,-1.45664 1.39485,0.0971 0.0794,1.58906 5.88838,0.97993 -0.30898,1.42133 0.47672,1.60672 -0.9711,2.27767 1.70383,0.89164 -0.30898,2.85149 -3.0722,-0.0618 -3.86673,-3.08986 -4.04329,3.45181 0.82102,-1.33305 -2.08345,-0.66211 -0.86516,-1.91571 -1.66852,0.41492 0.053,-0.75039 -2.74555,-0.98875 0.32664,-3.55775 -6.40041,1.27126 -0.17656,1.1918 -0.0883,-1.13001 -1.43899,0.22953 z">
<title
   id="title440">Panschwitz-Kuckau     absolute Anzahl: 38 relativ zur Einwohnerzahl: 1,82 %
</title>
</path>

    <!-- Gemeinde   -->
<path
   style="fill:#5a1212;fill-opacity:1;stroke:#000000;stroke-width:0.882815;stroke-linecap:butt"
   onmouseout="style.opacity = 1;"
   onmouseover="style.opacity = 0.5;"
   id="450"
   class="st4"
   d="m 123.66127,562.66919 -4.50236,-0.88282 -2.54251,-7.28322 -4.39642,-3.31938 -1.53609,-5.29689 -1.83626,0.37078 -0.79453,-4.51119 -2.02165,-1.60672 8.60745,-5.15564 8.28963,-1.28008 -0.0353,-1.23594 0.75922,2.57782 4.97025,-0.99758 2.67493,4.25517 -1.1918,0.52086 1.12117,3.36352 -0.82102,2.2247 2.13641,-0.17657 2.48071,6.63877 1.18298,0.33547 0.2207,6.69174 1.05055,1.62438 1.18297,-0.22953 0.79454,1.77445 2.98391,0.2825 3.6372,1.83626 1.21828,1.56258 -0.86516,1.61555 2.30415,1.82743 -0.0265,1.13883 -2.13642,1.66852 -0.63562,2.82501 -5.2351,0.63563 -0.90929,0.57383 2.33063,0.45906 -4.12275,2.13641 1.84508,3.04571 0.90048,-0.5032 0.99758,1.13 -1.54493,3.16048 -3.80493,1.58024 -3.02806,-2.76321 -5.94134,1.52727 -2.48071,-1.38602 -1.67735,-7.38916 0.90047,-0.36196 -1.51844,-2.825 0.73273,-4.51119 -0.8475,-1.84508 z">
<title
   id="title450">Pulsnitz     absolute Anzahl: 121 relativ zur Einwohnerzahl: 1,62 %
</title>
</path>

    <!-- Gemeinde   -->
<path
   style="fill:#961212;fill-opacity:1;stroke:#000000;stroke-width:0.882815;stroke-linecap:butt"
   onmouseout="style.opacity = 1;"
   onmouseover="style.opacity = 0.5;"
   id="460"
   class="st11"
   d="m 252.72617,520.4362 0.41492,-1.38602 1.52727,0.18539 0.95344,-2.03047 3.27525,1.58024 0.34429,1.54493 4.50236,-0.053 2.98391,4.71423 1.21829,0.15008 -2.55134,3.08985 -2.91329,1.73032 0.27368,0.85633 -1.1918,0.0706 -0.4061,2.17173 -1.05055,0.32664 0.66211,4.84665 -1.65086,2.63962 -2.10993,0.15008 -0.22953,1.82743 1.8186,0.58265 -1.37719,0.9093 -7.83057,-0.53851 -0.49438,-1.16532 -1.54492,-0.27367 -0.13243,-5.99432 -5.46462,-1.40367 -1.74798,-3.54009 1.10352,-0.92696 -0.13242,-4.08743 2.22469,-1.32422 -0.16773,-6.48869 5.83541,0.12359 0.39726,-1.04172 z">
<title
   id="title460">Puschwitz     absolute Anzahl: 4 relativ zur Einwohnerzahl: 0,49 %
</title>
</path>

    <!-- Gemeinde   -->
<path
   style="fill:#671212;fill-opacity:1;stroke:#000000;stroke-width:0.882815;stroke-linecap:butt"
   onmouseout="style.opacity = 1;"
   onmouseover="style.opacity = 0.5;"
   id="470"
   class="st9"
   d="m 228.32781,508.37342 2.76321,-0.71508 0.80336,1.73032 -0.92695,1.37719 1.22711,0.009 -0.16773,6.43572 1.44781,0.13242 -0.009,3.2929 -1.18297,-0.053 -0.21187,2.82501 1.20945,0.63563 0.0265,1.74797 -2.42774,-0.91813 -1.08587,1.32422 -0.27367,-1.3507 -0.53852,1.4743 -1.50078,-0.0353 0.0177,1.59789 -1.55375,1.05055 0.565,0.38844 -2.30415,0.70625 0.44141,2.15407 -1.21828,0.92696 -1.99516,1.4125 -3.73431,-0.81219 -1.93337,-1.09469 0.51204,-1.86274 -1.24477,-0.41492 -0.25602,-1.00641 -2.54251,-0.38844 -0.36195,-1.20063 2.6043,-0.21188 v -1.96867 l -2.50719,-1.15649 -0.20305,-1.54493 -2.31297,0.11477 -0.39727,-3.00157 0.25602,-1.15649 0.88281,0.45024 0.42375,-2.78087 -1.13,-0.82985 0.12359,-3.76079 2.39243,-2.7279 3.86673,-1.16531 6.00314,2.43657 0.29133,1.33305 1.7568,0.32664 z">
<title
   id="title470">Räckelwitz     absolute Anzahl: 13 relativ zur Einwohnerzahl: 1,15 %
</title>
</path>

    <!-- Gemeinde   -->
<path
   style="fill:#821212;fill-opacity:1;stroke:#000000;stroke-width:0.882815;stroke-linecap:butt"
   onmouseout="style.opacity = 1;"
   onmouseover="style.opacity = 0.5;"
   id="480"
   class="st4"
   d="m 106.81539,605.6199 0.33547,4.18455 1.37719,1.0682 -1.51844,1.00641 -2.24235,0.30016 -1.65086,4.49353 -1.23595,-1.33305 -1.65086,0.60914 2.29532,3.17813 -0.23836,2.29532 -0.85633,-0.0265 -0.73274,3.50477 -1.80094,0.50321 -0.918128,2.3836 -3.301728,2.7279 3.407666,5.32337 2.14524,-0.27367 2.80735,6.72705 -1.28008,4.18454 1.97751,0.71508 0.73273,1.52727 -2.68376,0.98875 -0.91812,-0.60031 -2.277666,3.83142 0.997581,1.45664 0.538515,-0.76805 1.52727,1.15649 -0.52086,0.70625 -8.801664,1.87157 0.829846,-1.11235 -1.756802,0.64446 -0.962268,-1.21829 0.829846,-0.86515 -3.584226,-2.78087 -8.077757,-1.12118 -4.21103,-1.90688 3.116337,-3.50477 2.463056,-1.14766 0.370782,-1.76563 -2.480712,-0.71508 2.25118,-1.83626 -0.0618,-1.31539 2.304147,-0.49438 -0.326641,1.39485 -1.659692,0.0794 2.330631,2.33946 1.880396,-1.3507 -0.71508,-2.04814 0.723908,-1.27125 1.438989,-0.18539 0.688596,-2.98391 -0.971097,-1.50079 0.635627,-0.41492 -1.52727,-1.32423 -1.606723,0.15008 -1.447817,-2.75438 -1.871568,-0.95344 1.633208,-3.10751 -2.807352,-2.14524 0.185391,-1.32422 H 77.55007 l -3.019227,-7.20377 -2.657273,-1.89805 -1.130003,-2.61314 -0.81219,-4.15806 8.139554,-3.06336 0.08828,-3.80494 0.697423,1.91571 2.630792,-0.12359 1.412504,1.22711 0.759221,-1.15649 2.207037,1.13001 0.397267,-2.17173 2.312975,2.08345 -0.33547,1.0682 2.825006,3.46064 0.264844,-0.79454 2.842664,0.72391 6.832996,-1.72149 2.8868,2.1011 1.79212,-1.60672 z">
<title
   id="title480">Radeberg     absolute Anzahl: 116 relativ zur Einwohnerzahl: 0,62 %
</title>
</path>

    <!-- Gemeinde   -->
<path
   style="fill:#6e1212;fill-opacity:1;stroke:#000000;stroke-width:0.882815;stroke-linecap:butt"
   onmouseout="style.opacity = 1;"
   onmouseover="style.opacity = 0.5;"
   id="490"
   class="st5"
   d="m 288.1606,517.32163 0.97109,-0.44141 -0.2207,-1.82742 3.46063,-5.55291 6.26799,-14.38106 11.52074,3.16048 1.09469,-4.16688 3.11633,-3.49595 -2.18938,-7.19494 -0.009,-1.89806 1.43016,-2.08344 1.30657,-0.2825 2.15407,-3.2929 3.96384,-8.17487 6.19736,-1.37719 1.13883,-2.74555 2.46305,-2.00399 2.21587,0.20304 1.43899,1.9422 0.0706,8.06893 1.36837,1.65969 0.39726,2.59547 -0.92695,-0.0353 -0.39727,1.23594 1.76563,1.98634 1.18297,-0.22953 -2.71907,11.55604 -2.75438,2.97509 0.37078,1.99516 2.4454,2.08344 0.0795,6.40041 -6.47103,5.19978 -0.0971,-1.67734 -4.51118,0.75922 -1.1918,1.55375 0.0265,3.23993 -2.15407,1.48313 -2.00399,-0.25602 0.63563,1.79212 -0.99758,0.54734 -0.0265,1.48313 3.83142,0.15891 1.54493,1.02407 1.28891,2.56899 -2.82501,1.56258 1.94219,0.0883 1.27125,2.46305 -1.94219,0.64446 -0.88281,1.50961 -1.83626,-0.1589 -1.88039,8.91643 -1.35954,-0.26485 -0.79453,3.15165 -1.10352,-0.26484 -0.9093,1.27125 -0.98875,3.74314 -4.85549,0.91813 -2.19821,-2.61314 -3.31055,0.0177 1.15649,6.93893 -1.5361,2.25117 -4.06978,-2.1011 0.22953,-1.48313 -1.50961,-0.22953 -0.0177,1.17415 -0.9093,0.053 0.46789,-1.26243 -0.86515,0.53852 0.21187,-0.71508 -2.73672,-1.93337 -2.63079,1.45665 -1.17415,2.10992 0.97993,0.70626 -0.53852,1.30656 -3.24876,-1.95985 1.12118,-0.53851 -0.74157,-2.05696 -0.63563,0.92695 -2.11875,-1.82742 -2.5072,2.28649 -1.55375,-1.30657 -2.05696,1.57141 -2.41008,-1.70383 0.60914,-4.67892 3.53126,0.92696 0.98875,-4.52885 -0.64445,-2.18938 5.04087,1.09469 1.28891,-7.19494 -0.57383,-2.61313 -1.06821,-0.31781 2.94861,-5.7383 z">
<title
   id="title490">Radibor     absolute Anzahl: 29 relativ zur Einwohnerzahl: 0,93 %
</title>
</path>

<!-- Gemeinde Ralbitz-Rosenthal  -->
<path
   style="fill:#821212;fill-opacity:1;stroke:#000000;stroke-width:0.882815;stroke-linecap:butt"
   onmouseout="style.opacity = 1;"
   onmouseover="style.opacity = 0.5;"
   id="500"
   class="st6"
   d="m 243.60228,465.96034 3.09868,7.69815 0.40609,6.49751 -0.15008,4.35228 -2.18055,8.31612 -0.33547,11.87386 -2.19821,2.10993 0.16774,2.48954 -2.68376,1.86274 0.0265,2.18938 -3.21344,-0.58266 -0.29133,1.43016 -1.80095,-0.52969 1.60673,1.13883 -1.88923,-0.52969 -0.69742,3.06337 -1.44782,-0.14125 0.17657,-6.42689 -1.22712,-0.009 0.91813,-1.37719 -0.79453,-1.73032 -2.77204,0.71508 -4.40525,3.72548 -1.7568,-0.32664 -1.12118,-7.9012 -2.42774,-4.71423 0.45024,-6.36509 -5.7383,-7.23026 -0.45023,3.69017 -1.35954,0.92695 -3.10751,-0.18539 -2.51602,1.50962 -1.45665,-0.61797 -0.0441,-1.35071 1.60673,-1.32422 -0.26485,-1.4743 0.70625,-2.77204 10.01113,-6.82416 1.31539,-0.49438 2.22469,2.04813 2.24235,-1.22711 -0.54734,-7.33619 5.29689,-1.50962 4.94376,-2.56016 0.45024,-1.14766 1.44782,0.82984 z">
<title
   id="title500">Ralbitz-Rosenthal     absolute Anzahl: 10 relativ zur Einwohnerzahl: 0,59 %
</title>
</path>

    <!-- Gemeinde   -->
<path
   style="fill:#5f1212;fill-opacity:1;stroke:#000000;stroke-width:0.882815;stroke-linecap:butt"
   onmouseout="style.opacity = 1;"
   onmouseover="style.opacity = 0.5;"
   id="510"
   class="st11"
   d="m 170.84773,580.03328 -3.37236,2.10993 -0.53851,-1.20946 1.95102,-1.48313 -0.38844,-1.43899 2.80735,-0.5032 4.16689,1.98633 0.81219,-1.42133 0.87398,0.57383 1.50962,-2.5072 4.1404,2.75439 10.91159,9.30487 -0.2825,2.43657 2.24235,0.45023 -4.35228,5.8972 0.83868,5.80893 -7.35385,2.41008 -4.17572,-2.24235 -5.8354,-7.72463 0.77688,-4.83782 -0.92696,-6.04729 -3.92853,0.053 0.88282,-1.82743 z">
<title
   id="title510">Rammenau     absolute Anzahl: 17 relativ zur Einwohnerzahl: 1,27 %
</title>
</path>

    <!-- Gemeinde   -->
<path
   style="fill:#6e1212;fill-opacity:1;stroke:#000000;stroke-width:0.882815;stroke-linecap:butt"
   onmouseout="style.opacity = 1;"
   onmouseover="style.opacity = 0.5;"
   id="525"
   class="st5"
   d="m 310.1215,625.31021 11.55605,-0.16774 1.26243,2.24235 2.56899,0.48555 0.48555,1.33305 2.20703,0.81219 0.25602,-1.61555 2.92212,-0.97109 5.26157,0.1589 -0.52968,5.69416 -2.63079,1.4125 -0.11477,1.08587 2.92212,4.40524 4.14923,0.99758 -0.26485,7.91885 -5.25275,1.80095 -0.96226,2.51602 1.11234,1.50078 -3.65485,0.67977 -1.03289,-2.57782 -5.94135,-1.09469 -8.6251,2.19821 1.55375,3.83142 -3.74313,2.24235 -2.77204,-0.91813 -3.09868,0.38844 -6.98307,-3.70782 -3.0104,-2.93095 -1.52727,-4.01681 8.33378,-4.90845 0.42375,-1.83625 2.57782,-1.92454 -1.35954,-0.50321 0.83868,-1.0682 0.16773,-4.33462 1.4743,-1.56259 0.75039,-7.76877 z">
<title
   id="title525">Schirgiswalde-Kirschau     absolute Anzahl: 55 relativ zur Einwohnerzahl: 0,89 %
</title>
</path>

   <!-- Gemeinde   -->
<path
   style="fill:#821212;fill-opacity:1;stroke:#000000;stroke-width:0.882815;stroke-linecap:butt"
   onmouseout="style.opacity = 1;"
   onmouseover="style.opacity = 0.5;"
   id="530"
   class="st4"
   d="m 246.82455,612.18363 -0.5032,1.35954 1.45664,2.30415 0.60914,5.98548 0.22953,1.05055 0.82985,-0.15891 0.26485,2.29532 -4.74072,1.23594 -0.17656,6.48869 -1.32423,1.97751 -0.12359,2.3836 1.64203,2.45423 -1.62437,0.27367 -0.35313,3.68134 5.52642,6.75353 -3.07219,5.21744 -4.25517,3.40766 -3.75197,0.84751 0.75922,-3.16048 -1.90688,-1.46547 0.21188,-1.49196 -1.74797,-3.25759 -5.10268,-1.27125 0.82102,-1.28891 -2.06578,-1.20063 -12.31527,-5.19095 -0.58266,0.73273 -7.2126,-1.9157 -2.21587,3.90204 -2.03047,-0.6268 0.38844,-0.9093 -1.41251,-0.81219 1.83626,-3.03688 -2.63079,-0.95344 0.63563,-0.74157 1.99516,0.65328 0.2825,-0.75922 -4.14923,-1.25359 0.94461,-1.23594 3.90204,0.2825 -1.1918,-6.25916 1.20063,-1.04172 -1.13883,-0.25602 2.41009,-2.21587 4.37876,-0.65328 2.10993,1.94219 2.90446,-0.0971 2.09227,1.30657 5.20861,-9.02237 -0.72391,-0.76805 0.75922,-1.23594 -1.98633,-2.47188 -2.70142,-1.18297 0.85633,-2.62196 3.62837,-1.77446 -0.55617,-1.41251 4.21986,2.86033 5.2704,-0.42376 2.6661,2.04814 5.16447,-1.00641 z">
<title
   id="title530">Schmölln-Putzkau     absolute Anzahl: 19 relativ zur Einwohnerzahl: 0,63 %
</title>
</path>

    <!-- Gemeinde   -->
<path
   style="fill:#6e1212;fill-opacity:1;stroke:#000000;stroke-width:0.882815;stroke-linecap:butt"
   onmouseout="style.opacity = 1;"
   onmouseover="style.opacity = 0.5;"
   id="550"
   class="st11"
   d="m 88.761826,461.24081 -1.209456,-5.57939 1.359532,-2.76321 -1.235938,-4.67009 -4.846655,2.58664 -3.999154,-12.05925 2.983917,-1.89805 0.626799,0.63563 1.889224,-0.81219 1.324222,1.09469 4.23751,-1.35954 -0.370783,-3.24876 9.119479,-2.23352 2.807347,-1.99516 1.49196,0.2825 6.0826,-5.30572 3.55774,-0.30898 4.97908,2.75438 -1.06821,12.3241 13.07449,2.37477 4.70541,5.64119 -3.9197,3.91087 -3.64603,7.01838 1.78329,2.93094 3.31055,3.28407 8.19253,-1.49195 4.40524,2.90446 5.04971,-0.17657 -1.01524,1.00641 -0.98875,5.85307 -2.2247,2.26 -4.7054,0.6886 -12.65074,8.80166 -1.14766,-0.24718 -1.40368,1.4743 -4.55532,0.37961 -1.73915,2.05696 -1.04172,-2.67493 4.23751,-2.37477 -2.43657,-0.25602 -2.52485,-2.0393 -0.1589,1.50078 -3.52244,-2.20704 -4.9879,-0.0353 -2.87798,-2.0393 -6.515171,-0.45906 -3.372354,-12.92442 z">
<title
   id="title550">Schwepnitz     absolute Anzahl: 22 relativ zur Einwohnerzahl: 0,89 %
</title>
</path>

    <!-- Gemeinde   -->
<path
   style="fill:#821212;fill-opacity:1;stroke:#000000;stroke-width:0.882815;stroke-linecap:butt"
   onmouseout="style.opacity = 1;"
   onmouseover="style.opacity = 0.5;"
   id="560"
   class="st13"
   d="m 290.21844,675.20162 -5.25275,-4.71424 4.62595,-14.01027 8.17487,-3.45181 3.0104,2.93978 6.98306,3.70782 3.08985,-0.38844 2.77204,0.91813 3.75197,-2.25118 -1.55376,-3.83142 8.61628,-2.18938 5.94134,1.08587 1.04172,2.57781 3.65486,-0.67976 1.88922,1.4125 -0.45023,0.58266 4.7054,2.93977 -2.40126,8.61628 2.79853,0.48555 v 3.18696 l 1.3507,5.45579 -0.76805,8.58979 -8.01596,-1.53609 0.44141,-2.77204 -2.16289,-0.99758 -2.05696,-3.08103 -5.19978,-0.45023 -8.23667,6.14439 -1.39485,2.50719 -5.36751,2.98392 -4.53767,0.1589 -9.49909,-4.60829 -1.98633,-2.17172 -0.16774,-7.06252 z">
<title
   id="title560">Sohland a. d. Spree     absolute Anzahl: 40 relativ zur Einwohnerzahl: 0,59 %
</title>
</path>

   <!-- Gemeinde   -->
<path
   style="fill:#6e1212;fill-opacity:1;stroke:#000000;stroke-width:0.882815;stroke-linecap:butt"
   onmouseout="style.opacity = 1;"
   onmouseover="style.opacity = 0.5;"
   id="570"
   class="st4"
   d="m 325.17615,325.18225 1.14766,1.57141 0.69742,6.76236 -5.49111,12.84496 8.51034,0.22953 6.37392,1.72149 0.0441,7.26557 4.69658,1.96867 -2.09227,1.68618 -2.34829,-0.65328 -1.35071,6.67408 1.94219,1.36836 -0.17656,2.35712 -1.59789,2.41008 -0.80337,-0.55617 2.58665,3.95501 4.6083,2.21587 -1.14766,1.30656 2.53368,3.06337 2.01281,0.24719 -3.62837,2.86032 -1.57141,4.4229 3.12517,1.5979 6.78002,0.10594 1.64203,3.05454 -0.55617,4.39641 6.01197,0.73274 0.75922,1.80977 -0.82102,2.76321 -0.97109,-0.11476 -4.23752,7.7158 1.10352,3.2311 -3.02805,-0.0441 0.0618,1.7568 -7.97182,1.02407 1.66852,-12.62426 -3.2929,0.66212 -4.01681,-1.77446 -1.16532,-2.00399 -2.93094,-0.72391 -3.0722,-4.99673 -2.56016,2.825 0.19422,1.45665 -1.4743,0.93578 -14.65473,-0.0795 -5.58822,-2.43657 1.33305,-7.4951 -1.10352,-0.19422 0.10594,-1.65086 -3.3547,-0.0177 0.0618,2.17173 -6.67408,-0.41493 -0.67094,-2.77204 -1.43016,-0.12359 -3.39001,1.57141 -3.9197,4.22868 0.13242,-1.85391 -2.09227,-0.82102 -3.82259,0.64446 -0.73274,1.5361 -5.8354,-9.51675 2.25117,-0.94461 -0.565,-0.76805 -6.94775,-1.42133 -1.30657,0.75039 -0.31781,-1.18297 -4.68775,0.15008 -0.0971,-3.37236 -1.5361,-0.37078 1.46548,-1.29774 0.12359,-8.8458 7.91885,3.95501 -0.0706,2.33946 7.39799,4.67892 4.34345,-7.38033 0.88281,-3.82259 -3.21345,-0.82102 -3.48711,-3.11634 -0.0265,-2.86915 1.5361,-1.22711 -2.88681,-3.25759 -3.37235,-1.23594 0.6886,-1.83625 1.00641,0.0706 -0.17657,-2.73672 2.21587,1.73031 3.38118,-1.73031 1.43016,-7.16846 -1.35071,0.009 0.30016,-2.33946 7.17729,-0.60915 8.54564,-7.86588 4.2022,-0.20305 -0.009,-5.42048 5.24392,-0.14125 4.72306,3.31056 2.35711,-1.64204 11.48543,-3.47829 z">
<title
   id="title570">Spreetal     absolute Anzahl: 17 relativ zur Einwohnerzahl: 0,92 %
</title>
</path>

    <!-- Gemeinde   -->
<path
   style="fill:#6e1212;fill-opacity:1;stroke:#000000;stroke-width:0.882815;stroke-linecap:butt"
   onmouseout="style.opacity = 1;"
   onmouseover="style.opacity = 0.5;"
   id="580"
   class="st16"
   d="m 144.76937,550.88008 8.20135,-0.81219 2.11876,2.6661 -1.14766,1.67735 0.29133,1.55375 4.0786,-0.86516 3.54892,5.57057 3.90204,0.15007 4.70541,2.34829 0.99758,1.22712 -3.42532,3.8579 -5.79127,3.69899 -8.99589,-3.43415 -4.52001,-0.32664 -2.30415,-1.82743 0.86516,-1.61555 -1.21828,-1.56258 -3.6372,-1.82743 -2.98391,-0.29133 -0.79454,-1.76563 -1.18297,0.22071 -1.05055,-1.61555 -0.2207,-6.70057 -1.18298,-0.32664 -2.48071,-6.63877 0.63563,-0.82102 9.07534,-0.79453 z">
<title
   id="title580">Steina     absolute Anzahl: 13 relativ zur Einwohnerzahl: 0,80 %
</title>
</path>

    <!-- Gemeinde   -->
<path
   style="fill:#821212;fill-opacity:1;stroke:#000000;stroke-width:0.882815;stroke-linecap:butt"
   onmouseout="style.opacity = 1;"
   onmouseover="style.opacity = 0.5;"
   id="590"
   class="st11"
   d="m 264.14626,650.73087 0.64446,-2.33946 4.26399,-2.58665 0.58266,-1.57141 9.093,-2.63079 3.67251,-0.74156 4.34345,0.61797 3.11633,3.93735 6.37393,3.60189 1.52727,4.00798 -8.16604,3.4518 -4.62595,14.01028 -6.66525,2.63961 -0.75923,1.68618 -3.60188,-0.009 -4.32579,-5.62353 -0.10594,-1.62438 -3.79611,-3.76962 0.4679,-1.36836 -1.02407,-2.64845 -2.46305,0.44141 -1.01524,-1.29774 2.64844,-0.11476 0.82985,0.89164 1.69501,-4.92611 z">
<title
   id="title590">Steinigtwolmsdorf     absolute Anzahl: 16 relativ zur Einwohnerzahl: 0,57 %
</title>
</path>

    <!-- Gemeinde   -->
<path
   style="fill:#821212;fill-opacity:1;stroke:#000000;stroke-width:0.882815;stroke-linecap:butt"
   onmouseout="style.opacity = 1;"
   onmouseover="style.opacity = 0.5;"
   id="600"
   class="st11"
   d="m 70.733417,565.10752 -1.756802,-0.4414 -0.573829,-1.16532 3.116337,-1.61555 4.00798,-0.38844 4.422905,-2.48954 4.334622,0.47672 2.24235,-0.5032 3.672508,0.97992 1.703833,-1.13883 2.012818,0.63563 -1.809771,2.45422 -2.975086,0.70626 2.807351,2.35711 2.109928,-1.00641 3.345869,2.93978 0.838674,6.09142 -2.454226,4.09626 1.130004,1.13883 -1.103519,1.52727 -0.194219,4.50236 1.050549,3.04571 2.43657,0.66211 3.778447,-4.06977 11.17644,6.1179 0.86516,-0.66211 3.7961,3.50478 0.45907,-0.86516 2.49836,0.82984 0.49438,2.26884 -1.1918,1.76563 -1.85391,0.009 -0.0706,2.71907 -5.91486,2.64844 0.0795,2.04813 -0.98875,-1.26242 -1.05938,0.15008 -4.35227,2.44539 -1.13001,-1.40367 -1.79211,1.60672 -2.88681,-2.1011 -6.824157,1.72149 -2.851492,-0.72391 -0.264845,0.79454 -2.825005,-3.46064 0.33547,-1.0682 -2.312975,-2.08345 -0.397267,2.17173 -2.207038,-1.13001 -0.759221,1.15649 -1.412504,-1.22711 -2.630791,0.12359 -0.697424,-1.91571 -1.853911,-0.4414 0.370782,-1.91571 -1.747974,-0.67977 -0.0618,-1.34188 -0.900471,-0.26484 0.67094,-1.21829 -1.827427,-0.51203 -0.81219,-1.52727 -3.231103,1.17414 -3.725479,-2.8868 -0.9093,-4.4229 1.474301,1.9157 -1.1918,-3.50477 -0.829846,-0.053 -0.317813,-2.74555 0.785705,-1.43899 3.284072,-0.66211 0.370782,-5.7383 z">
<title
   id="title600">Wachau     absolute Anzahl: 26 relativ zur Einwohnerzahl: 0,61 %
</title>
</path>

    <!-- Gemeinde   -->
<path
   style="fill:#5a1212;fill-opacity:1;stroke:#000000;stroke-width:0.882815;stroke-linecap:butt"
   onmouseout="style.opacity = 1;"
   onmouseover="style.opacity = 0.5;"
   id="610"
   class="st5"
   d="m 402.41098,544.1645 2.86915,5.1115 0.19422,-0.88281 1.34188,0.0794 0.65328,-2.8868 2.41891,-2.86915 1.5979,-0.22953 1.73914,3.36352 -1.34187,1.1918 -0.82102,4.35228 1.74797,-0.0353 0.59149,1.51844 2.26883,0.97109 -0.35312,0.80337 2.98391,1.65086 3.21345,-0.0971 0.2825,-1.33305 1.0682,0.3443 -0.15007,0.92695 4.45821,-0.12359 -1.38602,3.43415 0.23836,3.66368 -2.78969,1.64204 1.12117,2.58665 -4.03446,1.67734 3.00157,0.6886 0.47672,0.9711 1.03289,-0.84751 -0.41492,0.57383 2.41891,1.3154 -1.95102,0.27367 0.96227,0.88282 4.77603,1.05937 2.31297,-0.54734 -1.3507,0.94461 2.73672,2.6043 -0.13242,0.84751 -2.48071,0.68859 -0.11477,1.20063 -3.08985,2.65727 1.28008,1.87157 -0.96226,0.73274 0.26484,2.26883 -2.92212,-1.22711 0.76805,0.96227 -1.87157,0.51203 0.0795,2.04813 -1.37719,0.76805 0.12359,1.4743 2.1629,1.08586 -1.07704,3.89322 1.1918,0.67977 -0.0618,2.07461 -3.07219,0.0353 0.65328,-1.7568 -0.87398,0.0265 -0.22954,1.82742 -1.40367,-0.0971 0.5032,-1.56258 -2.39243,-0.54734 -0.2825,-2.23353 -0.49437,0.64446 -2.18056,-2.17173 -0.60031,0.91813 -1.39485,-0.96227 -2.75438,3.12517 -0.75039,-0.29133 0.58265,0.88281 -1.11234,3.16931 -1.69501,0.009 -0.82102,1.62438 -0.22953,-0.75922 -1.72149,1.33305 -0.73273,-3.75197 -1.93337,-0.14125 -0.20305,-5.22626 1.02407,-4.45822 -3.97267,-0.11476 -1.01524,-3.91087 -1.15648,-0.2825 -0.17657,2.81618 -1.62438,1.90688 -4.21102,-0.64446 0.60031,-2.96626 -1.24477,-1.34188 -0.14125,-2.14524 2.3836,-2.97508 -1.39485,-1.97751 1.87157,0.0353 -3.02805,-3.1693 -3.699,1.5361 -0.27367,-2.65728 -0.78571,-0.32664 -1.1918,3.54009 -3.86673,3.45181 -1.1918,-0.60032 -0.94461,2.7279 -2.18938,0.38844 -0.7857,-0.85633 -1.35071,3.24876 -4.14923,-0.52086 -3.16931,2.34829 -2.64844,0.87398 -1.63321,-1.20063 -0.0177,-1.14766 1.92454,-3.54008 -0.74156,-3.85791 1.43898,0.27368 0.21188,-1.05938 0.92696,0.10594 0.33546,-2.34829 -1.45664,0.29133 2.18055,-1.07704 0.29133,-4.0168 0.86516,-0.19422 -0.73274,-6.39158 1.84509,-1.5361 -0.17657,-1.95102 3.58423,0.90047 0.77688,1.10352 2.5072,-2.21587 1.32422,1.18297 0.91813,-0.31781 0.49437,1.33305 2.02165,-0.37961 0.48555,2.36594 3.19579,1.99517 1.38602,0.41492 2.3218,-1.13883 0.30016,-2.36595 1.22711,0.37961 2.49837,-2.50719 0.73273,-7.2744 1.82743,0.27368 1.48313,-2.95743 1.2536,0.76805 -1.51845,-1.71267 2.28649,-6.08259 z">
<title
   id="title610">Weißenberg     absolute Anzahl: 50 relativ zur Einwohnerzahl: 1,61 %
</title>
</path>

   <!-- Gemeinde   -->
<path
   style="fill:#671212;fill-opacity:1;stroke:#000000;stroke-width:0.882815;stroke-linecap:butt"
   onmouseout="style.opacity = 1;"
   onmouseover="style.opacity = 0.5;"
   id="630"
   class="st11"
   d="m 290.04011,615.5966 3.39001,0.52086 0.9093,1.12117 2.01282,-0.52086 -0.23836,1.76563 0.85633,0.46789 6.63877,1.40368 0.45906,2.48071 3.69017,0.35313 1.67734,1.9157 -0.74156,7.76878 -1.48313,1.56258 -0.15891,4.33462 -0.83867,1.06821 1.35954,0.51203 -2.58665,1.92454 -0.41493,1.82742 -8.33377,4.91728 -6.37392,-3.60188 -3.11634,-3.94619 -4.34345,-0.60914 -3.67251,0.73274 -1.07703,-1.13883 0.52968,-3.45181 -0.81219,-1.8186 1.52727,-0.85633 -0.16773,-8.64276 4.55532,-0.0795 5.1115,1.7568 z">
<title
   id="title630">Wilthen     absolute Anzahl: 49 relativ zur Einwohnerzahl: 1,00 %
</title>
</path>
   <!-- Gemeinde   -->

<path
   style="fill:#671212;fill-opacity:1;stroke:#000000;stroke-width:0.882815;stroke-linecap:butt"
   onmouseout="style.opacity = 1;"
   onmouseover="style.opacity = 0.5;"
   id="640"
   class="st5"
   d="m 244.51952,408.71861 5.57939,1.78329 1.62438,3.28407 3.84025,-1.57141 2.80735,2.1629 5.36751,-2.67493 v 5.77361 l 2.21587,1.90688 -0.85633,2.07462 2.64844,3.53126 -0.76805,4.93493 -1.20062,1.20063 -0.53852,-1.02407 -2.29532,1.93337 -0.80336,-2.45423 -1.44782,0.30016 -1.8186,0.82985 0.009,1.48313 -5.88838,1.15648 -0.75039,1.46548 0.74157,9.46377 5.62353,13.48059 -6.50635,3.90204 -8.57213,3.40767 0.0706,0.89164 -9.78159,-0.22071 -1.44781,-0.82984 -0.45024,1.14766 -4.94376,2.56016 -5.29689,1.50962 -1.5979,-2.13642 -1.12117,0.64446 -0.29133,-5.48228 -1.44782,-4.63478 -1.60672,-1.97751 5.34103,-5.70298 1.23594,-5.57939 -0.89164,-4.43173 -5.85307,1.40367 -8.58096,4.51119 -2.43657,-3.30173 -0.98875,-4.11392 -2.0393,-2.13641 -1.96868,-5.15564 1.54493,-1.41251 h 2.98391 l 0.67977,-1.85391 -1.2536,-1.24477 1.87157,-4.44938 2.78969,-3.12517 2.57782,-0.58266 1.50079,-2.22469 h 3.48712 l 1.65086,-1.30657 h 5.34103 l -0.11476,1.41251 0.98875,0.13242 1.20946,-1.54493 6.7447,5.66768 -0.0706,1.80977 3.06336,-0.14125 2.39243,-2.95743 -0.053,-4.34345 3.40767,0.0883 -0.45906,-6.40041 z">
<title
   id="title640">Wittichenau     absolute Anzahl: 62 relativ zur Einwohnerzahl: 1,08 %
</title>
</path>

<g
   transform="matrix(0.88281499,0,0,0.88281499,-22.005856,124.59609)"
   id="g3848"><rect
     style="fill:none;stroke:none;stroke-width:0.75;stroke-linecap:round;stroke-linejoin:round"
     id="rect2088"
     class="st17"
     height="126.51"
     width="256.50699"
     y="677.96271"
     x="299.104"
     v:rectContext="foreign" /><rect
     style="fill:none;stroke:none;stroke-width:0.75;stroke-linecap:round;stroke-linejoin:round"
     id="rect2607"
     class="st17"
     height="126.51"
     width="256.50699"
     y="677.96271"
     x="299.104"
     v:rectContext="foreign" /></g>
	
	  <!-- Legende   -->
	<rect
   style="fill:#d7fcc8;fill-opacity:1;stroke-width:0.24028634"
   y="715.57788"
   x="4.3176322"
   height="13.464945"
   width="28.410492"
   id="RE_d7fcc8">
<title
   id="TRE_D7FCC8">#D7FCC8</title></rect>

<!-- Legende   -->
<rect
   style="fill:#fbf77b;fill-opacity:1;stroke-width:0.24028634"
   y="742.50775"
   x="4.3176322"
   height="13.464945"
   width="28.410492"
   id="rect4574">
<title
   id="TRE_FBF77B">#fbf77b</title></rect>

<!-- Legende   -->
<rect
   style="fill:#fdfecd;fill-opacity:1;stroke-width:0.24028634"
   y="729.04285"
   x="4.3176322"
   height="13.464945"
   width="28.410492"
   id="RE_FDFECD">
<title
   id="TRE_FDFECD">#FDFECD</title></rect>

<!-- Legende   -->
<rect
   style="fill:#ffb534;fill-opacity:1;stroke-width:0.24028634"
   y="755.97272"
   x="4.3176322"
   height="13.464945"
   width="28.410492"
   id="RE_FFB534">
<title
   id="TRE_FFB534">#FFB534</title></rect>

<!-- Legende   -->
<rect
   style="fill:#b42215;fill-opacity:1;stroke-width:0.24028634"
   y="782.90265"
   x="4.3176322"
   height="13.464945"
   width="28.410492"
   id="RE_B42215">
<title
   id="TRE_B42215">#B42215</title></rect>

<!-- Legende   -->
<rect
   style="fill:#be311d;fill-opacity:1;stroke-width:0.24028634"
   y="769.43768"
   x="4.3176322"
   height="13.464945"
   width="28.410492"
   id="RE_BE311D">
<title
   id="TRE_BE311D">#BE311D</title></rect>

<!-- Legende   -->
<rect
   style="fill:#a51412;fill-opacity:1;stroke-width:0.24028634"
   y="796.36761"
   x="4.3176322"
   height="13.464945"
   width="28.410492"
   id="RE_A51412">
<title
   id="TRE_A51412">#A51412</title></rect>

<!-- Legende   -->
<rect
   style="fill:#821212;fill-opacity:1;stroke-width:0.24028634"
   y="823.29749"
   x="4.3176322"
   height="13.464945"
   width="28.410492"
   id="RE_821212">
<title
   id="TRE_821212">#821212</title></rect>

<!-- Legende   -->
<rect
   style="fill:#961212;fill-opacity:1;stroke-width:0.24028634"
   y="809.83258"
   x="4.3176322"
   height="13.464945"
   width="28.410492"
   id="RE_961212">
<title
   id="TRE_961212">#961212</title></rect>

<!-- Legende   -->
<rect
   style="fill:#6e1212;fill-opacity:1;stroke-width:0.24622947"
   y="716.05219"
   x="156.37952"
   height="13.464945"
   width="29.833401"
   id="RE_6E1212">
<title
   id="TRE_6E1212">#6E1212</title></rect>

<!-- Legende   -->
<rect
   style="fill:#5f1212;fill-opacity:1;stroke-width:0.24622947"
   y="742.98212"
   x="156.37952"
   height="13.464945"
   width="29.833401"
   id="RE_5F1212">
<title
   id="TRE_5F1212">#5F1212</title></rect>

<!-- Legende   -->
<rect
   style="fill:#671212;fill-opacity:1;stroke-width:0.24622947"
   y="729.51715"
   x="156.37952"
   height="13.464945"
   width="29.833401"
   id="RE_671212">
<title
   id="TRE_671212">#671212</title></rect>

<!-- Legende   -->
<rect
   style="fill:#5a1212;fill-opacity:1;stroke-width:0.24622947"
   y="756.44708"
   x="156.37952"
   height="13.464945"
   width="29.833401"
   id="RE_5A1212">
<title
   id="TRE_5A1212">#5A1212</title></rect>

<!-- Legende   -->
<rect
   style="fill:#501212;fill-opacity:1;stroke-width:0.24622947"
   y="783.37695"
   x="156.37952"
   height="13.464945"
   width="29.833401"
   id="RE_501212">
<title
   id="TRE_501212">#501212</title></rect>

<!-- Legende   -->
<rect
   style="fill:#551212;fill-opacity:1;stroke-width:0.24622947"
   y="769.91205"
   x="156.37952"
   height="13.464945"
   width="29.833401"
   id="RE_551212">
<title
   id="TRE_551212">#551212</title></rect>

<!-- Legende   -->
<rect
   style="fill:#321212;fill-opacity:1;stroke-width:0.24622947"
   y="796.84192"
   x="156.37952"
   height="13.464945"
   width="29.833401"
   id="RE_321212">
<title
   id="TRE_321212">#321212</title></rect>

<rect
   style="fill:#141212;fill-opacity:1;stroke-width:0.24622947"
   y="810.30688"
   x="156.37952"
   height="13.464945"
   width="29.833401"
   id="RE_141212">
<title
   id="TRE_141212">#141212</title></rect>

<rect
   style="fill:#ed2083;fill-opacity:1;stroke-width:0.24622947"
   y="823.77185"
   x="156.37952"
   height="13.464945"
   width="29.833401"
   id="RE_ED2083">
<title
   id="TRE_ED2083">#ED2083</title></rect>

<text
   id="text5722"
   y="723.7157"
   x="40.648506"
   style="font-style:normal;font-weight:normal;font-size:26.48444939px;line-height:1.25;font-family:sans-serif;fill:#000000;fill-opacity:1;stroke:none;stroke-width:0.66211212"
   xml:space="preserve"><tspan
   style="font-style:normal;font-variant:normal;font-weight:normal;font-stretch:normal;font-size:7.06252813px;font-family:sans-serif;font-variant-ligatures:normal;font-variant-caps:normal;font-variant-numeric:normal;stroke-width:0.66211212"
   y="723.7157"
   x="40.648506"
   id="tspan5720">keine Daten	 </tspan>	 </text>

	
	 <text
   id="text5726"
   y="736.29187"
   x="40.38987"
   style="font-style:normal;font-weight:normal;font-size:26.48444939px;line-height:1.25;font-family:sans-serif;fill:#000000;fill-opacity:1;stroke:none;stroke-width:0.66211212"
   xml:space="preserve"><tspan
   style="font-style:normal;font-variant:normal;font-weight:normal;font-stretch:normal;font-size:7.06252813px;font-family:sans-serif;font-variant-ligatures:normal;font-variant-caps:normal;font-variant-numeric:normal;stroke-width:0.66211212"
   y="736.29187"
   x="40.38987"
   id="tspan5724">&gt;0,0000% &lt;=0,0100 %	 </tspan>	 </text>

	
	 <text
   id="text5730"
   y="750.03717"
   x="40.38987"
   style="font-style:normal;font-weight:normal;font-size:26.48444939px;line-height:1.25;font-family:sans-serif;fill:#000000;fill-opacity:1;stroke:none;stroke-width:0.66211212"
   xml:space="preserve"><tspan
   style="font-style:normal;font-variant:normal;font-weight:normal;font-stretch:normal;font-size:7.06252813px;font-family:sans-serif;font-variant-ligatures:normal;font-variant-caps:normal;font-variant-numeric:normal;stroke-width:0.66211212"
   y="750.03717"
   x="40.38987"
   id="tspan5728">&gt;0,0100% &lt;=0,0500 %</tspan></text>

<text
   id="text5734"
   y="763.78247"
   x="40.38987"
   style="font-style:normal;font-weight:normal;font-size:26.48444939px;line-height:1.25;font-family:sans-serif;fill:#000000;fill-opacity:1;stroke:none;stroke-width:0.66211212"
   xml:space="preserve"><tspan
     style="font-style:normal;font-variant:normal;font-weight:normal;font-stretch:normal;font-size:7.06252813px;font-family:sans-serif;font-variant-ligatures:normal;font-variant-caps:normal;font-variant-numeric:normal;stroke-width:0.66211212"
     y="763.78247"
     x="40.38987"
     id="tspan5732">&gt;0,0500% &lt;=0,1000 %</tspan></text>
<text
   id="text5738"
   y="777.52765"
   x="40.38987"
   style="font-style:normal;font-weight:normal;font-size:26.48444939px;line-height:1.25;font-family:sans-serif;fill:#000000;fill-opacity:1;stroke:none;stroke-width:0.66211212"
   xml:space="preserve"><tspan
     style="font-style:normal;font-variant:normal;font-weight:normal;font-stretch:normal;font-size:7.06252813px;font-family:sans-serif;font-variant-ligatures:normal;font-variant-caps:normal;font-variant-numeric:normal;stroke-width:0.66211212"
     y="777.52765"
     x="40.38987"
     id="tspan5736">&gt;0,1000% &lt;=0,1500 %</tspan></text>
<text
   id="text5742"
   y="791.27637"
   x="40.38987"
   style="font-style:normal;font-weight:normal;font-size:26.48444939px;line-height:1.25;font-family:sans-serif;fill:#000000;fill-opacity:1;stroke:none;stroke-width:0.66211212"
   xml:space="preserve"><tspan
     style="font-style:normal;font-variant:normal;font-weight:normal;font-stretch:normal;font-size:7.06252813px;font-family:sans-serif;font-variant-ligatures:normal;font-variant-caps:normal;font-variant-numeric:normal;stroke-width:0.66211212"
     y="791.27637"
     x="40.38987"
     id="tspan5740">&gt;0,1500% &lt;=0,2000 %</tspan></text>
<text
   id="text5746"
   y="805.02509"
   x="40.38987"
   style="font-style:normal;font-weight:normal;font-size:26.48444939px;line-height:1.25;font-family:sans-serif;fill:#000000;fill-opacity:1;stroke:none;stroke-width:0.66211212"
   xml:space="preserve"><tspan
     style="font-style:normal;font-variant:normal;font-weight:normal;font-stretch:normal;font-size:7.06252813px;font-family:sans-serif;font-variant-ligatures:normal;font-variant-caps:normal;font-variant-numeric:normal;stroke-width:0.66211212"
     y="805.02509"
     x="40.38987"
     id="tspan5744">&gt;0,2000% &lt;=0,2500 %</tspan></text>
<text
   id="text5750"
   y="818.77374"
   x="40.38987"
   style="font-style:normal;font-weight:normal;font-size:26.48444939px;line-height:1.25;font-family:sans-serif;fill:#000000;fill-opacity:1;stroke:none;stroke-width:0.66211212"
   xml:space="preserve"><tspan
     style="font-style:normal;font-variant:normal;font-weight:normal;font-stretch:normal;font-size:7.06252813px;font-family:sans-serif;font-variant-ligatures:normal;font-variant-caps:normal;font-variant-numeric:normal;stroke-width:0.66211212"
     y="818.77374"
     x="40.38987"
     id="tspan5748">&gt;0,2500% &lt;=0,5000 %</tspan></text>
<text
   id="text5754"
   y="832.51892"
   x="40.38987"
   style="font-style:normal;font-weight:normal;font-size:26.48444939px;line-height:1.25;font-family:sans-serif;fill:#000000;fill-opacity:1;stroke:none;stroke-width:0.66211212"
   xml:space="preserve"><tspan
     style="font-style:normal;font-variant:normal;font-weight:normal;font-stretch:normal;font-size:7.06252813px;font-family:sans-serif;font-variant-ligatures:normal;font-variant-caps:normal;font-variant-numeric:normal;stroke-width:0.66211212"
     y="832.51892"
     x="40.38987"
     id="tspan5752">&gt;0,5000% &lt;=0,7500 %</tspan></text>
<text
   id="text5762"
   y="724.19562"
   x="190.43506"
   style="font-style:normal;font-weight:normal;font-size:26.48444939px;line-height:1.25;font-family:sans-serif;fill:#000000;fill-opacity:1;stroke:none;stroke-width:0.66211212"
   xml:space="preserve"><tspan
     style="font-style:normal;font-variant:normal;font-weight:normal;font-stretch:normal;font-size:7.06252813px;font-family:sans-serif;font-variant-ligatures:normal;font-variant-caps:normal;font-variant-numeric:normal;stroke-width:0.66211212"
     y="724.19562"
     x="190.43506"
     id="tspan5760">&gt;0,7500% &lt;=1,0000 %</tspan></text>
<text
   id="text5766"
   y="737.78412"
   x="190.43506"
   style="font-style:normal;font-weight:normal;font-size:26.48444939px;line-height:1.25;font-family:sans-serif;fill:#000000;fill-opacity:1;stroke:none;stroke-width:0.66211212"
   xml:space="preserve"><tspan
     style="font-style:normal;font-variant:normal;font-weight:normal;font-stretch:normal;font-size:7.06252813px;font-family:sans-serif;font-variant-ligatures:normal;font-variant-caps:normal;font-variant-numeric:normal;stroke-width:0.66211212"
     y="737.78412"
     x="190.43506"
     id="tspan5764">&gt;1,0000% &lt;=1,2500 %</tspan></text>
<text
   id="text5770"
   y="751.37262"
   x="190.43506"
   style="font-style:normal;font-weight:normal;font-size:26.48444939px;line-height:1.25;font-family:sans-serif;fill:#000000;fill-opacity:1;stroke:none;stroke-width:0.66211212"
   xml:space="preserve"><tspan
     style="font-style:normal;font-variant:normal;font-weight:normal;font-stretch:normal;font-size:7.06252813px;font-family:sans-serif;font-variant-ligatures:normal;font-variant-caps:normal;font-variant-numeric:normal;stroke-width:0.66211212"
     y="751.37262"
     x="190.43506"
     id="tspan5768">&gt;1,2500% &lt;=1,5000 %</tspan></text>
<text
   id="text5774"
   y="764.95764"
   x="190.43506"
   style="font-style:normal;font-weight:normal;font-size:26.48444939px;line-height:1.25;font-family:sans-serif;fill:#000000;fill-opacity:1;stroke:none;stroke-width:0.66211212"
   xml:space="preserve"><tspan
     style="font-style:normal;font-variant:normal;font-weight:normal;font-stretch:normal;font-size:7.06252813px;font-family:sans-serif;font-variant-ligatures:normal;font-variant-caps:normal;font-variant-numeric:normal;stroke-width:0.66211212"
     y="764.95764"
     x="190.43506"
     id="tspan5772">&gt;1,5000% &lt;=1,7500 %</tspan></text>
<text
   id="text5778"
   y="778.5462"
   x="190.43506"
   style="font-style:normal;font-weight:normal;font-size:26.48444939px;line-height:1.25;font-family:sans-serif;fill:#000000;fill-opacity:1;stroke:none;stroke-width:0.66211212"
   xml:space="preserve"><tspan
     style="font-style:normal;font-variant:normal;font-weight:normal;font-stretch:normal;font-size:7.06252813px;font-family:sans-serif;font-variant-ligatures:normal;font-variant-caps:normal;font-variant-numeric:normal;stroke-width:0.66211212"
     y="778.5462"
     x="190.43506"
     id="tspan5776">&gt;1,7500% &lt;=2,0000 %</tspan></text>
<text
   id="text5782"
   y="792.1347"
   x="190.43506"
   style="font-style:normal;font-weight:normal;font-size:26.48444939px;line-height:1.25;font-family:sans-serif;fill:#000000;fill-opacity:1;stroke:none;stroke-width:0.66211212"
   xml:space="preserve"><tspan
     style="font-style:normal;font-variant:normal;font-weight:normal;font-stretch:normal;font-size:7.06252813px;font-family:sans-serif;font-variant-ligatures:normal;font-variant-caps:normal;font-variant-numeric:normal;stroke-width:0.66211212"
     y="792.1347"
     x="190.43506"
     id="tspan5780">&gt;2,0000% &lt;=4,0000 %</tspan></text>
<text
   id="text5786"
   y="805.73352"
   x="190.43506"
   style="font-style:normal;font-weight:normal;font-size:26.48444939px;line-height:1.25;font-family:sans-serif;fill:#000000;fill-opacity:1;stroke:none;stroke-width:0.66211212"
   xml:space="preserve"><tspan
     style="font-style:normal;font-variant:normal;font-weight:normal;font-stretch:normal;font-size:7.06252813px;font-family:sans-serif;font-variant-ligatures:normal;font-variant-caps:normal;font-variant-numeric:normal;stroke-width:0.66211212"
     y="805.73352"
     x="190.43506"
     id="tspan5784">&gt;4,0000% &lt;=8,0000 %</tspan></text>
<text
   id="text5790"
   y="819.3324"
   x="190.43506"
   style="font-style:normal;font-weight:normal;font-size:26.48444939px;line-height:1.25;font-family:sans-serif;fill:#000000;fill-opacity:1;stroke:none;stroke-width:0.66211212"
   xml:space="preserve"><tspan
     style="font-style:normal;font-variant:normal;font-weight:normal;font-stretch:normal;font-size:7.06252813px;font-family:sans-serif;font-variant-ligatures:normal;font-variant-caps:normal;font-variant-numeric:normal;stroke-width:0.66211212"
     y="819.3324"
     x="190.43506"
     id="tspan5788">&gt;8,0000% </tspan></text>

</g>
</svg>