<?xml version="1.0" encoding="UTF-8" standalone="no"?>
<svg
   xmlns:v="http://schemas.microsoft.com/visio/2003/SVGExtensions/"
   xmlns:dc="http://purl.org/dc/elements/1.1/"
   xmlns:cc="http://creativecommons.org/ns#"
   xmlns:rdf="http://www.w3.org/1999/02/22-rdf-syntax-ns#"
   xmlns:svg="http://www.w3.org/2000/svg"
   xmlns="http://www.w3.org/2000/svg"
   xmlns:sodipodi="http://sodipodi.sourceforge.net/DTD/sodipodi-0.dtd"
   xmlns:inkscape="http://www.inkscape.org/namespaces/inkscape"
   width="6in"
   height="7in"
   viewBox="0 0 432.0001 504.00074"
   xml:space="preserve"
   class="st18"
   version="1.1"
   id="svg2612"
   sodipodi:docname="Landkreiskarte.svg"
   inkscape:version="0.92.5 (2060ec1f9f, 2020-04-08)"
   style="font-size:12px;overflow:visible;color-interpolation-filters:sRGB;fill:none;fill-rule:evenodd;stroke-linecap:square;stroke-miterlimit:3"><metadata
   id="metadata2618"><rdf:RDF><cc:Work
       rdf:about=""><dc:format>image/svg+xml</dc:format><dc:type
         rdf:resource="http://purl.org/dc/dcmitype/StillImage" /><dc:title></dc:title></cc:Work></rdf:RDF></metadata><defs
   id="defs2616">
	</defs><sodipodi:namedview
   pagecolor="#ffffff"
   bordercolor="#666666"
   borderopacity="1"
   objecttolerance="10"
   gridtolerance="10"
   guidetolerance="10"
   inkscape:pageopacity="0"
   inkscape:pageshadow="2"
   inkscape:window-width="1920"
   inkscape:window-height="1017"
   id="namedview2614"
   showgrid="false"
   inkscape:zoom="0.75188079"
   inkscape:cx="396.85057"
   inkscape:cy="561.25919"
   inkscape:window-x="-4"
   inkscape:window-y="-4"
   inkscape:window-maximized="1"
   inkscape:current-layer="g2610"
   inkscape:document-rotation="0"
   showguides="false" />
	<v:documentProperties
   v:langID="1031"
   v:metric="true"
   v:viewMarkup="false">
		<v:userDefs>
			<v:ud
   v:nameU="msvNoAutoConnect"
   v:val="VT0(1):26" />
			<v:ud
   v:nameU="msvLastAppliedDataGraphic"
   v:val="VT4(Data Graphic.28)" />
			<v:ud
   v:nameU="msvNoApplyDataGraphicAfterLink"
   v:val="VT0(1):5" />
		</v:userDefs>
	</v:documentProperties>

	<style
   type="text/css"
   id="style1315">
	<![CDATA[
		.st1 {fill:#5a1212;stroke:#000000;stroke-linecap:butt;stroke-width:1}
		.st2 {stroke:none;stroke-linecap:round;stroke-linejoin:round;stroke-width:0.75}
		
		.st4 {fill:#821212;stroke:#000000;stroke-linecap:butt;stroke-width:1}
		.st5 {fill:#6e1212;stroke:#000000;stroke-linecap:butt;stroke-width:1}
		.st6 {fill:#551212;stroke:#000000;stroke-linecap:butt;stroke-width:1}
		.st7 {fill:#fdfecd;stroke:#000000;stroke-linecap:butt;stroke-width:1}
	
		.st9 {fill:#321212;stroke:#000000;stroke-linecap:butt;stroke-width:1}
		.st10 {fill:#5f1212;stroke:#000000;stroke-linecap:butt;stroke-width:1}
		.st11 {fill:#961212;stroke:#000000;stroke-linecap:butt;stroke-width:1}
		.st12 {fill:#a51412;stroke:#000000;stroke-linecap:butt;stroke-width:1}
		.st13 {fill:#671212;stroke:#000000;stroke-linecap:butt;stroke-width:1}
		.st14 {fill:#961212;stroke:#000000;stroke-linecap:round;stroke-linejoin:round;stroke-width:1}
		.st15 {fill:#501212;stroke:#000000;stroke-linecap:butt;stroke-width:1}
		.st16 {fill:#b42215;stroke:#000000;stroke-linecap:butt;stroke-width:1}
		.st17 {fill:none;stroke:none;stroke-linecap:round;stroke-linejoin:round;stroke-width:0.75}
		.st18 {fill:none;fill-rule:evenodd;font-size:12px;overflow:visible;stroke-linecap:square;stroke-miterlimit:3}
	]]>
	</style>

	<g
   v:mID="0"
   v:index="1"
   v:groupContext="foregroundPage"
   id="g2610"
   transform="translate(0,-337.88918)">
		<v:userDefs>
			<v:ud
   v:nameU="msvDGCalloutGap"
   v:val="VT0(0.0625):26" />
		</v:userDefs>
		<title
   id="title1317">Zeichenblatt-1</title>
		<v:pageProperties
   v:drawingScale="0.0393701"
   v:pageScale="0.0393701"
   v:drawingUnits="24"
   v:shadowOffsetX="8.50394"
   v:shadowOffsetY="-8.50394" />
		<v:layer
   v:name="Datengrafik"
   v:index="0" />
		<v:layer
   v:name="Vereinfacht"
   v:index="1" />
<!-- Metadaten
Ausgabe: H:\Corona-Stab AS21\Landkreis Corona Karte\Landkreiskarte_svg.xlsx_AS21_201204153111897.SVG
User:    AS21
-->
<!-- Gemeinde   -->


<!-- Gemeinde   -->

<!-- Gemeinde   -->

 
   <!-- Gemeinde   -->



<!-- Gemeinde   -->


<!-- Gemeinde   -->


<!-- Gemeinde   -->


<!-- Gemeinde   -->


<!-- Gemeinde   -->



<!-- Gemeinde   -->

   <!-- Gemeinde   -->

 

    <!-- Gemeinde   -->


   <!-- Gemeinde   -->


<!-- Gemeinde Groszdubrau   -->

   <!-- Gemeinde   -->


   <!-- Gemeinde   -->


   <!-- Gemeinde   -->


   <!-- Gemeinde   -->


   <!-- Gemeinde   -->


   <!-- Gemeinde   -->


   <!-- Gemeinde   -->



   <!-- Gemeinde   -->


   <!-- Gemeinde   -->


    <!-- Gemeinde   -->


    <!-- Gemeinde   -->

<!--        Lausznitz     -->

   <!-- Gemeinde   -->



   <!-- Gemeinde   -->


   <!--        Lohsa     -->

<!-- Gemeinde   -->

<!-- Gemeinde   -->



   <!-- Gemeinde   -->
 

    <!-- Gemeinde   -->

 <!-- Gemeinde   -->



    <!-- Gemeinde   -->


   <!-- Gemeinde   -->


   <!-- Gemeinde   -->


   <!-- Gemeinde   -->


   <!-- Gemeinde   -->


    <!-- Gemeinde   -->


    <!-- Gemeinde   -->


    <!-- Gemeinde   -->


    <!-- Gemeinde   -->


    <!-- Gemeinde   -->


<!-- Gemeinde Ralbitz-Rosenthal  -->


    <!-- Gemeinde   -->


    <!-- Gemeinde   -->


   <!-- Gemeinde   -->


    <!-- Gemeinde   -->


    <!-- Gemeinde   -->


   <!-- Gemeinde   -->


    <!-- Gemeinde   -->


    <!-- Gemeinde   -->


    <!-- Gemeinde   -->


    <!-- Gemeinde   -->


   <!-- Gemeinde   -->

   <!-- Gemeinde   -->




	
	  <!-- Legende   -->
	

<!-- Legende   -->


<!-- Legende   -->


<!-- Legende   -->


<!-- Legende   -->


<!-- Legende   -->


<!-- Legende   -->


<!-- Legende   -->


<!-- Legende   -->


<!-- Legende   -->


<!-- Legende   -->


<!-- Legende   -->


<!-- Legende   -->


<!-- Legende   -->


<!-- Legende   -->


<!-- Legende   -->







	
	 
	
	 
<g
   id="g1390"
   transform="matrix(0.84253794,0,0,0.84253794,-15.622858,155.54578)"><path
     inkscape:connector-curvature="0"
     style="fill:#a51412;fill-opacity:1;stroke:#000000;stroke-width:1;stroke-linecap:butt"
     onmouseout="style.opacity = 1;"
     onmouseover="style.opacity = 0.5;"
     id="010"
     class="st4"
     d="m 138.991,566.721 0.82,-3.98 0.98,0.03 0.27,-2.59 -2.6,-3.6 1.87,-0.69 1.4,1.51 1.87,-5.1 2.54,-0.33 12.15,7.29 7.29,-1.49 2.35,1.1 2.1,-1.44 0.92,2.61 5.21,2.89 0.33,1.84 -2.23,3.15 2.52,2.74 -1.93,2.34 0.86,0.83 2.84,-1.8 -0.74,1.88 0.83,4.26 1.3,0.17 0.91,2.02 3.56,1.03 4.6,4.21 2.82,0.15 -3.74,9.32 2.2,2.07 -3.81,2.53 -2.2,-1.2 -1.52,0.64 -2.92,-1.93 -2.87,1.53 -3.22,-2.39 -3.34,0.75 -0.93,3.48 -5.19,-1.76 0.28,-1.36 -3.4,-0.46 -1.96,0.98 0.14,2.56 -2.7,2.27 -5.59,0.53 -1.8,-2.14 -1.85,-0.11 -0.69,-1.88 2.46,1.88 -3.63,-4.12 -0.62,0.42 0.17,-3.83 -1.84,0.16 -0.83,-1.73 -2.24,-0.8 1.45,-4.75 -3.18,-7.61 -2.43,0.31 -3.86,-6.03 3.74,-3.09 1.04,-2.7 z">
<title
   id="title010">Arnsdorf     absolute Anzahl: 12 relativ zur Einwohnerzahl: 0,25 %
</title>
</path><path
     inkscape:connector-curvature="0"
     style="fill:#821212;fill-opacity:1;stroke:#000000;stroke-width:1;stroke-linecap:butt"
     onmouseout="style.opacity = 1;"
     onmouseover="style.opacity = 0.5;"
     id="020"
     class="st7"
     d="m 402.26,480.624 1.96,0.16 -1.07,2.51 0.91,0.37 -0.31,1.29 2.9,1.61 -0.76,2.85 5.44,1.04 -0.2,1.04 2.37,1.98 -3.76,4.43 1.09,3.72 2.08,1.16 0.27,4.52 -2.38,-0.41 -0.4,1.39 -1.26,-0.06 -0.47,2.24 -4.61,-0.36 1.8,1.65 -0.63,2.39 -3.27,0.38 3.57,-0.26 3.41,2.64 0.36,1.79 -3.54,0.45 3.48,2.61 -4.37,2.2 -3.76,3.87 -6.02,0.04 -0.92,1.55 -1.52,-0.52 -1.08,2.03 -2.9,-0.47 0.77,3.16 -1.04,-0.13 -0.16,2.99 -4.72,0.81 0.28,3.96 -2.68,1.03 -3.03,3.32 -0.95,0.55 -3.5,-5.87 0.03,-3.02 -1.09,-1.21 1.8,-0.41 0.85,-6.57 1.73,-2.24 -1.51,-1.16 -2.85,1.43 -0.49,-1.93 -2.91,0.55 -6.85,-2.69 0.27,-2.72 -4.32,-0.26 -2.46,0.79 1.57,1.32 -1.89,1.77 -6.61,1.33 2.21,-5.03 1.78,-11.35 -5.85,-1.53 -0.41,2.04 -1.57,0.05 -1.19,2.4 -2.09,-0.47 -1.25,1.7 -3.86,0.04 -0.45,-1.3 -1.59,0.03 -1.35,-4.46 2.52,-6.38 -5.82,-2.38 3.8,-10.59 4.29,-2.61 -0.8,-0.72 2.16,0.21 -0.87,-0.33 1.16,-1.56 -2.1,-2.18 1.23,-1.72 1.97,1.36 2.33,-1.78 1.76,1.49 2.84,-2.59 2.4,2.07 0.72,-1.06 0.84,2.33 -1.27,0.62 3.67,2.21 0.62,-1.48 -1.12,-0.8 1.34,-2.38 2.98,-1.66 3.1,2.19 -0.24,0.81 0.98,-0.61 -0.53,1.44 1.02,-0.07 0.03,-1.32 1.71,0.26 -0.27,1.67 4.61,2.38 1.74,-2.55 7.56,1.64 2.54,-0.76 1.63,-4.25 1.62,1.8 -0.94,0.05 -0.02,1.63 -3.38,1.52 4.36,1.86 1.63,-5.69 4.61,-0.35 1.91,-4.29 1.65,-0.82 0.13,-2.47 z">
<title
   id="title020">Bautzen     absolute Anzahl: 234 relativ zur Einwohnerzahl: 0,70 %
</title>
</path><path
     inkscape:connector-curvature="0"
     style="fill:#821212;fill-opacity:1;stroke:#000000;stroke-width:1;stroke-linecap:butt"
     onmouseout="style.opacity = 1;"
     onmouseover="style.opacity = 0.5;"
     id="030"
     class="st4"
     d="m 171.689,358.469 -1.97,-8.3 0.72,-1.79 4.13,-2.15 1.03,-2.58 -2.22,-1.33 0.18,-2.04 4.68,-1.88 7.3,1.62 -1.02,-4.42 -4.23,0.01 -0.7,-2.43 2.47,-2.57 3.21,-0.1 4.83,-6.73 3.89,-1.6 0.67,6.61 1.16,1.8 5.78,2.9 2.9,3.57 4.86,2.77 1.04,-4.99 -2.87,1.84 -1.62,-0.33 -0.58,-3.72 1.58,-1.91 12.69,8.8 2.43,-1.14 1.35,3.76 2.84,2 3.99,0.69 10.36,-0.88 2.26,0.71 5.62,-5.91 7.77,-1.97 1.22,1.32 -2.13,5.04 1.43,1.41 -0.77,2.1 h -3.38 l -1.75,1.6 2.23,5.83 -7.94,-0.16 1.32,10.78 -2.98,4.63 -5.79,-8.71 -0.96,-3.16 -3.71,3.48 -4.37,-0.08 -1.98,-7.65 -3.62,0.9 0.56,2.35 -5.2,-0.27 -0.48,2.54 3.03,3.49 2.7,-0.01 -0.67,10.27 -0.71,2.09 -1.9,-0.2 -1.32,1.95 -3.5,0.98 0.91,6.29 -2.43,-0.46 -1.17,1.57 -4.17,0.33 -1.92,2.31 -1.29,0.06 -9.31,-4.52 -1.96,2.8 -5.72,0.2 -4.99,-3.28 -9.28,1.68 -3.75,-3.72 -2.02,-3.32 4.13,-7.95 4.44,-4.43 z">
<title
   id="title030">Bernsdorf     absolute Anzahl: 42 relativ zur Einwohnerzahl: 0,72 %
</title>
</path><path
     inkscape:connector-curvature="0"
     style="fill:#671212;fill-opacity:1;stroke:#000000;stroke-width:1;stroke-linecap:butt"
     onmouseout="style.opacity = 1;"
     onmouseover="style.opacity = 0.5;"
     id="040"
     class="st4"
     d="m 242.605,541.674 -0.96,-6.59 4.94,-6.67 5.65,-0.84 5.56,1.69 3.54,-0.21 6.42,-8.58 2.48,-1.62 3.86,6.41 0.94,-0.77 -0.43,4.32 1.61,6.3 4.08,-0.28 2.89,1.18 -6.27,7.7 1.37,4.29 -4.11,2.01 -0.97,2.98 3.06,1.34 2.26,2.8 -0.87,1.4 0.82,0.87 -5.9,10.22 -2.37,-1.49 -3.28,0.12 -2.4,-2.2 -4.96,0.73 -2.73,2.52 1.29,0.29 -1.36,1.17 1.35,7.09 -4.42,-0.31 -1.07,1.4 4.7,1.41 -0.32,0.87 -2.26,-0.74 -0.71,0.84 2.97,1.07 -2.08,3.45 1.6,0.91 -0.44,1.04 2.3,0.7 -1.06,5.09 -2.52,-0.68 -1.68,1.14 3.86,2.9 -6.16,0.08 -0.33,2.05 2.81,0.64 -4.66,0.86 -9.27,-6.14 0.03,-3.55 -2.61,-2.95 1.26,-2.15 -0.99,0.57 -2.93,-4.31 -1.78,-1.27 0.01,-6.52 -3.15,-1.58 -0.92,-2.34 4.2,-2 -0.93,-1.07 -0.18,-8.6 1.48,-1.06 -0.91,-0.83 0.65,-1.33 -2.14,-3.93 0.77,-2.5 3.64,-1.45 -0.6,-3.16 z">
<title
   id="title4635">Bischofswerda     absolute Anzahl: 111 relativ zur Einwohnerzahl: 1,04 %
</title>
</path><path
     inkscape:connector-curvature="0"
     style="fill:#671212;fill-opacity:1;stroke:#000000;stroke-width:1;stroke-linecap:butt"
     onmouseout="style.opacity = 1;"
     onmouseover="style.opacity = 0.5;"
     id="060"
     class="st5"
     d="m 267.382,493.124 -3.17,0.68 -0.32,-5.28 4.49,0.81 0.28,-2.15 0.35,1.58 0.97,-1.33 -0.12,-2.19 3.15,-3.08 1.62,-0.26 0.1,1.29 0.21,-1.35 7.25,-1.45 -0.38,4.03 3.12,1.12 -0.07,0.86 1.9,-0.48 0.97,2.18 2.36,0.74 -0.92,1.51 4.58,-3.91 4.38,3.51 3.48,0.07 1.56,1.61 -0.89,-0.5 -0.59,2.67 -0.93,-0.14 -0.05,2.55 -3.72,-0.58 -2.06,5.13 0.14,1.87 2.34,0.15 -0.39,1.25 3.94,-0.2 -0.54,1.91 1.73,-1.12 0.02,1.65 -0.83,2.09 -5.83,3.52 -0.01,2.58 -2.26,0.32 -0.3,1.46 -4.74,-1.4 -3.74,1.56 -5.67,-1.62 -5.79,1.56 -2.76,2.51 -2.48,1.62 -6.43,8.58 -3.53,0.21 -5.57,-1.69 -5.65,0.84 -2.54,-0.51 0.32,-2.76 -12.36,-10.54 7.01,-4.1 0.22,-4.03 3.81,-1.85 4.02,4.89 3.08,-0.19 5.31,-2.27 2.81,-4.45 3.23,0.56 5.91,-2.51 1.67,-3.09 -1.24,-1.02 0.71,-1.49 z">
<title
   id="title060">Burkau     absolute Anzahl: 26 relativ zur Einwohnerzahl: 1,04 %
</title>
</path><path
     inkscape:connector-curvature="0"
     style="fill:#501212;fill-opacity:1;stroke:#000000;stroke-width:1;stroke-linecap:butt"
     onmouseout="style.opacity = 1;"
     onmouseover="style.opacity = 0.5;"
     id="080"
     class="st9"
     d="m 296.503,440.36 -0.05,2.12 2.92,0.32 -0.57,0.9 1.42,2.6 0.18,7.36 -2.51,1.5 0.15,4.62 -1.26,1.05 1.98,4.02 6.2,1.58 0.14,6.79 1.76,0.32 0.56,1.31 4.12,0.17 -0.67,0.96 2.05,3.28 -2.4,-0.56 -0.45,2.2 -6.47,-1.46 -0.43,2.42 -2.59,-0.49 0.36,-1.6 -6.68,-1.11 -0.08,-1.8 -1.58,-0.11 -0.75,1.65 -3.17,-0.37 -0.1,-2.63 1.31,-1.11 -2.13,0.85 -1.19,-2.11 -4.8,-0.82 -0.84,-3.11 -1.09,0.19 1.39,-1.53 -1.24,-1.95 -4.82,-0.17 4.21,-3.95 -0.49,-2.45 2.6,-0.79 -0.63,-0.44 1.76,-1.19 -0.02,-1.82 1.69,0.05 0.62,-1.67 0.3,1.53 1.24,-1.5 2.75,1.04 -0.04,-1.98 -1.36,-0.72 0.24,-3.2 1.33,0.05 0.02,-3.73 0.79,-3.46 2.13,0.6 -1.82,-1.29 2.04,0.6 0.33,-1.62 z">
<title
   id="title080">Crostwitz     absolute Anzahl: 14 relativ zur Einwohnerzahl: 2,24 %
</title>
</path><path
     inkscape:connector-curvature="0"
     style="fill:#6e1212;fill-opacity:1;stroke:#000000;stroke-width:1;stroke-linecap:butt"
     onmouseout="style.opacity = 1;"
     onmouseover="style.opacity = 0.5;"
     id="090"
     class="st4"
     d="m 407.004,568.537 -1.26,-4.75 3.87,-0.4 1.41,-1.52 -0.34,-1.29 5.4,1.74 3.61,-1.85 -0.1,-1.13 5.31,1.76 3.3,-0.09 4.98,-1 2.89,2.82 8.03,1.12 3.76,-0.71 4.89,1.48 3.39,1.86 0.09,2.58 2.13,2.77 -8.29,3.73 -0.89,1.78 1.84,1.63 1.51,-0.22 0.27,2.73 -7.46,10.38 -3.13,0.46 -3.74,-2.82 -3.11,-0.03 -18.46,2.95 -6.64,1.62 0.29,-8.97 -4.7,-1.14 -3.31,-4.99 0.13,-1.22 2.98,-1.61 0.6,-6.45 z">
<title
   id="title090">Cunewalde     absolute Anzahl: 35 relativ zur Einwohnerzahl: 0,78 %
</title>
</path><path
     inkscape:connector-curvature="0"
     style="fill:#821212;fill-opacity:1;stroke:#000000;stroke-width:1;stroke-linecap:butt"
     onmouseout="style.opacity = 1;"
     onmouseover="style.opacity = 0.5;"
     id="100"
     class="st4"
     d="m 278.79,514.782 5.68,1.62 3.73,-1.56 4.75,1.41 -0.54,2.9 2.58,1.15 1.24,-2.84 6.49,0.24 1.06,3.51 1.21,0.63 -1.66,3.23 3.54,2.6 2.8,-0.84 2.06,4.45 0.53,3.32 -1.49,3.3 0.96,2.55 -0.38,0.97 -2.43,-1.8 -3.01,4.74 -0.49,7.06 -0.91,0.89 -7.24,-1.97 -5.85,1.15 -3.02,-2.32 -5.96,0.48 -4.79,-3.24 -0.73,-2.7 6.26,-7.7 -2.88,-1.18 -4.09,0.28 -1.6,-6.3 0.42,-4.32 -0.94,0.77 -3.85,-6.41 2.76,-2.51 z">
<title
   id="title100">Demitz-Thumitz     absolute Anzahl: 13 relativ zur Einwohnerzahl: 0,65 %
</title>
</path><path
     inkscape:connector-curvature="0"
     style="fill:#821212;fill-opacity:1;stroke:#000000;stroke-width:1;stroke-linecap:butt"
     onmouseout="style.opacity = 1;"
     onmouseover="style.opacity = 0.5;"
     id="110"
     class="st4"
     d="m 334.094,535.326 -0.37,-2.53 2.7,0.86 2.37,-5.75 6.84,1.72 0.96,-3.6 2.31,-0.77 6.62,-1.33 1.89,-1.77 -1.57,-1.32 2.46,-0.79 4.31,0.25 -0.27,2.73 6.85,2.69 2.91,-0.56 0.5,1.93 2.85,-1.42 1.51,1.16 -1.73,2.24 -0.86,6.56 -1.79,0.41 1.09,1.22 -1.92,-0.37 0.57,-1.4 -4.02,-0.72 -1.24,0.53 0.47,1.45 -1.57,0.42 -0.89,2.97 -1.29,-1.28 -1.6,3.17 -1.35,-0.13 -3.47,8.36 -0.06,6.51 -3.84,-0.59 -1.86,13.33 -5.79,-1.99 -16.1,-0.38 -11.05,-3.38 -10.88,3.09 -0.3,-2.6 -0.93,0.18 -0.27,-1.19 -0.69,-6.78 -1.65,-2.6 0.57,-1.54 0.9,-0.9 0.5,-7.06 3.01,-4.74 2.42,1.81 0.39,-0.97 -0.96,-2.56 1.49,-3.3 -0.53,-3.32 0.23,-2.97 5.17,2.67 4.3,0.83 0.89,-0.74 1.19,0.71 -0.79,5.24 6.06,0.26 1.79,1.12 z">
<title
   id="title1008">Doberschau-Gaußig     absolute Anzahl: 22 relativ zur Einwohnerzahl: 0,58 %
</title>
</path><path
     inkscape:connector-curvature="0"
     style="fill:#6e1212;fill-opacity:1;stroke:#000000;stroke-width:1;stroke-linecap:butt"
     onmouseout="style.opacity = 1;"
     onmouseover="style.opacity = 0.5;"
     id="120"
     class="st4"
     d="m 243.812,224.404 1.92,1.98 5.27,0.89 3.84,-0.66 4.43,1.68 5.97,-0.77 5.69,1.39 3.18,-1.09 4.23,0.35 3.41,1.11 4.14,4.29 5.61,0.78 0.73,-0.95 1.54,1.6 -1.5,0.63 -0.02,1.14 2.31,0.83 2.96,-1.09 0.2,-2.14 9.86,-0.19 6.53,3.06 3.27,2.77 3.98,0.11 10.41,4.49 2.01,9.46 0.2,3.1 -1.15,-0.07 -0.78,2.08 3.82,1.4 3.27,3.69 -1.73,1.38 0.03,3.25 3.95,3.54 3.63,0.93 -1,4.33 -4.92,8.35 -8.37,-5.29 0.07,-2.65 -8.97,-4.48 -0.13,10.02 -1.67,1.47 1.75,0.42 0.11,3.82 -6.05,0.13 -0.04,-1.5 -5.05,-1.55 -1.8,3.29 1.08,0.02 -4.44,2.98 -3.84,-0.5 -5.32,7.33 -5.06,2.79 -3.73,-0.74 -0.26,-1.7 -7.98,-6.36 -0.58,2.78 -3.3,-1.77 -2.07,2.29 -6.01,-0.04 -1.68,6.18 -2.71,-0.37 -0.06,1.18 -2.2,0.34 -1.87,-1.69 -1.3,0.38 -0.38,1.59 -2.07,-2.22 -2.56,0.75 1.1,-2.59 -4.27,-3.73 2.37,-2.17 2.35,-6.14 0.9,0.5 0.99,-1.93 -0.35,-2.73 1.04,-0.5 1,-3.74 3.3,0.89 0.27,-2.13 0.65,0.83 1.16,-0.83 -3.35,-1.38 1.21,-3.25 -1.37,0.59 0.99,-1.07 -1.23,-1.07 -0.71,0.89 -2.82,-1.98 -4.22,-0.31 -4.18,-1.84 -1.84,0.56 0.87,1.27 -1.1,1.41 -6.35,-0.7 0.16,4.2 -3.72,-1.29 -5.19,5.18 -4.87,-0.42 -3.02,-1.81 -1.47,9.71 -4.72,-0.32 -1.06,-1.1 -1.66,0.82 -1.3,-1.55 -2.62,-0.08 -1.63,-2.3 0.15,-2.52 7.49,-3.88 0.57,-1.5 -7.1,-10.28 6.54,-1.11 4.25,-3.83 2.83,-12.7 3.56,-5.47 4.62,-1.07 8.62,1.81 1.51,-1.92 2.02,0.53 -4.5,-4.2 -1.53,-4.42 0.57,-3.29 2.9,-4.22 1.46,-0.47 z">
<title
   id="title120">Elsterheide     absolute Anzahl: 24 relativ zur Einwohnerzahl: 0,75 %
</title>
</path><path
     inkscape:connector-curvature="0"
     style="fill:#821212;fill-opacity:1;stroke:#000000;stroke-width:1;stroke-linecap:butt"
     onmouseout="style.opacity = 1;"
     onmouseover="style.opacity = 0.5;"
     id="130"
     class="st10"
     d="m 250.311,463.503 -1.14,5.05 2.2,1.31 -0.23,3.44 3.59,2.48 -0.46,1.44 -2.2,-0.99 -1.26,1.78 0.93,1.37 -1.04,6.1 2.05,0.17 0.96,4.75 -2.01,1.38 0.33,2.12 -2.31,0.49 -1.87,4.71 -2.73,0.74 -2.08,4.78 -3.81,1.85 -0.22,4.03 -7,4.1 -4.69,-3.12 -1.71,2.83 -1,-0.65 -0.92,1.62 -4.72,-2.25 0.94,-0.56 -0.56,-3.77 3.4,-2.41 -3.6,-8.12 -1.12,-1.38 -2.1,-4.26 1.07,-15.47 -3,-3.01 -0.06,-3.14 5,0.03 2.07,-4.49 0.49,-4.97 2.24,-1.48 5.95,-2.39 1.98,1.59 -1.02,-1.83 0.94,-0.48 4.56,2.86 1.99,-0.05 0.17,-1.56 1.95,1.54 2.41,-0.93 0.4,-3.49 6.14,4.71 -0.68,3.08 z">
<title
   id="title130">Elstra     absolute Anzahl: 16 relativ zur Einwohnerzahl: 0,73 %
</title>
</path><path
     inkscape:connector-curvature="0"
     style="fill:#6e1212;fill-opacity:1;stroke:#000000;stroke-width:1;stroke-linecap:butt"
     onmouseout="style.opacity = 1;"
     onmouseover="style.opacity = 0.5;"
     id="140"
     class="st11"
     d="m 229.54,541.862 4.74,2.54 0.6,3.16 -3.65,1.45 -0.77,2.5 2.14,3.93 -0.64,1.34 -2.06,1.1 -5.05,0.18 -5.73,-2.11 -8.1,1.52 -0.26,1.35 -4.24,-7.71 2.4,-7.46 -0.69,-5.86 16.93,-1.64 z">
<title
   id="title140">Frankenthal     absolute Anzahl: 9 relativ zur Einwohnerzahl: 0,98 %
</title>
</path><path
     inkscape:connector-curvature="0"
     style="fill:#6e1212;fill-opacity:1;stroke:#000000;stroke-width:1;stroke-linecap:butt"
     onmouseout="style.opacity = 1;"
     onmouseover="style.opacity = 0.5;"
     id="150"
     class="st5"
     d="m 338.096,478.548 0.77,0.56 -1.24,1.73 2.11,2.18 -1.16,1.56 0.86,0.33 -2.15,-0.22 0.8,0.73 -4.29,2.61 -3.8,10.58 5.82,2.38 -2.53,6.39 1.35,4.45 1.6,-0.02 0.44,1.3 3.87,-0.04 1.24,-1.7 2.09,0.47 1.2,-2.41 1.56,-0.05 0.41,-2.03 5.86,1.52 -1.79,11.36 -2.21,5.03 -2.31,0.77 -0.96,3.6 -6.85,-1.72 -2.37,5.75 -2.69,-0.86 0.37,2.53 -3.52,3.07 -1.79,-1.13 -6.06,-0.25 0.78,-5.24 -1.18,-0.71 -0.89,0.74 -4.3,-0.84 -5.18,-2.66 -0.23,2.97 -2.06,-4.44 -2.8,0.83 -3.53,-2.6 1.66,-3.23 -1.21,-0.63 -1.07,-3.5 -6.48,-0.25 -1.25,2.85 -2.58,-1.15 0.84,-4.37 2.25,-0.33 0.02,-2.58 5.82,-3.52 0.83,-2.08 -0.01,-1.65 -1.74,1.11 0.54,-1.91 -3.94,0.21 0.4,-1.25 -2.34,-0.15 -0.14,-1.87 2.06,-5.13 3.72,0.58 0.04,-2.56 0.94,0.14 0.59,-2.67 0.88,0.51 -1.56,-1.62 0.35,-3.23 -1.93,-1.01 1.1,-2.58 -0.54,-1.82 2.58,0.48 0.44,-2.42 6.46,1.46 0.46,-2.2 2.4,0.56 -2.05,-3.28 0.66,-0.96 4.75,0.45 1.57,-1.04 3.03,-0.22 -1.5,1.67 1.69,0.9 2.58,0.22 0.3,-1.22 1.67,-0.02 1.56,1.22 -0.83,0.95 0.69,-0.34 0.18,-0.72 1.71,0.18 0.39,1.53 5.4,0.73 0.06,1.29 1.35,0.05 z">
<title
   id="title150">Göda     absolute Anzahl: 21 relativ zur Einwohnerzahl: 0,82 %
</title>
</path><path
     inkscape:connector-curvature="0"
     style="fill:#6e1212;fill-opacity:1;stroke:#000000;stroke-width:1;stroke-linecap:butt"
     onmouseout="style.opacity = 1;"
     onmouseover="style.opacity = 0.5;"
     id="160"
     class="st5"
     d="m 404.813,429.771 -0.1,-7.25 -2.77,-2.36 -0.41,-2.26 3.11,-3.38 3.09,-13.09 7.79,-4.15 3.95,-0.75 -0.27,3.43 2.82,2.2 -0.41,-4.56 0.79,-0.11 3.54,7.4 2.32,0.34 1.92,2.38 1.03,-1.59 3.49,-0.68 0.29,1 2.19,-0.15 -0.05,1.14 -2.28,0.67 0.8,16.62 7.01,0.01 -0.92,9.13 3.86,0.02 3.03,-2.77 1.47,2.12 -4.17,4.68 -2.97,0.37 0.25,0.95 -1.66,0.48 -1.17,2.21 -2.51,-0.06 2.14,3.38 -2.31,10.02 -2.06,2.07 -4.94,-0.95 -0.38,1.27 -1.07,-0.14 0.12,-1.37 -1.35,-0.54 0.86,-2.04 -3,-0.87 -1.44,2.7 -2.73,1.79 -1.11,-0.38 -1.38,3.18 -1.71,1.01 -9.45,-1.65 -2.13,2.8 0.99,1.06 -1.67,0.24 -0.68,2.37 0.85,1.52 -0.74,-0.16 -0.35,2.66 -2.9,-0.74 0.52,2.1 -1.88,0.71 0.23,2.31 1.22,-0.01 -1.49,1.49 0.12,2.56 -6.76,-6.63 -0.13,2.46 -1.66,0.83 -1.91,4.28 -4.6,0.35 -1.63,5.69 -4.36,-1.86 3.38,-1.51 0.02,-1.64 0.93,-0.04 -1.61,-1.81 -1.64,4.25 -2.53,0.76 -7.56,-1.63 -1.3,-7.86 3.75,-0.02 2.48,2.95 5.5,-1.04 1.13,-4.23 1.02,-1.44 1.26,0.3 0.89,-3.57 1.54,0.3 2.13,-10.11 2.08,0.18 1,-1.71 2.21,-0.73 -1.45,-2.79 -2.19,-0.1 3.2,-1.76 -1.47,-2.91 -1.74,-1.17 -4.35,-0.17 0.03,-1.68 1.14,-0.62 -0.73,-2.03 2.27,0.28 2.44,-1.68 -0.02,-3.67 1.34,-1.75 5.11,-0.86 0.12,1.89 z">
<title
   id="title160">Großdubrau     absolute Anzahl: 33 relativ zur Einwohnerzahl: 0,78 %
</title>
</path><path
     inkscape:connector-curvature="0"
     style="fill:#961212;fill-opacity:1;stroke:#000000;stroke-width:1;stroke-linecap:butt"
     onmouseout="style.opacity = 1;"
     onmouseover="style.opacity = 0.5;"
     id="170"
     class="st12"
     d="m 194.108,585.173 -2.28,0.57 -2.82,-0.14 -4.6,-4.21 -3.56,-1.03 -0.91,-2.02 -1.3,-0.17 -0.83,-4.27 0.74,-1.87 -2.84,1.79 -0.86,-0.82 1.93,-2.35 -2.52,-2.73 2.23,-3.15 -0.33,-1.84 -5.21,-2.89 -0.92,-2.61 1.66,-0.75 0.29,0.9 5.69,1.34 5.72,-2.43 1.57,-4.26 3.69,0.19 4.15,1.83 6.57,0.35 7.15,-3.49 4.24,7.71 0.26,-1.35 8.1,-1.52 5.73,2.11 5.05,-0.18 2.06,-1.11 0.91,0.83 -1.48,1.06 0.18,8.6 0.93,1.07 -4.2,2 0.91,2.34 3.16,1.58 -0.01,6.52 1.78,1.28 -2.71,2.06 -0.16,2.3 -3.48,1.77 -2.68,2.94 -1.6,-0.97 -3.55,4.97 -2.52,0.5 -6.15,-3.06 -1.55,2.34 -1.49,0.37 -1.65,-1.28 -3.79,-0.27 -2.8,1.07 z">
<title
   id="title170">Großharthau     absolute Anzahl: 9 relativ zur Einwohnerzahl: 0,25 %
</title>
</path><path
     inkscape:connector-curvature="0"
     style="fill:#6e1212;fill-opacity:1;stroke:#000000;stroke-width:1;stroke-linecap:butt"
     onmouseout="style.opacity = 1;"
     onmouseover="style.opacity = 0.5;"
     id="180"
     class="st4"
     d="m 144.01,469.904 3.32,2.62 0.9,5.11 2.07,-0.42 1.74,5.99 4.99,3.77 2.87,8.25 -1.6,5.36 -4.42,4.69 -0.45,2.07 -0.84,-0.78 0.59,-2.13 -2.52,-1.75 -1.79,-5.58 -5.26,5.3 -6.37,-1.85 -1.99,0.47 -3.79,-3.33 -2.39,1.14 -3.18,-2.67 3.37,-0.8 2.05,-2.78 -2.28,-0.72 -1.93,1.29 -4.16,-1.11 -2.54,0.57 0.28,-1.72 10.09,-5.18 0.2,-6.55 6.12,-10.12 2.69,0.79 1.9,-1.1 z">
<title
   id="title180">Großnaundorf     absolute Anzahl: 2 relativ zur Einwohnerzahl: 0,94 %
</title>
</path><path
     inkscape:connector-curvature="0"
     style="fill:#821212;fill-opacity:1;stroke:#000000;stroke-width:1;stroke-linecap:butt"
     onmouseout="style.opacity = 1;"
     onmouseover="style.opacity = 0.5;"
     id="190"
     class="st4"
     d="m 393.746,541.417 1.49,-3.02 2.71,-0.63 0.33,-2.39 3.89,4.26 3.2,-0.75 1.32,1.67 1.2,9.47 -3.49,0.64 0.01,2.78 1.54,0.29 2.03,7.75 2.71,-0.91 0.34,1.29 -1.41,1.53 -3.88,0.39 1.27,4.75 -0.76,1.22 -5.95,-0.17 -3.31,1.09 -0.29,1.83 -2.51,-0.92 -0.54,-1.5 -2.91,-0.56 -1.44,-2.54 -13.08,0.2 3.53,-8.94 0.08,-3.36 1.09,0.41 2.12,-3.38 -1.96,-3.99 -2.42,-0.06 -0.57,-2.27 3.04,-3.32 2.68,-1.03 -0.28,-3.97 4.72,-0.8 0.24,-1.23 1.38,0.16 1.31,3.22 -0.89,2.64 0.74,-0.92 z">
<title
   id="title190">Großpostwitz     absolute Anzahl: 13 relativ zur Einwohnerzahl: 0,66 %
</title>
</path><path
     inkscape:connector-curvature="0"
     style="fill:#961212;fill-opacity:1;stroke:#000000;stroke-width:1;stroke-linecap:butt"
     onmouseout="style.opacity = 1;"
     onmouseover="style.opacity = 0.5;"
     id="200"
     class="st11"
     d="m 206.04,521.658 2.23,-2.52 -0.27,-1.82 0.54,0.9 5.48,-1.31 0.62,1.38 3.82,-2.4 0.85,2.88 -1,2.08 4.45,-0.07 1.06,6.85 -0.89,5.48 2.23,3.05 -16.93,1.63 0.69,5.86 -2.4,7.46 -7.16,3.5 -6.56,-0.36 -4.16,-1.82 -3.68,-0.19 -1.57,4.25 -5.72,2.44 -5.69,-1.35 -0.29,-0.89 -3.76,2.19 -2.35,-1.11 -7.29,1.5 -12.15,-7.3 1.72,-1.14 -1.56,-1.21 -0.38,-4.74 4.93,-2.77 1.2,-0.17 1.11,1.43 -0.08,-2.32 6.7,-3.01 0.08,-3.08 2.1,-0.01 1.35,-2 -0.56,-2.56 -2.83,-0.95 6.54,-9.7 2.8,1.57 6.74,-1.73 3.42,3.13 4.31,-1.8 2.73,1.08 3.2,3.35 5.26,-1.41 3.26,1.85 z">
<title
   id="title200">Großröhrsdorf     absolute Anzahl: 33 relativ zur Einwohnerzahl: 0,50 %
</title>
</path><path
     inkscape:connector-curvature="0"
     style="fill:#821212;fill-opacity:1;stroke:#000000;stroke-width:1;stroke-linecap:butt"
     onmouseout="style.opacity = 1;"
     onmouseover="style.opacity = 0.5;"
     id="220"
     class="st6"
     d="m 167.168,446.707 3.7,-0.46 6.51,1.7 15.5,1.5 3.71,4.61 -0.07,1.24 6.41,2.22 3.25,2.67 -0.59,5.67 -1.68,0.41 -0.16,1.63 1.8,0.51 2.4,-0.99 5.99,3.5 0.06,3.14 3.01,3 -1.08,15.47 2.1,4.26 -5.33,-2.66 -4.43,-0.17 -4.01,-6.31 -4.62,0.98 -0.33,-1.76 1.29,-1.9 -2.4,-3.02 -9.29,0.92 -2.84,-9.35 -10.28,0.9 -0.72,0.93 -2.42,0.2 0.92,-2.53 -1.26,-3.81 1.35,-0.59 -3.03,-4.81 -5.63,1.13 -0.86,-2.92 0.04,1.4 -9.4,1.45 -9.75,5.84 -1.01,-0.8 0.77,-1.05 -0.83,-5.07 -2.5,0.92 -3.19,-4.19 0.52,-1.84 2.32,-0.22 -1.38,-6.55 0.6,-2.83 -4.07,-3.74 1.13,-1.66 5.13,0.25 5.44,-2.71 7.34,4.92 z">
<title
   id="title220">Haselbachtal     absolute Anzahl: 15 relativ zur Einwohnerzahl: 0,57 %
</title>
</path><path
     inkscape:connector-curvature="0"
     style="fill:#821212;fill-opacity:1;stroke:#000000;stroke-width:1;stroke-linecap:butt"
     onmouseout="style.opacity = 1;"
     onmouseover="style.opacity = 0.5;"
     id="230"
     class="st5"
     d="m 444.554,520.702 4.7,0.59 1.53,-3.69 0.89,0.97 2.48,-0.44 1.07,-3.09 1.35,0.69 4.38,-3.92 1.35,-4.01 0.89,0.37 0.31,3.01 4.19,-1.74 3.43,3.59 -2.12,-0.04 1.58,2.24 -2.7,3.37 0.16,2.43 1.41,1.53 -0.68,3.35 4.77,0.74 1.84,-2.17 0.2,-3.19 1.31,0.32 1.15,4.43 4.5,0.13 -1.16,5.05 0.23,5.93 2.19,0.16 0.83,4.24 1.95,-1.51 0.26,0.86 -0.8,-0.11 -0.13,4.37 -3,0.33 -0.4,1.73 2.3,2.39 2.91,-0.67 -1.06,1.67 -1.98,-0.73 -2.53,2.57 -2.91,-0.19 -2.67,1.81 -3.97,-0.73 -0.85,-1.2 -3.17,4.4 0.18,1.28 3.19,0.5 0.25,1.92 3.2,0.8 -0.08,1.2 -6.77,0.56 -5.36,-2.37 -5.14,-0.39 -1.3,1.08 -2.67,-1.04 -1.33,4.63 -4.89,-1.49 -3.76,0.72 -8.04,-1.12 -2.88,-2.82 -4.98,0.99 -0.17,-14.66 2.43,-8.41 1.53,0.11 -1.64,-5.94 7.04,-1.37 3.57,-7.37 z">
<title
   id="title230">Hochkirch     absolute Anzahl: 8 relativ zur Einwohnerzahl: 0,71 %
</title>
</path><path
     inkscape:connector-curvature="0"
     style="fill:#821212;fill-opacity:1;stroke:#000000;stroke-width:1;stroke-linecap:butt"
     onmouseout="style.opacity = 1;"
     onmouseover="style.opacity = 0.5;"
     id="240"
     class="st4"
     d="m 315.804,287.989 0.04,1.51 11.35,-0.31 0.36,1.35 1.48,-0.86 7.87,1.62 0.64,0.86 -2.54,1.07 5.15,8.31 -6.19,0.13 0.11,4.94 -2.88,-0.1 0.29,8.37 10.16,-1.99 -2.47,4.28 0.29,2.87 3.99,1.64 -1.24,1.64 -0.08,3.48 -6.15,8.55 4.64,1.26 4.82,-0.87 1.27,0.77 -0.92,-4.29 8.58,1.13 -10.02,10.91 -2.25,3.97 -4.9,4.4 -4.59,-1.34 -0.6,-3.04 -3.55,-0.55 0.57,-0.82 -1.69,-1.02 0.87,-5.59 -3,-4 0.97,-2.36 -2.51,-2.15 v -6.54 l -6.08,3.03 -3.18,-2.45 -4.35,1.78 -1.84,-3.72 -6.32,-2.02 -5.44,0.95 0.52,7.25 -3.86,-0.1 0.06,4.92 -2.71,3.35 -3.47,0.16 0.08,-2.05 -7.64,-6.42 -1.37,1.75 -1.12,-0.15 0.13,-1.6 h -6.05 l -1.87,1.48 -3.95,-0.01 -1.7,2.53 -2.92,0.66 -3.16,3.54 -1.21,-1.32 -7.77,1.97 -5.63,5.91 -2.25,-0.71 -10.37,0.88 -3.98,-0.69 -2.84,-2 -1.36,-3.76 -2.42,1.14 -12.7,-8.8 -2.35,-1.31 -0.42,-1.45 4.77,-0.1 4.8,-4.57 0.57,1.37 2.27,-0.58 -0.57,-1.52 -1.75,-0.28 2.82,-4.39 3.73,-2.16 1.99,1.88 -0.3,-2.73 4.15,-2.37 -2.89,-6.8 10.69,-5.57 -1.44,-0.02 0.55,-1.36 2,-0.15 -0.06,4.19 2.25,0.3 0.28,-3.56 1.79,0.23 2.05,-4.47 3.65,4.48 2.27,-4.34 5.96,4.93 -1.1,2.59 2.56,-0.75 2.07,2.21 0.38,-1.58 1.3,-0.38 1.87,1.68 2.2,-0.33 0.05,-1.19 2.71,0.37 1.69,-6.18 6.01,0.04 2.06,-2.28 3.31,1.76 0.58,-2.78 7.97,6.36 0.26,1.71 3.74,0.74 5.06,-2.79 5.32,-7.33 3.83,0.5 4.45,-2.98 -1.08,-0.02 1.8,-3.29 z">
<title
   id="title240">Hoyerswerda     absolute Anzahl: 170 relativ zur Einwohnerzahl: 0,61 %
</title>
</path><path
     inkscape:connector-curvature="0"
     style="fill:#671212;fill-opacity:1;stroke:#000000;stroke-width:1;stroke-linecap:butt"
     onmouseout="style.opacity = 1;"
     onmouseover="style.opacity = 0.5;"
     id="250"
     class="st5"
     d="m 250.203,413.319 5.25,8.65 1.17,9.52 -6.09,3.27 -3.63,0.09 0.09,1.46 -1.92,0.65 -1.41,-3.73 -4.25,0.5 -2.98,5.3 -2.67,0.09 0.83,4.5 4.65,5.24 0.04,2.88 2.73,0.53 -0.83,1.9 1.89,1.1 -0.41,3.48 -2.41,0.94 -1.94,-1.54 -0.17,1.55 -1.99,0.05 -4.56,-2.85 -0.94,0.47 1.02,1.84 -1.98,-1.6 -5.95,2.4 -2.24,1.48 -0.5,4.97 -2.07,4.49 -4.99,-0.03 -5.99,-3.5 -2.4,0.99 -1.8,-0.51 0.15,-1.63 1.68,-0.41 0.6,-5.68 -3.26,-2.66 -6.41,-2.22 0.07,-1.24 -3.71,-4.61 -15.49,-1.5 -6.51,-1.7 -3.71,0.46 4.75,-11.2 2.72,-9.74 -2.99,-1.96 -1.74,-3.18 -1.1,-7.64 4.54,-2.58 -3.58,-3.65 14.32,-9.97 5.33,-0.78 2.52,-2.56 1.13,-6.63 3.1,-3.94 9.31,4.52 1.29,-0.06 1.93,-2.31 8.49,-0.85 3.29,1.37 1.6,-3.4 1.53,1.39 -0.68,1.31 1.08,0.27 0.88,3.35 1.31,0.63 -0.28,2.61 5.01,2.04 3.74,-1.05 -0.19,-2.54 1.32,-1.03 4.39,9.69 4.63,4.7 z">
<title
   id="title250">Kamenz     absolute Anzahl: 143 relativ zur Einwohnerzahl: 1,02 %
</title>
</path><path
     inkscape:connector-curvature="0"
     style="fill:#671212;fill-opacity:1;stroke:#000000;stroke-width:1;stroke-linecap:butt"
     onmouseout="style.opacity = 1;"
     onmouseover="style.opacity = 0.5;"
     id="270"
     class="st5"
     d="m 93.9852,349.795 10.11,0.38 0.13,1.81 2.6,2.51 7.4,1.36 4.53,13.66 5.49,-2.92 1.4,5.28 -1.55,3.14 1.38,6.32 7.98,2.95 3.82,14.64 -4.29,-0.5 -13.09,3.61 1.36,2.83 2.4,0.36 4.15,3.01 -6.84,5.69 -4.62,1.23 -0.21,1.52 1.8,0.45 0.22,3.4 2.98,6.21 2.73,-0.04 0.79,6.81 3.82,-0.24 1.24,3.1 -2,1.12 -0.75,1.97 10.42,4.23 -1.13,1.66 4.07,3.73 -0.59,2.84 1.37,6.54 -2.32,0.22 -0.52,1.84 3.19,4.19 2.5,-0.92 0.83,5.07 -0.77,1.05 -2.33,-1.17 -1.91,1.1 -2.68,-0.8 -1.85,0.2 -1.38,-1.94 -2.67,0.39 -3.76,-2.76 -1.97,-3.1 0.1,-3.25 -5.61,-0.81 0.34,-5.65 -7.73,-0.89 1.53,-2.36 0.29,-3.96 -0.8,-0.49 -3,0.15 -9.09,6.4 1.71,-4.83 -0.53,-2 5.47,-3.99 -5.91,0.81 0.39,-6.09 -1.1,-1.58 -7.16,-0.16 -2.85,2.29 -2.27,-0.01 -7.73,-3.97 -7.53,-13.83 -1.12,-3.97 -2.32,-0.88 1.75,-1.61 1.45,-4.06 7.35,-8.04 4.21,-10.91 -0.23,-6 14.98,3.5 0.39,-3.03 -1.57,-1.55 0.55,-2.56 -2.32,-3.21 0.39,-3.98 -1.52,-4.01 1.21,-1.03 -1.69,-0.74 -0.48,-2.62 -5.47,-4.85 0.54,-3.92 0.78,-0.97 -0.97,-4.68 z">
<title
   id="title270">Königsbrück     absolute Anzahl: 32 relativ zur Einwohnerzahl: 1,08 %
</title>
</path><path
     inkscape:connector-curvature="0"
     style="fill:#821212;fill-opacity:1;stroke:#000000;stroke-width:1;stroke-linecap:butt"
     onmouseout="style.opacity = 1;"
     onmouseover="style.opacity = 0.5;"
     id="280"
     class="st5"
     d="m 300.868,386.676 -0.09,-1.01 9.71,-3.86 7.37,-4.42 7.69,-0.67 -1.49,-4.94 9.16,-3.1 9.4,1.09 1.76,4.4 -0.46,5.48 -2.31,5.81 4.94,1.21 0.54,10.25 0.98,1.8 3.8,2.09 0.87,3.38 9.74,1.05 -1.95,8.25 7.04,1.23 2.87,-3.95 2.1,-1.21 2.92,0.11 0.98,-2.99 1.65,-0.53 -1.21,-1.66 -0.3,-5.47 3.58,2.93 -1.62,2.36 0.01,2.15 2.48,8.15 -3.53,3.96 -1.24,4.72 -13.06,-3.58 -10.22,-1.68 -2.86,6.06 -2.5,-0.92 -2.64,-4 -7,-0.07 0.36,-1.68 -6.78,0.48 -1.76,1.69 -2.57,-0.58 -11.49,2.12 -0.08,-1.41 -3.17,0.33 -2.18,2.73 1.86,1.21 0.22,1.62 -1.52,0.26 0.34,-1.12 -3.87,-0.62 -0.13,-1.99 h -4.95 l -0.06,-5.03 2.46,-9.42 0.18,-4.93 -0.46,-7.36 z">
<title
   id="title280">Königswartha     absolute Anzahl: 30 relativ zur Einwohnerzahl: 0,72 %
</title>
</path><path
     inkscape:connector-curvature="0"
     style="fill:#671212;fill-opacity:1;stroke:#000000;stroke-width:1;stroke-linecap:butt"
     onmouseout="style.opacity = 1;"
     onmouseover="style.opacity = 0.5;"
     id="290"
     class="st13"
     d="m 409.241,521.756 -3.48,-2.62 3.54,-0.44 -0.36,-1.8 -3.41,-2.63 -3.57,0.26 3.27,-0.38 0.63,-2.39 -1.8,-1.66 4.61,0.37 0.47,-2.24 1.26,0.06 0.4,-1.39 2.38,0.41 -0.27,-4.52 -2.08,-1.16 -1.09,-3.72 3.76,-4.43 -2.38,-1.98 0.21,-1.04 -0.67,-1.51 2.96,0.54 1.37,-2.57 2.9,0.61 0.36,-1.67 1.03,0.28 -0.29,0.98 2.65,0.24 0.71,1.7 2.86,1.69 5.44,1.04 3.86,-2.35 0.9,-2.06 4.14,-1.67 1.48,3.17 -0.95,0.54 3.15,1.39 0.69,2.23 0.2,2.2 -2.09,1.75 0.83,7.24 -0.98,0.21 -0.32,4.56 -2.48,1.22 1.66,-0.33 -0.38,2.66 -1.06,-0.13 -0.23,1.21 -1.64,-0.32 0.84,4.38 -2.17,4.01 0.02,1.3 1.85,1.35 3,-0.99 -3.57,7.37 -7.05,1.38 1.65,5.93 -1.54,-0.11 -2.42,8.41 0.17,14.67 -3.3,0.09 -5.32,-1.76 0.11,1.13 -3.61,1.86 -5.41,-1.75 -2.71,0.91 -2.02,-7.75 -1.54,-0.29 -0.02,-2.78 3.5,-0.64 -1.21,-9.47 -1.32,-1.67 -3.2,0.75 -3.89,-4.26 -0.32,2.39 -2.71,0.63 -1.5,3.02 -2.72,-1.07 -0.73,0.92 0.89,-2.64 -1.32,-3.22 -1.37,-0.16 -0.09,-1.76 1.04,0.13 -0.77,-3.17 2.9,0.47 1.08,-2.02 1.52,0.52 0.92,-1.55 6.01,-0.04 3.77,-3.87 z">
<title
   id="title290">Kubschütz     absolute Anzahl: 19 relativ zur Einwohnerzahl: 1,19 %
</title>
</path><path
     inkscape:connector-curvature="0"
     style="fill:#671212;fill-opacity:1;stroke:#000000;stroke-width:1;stroke-linecap:butt"
     onmouseout="style.opacity = 1;"
     onmouseover="style.opacity = 0.5;"
     id="300"
     class="st4"
     d="m 102.6807,444.134 0.52,2 -1.71,4.83 9.09,-6.4 3.01,-0.15 0.79,0.49 -0.28,3.96 -1.54,2.37 7.73,0.88 -0.33,5.65 5.6,0.81 -0.09,3.26 1.96,3.09 3.76,2.76 2.67,-0.38 1.38,1.93 1.85,-0.19 -6.12,10.12 -0.2,6.55 -10.1,5.18 -0.27,1.72 -4.91,-0.54 -5.01,2.82 -4.54,0.44 -5,2.7 -2.42,-0.78 -1.38,-0.91 -0.03,-2.15 -1.77,0.66 -2.85,-1.63 -2.26,1.98 -1.97,-0.11 0.55,-4.59 -3.3,7.04 -2.53,-0.47 -3.19,1.38 -11.25,-3.3 -2.7,-3.99 -2.39,0.67 -4.21,-2.83 1.54,-4.05 -7.1,-1.85 -2.57,-2.66 10.05,-1.76 1.64,-9.41 0.3,1.64 5.72,3.05 1.73,-0.2 0.81,-1.59 0.24,0.69 -0.23,-3.42 5.68,0.07 -0.87,-1.69 0.91,-2.75 -1.6,-1.59 -4.42,0.32 0.64,-0.84 -1.61,-1.31 0.09,-2.11 1.48,-1.94 -2.64,-1.64 0.97,-2.64 0.18,2.07 0.27,-1.97 4.72,2.41 -0.41,1.15 0.68,-1.04 2.92,-0.34 -2.67,-8.85 2.83,-1.71 0.4,0.66 1.49,-2.03 3.24,0.93 0.37,-0.72 0.32,-3.25 -2.07,0.86 -5.57,-2.24 -3.36,-3.1 5.59,-4.02 -4.14,-2.42 5.37,-1.01 1.35,2.73 7.73,3.97 2.27,0.01 2.86,-2.29 7.15,0.16 1.11,1.58 -0.4,6.09 5.92,-0.81 z">
<title
   id="title300">Laußnitz     absolute Anzahl: 13 relativ zur Einwohnerzahl: 1,03 %
</title>
</path><path
     inkscape:connector-curvature="0"
     style="fill:#961212;fill-opacity:1;stroke:#000000;stroke-width:1;stroke-linecap:butt"
     onmouseout="style.opacity = 1;"
     onmouseover="style.opacity = 0.5;"
     id="310"
     class="st11"
     d="m 251.623,271.105 4.22,0.31 2.82,1.97 0.71,-0.88 1.23,1.07 -0.99,1.07 1.37,-0.59 -1.21,3.24 3.35,1.39 -1.16,0.83 -0.66,-0.83 -0.26,2.13 -3.3,-0.89 -1,3.74 -1.04,0.5 0.35,2.73 -0.99,1.93 -0.9,-0.5 -2.35,6.14 -2.37,2.17 -1.69,-1.2 -2.27,4.34 -3.65,-4.48 -2.05,4.47 -1.79,-0.23 -0.28,3.57 -2.25,-0.3 0.06,-4.19 -2,0.15 -0.55,1.36 1.44,0.01 -10.69,5.58 2.89,6.79 -4.15,2.37 0.3,2.74 -1.99,-1.89 -3.73,2.16 -2.82,4.4 1.75,0.27 0.57,1.52 -2.27,0.58 -0.57,-1.37 -4.8,4.57 -4.77,0.1 0.42,1.45 2.35,1.32 -1.57,1.91 0.58,3.72 1.61,0.32 2.87,-1.84 -1.03,4.99 -4.86,-2.76 -2.9,-3.58 -5.78,-2.89 -1.16,-1.81 -1.27,-11.01 -2.51,-3.07 4,0.3 -0.26,-1.46 -1.08,-2.61 -3.17,-1.12 3.32,-3.95 9.33,-4.47 -4.88,-4.86 1.41,-7.32 -9.46,-8.59 -1.36,-2.4 2.9,-4.23 16.44,6.33 -0.15,2.52 1.63,2.3 2.61,0.08 1.31,1.54 1.66,-0.81 1.06,1.1 4.72,0.31 1.47,-9.7 3.02,1.8 4.87,0.43 5.18,-5.18 3.73,1.29 -0.17,-4.2 6.35,0.7 1.11,-1.41 -0.87,-1.27 1.84,-0.56 z">
<title
   id="title310">Lauta     absolute Anzahl: 24 relativ zur Einwohnerzahl: 0,32 %
</title>
</path><path
     inkscape:connector-curvature="0"
     style="fill:#961212;fill-opacity:1;stroke:#000000;stroke-width:1;stroke-linecap:butt"
     onmouseout="style.opacity = 1;"
     onmouseover="style.opacity = 0.5;"
     id="320"
     class="st7"
     d="m 137.18,524.885 -2.76,-0.75 -1.19,-3.45 0.22,-5.1 1.25,-1.73 -1.28,-1.29 2.78,-4.64 -0.95,-6.9 1.99,-0.47 6.37,1.85 5.26,-5.3 1.79,5.58 2.52,1.75 -0.59,2.13 0.84,0.78 0.45,-2.07 4.42,-4.69 1.6,-5.36 5.1,1 -1.27,4.33 0.95,2.09 -0.83,5.1 1.72,3.2 -1.02,0.42 1.91,8.37 -7.06,10.69 -4.3,-3.97 -0.98,0.75 -12.66,-6.93 z">
<title
   id="title320">Lichtenberg     absolute Anzahl: 6 relativ zur Einwohnerzahl: 0,49 %
</title>
</path><path
     inkscape:connector-curvature="0"
     style="fill:#671212;fill-opacity:1;stroke:#000000;stroke-width:1;stroke-linecap:butt"
     onmouseout="style.opacity = 1;"
     onmouseover="style.opacity = 0.5;"
     inkscape:label="#330"
     id="330"
     class="st1"
     d="m 333.223,368.672 -9.17,3.1 1.5,4.94 -7.69,0.67 -6.37,-15.27 -0.84,-10.71 0.85,-1.66 6.67,-1.32 -0.01,-1.67 2.06,-0.94 1.64,-0.34 0.91,2.78 2.6,-2.2 0.62,1.17 1.35,-1.37 1.69,1.03 -0.57,0.82 3.55,0.55 0.6,3.04 4.6,1.34 4.89,-4.41 2.25,-3.96 10.02,-10.91 -8.58,-1.13 0.92,4.29 -1.27,-0.77 -4.82,0.87 -4.64,-1.26 6.15,-8.55 0.08,-3.48 1.24,-1.64 -3.99,-1.64 -0.29,-2.87 2.47,-4.28 -10.16,1.99 -0.29,-8.37 2.88,0.09 -0.11,-4.93 6.19,-0.13 1.45,2.47 0.83,-1.74 4.33,-0.73 2.37,0.93 -0.15,2.1 4.45,-4.79 3.84,-1.78 1.61,0.14 0.77,3.14 7.55,0.47 -0.07,-2.46 3.8,0.02 -0.12,1.87 1.26,0.22 -1.51,8.49 6.33,2.76 16.59,0.09 1.67,-1.06 -0.21,-1.66 2.9,-3.19 3.47,5.66 3.32,0.82 1.32,2.27 4.56,2 3.73,-0.74 -1.89,14.3 6.54,1.53 -1.35,3.14 -3.52,1.68 -2.94,7.56 -1.95,1.63 -1.38,4.54 2.7,4.99 -0.2,2.35 -2.48,4.26 -1.19,-0.67 -1.41,2.97 -0.9,-0.14 -4.72,9.01 -2.48,7.99 2.59,-0.29 -2.79,2.28 -1.29,3.1 -7.01,1.57 -4.49,9.26 -2.45,3.72 -1.48,0.33 -3.57,-2.93 0.3,5.47 1.21,1.65 -1.65,0.53 -0.99,3 -2.91,-0.12 -2.1,1.21 -2.88,3.95 -7.03,-1.23 1.95,-8.25 -9.75,-1.05 -0.86,-3.37 -3.81,-2.1 -0.98,-1.79 -0.54,-10.26 -4.94,-1.21 2.31,-5.81 0.46,-5.47 -1.76,-4.41 z">
<title
   id="title330">Lohsa     absolute Anzahl: 34 relativ zur Einwohnerzahl: 1,03 %
</title>
</path><path
     inkscape:connector-curvature="0"
     style="fill:#821212;fill-opacity:1;stroke:#000000;stroke-width:1;stroke-linecap:butt"
     onmouseout="style.opacity = 1;"
     onmouseover="style.opacity = 0.5;"
     id="340"
     class="st4"
     d="m 450.109,433.134 -1.48,-2.13 -3.03,2.78 -3.86,-0.02 0.93,-9.13 -7.01,-0.01 -0.81,-16.62 2.29,-0.67 0.04,-1.15 -2.18,0.15 -0.29,-0.99 -3.5,0.68 -1.02,1.58 -1.93,-2.37 -2.31,-0.34 -3.55,-7.4 -0.79,0.11 -0.24,-1.4 1.36,-1.02 5.81,0.04 -1.18,-3.95 2.16,-0.93 -1.4,-1.46 1.59,-1.57 -1.16,-0.59 -0.45,-3.26 1.49,-0.61 0.47,-1.98 5.81,-0.87 2.02,-5.59 2.15,-1.2 -1.8,6.08 -4.02,7.23 0.85,0.65 1.01,-1.11 1.92,2.57 4.13,1.96 0.44,4.65 2.37,1.09 -0.35,1 1.92,1.1 3.5,6.48 2.44,-0.03 3.64,-5.81 1.96,1.54 3.93,0.47 -0.89,1.71 3.51,0.3 -3.43,2.44 -0.59,3.18 5.79,0.58 -2.16,3.81 5.97,-0.45 -0.89,4.3 -2.99,5.37 0.76,5.13 4.94,3.04 1.26,4.11 5.09,0.25 -2.11,10.17 -2.84,5.12 6.86,1.22 4.59,7.62 -0.49,5.75 -1.34,-0.22 -2.09,1.85 -4.03,8.28 -2.59,6.89 1.72,1.94 -1.42,-0.87 -1.68,3.35 -2.07,-0.31 -0.84,8.24 -2.83,2.84 -1.39,-0.43 -0.33,2.68 -2.63,1.28 -1.57,-0.46 -3.63,-2.26 -0.55,-2.68 -2.29,0.43 -0.56,-1.51 -1.04,0.36 -1.49,-1.34 -2.84,2.51 -0.88,-1.25 -4.07,-1.02 -0.69,-2.23 -3.15,-1.38 0.95,-0.55 -1.48,-3.17 -4.13,1.67 -0.91,2.06 -3.86,2.35 -5.44,-1.03 -2.86,-1.7 -0.71,-1.7 -2.65,-0.24 0.29,-0.98 -1.03,-0.28 -0.35,1.67 -2.91,-0.61 -1.36,2.57 -2.96,-0.54 0.66,1.51 -5.44,-1.05 0.76,-2.84 -2.9,-1.61 0.31,-1.29 -0.91,-0.37 1.07,-2.51 -1.95,-0.16 -2.12,-2.47 -0.12,-2.57 1.5,-1.48 -1.22,0.01 -0.24,-2.32 1.89,-0.71 -0.53,-2.1 2.91,0.75 0.34,-2.66 0.74,0.15 -0.84,-1.52 0.68,-2.36 1.67,-0.25 -0.99,-1.05 2.12,-2.8 9.46,1.65 1.7,-1.01 1.39,-3.18 1.1,0.37 2.73,-1.78 1.44,-2.7 3,0.87 -0.86,2.03 1.35,0.55 -0.12,1.37 1.07,0.14 0.39,-1.27 4.93,0.94 2.06,-2.06 2.31,-10.02 -2.14,-3.38 2.52,0.06 1.16,-2.22 1.67,-0.48 -0.25,-0.95 2.96,-0.36 z">
<title
   id="title340">Malschwitz     absolute Anzahl: 24 relativ zur Einwohnerzahl: 0,54 %
</title>
</path><path
     inkscape:connector-curvature="0"
     style="fill:#551212;fill-opacity:1;stroke:#000000;stroke-width:1;stroke-linecap:butt"
     onmouseout="style.opacity = 1;"
     onmouseover="style.opacity = 0.5;"
     id="350"
     class="st15"
     d="m 276.247,437.063 -6.8,-2.77 -4.38,1.32 -2.71,3.09 -0.14,4.27 1.29,0.93 -0.48,3.15 -1,-0.51 -0.29,1.31 0.44,3.4 2.63,-0.13 0.22,1.76 2.84,1.31 v 2.23 l -2.94,0.23 0.4,1.36 2.89,0.45 0.28,1.13 -0.5,1.84 -1.96,-0.35 0.84,4.24 -4.09,-0.53 0.02,1.2 h -3.32 l -0.66,-1.43 -4.03,1.5 -4.48,-2.56 -1.79,-0.45 0.68,-3.07 -6.13,-4.72 -1.9,-1.09 0.83,-1.9 -2.73,-0.54 -0.03,-2.87 -4.65,-5.24 -0.83,-4.51 2.67,-0.09 2.98,-5.29 4.25,-0.5 1.4,3.72 1.93,-0.64 -0.09,-1.46 3.63,-0.09 6.09,-3.28 -1.18,-9.52 -5.24,-8.64 7.76,-3.12 0.3,1.68 -1.82,1.5 0.05,1.53 1.65,0.69 2.85,-1.7 3.52,0.21 1.54,-1.05 0.51,-4.18 6.5,8.19 -0.51,7.21 2.75,5.33 z">
<title
   id="title350">Nebelschütz     absolute Anzahl: 13 relativ zur Einwohnerzahl: 1,79 %
</title>
</path><path
     inkscape:connector-curvature="0"
     style="fill:#6e1212;fill-opacity:1;stroke:#000000;stroke-width:1;stroke-linecap:butt"
     onmouseout="style.opacity = 1;"
     onmouseover="style.opacity = 0.5;"
     id="360"
     class="st13"
     d="m 315.741,421.121 11.49,-2.11 2.57,0.57 1.76,-1.69 6.77,-0.47 -0.35,1.68 7,0.06 2.64,4.01 2.5,0.91 2.85,-6.06 10.23,1.68 -7.09,16.3 -3.93,6.28 0.25,2.07 -1.09,0.5 0.49,5.11 -3.34,6.49 1.21,0.36 0.65,2.97 -1.46,8.14 -5.71,-1.23 0.73,2.47 -1.13,5.13 -4,-1.05 -0.69,5.3 -1.95,2.1 -1.36,-0.05 -0.05,-1.29 -5.41,-0.72 -0.39,-1.54 -1.7,-0.18 -0.19,0.72 -0.68,0.35 0.82,-0.96 -1.55,-1.22 -1.67,0.02 -0.3,1.23 -2.59,-0.22 -1.68,-0.9 1.5,-1.67 -3.04,0.22 -2.06,-0.66 0.26,-2.07 2.39,-0.17 1.87,-2.99 -0.75,-5.49 1.19,-0.36 0.46,-2.47 1.35,-0.08 -0.31,-0.97 3.3,-1.96 2.89,-3.49 -1.38,-0.18 -3.38,-5.34 -5.1,0.06 -0.39,-1.75 -3.71,-1.79 -1.08,2.3 -1.73,-0.21 -0.47,1.57 -3.92,-3.11 -0.45,1.17 -6.61,-0.14 -1.42,-2.61 0.58,-0.89 -2.93,-0.32 0.02,-4.61 3.05,-2.11 -0.19,-2.82 2.48,-2.39 0.44,-8.41 4.95,-0.01 0.13,1.99 3.88,0.62 -0.34,1.13 1.52,-0.26 -0.22,-1.63 -1.86,-1.2 2.18,-2.74 3.17,-0.33 z">
<title
   id="title360">Neschwitz     absolute Anzahl: 11 relativ zur Einwohnerzahl: 0,87 %
</title>
</path><path
     inkscape:connector-curvature="0"
     style="fill:#671212;fill-opacity:1;stroke:#000000;stroke-width:1;stroke-linecap:butt"
     onmouseout="style.opacity = 1;"
     onmouseover="style.opacity = 0.5;"
     id="370"
     class="st13"
     d="m 137.283,398.922 7.38,0.52 3.25,2.3 5.65,0.05 3.99,2.5 0.19,-1.7 2.86,2.31 2.76,0.29 -4.81,2.69 1.19,3.03 1.97,-2.33 5.16,-0.43 1.58,-1.67 1.31,0.28 3.58,3.65 -4.54,2.58 1.1,7.63 1.74,3.19 2.99,1.96 -2.72,9.74 -4.75,11.2 -11.87,-0.57 -7.33,-4.92 -5.44,2.71 -5.14,-0.25 -10.42,-4.22 0.76,-1.98 1.99,-1.12 -1.24,-3.1 -3.82,0.24 -0.79,-6.81 -2.73,0.05 -2.98,-6.22 -0.22,-3.4 -1.8,-0.45 0.21,-1.51 4.62,-1.24 6.84,-5.69 -4.15,-3.01 -2.4,-0.35 -1.35,-2.84 13.09,-3.61 z">
<title
   id="title370">Neukirch     absolute Anzahl: 21 relativ zur Einwohnerzahl: 1,05 %
</title>
</path><path
     inkscape:connector-curvature="0"
     style="fill:#821212;fill-opacity:1;stroke:#000000;stroke-width:1;stroke-linecap:butt"
     onmouseout="style.opacity = 1;"
     onmouseover="style.opacity = 0.5;"
     id="380"
     class="st11"
     d="m 329.712,567.141 10.95,0.47 0.18,9.78 -1.73,0.97 0.93,2.07 -0.6,3.9 1.21,1.3 -10.3,2.98 -0.65,1.78 -4.84,2.93 -0.72,2.65 3.07,4.57 -9.6,-0.69 -4.82,-3.33 -6.34,-1.07 -6.26,-7.65 0.4,-4.17 1.84,-0.31 -1.85,-2.78 0.13,-2.7 1.5,-2.24 0.2,-7.35 16.26,-4.5 z">
<title
   id="title380">Neukirch/Lausitz     absolute Anzahl: 28 relativ zur Einwohnerzahl: 0,66 %
</title>
</path><path
     inkscape:connector-curvature="0"
     style="fill:#961212;fill-opacity:1;stroke:#000000;stroke-width:1;stroke-linecap:butt"
     onmouseout="style.opacity = 1;"
     onmouseover="style.opacity = 0.5;"
     id="390"
     class="st5"
     d="m 373.673,537.25 -0.03,3.02 3.5,5.87 0.94,-0.54 0.57,2.27 2.42,0.06 1.96,3.98 -2.12,3.39 -1.09,-0.41 -0.08,3.36 -3.53,8.93 -0.77,-0.23 -1.9,-2.17 -4.19,-0.4 -0.52,-2.82 -7.51,-1.59 -0.98,-0.52 0.27,-2 -2.28,0.58 -1.03,-1.27 0.06,-6.5 3.47,-8.37 1.36,0.14 1.6,-3.17 1.28,1.27 0.89,-2.97 1.57,-0.41 -0.47,-1.46 1.25,-0.52 4.01,0.71 -0.56,1.41 z">
<title
   id="title390">Obergurig     absolute Anzahl: 5 relativ zur Einwohnerzahl: 0,48 %
</title>
</path><path
     inkscape:connector-curvature="0"
     style="fill:#ffb534;fill-opacity:1;stroke:#000000;stroke-width:1;stroke-linecap:butt"
     onmouseout="style.opacity = 1;"
     onmouseover="style.opacity = 0.5;"
     id="410"
     class="st11"
     d="m 219.354,508.702 0.55,3.77 -0.93,0.56 -3.18,0.57 0.43,1.62 -2.2,1.69 -5.49,1.31 -0.53,-0.9 0.26,1.81 -2.22,2.53 -7.86,4.12 -3.27,-1.85 -5.25,1.4 -3.2,-3.35 -2.73,-1.07 1.74,-3.58 -1.12,-1.28 -1.02,0.57 -2.09,-3.45 4.67,-2.42 -2.64,-0.52 1.03,-0.65 5.93,-0.72 0.72,-3.2 2.42,-1.89 0.03,-1.29 5.11,0.36 10.2,3.9 6.56,-4.2 3.87,-4.36 3.61,8.11 z">
<title
   id="title410">Ohorn     absolute Anzahl: 2 relativ zur Einwohnerzahl: 0,08 %
</title>
</path><path
     inkscape:connector-curvature="0"
     style="fill:#501212;fill-opacity:1;stroke:#000000;stroke-width:1;stroke-linecap:butt"
     onmouseout="style.opacity = 1;"
     onmouseover="style.opacity = 0.5;"
     id="420"
     class="st5"
     d="m 245.13,353.911 7.94,0.17 2.31,2.42 1.11,4.66 2.77,3.74 9.71,-5.11 6.63,-1.58 1.02,5.02 -1.41,6.32 -6.05,6.46 1.83,2.24 1.64,5.25 0.33,6.2 1.26,-0.72 1.82,2.42 0.61,8.3 -2.53,1.39 -2.52,-2.32 -1.49,0.57 -11.34,7.73 -0.81,3.13 -7.76,3.12 -5.39,-9.8 -4.62,-4.71 -4.4,-9.68 -1.32,1.03 0.2,2.54 -3.75,1.05 -5.01,-2.04 0.28,-2.61 -1.31,-0.63 -0.88,-3.35 -1.08,-0.27 0.68,-1.31 -1.53,-1.39 -1.6,3.4 -3.29,-1.38 -4.32,0.53 1.17,-1.57 2.43,0.46 -0.92,-6.29 3.51,-0.98 1.32,-1.95 1.9,0.19 0.71,-2.09 0.66,-10.27 -2.69,0.02 -3.03,-3.49 0.48,-2.54 5.2,0.26 -0.57,-2.34 3.63,-0.9 1.98,7.65 4.37,0.08 3.71,-3.48 0.96,3.16 5.79,8.71 2.98,-4.63 z">
<title
   id="title420">Oßling     absolute Anzahl: 67 relativ zur Einwohnerzahl: 3,23 %
</title>
</path><path
     inkscape:connector-curvature="0"
     style="fill:#961212;fill-opacity:1;stroke:#000000;stroke-width:1;stroke-linecap:butt"
     onmouseout="style.opacity = 1;"
     onmouseover="style.opacity = 0.5;"
     id="430"
     class="st4"
     d="m 64.1706,519.843 -4.11,-0.21 0.46,-1.08 -4.34,-5.47 -3.05,-0.6 -0.08,-3.29 2.09,-4.97 5.7,-4.49 5.82,-1.05 0.46,-3.1 1.42,-0.43 11.25,3.3 3.19,-1.38 2.53,0.47 3.3,-7.04 -0.55,4.59 1.97,0.11 2.26,-1.98 2.85,1.63 1.77,-0.66 0.03,2.16 1.38,0.9 2.42,0.78 1.47,-0.87 0.65,1.32 1.99,0.51 -3.43,7.59 -0.42,6.5 -3.72,0.75 -0.89,1.63 0.36,3.11 0.94,0.06 1.34,3.98 -1.66,-2.18 1.03,5.01 1.29,1.06 -5.08,3.78 -3.6,0.73 -2.1,4.56 -1.64,-0.74 -2.18,1.48 -1.24,-2.65 -4.82,-4.22 -4.3,-1.03 -0.98,-3.43 -1.05,-0.01 -1.79,-7.06 -1.5,-1.11 z">
<title
   id="title430">Ottendorf-Okrilla     absolute Anzahl: 40 relativ zur Einwohnerzahl: 0,46 %
</title>
</path><path
     inkscape:connector-curvature="0"
     style="fill:#501212;fill-opacity:1;stroke:#000000;stroke-width:1;stroke-linecap:butt"
     onmouseout="style.opacity = 1;"
     onmouseover="style.opacity = 0.5;"
     id="440"
     class="st15"
     d="m 269.858,485.238 0.13,2.19 -0.98,1.33 -0.35,-1.57 -0.27,2.15 -4.5,-0.81 0.33,5.27 3.17,-0.68 1.16,1.94 -0.71,1.49 1.23,1.02 -1.67,3.09 -5.9,2.51 -3.24,-0.56 -2.81,4.45 -5.3,2.27 -3.08,0.19 -4.03,-4.89 2.08,-4.79 2.74,-0.73 1.86,-4.71 2.31,-0.49 -0.33,-2.12 2.01,-1.38 -0.96,-4.75 -2.05,-0.17 1.04,-6.1 -0.92,-1.38 1.26,-1.77 2.19,0.98 0.46,-1.43 -3.59,-2.49 0.23,-3.44 -2.19,-1.3 1.14,-5.05 4.48,2.55 4.03,-1.49 0.66,1.42 h 3.32 l -0.02,-1.2 4.09,0.53 -0.84,-4.23 1.96,0.34 0.5,-1.83 1.41,0.47 -0.58,2.1 2.19,1.25 4.24,0.92 2.25,-1.6 -2.83,2.9 4.82,0.17 1.24,1.95 -1.39,1.53 1.08,-0.19 0.84,3.11 4.81,0.83 1.18,2.1 2.13,-0.85 -1.3,1.11 0.1,2.63 3.17,0.37 0.74,-1.65 1.58,0.11 0.09,1.8 6.67,1.11 -0.35,1.61 0.54,1.82 -1.1,2.58 1.93,1.01 -0.35,3.23 -3.48,-0.07 -4.38,-3.5 -4.58,3.91 0.93,-1.51 -2.36,-0.75 -0.98,-2.17 -1.89,0.47 0.06,-0.85 -3.11,-1.12 0.37,-4.03 -7.25,1.44 -0.2,1.35 -0.1,-1.28 -1.63,0.26 z">
<title
   id="title440">Panschwitz-Kuckau     absolute Anzahl: 29 relativ zur Einwohnerzahl: 2,25 %
</title>
</path><path
     inkscape:connector-curvature="0"
     style="fill:#821212;fill-opacity:1;stroke:#000000;stroke-width:1;stroke-linecap:butt"
     onmouseout="style.opacity = 1;"
     onmouseover="style.opacity = 0.5;"
     id="450"
     class="st4"
     d="m 165.003,496.223 -5.1,-1 -2.88,-8.25 -4.98,-3.76 -1.74,-6 -2.08,0.42 -0.9,-5.11 -2.29,-1.82 9.75,-5.84 9.39,-1.45 -0.04,-1.4 0.86,2.92 5.63,-1.13 3.03,4.82 -1.35,0.59 1.27,3.81 -0.93,2.52 2.42,-0.2 2.81,7.52 1.34,0.38 0.25,7.58 1.19,1.84 1.34,-0.26 0.9,2.01 3.38,0.32 4.12,2.08 1.38,1.77 -0.98,1.83 2.61,2.07 -0.03,1.29 -2.42,1.89 -0.72,3.2 -5.93,0.72 -1.03,0.65 2.64,0.52 -4.67,2.42 2.09,3.45 1.02,-0.57 1.13,1.28 -1.75,3.58 -4.31,1.79 -3.43,-3.13 -6.73,1.73 -2.81,-1.57 -1.9,-8.37 1.02,-0.41 -1.72,-3.2 0.83,-5.11 -0.96,-2.09 z">
<title
   id="title450">Pulsnitz     absolute Anzahl: 78 relativ zur Einwohnerzahl: 0,55 %
</title>
</path><path
     inkscape:connector-curvature="0"
     style="fill:#6e1212;fill-opacity:1;stroke:#000000;stroke-width:1;stroke-linecap:butt"
     onmouseout="style.opacity = 1;"
     onmouseover="style.opacity = 0.5;"
     id="460"
     class="st11"
     d="m 311.2,448.384 0.47,-1.57 1.73,0.21 1.08,-2.3 3.71,1.79 0.39,1.75 5.1,-0.06 3.38,5.34 1.38,0.17 -2.89,3.5 -3.3,1.96 0.31,0.97 -1.35,0.08 -0.46,2.46 -1.19,0.37 0.75,5.49 -1.87,2.99 -2.39,0.17 -0.26,2.07 2.06,0.66 -1.56,1.03 -8.87,-0.61 -0.56,-1.32 -1.75,-0.31 -0.15,-6.79 -6.19,-1.59 -1.98,-4.01 1.25,-1.05 -0.15,-4.63 2.52,-1.5 -0.19,-7.35 6.61,0.14 0.45,-1.18 z">
<title
   id="title460">Puschwitz     absolute Anzahl: 6 relativ zur Einwohnerzahl: 0,98 %
</title>
</path><path
     inkscape:connector-curvature="0"
     style="fill:#321212;fill-opacity:1;stroke:#000000;stroke-width:1;stroke-linecap:butt"
     onmouseout="style.opacity = 1;"
     onmouseover="style.opacity = 0.5;"
     id="470"
     class="st9"
     d="m 283.563,434.72 3.13,-0.81 0.91,1.96 -1.05,1.56 1.39,0.01 -0.19,7.29 1.64,0.15 -0.01,3.73 -1.34,-0.06 -0.24,3.2 1.37,0.72 0.03,1.98 -2.75,-1.04 -1.23,1.5 -0.31,-1.53 -0.61,1.67 -1.7,-0.04 0.02,1.81 -1.76,1.19 0.64,0.44 -2.61,0.8 0.5,2.44 -1.38,1.05 -2.26,1.6 -4.23,-0.92 -2.19,-1.24 0.58,-2.11 -1.41,-0.47 -0.29,-1.14 -2.88,-0.44 -0.41,-1.36 2.95,-0.24 v -2.23 l -2.84,-1.31 -0.23,-1.75 -2.62,0.13 -0.45,-3.4 0.29,-1.31 1,0.51 0.48,-3.15 -1.28,-0.94 0.14,-4.26 2.71,-3.09 4.38,-1.32 6.8,2.76 0.33,1.51 1.99,0.37 z">
<title
   id="title470">Räckelwitz     absolute Anzahl: 24 relativ zur Einwohnerzahl: 5,31 %
</title>
</path><path
     inkscape:connector-curvature="0"
     style="fill:#821212;fill-opacity:1;stroke:#000000;stroke-width:1;stroke-linecap:butt"
     onmouseout="style.opacity = 1;"
     onmouseover="style.opacity = 0.5;"
     id="480"
     class="st4"
     d="m 145.921,544.875 0.38,4.74 1.56,1.21 -1.72,1.14 -2.54,0.34 -1.87,5.09 -1.4,-1.51 -1.87,0.69 2.6,3.6 -0.27,2.6 -0.97,-0.03 -0.83,3.97 -2.04,0.57 -1.04,2.7 -3.74,3.09 3.86,6.03 2.43,-0.31 3.18,7.62 -1.45,4.74 2.24,0.81 0.83,1.73 -3.04,1.12 -1.04,-0.68 -2.58,4.34 1.13,1.65 0.61,-0.87 1.73,1.31 -0.59,0.8 -9.97,2.12 0.94,-1.26 -1.99,0.73 -1.09,-1.38 0.94,-0.98 -4.06,-3.15 -9.15,-1.27 -4.77,-2.16 3.53,-3.97 2.79,-1.3 0.42,-2 -2.81,-0.81 2.55,-2.08 -0.07,-1.49 2.61,-0.56 -0.37,1.58 -1.88,0.09 2.64,2.65 2.13,-1.53 -0.81,-2.32 0.82,-1.44 1.63,-0.21 0.78,-3.38 -1.1,-1.7 0.72,-0.47 -1.73,-1.5 -1.82,0.17 -1.64,-3.12 -2.12,-1.08 1.85,-3.52 -3.18,-2.43 0.21,-1.5 h -2.71 l -3.42,-8.16 -3.01,-2.15 -1.28,-2.96 -0.92,-4.71 9.22,-3.47 0.1,-4.31 0.79,2.17 2.98,-0.14 1.6,1.39 0.86,-1.31 2.5,1.28 0.45,-2.46 2.62,2.36 -0.38,1.21 3.2,3.92 0.3,-0.9 3.22,0.82 7.74,-1.95 3.27,2.38 2.03,-1.82 z">
<title
   id="title480">Radeberg     absolute Anzahl: 74 relativ zur Einwohnerzahl: 0,53 %
</title>
</path><path
     inkscape:connector-curvature="0"
     style="fill:#6e1212;fill-opacity:1;stroke:#000000;stroke-width:1;stroke-linecap:butt"
     onmouseout="style.opacity = 1;"
     onmouseover="style.opacity = 0.5;"
     id="490"
     class="st5"
     d="m 351.338,444.856 1.1,-0.5 -0.25,-2.07 3.92,-6.29 7.1,-16.29 13.05,3.58 1.24,-4.72 3.53,-3.96 -2.48,-8.15 -0.01,-2.15 1.62,-2.36 1.48,-0.32 2.44,-3.73 4.49,-9.26 7.02,-1.56 1.29,-3.11 2.79,-2.27 2.51,0.23 1.63,2.2 0.08,9.14 1.55,1.88 0.45,2.94 -1.05,-0.04 -0.45,1.4 2,2.25 1.34,-0.26 -3.08,13.09 -3.12,3.37 0.42,2.26 2.77,2.36 0.09,7.25 -7.33,5.89 -0.11,-1.9 -5.11,0.86 -1.35,1.76 0.03,3.67 -2.44,1.68 -2.27,-0.29 0.72,2.03 -1.13,0.62 -0.03,1.68 4.34,0.18 1.75,1.16 1.46,2.91 -3.2,1.77 2.2,0.1 1.44,2.79 -2.2,0.73 -1,1.71 -2.08,-0.18 -2.13,10.1 -1.54,-0.3 -0.9,3.57 -1.25,-0.3 -1.03,1.44 -1.12,4.24 -5.5,1.04 -2.49,-2.96 -3.75,0.02 1.31,7.86 -1.74,2.55 -4.61,-2.38 0.26,-1.68 -1.71,-0.26 -0.02,1.33 -1.03,0.06 0.53,-1.43 -0.98,0.61 0.24,-0.81 -3.1,-2.19 -2.98,1.65 -1.33,2.39 1.11,0.8 -0.61,1.48 -3.68,-2.22 1.27,-0.61 -0.84,-2.33 -0.72,1.05 -2.4,-2.07 -2.84,2.59 -1.76,-1.48 -2.33,1.78 -2.73,-1.93 0.69,-5.3 4,1.05 1.12,-5.13 -0.73,-2.48 5.71,1.24 1.46,-8.15 -0.65,-2.96 -1.21,-0.36 3.34,-6.5 z">
<title
   id="title490">Radibor     absolute Anzahl: 20 relativ zur Einwohnerzahl: 0,83 %
</title>
</path><path
     inkscape:connector-curvature="0"
     style="fill:#6e1212;fill-opacity:1;stroke:#000000;stroke-width:1;stroke-linecap:butt"
     onmouseout="style.opacity = 1;"
     onmouseover="style.opacity = 0.5;"
     id="500"
     class="st6"
     d="m 300.865,386.677 3.51,8.72 0.46,7.36 -0.17,4.93 -2.47,9.42 -0.38,13.45 -2.49,2.39 0.19,2.82 -3.04,2.11 0.03,2.48 -3.64,-0.66 -0.33,1.62 -2.04,-0.6 1.82,1.29 -2.14,-0.6 -0.79,3.47 -1.64,-0.16 0.2,-7.28 -1.39,-0.01 1.04,-1.56 -0.9,-1.96 -3.14,0.81 -4.99,4.22 -1.99,-0.37 -1.27,-8.95 -2.75,-5.34 0.51,-7.21 -6.5,-8.19 -0.51,4.18 -1.54,1.05 -3.52,-0.21 -2.85,1.71 -1.65,-0.7 -0.05,-1.53 1.82,-1.5 -0.3,-1.67 0.8,-3.14 11.34,-7.73 1.49,-0.56 2.52,2.32 2.54,-1.39 -0.62,-8.31 6,-1.71 5.6,-2.9 0.51,-1.3 1.64,0.94 z">
<title
   id="title500">Ralbitz-Rosenthal     absolute Anzahl: 9 relativ zur Einwohnerzahl: 0,94 %
</title>
</path><path
     inkscape:connector-curvature="0"
     style="fill:#821212;fill-opacity:1;stroke:#000000;stroke-width:1;stroke-linecap:butt"
     onmouseout="style.opacity = 1;"
     onmouseover="style.opacity = 0.5;"
     id="510"
     class="st11"
     d="m 218.453,515.892 -3.82,2.39 -0.61,-1.37 2.21,-1.68 -0.44,-1.63 3.18,-0.57 4.72,2.25 0.92,-1.61 0.99,0.65 1.71,-2.84 4.69,3.12 12.36,10.54 -0.32,2.76 2.54,0.51 -4.93,6.68 0.95,6.58 -8.33,2.73 -4.73,-2.54 -6.61,-8.75 0.88,-5.48 -1.05,-6.85 -4.45,0.06 1,-2.07 z">
<title
   id="title510">Rammenau     absolute Anzahl: 6 relativ zur Einwohnerzahl: 0,75 %
</title>
</path><path
     inkscape:connector-curvature="0"
     style="fill:#6e1212;fill-opacity:1;stroke:#000000;stroke-width:1;stroke-linecap:butt"
     onmouseout="style.opacity = 1;"
     onmouseover="style.opacity = 0.5;"
     id="525"
     class="st5"
     d="m 376.214,567.179 13.09,-0.19 1.43,2.54 2.91,0.55 0.55,1.51 2.5,0.92 0.29,-1.83 3.31,-1.1 5.96,0.18 -0.6,6.45 -2.98,1.6 -0.13,1.23 3.31,4.99 4.7,1.13 -0.3,8.97 -5.95,2.04 -1.09,2.85 1.26,1.7 -4.14,0.77 -1.17,-2.92 -6.73,-1.24 -9.77,2.49 1.76,4.34 -4.24,2.54 -3.14,-1.04 -3.51,0.44 -7.91,-4.2 -3.41,-3.32 -1.73,-4.55 9.44,-5.56 0.48,-2.08 2.92,-2.18 -1.54,-0.57 0.95,-1.21 0.19,-4.91 1.67,-1.77 0.85,-8.8 z">
<title
   id="title525">Schirgiswalde-Kirschau     absolute Anzahl: 46 relativ zur Einwohnerzahl: 0,95 %
</title>
</path><path
     inkscape:connector-curvature="0"
     style="fill:#821212;fill-opacity:1;stroke:#000000;stroke-width:1;stroke-linecap:butt"
     onmouseout="style.opacity = 1;"
     onmouseover="style.opacity = 0.5;"
     id="530"
     class="st4"
     d="m 304.515,552.31 -0.57,1.54 1.65,2.61 0.69,6.78 0.26,1.19 0.94,-0.18 0.3,2.6 -5.37,1.4 -0.2,7.35 -1.5,2.24 -0.14,2.7 1.86,2.78 -1.84,0.31 -0.4,4.17 6.26,7.65 -3.48,5.91 -4.82,3.86 -4.25,0.96 0.86,-3.58 -2.16,-1.66 0.24,-1.69 -1.98,-3.69 -5.78,-1.44 0.93,-1.46 -2.34,-1.36 -13.95,-5.88 -0.66,0.83 -8.17,-2.17 -2.51,4.42 -2.3,-0.71 0.44,-1.03 -1.6,-0.92 2.08,-3.44 -2.98,-1.08 0.72,-0.84 2.26,0.74 0.32,-0.86 -4.7,-1.42 1.07,-1.4 4.42,0.32 -1.35,-7.09 1.36,-1.18 -1.29,-0.29 2.73,-2.51 4.96,-0.74 2.39,2.2 3.29,-0.11 2.37,1.48 5.9,-10.22 -0.82,-0.87 0.86,-1.4 -2.25,-2.8 -3.06,-1.34 0.97,-2.97 4.11,-2.01 -0.63,-1.6 4.78,3.24 5.97,-0.48 3.02,2.32 5.85,-1.14 z">
<title
   id="title530">Schmölln-Putzkau     absolute Anzahl: 11 relativ zur Einwohnerzahl: 0,67 %
</title>
</path><path
     inkscape:connector-curvature="0"
     style="fill:#961212;fill-opacity:1;stroke:#000000;stroke-width:1;stroke-linecap:butt"
     onmouseout="style.opacity = 1;"
     onmouseover="style.opacity = 0.5;"
     id="550"
     class="st11"
     d="m 125.471,381.331 -1.37,-6.32 1.54,-3.13 -1.4,-5.29 -5.49,2.93 -4.53,-13.66 3.38,-2.15 0.71,0.72 2.14,-0.92 1.5,1.24 4.8,-1.54 -0.42,-3.68 10.33,-2.53 3.18,-2.26 1.69,0.32 6.89,-6.01 4.03,-0.35 5.64,3.12 -1.21,13.96 14.81,2.69 5.33,6.39 -4.44,4.43 -4.13,7.95 2.02,3.32 3.75,3.72 9.28,-1.69 4.99,3.29 5.72,-0.2 -1.15,1.14 -1.12,6.63 -2.52,2.56 -5.33,0.78 -14.33,9.97 -1.3,-0.28 -1.59,1.67 -5.16,0.43 -1.97,2.33 -1.18,-3.03 4.8,-2.69 -2.76,-0.29 -2.86,-2.31 -0.18,1.7 -3.99,-2.5 -5.65,-0.04 -3.26,-2.31 -7.38,-0.52 -3.82,-14.64 z">
<title
   id="title550">Schwepnitz     absolute Anzahl: 8 relativ zur Einwohnerzahl: 0,44 %
</title>
</path><path
     inkscape:connector-curvature="0"
     style="fill:#671212;fill-opacity:1;stroke:#000000;stroke-width:1;stroke-linecap:butt"
     onmouseout="style.opacity = 1;"
     onmouseover="style.opacity = 0.5;"
     id="560"
     class="st13"
     d="m 353.669,623.693 -5.95,-5.34 5.24,-15.87 9.26,-3.91 3.41,3.33 7.91,4.2 3.5,-0.44 3.14,1.04 4.25,-2.55 -1.76,-4.34 9.76,-2.48 6.73,1.23 1.18,2.92 4.14,-0.77 2.14,1.6 -0.51,0.66 5.33,3.33 -2.72,9.76 3.17,0.55 v 3.61 l 1.53,6.18 -0.87,9.73 -9.08,-1.74 0.5,-3.14 -2.45,-1.13 -2.33,-3.49 -5.89,-0.51 -9.33,6.96 -1.58,2.84 -6.08,3.38 -5.14,0.18 -10.76,-5.22 -2.25,-2.46 -0.19,-8 z">
<title
   id="title560">Sohland a. d. Spree     absolute Anzahl: 50 relativ zur Einwohnerzahl: 1,02 %
</title>
</path><path
     inkscape:connector-curvature="0"
     style="fill:#821212;fill-opacity:1;stroke:#000000;stroke-width:1;stroke-linecap:butt"
     onmouseout="style.opacity = 1;"
     onmouseover="style.opacity = 0.5;"
     id="570"
     class="st4"
     d="m 393.267,227.212 1.3,1.78 0.79,7.66 -6.22,14.55 9.64,0.26 7.22,1.95 0.05,8.23 5.32,2.23 -2.37,1.91 -2.66,-0.74 -1.53,7.56 2.2,1.55 -0.2,2.67 -1.81,2.73 -0.91,-0.63 2.93,4.48 5.22,2.51 -1.3,1.48 2.87,3.47 2.28,0.28 -4.11,3.24 -1.78,5.01 3.54,1.81 7.68,0.12 1.86,3.46 -0.63,4.98 6.81,0.83 0.86,2.05 -0.93,3.13 -1.1,-0.13 -4.8,8.74 1.25,3.66 -3.43,-0.05 0.07,1.99 -9.03,1.16 1.89,-14.3 -3.73,0.75 -4.55,-2.01 -1.32,-2.27 -3.32,-0.82 -3.48,-5.66 -2.9,3.2 0.22,1.65 -1.67,1.06 -16.6,-0.09 -6.33,-2.76 1.51,-8.49 -1.25,-0.22 0.12,-1.87 -3.8,-0.02 0.07,2.46 -7.56,-0.47 -0.76,-3.14 -1.62,-0.14 -3.84,1.78 -4.44,4.79 0.15,-2.1 -2.37,-0.93 -4.33,0.73 -0.83,1.74 -6.61,-10.78 2.55,-1.07 -0.64,-0.87 -7.87,-1.61 -1.48,0.85 -0.36,-1.34 -5.31,0.17 -0.11,-3.82 -1.74,-0.42 1.66,-1.47 0.14,-10.02 8.97,4.48 -0.08,2.65 8.38,5.3 4.92,-8.36 1,-4.33 -3.64,-0.93 -3.95,-3.53 -0.03,-3.25 1.74,-1.39 -3.27,-3.69 -3.82,-1.4 0.78,-2.08 1.14,0.08 -0.2,-3.1 2.51,1.96 3.83,-1.96 1.62,-8.12 -1.53,0.01 0.34,-2.65 8.13,-0.69 9.68,-8.91 4.76,-0.23 -0.01,-6.14 5.94,-0.16 5.35,3.75 2.67,-1.86 13.01,-3.94 z">
<title
   id="title570">Spreetal     absolute Anzahl: 10 relativ zur Einwohnerzahl: 0,65 %
</title>
</path><path
     inkscape:connector-curvature="0"
     style="fill:#961212;fill-opacity:1;stroke:#000000;stroke-width:1;stroke-linecap:butt"
     onmouseout="style.opacity = 1;"
     onmouseover="style.opacity = 0.5;"
     id="580"
     class="st16"
     d="m 188.913,482.869 9.29,-0.92 2.4,3.02 -1.3,1.9 0.33,1.76 4.62,-0.98 4.02,6.31 4.42,0.17 5.33,2.66 1.13,1.39 -3.88,4.37 -6.56,4.19 -10.19,-3.89 -5.12,-0.37 -2.61,-2.07 0.98,-1.83 -1.38,-1.77 -4.12,-2.07 -3.38,-0.33 -0.9,-2 -1.34,0.25 -1.19,-1.83 -0.25,-7.59 -1.34,-0.37 -2.81,-7.52 0.72,-0.93 10.28,-0.9 z">
<title
   id="title580">Steina     absolute Anzahl: 7 relativ zur Einwohnerzahl: 0,31 %
</title>
</path><path
     inkscape:connector-curvature="0"
     style="fill:#821212;fill-opacity:1;stroke:#000000;stroke-width:1;stroke-linecap:butt"
     onmouseout="style.opacity = 1;"
     onmouseover="style.opacity = 0.5;"
     id="590"
     class="st11"
     d="m 324.136,595.974 0.73,-2.65 4.83,-2.93 0.66,-1.78 10.3,-2.98 4.16,-0.84 4.92,0.7 3.53,4.46 7.22,4.08 1.73,4.54 -9.25,3.91 -5.24,15.87 -7.55,2.99 -0.86,1.91 -4.08,-0.01 -4.9,-6.37 -0.12,-1.84 -4.3,-4.27 0.53,-1.55 -1.16,-3 -2.79,0.5 -1.15,-1.47 3,-0.13 0.94,1.01 1.92,-5.58 z">
<title
   id="title590">Steinigtwolmsdorf     absolute Anzahl: 17 relativ zur Einwohnerzahl: 0,68 %
</title>
</path><path
     inkscape:connector-curvature="0"
     style="fill:#821212;fill-opacity:1;stroke:#000000;stroke-width:1;stroke-linecap:butt"
     onmouseout="style.opacity = 1;"
     onmouseover="style.opacity = 0.5;"
     id="600"
     class="st11"
     d="m 105.0495,498.985 -1.99,-0.5 -0.65,-1.32 3.53,-1.83 4.54,-0.44 5.01,-2.82 4.91,0.54 2.54,-0.57 4.16,1.11 1.93,-1.29 2.28,0.72 -2.05,2.78 -3.37,0.8 3.18,2.67 2.39,-1.14 3.79,3.33 0.95,6.9 -2.78,4.64 1.28,1.29 -1.25,1.73 -0.22,5.1 1.19,3.45 2.76,0.75 4.28,-4.61 12.66,6.93 0.98,-0.75 4.3,3.97 0.52,-0.98 2.83,0.94 0.56,2.57 -1.35,2 -2.1,0.01 -0.08,3.08 -6.7,3 0.09,2.32 -1.12,-1.43 -1.2,0.17 -4.93,2.77 -1.28,-1.59 -2.03,1.82 -3.27,-2.38 -7.73,1.95 -3.23,-0.82 -0.3,0.9 -3.2,-3.92 0.38,-1.21 -2.62,-2.36 -0.45,2.46 -2.5,-1.28 -0.86,1.31 -1.6,-1.39 -2.98,0.14 -0.79,-2.17 -2.1,-0.5 0.42,-2.17 -1.98,-0.77 -0.07,-1.52 -1.02,-0.3 0.76,-1.38 -2.07,-0.58 -0.92,-1.73 -3.66,1.33 -4.22,-3.27 -1.03,-5.01 1.67,2.17 -1.35,-3.97 -0.94,-0.06 -0.36,-3.11 0.89,-1.63 3.72,-0.75 0.42,-6.5 z">
<title
   id="title600">Wachau     absolute Anzahl: 14 relativ zur Einwohnerzahl: 0,51 %
</title>
</path><path
     inkscape:connector-curvature="0"
     style="fill:#6e1212;fill-opacity:1;stroke:#000000;stroke-width:1;stroke-linecap:butt"
     onmouseout="style.opacity = 1;"
     onmouseover="style.opacity = 0.5;"
     id="610"
     class="st5"
     d="m 480.754,475.262 3.25,5.79 0.22,-1 1.52,0.09 0.74,-3.27 2.74,-3.25 1.81,-0.26 1.97,3.81 -1.52,1.35 -0.93,4.93 1.98,-0.04 0.67,1.72 2.57,1.1 -0.4,0.91 3.38,1.87 3.64,-0.11 0.32,-1.51 1.21,0.39 -0.17,1.05 5.05,-0.14 -1.57,3.89 0.27,4.15 -3.16,1.86 1.27,2.93 -4.57,1.9 3.4,0.78 0.54,1.1 1.17,-0.96 -0.47,0.65 2.74,1.49 -2.21,0.31 1.09,1 5.41,1.2 2.62,-0.62 -1.53,1.07 3.1,2.95 -0.15,0.96 -2.81,0.78 -0.13,1.36 -3.5,3.01 1.45,2.12 -1.09,0.83 0.3,2.57 -3.31,-1.39 0.87,1.09 -2.12,0.58 0.09,2.32 -1.56,0.87 0.14,1.67 2.45,1.23 -1.22,4.41 1.35,0.77 -0.07,2.35 -3.48,0.04 0.74,-1.99 -0.99,0.03 -0.26,2.07 -1.59,-0.11 0.57,-1.77 -2.71,-0.62 -0.32,-2.53 -0.56,0.73 -2.47,-2.46 -0.68,1.04 -1.58,-1.09 -3.12,3.54 -0.85,-0.33 0.66,1 -1.26,3.59 -1.92,0.01 -0.93,1.84 -0.26,-0.86 -1.95,1.51 -0.83,-4.25 -2.19,-0.16 -0.23,-5.92 1.16,-5.05 -4.5,-0.13 -1.15,-4.43 -1.31,-0.32 -0.2,3.19 -1.84,2.16 -4.77,-0.73 0.68,-3.36 -1.41,-1.52 -0.16,-2.43 2.7,-3.37 -1.58,-2.24 2.12,0.04 -3.43,-3.59 -4.19,1.74 -0.31,-3.01 -0.89,-0.37 -1.35,4.01 -4.38,3.91 -1.35,-0.68 -1.07,3.09 -2.48,0.44 -0.89,-0.97 -1.53,3.68 -4.7,-0.59 -3.59,2.66 -3,0.99 -1.85,-1.36 -0.02,-1.3 2.18,-4.01 -0.84,-4.37 1.63,0.31 0.24,-1.2 1.05,0.12 0.38,-2.66 -1.65,0.33 2.47,-1.22 0.33,-4.55 0.98,-0.22 -0.83,-7.24 2.09,-1.74 -0.2,-2.21 4.06,1.02 0.88,1.25 2.84,-2.51 1.5,1.34 1.04,-0.36 0.56,1.51 2.29,-0.43 0.55,2.68 3.62,2.26 1.57,0.47 2.63,-1.29 0.34,-2.68 1.39,0.43 2.83,-2.84 0.83,-8.24 2.07,0.31 1.68,-3.35 1.42,0.87 -1.72,-1.94 2.59,-6.89 z">
<title
   id="title610">Weißenberg     absolute Anzahl: 43 relativ zur Einwohnerzahl: 0,90 %
</title>
</path><path
     inkscape:connector-curvature="0"
     style="fill:#6e1212;fill-opacity:1;stroke:#000000;stroke-width:1;stroke-linecap:butt"
     onmouseout="style.opacity = 1;"
     onmouseover="style.opacity = 0.5;"
     id="630"
     class="st11"
     d="m 353.467,556.176 3.84,0.59 1.03,1.27 2.28,-0.59 -0.27,2 0.97,0.53 7.52,1.59 0.52,2.81 4.18,0.4 1.9,2.17 -0.84,8.8 -1.68,1.77 -0.18,4.91 -0.95,1.21 1.54,0.58 -2.93,2.18 -0.47,2.07 -9.44,5.57 -7.22,-4.08 -3.53,-4.47 -4.92,-0.69 -4.16,0.83 -1.22,-1.29 0.6,-3.91 -0.92,-2.06 1.73,-0.97 -0.19,-9.79 5.16,-0.09 5.79,1.99 z">
<title
   id="title630">Wilthen     absolute Anzahl: 45 relativ zur Einwohnerzahl: 0,96 %
</title>
</path><path
     inkscape:connector-curvature="0"
     style="fill:#6e1212;fill-opacity:1;stroke:#000000;stroke-width:1;stroke-linecap:butt"
     onmouseout="style.opacity = 1;"
     onmouseover="style.opacity = 0.5;"
     id="640"
     class="st5"
     d="m 301.904,321.837 6.32,2.02 1.84,3.72 4.35,-1.78 3.18,2.45 6.08,-3.03 v 6.54 l 2.51,2.16 -0.97,2.35 3,4 -0.87,5.59 -1.36,1.36 -0.61,-1.16 -2.6,2.19 -0.91,-2.78 -1.64,0.34 -2.06,0.94 0.01,1.68 -6.67,1.31 -0.85,1.66 0.84,10.72 6.37,15.27 -7.37,4.42 -9.71,3.86 0.08,1.01 -11.08,-0.25 -1.64,-0.94 -0.51,1.3 -5.6,2.9 -6,1.71 -1.81,-2.42 -1.27,0.73 -0.33,-6.21 -1.64,-5.25 -1.82,-2.24 6.05,-6.46 1.4,-6.32 -1.01,-5.02 -6.63,1.59 -9.72,5.11 -2.76,-3.74 -1.12,-4.66 -2.31,-2.42 -2.23,-5.84 1.75,-1.6 h 3.38 l 0.77,-2.1 -1.42,-1.41 2.12,-5.04 3.16,-3.54 2.92,-0.66 1.7,-2.52 h 3.95 l 1.87,-1.48 h 6.05 l -0.13,1.6 1.12,0.15 1.37,-1.75 7.64,6.42 -0.08,2.05 3.47,-0.16 2.71,-3.35 -0.06,-4.92 3.86,0.1 -0.52,-7.25 z">
<title
   id="title640">Wittichenau     absolute Anzahl: 43 relativ zur Einwohnerzahl: 0,79 %
</title>
</path><g
     id="g3848"><rect
       style="fill:none;stroke:none;stroke-width:0.75;stroke-linecap:round;stroke-linejoin:round"
       id="rect2088"
       class="st17"
       height="126.51"
       width="256.50699"
       y="677.96271"
       x="299.104"
       v:rectContext="foreign" /><rect
       style="fill:none;stroke:none;stroke-width:0.75;stroke-linecap:round;stroke-linejoin:round"
       id="rect2607"
       class="st17"
       height="126.51"
       width="256.50699"
       y="677.96271"
       x="299.104"
       v:rectContext="foreign" /></g><rect
     style="fill:#d7fcc8;fill-opacity:1;stroke-width:0.27218199"
     y="669.42883"
     x="29.817671"
     height="15.252284"
     width="32.181705"
     id="RE_d7fcc8">
<title
   id="TRE_D7FCC8">#D7FCC8</title></rect><rect
     style="fill:#fbf77b;fill-opacity:1;stroke-width:0.27218199"
     y="699.93341"
     x="29.817671"
     height="15.252284"
     width="32.181705"
     id="rect4574">
<title
   id="TRE_FBF77B">#fbf77b</title></rect><rect
     style="fill:#fdfecd;fill-opacity:1;stroke-width:0.27218199"
     y="684.68115"
     x="29.817671"
     height="15.252284"
     width="32.181705"
     id="RE_FDFECD">
<title
   id="TRE_FDFECD">#FDFECD</title></rect><rect
     style="fill:#ffb534;fill-opacity:1;stroke-width:0.27218199"
     y="715.18573"
     x="29.817671"
     height="15.252284"
     width="32.181705"
     id="RE_FFB534">
<title
   id="TRE_FFB534">#FFB534</title></rect><rect
     style="fill:#b42215;fill-opacity:1;stroke-width:0.27218199"
     y="745.69031"
     x="29.817671"
     height="15.252284"
     width="32.181705"
     id="RE_B42215">
<title
   id="TRE_B42215">#B42215</title></rect><rect
     style="fill:#be311d;fill-opacity:1;stroke-width:0.27218199"
     y="730.43805"
     x="29.817671"
     height="15.252284"
     width="32.181705"
     id="RE_BE311D">
<title
   id="TRE_BE311D">#BE311D</title></rect><rect
     style="fill:#a51412;fill-opacity:1;stroke-width:0.27218199"
     y="760.94263"
     x="29.817671"
     height="15.252284"
     width="32.181705"
     id="RE_A51412">
<title
   id="TRE_A51412">#A51412</title></rect><rect
     style="fill:#821212;fill-opacity:1;stroke-width:0.27218199"
     y="791.4472"
     x="29.817671"
     height="15.252284"
     width="32.181705"
     id="RE_821212">
<title
   id="TRE_821212">#821212</title></rect><rect
     style="fill:#961212;fill-opacity:1;stroke-width:0.27218199"
     y="776.19495"
     x="29.817671"
     height="15.252284"
     width="32.181705"
     id="RE_961212">
<title
   id="TRE_961212">#961212</title></rect><rect
     style="fill:#6e1212;fill-opacity:1;stroke-width:0.278914"
     y="669.96613"
     x="202.06427"
     height="15.252284"
     width="33.793491"
     id="RE_6E1212">
<title
   id="TRE_6E1212">#6E1212</title></rect><rect
     style="fill:#5f1212;fill-opacity:1;stroke-width:0.278914"
     y="700.4707"
     x="202.06427"
     height="15.252284"
     width="33.793491"
     id="RE_5F1212">
<title
   id="TRE_5F1212">#5F1212</title></rect><rect
     style="fill:#671212;fill-opacity:1;stroke-width:0.278914"
     y="685.21844"
     x="202.06427"
     height="15.252284"
     width="33.793491"
     id="RE_671212">
<title
   id="TRE_671212">#671212</title></rect><rect
     style="fill:#5a1212;fill-opacity:1;stroke-width:0.278914"
     y="715.72302"
     x="202.06427"
     height="15.252284"
     width="33.793491"
     id="RE_5A1212">
<title
   id="TRE_5A1212">#5A1212</title></rect><rect
     style="fill:#501212;fill-opacity:1;stroke-width:0.278914"
     y="746.2276"
     x="202.06427"
     height="15.252284"
     width="33.793491"
     id="RE_501212">
<title
   id="TRE_501212">#501212</title></rect><rect
     style="fill:#551212;fill-opacity:1;stroke-width:0.278914"
     y="730.97534"
     x="202.06427"
     height="15.252284"
     width="33.793491"
     id="RE_551212">
<title
   id="TRE_551212">#551212</title></rect><rect
     style="fill:#321212;fill-opacity:1;stroke-width:0.278914"
     y="761.47992"
     x="202.06427"
     height="15.252284"
     width="33.793491"
     id="RE_321212">
<title
   id="TRE_321212">#321212</title></rect><rect
     style="fill:#141212;fill-opacity:1;stroke-width:0.278914"
     y="776.73224"
     x="202.06427"
     height="15.252284"
     width="33.793491"
     id="RE_141212">
<title
   id="TRE_141212">#141212</title></rect><rect
     style="fill:#ed2083;fill-opacity:1;stroke-width:0.278914"
     y="791.9845"
     x="202.06427"
     height="15.252284"
     width="33.793491"
     id="RE_ED2083">
<title
   id="TRE_ED2083">#ED2083</title></rect><text
     id="text5722"
     y="678.64691"
     x="70.971107"
     style="font-style:normal;font-weight:normal;font-size:30px;line-height:1.25;font-family:sans-serif;fill:#000000;fill-opacity:1;stroke:none;stroke-width:0.75000101"
     xml:space="preserve"><tspan
   style="font-style:normal;font-variant:normal;font-weight:normal;font-stretch:normal;font-size:8.00000954px;font-family:sans-serif;font-variant-ligatures:normal;font-variant-caps:normal;font-variant-numeric:normal;stroke-width:0.75000101"
   y="678.64691"
   x="70.971107"
   id="tspan5720"
   sodipodi:role="line">keine Daten	 </tspan>	 </text>
<text
     id="text5726"
     y="692.89246"
     x="70.678139"
     style="font-style:normal;font-weight:normal;font-size:30px;line-height:1.25;font-family:sans-serif;fill:#000000;fill-opacity:1;stroke:none;stroke-width:0.75000101"
     xml:space="preserve"><tspan
   style="font-style:normal;font-variant:normal;font-weight:normal;font-stretch:normal;font-size:8.00000954px;font-family:sans-serif;font-variant-ligatures:normal;font-variant-caps:normal;font-variant-numeric:normal;stroke-width:0.75000101"
   y="692.89246"
   x="70.678139"
   id="tspan5724"
   sodipodi:role="line">&gt;0,0000% &lt;=0,0100 %	 </tspan>	 </text>
<text
     id="text5730"
     y="708.46228"
     x="70.678139"
     style="font-style:normal;font-weight:normal;font-size:30px;line-height:1.25;font-family:sans-serif;fill:#000000;fill-opacity:1;stroke:none;stroke-width:0.75000101"
     xml:space="preserve"><tspan
   style="font-style:normal;font-variant:normal;font-weight:normal;font-stretch:normal;font-size:8.00000954px;font-family:sans-serif;font-variant-ligatures:normal;font-variant-caps:normal;font-variant-numeric:normal;stroke-width:0.75000101"
   y="708.46228"
   x="70.678139"
   id="tspan5728"
   sodipodi:role="line">&gt;0,0100% &lt;=0,0500 %</tspan></text>
<text
     id="text5734"
     y="724.0321"
     x="70.678139"
     style="font-style:normal;font-weight:normal;font-size:30px;line-height:1.25;font-family:sans-serif;fill:#000000;fill-opacity:1;stroke:none;stroke-width:0.75000101"
     xml:space="preserve"><tspan
       style="font-style:normal;font-variant:normal;font-weight:normal;font-stretch:normal;font-size:8.00000954px;font-family:sans-serif;font-variant-ligatures:normal;font-variant-caps:normal;font-variant-numeric:normal;stroke-width:0.75000101"
       y="724.0321"
       x="70.678139"
       id="tspan5732"
       sodipodi:role="line">&gt;0,0500% &lt;=0,1000 %</tspan></text>
<text
     id="text5738"
     y="739.60187"
     x="70.678139"
     style="font-style:normal;font-weight:normal;font-size:30px;line-height:1.25;font-family:sans-serif;fill:#000000;fill-opacity:1;stroke:none;stroke-width:0.75000101"
     xml:space="preserve"><tspan
       style="font-style:normal;font-variant:normal;font-weight:normal;font-stretch:normal;font-size:8.00000954px;font-family:sans-serif;font-variant-ligatures:normal;font-variant-caps:normal;font-variant-numeric:normal;stroke-width:0.75000101"
       y="739.60187"
       x="70.678139"
       id="tspan5736"
       sodipodi:role="line">&gt;0,1000% &lt;=0,1500 %</tspan></text>
<text
     id="text5742"
     y="755.1756"
     x="70.678139"
     style="font-style:normal;font-weight:normal;font-size:30px;line-height:1.25;font-family:sans-serif;fill:#000000;fill-opacity:1;stroke:none;stroke-width:0.75000101"
     xml:space="preserve"><tspan
       style="font-style:normal;font-variant:normal;font-weight:normal;font-stretch:normal;font-size:8.00000954px;font-family:sans-serif;font-variant-ligatures:normal;font-variant-caps:normal;font-variant-numeric:normal;stroke-width:0.75000101"
       y="755.1756"
       x="70.678139"
       id="tspan5740"
       sodipodi:role="line">&gt;0,1500% &lt;=0,2000 %</tspan></text>
<text
     id="text5746"
     y="770.74927"
     x="70.678139"
     style="font-style:normal;font-weight:normal;font-size:30px;line-height:1.25;font-family:sans-serif;fill:#000000;fill-opacity:1;stroke:none;stroke-width:0.75000101"
     xml:space="preserve"><tspan
       style="font-style:normal;font-variant:normal;font-weight:normal;font-stretch:normal;font-size:8.00000954px;font-family:sans-serif;font-variant-ligatures:normal;font-variant-caps:normal;font-variant-numeric:normal;stroke-width:0.75000101"
       y="770.74927"
       x="70.678139"
       id="tspan5744"
       sodipodi:role="line">&gt;0,2000% &lt;=0,2500 %</tspan></text>
<text
     id="text5750"
     y="786.32294"
     x="70.678139"
     style="font-style:normal;font-weight:normal;font-size:30px;line-height:1.25;font-family:sans-serif;fill:#000000;fill-opacity:1;stroke:none;stroke-width:0.75000101"
     xml:space="preserve"><tspan
       style="font-style:normal;font-variant:normal;font-weight:normal;font-stretch:normal;font-size:8.00000954px;font-family:sans-serif;font-variant-ligatures:normal;font-variant-caps:normal;font-variant-numeric:normal;stroke-width:0.75000101"
       y="786.32294"
       x="70.678139"
       id="tspan5748"
       sodipodi:role="line">&gt;0,2500% &lt;=0,5000 %</tspan></text>
<text
     id="text5754"
     y="801.8927"
     x="70.678139"
     style="font-style:normal;font-weight:normal;font-size:30px;line-height:1.25;font-family:sans-serif;fill:#000000;fill-opacity:1;stroke:none;stroke-width:0.75000101"
     xml:space="preserve"><tspan
       style="font-style:normal;font-variant:normal;font-weight:normal;font-stretch:normal;font-size:8.00000954px;font-family:sans-serif;font-variant-ligatures:normal;font-variant-caps:normal;font-variant-numeric:normal;stroke-width:0.75000101"
       y="801.8927"
       x="70.678139"
       id="tspan5752"
       sodipodi:role="line">&gt;0,5000% &lt;=0,7500 %</tspan></text>
<text
     id="text5762"
     y="679.19049"
     x="240.64035"
     style="font-style:normal;font-weight:normal;font-size:30px;line-height:1.25;font-family:sans-serif;fill:#000000;fill-opacity:1;stroke:none;stroke-width:0.75000101"
     xml:space="preserve"><tspan
       style="font-style:normal;font-variant:normal;font-weight:normal;font-stretch:normal;font-size:8.00000954px;font-family:sans-serif;font-variant-ligatures:normal;font-variant-caps:normal;font-variant-numeric:normal;stroke-width:0.75000101"
       y="679.19049"
       x="240.64035"
       id="tspan5760"
       sodipodi:role="line">&gt;0,7500% &lt;=1,0000 %</tspan></text>
<text
     id="text5766"
     y="694.58276"
     x="240.64035"
     style="font-style:normal;font-weight:normal;font-size:30px;line-height:1.25;font-family:sans-serif;fill:#000000;fill-opacity:1;stroke:none;stroke-width:0.75000101"
     xml:space="preserve"><tspan
       style="font-style:normal;font-variant:normal;font-weight:normal;font-stretch:normal;font-size:8.00000954px;font-family:sans-serif;font-variant-ligatures:normal;font-variant-caps:normal;font-variant-numeric:normal;stroke-width:0.75000101"
       y="694.58276"
       x="240.64035"
       id="tspan5764"
       sodipodi:role="line">&gt;1,0000% &lt;=1,2500 %</tspan></text>
<text
     id="text5770"
     y="709.97498"
     x="240.64035"
     style="font-style:normal;font-weight:normal;font-size:30px;line-height:1.25;font-family:sans-serif;fill:#000000;fill-opacity:1;stroke:none;stroke-width:0.75000101"
     xml:space="preserve"><tspan
       style="font-style:normal;font-variant:normal;font-weight:normal;font-stretch:normal;font-size:8.00000954px;font-family:sans-serif;font-variant-ligatures:normal;font-variant-caps:normal;font-variant-numeric:normal;stroke-width:0.75000101"
       y="709.97498"
       x="240.64035"
       id="tspan5768"
       sodipodi:role="line">&gt;1,2500% &lt;=1,5000 %</tspan></text>
<text
     id="text5774"
     y="725.36328"
     x="240.64035"
     style="font-style:normal;font-weight:normal;font-size:30px;line-height:1.25;font-family:sans-serif;fill:#000000;fill-opacity:1;stroke:none;stroke-width:0.75000101"
     xml:space="preserve"><tspan
       style="font-style:normal;font-variant:normal;font-weight:normal;font-stretch:normal;font-size:8.00000954px;font-family:sans-serif;font-variant-ligatures:normal;font-variant-caps:normal;font-variant-numeric:normal;stroke-width:0.75000101"
       y="725.36328"
       x="240.64035"
       id="tspan5772"
       sodipodi:role="line">&gt;1,5000% &lt;=1,7500 %</tspan></text>
<text
     id="text5778"
     y="740.75562"
     x="240.64035"
     style="font-style:normal;font-weight:normal;font-size:30px;line-height:1.25;font-family:sans-serif;fill:#000000;fill-opacity:1;stroke:none;stroke-width:0.75000101"
     xml:space="preserve"><tspan
       style="font-style:normal;font-variant:normal;font-weight:normal;font-stretch:normal;font-size:8.00000954px;font-family:sans-serif;font-variant-ligatures:normal;font-variant-caps:normal;font-variant-numeric:normal;stroke-width:0.75000101"
       y="740.75562"
       x="240.64035"
       id="tspan5776"
       sodipodi:role="line">&gt;1,7500% &lt;=2,0000 %</tspan></text>
<text
     id="text5782"
     y="756.14783"
     x="240.64035"
     style="font-style:normal;font-weight:normal;font-size:30px;line-height:1.25;font-family:sans-serif;fill:#000000;fill-opacity:1;stroke:none;stroke-width:0.75000101"
     xml:space="preserve"><tspan
       style="font-style:normal;font-variant:normal;font-weight:normal;font-stretch:normal;font-size:8.00000954px;font-family:sans-serif;font-variant-ligatures:normal;font-variant-caps:normal;font-variant-numeric:normal;stroke-width:0.75000101"
       y="756.14783"
       x="240.64035"
       id="tspan5780"
       sodipodi:role="line">&gt;2,0000% &lt;=4,0000 %</tspan></text>
<text
     id="text5786"
     y="771.55176"
     x="240.64035"
     style="font-style:normal;font-weight:normal;font-size:30px;line-height:1.25;font-family:sans-serif;fill:#000000;fill-opacity:1;stroke:none;stroke-width:0.75000101"
     xml:space="preserve"><tspan
       style="font-style:normal;font-variant:normal;font-weight:normal;font-stretch:normal;font-size:8.00000954px;font-family:sans-serif;font-variant-ligatures:normal;font-variant-caps:normal;font-variant-numeric:normal;stroke-width:0.75000101"
       y="771.55176"
       x="240.64035"
       id="tspan5784"
       sodipodi:role="line">&gt;4,0000% &lt;=8,0000 %</tspan></text>
<text
     id="text5790"
     y="786.95575"
     x="240.64035"
     style="font-style:normal;font-weight:normal;font-size:30px;line-height:1.25;font-family:sans-serif;fill:#000000;fill-opacity:1;stroke:none;stroke-width:0.75000101"
     xml:space="preserve"><tspan
       style="font-style:normal;font-variant:normal;font-weight:normal;font-stretch:normal;font-size:8.00000954px;font-family:sans-serif;font-variant-ligatures:normal;font-variant-caps:normal;font-variant-numeric:normal;stroke-width:0.75000101"
       y="786.95575"
       x="240.64035"
       id="tspan5788"
       sodipodi:role="line">&gt;8,0000% </tspan></text>
</g>
</g>
</svg>