<?xml version="1.0" encoding="UTF-8" standalone="no"?>
<svg
   xmlns:v="http://schemas.microsoft.com/visio/2003/SVGExtensions/"
   xmlns:dc="http://purl.org/dc/elements/1.1/"
   xmlns:cc="http://creativecommons.org/ns#"
   xmlns:rdf="http://www.w3.org/1999/02/22-rdf-syntax-ns#"
   xmlns:svg="http://www.w3.org/2000/svg"
   xmlns="http://www.w3.org/2000/svg"
   style="font-size:12px;overflow:visible;color-interpolation-filters:sRGB;fill:none;fill-rule:evenodd;stroke-linecap:square;stroke-miterlimit:3"
   id="svg2612"
   version="1.1"
   class="st18"
   xml:space="preserve"
   viewBox="0 0 450.00009 525.00079"
   height="700"
   width="600"><metadata
   id="metadata2618"><rdf:RDF><cc:Work
       rdf:about=""><dc:format>image/svg+xml</dc:format><dc:type
         rdf:resource="http://purl.org/dc/dcmitype/StillImage" /><dc:title></dc:title></cc:Work></rdf:RDF></metadata><defs
   id="defs2616">
	</defs>
	<v:documentProperties
   v:viewMarkup="false"
   v:metric="true"
   v:langID="1031">
		<v:userDefs>
			<v:ud
   v:val="VT0(1):26"
   v:nameU="msvNoAutoConnect" />
			<v:ud
   v:val="VT4(Data Graphic.28)"
   v:nameU="msvLastAppliedDataGraphic" />
			<v:ud
   v:val="VT0(1):5"
   v:nameU="msvNoApplyDataGraphicAfterLink" />
		</v:userDefs>
	</v:documentProperties>

	<style
   id="style1315"
   type="text/css">
	<![CDATA[
		.st1 {fill:#5a1212;stroke:#000000;stroke-linecap:butt;stroke-width:1}
		.st2 {stroke:none;stroke-linecap:round;stroke-linejoin:round;stroke-width:0.75}
		
		.st4 {fill:#821212;stroke:#000000;stroke-linecap:butt;stroke-width:1}
		.st5 {fill:#6e1212;stroke:#000000;stroke-linecap:butt;stroke-width:1}
		.st6 {fill:#551212;stroke:#000000;stroke-linecap:butt;stroke-width:1}
		.st7 {fill:#fdfecd;stroke:#000000;stroke-linecap:butt;stroke-width:1}
	
		.st9 {fill:#321212;stroke:#000000;stroke-linecap:butt;stroke-width:1}
		.st10 {fill:#5f1212;stroke:#000000;stroke-linecap:butt;stroke-width:1}
		.st11 {fill:#961212;stroke:#000000;stroke-linecap:butt;stroke-width:1}
		.st12 {fill:#a51412;stroke:#000000;stroke-linecap:butt;stroke-width:1}
		.st13 {fill:#671212;stroke:#000000;stroke-linecap:butt;stroke-width:1}
		.st14 {fill:#961212;stroke:#000000;stroke-linecap:round;stroke-linejoin:round;stroke-width:1}
		.st15 {fill:#501212;stroke:#000000;stroke-linecap:butt;stroke-width:1}
		.st16 {fill:#b42215;stroke:#000000;stroke-linecap:butt;stroke-width:1}
		.st17 {fill:none;stroke:none;stroke-linecap:round;stroke-linejoin:round;stroke-width:0.75}
		.st18 {fill:none;fill-rule:evenodd;font-size:12px;overflow:visible;stroke-linecap:square;stroke-miterlimit:3}
	]]>
	</style>

	<g
   transform="translate(0,-316.88916)"
   id="g2610"
   v:groupContext="foregroundPage"
   v:index="1"
   v:mID="0">
		<v:userDefs>
			<v:ud
   v:val="VT0(0.0625):26"
   v:nameU="msvDGCalloutGap" />
		</v:userDefs>
		<title
   id="title1317">Zeichenblatt-1</title>
		<v:pageProperties
   v:shadowOffsetY="-8.50394"
   v:shadowOffsetX="8.50394"
   v:drawingUnits="24"
   v:pageScale="0.0393701"
   v:drawingScale="0.0393701" />
		<v:layer
   v:index="0"
   v:name="Datengrafik" />
		<v:layer
   v:index="1"
   v:name="Vereinfacht" />
<!-- Metadaten
Ausgabe: H:\Corona-Stab AS21\Landkreis Corona Karte\Landkreiskarte_svg.xlsx_AS21_201213130624384.SVG
User:    AS21
-->
<!-- Gemeinde   -->
<path
   style="fill:#821212;fill-opacity:1;stroke:#000000;stroke-width:0.88051724;stroke-linecap:butt"
   onmouseout="style.opacity = 1;"
   onmouseover="style.opacity = 0.5;"
   id="010"
   class="st4"
   d="m 98.946629,625.45852 0.722025,-3.50445 0.862906,0.0264 0.23774,-2.28054 -2.289345,-3.16986 1.646565,-0.60756 1.23273,1.32958 1.64656,-4.49063 2.23652,-0.29058 10.69828,6.41898 6.41897,-1.31198 2.06922,0.96857 1.84908,-1.26794 0.81008,2.29815 4.5875,2.54469 0.29057,1.62016 -1.96356,2.77362 2.21891,2.41262 -1.6994,2.06041 0.75724,0.73083 2.50067,-1.58493 -0.65158,1.65537 0.73083,3.75101 1.14467,0.14968 0.80127,1.77865 3.13464,0.90693 4.05038,3.70698 2.48306,0.13208 -3.29313,8.20642 1.93713,1.82267 -3.35477,2.22771 -1.93713,-1.05662 -1.33839,0.56353 -2.57111,-1.6994 -2.52709,1.34719 -2.83526,-2.10444 -2.94093,0.66039 -0.81888,3.0642 -4.56988,-1.54971 0.24654,-1.1975 -2.99376,-0.40504 -1.72581,0.86291 0.12327,2.25412 -2.3774,1.99878 -4.92209,0.46667 -1.58493,-1.88431 -1.62896,-0.0969 -0.60755,-1.65538 2.16607,1.65538 -3.19628,-3.62773 -0.54592,0.36981 0.14969,-3.37238 -1.62015,0.14088 -0.73083,-1.52329 -1.97236,-0.70441 1.27675,-4.18246 -2.800045,-6.70074 -2.139657,0.27296 -3.398796,-5.30952 3.293134,-2.72079 0.915738,-2.3774 z">
<title
   id="title010">Arnsdorf     absolute Anzahl: 30 relativ zur Einwohnerzahl: 0,62 %
</title>
</path>

<!-- Gemeinde   -->
<path
   style="fill:#6e1212;fill-opacity:1;stroke:#000000;stroke-width:0.88051724;stroke-linecap:butt"
   onmouseout="style.opacity = 1;"
   onmouseover="style.opacity = 0.5;"
   id="020"
   class="st7"
   d="m 330.75952,549.64863 1.72582,0.14088 -0.94216,2.2101 0.80127,0.32579 -0.27296,1.13587 2.5535,1.41763 -0.66919,2.50948 4.79001,0.91574 -0.1761,0.91573 2.08683,1.74343 -3.31075,3.90069 0.95977,3.27552 1.83147,1.0214 0.23774,3.97994 -2.09563,-0.36101 -0.35221,1.22392 -1.10945,-0.0528 -0.41384,1.97236 -4.05919,-0.31699 1.58494,1.45285 -0.55473,2.10444 -2.87929,0.3346 3.14344,-0.22894 3.00257,2.32457 0.31698,1.57612 -3.11703,0.39624 3.0642,2.29815 -3.84786,1.93713 -3.31074,3.4076 -5.30072,0.0352 -0.81007,1.3648 -1.33839,-0.45787 -0.95096,1.78745 -2.5535,-0.41384 0.678,2.78243 -0.91574,-0.11447 -0.14088,2.63275 -4.15604,0.71322 0.24654,3.48685 -2.35978,0.90693 -2.66797,2.92332 -0.83649,0.48428 -3.08181,-5.16864 0.0264,-2.65916 -0.95977,-1.06542 1.58493,-0.36102 0.74844,-5.78499 1.5233,-1.97236 -1.32958,-1.0214 -2.50948,1.25914 -0.43145,-1.6994 -2.56231,0.48428 -6.03154,-2.36859 0.23774,-2.395 -3.80383,-0.22894 -2.16608,0.69561 1.38241,1.16228 -1.66417,1.55852 -5.82022,1.17109 1.94594,-4.42901 1.56732,-9.99387 -5.15102,-1.34719 -0.36102,1.79626 -1.38241,0.044 -1.04781,2.11324 -1.84028,-0.41384 -1.10065,1.49688 -3.3988,0.0352 -0.39623,-1.14467 -1.40002,0.0264 -1.1887,-3.9271 2.2189,-5.6177 -5.12461,-2.09563 3.34597,-9.32468 3.77742,-2.29815 -0.70442,-0.63397 1.90192,0.1849 -0.76605,-0.29057 1.0214,-1.3736 -1.84909,-1.91953 1.08304,-1.51449 1.73462,1.1975 2.0516,-1.56732 1.54971,1.31197 2.50067,-2.28054 2.11324,1.82267 0.63398,-0.93334 0.73963,2.0516 -1.11826,0.54592 3.2315,1.94595 0.54592,-1.30317 -0.98618,-0.70441 1.1799,-2.09564 2.62394,-1.46165 2.7296,1.92833 -0.21132,0.71322 0.86291,-0.53712 -0.46668,1.26795 0.89813,-0.0616 0.0264,-1.16228 1.50569,0.22893 -0.23774,1.47047 4.05918,2.09563 1.5321,-2.24532 6.65671,1.44405 2.23652,-0.6692 1.43524,-3.74219 1.42644,1.58493 -0.82769,0.044 -0.0176,1.43525 -2.97615,1.33838 3.83906,1.63776 1.43524,-5.01014 4.05919,-0.30818 1.68178,-3.77742 1.45286,-0.72202 0.11447,-2.17488 z">
<title
   id="title020">Bautzen     absolute Anzahl: 374 relativ zur Einwohnerzahl: 0,97 %
</title>
</path>
<!-- Gemeinde   -->

 <path
   style="fill:#6e1212;fill-opacity:1;stroke:#000000;stroke-width:0.88051724;stroke-linecap:butt"
   onmouseout="style.opacity = 1;"
   onmouseover="style.opacity = 0.5;"
   id="030"
   class="st4"
   d="m 127.73778,442.08905 -1.73462,-7.3083 0.63398,-1.57612 3.63653,-1.89311 0.90693,-2.27174 -1.95474,-1.17109 0.15849,-1.79625 4.12082,-1.65537 6.42778,1.42643 -0.89813,-3.89188 -3.72459,0.009 -0.61636,-2.13965 2.17488,-2.26293 2.82646,-0.0881 4.25289,-5.92589 3.42522,-1.40882 0.58994,5.82022 1.0214,1.58493 5.08939,2.5535 2.5535,3.14344 4.27932,2.43904 0.91573,-4.39378 -2.52708,1.62015 -1.42644,-0.29057 -0.5107,-3.27553 1.39122,-1.68179 11.17376,7.74856 2.13966,-1.00379 1.1887,3.31074 2.50067,1.76104 3.51326,0.60755 9.12216,-0.77485 1.98997,0.62516 4.94851,-5.20385 6.84161,-1.73462 1.07424,1.16228 -1.87551,4.43781 1.25914,1.24153 -0.67799,1.84908 h -2.97615 l -1.54091,1.40883 1.96356,5.13342 -6.99131,-0.14089 1.16228,9.49198 -2.62394,4.07679 -5.0982,-7.6693 -0.84529,-2.78243 -3.26672,3.0642 -3.84786,-0.0704 -1.74343,-6.73595 -3.18747,0.79246 0.49309,2.06922 -4.57869,-0.23774 -0.42265,2.23651 2.66797,3.07301 2.3774,-0.009 -0.58995,9.04291 -0.62517,1.84029 -1.67298,-0.17611 -1.16228,1.71701 -3.08181,0.86291 0.80127,5.53845 -2.13966,-0.40504 -1.0302,1.38241 -3.67176,0.29058 -1.69059,2.03399 -1.13587,0.0528 -8.19762,-3.97994 -1.72581,2.46545 -5.03656,0.17611 -4.39378,-2.8881 -8.1712,1.47927 -3.30194,-3.27553 -1.77864,-2.92331 3.63653,-7.00012 3.9095,-3.90069 z">
<title
   id="title030">Bernsdorf     absolute Anzahl: 60 relativ zur Einwohnerzahl: 0,93 %
</title>
</path>
   <!-- Gemeinde   -->

<path
   style="fill:#5a1212;fill-opacity:1;stroke:#000000;stroke-width:0.88051724;stroke-linecap:butt"
   onmouseout="style.opacity = 1;"
   onmouseover="style.opacity = 0.5;"
   id="040"
   class="st4"
   d="m 190.18054,603.40421 -0.84529,-5.80261 4.34975,-5.87305 4.97492,-0.73963 4.89568,1.48807 3.11703,-0.18491 5.65292,-7.55484 2.18368,-1.42643 3.3988,5.64411 0.82769,-0.678 -0.37863,3.80384 1.41764,5.54726 3.59251,-0.24655 2.54469,1.03901 -5.52084,6.77998 1.20631,3.77742 -3.61893,1.76984 -0.8541,2.62394 2.69438,1.1799 1.98997,2.46545 -0.76605,1.23272 0.72203,0.76605 -5.19506,8.99889 -2.08682,-1.31198 -2.8881,0.10567 -2.11324,-1.93714 -4.36736,0.64278 -2.40382,2.2189 1.13587,0.25535 -1.1975,1.03021 1.1887,6.24286 -3.89189,-0.27296 -0.94215,1.23273 4.13843,1.24153 -0.28177,0.76605 -1.98997,-0.65159 -0.62517,0.73964 2.61514,0.94215 -1.83147,3.03779 1.40882,0.80127 -0.38742,0.91573 2.02518,0.61637 -0.93334,4.48183 -2.21891,-0.59875 -1.47927,1.00379 3.3988,2.5535 -5.42399,0.0704 -0.29057,1.80506 2.47426,0.56353 -4.10321,0.75724 -8.1624,-5.40637 0.0264,-3.12584 -2.29815,-2.59752 1.10945,-1.89312 -0.87171,0.5019 -2.57992,-3.79503 -1.56732,-1.11826 0.009,-5.74097 -2.77363,-1.39122 -0.81008,-2.06041 3.69817,-1.76103 -0.81888,-0.94216 -0.15849,-7.57244 1.30316,-0.93335 -0.80127,-0.73083 0.57234,-1.17109 -1.88431,-3.46043 0.678,-2.20129 3.20508,-1.27675 -0.52831,-2.78244 z">
<title
   id="title4635">Bischofswerda     absolute Anzahl: 165 relativ zur Einwohnerzahl: 1,51 %
</title>
</path>

<!-- Gemeinde   -->
<path
   style="fill:#5f1212;fill-opacity:1;stroke:#000000;stroke-width:0.88051724;stroke-linecap:butt"
   onmouseout="style.opacity = 1;"
   onmouseover="style.opacity = 0.5;"
   id="060"
   class="st5"
   d="m 211.99712,560.6551 -2.79124,0.59875 -0.28177,-4.64913 3.95353,0.71322 0.24654,-1.89312 0.30818,1.39122 0.8541,-1.17109 -0.10566,-1.92833 2.77363,-2.71199 1.42644,-0.22894 0.0881,1.13587 0.18491,-1.1887 6.38375,-1.27675 -0.3346,3.54849 2.74722,0.98618 -0.0616,0.75724 1.67298,-0.42265 0.8541,1.91953 2.07803,0.65158 -0.81008,1.32958 4.03277,-3.44282 3.85666,3.09062 3.0642,0.0616 1.37361,1.41764 -0.78366,-0.44026 -0.5195,2.35098 -0.81889,-0.12327 -0.044,2.24531 -3.27553,-0.5107 -1.81386,4.51706 0.12327,1.64657 2.06041,0.13207 -0.3434,1.10065 3.46924,-0.1761 -0.47548,1.68178 1.52329,-0.98618 0.0176,1.45286 -0.73083,1.84028 -5.13341,3.09942 -0.009,2.27173 -1.98997,0.28177 -0.26415,1.28556 -4.17365,-1.23273 -3.29314,1.37361 -4.99253,-1.42644 -5.09819,1.37361 -2.43023,2.2101 -2.18368,1.42643 -5.66173,7.55484 -3.10823,0.18491 -4.90448,-1.48807 -4.97492,0.73963 -2.23651,-0.44906 0.28176,-2.43023 -10.88319,-9.28065 6.17242,-3.61012 0.19372,-3.54849 3.35477,-1.62896 3.53968,4.30573 2.71199,-0.16729 4.67555,-1.99878 2.47425,-3.9183 2.84407,0.49309 5.20386,-2.2101 1.47046,-2.7208 -1.09184,-0.89812 0.62517,-1.31198 z">
<title
   id="title060">Burkau     absolute Anzahl: 38 relativ zur Einwohnerzahl: 1,46 %
</title>
</path>

<!-- Gemeinde   -->
<path
   style="fill:#671212;fill-opacity:1;stroke:#000000;stroke-width:0.88051724;stroke-linecap:butt"
   onmouseout="style.opacity = 1;"
   onmouseover="style.opacity = 0.5;"
   id="080"
   class="st9"
   d="m 237.63866,514.19548 -0.044,1.8667 2.57111,0.28177 -0.5019,0.79246 1.25034,2.28935 0.15849,6.4806 -2.2101,1.32078 0.13208,4.06799 -1.10945,0.92454 1.74342,3.53968 5.45921,1.39122 0.12327,5.97871 1.54971,0.28177 0.49309,1.15347 3.62773,0.14969 -0.58995,0.8453 1.80506,2.8881 -2.11324,-0.49309 -0.39623,1.93713 -5.69695,-1.28555 -0.37862,2.13085 -2.28054,-0.43145 0.31699,-1.40883 -5.88186,-0.97737 -0.0704,-1.58494 -1.39122,-0.0968 -0.66038,1.45285 -2.79124,-0.32579 -0.0881,-2.31576 1.15348,-0.97738 -1.8755,0.74844 -1.04782,-1.85789 -4.22648,-0.72202 -0.73963,-2.73841 -0.95977,0.1673 1.22392,-1.34719 -1.09184,-1.71701 -4.24409,-0.14969 3.70698,-3.47804 -0.43146,-2.15727 2.28935,-0.69561 -0.55473,-0.38743 1.54971,-1.04781 -0.0176,-1.60254 1.48808,0.044 0.54592,-1.47046 0.26415,1.34719 1.09184,-1.32078 2.42143,0.91574 -0.0352,-1.74342 -1.1975,-0.63397 0.21133,-2.81766 1.17108,0.044 0.0176,-3.28433 0.69561,-3.04659 1.8755,0.52831 -1.60254,-1.13587 1.79626,0.52831 0.29057,-1.42644 z">
<title
   id="title080">Crostwitz     absolute Anzahl: 11 relativ zur Einwohnerzahl: 1,07 %
</title>
</path>

<!-- Gemeinde   -->
<path
   style="fill:#821212;fill-opacity:1;stroke:#000000;stroke-width:0.88051724;stroke-linecap:butt"
   onmouseout="style.opacity = 1;"
   onmouseover="style.opacity = 0.5;"
   id="090"
   class="st4"
   d="m 334.9367,627.05754 -1.10945,-4.18245 3.4076,-0.35221 1.24153,-1.33839 -0.29938,-1.13586 4.75479,1.5321 3.17867,-1.62896 -0.0881,-0.99499 4.67555,1.54972 2.9057,-0.0793 4.38498,-0.88052 2.54469,2.48306 7.07056,0.98618 3.31074,-0.62517 4.30573,1.30317 2.98495,1.63776 0.0793,2.27173 1.8755,2.43904 -7.29949,3.28433 -0.78366,1.56732 1.62016,1.43524 1.32958,-0.19371 0.23774,2.40381 -6.56866,9.13977 -2.75602,0.40504 -3.29314,-2.48306 -2.7384,-0.0264 -16.25435,2.59753 -5.84664,1.42643 0.25535,-7.89823 -4.13843,-1.00379 -2.91451,-4.39379 0.11447,-1.07423 2.62394,-1.41763 0.52831,-5.67934 z">
<title
   id="title090">Cunewalde     absolute Anzahl: 24 relativ zur Einwohnerzahl: 0,52 %
</title>
</path>

<!-- Gemeinde   -->
<path
   style="fill:#821212;fill-opacity:1;stroke:#000000;stroke-width:0.88051724;stroke-linecap:butt"
   onmouseout="style.opacity = 1;"
   onmouseover="style.opacity = 0.5;"
   id="100"
   class="st4"
   d="m 222.04206,579.72534 5.00134,1.42644 3.28433,-1.37361 4.18245,1.24153 -0.47548,2.5535 2.27174,1.01259 1.09184,-2.50066 5.71456,0.21132 0.93335,3.09061 1.06542,0.55473 -1.46166,2.84407 3.11703,2.28935 2.46545,-0.73964 1.81387,3.9183 0.46667,2.92332 -1.31197,2.90571 0.8453,2.24532 -0.3346,0.8541 -2.13966,-1.58493 -2.65035,4.17365 -0.43146,6.21645 -0.80127,0.78366 -6.37494,-1.73462 -5.15103,1.0126 -2.65916,-2.0428 -5.24788,0.42265 -4.21768,-2.85288 -0.64278,-2.3774 5.51204,-6.77998 -2.53589,-1.03901 -3.60132,0.24654 -1.40882,-5.54725 0.36981,-3.80384 -0.82768,0.678 -3.38999,-5.64412 2.43022,-2.21009 z">
<title
   id="title100">Demitz-Thumitz     absolute Anzahl: 15 relativ zur Einwohnerzahl: 0,57 %
</title>
</path>

<!-- Gemeinde   -->
<path
   style="fill:#961212;fill-opacity:1;stroke:#000000;stroke-width:0.88051724;stroke-linecap:butt"
   onmouseout="style.opacity = 1;"
   onmouseover="style.opacity = 0.5;"
   id="110"
   class="st4"
   d="m 270.73818,597.81469 -0.32579,-2.22771 2.3774,0.75724 2.08683,-5.06297 6.02273,1.51449 0.8453,-3.16987 2.034,-0.67799 5.82902,-1.17109 1.66418,-1.55852 -1.38242,-1.16228 2.16608,-0.69561 3.79503,0.22013 -0.23774,2.40381 6.03154,2.36859 2.56231,-0.49309 0.44025,1.6994 2.50948,-1.25033 1.32958,1.0214 -1.5233,1.97236 -0.75724,5.77619 -1.57613,0.36101 0.95977,1.07423 -1.6906,-0.32579 0.5019,-1.23272 -3.53968,-0.63397 -1.09184,0.46667 0.41384,1.27675 -1.38241,0.36982 -0.78366,2.61513 -1.13587,-1.12706 -1.40883,2.79124 -1.18869,-0.11447 -3.0554,7.36113 -0.0528,5.73216 -3.38119,-0.5195 -1.63776,11.73729 -5.09819,-1.75222 -14.17633,-0.3346 -9.72972,-2.97615 -9.58002,2.7208 -0.26416,-2.28935 -0.81888,0.1585 -0.23774,-1.04782 -0.60756,-5.96991 -1.45285,-2.28934 0.50189,-1.356 0.79247,-0.79246 0.44026,-6.21645 2.65036,-4.17366 2.13085,1.59374 0.3434,-0.8541 -0.8453,-2.25413 1.31197,-2.9057 -0.46667,-2.92332 0.20252,-2.61514 4.55227,2.35099 3.78623,0.73082 0.78366,-0.65158 1.04781,0.62517 -0.69561,4.61391 5.33594,0.22893 1.57612,0.98618 z">
<title
   id="title1008">Doberschau-Gaußig     absolute Anzahl: 18 relativ zur Einwohnerzahl: 0,44 %
</title>
</path>


<!-- Gemeinde   -->
<path
   style="fill:#551212;fill-opacity:1;stroke:#000000;stroke-width:0.88051724;stroke-linecap:butt"
   onmouseout="style.opacity = 1;"
   onmouseover="style.opacity = 0.5;"
   id="120"
   class="st4"
   d="m 191.24333,324.0425 1.69059,1.74343 4.64033,0.78366 3.38118,-0.58114 3.90069,1.47927 5.25669,-0.678 5.01014,1.22392 2.80005,-0.95977 3.72459,0.30818 3.00256,0.97738 3.64534,3.77742 4.9397,0.6868 0.64278,-0.83649 1.356,1.40883 -1.32078,0.55472 -0.0176,1.00379 2.034,0.73083 2.60633,-0.95976 0.1761,-1.88431 8.6819,-0.1673 5.74978,2.69438 2.87929,2.43904 3.50446,0.0969 9.16618,3.95353 1.76984,8.32969 0.17611,2.7296 -1.0126,-0.0616 -0.6868,1.83147 3.36357,1.23273 2.8793,3.24911 -1.5233,1.21511 0.0264,2.86168 3.47804,3.11703 3.19628,0.81888 -0.88052,3.81264 -4.33214,7.35232 -7.36993,-4.65793 0.0616,-2.33338 -7.89824,-3.94471 -0.11446,8.82278 -1.47047,1.29436 1.54091,0.36982 0.0968,3.36357 -5.32713,0.11447 -0.0352,-1.32078 -4.44661,-1.3648 -1.58493,2.8969 0.95096,0.0176 -3.9095,2.62394 -3.38118,-0.44026 -4.68436,6.45419 -4.45541,2.45664 -3.28433,-0.65158 -0.22894,-1.49688 -7.02652,-5.60009 -0.5107,2.44784 -2.90571,-1.55852 -1.82267,2.01639 -5.29191,-0.0352 -1.47927,5.44159 -2.3862,-0.32579 -0.0528,1.03901 -1.93714,0.29938 -1.64657,-1.48808 -1.14467,0.3346 -0.3346,1.40002 -1.82267,-1.95475 -2.25412,0.66039 0.96857,-2.28054 -3.75981,-3.28433 2.08683,-1.91072 2.06921,-5.40637 0.79247,0.44025 0.87171,-1.69939 -0.30818,-2.40382 0.91574,-0.44025 0.88051,-3.29314 2.90571,0.78366 0.23774,-1.8755 0.57234,0.73083 1.0214,-0.73083 -2.94974,-1.21511 1.06543,-2.86169 -1.20631,0.51951 0.87171,-0.94215 -1.08303,-0.94216 -0.62517,0.78366 -2.48306,-1.74342 -3.71578,-0.27296 -3.68057,-1.62015 -1.62015,0.49309 0.76605,1.11825 -0.96857,1.24153 -5.59128,-0.61636 0.14088,3.69817 -3.27552,-1.13586 -4.56989,4.56108 -4.28812,-0.36982 -2.65916,-1.59374 -1.29436,8.54982 -4.15604,-0.28176 -0.93335,-0.96857 -1.46166,0.72202 -1.14467,-1.3648 -2.30695,-0.0704 -1.43525,-2.02519 0.13208,-2.2189 6.59508,-3.41641 0.50189,-1.32078 -6.25167,-9.05171 5.75858,-0.97738 3.7422,-3.37238 2.49186,-11.18257 3.13464,-4.81643 4.06799,-0.94215 7.59006,1.59374 1.32958,-1.6906 1.77865,0.46668 -3.96233,-3.69817 -1.34719,-3.89189 0.50189,-2.8969 2.5535,-3.71579 1.28556,-0.41384 z">
<title
   id="title120">Elsterheide     absolute Anzahl: 65 relativ zur Einwohnerzahl: 1,88 %
</title>
</path>
   <!-- Gemeinde   -->

 <path
   style="fill:#6e1212;fill-opacity:1;stroke:#000000;stroke-width:0.88051724;stroke-linecap:butt"
   onmouseout="style.opacity = 1;"
   onmouseover="style.opacity = 0.5;"
   id="130"
   class="st10"
   d="m 196.96581,534.5733 -1.00379,4.44661 1.93714,1.15348 -0.20252,3.02897 3.16105,2.18369 -0.40503,1.26794 -1.93714,-0.87171 -1.10945,1.56732 0.81888,1.20631 -0.91574,5.37115 1.80506,0.14969 0.8453,4.18246 -1.76984,1.21511 0.29057,1.8667 -2.034,0.43145 -1.64656,4.14724 -2.40382,0.65158 -1.83147,4.20887 -3.35477,1.62896 -0.19372,3.54849 -6.16362,3.61012 -4.12962,-2.74722 -1.50569,2.49187 -0.88051,-0.57234 -0.81008,1.42644 -4.15604,-1.98117 0.82768,-0.49309 -0.49309,-3.31955 2.99376,-2.12204 -3.16986,-7.1498 -0.98618,-1.21512 -1.84908,-3.751 0.94215,-13.6216 -2.64155,-2.65036 -0.0528,-2.76482 4.40258,0.0264 1.82267,-3.95352 0.43146,-4.37617 1.97236,-1.30316 5.23907,-2.10444 1.74343,1.40002 -0.89813,-1.61135 0.82769,-0.42264 4.01515,2.51828 1.75223,-0.044 0.14969,-1.37361 1.71701,1.356 2.12205,-0.81888 0.3522,-3.07301 5.40638,4.14724 -0.59875,2.71199 z">
<title
   id="title130">Elstra     absolute Anzahl: 27 relativ zur Einwohnerzahl: 0,99 %
</title>
</path>

    <!-- Gemeinde   -->
<path
   style="fill:#6e1212;fill-opacity:1;stroke:#000000;stroke-width:0.88051724;stroke-linecap:butt"
   onmouseout="style.opacity = 1;"
   onmouseover="style.opacity = 0.5;"
   id="140"
   class="st11"
   d="m 178.67659,603.56975 4.17365,2.23651 0.52831,2.78243 -3.21389,1.27675 -0.678,2.2013 1.88431,3.46043 -0.56353,1.17989 -1.81387,0.96857 -4.44661,0.1585 -5.04536,-1.8579 -7.13219,1.33839 -0.22894,1.1887 -3.73339,-6.78879 2.11324,-6.56866 -0.60756,-5.15983 14.90716,-1.44405 z">
<title
   id="title140">Frankenthal     absolute Anzahl: 9 relativ zur Einwohnerzahl: 0,98 %
</title>
</path>

   <!-- Gemeinde   -->
<path
   style="fill:#821212;fill-opacity:1;stroke:#000000;stroke-width:0.88051724;stroke-linecap:butt"
   onmouseout="style.opacity = 1;"
   onmouseover="style.opacity = 0.5;"
   id="150"
   class="st5"
   d="m 274.26201,547.82068 0.678,0.49309 -1.09184,1.52329 1.85789,1.91953 -1.0214,1.37361 0.75725,0.29057 -1.89311,-0.19372 0.70441,0.64278 -3.77742,2.29815 -3.34596,9.31587 5.12461,2.09563 -2.22771,5.62651 1.1887,3.9183 1.40882,-0.0176 0.38743,1.14467 3.4076,-0.0352 1.09184,-1.49688 1.84028,0.41385 1.05663,-2.12205 1.3736,-0.044 0.36101,-1.78745 5.15984,1.33839 -1.57613,10.00268 -1.94594,4.429 -2.034,0.678 -0.8453,3.16986 -6.03154,-1.51449 -2.08682,5.06297 -2.3686,-0.75724 0.3258,2.22771 -3.09942,2.70318 -1.57613,-0.99498 -5.33594,-0.22013 0.68681,-4.61391 -1.03901,-0.62517 -0.78366,0.65159 -3.78623,-0.73964 -4.56108,-2.34217 -0.20251,2.61513 -1.81387,-3.9095 -2.46545,0.73083 -3.10822,-2.28934 1.46165,-2.84407 -1.06542,-0.55473 -0.94216,-3.08181 -5.70575,-0.22013 -1.10064,2.50948 -2.27174,-1.0126 0.73964,-3.84786 1.98116,-0.29057 0.0176,-2.27173 5.12461,-3.09942 0.73083,-1.83148 -0.009,-1.45285 -1.5321,0.97737 0.47547,-1.68179 -3.46923,0.18491 0.3522,-1.10064 -2.06041,-0.13208 -0.12327,-1.64657 1.81387,-4.51705 3.27552,0.5107 0.0352,-2.25413 0.82769,0.12328 0.5195,-2.35099 0.77486,0.44907 -1.37361,-1.42644 0.30818,-2.84407 -1.6994,-0.88932 0.96857,-2.27174 -0.47548,-1.60254 2.27174,0.42265 0.38743,-2.13085 5.68814,1.28555 0.40503,-1.93714 2.11325,0.49309 -1.80506,-2.88809 0.58114,-0.8453 4.18245,0.39623 1.38242,-0.91573 2.66796,-0.19372 -1.32077,1.47047 1.48807,0.79246 2.27174,0.19372 0.26415,-1.07424 1.47046,-0.0176 1.37361,1.07424 -0.73083,0.83649 0.60756,-0.29938 0.15849,-0.63397 1.50569,0.15849 0.3434,1.34719 4.75479,0.64278 0.0528,1.13587 1.1887,0.044 z">
<title
   id="title150">Göda     absolute Anzahl: 20 relativ zur Einwohnerzahl: 0,65 %
</title>
</path>

<!-- Gemeinde Groszdubrau   -->
<path
   style="fill:#821212;fill-opacity:1;stroke:#000000;stroke-width:0.88051724;stroke-linecap:butt"
   onmouseout="style.opacity = 1;"
   onmouseover="style.opacity = 0.5;"
   id="160"
   class="st5"
   d="m 333.00748,504.87169 -0.0881,-6.38375 -2.43903,-2.07802 -0.36101,-1.98997 2.73841,-2.97615 2.72079,-11.52597 6.85923,-3.65415 3.47805,-0.66039 -0.23774,3.02018 2.48306,1.93714 -0.36102,-4.01516 0.69561,-0.0969 3.11703,6.51583 2.0428,0.29937 1.6906,2.09564 0.90693,-1.40003 3.073,-0.59875 0.25535,0.88052 1.92834,-0.13208 -0.044,1.00379 -2.00758,0.58995 0.70442,14.63419 6.17242,0.009 -0.81007,8.03912 3.39879,0.0176 2.66797,-2.43903 1.29436,1.8667 -3.67176,4.12082 -2.61513,0.32579 0.22013,0.83649 -1.46166,0.42265 -1.03021,1.94594 -2.2101,-0.0528 1.88431,2.97615 -2.03399,8.82278 -1.81387,1.82267 -4.34975,-0.83649 -0.3346,1.11826 -0.94215,-0.12328 0.10566,-1.2063 -1.1887,-0.47548 0.75724,-1.79626 -2.64155,-0.76605 -1.26794,2.3774 -2.40381,1.57612 -0.97738,-0.33459 -1.21511,2.80004 -1.50569,0.88932 -8.32089,-1.45285 -1.8755,2.46545 0.87172,0.93335 -1.47047,0.21132 -0.59875,2.08683 0.74844,1.33838 -0.65158,-0.14088 -0.30818,2.34218 -2.5535,-0.65159 0.45786,1.84909 -1.65537,0.62517 0.20252,2.03399 1.07423,-0.009 -1.31197,1.31197 0.10566,2.25412 -5.95229,-5.83783 -0.11447,2.16608 -1.46166,0.73082 -1.68179,3.76862 -4.05038,0.30818 -1.43524,5.01014 -3.83905,-1.63776 2.97614,-1.32958 0.0176,-1.44405 0.81889,-0.0352 -1.41764,-1.59374 -1.44405,3.7422 -2.2277,0.6692 -6.65671,-1.43525 -1.14468,-6.92086 3.30194,-0.0176 2.18369,2.59752 4.84284,-0.91574 0.99498,-3.72458 0.89813,-1.26795 1.10945,0.26416 0.78366,-3.14345 1.356,0.26416 1.8755,-8.90203 1.83148,0.15849 0.88052,-1.50569 1.94594,-0.64277 -1.27675,-2.45665 -1.92833,-0.088 2.81765,-1.54971 -1.29436,-2.5623 -1.5321,-1.03021 -3.83025,-0.14969 0.0264,-1.47927 1.00379,-0.54592 -0.64278,-1.78745 1.99877,0.24655 2.14846,-1.47927 -0.0176,-3.2315 1.1799,-1.5409 4.49944,-0.75725 0.10566,1.66418 z">
<title
   id="title160">Großdubrau     absolute Anzahl: 29 relativ zur Einwohnerzahl: 0,68 %
</title>
</path>
   <!-- Gemeinde   -->
<path
   style="fill:#961212;fill-opacity:1;stroke:#000000;stroke-width:0.88051724;stroke-linecap:butt"
   onmouseout="style.opacity = 1;"
   onmouseover="style.opacity = 0.5;"
   id="170"
   class="st12"
   d="m 147.4781,641.70583 -2.00758,0.50189 -2.48306,-0.12327 -4.05038,-3.70698 -3.13464,-0.90693 -0.80127,-1.77864 -1.14467,-0.14969 -0.73083,-3.75981 0.65158,-1.64657 -2.50067,1.57613 -0.75724,-0.72203 1.69939,-2.06921 -2.2189,-2.40381 1.96355,-2.77363 -0.29057,-1.62016 -4.58749,-2.54469 -0.81008,-2.29815 1.46166,-0.66039 0.25535,0.79247 5.01014,1.17989 5.03656,-2.13966 1.38242,-3.751 3.2491,0.1673 3.65415,1.61135 5.785,0.30818 6.2957,-3.07301 3.73339,6.78879 0.22893,-1.1887 7.13219,-1.33839 5.04537,1.8579 4.44661,-0.1585 1.81387,-0.97737 0.80127,0.73083 -1.30317,0.93335 0.15849,7.57244 0.81889,0.94216 -3.69818,1.76103 0.80127,2.06041 2.78244,1.39122 -0.009,5.74097 1.56732,1.12706 -2.3862,1.81387 -0.14088,2.02519 -3.0642,1.55852 -2.35979,2.58872 -1.40882,-0.85411 -3.12584,4.37617 -2.2189,0.44026 -5.41519,-2.69438 -1.3648,2.06041 -1.31197,0.32579 -1.45285,-1.12706 -3.33716,-0.23774 -2.46545,0.94215 z">
<title
   id="title170">Großharthau     absolute Anzahl: 13 relativ zur Einwohnerzahl: 0,47 %
</title>
</path>

   <!-- Gemeinde   -->
<path
   style="fill:#961212;fill-opacity:1;stroke:#000000;stroke-width:0.88051724;stroke-linecap:butt"
   onmouseout="style.opacity = 1;"
   onmouseover="style.opacity = 0.5;"
   id="180"
   class="st4"
   d="m 103.36595,540.20949 2.92331,2.30695 0.79247,4.49944 1.82267,-0.36981 1.5321,5.2743 4.39378,3.31955 2.52708,7.26426 -1.40882,4.71958 -3.89189,4.12962 -0.39623,1.82267 -0.73964,-0.6868 0.51951,-1.8755 -2.2189,-1.54091 -1.57613,-4.91328 -4.63152,4.66674 -5.608896,-1.62896 -1.75223,0.41384 -3.33716,-2.93212 -2.104436,1.00379 -2.800044,-2.35098 2.967342,-0.70441 1.80506,-2.44784 -2.007579,-0.63398 -1.699398,1.13587 -3.662951,-0.97737 -2.236514,0.50189 0.246545,-1.51449 8.884418,-4.56108 0.176104,-5.76738 5.388765,-8.91084 2.368591,0.69561 1.672983,-0.96857 z">
<title
   id="title180">Großnaundorf     absolute Anzahl: 4 relativ zur Einwohnerzahl: 0,42 %
</title>
</path>

   <!-- Gemeinde   -->
<path
   style="fill:#671212;fill-opacity:1;stroke:#000000;stroke-width:0.88051724;stroke-linecap:butt"
   onmouseout="style.opacity = 1;"
   onmouseover="style.opacity = 0.5;"
   id="190"
   class="st4"
   d="m 323.2628,603.17792 1.31197,-2.65917 2.3862,-0.55472 0.29057,-2.10444 3.42521,3.75101 2.81766,-0.66039 1.16228,1.47046 1.05662,8.3385 -3.073,0.56353 0.009,2.44784 1.356,0.25535 1.78745,6.82401 2.3862,-0.80127 0.29938,1.13586 -1.24153,1.34719 -3.41641,0.34341 1.11826,4.18245 -0.6692,1.07423 -5.23907,-0.14968 -2.91451,0.95976 -0.25535,1.61135 -2.2101,-0.81008 -0.47548,-1.32077 -2.56231,-0.49309 -1.26794,-2.23652 -11.51717,0.17611 3.10823,-7.87183 0.0704,-2.95854 0.95976,0.36102 1.8667,-2.97615 -1.72581,-3.51327 -2.13086,-0.0528 -0.50189,-1.99877 2.67677,-2.92332 2.35979,-0.90693 -0.24655,-3.49566 4.15604,-0.70441 0.21133,-1.08304 1.21511,0.14089 1.15348,2.83526 -0.78366,2.32457 0.65158,-0.81008 z">
<title
   id="title190">Großpostwitz     absolute Anzahl: 28 relativ zur Einwohnerzahl: 1,02 %
</title>
</path>

   <!-- Gemeinde   -->
<path
   style="fill:#671212;fill-opacity:1;stroke:#000000;stroke-width:0.88051724;stroke-linecap:butt"
   onmouseout="style.opacity = 1;"
   onmouseover="style.opacity = 0.5;"
   id="200"
   class="st11"
   d="m 157.98443,585.77978 1.96355,-2.21891 -0.23774,-1.60254 0.47548,0.79247 4.82524,-1.15348 0.54592,1.21511 3.36357,-2.11324 0.74844,2.53589 -0.88051,1.83148 3.9183,-0.0616 0.93335,6.03154 -0.78366,4.82524 1.96355,2.68558 -14.90716,1.43524 0.60756,5.15983 -2.11324,6.56866 -6.30451,3.08181 -5.77619,-0.31699 -3.66295,-1.60254 -3.2403,-0.1673 -1.38242,3.7422 -5.03655,2.14846 -5.01015,-1.1887 -0.25535,-0.78366 -3.31074,1.92834 -2.06922,-0.97738 -6.41897,1.32078 -10.69828,-6.42778 1.51449,-1.00379 -1.37361,-1.06542 -0.3346,-4.17365 4.34095,-2.43904 1.05662,-0.14968 0.97738,1.25913 -0.0704,-2.0428 5.89946,-2.65035 0.0704,-2.712 1.84909,-0.009 1.1887,-1.76103 -0.49309,-2.25413 -2.49187,-0.83649 5.75859,-8.54102 2.46545,1.38241 5.93468,-1.52329 3.01137,2.75602 3.79503,-1.58493 2.40381,0.95096 2.81766,2.94973 4.63152,-1.24153 2.87048,1.62896 z">
<title
   id="title200">Großröhrsdorf     absolute Anzahl: 119 relativ zur Einwohnerzahl: 1,24 %
</title>
</path>

   <!-- Gemeinde   -->
<path
   style="fill:#671212;fill-opacity:1;stroke:#000000;stroke-width:0.88051724;stroke-linecap:butt"
   onmouseout="style.opacity = 1;"
   onmouseover="style.opacity = 0.5;"
   id="220"
   class="st6"
   d="m 123.75696,519.78413 3.25792,-0.40504 5.73216,1.49688 13.64802,1.32078 3.26672,4.05918 -0.0616,1.09184 5.64412,1.95475 2.86168,2.35098 -0.5195,4.99253 -1.47927,0.36102 -0.14089,1.43524 1.58494,0.44906 2.11324,-0.87171 5.2743,3.08181 0.0528,2.76482 2.65035,2.64156 -0.95096,13.6216 1.84909,3.751 -4.69316,-2.34217 -3.90069,-0.14969 -3.53087,-5.55607 -4.06799,0.86291 -0.29057,-1.54971 1.13587,-1.67298 -2.11325,-2.65916 -8.18,0.81007 -2.50067,-8.23283 -9.05172,0.79246 -0.63397,0.81888 -2.13085,0.17611 0.81007,-2.22771 -1.10945,-3.35477 1.1887,-0.51951 -2.66797,-4.23529 -4.95731,0.99499 -0.75724,-2.57111 0.0352,1.23272 -8.27686,1.27675 -8.58505,5.14222 -0.88932,-0.70441 0.678,-0.92455 -0.73083,-4.46422 -2.20129,0.81008 -2.808855,-3.68937 0.457869,-1.62015 2.042796,-0.19371 -1.215109,-5.76739 0.528309,-2.49187 -3.583704,-3.29313 0.994984,-1.46166 4.51705,0.22013 4.79002,-2.3862 6.46299,4.33214 z">
<title
   id="title220">Haselbachtal     absolute Anzahl: 43 relativ zur Einwohnerzahl: 1,07 %
</title>
</path>

   <!-- Gemeinde   -->
<path
   style="fill:#821212;fill-opacity:1;stroke:#000000;stroke-width:0.88051724;stroke-linecap:butt"
   onmouseout="style.opacity = 1;"
   onmouseover="style.opacity = 0.5;"
   id="230"
   class="st5"
   d="m 368.00012,584.938 4.13843,0.51951 1.34719,-3.24911 0.78366,0.8541 2.18368,-0.38743 0.94216,-2.7208 1.1887,0.60756 3.85666,-3.45163 1.1887,-3.53087 0.78366,0.32579 0.27296,2.65036 3.68937,-1.5321 3.02017,3.16105 -1.86669,-0.0352 1.39121,1.97236 -2.37739,2.96734 0.14088,2.13966 1.24153,1.34719 -0.59875,2.94974 4.20006,0.65158 1.62016,-1.91072 0.1761,-2.80885 1.15348,0.28176 1.01259,3.90069 3.96233,0.11447 -1.0214,4.44661 0.20252,5.22147 1.92833,0.14088 0.73083,3.7334 1.71701,-1.32959 0.22893,0.75725 -0.70441,-0.0969 -0.11447,3.84786 -2.64155,0.29057 -0.35221,1.5233 2.02519,2.10443 2.56231,-0.58994 -0.93335,1.47046 -1.74342,-0.64278 -2.22771,2.26293 -2.56231,-0.16729 -2.35098,1.59373 -3.49565,-0.64278 -0.74844,-1.05662 -2.79124,3.87428 0.15849,1.12706 2.80885,0.44026 0.22013,1.69059 2.81766,0.70442 -0.0704,1.05662 -5.9611,0.49309 -4.71957,-2.08683 -4.52586,-0.3434 -1.14467,0.95096 -2.35098,-0.91574 -1.17109,4.07679 -4.30573,-1.31197 -3.31074,0.63398 -7.07936,-0.98618 -2.53589,-2.48306 -4.38498,0.87171 -0.14969,-12.90838 2.13966,-7.40515 1.34719,0.0969 -1.44405,-5.23027 6.19885,-1.20631 3.14344,-6.48941 z">
<title
   id="title230">Hochkirch     absolute Anzahl: 14 relativ zur Einwohnerzahl: 0,62 %
</title>
</path>

   <!-- Gemeinde   -->

<path
   style="fill:#821212;fill-opacity:1;stroke:#000000;stroke-width:0.88051724;stroke-linecap:butt"
   onmouseout="style.opacity = 1;"
   onmouseover="style.opacity = 0.5;"
   id="240"
   class="st4"
   d="m 254.63352,380.03019 0.0352,1.32958 9.99387,-0.27296 0.31698,1.1887 1.30317,-0.75724 6.92967,1.42643 0.56353,0.75725 -2.23651,0.94215 4.53466,7.3171 -5.4504,0.11447 0.0969,4.34975 -2.53589,-0.088 0.25535,7.36993 8.94606,-1.75223 -2.17488,3.76862 0.25535,2.52708 3.51327,1.44405 -1.09185,1.44405 -0.0704,3.0642 -5.41518,7.52842 4.0856,1.10945 4.2441,-0.76605 1.11825,0.678 -0.81007,-3.77742 7.55483,0.99498 -8.82278,9.60645 -1.98116,3.49565 -4.31454,3.87428 -4.04157,-1.1799 -0.52831,-2.67677 -3.12584,-0.48428 0.5019,-0.72203 -1.48808,-0.89812 0.76605,-4.9221 -2.64155,-3.52207 0.8541,-2.07802 -2.21009,-1.89311 v -5.75858 l -5.35355,2.66797 -2.80004,-2.15727 -3.83025,1.56732 -1.62016,-3.27552 -5.56487,-1.77865 -4.79001,0.83649 0.45787,6.38375 -3.3988,-0.0881 0.0528,4.33215 -2.3862,2.94973 -3.05539,0.14088 0.0704,-1.80506 -6.72715,-5.65292 -1.20631,1.54091 -0.98618,-0.13208 0.11447,-1.40883 h -5.32713 l -1.64657,1.30317 -3.47804,-0.009 -1.49688,2.22771 -2.57111,0.58114 -2.78244,3.11703 -1.06542,-1.16228 -6.84162,1.73462 -4.95731,5.20385 -1.98117,-0.62516 -9.13096,0.77485 -3.50446,-0.60755 -2.50067,-1.76104 -1.1975,-3.31074 -2.13085,1.00379 -11.18257,-7.74856 -2.06922,-1.15347 -0.36982,-1.27675 4.20007,-0.0881 4.22648,-4.02396 0.5019,1.20631 1.99877,-0.5107 -0.50189,-1.33839 -1.54091,-0.24654 2.48306,-3.86547 3.28433,-1.90192 1.75223,1.65537 -0.26415,-2.40381 3.65414,-2.08682 -2.54469,-5.98752 9.41273,-4.90448 -1.26795,-0.0176 0.48429,-1.19751 1.76103,-0.13207 -0.0528,3.68936 1.98116,0.26416 0.24655,-3.13464 1.57612,0.20252 1.80506,-3.93592 3.21389,3.94472 1.99878,-3.82144 5.24788,4.34095 -0.96857,2.28054 2.25412,-0.66039 1.82267,1.94594 0.3346,-1.39122 1.14467,-0.33459 1.64657,1.47927 1.93714,-0.29057 0.044,-1.04782 2.38621,0.32579 1.48807,-5.4416 5.29191,0.0352 1.81386,-2.00758 2.91452,1.54971 0.5107,-2.44784 7.01772,5.60009 0.22893,1.50568 3.29314,0.65159 4.45542,-2.45665 4.68435,-6.45419 3.37238,0.44026 3.9183,-2.62394 -0.95096,-0.0176 1.58493,-2.8969 z">
<title
   id="title240">Hoyerswerda     absolute Anzahl: 187 relativ zur Einwohnerzahl: 0,58 %
</title>
</path>

   <!-- Gemeinde   -->
<path
   style="fill:#5f1212;fill-opacity:1;stroke:#000000;stroke-width:0.88051724;stroke-linecap:butt"
   onmouseout="style.opacity = 1;"
   onmouseover="style.opacity = 0.5;"
   id="250"
   class="st5"
   d="m 196.87071,490.38542 4.62272,7.61647 1.0302,8.38253 -5.36235,2.87929 -3.19627,0.0792 0.0792,1.28556 -1.69059,0.57234 -1.24153,-3.28433 -3.7422,0.44026 -2.62394,4.66674 -2.35098,0.0792 0.73083,3.96233 4.0944,4.61391 0.0352,2.53589 2.40382,0.46667 -0.73083,1.67299 1.66417,0.96857 -0.36101,3.0642 -2.12204,0.82768 -1.70821,-1.35599 -0.14969,1.3648 -1.75222,0.044 -4.01516,-2.50947 -0.82769,0.41384 0.89813,1.62015 -1.74343,-1.40882 -5.23907,2.11324 -1.97236,1.30316 -0.44026,4.37617 -1.82267,3.95353 -4.39378,-0.0264 -5.2743,-3.08181 -2.11324,0.87171 -1.58493,-0.44906 0.13207,-1.43524 1.47927,-0.36102 0.52831,-5.00133 -2.87048,-2.34218 -5.64412,-1.95475 0.0616,-1.09184 -3.26672,-4.05918 -13.63921,-1.32078 -5.73217,-1.49688 -3.26672,0.40504 4.18246,-9.86179 2.395,-8.57624 -2.63274,-1.72582 -1.5321,-2.80004 -0.96857,-6.72715 3.99755,-2.27174 -3.15225,-3.21388 12.609,-8.77876 4.69316,-0.68681 2.2189,-2.25412 0.99499,-5.83783 2.7296,-3.46924 8.19762,3.97994 1.13586,-0.0528 1.6994,-2.03399 7.47559,-0.74844 2.89691,1.2063 1.40882,-2.99375 1.34719,1.22391 -0.59875,1.15348 0.95096,0.23774 0.77486,2.94973 1.15347,0.55473 -0.24654,2.29815 4.41139,1.79626 3.29313,-0.92455 -0.16729,-2.23651 1.16228,-0.90693 3.86547,8.53221 4.07679,4.13843 z">
<title
   id="title250">Kamenz     absolute Anzahl: 248 relativ zur Einwohnerzahl: 1,47 %
</title>
</path>

   <!-- Gemeinde   -->
<path
   style="fill:#6e1212;fill-opacity:1;stroke:#000000;stroke-width:0.88051724;stroke-linecap:butt"
   onmouseout="style.opacity = 1;"
   onmouseover="style.opacity = 0.5;"
   id="270"
   class="st5"
   d="m 59.318245,434.45144 8.902029,0.3346 0.114467,1.59373 2.289345,2.2101 6.515828,1.19751 3.988745,12.02786 4.83404,-2.57111 1.232724,4.64913 -1.364801,2.76483 1.215113,5.56486 7.026527,2.59753 3.363576,12.89077 -3.777419,-0.44026 -11.52597,3.17867 1.197504,2.49187 2.113241,0.31698 3.654146,2.65036 -6.022737,5.01014 -4.06799,1.08304 -0.184909,1.33838 1.584931,0.39624 0.193714,2.99376 2.623942,5.46801 2.403812,-0.0352 0.695608,5.99632 3.363575,-0.21132 1.091842,2.7296 -1.761035,0.98618 -0.660387,1.73462 9.174989,3.72458 -0.994985,1.46166 3.58371,3.28433 -0.51951,2.50067 1.20631,5.75858 -2.042801,0.19372 -0.457869,1.62015 2.80885,3.68937 2.20129,-0.81008 0.73083,4.46422 -0.678,0.92455 -2.0516,-1.03021 -1.681789,0.96857 -2.359786,-0.70441 -1.628957,0.1761 -1.215114,-1.7082 -2.350981,0.3434 -3.310745,-2.43023 -1.734618,-2.7296 0.08805,-2.86168 -4.939702,-0.71322 0.299376,-4.97492 -6.806401,-0.78367 1.347191,-2.07802 0.25535,-3.48684 -0.704413,-0.43146 -2.641552,0.13208 -8.003902,5.63531 1.505685,-4.2529 -0.466674,-1.76103 4.816429,-3.51327 -5.203857,0.71322 0.343402,-5.36235 -0.968569,-1.39121 -6.304504,-0.14089 -2.509474,2.01639 -1.998774,-0.009 -6.806398,-3.49565 -6.630295,-12.17755 -0.986179,-3.49566 -2.0428,-0.77485 1.540905,-1.41764 1.27675,-3.5749 6.471802,-7.07935 3.706977,-9.60645 -0.202519,-5.2831 13.190148,3.08181 0.343402,-2.66797 -1.382412,-1.3648 0.484285,-2.25412 -2.0428,-2.82646 0.343401,-3.50446 -1.338386,-3.53088 1.065426,-0.90693 -1.488074,-0.65158 -0.422648,-2.30696 -4.81643,-4.27051 0.47548,-3.45162 0.686803,-0.85411 -0.854102,-4.12082 z">
<title
   id="title270">Königsbrück     absolute Anzahl: 38 relativ zur Einwohnerzahl: 0,84 %
</title>
</path>

    <!-- Gemeinde   -->
<path
   style="fill:#671212;fill-opacity:1;stroke:#000000;stroke-width:0.88051724;stroke-linecap:butt"
   onmouseout="style.opacity = 1;"
   onmouseover="style.opacity = 0.5;"
   id="280"
   class="st5"
   d="m 241.48212,466.9258 -0.0793,-0.88933 8.54982,-3.39879 6.48942,-3.89189 6.77117,-0.58994 -1.31197,-4.34976 8.06554,-2.7296 8.27686,0.95976 1.54971,3.87428 -0.40503,4.82523 -2.034,5.11581 4.34976,1.06542 0.47548,9.0253 0.8629,1.58493 3.34597,1.84029 0.76605,2.97614 8.57624,0.92455 -1.71701,7.26426 6.19884,1.08304 2.52708,-3.47804 1.84909,-1.06543 2.57111,0.0969 0.86291,-2.63275 1.45285,-0.46667 -1.06543,-1.46166 -0.26415,-4.81643 3.15225,2.57992 -1.42644,2.07802 0.009,1.89311 2.18368,7.17621 -3.10822,3.48685 -1.09185,4.15604 -11.49955,-3.15225 -8.99889,-1.47927 -2.51828,5.33594 -2.20129,-0.81008 -2.32457,-3.52207 -6.16362,-0.0616 0.31699,-1.47927 -5.96991,0.42265 -1.54971,1.48807 -2.26293,-0.5107 -10.11714,1.8667 -0.0704,-1.24153 -2.79124,0.29057 -1.91953,2.40381 1.63776,1.06543 0.19372,1.42643 -1.33839,0.22894 0.29938,-0.98618 -3.4076,-0.54592 -0.11447,-1.75223 h -4.35856 l -0.0528,-4.429 2.16607,-8.29448 0.15849,-4.34095 -0.40504,-6.4806 z">
<title
   id="title280">Königswartha     absolute Anzahl: 43 relativ zur Einwohnerzahl: 1,24 %
</title>
</path>

    <!-- Gemeinde   -->
<path
   style="fill:#6e1212;fill-opacity:1;stroke:#000000;stroke-width:0.88051724;stroke-linecap:butt"
   onmouseout="style.opacity = 1;"
   onmouseover="style.opacity = 0.5;"
   id="290"
   class="st13"
   d="m 336.90641,585.86607 -3.0642,-2.30696 3.11704,-0.38743 -0.31699,-1.58493 -3.00256,-2.31576 -3.14345,0.22894 2.87929,-0.3346 0.55473,-2.10444 -1.58494,-1.46165 4.05919,0.32579 0.41384,-1.97236 1.10945,0.0528 0.35221,-1.22392 2.09563,0.36101 -0.23774,-3.97994 -1.83147,-1.0214 -0.95977,-3.27552 3.31075,-3.90069 -2.09563,-1.74343 0.18491,-0.91573 -0.58995,-1.32958 2.60633,0.47547 1.20631,-2.26292 2.5535,0.53711 0.31698,-1.47046 0.90694,0.24654 -0.25535,0.86291 2.33337,0.21132 0.62517,1.49688 2.51827,1.48808 4.79002,0.91573 3.39879,-2.06921 0.79247,-1.81387 3.64534,-1.47046 1.30317,2.79124 -0.83649,0.47548 2.77363,1.22392 0.60755,1.96355 0.17611,1.93714 -1.84029,1.5409 0.73083,6.37495 -0.8629,0.18491 -0.28177,4.01516 -2.18368,1.07423 1.46166,-0.29057 -0.3346,2.34217 -0.93335,-0.11446 -0.20252,1.06542 -1.44404,-0.28176 0.73963,3.85666 -1.91072,3.53088 0.0176,1.14467 1.62895,1.1887 2.64156,-0.87172 -3.14345,6.48942 -6.20765,1.21511 1.45286,5.22147 -1.356,-0.0969 -2.13085,7.40515 0.14969,12.91719 -2.90571,0.0792 -4.68435,-1.54971 0.0969,0.99499 -3.17866,1.63776 -4.7636,-1.5409 -2.3862,0.80127 -1.77865,-6.82401 -1.35599,-0.25535 -0.0176,-2.44784 3.08181,-0.56353 -1.06543,-8.3385 -1.16228,-1.47046 -2.81766,0.66038 -3.42521,-3.751 -0.28177,2.10444 -2.3862,0.55472 -1.32077,2.65917 -2.39501,-0.94216 -0.64278,0.81008 0.78366,-2.32457 -1.16228,-2.83526 -1.20631,-0.14089 -0.0793,-1.54971 0.91574,0.11447 -0.678,-2.79124 2.5535,0.41384 0.95096,-1.77864 1.33839,0.45787 0.81008,-1.3648 5.2919,-0.0352 3.31955,-3.40761 z">
<title
   id="title290">Kubschütz     absolute Anzahl: 19 relativ zur Einwohnerzahl: 0,75 %
</title>
</path>
<!--        Lausznitz     -->
<path
   style="fill:#6e1212;fill-opacity:1;stroke:#000000;stroke-width:0.88051724;stroke-linecap:butt"
   onmouseout="style.opacity = 1;"
   onmouseover="style.opacity = 0.5;"
   id="300"
   class="st4"
   d="m 66.974782,517.51856 0.457869,1.76103 -1.505684,4.2529 8.003902,-5.63531 2.650357,-0.13208 0.695608,0.43146 -0.246545,3.48684 -1.355996,2.08683 6.806401,0.77485 -0.290571,4.97493 4.930897,0.71322 -0.07925,2.87048 1.725813,2.7208 3.310745,2.43023 2.350981,-0.3346 1.215114,1.6994 1.628956,-0.1673 -5.388765,8.91084 -0.176103,5.76738 -8.893224,4.56108 -0.237739,1.51449 -4.32334,-0.47548 -4.411394,2.48306 -3.997548,0.38743 -4.402587,2.3774 -2.130851,-0.68681 -1.215114,-0.80127 -0.02642,-1.89311 -1.558515,0.58114 -2.509474,-1.43524 -1.989969,1.74342 -1.734619,-0.0969 0.484284,-4.04158 -2.905707,6.19884 -2.227708,-0.41384 -2.80885,1.21511 -9.905819,-2.9057 -2.377397,-3.51327 -2.104436,0.58995 -3.706978,-2.49186 1.355997,-3.5661 -6.251672,-1.62896 -2.26293,-2.34217 8.849199,-1.54971 1.444048,-8.28567 0.264155,1.44405 5.036559,2.68558 1.523294,-0.17611 0.713219,-1.40002 0.211325,0.60756 -0.202519,-3.01137 5.001338,0.0616 -0.76605,-1.48807 0.80127,-2.42142 -1.408827,-1.40002 -3.891887,0.28176 0.563531,-0.73963 -1.417632,-1.15348 0.07925,-1.85789 1.303166,-1.70821 -2.324566,-1.44404 0.854102,-2.32457 0.158493,1.82267 0.23774,-1.73462 4.156041,2.12205 -0.361012,1.01259 0.598752,-0.91573 2.57111,-0.29938 -2.350981,-7.79258 2.491864,-1.50568 0.352207,0.58114 1.31197,-1.78745 2.852876,0.81888 0.325792,-0.63397 0.281765,-2.86168 -1.82267,0.75724 -4.904482,-1.97236 -2.958537,-2.7296 4.922091,-3.53968 -3.645341,-2.13085 4.728377,-0.88932 1.188698,2.40381 6.806399,3.49565 1.998774,0.009 2.518279,-2.01639 6.295698,0.14088 0.977375,1.39122 -0.352207,5.36235 5.212662,-0.71322 z">
<title
   id="title300">Laußnitz     absolute Anzahl: 16 relativ zur Einwohnerzahl: 0,86 %
</title>
</path>
   <!-- Gemeinde   -->

<path
   style="fill:#961212;fill-opacity:1;stroke:#000000;stroke-width:0.88051724;stroke-linecap:butt"
   onmouseout="style.opacity = 1;"
   onmouseover="style.opacity = 0.5;"
   id="310"
   class="st11"
   d="m 198.12105,365.16354 3.71578,0.27296 2.48306,1.73462 0.62517,-0.77486 1.08303,0.94216 -0.87171,0.94215 1.20631,-0.5195 -1.06543,2.85287 2.94974,1.22392 -1.0214,0.73083 -0.58115,-0.73083 -0.22893,1.8755 -2.90571,-0.78366 -0.88051,3.29314 -0.91574,0.44025 0.30818,2.40382 -0.87171,1.69939 -0.79247,-0.44025 -2.06921,5.40637 -2.08683,1.91072 -1.48807,-1.05662 -1.99878,3.82145 -3.21389,-3.94472 -1.80506,3.93591 -1.57612,-0.20252 -0.24655,3.14345 -1.98116,-0.26415 0.0528,-3.68937 -1.76103,0.13208 -0.48429,1.1975 1.26795,0.009 -9.41273,4.91329 2.54469,5.97871 -3.65415,2.08683 0.26416,2.41262 -1.75223,-1.66418 -3.28433,1.90192 -2.48306,3.87427 1.54091,0.23774 0.50189,1.33839 -1.99877,0.5107 -0.5019,-1.20631 -4.22648,4.02396 -4.20007,0.0881 0.36982,1.27675 2.06922,1.16229 -1.38242,1.68179 0.5107,3.27552 1.41764,0.28176 2.52708,-1.62015 -0.90693,4.39378 -4.27932,-2.43022 -2.5535,-3.15226 -5.08938,-2.54469 -1.0214,-1.59374 -1.11826,-9.69449 -2.2101,-2.70319 3.52207,0.26416 -0.22894,-1.28556 -0.95095,-2.29815 -2.79124,-0.98618 2.92331,-3.47804 8.21523,-3.93591 -4.29692,-4.27932 1.24152,-6.44538 -8.32969,-7.56365 -1.1975,-2.11324 2.5535,-3.72459 14.4757,5.57368 -0.13208,2.2189 1.43525,2.02519 2.29815,0.0704 1.15347,1.356 1.46166,-0.71322 0.93335,0.96857 4.15604,0.27296 1.29436,-8.54102 2.65917,1.58493 4.28811,0.37863 4.56108,-4.56108 3.28433,1.13586 -0.14969,-3.69817 5.59129,0.61636 0.97737,-1.24153 -0.76605,-1.11825 1.62016,-0.49309 z">
<title
   id="title310">Lauta     absolute Anzahl: 35 relativ zur Einwohnerzahl: 0,42 %
</title>
</path>

   <!-- Gemeinde   -->
<path
   style="fill:#821212;fill-opacity:1;stroke:#000000;stroke-width:0.88051724;stroke-linecap:butt"
   onmouseout="style.opacity = 1;"
   onmouseover="style.opacity = 0.5;"
   id="320"
   class="st7"
   d="m 97.352013,588.6212 -2.430228,-0.66038 -1.047815,-3.03779 0.193713,-4.49064 1.100647,-1.52329 -1.127062,-1.13587 2.447838,-4.0856 -0.836492,-6.07557 1.75223,-0.41384 5.608896,1.62896 4.63152,-4.66674 1.57613,4.91328 2.2189,1.54091 -0.51951,1.8755 0.73964,0.6868 0.39623,-1.82267 3.89189,-4.12962 1.40882,-4.71958 4.49064,0.88052 -1.11825,3.81264 0.83649,1.84028 -0.73083,4.49064 1.51449,2.81765 -0.89813,0.36982 1.68179,7.36993 -6.21645,9.41273 -3.78623,-3.49565 -0.86291,0.66038 -11.14734,-6.10198 z">
<title
   id="title320">Lichtenberg     absolute Anzahl: 11 relativ zur Einwohnerzahl: 0,68 %
</title>
</path>

   <!--        Lohsa     -->
<path
   style="fill:#961212;fill-opacity:1;stroke:#000000;stroke-width:0.88051724;stroke-linecap:butt"
   onmouseout="style.opacity = 1;"
   onmouseover="style.opacity = 0.5;"
   id="330"
   class="st1"
   d="m 269.97125,451.07296 -8.07434,2.72961 1.32078,4.34975 -6.77118,0.58995 -5.6089,-13.4455 -0.73963,-9.43034 0.74844,-1.46166 5.87305,-1.16228 -0.009,-1.47046 1.81387,-0.82769 1.44405,-0.29938 0.80127,2.44784 2.28934,-1.93714 0.54592,1.03021 1.1887,-1.20631 1.48808,0.90693 -0.5019,0.72203 3.12584,0.48428 0.52831,2.67678 4.05038,1.17989 4.30573,-3.88308 1.98116,-3.48685 8.82278,-9.60644 -7.55483,-0.99499 0.81007,3.77742 -1.11825,-0.678 -4.2441,0.76605 -4.0856,-1.10945 5.41518,-7.52842 0.0704,-3.0642 1.09185,-1.44405 -3.51327,-1.44405 -0.25535,-2.52708 2.17488,-3.76862 -8.94606,1.75223 -0.25535,-7.36993 2.53589,0.0793 -0.0969,-4.34095 5.4504,-0.11447 1.27675,2.17488 0.73083,-1.5321 3.81264,-0.64278 2.08682,0.81888 -0.13207,1.84909 3.9183,-4.21768 3.38118,-1.56732 1.41764,0.12327 0.678,2.76483 6.6479,0.41384 -0.0616,-2.16607 3.34597,0.0176 -0.10566,1.64657 1.10945,0.19371 -1.32958,7.47559 5.57367,2.43023 14.60778,0.0793 1.47047,-0.93335 -0.18491,-1.46166 2.5535,-2.80885 3.05539,4.98373 2.92332,0.72202 1.16228,1.99877 4.01516,1.76104 3.28433,-0.65158 -1.66418,12.59139 5.75859,1.34719 -1.1887,2.76483 -3.09942,1.47927 -2.58872,6.65671 -1.71701,1.43524 -1.21512,3.99755 2.3774,4.39378 -0.1761,2.06922 -2.18369,3.751 -1.04781,-0.58995 -1.24153,2.61514 -0.79247,-0.12327 -4.15604,7.93346 -2.18368,7.03533 2.28054,-0.25535 -2.45664,2.00758 -1.13587,2.7296 -6.17243,1.38241 -3.95352,8.15359 -2.15727,3.27553 -1.30316,0.29057 -3.14345,-2.57992 0.26416,4.81643 1.06542,1.45286 -1.45285,0.46667 -0.87171,2.64155 -2.56231,-0.10566 -1.84908,1.06543 -2.53589,3.47804 -6.19004,-1.08304 1.71701,-7.26426 -8.58504,-0.92455 -0.75725,-2.96734 -3.35477,-1.84909 -0.86291,-1.57612 -0.47548,-9.03411 -4.34975,-1.06543 2.03399,-5.1158 0.40504,-4.81643 -1.54971,-3.88308 z">
<title
   id="title330">Lohsa     absolute Anzahl: 23 relativ zur Einwohnerzahl: 0,44 %
</title>
</path>
<!-- Gemeinde   -->
<path
   style="fill:#6e1212;fill-opacity:1;stroke:#000000;stroke-width:0.88051724;stroke-linecap:butt"
   onmouseout="style.opacity = 1;"
   onmouseover="style.opacity = 0.5;"
   id="340"
   class="st4"
   d="m 372.89139,507.83287 -1.30316,-1.8755 -2.66797,2.44783 -3.3988,-0.0176 0.81888,-8.03912 -6.17242,-0.009 -0.71322,-14.6342 2.01638,-0.58995 0.0352,-1.01259 -1.91952,0.13208 -0.25535,-0.87172 -3.08181,0.59875 -0.89813,1.39122 -1.6994,-2.08682 -2.03399,-0.29938 -3.12584,-6.51583 -0.69561,0.0969 -0.21132,-1.23272 1.1975,-0.89813 5.11581,0.0352 -1.03901,-3.47804 1.90191,-0.81889 -1.23272,-1.28555 1.40002,-1.38241 -1.0214,-0.51951 -0.39623,-2.87048 1.31197,-0.53712 0.41384,-1.74342 5.11581,-0.76605 1.77864,-4.9221 1.89311,-1.05662 -1.58493,5.35355 -3.53968,6.36614 0.74844,0.57233 0.88933,-0.97737 1.69059,2.26293 3.63654,1.72581 0.38742,4.09441 2.08683,0.95976 -0.30818,0.88052 1.69059,0.96857 3.08181,5.70575 2.14846,-0.0264 3.20509,-5.11581 1.72581,1.356 3.46043,0.41384 -0.78366,1.50568 3.09062,0.26416 -3.02018,2.14846 -0.5195,2.80005 5.09819,0.5107 -1.90191,3.35477 5.25668,-0.39624 -0.78366,3.78623 -2.63274,4.72838 0.66919,4.51705 4.34976,2.67677 1.10945,3.61893 4.48183,0.22013 -1.85789,8.95486 -2.50067,4.50825 6.04035,1.07423 4.04157,6.70954 -0.43145,5.06297 -1.17989,-0.19371 -1.84029,1.62896 -3.54848,7.29068 -2.28054,6.06676 1.51449,1.70821 -1.25033,-0.76605 -1.47927,2.94973 -1.82267,-0.27296 -0.73964,7.25546 -2.49186,2.50067 -1.22392,-0.37862 -0.29057,2.35978 -2.31576,1.12706 -1.38241,-0.40503 -3.19628,-1.98997 -0.48429,-2.35979 -2.01638,0.37862 -0.49309,-1.32958 -0.91574,0.31699 -1.31197,-1.17989 -2.50067,2.21009 -0.77485,-1.10064 -3.58371,-0.89813 -0.60756,-1.96355 -2.77363,-1.21512 0.8365,-0.48428 -1.30317,-2.79124 -3.63654,1.47046 -0.80127,1.81387 -3.39879,2.06921 -4.79002,-0.90693 -2.51828,-1.49688 -0.62516,-1.49688 -2.33337,-0.21132 0.25535,-0.86291 -0.90694,-0.24654 -0.30818,1.47046 -2.5623,-0.53712 -1.19751,2.26293 -2.60633,-0.47548 0.58114,1.32959 -4.79001,-0.92455 0.66919,-2.50067 -2.5535,-1.41763 0.27296,-1.13587 -0.80127,-0.32579 0.94216,-2.2101 -1.71701,-0.14088 -1.8667,-2.17488 -0.10566,-2.26293 1.32078,-1.30316 -1.07424,0.009 -0.21132,-2.0428 1.66418,-0.62516 -0.46668,-1.84909 2.56231,0.66039 0.29937,-2.34218 0.65159,0.13208 -0.73964,-1.33839 0.59875,-2.07802 1.47047,-0.22013 -0.87171,-0.92454 1.86669,-2.46545 8.3297,1.45286 1.49688,-0.88933 1.22391,-2.80004 0.96857,0.32579 2.40382,-1.56732 1.26794,-2.3774 2.64155,0.76605 -0.75724,1.78745 1.1887,0.48429 -0.10567,1.20631 0.94216,0.12327 0.3434,-1.11826 4.34095,0.82769 1.81386,-1.81387 2.034,-8.82278 -1.88431,-2.97615 2.21891,0.0528 1.0214,-1.95475 1.47046,-0.42264 -0.22013,-0.8365 2.60633,-0.31698 z">
<title
   id="title340">Malschwitz     absolute Anzahl: 38 relativ zur Einwohnerzahl: 0,82 %
</title>
</path>
<!-- Gemeinde   -->

<path
   style="fill:#6e1212;fill-opacity:1;stroke:#000000;stroke-width:0.88051724;stroke-linecap:butt"
   onmouseout="style.opacity = 1;"
   onmouseover="style.opacity = 0.5;"
   id="350"
   class="st15"
   d="m 219.8029,511.29242 -5.98751,-2.43903 -3.85667,1.16228 -2.3862,2.7208 -0.12327,3.75981 1.13586,0.81888 -0.42264,2.77363 -0.88052,-0.44907 -0.25535,1.15348 0.38743,2.99376 2.31576,-0.11447 0.19371,1.54971 2.50067,1.15348 v 1.96355 l -2.58872,0.20252 0.35221,1.19751 2.54469,0.39623 0.24655,0.99498 -0.44026,1.62015 -1.72582,-0.30818 0.73964,3.7334 -3.60132,-0.46668 0.0176,1.05662 h -2.92332 l -0.58114,-1.25914 -3.54848,1.32078 -3.94472,-2.25412 -1.57612,-0.39624 0.59875,-2.70319 -5.39757,-4.15604 -1.67299,-0.95976 0.73083,-1.67298 -2.40381,-0.47548 -0.0264,-2.52709 -4.09441,-4.61391 -0.73083,-3.97113 2.35098,-0.0793 2.62394,-4.65793 3.7422,-0.44026 1.23273,3.27552 1.69939,-0.56353 -0.0792,-1.28555 3.19628,-0.0793 5.36235,-2.8881 -1.03901,-8.38252 -4.61392,-7.60767 6.83282,-2.74721 0.26415,1.47927 -1.60254,1.32077 0.044,1.34719 1.45285,0.60756 2.50948,-1.49688 3.09942,0.18491 1.35599,-0.92454 0.44907,-3.68057 5.72336,7.21144 -0.44906,6.34853 2.42142,4.69316 z">
<title
   id="title350">Nebelschütz     absolute Anzahl: 12 relativ zur Einwohnerzahl: 0,98 %
</title>
</path>

   <!-- Gemeinde   -->
 <path
   style="fill:#821212;fill-opacity:1;stroke:#000000;stroke-width:0.88051724;stroke-linecap:butt"
   onmouseout="style.opacity = 1;"
   onmouseover="style.opacity = 0.5;"
   id="360"
   class="st13"
   d="m 254.57805,497.25521 10.11714,-1.85789 2.26293,0.5019 1.54971,-1.48808 5.96111,-0.41384 -0.30818,1.47927 6.16362,0.0528 2.32456,3.53087 2.20129,0.80127 2.50948,-5.33593 9.00769,1.47927 -6.24287,14.35243 -3.46043,5.52965 0.22013,1.82267 -0.95976,0.44026 0.43145,4.49944 -2.94093,5.71456 1.06543,0.31698 0.57233,2.61514 -1.28555,7.16741 -5.02775,-1.08304 0.64277,2.17488 -0.99498,4.51706 -3.52207,-0.92455 -0.60756,4.66674 -1.71701,1.84909 -1.1975,-0.044 -0.044,-1.13586 -4.76359,-0.63398 -0.34341,-1.35599 -1.49688,-0.1585 -0.16729,0.63398 -0.59876,0.30818 0.72203,-0.8453 -1.3648,-1.07423 -1.47047,0.0176 -0.26415,1.08304 -2.28054,-0.19372 -1.47927,-0.79246 1.32078,-1.47047 -2.67678,0.19372 -1.81386,-0.58114 0.22893,-1.82267 2.10444,-0.14969 1.64657,-2.63275 -0.66039,-4.83404 1.04781,-0.31698 0.40504,-2.17488 1.1887,-0.0704 -0.27296,-0.85411 2.90571,-1.72581 2.54469,-3.073 -1.21511,-0.1585 -2.97615,-4.70196 -4.49064,0.0528 -0.3434,-1.5409 -3.26672,-1.57613 -0.95096,2.02519 -1.52329,-0.18491 -0.41385,1.38241 -3.45162,-2.7384 -0.39624,1.0302 -5.82022,-0.12327 -1.25033,-2.29815 0.5107,-0.78366 -2.57992,-0.28177 0.0176,-4.05918 2.68558,-1.85789 -0.1673,-2.48306 2.18369,-2.10444 0.38742,-7.40515 4.35856,-0.009 0.11447,1.75223 3.41641,0.54592 -0.29938,0.99498 1.33839,-0.22893 -0.19371,-1.43525 -1.63777,-1.05662 1.91953,-2.41261 2.79124,-0.29058 z">
<title
   id="title360">Neschwitz     absolute Anzahl: 14 relativ zur Einwohnerzahl: 0,58 %
</title>
</path>

    <!-- Gemeinde   -->
<path
   style="fill:#501212;fill-opacity:1;stroke:#000000;stroke-width:0.88051724;stroke-linecap:butt"
   onmouseout="style.opacity = 1;"
   onmouseover="style.opacity = 0.5;"
   id="370"
   class="st13"
   d="m 97.442706,477.70861 6.498214,0.45787 2.86168,2.02519 4.97493,0.044 3.51326,2.20129 0.1673,-1.49688 2.51828,2.03399 2.43023,0.25535 -4.23529,2.3686 1.04781,2.66796 1.73462,-2.0516 4.54347,-0.37862 1.39122,-1.47047 1.15348,0.24655 3.15225,3.21388 -3.99755,2.27174 0.96857,6.71835 1.5321,2.80885 2.63274,1.72581 -2.395,8.57624 -4.18246,9.86179 -10.45174,-0.50189 -6.45419,-4.33215 -4.79001,2.3862 -4.525862,-0.22013 -9.174989,-3.71578 0.669192,-1.74342 1.752229,-0.98618 -1.091841,-2.72961 -3.363575,0.21133 -0.695609,-5.99632 -2.403812,0.044 -2.623941,-5.47682 -0.193714,-2.99375 -1.584931,-0.39624 0.184909,-1.32958 4.067989,-1.09184 6.022737,-5.01014 -3.654145,-2.65036 -2.113242,-0.30818 -1.188698,-2.50067 11.52597,-3.17867 z">
<title
   id="title370">Neukirch     absolute Anzahl: 39 relativ zur Einwohnerzahl: 2,41 %
</title>
</path>
 <!-- Gemeinde   -->

<path
   style="fill:#821212;fill-opacity:1;stroke:#000000;stroke-width:0.88051724;stroke-linecap:butt"
   onmouseout="style.opacity = 1;"
   onmouseover="style.opacity = 0.5;"
   id="380"
   class="st11"
   d="m 266.87976,625.82834 9.64166,0.41384 0.1585,8.61146 -1.5233,0.8541 0.81888,1.82268 -0.52831,3.43401 1.06543,1.14468 -9.06933,2.62394 -0.57234,1.56732 -4.2617,2.57991 -0.63397,2.33337 2.70319,4.02397 -8.45297,-0.60756 -4.24409,-2.93212 -5.58248,-0.94216 -5.51204,-6.73595 0.35221,-3.67176 1.62015,-0.27296 -1.62896,-2.44784 0.11447,-2.37739 1.32077,-1.97236 0.17611,-6.4718 14.31721,-3.96233 z">
<title
   id="title380">Neukirch/Lausitz     absolute Anzahl: 30 relativ zur Einwohnerzahl: 0,62 %
</title>
</path>

    <!-- Gemeinde   -->
<path
   style="fill:#821212;fill-opacity:1;stroke:#000000;stroke-width:0.88051724;stroke-linecap:butt"
   onmouseout="style.opacity = 1;"
   onmouseover="style.opacity = 0.5;"
   id="390"
   class="st5"
   d="m 305.58818,599.5088 -0.0264,2.65916 3.08181,5.16864 0.82769,-0.47548 0.50189,1.99877 2.13085,0.0528 1.72582,3.50446 -1.8667,2.98496 -0.95976,-0.36102 -0.0704,2.95854 -3.10823,7.86302 -0.678,-0.20252 -1.67298,-1.91072 -3.68937,-0.35221 -0.45787,-2.48306 -6.61268,-1.40002 -0.86291,-0.45787 0.23774,-1.76103 -2.00758,0.5107 -0.90693,-1.11826 0.0528,-5.72336 3.0554,-7.36993 1.1975,0.12327 1.40883,-2.79124 1.12706,1.11826 0.78366,-2.61514 1.38241,-0.36101 -0.41384,-1.28555 1.10064,-0.45787 3.53088,0.62516 -0.49309,1.24153 z">
<title
   id="title390">Obergurig     absolute Anzahl: 12 relativ zur Einwohnerzahl: 0,58 %
</title>
</path>

   <!-- Gemeinde   -->
<path
   style="fill:#821212;fill-opacity:1;stroke:#000000;stroke-width:0.88051724;stroke-linecap:butt"
   onmouseout="style.opacity = 1;"
   onmouseover="style.opacity = 0.5;"
   id="410"
   class="st11"
   d="m 169.70764,574.37179 0.48428,3.31955 -0.81888,0.49309 -2.80004,0.5019 0.37862,1.42644 -1.93714,1.48807 -4.83404,1.15348 -0.46667,-0.79247 0.22893,1.59374 -1.95475,2.22771 -6.92086,3.62773 -2.87929,-1.62896 -4.62272,1.23273 -2.81766,-2.94974 -2.40381,-0.94215 1.5321,-3.15225 -0.98618,-1.12706 -0.89812,0.50189 -1.84029,-3.03778 4.11202,-2.13086 -2.32457,-0.45786 0.90694,-0.57234 5.22146,-0.63397 0.63398,-2.81766 2.13085,-1.66418 0.0264,-1.13586 4.49945,0.31698 8.98127,3.43402 5.7762,-3.69817 3.4076,-3.83906 3.17867,7.141 z">
<title
   id="title410">Ohorn     absolute Anzahl: 14 relativ zur Einwohnerzahl: 0,57 %
</title>
</path>

   <!-- Gemeinde   -->
<path
   style="fill:#6e1212;fill-opacity:1;stroke:#000000;stroke-width:0.88051724;stroke-linecap:butt"
   onmouseout="style.opacity = 1;"
   onmouseover="style.opacity = 0.5;"
   id="420"
   class="st5"
   d="m 192.40385,438.07565 6.99131,0.14969 2.03399,2.13085 0.97737,4.10321 2.43904,3.29313 8.54982,-4.49944 5.83783,-1.39122 0.89813,4.4202 -1.24153,5.56487 -5.32713,5.68814 1.61134,1.97236 1.44405,4.62272 0.29057,5.4592 1.10946,-0.63397 1.60254,2.13085 0.53711,7.30829 -2.22771,1.22392 -2.2189,-2.0428 -1.31197,0.5019 -9.98507,6.8064 -0.71321,2.75602 -6.83282,2.74721 -4.74599,-8.62907 -4.06799,-4.14724 -3.87427,-8.5234 -1.16228,0.90693 0.1761,2.23651 -3.30194,0.92455 -4.41139,-1.79626 0.24654,-2.29815 -1.15348,-0.55472 -0.77485,-2.94974 -0.95096,-0.23774 0.59875,-1.15347 -1.34719,-1.22392 -1.40883,2.99376 -2.8969,-1.21512 -3.80383,0.46668 1.0302,-1.38242 2.13966,0.40504 -0.81008,-5.53845 3.09062,-0.86291 1.16228,-1.71701 1.67298,0.1673 0.62517,-1.84028 0.58114,-9.04291 -2.36859,0.0176 -2.66797,-3.07301 0.42265,-2.23651 4.57869,0.22893 -0.50189,-2.06041 3.19628,-0.79246 1.74342,6.73595 3.84786,0.0704 3.26672,-3.0642 0.8453,2.78243 5.09819,7.66931 2.62394,-4.0768 z">
<title
   id="title420">Oßling     absolute Anzahl: 20 relativ zur Einwohnerzahl: 0,88 %
</title>
</path>

   <!-- Gemeinde   -->
<path
   style="fill:#961212;fill-opacity:1;stroke:#000000;stroke-width:0.88051724;stroke-linecap:butt"
   onmouseout="style.opacity = 1;"
   onmouseover="style.opacity = 0.5;"
   id="430"
   class="st4"
   d="m 33.065975,584.18164 -3.618925,-0.18491 0.405037,-0.95096 -3.821444,-4.81643 -2.685578,-0.52831 -0.07044,-2.8969 1.840281,-4.37617 5.018948,-3.95352 5.12461,-0.92455 0.405038,-2.7296 1.250335,-0.37862 9.905819,2.9057 2.80885,-1.21511 2.227708,0.41384 2.905707,-6.19884 -0.484284,4.04158 1.734619,0.0969 1.989969,-1.74342 2.509474,1.43524 1.558515,-0.58114 0.02642,1.90192 1.215114,0.79246 2.130851,0.68681 1.294361,-0.76605 0.572336,1.16228 1.752229,0.44906 -3.020174,6.68313 -0.369817,5.72336 -3.275524,0.66039 -0.783661,1.43524 0.316987,2.73841 0.827686,0.0528 1.179893,3.50446 -1.461659,-1.91953 0.906933,4.41139 1.135867,0.93335 -4.473027,3.32836 -3.169862,0.64277 -1.849087,4.01516 -1.444048,-0.65158 -1.919527,1.30317 -1.091842,-2.33337 -4.244093,-3.71579 -3.786224,-0.90693 -0.862907,-3.02017 -0.924543,-0.009 -1.576126,-6.21645 -1.320776,-0.97738 z">
<title
   id="title430">Ottendorf-Okrilla     absolute Anzahl: 49 relativ zur Einwohnerzahl: 0,49 %
</title>
</path>

   <!-- Gemeinde   -->
<path
   style="fill:#5a1212;fill-opacity:1;stroke:#000000;stroke-width:0.88051724;stroke-linecap:butt"
   onmouseout="style.opacity = 1;"
   onmouseover="style.opacity = 0.5;"
   id="440"
   class="st15"
   d="m 214.17728,553.71134 0.11447,1.92833 -0.86291,1.17109 -0.30818,-1.38241 -0.23774,1.89311 -3.96233,-0.71322 0.29057,4.64033 2.79124,-0.59876 1.0214,1.70821 -0.62517,1.31197 1.08304,0.89813 -1.47046,2.72079 -5.19505,2.2101 -2.85288,-0.49309 -2.47425,3.9183 -4.66675,1.99878 -2.71199,0.1673 -3.54848,-4.30573 1.83147,-4.21768 2.41262,-0.64278 1.63776,-4.14723 2.034,-0.43146 -0.29057,-1.86669 1.76984,-1.21512 -0.8453,-4.18246 -1.80506,-0.14968 0.91574,-5.37116 -0.81008,-1.21511 1.10945,-1.55852 1.92834,0.86291 0.40503,-1.25914 -3.16105,-2.19249 0.20252,-3.02898 -1.92834,-1.14467 1.00379,-4.44661 3.94472,2.24532 3.54848,-1.31197 0.58115,1.25033 h 2.92331 l -0.0176,-1.05662 3.60132,0.46667 -0.73964,-3.72458 1.72582,0.29937 0.44026,-1.61134 1.24153,0.41384 -0.5107,1.84908 1.92833,1.10065 3.73339,0.81008 1.98116,-1.40883 -2.49186,2.5535 4.24409,0.14969 1.09185,1.71701 -1.22392,1.34719 0.95096,-0.1673 0.73963,2.73841 4.23529,0.73083 1.03901,1.84908 1.8755,-0.74844 -1.14467,0.97738 0.0881,2.31576 2.79124,0.32579 0.65158,-1.45285 1.39122,0.0968 0.0793,1.58493 5.87305,0.97738 -0.30819,1.41763 0.47548,1.60254 -0.96857,2.27174 1.6994,0.88932 -0.30818,2.84407 -3.0642,-0.0616 -3.85666,-3.08181 -4.03277,3.44283 0.81888,-1.32959 -2.07802,-0.66038 -0.86291,-1.91073 -1.66418,0.41385 0.0528,-0.74844 -2.7384,-0.98618 0.32579,-3.54849 -6.38375,1.26795 -0.17611,1.1887 -0.0881,-1.12706 -1.43524,0.22893 z">
<title
   id="title440">Panschwitz-Kuckau     absolute Anzahl: 35 relativ zur Einwohnerzahl: 1,67 %
</title>
</path>

    <!-- Gemeinde   -->
<path
   style="fill:#5f1212;fill-opacity:1;stroke:#000000;stroke-width:0.88051724;stroke-linecap:butt"
   onmouseout="style.opacity = 1;"
   onmouseover="style.opacity = 0.5;"
   id="450"
   class="st4"
   d="m 121.85064,563.38382 -4.49063,-0.88052 -2.53589,-7.26426 -4.38498,-3.31075 -1.5321,-5.2831 -1.83148,0.36981 -0.79246,-4.49944 -2.01639,-1.60254 8.58505,-5.14222 8.26805,-1.27675 -0.0352,-1.23273 0.75725,2.57112 4.95731,-0.99499 2.66797,4.24409 -1.1887,0.51951 1.11826,3.35477 -0.81888,2.2189 2.13085,-0.1761 2.47425,6.62149 1.17989,0.3346 0.22013,6.67432 1.04782,1.62015 1.17989,-0.22894 0.79247,1.76984 2.97615,0.28177 3.62773,1.83147 1.21511,1.55852 -0.86291,1.61135 2.29815,1.82267 -0.0264,1.13586 -2.13085,1.66418 -0.63398,2.81766 -5.22146,0.63397 -0.90694,0.57234 2.32457,0.45787 -4.11202,2.13085 1.84028,3.03778 0.89813,-0.50189 0.99499,1.12706 -1.54091,3.15225 -3.79503,1.57613 -3.02017,-2.75602 -5.92588,1.52329 -2.47426,-1.38241 -1.67298,-7.36993 0.89813,-0.36101 -1.51449,-2.81766 0.73083,-4.49944 -0.8453,-1.84028 z">
<title
   id="title450">Pulsnitz     absolute Anzahl: 111 relativ zur Einwohnerzahl: 1,49 %
</title>
</path>

    <!-- Gemeinde   -->
<path
   style="fill:#961212;fill-opacity:1;stroke:#000000;stroke-width:0.88051724;stroke-linecap:butt"
   onmouseout="style.opacity = 1;"
   onmouseover="style.opacity = 0.5;"
   id="460"
   class="st11"
   d="m 250.57962,521.26076 0.41385,-1.38242 1.52329,0.18491 0.95096,-2.02519 3.26672,1.57613 0.3434,1.5409 4.49064,-0.0528 2.97615,4.70196 1.21511,0.14969 -2.54469,3.08181 -2.90571,1.72582 0.27296,0.8541 -1.1887,0.0704 -0.40504,2.16607 -1.04781,0.32579 0.66039,4.83404 -1.64657,2.63275 -2.10444,0.14969 -0.22893,1.82267 1.81386,0.58114 -1.3736,0.90693 -7.81019,-0.53711 -0.49309,-1.16229 -1.54091,-0.27296 -0.13207,-5.97871 -5.45041,-1.40002 -1.74342,-3.53088 1.10065,-0.92454 -0.13208,-4.07679 2.2189,-1.32078 -0.1673,-6.4718 5.82022,0.12327 0.39624,-1.03901 z">
<title
   id="title460">Puschwitz     absolute Anzahl: 3 relativ zur Einwohnerzahl: 0,37 %
</title>
</path>

    <!-- Gemeinde   -->
<path
   style="fill:#671212;fill-opacity:1;stroke:#000000;stroke-width:0.88051724;stroke-linecap:butt"
   onmouseout="style.opacity = 1;"
   onmouseover="style.opacity = 0.5;"
   id="470"
   class="st9"
   d="m 226.24477,509.22937 2.75602,-0.71322 0.80127,1.72581 -0.92455,1.37361 1.22392,0.009 -0.16729,6.41898 1.44404,0.13207 -0.009,3.28433 -1.17989,-0.0528 -0.21133,2.81766 1.20631,0.63397 0.0264,1.74342 -2.42143,-0.91574 -1.08303,1.32078 -0.27296,-1.34719 -0.53712,1.47046 -1.49688,-0.0352 0.0176,1.59374 -1.54971,1.04781 0.56353,0.38743 -2.29815,0.70442 0.44026,2.14846 -1.21511,0.92454 -1.98997,1.40883 -3.72459,-0.81008 -1.92833,-1.09184 0.5107,-1.85789 -1.24153,-0.41384 -0.25535,-1.00379 -2.53589,-0.38743 -0.36101,-1.1975 2.59752,-0.21133 v -1.96355 l -2.50067,-1.15348 -0.20252,-1.5409 -2.30695,0.11446 -0.39623,-2.99376 0.25535,-1.15347 0.88051,0.44906 0.42265,-2.77363 -1.12706,-0.82769 0.12327,-3.751 2.3862,-2.7208 3.85667,-1.16228 5.98752,2.43023 0.29057,1.32958 1.75223,0.32579 z">
<title
   id="title470">Räckelwitz     absolute Anzahl: 13 relativ zur Einwohnerzahl: 1,15 %
</title>
</path>

    <!-- Gemeinde   -->
<path
   style="fill:#821212;fill-opacity:1;stroke:#000000;stroke-width:0.88051724;stroke-linecap:butt"
   onmouseout="style.opacity = 1;"
   onmouseover="style.opacity = 0.5;"
   id="480"
   class="st4"
   d="m 105.04861,606.22274 0.3346,4.17366 1.37361,1.06542 -1.51449,1.00379 -2.23652,0.29938 -1.64656,4.48183 -1.23273,-1.32958 -1.646565,0.60756 2.289345,3.16986 -0.23774,2.28934 -0.854101,-0.0264 -0.73083,3.49565 -1.796255,0.5019 -0.915738,2.37739 -3.293134,2.7208 3.398796,5.30952 2.139657,-0.27296 2.800045,6.70954 -1.27675,4.17365 1.97236,0.71322 0.73083,1.5233 -2.67677,0.98618 -0.915742,-0.59876 -2.271735,3.82145 0.994985,1.45285 0.537115,-0.76605 1.523295,1.15348 -0.519505,0.70441 -8.778757,1.8667 0.827686,-1.10945 -1.752229,0.64278 -0.959764,-1.21512 0.827686,-0.8629 -3.574899,-2.77363 -8.056733,-1.11826 -4.20007,-1.90192 3.108226,-3.49565 2.456646,-1.14467 0.369817,-1.76104 -2.474256,-0.71322 2.245322,-1.83147 -0.06164,-1.31197 2.29815,-0.49309 -0.325792,1.39121 -1.655372,0.0793 2.324565,2.33337 1.875502,-1.34719 -0.713219,-2.0428 0.722024,-1.26795 1.435243,-0.1849 0.686804,-2.97615 -0.968569,-1.49688 0.633972,-0.41384 -1.523295,-1.32078 -1.602541,0.14969 -1.444048,-2.74722 -1.866697,-0.95096 1.628957,-3.09942 -2.800045,-2.13965 0.184909,-1.32078 h -2.386204 l -3.011369,-7.18502 -2.650357,-1.89311 -1.127062,-2.60633 -0.810076,-4.14724 8.118369,-3.05539 0.08805,-3.79503 0.695609,1.91072 2.623944,-0.12327 1.408828,1.22392 0.757245,-1.15348 2.201293,1.12706 0.396232,-2.16607 2.306956,2.07802 -0.334597,1.06542 2.817654,3.45163 0.264155,-0.79246 2.835266,0.72202 6.815203,-1.71701 2.879295,2.09563 1.78745,-1.60254 z">
<title
   id="title480">Radeberg     absolute Anzahl: 102 relativ zur Einwohnerzahl: 0,55 %
</title>
</path>

    <!-- Gemeinde   -->
<path
   style="fill:#6e1212;fill-opacity:1;stroke:#000000;stroke-width:0.88051724;stroke-linecap:butt"
   onmouseout="style.opacity = 1;"
   onmouseover="style.opacity = 0.5;"
   id="490"
   class="st5"
   d="m 285.92182,518.15429 0.96857,-0.44026 -0.22013,-1.82267 3.45163,-5.53845 6.25167,-14.34363 11.49075,3.15225 1.09185,-4.15604 3.10822,-3.48685 -2.18368,-7.17621 -0.009,-1.89311 1.42644,-2.07802 1.30317,-0.28177 2.14846,-3.28433 3.95352,-8.15359 6.18123,-1.37361 1.13587,-2.7384 2.45664,-1.99878 2.2101,0.20252 1.43524,1.93714 0.0704,8.04793 1.3648,1.65537 0.39623,2.58872 -0.92454,-0.0352 -0.39624,1.23272 1.76104,1.98117 1.17989,-0.22894 -2.71199,11.52597 -2.74722,2.96735 0.36982,1.98996 2.43903,2.07803 0.0793,6.38375 -6.45419,5.18624 -0.0969,-1.67298 -4.49944,0.75724 -1.1887,1.54971 0.0264,3.2315 -2.14847,1.47927 -1.99877,-0.25535 0.63397,1.78745 -0.99498,0.54592 -0.0264,1.47927 3.82145,0.15849 1.5409,1.0214 1.28556,2.56231 -2.81766,1.55851 1.93714,0.0881 1.26795,2.45664 -1.93714,0.64278 -0.88052,1.50568 -1.83148,-0.15849 -1.8755,8.89322 -1.35599,-0.26415 -0.79247,3.14344 -1.10065,-0.26415 -0.90693,1.26794 -0.98618,3.7334 -4.84284,0.91573 -2.19249,-2.60633 -3.30194,0.0176 1.15348,6.92087 -1.5321,2.24532 -4.05919,-2.09563 0.22894,-1.47927 -1.50569,-0.22894 -0.0176,1.17109 -0.90693,0.0528 0.46667,-1.25914 -0.8629,0.53712 0.21132,-0.71322 -2.7296,-1.92833 -2.62394,1.45285 -1.17109,2.10444 0.97737,0.70441 -0.53711,1.30317 -3.24031,-1.95475 1.11826,-0.53712 -0.73963,-2.0516 -0.63398,0.92454 -2.11324,-1.82267 -2.50067,2.28054 -1.54971,-1.30317 -2.0516,1.56732 -2.40381,-1.69939 0.60755,-4.66675 3.52207,0.92455 0.98618,-4.51706 -0.64278,-2.18368 5.02776,1.09184 1.28555,-7.17621 -0.57233,-2.60633 -1.06543,-0.31699 2.94093,-5.72336 z">
<title
   id="title490">Radibor     absolute Anzahl: 25 relativ zur Einwohnerzahl: 0,80 %
</title>
</path>

<!-- Gemeinde Ralbitz-Rosenthal  -->
<path
   style="fill:#821212;fill-opacity:1;stroke:#000000;stroke-width:0.88051724;stroke-linecap:butt"
   onmouseout="style.opacity = 1;"
   onmouseover="style.opacity = 0.5;"
   id="500"
   class="st6"
   d="m 241.47948,466.92668 3.09061,7.67811 0.40504,6.48061 -0.14969,4.34095 -2.17487,8.29447 -0.3346,11.84295 -2.19249,2.10444 0.1673,2.48306 -2.67677,1.85789 0.0264,2.18368 -3.20508,-0.58114 -0.29057,1.42644 -1.79626,-0.52831 1.60254,1.13587 -1.8843,-0.52831 -0.69561,3.05539 -1.44405,-0.14088 0.1761,-6.41017 -1.22391,-0.009 0.91573,-1.37361 -0.79246,-1.72581 -2.76483,0.71322 -4.39378,3.71578 -1.75223,-0.32579 -1.11825,-7.88063 -2.42143,-4.70196 0.44907,-6.34853 -5.72336,-7.21144 -0.44907,3.68056 -1.35599,0.92455 -3.09943,-0.18491 -2.50947,1.50568 -1.45285,-0.61636 -0.044,-1.34719 1.60254,-1.32078 -0.26415,-1.47046 0.70441,-2.76483 9.98507,-6.80639 1.31197,-0.49309 2.2189,2.0428 2.23651,-1.22392 -0.54592,-7.3171 5.28311,-1.50569 4.93089,-2.5535 0.44907,-1.14467 1.44405,0.82769 z">
<title
   id="title500">Ralbitz-Rosenthal     absolute Anzahl: 10 relativ zur Einwohnerzahl: 0,59 %
</title>
</path>

    <!-- Gemeinde   -->
<path
   style="fill:#671212;fill-opacity:1;stroke:#000000;stroke-width:0.88051724;stroke-linecap:butt"
   onmouseout="style.opacity = 1;"
   onmouseover="style.opacity = 0.5;"
   id="510"
   class="st11"
   d="m 168.91429,580.70271 -3.36358,2.10444 -0.53711,-1.20631 1.94594,-1.47927 -0.38743,-1.43524 2.80005,-0.5019 4.15604,1.98117 0.81008,-1.41764 0.87171,0.57234 1.50568,-2.50067 4.12963,2.74722 10.88319,9.28065 -0.28176,2.43023 2.23651,0.44906 -4.34095,5.88185 0.83649,5.79381 -7.33471,2.40381 -4.16484,-2.23651 -5.82022,-7.70453 0.77485,-4.82523 -0.92454,-6.03155 -3.9183,0.0528 0.88052,-1.82267 z">
<title
   id="title510">Rammenau     absolute Anzahl: 15 relativ zur Einwohnerzahl: 1,12 %
</title>
</path>

    <!-- Gemeinde   -->
<path
   style="fill:#6e1212;fill-opacity:1;stroke:#000000;stroke-width:0.88051724;stroke-linecap:butt"
   onmouseout="style.opacity = 1;"
   onmouseover="style.opacity = 0.5;"
   id="525"
   class="st5"
   d="m 307.82557,625.8618 11.52597,-0.1673 1.25914,2.23652 2.56231,0.48428 0.48428,1.32958 2.20129,0.81008 0.25535,-1.61135 2.91452,-0.96857 5.24788,0.1585 -0.52831,5.67933 -2.62394,1.40883 -0.11447,1.08304 2.91451,4.39378 4.13843,0.99498 -0.26415,7.89824 -5.23908,1.79626 -0.95976,2.50947 1.10945,1.49688 -3.64534,0.678 -1.03021,-2.57111 -5.92588,-1.09184 -8.60265,2.19248 1.54971,3.82145 -3.7334,2.23651 -2.76482,-0.91574 -3.09062,0.38743 -6.96489,-3.69817 -3.00256,-2.92332 -1.5233,-4.00635 8.31209,-4.89568 0.42265,-1.83147 2.57111,-1.91953 -1.356,-0.5019 0.83649,-1.06542 0.1673,-4.32334 1.47046,-1.55852 0.74844,-7.74855 z">
<title
   id="title525">Schirgiswalde-Kirschau     absolute Anzahl: 51 relativ zur Einwohnerzahl: 0,82 %
</title>
</path>

   <!-- Gemeinde   -->
<path
   style="fill:#821212;fill-opacity:1;stroke:#000000;stroke-width:0.88051724;stroke-linecap:butt"
   onmouseout="style.opacity = 1;"
   onmouseover="style.opacity = 0.5;"
   id="530"
   class="st4"
   d="m 244.69337,612.76939 -0.5019,1.356 1.45285,2.29815 0.60756,5.9699 0.22894,1.04782 0.82768,-0.15849 0.26416,2.28934 -4.72838,1.23272 -0.1761,6.47181 -1.32078,1.97236 -0.12327,2.37739 1.63776,2.44784 -1.62015,0.27296 -0.35221,3.67176 5.51204,6.73595 -3.0642,5.20386 -4.24409,3.3988 -3.7422,0.84529 0.75724,-3.15225 -1.90192,-1.46166 0.21133,-1.48807 -1.74343,-3.24911 -5.08938,-1.26794 0.81888,-1.28556 -2.06041,-1.1975 -12.28322,-5.17744 -0.58114,0.73083 -7.19383,-1.91073 -2.2101,3.89189 -2.02518,-0.62517 0.38742,-0.90693 -1.40882,-0.81008 1.83147,-3.02898 -2.62394,-0.95095 0.63397,-0.73964 1.98997,0.65158 0.28177,-0.75724 -4.13843,-1.25034 0.94215,-1.23272 3.89189,0.28177 -1.1887,-6.24287 1.1975,-1.03901 -1.13587,-0.25535 2.40382,-2.2101 4.36736,-0.65158 2.10444,1.93713 2.8969,-0.0969 2.08682,1.30316 5.19506,-8.99888 -0.72203,-0.76605 0.75725,-1.23273 -1.98117,-2.46545 -2.69438,-1.17989 0.8541,-2.61513 3.61893,-1.76984 -0.55473,-1.40883 4.20887,2.85287 5.25669,-0.42264 2.65916,2.0428 5.15103,-1.00379 z">
<title
   id="title530">Schmölln-Putzkau     absolute Anzahl: 17 relativ zur Einwohnerzahl: 0,57 %
</title>
</path>

    <!-- Gemeinde   -->
<path
   style="fill:#6e1212;fill-opacity:1;stroke:#000000;stroke-width:0.88051724;stroke-linecap:butt"
   onmouseout="style.opacity = 1;"
   onmouseover="style.opacity = 0.5;"
   id="550"
   class="st11"
   d="m 87.042037,462.21943 -1.206308,-5.56487 1.355996,-2.75602 -1.232724,-4.65793 -4.83404,2.57991 -3.988745,-12.02786 2.97615,-1.89311 0.625168,0.63397 1.884307,-0.81008 1.320775,1.09184 4.226483,-1.35599 -0.369817,-3.24031 9.095742,-2.2277 2.800045,-1.98997 1.488071,0.28176 6.06677,-5.29191 3.54848,-0.30818 4.96612,2.74722 -1.06543,12.29202 13.04046,2.36859 4.69316,5.6265 -3.9095,3.9007 -3.63653,7.00011 1.77864,2.92331 3.30194,3.27553 8.1712,-1.48808 4.39378,2.89691 5.03656,-0.17611 -1.01259,1.00379 -0.98618,5.83783 -2.21891,2.25413 -4.69315,0.6868 -12.61782,8.77876 -1.14467,-0.24655 -1.40002,1.47047 -4.54347,0.37862 -1.73462,2.0516 -1.03901,-2.66796 4.22648,-2.3686 -2.43022,-0.25535 -2.51828,-2.03399 -0.1585,1.49688 -3.51326,-2.20129 -4.97492,-0.0352 -2.87049,-2.03399 -6.498215,-0.45787 -3.363576,-12.89077 z">
<title
   id="title550">Schwepnitz     absolute Anzahl: 19 relativ zur Einwohnerzahl: 0,77 %
</title>
</path>

    <!-- Gemeinde   -->
<path
   style="fill:#961212;fill-opacity:1;stroke:#000000;stroke-width:0.88051724;stroke-linecap:butt"
   onmouseout="style.opacity = 1;"
   onmouseover="style.opacity = 0.5;"
   id="560"
   class="st13"
   d="m 287.97431,675.62335 -5.23908,-4.70196 4.61391,-13.97381 8.15359,-3.44282 3.00257,2.93212 6.96489,3.69817 3.08181,-0.38742 2.76482,0.91573 3.7422,-2.24531 -1.54971,-3.82145 8.59385,-2.18368 5.92588,1.08303 1.03901,2.57111 3.64534,-0.67799 1.88431,1.40882 -0.44907,0.58115 4.69316,2.93212 -2.39501,8.59385 2.79124,0.48428 v 3.17867 l 1.3472,5.44159 -0.76605,8.56744 -7.9951,-1.5321 0.44026,-2.76483 -2.15727,-0.99498 -2.05161,-3.07301 -5.18624,-0.44906 -8.21523,6.1284 -1.39121,2.50067 -5.35355,2.97615 -4.52586,0.15849 -9.47436,-4.5963 -1.98117,-2.16607 -0.1673,-7.04414 z">
<title
   id="title560">Sohland a. d. Spree     absolute Anzahl: 33 relativ zur Einwohnerzahl: 0,49 %
</title>
</path>

   <!-- Gemeinde   -->
<path
   style="fill:#6e1212;fill-opacity:1;stroke:#000000;stroke-width:0.88051724;stroke-linecap:butt"
   onmouseout="style.opacity = 1;"
   onmouseover="style.opacity = 0.5;"
   id="570"
   class="st4"
   d="m 322.84103,326.515 1.14467,1.56732 0.69561,6.74476 -5.47681,12.81152 8.48818,0.22894 6.35734,1.71701 0.044,7.24665 4.68435,1.96356 -2.08682,1.68179 -2.34218,-0.65159 -1.34719,6.65671 1.93714,1.36481 -0.1761,2.35098 -1.59374,2.40381 -0.80127,-0.55473 2.57991,3.94472 4.5963,2.2101 -1.14467,1.30316 2.52709,3.0554 2.00758,0.24654 -3.61893,2.85288 -1.56732,4.41139 3.11703,1.59374 6.76237,0.10566 1.63776,3.04659 -0.55472,4.38497 5.99632,0.73083 0.75725,1.80506 -0.81889,2.75602 -0.96856,-0.11446 -4.22649,7.69572 1.10065,3.22269 -3.02017,-0.044 0.0616,1.75223 -7.95107,1.0214 1.66418,-12.59139 -3.28433,0.66038 -4.00635,-1.76984 -1.16229,-1.99877 -2.92331,-0.72202 -3.0642,-4.98373 -2.5535,2.81765 0.19371,1.45286 -1.47046,0.93335 -14.61659,-0.0793 -5.57367,-2.43023 1.32958,-7.47559 -1.10065,-0.19371 0.10566,-1.64657 -3.34596,-0.0176 0.0616,2.16607 -6.65671,-0.41384 -0.66919,-2.76483 -1.42644,-0.12327 -3.38119,1.56732 -3.90949,4.21768 0.13208,-1.84909 -2.08683,-0.81888 -3.81264,0.64278 -0.73083,1.5321 -5.82022,-9.49198 2.24532,-0.94215 -0.56353,-0.76605 -6.92967,-1.41763 -1.30317,0.74844 -0.31698,-1.1799 -4.67555,0.14969 -0.0969,-3.36357 -1.5321,-0.36982 1.46166,-1.29436 0.12327,-8.82278 7.89824,3.94471 -0.0704,2.33337 7.37874,4.66675 4.33214,-7.36113 0.88052,-3.81264 -3.20508,-0.81888 -3.47805,-3.10823 -0.0264,-2.86168 1.5321,-1.22392 -2.87929,-3.2491 -3.36358,-1.23273 0.6868,-1.83147 1.00379,0.0704 -0.1761,-2.72961 2.2101,1.72582 3.37238,-1.72582 1.42644,-7.1498 -1.34719,0.009 0.29937,-2.33337 7.15861,-0.60756 8.5234,-7.84541 4.19127,-0.20252 -0.009,-5.40637 5.23027,-0.14088 4.71077,3.30194 2.35098,-1.63777 11.45553,-3.46923 z">
<title
   id="title570">Spreetal     absolute Anzahl: 16 relativ zur Einwohnerzahl: 0,87 %
</title>
</path>

    <!-- Gemeinde   -->
<path
   style="fill:#821212;fill-opacity:1;stroke:#000000;stroke-width:0.88051724;stroke-linecap:butt"
   onmouseout="style.opacity = 1;"
   onmouseover="style.opacity = 0.5;"
   id="580"
   class="st16"
   d="m 142.90381,551.62539 8.18001,-0.81007 2.11324,2.65916 -1.14467,1.67298 0.29057,1.54971 4.06799,-0.86291 3.53967,5.55607 3.89189,0.14969 4.69316,2.34217 0.99498,1.22392 -3.4164,3.84786 -5.7762,3.68937 -8.97247,-3.42521 -4.50825,-0.32579 -2.29815,-1.82268 0.86291,-1.61134 -1.21511,-1.55852 -3.62773,-1.82267 -2.97615,-0.29057 -0.79247,-1.76103 -1.17989,0.22013 -1.04782,-1.61135 -0.22013,-6.68313 -1.17989,-0.32579 -2.47425,-6.62149 0.63397,-0.81888 9.05172,-0.79246 z">
<title
   id="title580">Steina     absolute Anzahl: 11 relativ zur Einwohnerzahl: 0,68 %
</title>
</path>

    <!-- Gemeinde   -->
<path
   style="fill:#821212;fill-opacity:1;stroke:#000000;stroke-width:0.88051724;stroke-linecap:butt"
   onmouseout="style.opacity = 1;"
   onmouseover="style.opacity = 0.5;"
   id="590"
   class="st11"
   d="m 261.96999,651.2163 0.64278,-2.33338 4.2529,-2.57991 0.58114,-1.56732 9.06933,-2.62394 3.66295,-0.73964 4.33215,0.61636 3.10822,3.92711 6.35734,3.59251 1.52329,3.99755 -8.14478,3.44282 -4.61391,13.97381 -6.64791,2.63275 -0.75724,1.68179 -3.59251,-0.009 -4.31454,-5.60889 -0.10566,-1.62016 -3.78623,-3.7598 0.46668,-1.36481 -1.0214,-2.64155 -2.45664,0.44026 -1.0126,-1.29436 2.64155,-0.11447 0.82769,0.88933 1.69059,-4.91329 z">
<title
   id="title590">Steinigtwolmsdorf     absolute Anzahl: 16 relativ zur Einwohnerzahl: 0,57 %
</title>
</path>

    <!-- Gemeinde   -->
<path
   style="fill:#821212;fill-opacity:1;stroke:#000000;stroke-width:0.88051724;stroke-linecap:butt"
   onmouseout="style.opacity = 1;"
   onmouseover="style.opacity = 0.5;"
   id="600"
   class="st11"
   d="m 69.060552,565.81581 -1.75223,-0.44026 -0.572336,-1.16228 3.108226,-1.61135 3.997548,-0.38743 4.411394,-2.48306 4.32334,0.47548 2.236514,-0.50189 3.662951,0.97737 1.699398,-1.13586 2.007579,0.63397 -1.80506,2.44784 -2.967342,0.70441 2.800044,2.35098 2.104436,-1.00379 3.33716,2.93212 0.836492,6.07557 -2.447838,4.0856 1.127062,1.13587 -1.100647,1.52329 -0.193714,4.49064 1.047816,3.03779 2.430227,0.66038 3.768618,-4.05918 11.14734,6.10198 0.86291,-0.66038 3.78623,3.49565 0.45786,-0.86291 2.49187,0.82769 0.49309,2.26293 -1.1887,1.76103 -1.84909,0.009 -0.0704,2.71199 -5.89946,2.64155 0.0792,2.0428 -0.98618,-1.25914 -1.05662,0.14969 -4.34095,2.43903 -1.12706,-1.40002 -1.78745,1.60254 -2.87929,-2.09563 -6.806399,1.71701 -2.84407,-0.72202 -0.264155,0.79246 -2.817655,-3.45163 0.334597,-1.06542 -2.306955,-2.07802 -0.396233,2.16607 -2.201293,-1.12706 -0.757245,1.15348 -1.408828,-1.22392 -2.623944,0.12327 -0.695608,-1.91072 -1.849087,-0.44026 0.369818,-1.91072 -1.743424,-0.678 -0.06164,-1.33839 -0.898127,-0.26415 0.669193,-1.21512 -1.822671,-0.5107 -0.810076,-1.52329 -3.222693,1.17109 -3.715783,-2.8793 -0.906932,-4.41139 1.470463,1.91073 -1.188698,-3.49566 -0.827686,-0.0528 -0.316986,-2.73841 0.78366,-1.43524 3.275524,-0.66039 0.369818,-5.72336 z">
<title
   id="title600">Wachau     absolute Anzahl: 23 relativ zur Einwohnerzahl: 0,54 %
</title>
</path>

    <!-- Gemeinde   -->
<path
   style="fill:#6e1212;fill-opacity:1;stroke:#000000;stroke-width:0.88051724;stroke-linecap:butt"
   onmouseout="style.opacity = 1;"
   onmouseover="style.opacity = 0.5;"
   id="610"
   class="st5"
   d="m 399.87484,544.9273 2.86168,5.09819 0.19372,-0.88051 1.33838,0.0792 0.65159,-2.87929 2.41261,-2.86168 1.59374,-0.22894 1.73462,3.35478 -1.33839,1.18869 -0.81888,4.34095 1.74343,-0.0352 0.58994,1.51449 2.26293,0.96857 -0.3522,0.80127 2.97614,1.64657 3.20509,-0.0969 0.28176,-1.32958 1.06543,0.3434 -0.14969,0.92455 4.44661,-0.12328 -1.38241,3.42522 0.23774,3.65414 -2.78243,1.63776 1.11825,2.57992 -4.02396,1.67298 2.99376,0.68681 0.47548,0.96857 1.0302,-0.8453 -0.41384,0.57234 2.41262,1.31197 -1.94595,0.27296 0.95977,0.88051 4.76359,1.05662 2.30696,-0.54592 -1.34719,0.94216 2.7296,2.59752 -0.13208,0.8453 -2.47425,0.6868 -0.11447,1.19751 -3.08181,2.65035 1.27675,1.8667 -0.95976,0.73083 0.26415,2.26293 -2.91451,-1.22392 0.76605,0.95976 -1.86669,0.5107 0.0792,2.0428 -1.3736,0.76605 0.12327,1.47047 2.15727,1.08303 -1.07424,3.88308 1.1887,0.678 -0.0616,2.06922 -3.0642,0.0352 0.65158,-1.75223 -0.87171,0.0264 -0.22894,1.82268 -1.40002,-0.0969 0.50189,-1.55852 -2.3862,-0.54592 -0.28176,-2.22771 -0.49309,0.64278 -2.17488,-2.16607 -0.59875,0.91574 -1.39122,-0.95977 -2.74721,3.11703 -0.74844,-0.29057 0.58114,0.88052 -1.10945,3.16106 -1.6906,0.009 -0.81888,1.62015 -0.22893,-0.75724 -1.71701,1.32958 -0.73083,-3.7422 -1.92833,-0.14088 -0.20252,-5.21266 1.0214,-4.44661 -3.96233,-0.11447 -1.01259,-3.90069 -1.15348,-0.28177 -0.1761,2.80885 -1.62016,1.90192 -4.20006,-0.64278 0.59875,-2.95854 -1.24153,-1.33838 -0.14088,-2.13966 2.37739,-2.96734 -1.39121,-1.97236 1.86669,0.0352 -3.02017,-3.16106 -3.68937,1.5321 -0.27296,-2.65035 -0.78366,-0.3258 -1.1887,3.53088 -3.85666,3.44282 -1.1887,-0.59875 -0.94216,2.7208 -2.18368,0.38742 -0.78366,-0.8541 -1.34719,3.24031 -4.13843,-0.51951 -3.16106,2.34218 -2.64155,0.87171 -1.62896,-1.1975 -0.0176,-1.14468 1.91953,-3.53087 -0.73963,-3.84786 1.43524,0.27296 0.21132,-1.05662 0.92455,0.10566 0.33459,-2.34218 -1.45285,0.29058 2.17488,-1.07424 0.29057,-4.00635 0.86291,-0.19371 -0.73083,-6.37495 1.84028,-1.5321 -0.17611,-1.94594 3.5749,0.89813 0.77486,1.10064 2.50067,-2.2101 1.32077,1.1799 0.91574,-0.31699 0.49309,1.32958 2.01639,-0.37862 0.48428,2.35979 3.18747,1.98997 1.38241,0.41384 2.31576,-1.13587 0.29938,-2.35978 1.22392,0.37862 2.49186,-2.50067 0.73083,-7.25546 1.82267,0.27296 1.47927,-2.94974 1.25034,0.76605 -1.51449,-1.7082 2.28054,-6.06676 z">
<title
   id="title610">Weißenberg     absolute Anzahl: 28 relativ zur Einwohnerzahl: 0,90 %
</title>
</path>

   <!-- Gemeinde   -->
<path
   style="fill:#6e1212;fill-opacity:1;stroke:#000000;stroke-width:0.88051724;stroke-linecap:butt"
   onmouseout="style.opacity = 1;"
   onmouseover="style.opacity = 0.5;"
   id="630"
   class="st11"
   d="m 287.79645,616.17347 3.38118,0.5195 0.90693,1.11826 2.00758,-0.5195 -0.23774,1.76103 0.85411,0.46668 6.62149,1.40002 0.45786,2.47425 3.68057,0.35221 1.67298,1.91072 -0.73964,7.74855 -1.47926,1.55852 -0.1585,4.32334 -0.83649,1.06542 1.356,0.5107 -2.57992,1.91953 -0.41384,1.82267 -8.31208,4.90448 -6.35734,-3.59251 -3.10822,-3.93591 -4.33215,-0.60756 -3.66295,0.73083 -1.07423,-1.13586 0.52831,-3.44283 -0.81008,-1.81386 1.5233,-0.8541 -0.1673,-8.62027 4.54347,-0.0792 5.09819,1.75222 z">
<title
   id="title630">Wilthen     absolute Anzahl: 45 relativ zur Einwohnerzahl: 0,92 %
</title>
</path>
   <!-- Gemeinde   -->

<path
   style="fill:#6e1212;fill-opacity:1;stroke:#000000;stroke-width:0.88051724;stroke-linecap:butt"
   onmouseout="style.opacity = 1;"
   onmouseover="style.opacity = 0.5;"
   id="640"
   class="st5"
   d="m 242.39433,409.83394 5.56487,1.77864 1.62016,3.27553 3.83025,-1.56732 2.80004,2.15727 5.35355,-2.66797 v 5.75858 l 2.21009,1.90192 -0.8541,2.06921 2.64155,3.52207 -0.76605,4.92209 -1.1975,1.19751 -0.53712,-1.0214 -2.28934,1.92833 -0.80127,-2.44784 -1.44405,0.29938 -1.81386,0.82768 0.009,1.47927 -5.87305,1.15348 -0.74844,1.46166 0.73964,9.43914 5.60889,13.4455 -6.48941,3.89189 -8.54982,3.3988 0.0704,0.88932 -9.75613,-0.22013 -1.44405,-0.82769 -0.44907,1.14467 -4.93089,2.5535 -5.28311,1.50569 -1.59373,-2.13085 -1.11826,0.64278 -0.29057,-5.46802 -1.44405,-4.62271 -1.60254,-1.97236 5.32713,-5.68814 1.23272,-5.56487 -0.88932,-4.4202 -5.83783,1.40002 -8.55863,4.49945 -2.43022,-3.29314 -0.98618,-4.10321 -2.034,-2.13085 -1.96355,-5.14222 1.5409,-1.40883 h 2.97615 l 0.678,-1.84908 -1.25033,-1.24153 1.86669,-4.43781 2.78244,-3.11703 2.57111,-0.58114 1.49688,-2.21891 h 3.47804 l 1.64657,-1.30316 h 5.32713 l -0.11447,1.40883 0.98618,0.13207 1.20631,-1.5409 6.72715,5.65292 -0.0704,1.80506 3.05539,-0.14088 2.3862,-2.94974 -0.0528,-4.33214 3.3988,0.088 -0.45787,-6.38375 z">
<title
   id="title640">Wittichenau     absolute Anzahl: 54 relativ zur Einwohnerzahl: 0,94 %
</title>
</path>

<g
   transform="matrix(0.88051724,0,0,0.88051724,-23.437344,126.45092)"
   id="g3848"><rect
     style="fill:none;stroke:none;stroke-width:0.75;stroke-linecap:round;stroke-linejoin:round"
     id="rect2088"
     class="st17"
     height="126.51"
     width="256.50699"
     y="677.96271"
     x="299.104"
     v:rectContext="foreign" /><rect
     style="fill:none;stroke:none;stroke-width:0.75;stroke-linecap:round;stroke-linejoin:round"
     id="rect2607"
     class="st17"
     height="126.51"
     width="256.50699"
     y="677.96271"
     x="299.104"
     v:rectContext="foreign" /></g>
	
	  <!-- Legende   -->
	<rect
   style="fill:#d7fcc8;fill-opacity:1;stroke-width:0.23966093"
   y="715.89453"
   x="2.8176298"
   height="13.429899"
   width="28.336546"
   id="RE_d7fcc8">
<title
   id="TRE_D7FCC8">#D7FCC8</title></rect>

<!-- Legende   -->
<rect
   style="fill:#fbf77b;fill-opacity:1;stroke-width:0.23966093"
   y="742.75433"
   x="2.8176298"
   height="13.429899"
   width="28.336546"
   id="rect4574">
<title
   id="TRE_FBF77B">#fbf77b</title></rect>

<!-- Legende   -->
<rect
   style="fill:#fdfecd;fill-opacity:1;stroke-width:0.23966093"
   y="729.32446"
   x="2.8176298"
   height="13.429899"
   width="28.336546"
   id="RE_FDFECD">
<title
   id="TRE_FDFECD">#FDFECD</title></rect>

<!-- Legende   -->
<rect
   style="fill:#ffb534;fill-opacity:1;stroke-width:0.23966093"
   y="756.18427"
   x="2.8176298"
   height="13.429899"
   width="28.336546"
   id="RE_FFB534">
<title
   id="TRE_FFB534">#FFB534</title></rect>

<!-- Legende   -->
<rect
   style="fill:#b42215;fill-opacity:1;stroke-width:0.23966093"
   y="783.04407"
   x="2.8176298"
   height="13.429899"
   width="28.336546"
   id="RE_B42215">
<title
   id="TRE_B42215">#B42215</title></rect>

<!-- Legende   -->
<rect
   style="fill:#be311d;fill-opacity:1;stroke-width:0.23966093"
   y="769.6142"
   x="2.8176298"
   height="13.429899"
   width="28.336546"
   id="RE_BE311D">
<title
   id="TRE_BE311D">#BE311D</title></rect>

<!-- Legende   -->
<rect
   style="fill:#a51412;fill-opacity:1;stroke-width:0.23966093"
   y="796.474"
   x="2.8176298"
   height="13.429899"
   width="28.336546"
   id="RE_A51412">
<title
   id="TRE_A51412">#A51412</title></rect>

<!-- Legende   -->
<rect
   style="fill:#821212;fill-opacity:1;stroke-width:0.23966093"
   y="823.3338"
   x="2.8176298"
   height="13.429899"
   width="28.336546"
   id="RE_821212">
<title
   id="TRE_821212">#821212</title></rect>

<!-- Legende   -->
<rect
   style="fill:#961212;fill-opacity:1;stroke-width:0.23966093"
   y="809.90393"
   x="2.8176298"
   height="13.429899"
   width="28.336546"
   id="RE_961212">
<title
   id="TRE_961212">#961212</title></rect>

<!-- Legende   -->
<rect
   style="fill:#6e1212;fill-opacity:1;stroke-width:0.24558859"
   y="716.36761"
   x="154.48373"
   height="13.429899"
   width="29.755753"
   id="RE_6E1212">
<title
   id="TRE_6E1212">#6E1212</title></rect>

<!-- Legende   -->
<rect
   style="fill:#5f1212;fill-opacity:1;stroke-width:0.24558859"
   y="743.22742"
   x="154.48373"
   height="13.429899"
   width="29.755753"
   id="RE_5F1212">
<title
   id="TRE_5F1212">#5F1212</title></rect>

<!-- Legende   -->
<rect
   style="fill:#671212;fill-opacity:1;stroke-width:0.24558859"
   y="729.79755"
   x="154.48373"
   height="13.429899"
   width="29.755753"
   id="RE_671212">
<title
   id="TRE_671212">#671212</title></rect>

<!-- Legende   -->
<rect
   style="fill:#5a1212;fill-opacity:1;stroke-width:0.24558859"
   y="756.65735"
   x="154.48373"
   height="13.429899"
   width="29.755753"
   id="RE_5A1212">
<title
   id="TRE_5A1212">#5A1212</title></rect>

<!-- Legende   -->
<rect
   style="fill:#501212;fill-opacity:1;stroke-width:0.24558859"
   y="783.51715"
   x="154.48373"
   height="13.429899"
   width="29.755753"
   id="RE_501212">
<title
   id="TRE_501212">#501212</title></rect>

<!-- Legende   -->
<rect
   style="fill:#551212;fill-opacity:1;stroke-width:0.24558859"
   y="770.08728"
   x="154.48373"
   height="13.429899"
   width="29.755753"
   id="RE_551212">
<title
   id="TRE_551212">#551212</title></rect>

<!-- Legende   -->
<rect
   style="fill:#321212;fill-opacity:1;stroke-width:0.24558859"
   y="796.94708"
   x="154.48373"
   height="13.429899"
   width="29.755753"
   id="RE_321212">
<title
   id="TRE_321212">#321212</title></rect>

<rect
   style="fill:#141212;fill-opacity:1;stroke-width:0.24558859"
   y="810.37701"
   x="154.48373"
   height="13.429899"
   width="29.755753"
   id="RE_141212">
<title
   id="TRE_141212">#141212</title></rect>

<rect
   style="fill:#ed2083;fill-opacity:1;stroke-width:0.24558859"
   y="823.80688"
   x="154.48373"
   height="13.429899"
   width="29.755753"
   id="RE_ED2083">
<title
   id="TRE_ED2083">#ED2083</title></rect>

<text
   id="text5722"
   y="724.01117"
   x="39.053944"
   style="font-style:normal;font-weight:normal;font-size:26.41551781px;line-height:1.25;font-family:sans-serif;fill:#000000;fill-opacity:1;stroke:none;stroke-width:0.66038883"
   xml:space="preserve"><tspan
   style="font-style:normal;font-variant:normal;font-weight:normal;font-stretch:normal;font-size:7.04414654px;font-family:sans-serif;font-variant-ligatures:normal;font-variant-caps:normal;font-variant-numeric:normal;stroke-width:0.66038883"
   y="724.01117"
   x="39.053944"
   id="tspan5720">keine Daten	 </tspan>	 </text>

	
	 <text
   id="text5726"
   y="736.55463"
   x="38.795979"
   style="font-style:normal;font-weight:normal;font-size:26.41551781px;line-height:1.25;font-family:sans-serif;fill:#000000;fill-opacity:1;stroke:none;stroke-width:0.66038883"
   xml:space="preserve"><tspan
   style="font-style:normal;font-variant:normal;font-weight:normal;font-stretch:normal;font-size:7.04414654px;font-family:sans-serif;font-variant-ligatures:normal;font-variant-caps:normal;font-variant-numeric:normal;stroke-width:0.66038883"
   y="736.55463"
   x="38.795979"
   id="tspan5724">&gt;0,0000% &lt;=0,0100 %	 </tspan>	 </text>

	
	 <text
   id="text5730"
   y="750.26416"
   x="38.795979"
   style="font-style:normal;font-weight:normal;font-size:26.41551781px;line-height:1.25;font-family:sans-serif;fill:#000000;fill-opacity:1;stroke:none;stroke-width:0.66038883"
   xml:space="preserve"><tspan
   style="font-style:normal;font-variant:normal;font-weight:normal;font-stretch:normal;font-size:7.04414654px;font-family:sans-serif;font-variant-ligatures:normal;font-variant-caps:normal;font-variant-numeric:normal;stroke-width:0.66038883"
   y="750.26416"
   x="38.795979"
   id="tspan5728">&gt;0,0100% &lt;=0,0500 %</tspan></text>

<text
   id="text5734"
   y="763.97363"
   x="38.795979"
   style="font-style:normal;font-weight:normal;font-size:26.41551781px;line-height:1.25;font-family:sans-serif;fill:#000000;fill-opacity:1;stroke:none;stroke-width:0.66038883"
   xml:space="preserve"><tspan
     style="font-style:normal;font-variant:normal;font-weight:normal;font-stretch:normal;font-size:7.04414654px;font-family:sans-serif;font-variant-ligatures:normal;font-variant-caps:normal;font-variant-numeric:normal;stroke-width:0.66038883"
     y="763.97363"
     x="38.795979"
     id="tspan5732">&gt;0,0500% &lt;=0,1000 %</tspan></text>
<text
   id="text5738"
   y="777.68304"
   x="38.795979"
   style="font-style:normal;font-weight:normal;font-size:26.41551781px;line-height:1.25;font-family:sans-serif;fill:#000000;fill-opacity:1;stroke:none;stroke-width:0.66038883"
   xml:space="preserve"><tspan
     style="font-style:normal;font-variant:normal;font-weight:normal;font-stretch:normal;font-size:7.04414654px;font-family:sans-serif;font-variant-ligatures:normal;font-variant-caps:normal;font-variant-numeric:normal;stroke-width:0.66038883"
     y="777.68304"
     x="38.795979"
     id="tspan5736">&gt;0,1000% &lt;=0,1500 %</tspan></text>
<text
   id="text5742"
   y="791.396"
   x="38.795979"
   style="font-style:normal;font-weight:normal;font-size:26.41551781px;line-height:1.25;font-family:sans-serif;fill:#000000;fill-opacity:1;stroke:none;stroke-width:0.66038883"
   xml:space="preserve"><tspan
     style="font-style:normal;font-variant:normal;font-weight:normal;font-stretch:normal;font-size:7.04414654px;font-family:sans-serif;font-variant-ligatures:normal;font-variant-caps:normal;font-variant-numeric:normal;stroke-width:0.66038883"
     y="791.396"
     x="38.795979"
     id="tspan5740">&gt;0,1500% &lt;=0,2000 %</tspan></text>
<text
   id="text5746"
   y="805.10889"
   x="38.795979"
   style="font-style:normal;font-weight:normal;font-size:26.41551781px;line-height:1.25;font-family:sans-serif;fill:#000000;fill-opacity:1;stroke:none;stroke-width:0.66038883"
   xml:space="preserve"><tspan
     style="font-style:normal;font-variant:normal;font-weight:normal;font-stretch:normal;font-size:7.04414654px;font-family:sans-serif;font-variant-ligatures:normal;font-variant-caps:normal;font-variant-numeric:normal;stroke-width:0.66038883"
     y="805.10889"
     x="38.795979"
     id="tspan5744">&gt;0,2000% &lt;=0,2500 %</tspan></text>
<text
   id="text5750"
   y="818.82178"
   x="38.795979"
   style="font-style:normal;font-weight:normal;font-size:26.41551781px;line-height:1.25;font-family:sans-serif;fill:#000000;fill-opacity:1;stroke:none;stroke-width:0.66038883"
   xml:space="preserve"><tspan
     style="font-style:normal;font-variant:normal;font-weight:normal;font-stretch:normal;font-size:7.04414654px;font-family:sans-serif;font-variant-ligatures:normal;font-variant-caps:normal;font-variant-numeric:normal;stroke-width:0.66038883"
     y="818.82178"
     x="38.795979"
     id="tspan5748">&gt;0,2500% &lt;=0,5000 %</tspan></text>
<text
   id="text5754"
   y="832.53125"
   x="38.795979"
   style="font-style:normal;font-weight:normal;font-size:26.41551781px;line-height:1.25;font-family:sans-serif;fill:#000000;fill-opacity:1;stroke:none;stroke-width:0.66038883"
   xml:space="preserve"><tspan
     style="font-style:normal;font-variant:normal;font-weight:normal;font-stretch:normal;font-size:7.04414654px;font-family:sans-serif;font-variant-ligatures:normal;font-variant-caps:normal;font-variant-numeric:normal;stroke-width:0.66038883"
     y="832.53125"
     x="38.795979"
     id="tspan5752">&gt;0,5000% &lt;=0,7500 %</tspan></text>
<text
   id="text5762"
   y="724.48981"
   x="188.45064"
   style="font-style:normal;font-weight:normal;font-size:26.41551781px;line-height:1.25;font-family:sans-serif;fill:#000000;fill-opacity:1;stroke:none;stroke-width:0.66038883"
   xml:space="preserve"><tspan
     style="font-style:normal;font-variant:normal;font-weight:normal;font-stretch:normal;font-size:7.04414654px;font-family:sans-serif;font-variant-ligatures:normal;font-variant-caps:normal;font-variant-numeric:normal;stroke-width:0.66038883"
     y="724.48981"
     x="188.45064"
     id="tspan5760">&gt;0,7500% &lt;=1,0000 %</tspan></text>
<text
   id="text5766"
   y="738.04297"
   x="188.45064"
   style="font-style:normal;font-weight:normal;font-size:26.41551781px;line-height:1.25;font-family:sans-serif;fill:#000000;fill-opacity:1;stroke:none;stroke-width:0.66038883"
   xml:space="preserve"><tspan
     style="font-style:normal;font-variant:normal;font-weight:normal;font-stretch:normal;font-size:7.04414654px;font-family:sans-serif;font-variant-ligatures:normal;font-variant-caps:normal;font-variant-numeric:normal;stroke-width:0.66038883"
     y="738.04297"
     x="188.45064"
     id="tspan5764">&gt;1,0000% &lt;=1,2500 %</tspan></text>
<text
   id="text5770"
   y="751.59607"
   x="188.45064"
   style="font-style:normal;font-weight:normal;font-size:26.41551781px;line-height:1.25;font-family:sans-serif;fill:#000000;fill-opacity:1;stroke:none;stroke-width:0.66038883"
   xml:space="preserve"><tspan
     style="font-style:normal;font-variant:normal;font-weight:normal;font-stretch:normal;font-size:7.04414654px;font-family:sans-serif;font-variant-ligatures:normal;font-variant-caps:normal;font-variant-numeric:normal;stroke-width:0.66038883"
     y="751.59607"
     x="188.45064"
     id="tspan5768">&gt;1,2500% &lt;=1,5000 %</tspan></text>
<text
   id="text5774"
   y="765.14575"
   x="188.45064"
   style="font-style:normal;font-weight:normal;font-size:26.41551781px;line-height:1.25;font-family:sans-serif;fill:#000000;fill-opacity:1;stroke:none;stroke-width:0.66038883"
   xml:space="preserve"><tspan
     style="font-style:normal;font-variant:normal;font-weight:normal;font-stretch:normal;font-size:7.04414654px;font-family:sans-serif;font-variant-ligatures:normal;font-variant-caps:normal;font-variant-numeric:normal;stroke-width:0.66038883"
     y="765.14575"
     x="188.45064"
     id="tspan5772">&gt;1,5000% &lt;=1,7500 %</tspan></text>
<text
   id="text5778"
   y="778.69897"
   x="188.45064"
   style="font-style:normal;font-weight:normal;font-size:26.41551781px;line-height:1.25;font-family:sans-serif;fill:#000000;fill-opacity:1;stroke:none;stroke-width:0.66038883"
   xml:space="preserve"><tspan
     style="font-style:normal;font-variant:normal;font-weight:normal;font-stretch:normal;font-size:7.04414654px;font-family:sans-serif;font-variant-ligatures:normal;font-variant-caps:normal;font-variant-numeric:normal;stroke-width:0.66038883"
     y="778.69897"
     x="188.45064"
     id="tspan5776">&gt;1,7500% &lt;=2,0000 %</tspan></text>
<text
   id="text5782"
   y="792.25208"
   x="188.45064"
   style="font-style:normal;font-weight:normal;font-size:26.41551781px;line-height:1.25;font-family:sans-serif;fill:#000000;fill-opacity:1;stroke:none;stroke-width:0.66038883"
   xml:space="preserve"><tspan
     style="font-style:normal;font-variant:normal;font-weight:normal;font-stretch:normal;font-size:7.04414654px;font-family:sans-serif;font-variant-ligatures:normal;font-variant-caps:normal;font-variant-numeric:normal;stroke-width:0.66038883"
     y="792.25208"
     x="188.45064"
     id="tspan5780">&gt;2,0000% &lt;=4,0000 %</tspan></text>
<text
   id="text5786"
   y="805.81549"
   x="188.45064"
   style="font-style:normal;font-weight:normal;font-size:26.41551781px;line-height:1.25;font-family:sans-serif;fill:#000000;fill-opacity:1;stroke:none;stroke-width:0.66038883"
   xml:space="preserve"><tspan
     style="font-style:normal;font-variant:normal;font-weight:normal;font-stretch:normal;font-size:7.04414654px;font-family:sans-serif;font-variant-ligatures:normal;font-variant-caps:normal;font-variant-numeric:normal;stroke-width:0.66038883"
     y="805.81549"
     x="188.45064"
     id="tspan5784">&gt;4,0000% &lt;=8,0000 %</tspan></text>
<text
   id="text5790"
   y="819.37897"
   x="188.45064"
   style="font-style:normal;font-weight:normal;font-size:26.41551781px;line-height:1.25;font-family:sans-serif;fill:#000000;fill-opacity:1;stroke:none;stroke-width:0.66038883"
   xml:space="preserve"><tspan
     style="font-style:normal;font-variant:normal;font-weight:normal;font-stretch:normal;font-size:7.04414654px;font-family:sans-serif;font-variant-ligatures:normal;font-variant-caps:normal;font-variant-numeric:normal;stroke-width:0.66038883"
     y="819.37897"
     x="188.45064"
     id="tspan5788">&gt;8,0000% </tspan></text>

</g>
</svg>