<?xml version="1.0" encoding="UTF-8" standalone="no"?>
<svg
   xmlns:v="http://schemas.microsoft.com/visio/2003/SVGExtensions/"
   xmlns:dc="http://purl.org/dc/elements/1.1/"
   xmlns:cc="http://creativecommons.org/ns#"
   xmlns:rdf="http://www.w3.org/1999/02/22-rdf-syntax-ns#"
   xmlns:svg="http://www.w3.org/2000/svg"
   xmlns="http://www.w3.org/2000/svg"
   style="font-size:12px;overflow:visible;color-interpolation-filters:sRGB;fill:none;fill-rule:evenodd;stroke-linecap:square;stroke-miterlimit:3"
   id="svg2612"
   version="1.1"
   class="st18"
   xml:space="preserve"
   viewBox="0 0 450.00009 525.00079"
   height="700"
   width="600"><metadata
   id="metadata2618"><rdf:RDF><cc:Work
       rdf:about=""><dc:format>image/svg+xml</dc:format><dc:type
         rdf:resource="http://purl.org/dc/dcmitype/StillImage" /><dc:title></dc:title></cc:Work></rdf:RDF></metadata><defs
   id="defs2616">
	</defs>
	<v:documentProperties
   v:viewMarkup="false"
   v:metric="true"
   v:langID="1031">
		<v:userDefs>
			<v:ud
   v:val="VT0(1):26"
   v:nameU="msvNoAutoConnect" />
			<v:ud
   v:val="VT4(Data Graphic.28)"
   v:nameU="msvLastAppliedDataGraphic" />
			<v:ud
   v:val="VT0(1):5"
   v:nameU="msvNoApplyDataGraphicAfterLink" />
		</v:userDefs>
	</v:documentProperties>

	<style
   id="style1315"
   type="text/css">
	<![CDATA[
		.st1 {fill:#5a1212;stroke:#000000;stroke-linecap:butt;stroke-width:1}
		.st2 {stroke:none;stroke-linecap:round;stroke-linejoin:round;stroke-width:0.75}
		
		.st4 {fill:#821212;stroke:#000000;stroke-linecap:butt;stroke-width:1}
		.st5 {fill:#6e1212;stroke:#000000;stroke-linecap:butt;stroke-width:1}
		.st6 {fill:#551212;stroke:#000000;stroke-linecap:butt;stroke-width:1}
		.st7 {fill:#fdfecd;stroke:#000000;stroke-linecap:butt;stroke-width:1}
	
		.st9 {fill:#321212;stroke:#000000;stroke-linecap:butt;stroke-width:1}
		.st10 {fill:#5f1212;stroke:#000000;stroke-linecap:butt;stroke-width:1}
		.st11 {fill:#961212;stroke:#000000;stroke-linecap:butt;stroke-width:1}
		.st12 {fill:#a51412;stroke:#000000;stroke-linecap:butt;stroke-width:1}
		.st13 {fill:#671212;stroke:#000000;stroke-linecap:butt;stroke-width:1}
		.st14 {fill:#961212;stroke:#000000;stroke-linecap:round;stroke-linejoin:round;stroke-width:1}
		.st15 {fill:#501212;stroke:#000000;stroke-linecap:butt;stroke-width:1}
		.st16 {fill:#b42215;stroke:#000000;stroke-linecap:butt;stroke-width:1}
		.st17 {fill:none;stroke:none;stroke-linecap:round;stroke-linejoin:round;stroke-width:0.75}
		.st18 {fill:none;fill-rule:evenodd;font-size:12px;overflow:visible;stroke-linecap:square;stroke-miterlimit:3}
	]]>
	</style>

	<g
   transform="translate(0,-316.88916)"
   id="g2610"
   v:groupContext="foregroundPage"
   v:index="1"
   v:mID="0">
		<v:userDefs>
			<v:ud
   v:val="VT0(0.0625):26"
   v:nameU="msvDGCalloutGap" />
		</v:userDefs>
		<title
   id="title1317">Zeichenblatt-1</title>
		<v:pageProperties
   v:shadowOffsetY="-8.50394"
   v:shadowOffsetX="8.50394"
   v:drawingUnits="24"
   v:pageScale="0.0393701"
   v:drawingScale="0.0393701" />
		<v:layer
   v:index="0"
   v:name="Datengrafik" />
		<v:layer
   v:index="1"
   v:name="Vereinfacht" />
<!-- Metadaten
Ausgabe: H:\Corona-Stab AS21\Landkreis Corona Karte\Landkreiskarte_svg.xlsx_AS21_201210141320718.SVG
User:    AS21
-->
<!-- Gemeinde   -->
<path
   style="fill:#961212;fill-opacity:1;stroke:#000000;stroke-width:0.88048059;stroke-linecap:butt"
   onmouseout="style.opacity = 1;"
   onmouseover="style.opacity = 0.5;"
   id="010"
   class="st4"
   d="m 101.94263,625.46734 0.72199,-3.50432 0.86287,0.0264 0.23773,-2.28045 -2.28925,-3.16973 1.6465,-0.60753 1.23268,1.32953 1.64649,-4.49045 2.23643,-0.29056 10.69783,6.4187 6.41871,-1.31191 2.06913,0.96852 1.84901,-1.26789 0.81004,2.29806 4.5873,2.54459 0.29056,1.62008 -1.96347,2.77351 2.21881,2.41252 -1.69933,2.06033 0.75722,0.73079 2.50056,-1.58486 -0.65155,1.6553 0.7308,3.75085 1.14462,0.14968 0.80124,1.77857 3.13451,0.9069 4.05021,3.70682 2.48295,0.13207 -3.29299,8.20608 1.93705,1.8226 -3.35463,2.22761 -1.93705,-1.05657 -1.33833,0.5635 -2.57101,-1.69932 -2.52698,1.34713 -2.83515,-2.10435 -2.9408,0.66036 -0.81885,3.06408 -4.56969,-1.54965 0.24653,-1.19745 -2.99363,-0.40502 -1.72574,0.86287 0.12326,2.25403 -2.37729,1.99869 -4.92189,0.46665 -1.58486,-1.88423 -1.62889,-0.0969 -0.60754,-1.6553 2.16599,1.6553 -3.19615,-3.62758 -0.5459,0.3698 0.14969,-3.37224 -1.62009,0.14088 -0.7308,-1.52323 -1.97227,-0.70439 1.27669,-4.18228 -2.79993,-6.70046 -2.139563,0.27295 -3.398655,-5.3093 3.292997,-2.72068 0.915701,-2.3773 z">
<title
   id="title010">Arnsdorf     absolute Anzahl: 21 relativ zur Einwohnerzahl: 0,43 %
</title>
</path>

<!-- Gemeinde   -->
<path
   style="fill:#6e1212;fill-opacity:1;stroke:#000000;stroke-width:0.88048059;stroke-linecap:butt"
   onmouseout="style.opacity = 1;"
   onmouseover="style.opacity = 0.5;"
   id="020"
   class="st7"
   d="m 333.74588,549.6606 1.72574,0.14088 -0.94212,2.21 0.80124,0.32578 -0.27295,1.13582 2.5534,1.41757 -0.66917,2.50937 4.78981,0.9157 -0.17609,0.9157 2.08674,1.74336 -3.31061,3.90052 0.95972,3.27539 1.8314,1.02136 0.23773,3.97977 -2.09554,-0.361 -0.35219,1.22387 -1.10941,-0.0528 -0.41382,1.97228 -4.05902,-0.31697 1.58487,1.45279 -0.55471,2.10435 -2.87917,0.33458 3.14332,-0.22892 3.00244,2.32447 0.31697,1.57606 -3.1169,0.39621 3.06407,2.29806 -3.8477,1.93705 -3.31061,3.40746 -5.30049,0.0352 -0.81004,1.36475 -1.33833,-0.45785 -0.95092,1.78737 -2.5534,-0.41382 0.67797,2.78232 -0.9157,-0.11447 -0.14087,2.63264 -4.15587,0.71319 0.24653,3.4867 -2.35968,0.9069 -2.66786,2.92319 -0.83646,0.48427 -3.08168,-5.16842 0.0264,-2.65905 -0.95973,-1.06539 1.58487,-0.36099 0.74841,-5.78476 1.52323,-1.97228 -1.32953,-1.02135 -2.50937,1.25908 -0.43143,-1.69932 -2.5622,0.48426 -6.03129,-2.36849 0.23772,-2.39491 -3.80367,-0.22893 -2.16598,0.69558 1.38235,1.16224 -1.66411,1.55845 -5.81997,1.17104 1.94586,-4.42882 1.56725,-9.99345 -5.15081,-1.34714 -0.361,1.79618 -1.38235,0.044 -1.04777,2.11315 -1.84021,-0.41383 -1.1006,1.49682 -3.39865,0.0352 -0.39622,-1.14463 -1.39996,0.0264 -1.18865,-3.92694 2.21881,-5.61747 -5.1244,-2.09554 3.34583,-9.32429 3.77726,-2.29806 -0.70438,-0.63394 1.90183,0.1849 -0.76601,-0.29056 1.02135,-1.37355 -1.84901,-1.91945 1.083,-1.51443 1.73454,1.19746 2.05152,-1.56726 1.54965,1.31192 2.50056,-2.28045 2.11316,1.8226 0.63394,-0.93331 0.73961,2.05152 -1.11821,0.5459 3.23136,1.94586 0.5459,-1.30311 -0.98614,-0.70439 1.17984,-2.09554 2.62384,-1.4616 2.72949,1.92825 -0.21132,0.71319 0.86287,-0.53709 -0.46665,1.26789 0.89809,-0.0616 0.0264,-1.16224 1.50562,0.22893 -0.23773,1.4704 4.05902,2.09555 1.53203,-2.24523 6.65644,1.44399 2.23642,-0.66917 1.43518,-3.74204 1.42638,1.58487 -0.82765,0.044 -0.0176,1.43518 -2.97602,1.33833 3.83889,1.6377 1.43518,-5.00994 4.05902,-0.30817 1.68172,-3.77726 1.45279,-0.72199 0.11446,-2.17479 z">
<title
   id="title020">Bautzen     absolute Anzahl: 330 relativ zur Einwohnerzahl: 0,86 %
</title>
</path>
<!-- Gemeinde   -->

 <path
   style="fill:#6e1212;fill-opacity:1;stroke:#000000;stroke-width:0.88048059;stroke-linecap:butt"
   onmouseout="style.opacity = 1;"
   onmouseover="style.opacity = 0.5;"
   id="030"
   class="st4"
   d="m 130.73258,442.10549 -1.73454,-7.30799 0.63394,-1.57606 3.63639,-1.89303 0.90689,-2.27164 -1.95466,-1.17104 0.15848,-1.79618 4.12065,-1.6553 6.42751,1.42638 -0.89809,-3.89173 -3.72443,0.009 -0.61634,-2.13957 2.17479,-2.26284 2.82634,-0.0881 4.25272,-5.92563 3.42507,-1.40877 0.58992,5.81998 1.02136,1.58486 5.08918,2.5534 2.55339,3.14331 4.27914,2.43893 0.9157,-4.39359 -2.52698,1.62008 -1.42638,-0.29056 -0.51068,-3.27539 1.39116,-1.68171 11.1733,7.74822 2.13957,-1.00374 1.18865,3.3106 2.50056,1.76097 3.51312,0.60753 9.12178,-0.77483 1.98988,0.62515 4.9483,-5.20365 6.84134,-1.73454 1.07419,1.16223 -1.87543,4.43762 1.25909,1.24148 -0.67797,1.84901 h -2.97603 l -1.54084,1.40877 1.96347,5.1332 -6.99101,-0.14087 1.16223,9.49158 -2.62383,4.07662 -5.09798,-7.66898 -0.84526,-2.78232 -3.26659,3.06407 -3.8477,-0.0704 -1.74335,-6.73568 -3.18734,0.79244 0.49307,2.06913 -4.5785,-0.23773 -0.42263,2.23642 2.66786,3.07287 2.3773,-0.009 -0.58993,9.04254 -0.62514,1.8402 -1.67291,-0.1761 -1.16223,1.71694 -3.08169,0.86287 0.80124,5.53822 -2.13957,-0.40502 -1.03016,1.38236 -3.6716,0.29056 -1.69053,2.03391 -1.13582,0.0528 -8.19727,-3.97978 -1.72574,2.46535 -5.03635,0.1761 -4.3936,-2.88798 -8.17086,1.47921 -3.3018,-3.27539 -1.77857,-2.9232 3.63638,-6.99982 3.90934,-3.90053 z">
<title
   id="title030">Bernsdorf     absolute Anzahl: 55 relativ zur Einwohnerzahl: 0,86 %
</title>
</path>
   <!-- Gemeinde   -->

<path
   style="fill:#5f1212;fill-opacity:1;stroke:#000000;stroke-width:0.88048059;stroke-linecap:butt"
   onmouseout="style.opacity = 1;"
   onmouseover="style.opacity = 0.5;"
   id="040"
   class="st4"
   d="m 193.17275,603.41394 -0.84527,-5.80237 4.34958,-5.8728 4.97471,-0.73961 4.89548,1.48802 3.1169,-0.18491 5.65268,-7.55452 2.18359,-1.42638 3.39866,5.64388 0.82765,-0.67797 -0.3786,3.80368 1.41757,5.54703 3.59236,-0.24654 2.54459,1.03897 -5.52061,6.7797 1.20625,3.77726 -3.61877,1.76977 -0.85407,2.62383 2.69427,1.17984 1.98989,2.46535 -0.76602,1.23267 0.722,0.76602 -5.19484,8.99851 -2.08674,-1.31191 -2.88798,0.10565 -2.11315,-1.93705 -4.36718,0.64275 -2.40372,2.21881 1.13582,0.25534 -1.19745,1.03016 1.18865,6.24261 -3.89172,-0.27295 -0.94212,1.23267 4.13826,1.24148 -0.28175,0.76602 -1.98989,-0.65156 -0.62514,0.73961 2.61503,0.94211 -1.8314,3.03766 1.40877,0.80124 -0.38742,0.9157 2.02511,0.61633 -0.93331,4.48165 -2.21881,-0.59873 -1.47921,1.00375 3.39866,2.55339 -5.42376,0.0704 -0.29056,1.80499 2.47415,0.5635 -4.10304,0.75722 -8.16206,-5.40615 0.0264,-3.12571 -2.29806,-2.59742 1.10941,-1.89303 -0.87168,0.50187 -2.5798,-3.79487 -1.56726,-1.11821 0.009,-5.74073 -2.77351,-1.39116 -0.81004,-2.06033 3.69802,-1.76096 -0.81885,-0.94211 -0.15849,-7.57213 1.30311,-0.93331 -0.80123,-0.7308 0.57231,-1.17104 -1.88423,-3.46029 0.67797,-2.2012 3.20495,-1.2767 -0.52829,-2.78232 z">
<title
   id="title4635">Bischofswerda     absolute Anzahl: 140 relativ zur Einwohnerzahl: 1,28 %
</title>
</path>

<!-- Gemeinde   -->
<path
   style="fill:#5f1212;fill-opacity:1;stroke:#000000;stroke-width:0.88048059;stroke-linecap:butt"
   onmouseout="style.opacity = 1;"
   onmouseover="style.opacity = 0.5;"
   id="060"
   class="st5"
   d="m 214.98841,560.66661 -2.79112,0.59872 -0.28175,-4.64893 3.95335,0.71319 0.24654,-1.89304 0.30817,1.39116 0.85406,-1.17104 -0.10565,-1.92825 2.77351,-2.71188 1.42638,-0.22893 0.088,1.13582 0.1849,-1.18864 6.38348,-1.2767 -0.33458,3.54834 2.7471,0.98613 -0.0616,0.75722 1.67292,-0.42263 0.85406,1.91944 2.07794,0.65156 -0.81004,1.32953 4.0326,-3.44268 3.8565,3.09048 3.06407,0.0616 1.37355,1.41757 -0.78362,-0.44024 -0.51949,2.35088 -0.81884,-0.12326 -0.044,2.24522 -3.27539,-0.51068 -1.81379,4.51687 0.12327,1.6465 2.06033,0.13207 -0.34339,1.1006 3.46909,-0.1761 -0.47546,1.68172 1.52323,-0.98614 0.0176,1.4528 -0.7308,1.8402 -5.1332,3.09929 -0.009,2.27164 -1.98989,0.28176 -0.26414,1.2855 -4.17348,-1.23267 -3.293,1.37355 -4.99232,-1.42638 -5.09799,1.37355 -2.43012,2.21 -2.18359,1.42638 -5.66149,7.55452 -3.1081,0.18491 -4.90428,-1.48802 -4.97471,0.73961 -2.23642,-0.44905 0.28175,-2.43012 -10.88274,-9.28027 6.17217,-3.60997 0.1937,-3.54834 3.35464,-1.62889 3.53953,4.30555 2.71188,-0.16729 4.67535,-1.99869 2.47415,-3.91814 2.84395,0.49307 5.20364,-2.21 1.47041,-2.72069 -1.0918,-0.89809 0.62514,-1.31192 z">
<title
   id="title060">Burkau     absolute Anzahl: 38 relativ zur Einwohnerzahl: 1,46 %
</title>
</path>

<!-- Gemeinde   -->
<path
   style="fill:#5a1212;fill-opacity:1;stroke:#000000;stroke-width:0.88048059;stroke-linecap:butt"
   onmouseout="style.opacity = 1;"
   onmouseover="style.opacity = 0.5;"
   id="080"
   class="st9"
   d="m 240.62889,514.20893 -0.044,1.86662 2.571,0.28175 -0.50188,0.79243 1.25029,2.28925 0.15848,6.48034 -2.21,1.32072 0.13207,4.06782 -1.10941,0.92451 1.74336,3.53953 5.45898,1.39116 0.12326,5.97846 1.54965,0.28176 0.49307,1.15342 3.62758,0.14969 -0.58992,0.84526 1.80498,2.88797 -2.11315,-0.49307 -0.39622,1.93706 -5.69671,-1.2855 -0.37861,2.13076 -2.28044,-0.43143 0.31697,-1.40877 -5.88161,-0.97733 -0.0704,-1.58487 -1.39116,-0.0968 -0.66036,1.45279 -2.79112,-0.32578 -0.088,-2.31566 1.15343,-0.97733 -1.87542,0.7484 -1.04777,-1.85781 -4.22631,-0.72199 -0.7396,-2.7383 -0.95973,0.16729 1.22387,-1.34713 -1.0918,-1.71694 -4.24391,-0.14968 3.70682,-3.4779 -0.43143,-2.15718 2.28925,-0.69558 -0.55471,-0.38741 1.54965,-1.04777 -0.0176,-1.60248 1.48801,0.044 0.5459,-1.4704 0.26414,1.34713 1.0918,-1.32072 2.42132,0.9157 -0.0352,-1.74335 -1.19745,-0.63395 0.21131,-2.81754 1.17104,0.044 0.0176,-3.28419 0.69558,-3.04647 1.87543,0.52829 -1.60248,-1.13582 1.79618,0.52829 0.29056,-1.42638 z">
<title
   id="title080">Crostwitz     absolute Anzahl: 16 relativ zur Einwohnerzahl: 1,56 %
</title>
</path>

<!-- Gemeinde   -->
<path
   style="fill:#821212;fill-opacity:1;stroke:#000000;stroke-width:0.88048059;stroke-linecap:butt"
   onmouseout="style.opacity = 1;"
   onmouseover="style.opacity = 0.5;"
   id="090"
   class="st4"
   d="m 337.92288,627.06629 -1.10941,-4.18228 3.40746,-0.35219 1.24148,-1.33834 -0.29937,-1.13582 4.7546,1.53204 3.17853,-1.62889 -0.088,-0.99494 4.67535,1.54964 2.90558,-0.0792 4.3848,-0.88048 2.54459,2.48296 7.07026,0.98613 3.3106,-0.62514 4.30555,1.30311 2.98483,1.6377 0.0793,2.27164 1.87542,2.43893 -7.29918,3.28419 -0.78363,1.56726 1.62008,1.43518 1.32953,-0.1937 0.23773,2.40371 -6.56839,9.13939 -2.7559,0.40502 -3.293,-2.48296 -2.73829,-0.0264 -16.25368,2.59742 -5.84639,1.42637 0.25534,-7.89791 -4.13826,-1.00375 -2.91439,-4.39359 0.11446,-1.07419 2.62384,-1.41757 0.52829,-5.6791 z">
<title
   id="title090">Cunewalde     absolute Anzahl: 32 relativ zur Einwohnerzahl: 0,70 %
</title>
</path>

<!-- Gemeinde   -->
<path
   style="fill:#821212;fill-opacity:1;stroke:#000000;stroke-width:0.88048059;stroke-linecap:butt"
   onmouseout="style.opacity = 1;"
   onmouseover="style.opacity = 0.5;"
   id="100"
   class="st4"
   d="m 225.03294,579.73606 5.00113,1.42637 3.28419,-1.37355 4.18228,1.24148 -0.47546,2.5534 2.27164,1.01255 1.0918,-2.50057 5.71432,0.21132 0.93331,3.09049 1.06538,0.5547 -1.4616,2.84395 3.1169,2.28925 2.46535,-0.7396 1.81379,3.91814 0.46665,2.92319 -1.31191,2.90559 0.84526,2.24522 -0.33459,0.85407 -2.13956,-1.58487 -2.65025,4.17348 -0.43144,6.21619 -0.80123,0.78363 -6.37468,-1.73454 -5.15081,1.01255 -2.65906,-2.04272 -5.24766,0.42263 -4.2175,-2.85275 -0.64275,-2.3773 5.51181,-6.7797 -2.53579,-1.03897 -3.60116,0.24654 -1.40877,-5.54703 0.3698,-3.80368 -0.82765,0.67797 -3.38985,-5.64388 2.43012,-2.21 z">
<title
   id="title100">Demitz-Thumitz     absolute Anzahl: 19 relativ zur Einwohnerzahl: 0,72 %
</title>
</path>

<!-- Gemeinde   -->
<path
   style="fill:#821212;fill-opacity:1;stroke:#000000;stroke-width:0.88048059;stroke-linecap:butt"
   onmouseout="style.opacity = 1;"
   onmouseover="style.opacity = 0.5;"
   id="110"
   class="st4"
   d="m 273.72704,597.82465 -0.32578,-2.22762 2.3773,0.75722 2.08673,-5.06277 6.02249,1.51443 0.84526,-3.16973 2.03391,-0.67797 5.82878,-1.17104 1.66411,-1.55845 -1.38235,-1.16223 2.16598,-0.69558 3.79487,0.22012 -0.23773,2.40371 6.03129,2.36849 2.5622,-0.49307 0.44024,1.69933 2.50937,-1.25028 1.32953,1.02135 -1.52323,1.97228 -0.75722,5.77595 -1.57606,0.361 0.95973,1.07419 -1.69053,-0.32578 0.50188,-1.23267 -3.53953,-0.63395 -1.0918,0.46665 0.41383,1.2767 -1.38236,0.3698 -0.78363,2.61503 -1.13582,-1.12701 -1.40876,2.79112 -1.18865,-0.11446 -3.05527,7.36081 -0.0528,5.73193 -3.38105,-0.51948 -1.63769,11.73681 -5.09798,-1.75216 -14.17574,-0.33458 -9.72931,-2.97603 -9.57963,2.72069 -0.26414,-2.28925 -0.81885,0.15848 -0.23773,-1.04777 -0.60753,-5.96966 -1.45279,-2.28925 0.50187,-1.35594 0.79243,-0.79243 0.44024,-6.21619 2.65025,-4.17348 2.13076,1.59367 0.34339,-0.85407 -0.84526,-2.25403 1.31191,-2.90558 -0.46665,-2.9232 0.20251,-2.61502 4.55208,2.35088 3.78607,0.7308 0.78363,-0.65156 1.04777,0.62514 -0.69558,4.61372 5.33571,0.22893 1.57606,0.98613 z">
<title
   id="title1008">Doberschau-Gaußig     absolute Anzahl: 31 relativ zur Einwohnerzahl: 0,75 %
</title>
</path>


<!-- Gemeinde   -->
<path
   style="fill:#551212;fill-opacity:1;stroke:#000000;stroke-width:0.88048059;stroke-linecap:butt"
   onmouseout="style.opacity = 1;"
   onmouseover="style.opacity = 0.5;"
   id="120"
   class="st4"
   d="m 194.23549,324.06386 1.69052,1.74335 4.64013,0.78363 3.38105,-0.58112 3.90053,1.47921 5.25647,-0.67797 5.00993,1.22387 2.79993,-0.95973 3.72443,0.30817 3.00244,0.97734 3.64519,3.77726 4.9395,0.68677 0.64275,-0.83645 1.35594,1.40877 -1.32072,0.5547 -0.0176,1.00375 2.03391,0.73079 2.60622,-0.95972 0.1761,-1.88423 8.68153,-0.16729 5.74954,2.69427 2.87917,2.43893 3.50432,0.0969 9.1658,3.95335 1.76977,8.32935 0.17609,2.72949 -1.01255,-0.0616 -0.68678,1.8314 3.36344,1.23267 2.87917,3.24897 -1.52323,1.21507 0.0264,2.86156 3.4779,3.1169 3.19615,0.81885 -0.88048,3.81248 -4.33197,7.35201 -7.36962,-4.65774 0.0616,-2.33328 -7.89791,-3.94455 -0.11446,8.82242 -1.4704,1.2943 1.54084,0.3698 0.0969,3.36344 -5.32691,0.11446 -0.0352,-1.32072 -4.44642,-1.36474 -1.58487,2.89678 0.95092,0.0176 -3.90933,2.62383 -3.38105,-0.44024 -4.68415,6.45392 -4.45524,2.45654 -3.28419,-0.65155 -0.22892,-1.49682 -7.02624,-5.59986 -0.51068,2.44774 -2.90558,-1.55845 -1.8226,2.0163 -5.29169,-0.0352 -1.4792,5.44137 -2.38611,-0.32578 -0.0528,1.03897 -1.93705,0.29936 -1.6465,-1.48801 -1.14463,0.33458 -0.33458,1.39997 -1.82259,-1.95467 -2.25403,0.66036 0.96852,-2.28044 -3.75965,-3.2842 2.08674,-1.91064 2.06913,-5.40615 0.79243,0.44024 0.87168,-1.69933 -0.30817,-2.40371 0.9157,-0.44024 0.88048,-3.293 2.90559,0.78363 0.23773,-1.87542 0.57231,0.7308 1.02136,-0.7308 -2.94961,-1.21507 1.06538,-2.86156 -1.20626,0.51949 0.87168,-0.94212 -1.083,-0.94211 -0.62514,0.78363 -2.48295,-1.74336 -3.71563,-0.27295 -3.68041,-1.62008 -1.62008,0.49307 0.76601,1.11821 -0.96852,1.24148 -5.59106,-0.61634 0.14088,3.69802 -3.27539,-1.13582 -4.56969,4.56089 -4.28794,-0.3698 -2.65905,-1.59367 -1.29431,8.54946 -4.15587,-0.28175 -0.93331,-0.96853 -1.4616,0.722 -1.14462,-1.36475 -2.30686,-0.0704 -1.43518,-2.0251 0.13207,-2.21881 6.5948,-3.41627 0.50187,-1.32072 -6.25141,-9.05134 5.75834,-0.97733 3.74205,-3.37224 2.49176,-11.18211 3.13451,-4.81623 4.06782,-0.94211 7.58974,1.59367 1.32953,-1.69052 1.77857,0.46665 -3.96217,-3.69802 -1.34713,-3.89172 0.50187,-2.89678 2.5534,-3.71563 1.2855,-0.41383 z">
<title
   id="title120">Elsterheide     absolute Anzahl: 62 relativ zur Einwohnerzahl: 1,79 %
</title>
</path>
   <!-- Gemeinde   -->

 <path
   style="fill:#6e1212;fill-opacity:1;stroke:#000000;stroke-width:0.88048059;stroke-linecap:butt"
   onmouseout="style.opacity = 1;"
   onmouseover="style.opacity = 0.5;"
   id="130"
   class="st10"
   d="m 199.95773,534.58589 -1.00375,4.44643 1.93706,1.15343 -0.20251,3.02885 3.16092,2.18359 -0.40502,1.2679 -1.93705,-0.87168 -1.10941,1.56725 0.81885,1.20626 -0.9157,5.37093 1.80498,0.14969 0.84526,4.18228 -1.76976,1.21506 0.29056,1.86662 -2.03391,0.43144 -1.6465,4.14706 -2.40371,0.65156 -1.8314,4.20869 -3.35464,1.62889 -0.1937,3.54834 -6.16337,3.60997 -4.12945,-2.7471 -1.50562,2.49176 -0.88048,-0.57231 -0.81004,1.42638 -4.15587,-1.98108 0.82765,-0.49307 -0.49307,-3.31942 2.99363,-2.12195 -3.16973,-7.14951 -0.98613,-1.21506 -1.84901,-3.75085 0.94211,-13.62103 -2.64144,-2.65025 -0.0528,-2.76471 4.4024,0.0264 1.8226,-3.95336 0.43143,-4.37599 1.97228,-1.30311 5.23886,-2.10435 1.74335,1.39996 -0.89809,-1.61127 0.82765,-0.42264 4.01499,2.51818 1.75216,-0.044 0.14968,-1.37355 1.71694,1.35594 2.12196,-0.81885 0.35219,-3.07288 5.40615,4.14706 -0.59873,2.71189 z">
<title
   id="title130">Elstra     absolute Anzahl: 21 relativ zur Einwohnerzahl: 0,77 %
</title>
</path>

    <!-- Gemeinde   -->
<path
   style="fill:#6e1212;fill-opacity:1;stroke:#000000;stroke-width:0.88048059;stroke-linecap:butt"
   onmouseout="style.opacity = 1;"
   onmouseover="style.opacity = 0.5;"
   id="140"
   class="st11"
   d="m 181.66927,603.57947 4.17348,2.23642 0.52828,2.78232 -3.21375,1.2767 -0.67797,2.2012 1.88423,3.46029 -0.56351,1.17984 -1.81379,0.96853 -4.44643,0.15849 -5.04515,-1.85782 -7.13189,1.33833 -0.22893,1.18865 -3.73324,-6.7885 2.11316,-6.56839 -0.60753,-5.15962 14.90653,-1.44398 z">
<title
   id="title140">Frankenthal     absolute Anzahl: 9 relativ zur Einwohnerzahl: 0,98 %
</title>
</path>

   <!-- Gemeinde   -->
<path
   style="fill:#821212;fill-opacity:1;stroke:#000000;stroke-width:0.88048059;stroke-linecap:butt"
   onmouseout="style.opacity = 1;"
   onmouseover="style.opacity = 0.5;"
   id="150"
   class="st5"
   d="m 277.25072,547.83272 0.67797,0.49307 -1.0918,1.52323 1.85782,1.91945 -1.02136,1.37355 0.75721,0.29056 -1.89303,-0.19371 0.70438,0.64275 -3.77726,2.29806 -3.34582,9.31548 5.12439,2.09555 -2.22761,5.62627 1.18865,3.91814 1.40876,-0.0176 0.38742,1.14462 3.40746,-0.0352 1.09179,-1.49681 1.84021,0.41382 1.05657,-2.12196 1.37355,-0.044 0.361,-1.78738 5.15962,1.33833 -1.57606,10.00226 -1.94587,4.42882 -2.03391,0.67797 -0.84526,3.16973 -6.03129,-1.51443 -2.08674,5.06277 -2.36849,-0.75722 0.32578,2.22762 -3.0993,2.70308 -1.57606,-0.99495 -5.33571,-0.22012 0.68678,-4.61372 -1.03897,-0.62514 -0.78363,0.65156 -3.78606,-0.73961 -4.56089,-2.34207 -0.20251,2.61502 -1.81379,-3.90933 -2.46535,0.7308 -3.1081,-2.28925 1.4616,-2.84395 -1.06538,-0.55471 -0.94211,-3.08168 -5.70552,-0.22012 -1.1006,2.50937 -2.27164,-1.01255 0.7396,-3.8477 1.98109,-0.29056 0.0176,-2.27164 5.1244,-3.09929 0.7308,-1.8314 -0.009,-1.45279 -1.53204,0.97733 0.47546,-1.68172 -3.46909,0.1849 0.35219,-1.1006 -2.06033,-0.13207 -0.12326,-1.6465 1.81379,-4.51686 3.27538,0.51067 0.0352,-2.25403 0.82766,0.12327 0.51948,-2.35088 0.77482,0.44904 -1.37355,-1.42638 0.30817,-2.84395 -1.69933,-0.88928 0.96853,-2.27164 -0.47546,-1.60248 2.27164,0.42263 0.38741,-2.13076 5.68791,1.2855 0.40502,-1.93706 2.11315,0.49307 -1.80498,-2.88797 0.58111,-0.84526 4.18229,0.39621 1.38235,-0.9157 2.66786,-0.1937 -1.32072,1.4704 1.48801,0.79243 2.27164,0.19371 0.26414,-1.07419 1.47041,-0.0176 1.37355,1.07419 -0.7308,0.83645 0.60753,-0.29936 0.15848,-0.63395 1.50563,0.15849 0.34338,1.34714 4.7546,0.64275 0.0528,1.13582 1.18865,0.044 z">
<title
   id="title150">Göda     absolute Anzahl: 21 relativ zur Einwohnerzahl: 0,69 %
</title>
</path>

<!-- Gemeinde Groszdubrau   -->
<path
   style="fill:#6e1212;fill-opacity:1;stroke:#000000;stroke-width:0.88048059;stroke-linecap:butt"
   onmouseout="style.opacity = 1;"
   onmouseover="style.opacity = 0.5;"
   id="160"
   class="st5"
   d="m 335.99374,504.88552 -0.0881,-6.38348 -2.43893,-2.07794 -0.36099,-1.98988 2.73829,-2.97603 2.72069,-11.52549 6.85894,-3.65399 3.4779,-0.66037 -0.23773,3.02005 2.48295,1.93706 -0.36099,-4.01499 0.69558,-0.0968 3.1169,6.51555 2.04271,0.29937 1.69053,2.09554 0.90689,-1.39996 3.07288,-0.59873 0.25534,0.88048 1.92825,-0.13207 -0.044,1.00375 -2.0075,0.58992 0.70438,14.63358 6.17217,0.009 -0.81004,8.03879 3.39866,0.0176 2.66785,-2.43893 1.29431,1.86661 -3.67161,4.12065 -2.61502,0.32578 0.22012,0.83646 -1.4616,0.42263 -1.03016,1.94586 -2.21001,-0.0528 1.88423,2.97603 -2.03391,8.82241 -1.81379,1.8226 -4.34957,-0.83646 -0.33459,1.11821 -0.94211,-0.12327 0.10566,-1.20625 -1.18865,-0.47546 0.75721,-1.79618 -2.64144,-0.76602 -1.26789,2.37729 -2.40372,1.57606 -0.97733,-0.33458 -1.21506,2.79993 -1.50562,0.88929 -8.32055,-1.4528 -1.87542,2.46535 0.87168,0.93331 -1.47041,0.21131 -0.59872,2.08674 0.74841,1.33833 -0.65156,-0.14087 -0.30817,2.34207 -2.55339,-0.65155 0.45785,1.84901 -1.65531,0.62514 0.20252,2.03391 1.07418,-0.009 -1.31191,1.31192 0.10565,2.25403 -5.95205,-5.83759 -0.11446,2.16599 -1.4616,0.7308 -1.68171,3.76845 -4.05021,0.30817 -1.43519,5.00994 -3.83889,-1.6377 2.97602,-1.32952 0.0176,-1.44399 0.81885,-0.0352 -1.41758,-1.59367 -1.44398,3.74204 -2.22762,0.66917 -6.65643,-1.43519 -1.14463,-6.92057 3.3018,-0.0176 2.1836,2.59741 4.84264,-0.9157 0.99494,-3.72443 0.89809,-1.26789 1.10941,0.26414 0.78363,-3.14331 1.35594,0.26414 1.87542,-8.90166 1.8314,0.15849 0.88048,-1.50562 1.94586,-0.64275 -1.2767,-2.45654 -1.92825,-0.088 2.81754,-1.54965 -1.29431,-2.5622 -1.53203,-1.03016 -3.83009,-0.14968 0.0264,-1.47921 1.00375,-0.5459 -0.64275,-1.78737 1.99869,0.24653 2.14837,-1.4792 -0.0176,-3.23137 1.17985,-1.54084 4.49925,-0.75721 0.10566,1.66411 z">
<title
   id="title160">Großdubrau     absolute Anzahl: 35 relativ zur Einwohnerzahl: 0,82 %
</title>
</path>
   <!-- Gemeinde   -->
<path
   style="fill:#821212;fill-opacity:1;stroke:#000000;stroke-width:0.88048059;stroke-linecap:butt"
   onmouseout="style.opacity = 1;"
   onmouseover="style.opacity = 0.5;"
   id="170"
   class="st12"
   d="m 150.47208,641.71397 -2.0075,0.50187 -2.48295,-0.12327 -4.05021,-3.70682 -3.13451,-0.9069 -0.80124,-1.77857 -1.14463,-0.14968 -0.7308,-3.75965 0.65156,-1.6465 -2.50056,1.57606 -0.75722,-0.72199 1.69933,-2.06913 -2.21881,-2.40371 1.96347,-2.77352 -0.29056,-1.62008 -4.5873,-2.54459 -0.81004,-2.29806 1.46159,-0.66036 0.25534,0.79244 5.00994,1.17984 5.03635,-2.13957 1.38235,-3.75085 3.24897,0.1673 3.654,1.61128 5.78476,0.30816 6.29543,-3.07287 3.73324,6.7885 0.22893,-1.18865 7.13189,-1.33833 5.04515,1.85782 4.44643,-0.15849 1.81379,-0.97733 0.80124,0.7308 -1.30311,0.93331 0.15848,7.57213 0.81885,0.94211 -3.69802,1.76096 0.80124,2.06033 2.78232,1.39116 -0.009,5.74073 1.56726,1.12702 -2.38611,1.81379 -0.14087,2.0251 -3.06407,1.55845 -2.35969,2.58862 -1.40877,-0.85407 -3.12571,4.37599 -2.21881,0.44024 -5.41495,-2.69427 -1.36475,2.06032 -1.31192,0.32578 -1.45279,-1.12702 -3.33702,-0.23773 -2.46535,0.94212 z">
<title
   id="title170">Großharthau     absolute Anzahl: 14 relativ zur Einwohnerzahl: 0,50 %
</title>
</path>

   <!-- Gemeinde   -->
<path
   style="fill:#821212;fill-opacity:1;stroke:#000000;stroke-width:0.88048059;stroke-linecap:butt"
   onmouseout="style.opacity = 1;"
   onmouseover="style.opacity = 0.5;"
   id="180"
   class="st4"
   d="m 106.36176,540.22185 2.9232,2.30686 0.79243,4.49925 1.82259,-0.3698 1.53204,5.27408 4.3936,3.31941 2.52698,7.26397 -1.40877,4.71937 -3.89172,4.12946 -0.39622,1.82259 -0.7396,-0.68677 0.51948,-1.87543 -2.21881,-1.54084 -1.57606,-4.91308 -4.63133,4.66655 -5.60866,-1.62889 -1.752159,0.41382 -3.337021,-2.932 -2.104349,1.00375 -2.799928,-2.35088 2.96722,-0.70439 1.804985,-2.44773 -2.007496,-0.63395 -1.699327,1.13582 -3.662795,-0.97733 -2.236421,0.50187 0.246535,-1.51442 8.884044,-4.56089 0.176097,-5.76715 5.388545,-8.91047 2.36849,0.69558 1.67291,-0.96852 z">
<title
   id="title180">Großnaundorf     absolute Anzahl: 5 relativ zur Einwohnerzahl: 0,52 %
</title>
</path>

   <!-- Gemeinde   -->
<path
   style="fill:#821212;fill-opacity:1;stroke:#000000;stroke-width:0.88048059;stroke-linecap:butt"
   onmouseout="style.opacity = 1;"
   onmouseover="style.opacity = 0.5;"
   id="190"
   class="st4"
   d="m 326.24946,603.18766 1.31192,-2.65905 2.3861,-0.55471 0.29056,-2.10435 3.42507,3.75085 2.81754,-0.66036 1.16223,1.4704 1.05658,8.33815 -3.07288,0.56351 0.009,2.44774 1.35594,0.25534 1.78737,6.82372 2.38611,-0.80124 0.29936,1.13582 -1.24148,1.34714 -3.41626,0.34339 1.11821,4.18228 -0.66917,1.07419 -5.23886,-0.14968 -2.91439,0.95972 -0.25534,1.61128 -2.21,-0.81004 -0.47546,-1.32072 -2.5622,-0.49307 -1.26789,-2.23642 -11.51669,0.17609 3.1081,-7.87149 0.0704,-2.95842 0.95973,0.361 1.86662,-2.97603 -1.72575,-3.51311 -2.13076,-0.0528 -0.50187,-1.99869 2.67666,-2.9232 2.35969,-0.9069 -0.24654,-3.4955 4.15587,-0.70439 0.21132,-1.08299 1.21506,0.14088 1.15343,2.83515 -0.78363,2.32446 0.65156,-0.81004 z">
<title
   id="title190">Großpostwitz     absolute Anzahl: 20 relativ zur Einwohnerzahl: 0,73 %
</title>
</path>

   <!-- Gemeinde   -->
<path
   style="fill:#821212;fill-opacity:1;stroke:#000000;stroke-width:0.88048059;stroke-linecap:butt"
   onmouseout="style.opacity = 1;"
   onmouseover="style.opacity = 0.5;"
   id="200"
   class="st11"
   d="m 160.97797,585.79024 1.96347,-2.21881 -0.23773,-1.60248 0.47546,0.79244 4.82504,-1.15343 0.5459,1.21506 3.36343,-2.11315 0.74841,2.53578 -0.88048,1.8314 3.91814,-0.0616 0.93331,6.03129 -0.78363,4.82503 1.96347,2.68547 -14.90653,1.43518 0.60753,5.15962 -2.11316,6.56838 -6.30424,3.08169 -5.77595,-0.31698 -3.6628,-1.60247 -3.24017,-0.16729 -1.38235,3.74204 -5.03635,2.14837 -5.00994,-1.18865 -0.25534,-0.78362 -3.3106,1.92825 -2.06913,-0.97734 -6.41871,1.32073 -10.69783,-6.42751 1.51442,-1.00375 -1.37355,-1.06538 -0.33458,-4.17348 4.34077,-2.43893 1.05658,-0.14968 0.97733,1.25908 -0.0704,-2.04271 5.89922,-2.65025 0.0704,-2.71188 1.84901,-0.009 1.18865,-1.76096 -0.49307,-2.25403 -2.49176,-0.83646 5.75834,-8.54066 2.46535,1.38235 5.93444,-1.52323 3.01124,2.75591 3.79487,-1.58487 2.40371,0.95092 2.81754,2.94961 4.63133,-1.24148 2.87037,1.62889 z">
<title
   id="title200">Großröhrsdorf     absolute Anzahl: 57 relativ zur Einwohnerzahl: 0,59 %
</title>
</path>

   <!-- Gemeinde   -->
<path
   style="fill:#821212;fill-opacity:1;stroke:#000000;stroke-width:0.88048059;stroke-linecap:butt"
   onmouseout="style.opacity = 1;"
   onmouseover="style.opacity = 0.5;"
   id="220"
   class="st6"
   d="m 126.75193,519.79734 3.25778,-0.40502 5.73193,1.49682 13.64745,1.32072 3.26658,4.05901 -0.0616,1.0918 5.64388,1.95466 2.86156,2.35089 -0.51948,4.99232 -1.47921,0.361 -0.14088,1.43518 1.58487,0.44905 2.11315,-0.87168 5.27408,3.08168 0.0528,2.76471 2.65024,2.64145 -0.95091,13.62103 1.849,3.75085 -4.69296,-2.34208 -3.90053,-0.14968 -3.53072,-5.55584 -4.06782,0.86288 -0.29056,-1.54965 1.13582,-1.67291 -2.11316,-2.65905 -8.17966,0.81004 -2.50057,-8.2325 -9.05134,0.79244 -0.63394,0.81884 -2.13077,0.1761 0.81005,-2.22762 -1.10941,-3.35463 1.18865,-0.51948 -2.66786,-4.23511 -4.9571,0.99494 -0.75722,-2.571 0.0352,1.23267 -8.27651,1.2767 -8.58469,5.142 -0.88928,-0.70438 0.67797,-0.92451 -0.7308,-4.46403 -2.2012,0.81004 -2.80874,-3.68921 0.45785,-1.62009 2.04272,-0.1937 -1.21507,-5.76715 0.52829,-2.49176 -3.583554,-3.293 0.994944,-1.4616 4.51686,0.22012 4.78982,-2.3861 6.46273,4.33197 z">
<title
   id="title220">Haselbachtal     absolute Anzahl: 30 relativ zur Einwohnerzahl: 0,75 %
</title>
</path>

   <!-- Gemeinde   -->
<path
   style="fill:#821212;fill-opacity:1;stroke:#000000;stroke-width:0.88048059;stroke-linecap:butt"
   onmouseout="style.opacity = 1;"
   onmouseover="style.opacity = 0.5;"
   id="230"
   class="st5"
   d="m 370.98492,584.9485 4.13826,0.51948 1.34714,-3.24897 0.78362,0.85407 2.1836,-0.38741 0.94211,-2.72069 1.18865,0.60753 3.8565,-3.45148 1.18865,-3.53073 0.78363,0.32578 0.27295,2.65025 3.68921,-1.53204 3.02005,3.16092 -1.86662,-0.0352 1.39116,1.97227 -2.3773,2.96722 0.14088,2.13957 1.24148,1.34713 -0.59873,2.94961 4.19989,0.65156 1.62009,-1.91064 0.1761,-2.80874 1.15342,0.28176 1.01256,3.90053 3.96216,0.11446 -1.02136,4.44643 0.20251,5.22125 1.92826,0.14087 0.73079,3.73324 1.71694,-1.32952 0.22893,0.75721 -0.70439,-0.0969 -0.11446,3.8477 -2.64144,0.29056 -0.35219,1.52323 2.0251,2.10435 2.5622,-0.58993 -0.93331,1.47041 -1.74335,-0.64276 -2.22762,2.26284 -2.5622,-0.16729 -2.35088,1.59367 -3.49551,-0.64275 -0.74841,-1.05658 -2.79112,3.87412 0.15849,1.12701 2.80873,0.44024 0.22012,1.69052 2.81754,0.70439 -0.0704,1.05658 -5.96085,0.49306 -4.71938,-2.08673 -4.52567,-0.34339 -1.14462,0.95092 -2.35089,-0.9157 -1.17104,4.07662 -4.30555,-1.31191 -3.3106,0.63394 -7.07907,-0.98614 -2.53578,-2.48295 -4.3848,0.87167 -0.14968,-12.90784 2.13957,-7.40484 1.34714,0.0969 -1.44399,-5.23005 6.19858,-1.20626 3.14332,-6.48915 z">
<title
   id="title230">Hochkirch     absolute Anzahl: 13 relativ zur Einwohnerzahl: 0,58 %
</title>
</path>

   <!-- Gemeinde   -->

<path
   style="fill:#821212;fill-opacity:1;stroke:#000000;stroke-width:0.88048059;stroke-linecap:butt"
   onmouseout="style.opacity = 1;"
   onmouseover="style.opacity = 0.5;"
   id="240"
   class="st4"
   d="m 257.62305,380.04922 0.0352,1.32953 9.99346,-0.27295 0.31697,1.18865 1.30311,-0.75722 6.92939,1.42638 0.5635,0.75721 -2.23642,0.94212 4.53448,7.31679 -5.45018,0.11446 0.0969,4.34958 -2.53579,-0.088 0.25534,7.36962 8.94568,-1.75215 -2.17478,3.76845 0.25534,2.52698 3.51311,1.44399 -1.09179,1.44399 -0.0704,3.06407 -5.41496,7.52811 4.08543,1.10941 4.24392,-0.76602 1.11821,0.67797 -0.81004,-3.77726 7.55452,0.99494 -8.82241,9.60604 -1.98109,3.49551 -4.31435,3.87412 -4.04141,-1.17985 -0.52828,-2.67666 -3.12571,-0.48426 0.50187,-0.722 -1.48801,-0.89809 0.76602,-4.92188 -2.64144,-3.52193 0.85406,-2.07793 -2.21,-1.89303 v -5.75835 l -5.35332,2.66786 -2.79993,-2.15718 -3.83009,1.56726 -1.62009,-3.27539 -5.56464,-1.77857 -4.78981,0.83645 0.45785,6.38349 -3.39865,-0.088 0.0528,4.33197 -2.3861,2.94961 -3.05527,0.14087 0.0704,-1.80498 -6.72687,-5.65269 -1.20626,1.54084 -0.98614,-0.13207 0.11447,-1.40877 h -5.32691 l -1.6465,1.30311 -3.4779,-0.009 -1.49682,2.22761 -2.571,0.58112 -2.78232,3.1169 -1.06538,-1.16223 -6.84133,1.73454 -4.95711,5.20365 -1.98108,-0.62515 -9.13058,0.77483 -3.50432,-0.60753 -2.50056,-1.76097 -1.19746,-3.3106 -2.13076,1.00374 -11.1821,-7.74822 -2.06913,-1.15343 -0.3698,-1.2767 4.19989,-0.0881 4.22631,-4.0238 0.50187,1.20626 1.99869,-0.51068 -0.50187,-1.33833 -1.54084,-0.24653 2.48295,-3.86531 3.28419,-1.90184 1.75216,1.65531 -0.26414,-2.40372 3.65399,-2.08674 -2.54459,-5.98726 9.41234,-4.90428 -1.26789,-0.0176 0.48426,-1.19745 1.76096,-0.13208 -0.0528,3.68922 1.98109,0.26414 0.24653,-3.13451 1.57606,0.20251 1.80499,-3.93575 3.21375,3.94456 1.99869,-3.82129 5.24766,4.34077 -0.96852,2.28044 2.25403,-0.66036 1.82259,1.94587 0.33458,-1.39116 1.14463,-0.33459 1.6465,1.47921 1.93705,-0.29056 0.044,-1.04777 2.3861,0.32578 1.48801,-5.44137 5.29169,0.0352 1.81379,-2.0075 2.91439,1.54965 0.51068,-2.44774 7.01743,5.59986 0.22893,1.50562 3.29299,0.65156 4.45524,-2.45654 4.68415,-6.45393 3.37224,0.44024 3.91814,-2.62383 -0.95092,-0.0176 1.58487,-2.89678 z">
<title
   id="title240">Hoyerswerda     absolute Anzahl: 176 relativ zur Einwohnerzahl: 0,54 %
</title>
</path>

   <!-- Gemeinde   -->
<path
   style="fill:#6e1212;fill-opacity:1;stroke:#000000;stroke-width:0.88048059;stroke-linecap:butt"
   onmouseout="style.opacity = 1;"
   onmouseover="style.opacity = 0.5;"
   id="250"
   class="st5"
   d="m 199.86264,490.39985 4.62252,7.61616 1.03016,8.38218 -5.36212,2.87917 -3.19615,0.0792 0.0792,1.2855 -1.69052,0.57231 -1.24148,-3.28419 -3.74204,0.44024 -2.62383,4.66655 -2.35088,0.0792 0.7308,3.96217 4.09423,4.61371 0.0352,2.53579 2.40371,0.46665 -0.7308,1.67292 1.66411,0.96852 -0.361,3.06408 -2.12195,0.82765 -1.70814,-1.35594 -0.14968,1.36474 -1.75215,0.044 -4.015,-2.50937 -0.82765,0.41382 0.89809,1.62009 -1.74335,-1.40877 -5.23886,2.11315 -1.97228,1.30311 -0.44024,4.37599 -1.82259,3.95336 -4.3936,-0.0264 -5.27408,-3.08169 -2.11315,0.87168 -1.58487,-0.44905 0.13208,-1.43518 1.4792,-0.361 0.52829,-5.00113 -2.87037,-2.34207 -5.64388,-1.95467 0.0616,-1.0918 -3.26659,-4.05901 -13.63864,-1.32072 -5.73193,-1.49682 -3.26658,0.40502 4.18228,-9.86138 2.39491,-8.57588 -2.63264,-1.72575 -1.53203,-2.79992 -0.96853,-6.72688 3.99738,-2.27164 -3.15212,-3.21375 12.60848,-8.77839 4.69296,-0.68678 2.21881,-2.25403 0.99495,-5.83758 2.72949,-3.4691 8.19727,3.97978 1.13582,-0.0528 1.69933,-2.03391 7.47528,-0.74841 2.89678,1.20626 1.40877,-2.99364 1.34713,1.22387 -0.59872,1.15343 0.95092,0.23773 0.77482,2.94961 1.15343,0.5547 -0.24654,2.29806 4.41121,1.79618 3.293,-0.92451 -0.16729,-2.23642 1.16223,-0.90689 3.86531,8.53185 4.07663,4.13826 z">
<title
   id="title250">Kamenz     absolute Anzahl: 169 relativ zur Einwohnerzahl: 1,00 %
</title>
</path>

   <!-- Gemeinde   -->
<path
   style="fill:#6e1212;fill-opacity:1;stroke:#000000;stroke-width:0.88048059;stroke-linecap:butt"
   onmouseout="style.opacity = 1;"
   onmouseover="style.opacity = 0.5;"
   id="270"
   class="st5"
   d="m 62.315897,434.4682 8.901659,0.33459 0.114463,1.59367 2.289249,2.21 6.515557,1.19746 3.98858,12.02736 4.833842,-2.571 1.232664,4.64894 -1.364736,2.7647 1.215064,5.56464 7.026226,2.59742 3.363435,12.89024 -3.777261,-0.44024 -11.525487,3.17853 1.197454,2.49176 2.113153,0.31697 3.653991,2.65025 -6.022483,5.00993 -4.067821,1.083 -0.184901,1.33833 1.584865,0.39621 0.193706,2.99364 2.623832,5.46778 2.403712,-0.0352 0.695584,5.99607 3.363428,-0.21131 1.091795,2.72949 -1.760961,0.98614 -0.66036,1.73454 9.174604,3.72444 -0.994939,1.46159 3.583559,3.2842 -0.51949,2.50056 1.20626,5.75835 -2.04271,0.1937 -0.45785,1.62009 2.80873,3.68921 2.2012,-0.81004 0.7308,4.46403 -0.67797,0.92451 -2.05152,-1.03016 -1.68172,0.96852 -2.35969,-0.70438 -1.628885,0.1761 -1.215063,-1.70814 -2.350883,0.34339 -3.310607,-2.43013 -1.734538,-2.72949 0.08805,-2.86156 -4.939498,-0.71319 0.299363,-4.97471 -6.806117,-0.78363 1.347135,-2.07793 0.255339,-3.48671 -0.704384,-0.43143 -2.641442,0.13207 -8.003569,5.63508 1.505622,-4.25273 -0.466654,-1.76096 4.816228,-3.51311 -5.20364,0.71318 0.343387,-5.36212 -0.968528,-1.39116 -6.304241,-0.14088 -2.50937,2.0163 -1.998691,-0.009 -6.806115,-3.49551 -6.630019,-12.17705 -0.986138,-3.49551 -2.042715,-0.77482 1.540841,-1.41757 1.276697,-3.57475 6.471532,-7.07907 3.706824,-9.60604 -0.202511,-5.28288 13.189599,3.08168 0.343388,-2.66786 -1.382355,-1.36474 0.484265,-2.25403 -2.042715,-2.82635 0.343387,-3.50431 -1.338331,-3.53073 1.065382,-0.90689 -1.488012,-0.65156 -0.422631,-2.30686 -4.816229,-4.27033 0.47546,-3.45148 0.686775,-0.85407 -0.854067,-4.12065 z">
<title
   id="title270">Königsbrück     absolute Anzahl: 35 relativ zur Einwohnerzahl: 0,77 %
</title>
</path>

    <!-- Gemeinde   -->
<path
   style="fill:#671212;fill-opacity:1;stroke:#000000;stroke-width:0.88048059;stroke-linecap:butt"
   onmouseout="style.opacity = 1;"
   onmouseover="style.opacity = 0.5;"
   id="280"
   class="st5"
   d="m 244.47219,466.94121 -0.0793,-0.88929 8.54947,-3.39865 6.48914,-3.89173 6.7709,-0.58992 -1.31192,-4.34957 8.0652,-2.72949 8.27652,0.95972 1.54965,3.87412 -0.40502,4.82503 -2.03391,5.11559 4.34957,1.06538 0.47546,9.02493 0.86287,1.58486 3.34583,1.84021 0.76602,2.97602 8.57588,0.92451 -1.71694,7.26396 6.19858,1.08299 2.52698,-3.47789 1.84901,-1.06539 2.571,0.0969 0.86288,-2.63264 1.45279,-0.46665 -1.06538,-1.4616 -0.26415,-4.81623 3.15212,2.57981 -1.42637,2.07793 0.009,1.89303 2.18359,7.17592 -3.10809,3.4867 -1.0918,4.15587 -11.49908,-3.15212 -8.99851,-1.4792 -2.51817,5.33571 -2.2012,-0.81004 -2.32447,-3.52193 -6.16337,-0.0616 0.31698,-1.47921 -5.96966,0.42263 -1.54965,1.48801 -2.26283,-0.51067 -10.11673,1.86662 -0.0704,-1.24148 -2.79113,0.29056 -1.91945,2.40371 1.6377,1.06538 0.1937,1.42638 -1.33833,0.22892 0.29937,-0.98614 -3.40746,-0.54589 -0.11447,-1.75216 h -4.35837 l -0.0528,-4.42882 2.16598,-8.29412 0.15849,-4.34077 -0.40503,-6.48034 z">
<title
   id="title280">Königswartha     absolute Anzahl: 38 relativ zur Einwohnerzahl: 1,10 %
</title>
</path>

    <!-- Gemeinde   -->
<path
   style="fill:#6e1212;fill-opacity:1;stroke:#000000;stroke-width:0.88048059;stroke-linecap:butt"
   onmouseout="style.opacity = 1;"
   onmouseover="style.opacity = 0.5;"
   id="290"
   class="st13"
   d="m 339.89251,585.87653 -3.06407,-2.30686 3.1169,-0.38741 -0.31697,-1.58487 -3.00244,-2.31566 -3.14332,0.22892 2.87917,-0.33458 0.55471,-2.10435 -1.58487,-1.4616 4.05902,0.32578 0.41382,-1.97227 1.10941,0.0528 0.35219,-1.22386 2.09554,0.36099 -0.23773,-3.97977 -1.83139,-1.02136 -0.95973,-3.27538 3.31061,-3.90053 -2.09555,-1.74336 0.18491,-0.9157 -0.58993,-1.32952 2.60623,0.47546 1.20625,-2.26284 2.5534,0.5371 0.31697,-1.47041 0.9069,0.24654 -0.25534,0.86287 2.33327,0.21132 0.62514,1.49681 2.51818,1.48801 4.78981,0.9157 3.39866,-2.06913 0.79243,-1.81379 3.64519,-1.4704 1.30311,2.79113 -0.83646,0.47546 2.77352,1.22386 0.60753,1.96347 0.17609,1.93706 -1.8402,1.54084 0.7308,6.37468 -0.86287,0.1849 -0.28176,4.015 -2.18359,1.07418 1.4616,-0.29056 -0.33458,2.34208 -0.93331,-0.11446 -0.20251,1.06538 -1.44399,-0.28175 0.7396,3.8565 -1.91064,3.53073 0.0176,1.14462 1.62889,1.18865 2.64144,-0.87167 -3.14332,6.48914 -6.20738,1.21506 1.45279,5.22125 -1.35594,-0.0969 -2.13076,7.40484 0.14968,12.91665 -2.90559,0.0792 -4.68415,-1.54964 0.0969,0.99494 -3.17854,1.6377 -4.7634,-1.54085 -2.3861,0.80124 -1.77857,-6.82372 -1.35594,-0.25534 -0.0176,-2.44774 3.08168,-0.56351 -1.06538,-8.33815 -1.16223,-1.4704 -2.81754,0.66036 -3.42507,-3.75085 -0.28176,2.10435 -2.3861,0.5547 -1.32072,2.65906 -2.39491,-0.94212 -0.64275,0.81004 0.78363,-2.32446 -1.16223,-2.83515 -1.20626,-0.14088 -0.0792,-1.54965 0.9157,0.11447 -0.67798,-2.79113 2.5534,0.41383 0.95092,-1.77857 1.33833,0.45785 0.81004,-1.36475 5.29169,-0.0352 3.31941,-3.40746 z">
<title
   id="title290">Kubschütz     absolute Anzahl: 20 relativ zur Einwohnerzahl: 0,79 %
</title>
</path>
<!--        Lausznitz     -->
<path
   style="fill:#6e1212;fill-opacity:1;stroke:#000000;stroke-width:0.88048059;stroke-linecap:butt"
   onmouseout="style.opacity = 1;"
   onmouseover="style.opacity = 0.5;"
   id="300"
   class="st4"
   d="m 69.972117,517.53186 0.457849,1.76096 -1.505621,4.25273 8.003568,-5.63508 2.650247,-0.13207 0.695579,0.43143 -0.246534,3.48671 -1.35594,2.08673 6.806117,0.77483 -0.290558,4.97471 4.930687,0.71319 -0.07924,2.87037 1.725742,2.72068 3.310607,2.43013 2.350883,-0.33458 1.215063,1.69933 1.628884,-0.1673 -5.388536,8.91047 -0.176096,5.76715 -8.892853,4.56089 -0.237729,1.51442 -4.32316,-0.47546 -4.41121,2.48296 -3.997382,0.38741 -4.402403,2.3773 -2.130763,-0.68678 -1.215064,-0.80124 -0.02641,-1.89303 -1.558451,0.58112 -2.509369,-1.43518 -1.989887,1.74335 -1.734546,-0.0969 0.484264,-4.0414 -2.905586,6.19858 -2.227616,-0.41382 -2.808733,1.21506 -9.905407,-2.90559 -2.377297,-3.51311 -2.104349,0.58992 -3.706823,-2.49176 1.35594,-3.56595 -6.251412,-1.62889 -2.262836,-2.34208 8.84883,-1.54964 1.443989,-8.28533 0.264144,1.44399 5.036349,2.68547 1.523231,-0.1761 0.71319,-1.39996 0.211315,0.60753 -0.202511,-3.01124 5.00113,0.0616 -0.766018,-1.48801 0.801237,-2.42132 -1.408769,-1.39997 -3.891724,0.28176 0.563508,-0.73961 -1.417574,-1.15343 0.07924,-1.85781 1.303112,-1.70813 -2.324469,-1.44399 0.854066,-2.32447 0.158486,1.82259 0.23773,-1.73454 4.155869,2.12196 -0.360997,1.01255 0.598726,-0.9157 2.571004,-0.29936 -2.350883,-7.79226 2.49176,-1.50562 0.352192,0.58112 1.311916,-1.78738 2.852757,0.81885 0.325778,-0.63395 0.281754,-2.86156 -1.822595,0.75721 -4.904277,-1.97227 -2.958415,-2.72949 4.921887,-3.53953 -3.64519,-2.13077 4.728181,-0.88928 1.188649,2.40371 6.806115,3.49551 1.998691,0.009 2.518174,-2.0163 6.295436,0.14088 0.977334,1.39116 -0.352192,5.36212 5.212445,-0.71318 z">
<title
   id="title300">Laußnitz     absolute Anzahl: 15 relativ zur Einwohnerzahl: 0,81 %
</title>
</path>
   <!-- Gemeinde   -->

<path
   style="fill:#961212;fill-opacity:1;stroke:#000000;stroke-width:0.88048059;stroke-linecap:butt"
   onmouseout="style.opacity = 1;"
   onmouseover="style.opacity = 0.5;"
   id="310"
   class="st11"
   d="m 201.11292,365.18319 3.71563,0.27294 2.48295,1.73455 0.62514,-0.77482 1.083,0.94211 -0.87168,0.94212 1.20626,-0.51949 -1.06538,2.85276 2.94961,1.22387 -1.02136,0.7308 -0.58112,-0.7308 -0.22892,1.87542 -2.90559,-0.78363 -0.88048,3.293 -0.9157,0.44024 0.30817,2.40371 -0.87168,1.69933 -0.79243,-0.44024 -2.06913,5.40615 -2.08674,1.91064 -1.48801,-1.05657 -1.99869,3.82128 -3.21376,-3.94455 -1.80498,3.93575 -1.57606,-0.20251 -0.24654,3.14331 -1.98108,-0.26414 0.0528,-3.68921 -1.76096,0.13207 -0.48426,1.19745 1.26789,0.009 -9.41234,4.91308 2.54459,5.97846 -3.65399,2.08674 0.26414,2.41252 -1.75216,-1.66411 -3.28419,1.90184 -2.48295,3.87411 1.54084,0.23773 0.50187,1.33833 -1.99869,0.51068 -0.50187,-1.20626 -4.22631,4.0238 -4.19989,0.0881 0.3698,1.27669 2.06913,1.16224 -1.38236,1.68172 0.51068,3.27538 1.41758,0.28176 2.52698,-1.62009 -0.9069,4.3936 -4.27914,-2.43012 -2.55339,-3.15212 -5.08918,-2.54459 -1.02135,-1.59367 -1.11822,-9.6941 -2.21,-2.70307 3.52192,0.26414 -0.22892,-1.2855 -0.95092,-2.29805 -2.79113,-0.98614 2.9232,-3.4779 8.21488,-3.93575 -4.29674,-4.27913 1.24148,-6.44512 -8.32935,-7.56333 -1.19745,-2.11315 2.55339,-3.72444 14.4751,5.57345 -0.13207,2.21881 1.43518,2.0251 2.29806,0.0704 1.15343,1.35594 1.46159,-0.71319 0.93331,0.96853 4.15587,0.27295 1.29431,-8.54066 2.65905,1.58486 4.28794,0.37861 4.56089,-4.56089 3.28419,1.13582 -0.14968,-3.69802 5.59105,0.61634 0.97733,-1.24148 -0.76601,-1.11821 1.62008,-0.49307 z">
<title
   id="title310">Lauta     absolute Anzahl: 32 relativ zur Einwohnerzahl: 0,38 %
</title>
</path>

   <!-- Gemeinde   -->
<path
   style="fill:#961212;fill-opacity:1;stroke:#000000;stroke-width:0.88048059;stroke-linecap:butt"
   onmouseout="style.opacity = 1;"
   onmouseover="style.opacity = 0.5;"
   id="320"
   class="st7"
   d="m 100.34808,588.63155 -2.430127,-0.66036 -1.047772,-3.03766 0.193705,-4.49045 1.100601,-1.52323 -1.127015,-1.13582 2.447736,-4.08543 -0.836457,-6.07532 1.752159,-0.41382 5.60866,1.62889 4.63133,-4.66655 1.57606,4.91308 2.21881,1.54084 -0.51948,1.87543 0.7396,0.68677 0.39622,-1.82259 3.89172,-4.12946 1.40877,-4.71937 4.49045,0.88048 -1.11821,3.81248 0.83646,1.8402 -0.7308,4.49045 1.51442,2.81754 -0.89809,0.3698 1.68172,7.36963 -6.21619,9.41233 -3.78607,-3.4955 -0.86287,0.66036 -11.14688,-6.10173 z">
<title
   id="title320">Lichtenberg     absolute Anzahl: 8 relativ zur Einwohnerzahl: 0,49 %
</title>
</path>

   <!--        Lohsa     -->
<path
   style="fill:#821212;fill-opacity:1;stroke:#000000;stroke-width:0.88048059;stroke-linecap:butt"
   onmouseout="style.opacity = 1;"
   onmouseover="style.opacity = 0.5;"
   id="330"
   class="st1"
   d="m 272.96014,451.08904 -8.07401,2.72949 1.32072,4.34957 -6.7709,0.58992 -5.60866,-13.44494 -0.7396,-9.42994 0.74841,-1.4616 5.8728,-1.16224 -0.009,-1.4704 1.81379,-0.82765 1.44399,-0.29936 0.80123,2.44773 2.28925,-1.93706 0.5459,1.03017 1.18865,-1.20626 1.48801,0.90689 -0.50187,0.722 3.12571,0.48426 0.52828,2.67666 4.05021,1.17985 4.30555,-3.88292 1.98109,-3.48671 8.82241,-9.60604 -7.55452,-0.99494 0.81004,3.77726 -1.11821,-0.67797 -4.24392,0.76602 -4.08543,-1.10941 5.41496,-7.52811 0.0704,-3.06407 1.09179,-1.44399 -3.51311,-1.44399 -0.25534,-2.52697 2.17478,-3.76846 -8.94568,1.75215 -0.25534,-7.36962 2.53579,0.0793 -0.0969,-4.34077 5.45018,-0.11447 1.27669,2.17479 0.7308,-1.53204 3.81248,-0.64275 2.08674,0.81885 -0.13207,1.84901 3.91814,-4.2175 3.38105,-1.56726 1.41757,0.12327 0.67797,2.76471 6.64763,0.41382 -0.0616,-2.16598 3.34583,0.0176 -0.10566,1.6465 1.10941,0.19371 -1.32953,7.47528 5.57344,2.43012 14.60718,0.0793 1.4704,-0.93331 -0.1849,-1.4616 2.55339,-2.80873 3.05527,4.98352 2.9232,0.72199 1.16223,1.99869 4.01499,1.76096 3.28419,-0.65155 -1.6641,12.59087 5.75834,1.34713 -1.18865,2.76471 -3.09929,1.47921 -2.58861,6.65643 -1.71694,1.43519 -1.21506,3.99738 2.37729,4.3936 -0.17609,2.06913 -2.18359,3.75084 -1.04778,-0.58992 -1.24147,2.61503 -0.79244,-0.12327 -4.15587,7.93313 -2.18359,7.03504 2.28045,-0.25534 -2.45654,2.0075 -1.13582,2.72949 -6.17217,1.38235 -3.95336,8.15325 -2.15718,3.27539 -1.30311,0.29056 -3.14331,-2.57981 0.26414,4.81623 1.06538,1.45279 -1.45279,0.46666 -0.87168,2.64144 -2.5622,-0.10566 -1.84901,1.06538 -2.53578,3.4779 -6.18978,-1.08299 1.71694,-7.26396 -8.58469,-0.92451 -0.75721,-2.96722 -3.35463,-1.84901 -0.86287,-1.57606 -0.47546,-9.03373 -4.34958,-1.06538 2.03391,-5.11559 0.40503,-4.81623 -1.54965,-3.88292 z">
<title
   id="title330">Lohsa     absolute Anzahl: 32 relativ zur Einwohnerzahl: 0,61 %
</title>
</path>
<!-- Gemeinde   -->
<path
   style="fill:#821212;fill-opacity:1;stroke:#000000;stroke-width:0.88048059;stroke-linecap:butt"
   onmouseout="style.opacity = 1;"
   onmouseover="style.opacity = 0.5;"
   id="340"
   class="st4"
   d="m 375.87599,507.84658 -1.30311,-1.87543 -2.66786,2.44774 -3.39865,-0.0176 0.81885,-8.03879 -6.17217,-0.009 -0.71319,-14.63359 2.0163,-0.58992 0.0352,-1.01256 -1.91945,0.13208 -0.25534,-0.87168 -3.08168,0.59873 -0.89809,1.39116 -1.69933,-2.08674 -2.03391,-0.29937 -3.12571,-6.51555 -0.69558,0.0969 -0.21131,-1.23267 1.19745,-0.89809 5.1156,0.0352 -1.03897,-3.4779 1.90184,-0.81885 -1.23268,-1.2855 1.39997,-1.38235 -1.02136,-0.51949 -0.39622,-2.87037 1.31192,-0.53709 0.41383,-1.74335 5.11559,-0.76602 1.77857,-4.92188 1.89303,-1.05658 -1.58486,5.35332 -3.53953,6.36588 0.7484,0.57231 0.88929,-0.97734 1.69052,2.26284 3.63639,1.72574 0.38741,4.09424 2.08674,0.95972 -0.30817,0.88048 1.69052,0.96853 3.08168,5.70551 2.14838,-0.0264 3.20495,-5.11559 1.72574,1.35594 3.46029,0.41382 -0.78363,1.50562 3.09049,0.26415 -3.02005,2.14837 -0.51949,2.79993 5.09799,0.51068 -1.90184,3.35463 5.25647,-0.39622 -0.78363,3.78607 -2.63264,4.72818 0.66917,4.51687 4.34957,2.67666 1.10941,3.61877 4.48164,0.22012 -1.85781,8.95449 -2.50056,4.50806 6.04009,1.07419 4.04141,6.70926 -0.43144,5.06276 -1.17984,-0.1937 -1.84021,1.62889 -3.54833,7.29038 -2.28045,6.06651 1.51443,1.70813 -1.25028,-0.76602 -1.47921,2.94961 -1.8226,-0.27295 -0.7396,7.25516 -2.49176,2.50057 -1.22387,-0.37861 -0.29056,2.35969 -2.31566,1.12701 -1.38235,-0.40502 -3.19615,-1.98988 -0.48426,-2.35969 -2.0163,0.37861 -0.49307,-1.32953 -0.9157,0.31697 -1.31192,-1.17984 -2.50056,2.21 -0.77483,-1.1006 -3.58355,-0.89809 -0.60753,-1.96347 -2.77352,-1.21506 0.83646,-0.48427 -1.30311,-2.79112 -3.63639,1.4704 -0.80124,1.81379 -3.39865,2.06913 -4.78981,-0.90689 -2.51818,-1.49682 -0.62514,-1.49682 -2.33327,-0.21131 0.25534,-0.86287 -0.9069,-0.24654 -0.30817,1.47041 -2.5622,-0.5371 -1.19745,2.26284 -2.60622,-0.47546 0.58111,1.32952 -4.78981,-0.9245 0.66917,-2.50057 -2.5534,-1.41757 0.27295,-1.13582 -0.80124,-0.32578 0.94212,-2.21 -1.71694,-0.14088 -1.86662,-2.17479 -0.10566,-2.26283 1.32072,-1.30311 -1.07418,0.009 -0.21132,-2.04271 1.66411,-0.62515 -0.46665,-1.849 2.56219,0.66036 0.29937,-2.34208 0.65155,0.13207 -0.7396,-1.33833 0.59873,-2.07794 1.4704,-0.22012 -0.87168,-0.9245 1.86662,-2.46535 8.32935,1.4528 1.49682,-0.88929 1.22386,-2.79993 0.96853,0.32578 2.40371,-1.56725 1.2679,-2.3773 2.64144,0.76602 -0.75721,1.78737 1.18864,0.48427 -0.10565,1.20625 0.94211,0.12327 0.34339,-1.11821 4.34077,0.82765 1.81379,-1.81379 2.03391,-8.82241 -1.88423,-2.97603 2.21881,0.0528 1.02136,-1.95466 1.4704,-0.42264 -0.22012,-0.83645 2.60622,-0.31697 z">
<title
   id="title340">Malschwitz     absolute Anzahl: 30 relativ zur Einwohnerzahl: 0,65 %
</title>
</path>
<!-- Gemeinde   -->

<path
   style="fill:#6e1212;fill-opacity:1;stroke:#000000;stroke-width:0.88048059;stroke-linecap:butt"
   onmouseout="style.opacity = 1;"
   onmouseover="style.opacity = 0.5;"
   id="350"
   class="st15"
   d="m 222.79387,511.30598 -5.98726,-2.43893 -3.85651,1.16224 -2.3861,2.72068 -0.12327,3.75965 1.13582,0.81885 -0.42263,2.77352 -0.88048,-0.44905 -0.25534,1.15343 0.38741,2.99363 2.31567,-0.11446 0.1937,1.54965 2.50057,1.15343 v 1.96347 l -2.58862,0.20251 0.3522,1.19745 2.54459,0.39622 0.24653,0.99494 -0.44024,1.62009 -1.72574,-0.30817 0.7396,3.73324 -3.60116,-0.46666 0.0176,1.05658 h -2.9232 l -0.58112,-1.25909 -3.54833,1.32072 -3.94456,-2.25403 -1.57606,-0.39621 0.59873,-2.70308 -5.39735,-4.15587 -1.67291,-0.95972 0.7308,-1.67292 -2.40371,-0.47546 -0.0264,-2.52697 -4.09423,-4.61372 -0.7308,-3.97097 2.35088,-0.0792 2.62383,-4.65775 3.74205,-0.44024 1.23267,3.27539 1.69933,-0.56351 -0.0793,-1.2855 3.19615,-0.0792 5.36212,-2.88798 -1.03896,-8.38217 -4.61372,-7.60736 6.83253,-2.74709 0.26414,1.4792 -1.60247,1.32072 0.044,1.34714 1.4528,0.60753 2.50937,-1.49682 3.09929,0.1849 1.35594,-0.9245 0.44904,-3.68041 5.72313,7.21114 -0.44905,6.34826 2.42132,4.69296 z">
<title
   id="title350">Nebelschütz     absolute Anzahl: 11 relativ zur Einwohnerzahl: 0,90 %
</title>
</path>

   <!-- Gemeinde   -->
 <path
   style="fill:#961212;fill-opacity:1;stroke:#000000;stroke-width:0.88048059;stroke-linecap:butt"
   onmouseout="style.opacity = 1;"
   onmouseover="style.opacity = 0.5;"
   id="360"
   class="st13"
   d="m 257.56758,497.26936 10.11672,-1.85781 2.26283,0.50187 1.54965,-1.48801 5.96085,-0.41383 -0.30817,1.47921 6.16337,0.0528 2.32447,3.53073 2.2012,0.80124 2.50937,-5.33572 9.00731,1.47921 -6.2426,14.35183 -3.46029,5.52942 0.22012,1.8226 -0.95973,0.44024 0.43144,4.49925 -2.94081,5.71432 1.06539,0.31698 0.57231,2.61502 -1.2855,7.16711 -5.02755,-1.08299 0.64275,2.17479 -0.99494,4.51687 -3.52192,-0.92451 -0.60753,4.66655 -1.71694,1.84901 -1.19745,-0.044 -0.044,-1.13582 -4.7634,-0.63394 -0.34339,-1.35594 -1.49681,-0.15849 -0.16729,0.63395 -0.59873,0.30817 0.72199,-0.84527 -1.36474,-1.07418 -1.4704,0.0176 -0.26415,1.08299 -2.28044,-0.19371 -1.47921,-0.79243 1.32072,-1.4704 -2.67666,0.1937 -1.81379,-0.58111 0.22892,-1.8226 2.10435,-0.14968 1.6465,-2.63264 -0.66036,-4.83384 1.04777,-0.31697 0.40502,-2.17479 1.18865,-0.0704 -0.27295,-0.85407 2.90559,-1.72574 2.54459,-3.07288 -1.21506,-0.15849 -2.97603,-4.70176 -4.49045,0.0528 -0.34339,-1.54084 -3.26658,-1.57607 -0.95092,2.02511 -1.52323,-0.1849 -0.41383,1.38235 -3.45148,-2.73829 -0.39622,1.03016 -5.81997,-0.12327 -1.25029,-2.29805 0.51068,-0.78363 -2.57981,-0.28175 0.0176,-4.05902 2.68547,-1.85781 -0.16729,-2.48296 2.18359,-2.10435 0.38741,-7.40484 4.35838,-0.009 0.11446,1.75215 3.41627,0.5459 -0.29937,0.99495 1.33833,-0.22893 -0.1937,-1.43518 -1.63769,-1.05658 1.91944,-2.41252 2.79113,-0.29055 z">
<title
   id="title360">Neschwitz     absolute Anzahl: 12 relativ zur Einwohnerzahl: 0,50 %
</title>
</path>

    <!-- Gemeinde   -->
<path
   style="fill:#821212;fill-opacity:1;stroke:#000000;stroke-width:0.88048059;stroke-linecap:butt"
   onmouseout="style.opacity = 1;"
   onmouseover="style.opacity = 0.5;"
   id="370"
   class="st13"
   d="m 100.43877,477.72357 6.49795,0.45785 2.86156,2.02511 4.97471,0.044 3.51312,2.2012 0.16729,-1.49681 2.51818,2.03391 2.43012,0.25534 -4.23511,2.36849 1.04777,2.66786 1.73455,-2.05152 4.54328,-0.37861 1.39116,-1.4704 1.15343,0.24653 3.15212,3.21376 -3.99738,2.27164 0.96853,6.71806 1.53203,2.80874 2.63264,1.72574 -2.39491,8.57588 -4.18228,9.86138 -10.45131,-0.50187 -6.45392,-4.33197 -4.78981,2.38611 -4.52567,-0.22012 -9.174611,-3.71563 0.669165,-1.74335 1.752156,-0.98614 -1.091796,-2.72949 -3.363427,0.21131 -0.695584,-5.99607 -2.403712,0.044 -2.623832,-5.47659 -0.193706,-2.99363 -1.584865,-0.39622 0.184901,-1.32952 4.067821,-1.0918 6.022482,-5.00993 -3.65399,-2.65025 -2.113153,-0.30817 -1.188649,-2.50056 11.525487,-3.17854 z">
<title
   id="title370">Neukirch     absolute Anzahl: 10 relativ zur Einwohnerzahl: 0,62 %
</title>
</path>
 <!-- Gemeinde   -->

<path
   style="fill:#6e1212;fill-opacity:1;stroke:#000000;stroke-width:0.88048059;stroke-linecap:butt"
   onmouseout="style.opacity = 1;"
   onmouseover="style.opacity = 0.5;"
   id="380"
   class="st11"
   d="m 269.86877,625.83714 9.64126,0.41383 0.15849,8.6111 -1.52323,0.85406 0.81884,1.8226 -0.52828,3.43387 1.06538,1.14463 -9.06895,2.62383 -0.57232,1.56725 -4.26152,2.57981 -0.63395,2.33328 2.70308,4.02379 -8.45262,-0.60753 -4.24391,-2.932 -5.58225,-0.94211 -5.51181,-6.73568 0.35219,-3.67161 1.62009,-0.27294 -1.62889,-2.44774 0.11446,-2.3773 1.32072,-1.97227 0.1761,-6.47154 14.31661,-3.96216 z">
<title
   id="title380">Neukirch/Lausitz     absolute Anzahl: 46 relativ zur Einwohnerzahl: 0,95 %
</title>
</path>

    <!-- Gemeinde   -->
<path
   style="fill:#961212;fill-opacity:1;stroke:#000000;stroke-width:0.88048059;stroke-linecap:butt"
   onmouseout="style.opacity = 1;"
   onmouseover="style.opacity = 0.5;"
   id="390"
   class="st5"
   d="m 308.57558,599.51869 -0.0264,2.65906 3.08168,5.16842 0.82766,-0.47546 0.50187,1.99869 2.13076,0.0528 1.72575,3.50431 -1.86662,2.98483 -0.95973,-0.361 -0.0704,2.95842 -3.10809,7.86269 -0.67797,-0.20251 -1.67292,-1.91065 -3.68921,-0.35219 -0.45785,-2.48295 -6.61241,-1.39997 -0.86287,-0.45785 0.23773,-1.76096 -2.0075,0.51068 -0.90689,-1.11821 0.0528,-5.72312 3.05527,-7.36963 1.19745,0.12327 1.40877,-2.79112 1.12701,1.11821 0.78363,-2.61503 1.38236,-0.361 -0.41383,-1.2855 1.1006,-0.45785 3.53073,0.62514 -0.49307,1.24148 z">
<title
   id="title390">Obergurig     absolute Anzahl: 7 relativ zur Einwohnerzahl: 0,34 %
</title>
</path>

   <!-- Gemeinde   -->
<path
   style="fill:#961212;fill-opacity:1;stroke:#000000;stroke-width:0.88048059;stroke-linecap:butt"
   onmouseout="style.opacity = 1;"
   onmouseover="style.opacity = 0.5;"
   id="410"
   class="st11"
   d="m 172.70069,574.38273 0.48427,3.31942 -0.81885,0.49306 -2.79993,0.50188 0.37861,1.42638 -1.93706,1.48801 -4.83384,1.15343 -0.46665,-0.79243 0.22892,1.59367 -1.95467,2.22761 -6.92057,3.62758 -2.87917,-1.62889 -4.62253,1.23268 -2.81754,-2.94961 -2.40371,-0.94212 1.53204,-3.15212 -0.98614,-1.12701 -0.89809,0.50187 -1.8402,-3.03766 4.11184,-2.13076 -2.32447,-0.45785 0.9069,-0.57231 5.22125,-0.63395 0.63394,-2.81754 2.13077,-1.66411 0.0264,-1.13582 4.49926,0.31698 8.9809,3.43387 5.77595,-3.69802 3.40746,-3.83889 3.17854,7.1407 z">
<title
   id="title410">Ohorn     absolute Anzahl: 12 relativ zur Einwohnerzahl: 0,49 %
</title>
</path>

   <!-- Gemeinde   -->
<path
   style="fill:#671212;fill-opacity:1;stroke:#000000;stroke-width:0.88048059;stroke-linecap:butt"
   onmouseout="style.opacity = 1;"
   onmouseover="style.opacity = 0.5;"
   id="420"
   class="st5"
   d="m 195.39596,438.09226 6.99102,0.14968 2.03391,2.13077 0.97733,4.10304 2.43893,3.29299 8.54947,-4.49925 5.83758,-1.39116 0.89809,4.42001 -1.24147,5.56464 -5.32691,5.6879 1.61128,1.97228 1.44399,4.62252 0.29055,5.45898 1.10941,-0.63394 1.60247,2.13076 0.5371,7.30799 -2.22762,1.22387 -2.21881,-2.04272 -1.31192,0.50188 -9.98465,6.80611 -0.71318,2.7559 -6.83253,2.7471 -4.74579,-8.62871 -4.06782,-4.14706 -3.87412,-8.52305 -1.16223,0.90689 0.17609,2.23642 -3.3018,0.92451 -4.41121,-1.79618 0.24654,-2.29806 -1.15343,-0.5547 -0.77483,-2.94961 -0.95091,-0.23773 0.59872,-1.15343 -1.34713,-1.22387 -1.40877,2.99364 -2.89678,-1.21507 -3.80368,0.46666 1.03016,-1.38236 2.13957,0.40503 -0.81004,-5.53823 3.09049,-0.86287 1.16223,-1.71694 1.67291,0.1673 0.62514,-1.84021 0.58112,-9.04253 -2.36849,0.0176 -2.66786,-3.07288 0.42263,-2.23642 4.5785,0.22892 -0.50187,-2.06032 3.19614,-0.79243 1.74335,6.73567 3.8477,0.0704 3.26659,-3.06407 0.84526,2.78232 5.09798,7.66898 2.62383,-4.07662 z">
<title
   id="title420">Oßling     absolute Anzahl: 25 relativ zur Einwohnerzahl: 1,11 %
</title>
</path>

   <!-- Gemeinde   -->
<path
   style="fill:#961212;fill-opacity:1;stroke:#000000;stroke-width:0.88048059;stroke-linecap:butt"
   onmouseout="style.opacity = 1;"
   onmouseover="style.opacity = 0.5;"
   id="430"
   class="st4"
   d="m 36.064721,584.19217 -3.618776,-0.1849 0.405021,-0.95092 -3.821285,-4.81623 -2.685466,-0.52829 -0.07044,-2.89678 1.840205,-4.37599 5.018739,-3.95336 5.124397,-0.9245 0.405021,-2.72949 1.250283,-0.37861 9.905407,2.90559 2.808733,-1.21507 2.227616,0.41383 2.905586,-6.19858 -0.484265,4.0414 1.734547,0.0969 1.989886,-1.74336 2.50937,1.43519 1.558451,-0.58112 0.02641,1.90184 1.215063,0.79243 2.130763,0.68678 1.294307,-0.76602 0.572312,1.16223 1.752156,0.44905 -3.020048,6.68285 -0.369802,5.72312 -3.275388,0.66036 -0.783627,1.43518 0.316973,2.7383 0.827651,0.0528 1.179844,3.50431 -1.461597,-1.91945 0.906895,4.41121 1.13582,0.93331 -4.472842,3.32822 -3.16973,0.64275 -1.849009,4.01499 -1.443988,-0.65156 -1.919448,1.30311 -1.091796,-2.33327 -4.243917,-3.71563 -3.786066,-0.90689 -0.862871,-3.02005 -0.924505,-0.009 -1.57606,-6.21619 -1.320721,-0.97733 z">
<title
   id="title430">Ottendorf-Okrilla     absolute Anzahl: 47 relativ zur Einwohnerzahl: 0,47 %
</title>
</path>

   <!-- Gemeinde   -->
<path
   style="fill:#5a1212;fill-opacity:1;stroke:#000000;stroke-width:0.88048059;stroke-linecap:butt"
   onmouseout="style.opacity = 1;"
   onmouseover="style.opacity = 0.5;"
   id="440"
   class="st15"
   d="m 217.16848,553.72314 0.11447,1.92825 -0.86287,1.17104 -0.30817,-1.38236 -0.23773,1.89304 -3.96217,-0.71319 0.29056,4.64013 2.79113,-0.59873 1.02135,1.70814 -0.62514,1.31191 1.08299,0.89809 -1.4704,2.72069 -5.19483,2.21 -2.85276,-0.49306 -2.47415,3.91813 -4.66655,1.99869 -2.71188,0.1673 -3.54834,-4.30555 1.8314,-4.21751 2.41252,-0.64275 1.63769,-4.14706 2.03391,-0.43144 -0.29055,-1.86661 1.76976,-1.21507 -0.84526,-4.18228 -1.80498,-0.14968 0.9157,-5.37093 -0.81005,-1.21507 1.10941,-1.55845 1.92825,0.86287 0.40502,-1.25908 -3.16092,-2.1924 0.20251,-3.02885 -1.92826,-1.14463 1.00375,-4.44643 3.94456,2.24523 3.54833,-1.31192 0.58112,1.25029 h 2.9232 l -0.0176,-1.05658 3.60116,0.46665 -0.7396,-3.72443 1.72574,0.29936 0.44024,-1.61128 1.24148,0.41383 -0.51068,1.84901 1.92825,1.1006 3.73324,0.81004 1.98108,-1.40877 -2.49176,2.5534 4.24392,0.14968 1.09179,1.71694 -1.22387,1.34713 0.95092,-0.16729 0.73961,2.73829 4.23511,0.7308 1.03897,1.84901 1.87542,-0.74841 -1.14462,0.97734 0.088,2.31566 2.79113,0.32578 0.65155,-1.45279 1.39116,0.0969 0.0793,1.58486 5.8728,0.97734 -0.30817,1.41757 0.47546,1.60248 -0.96853,2.27164 1.69933,0.88928 -0.30817,2.84395 -3.06407,-0.0616 -3.8565,-3.08168 -4.03261,3.44268 0.81885,-1.32953 -2.07793,-0.66036 -0.86287,-1.91064 -1.66411,0.41382 0.0528,-0.7484 -2.7383,-0.98614 0.32578,-3.54834 -6.38348,1.26789 -0.1761,1.18865 -0.088,-1.12701 -1.43518,0.22892 z">
<title
   id="title440">Panschwitz-Kuckau     absolute Anzahl: 35 relativ zur Einwohnerzahl: 1,67 %
</title>
</path>

    <!-- Gemeinde   -->
<path
   style="fill:#5f1212;fill-opacity:1;stroke:#000000;stroke-width:0.88048059;stroke-linecap:butt"
   onmouseout="style.opacity = 1;"
   onmouseover="style.opacity = 0.5;"
   id="450"
   class="st4"
   d="m 124.84569,563.39522 -4.49045,-0.88048 -2.53578,-7.26397 -4.3848,-3.31061 -1.53203,-5.28288 -1.8314,0.3698 -0.79244,-4.49925 -2.0163,-1.60248 8.58469,-5.14201 8.26771,-1.27669 -0.0352,-1.23267 0.75722,2.571 4.9571,-0.99494 2.66786,4.24391 -1.18865,0.51949 1.11821,3.35463 -0.81885,2.21881 2.13077,-0.1761 2.47415,6.62122 1.17984,0.33458 0.22012,6.67404 1.04777,1.62009 1.17985,-0.22893 0.79243,1.76977 2.97602,0.28175 3.62758,1.8314 1.21507,1.55845 -0.86287,1.61128 2.29805,1.8226 -0.0264,1.13582 -2.13077,1.6641 -0.63394,2.81754 -5.22125,0.63395 -0.9069,0.57231 2.32447,0.45785 -4.11184,2.13076 1.8402,3.03766 0.89809,-0.50187 0.99494,1.12701 -1.54084,3.15212 -3.79487,1.57606 -3.02005,-2.7559 -5.92563,1.52323 -2.47415,-1.38235 -1.67292,-7.36963 0.89809,-0.36099 -1.51442,-2.81754 0.7308,-4.49926 -0.84526,-1.8402 z">
<title
   id="title450">Pulsnitz     absolute Anzahl: 101 relativ zur Einwohnerzahl: 1,35 %
</title>
</path>

    <!-- Gemeinde   -->
<path
   style="fill:#961212;fill-opacity:1;stroke:#000000;stroke-width:0.88048059;stroke-linecap:butt"
   onmouseout="style.opacity = 1;"
   onmouseover="style.opacity = 0.5;"
   id="460"
   class="st11"
   d="m 253.56931,521.27391 0.41383,-1.38236 1.52323,0.1849 0.95092,-2.0251 3.26658,1.57606 0.34339,1.54084 4.49045,-0.0528 2.97602,4.70177 1.21507,0.14968 -2.54459,3.08168 -2.90559,1.72574 0.27295,0.85407 -1.18865,0.0704 -0.40502,2.16598 -1.04777,0.32578 0.66036,4.83383 -1.6465,2.63264 -2.10435,0.14968 -0.22892,1.8226 1.81379,0.58111 -1.37355,0.9069 -7.80986,-0.53709 -0.49307,-1.16224 -1.54084,-0.27295 -0.13208,-5.97846 -5.45017,-1.39996 -1.74335,-3.53073 1.1006,-0.92451 -0.13207,-4.07662 2.21881,-1.32072 -0.16729,-6.47153 5.81997,0.12326 0.39622,-1.03896 z">
<title
   id="title460">Puschwitz     absolute Anzahl: 3 relativ zur Einwohnerzahl: 0,37 %
</title>
</path>

    <!-- Gemeinde   -->
<path
   style="fill:#551212;fill-opacity:1;stroke:#000000;stroke-width:0.88048059;stroke-linecap:butt"
   onmouseout="style.opacity = 1;"
   onmouseover="style.opacity = 0.5;"
   id="470"
   class="st9"
   d="m 229.23547,509.24302 2.7559,-0.71319 0.80124,1.72574 -0.9245,1.37355 1.22387,0.009 -0.1673,6.4187 1.44399,0.13207 -0.009,3.28419 -1.17985,-0.0528 -0.21131,2.81754 1.20626,0.63395 0.0264,1.74335 -2.42132,-0.9157 -1.08299,1.32072 -0.27295,-1.34713 -0.53709,1.4704 -1.49682,-0.0352 0.0176,1.59367 -1.54965,1.04777 0.56351,0.38741 -2.29805,0.70439 0.44024,2.14837 -1.21507,0.9245 -1.98988,1.40877 -3.72444,-0.81004 -1.92825,-1.09179 0.51068,-1.85782 -1.24148,-0.41382 -0.25534,-1.00375 -2.53578,-0.38741 -0.361,-1.19746 2.59742,-0.21131 v -1.96347 l -2.50057,-1.15343 -0.20251,-1.54085 -2.30685,0.11447 -0.39622,-2.99364 0.25534,-1.15343 0.88048,0.44905 0.42263,-2.77352 -1.12702,-0.82765 0.12327,-3.75084 2.3861,-2.72069 3.85651,-1.16223 5.98727,2.43012 0.29056,1.32953 1.75215,0.32578 z">
<title
   id="title470">Räckelwitz     absolute Anzahl: 21 relativ zur Einwohnerzahl: 1,86 %
</title>
</path>

    <!-- Gemeinde   -->
<path
   style="fill:#961212;fill-opacity:1;stroke:#000000;stroke-width:0.88048059;stroke-linecap:butt"
   onmouseout="style.opacity = 1;"
   onmouseover="style.opacity = 0.5;"
   id="480"
   class="st4"
   d="m 108.04436,606.23236 0.33458,4.17348 1.37355,1.06538 -1.51442,1.00375 -2.23643,0.29936 -1.64649,4.48165 -1.23268,-1.32953 -1.6465,0.60753 2.28925,3.16973 -0.23773,2.28925 -0.85406,-0.0264 -0.7308,3.4955 -1.79618,0.50188 -0.915701,2.3773 -3.292997,2.72068 3.398655,5.3093 2.139563,-0.27295 2.79993,6.70926 -1.27669,4.17348 1.97227,0.71319 0.7308,1.52323 -2.67666,0.98614 -0.9157,-0.59873 -2.271639,3.82129 0.994939,1.45279 0.5371,-0.76602 1.52323,1.15343 -0.51949,0.70439 -8.778387,1.86662 0.827652,-1.10941 -1.752156,0.64275 -0.959724,-1.21506 0.827652,-0.86287 -3.574743,-2.77352 -8.056402,-1.11821 -4.199895,-1.90183 3.108097,-3.49551 2.456543,-1.14463 0.369802,-1.76096 -2.474153,-0.71319 2.245228,-1.8314 -0.06163,-1.31191 2.298055,-0.49307 -0.325778,1.39116 -1.655303,0.0792 2.324468,2.33327 1.875424,-1.34713 -0.713189,-2.04272 0.721994,-1.26789 1.435183,-0.1849 0.686779,-2.97602 -0.968533,-1.49682 0.633946,-0.41383 -1.523231,-1.32072 -1.602475,0.14968 -1.443988,-2.7471 -1.866619,-0.95092 1.628889,-3.09929 -2.799928,-2.13956 0.184901,-1.32073 H 78.85643 l -3.011244,-7.18472 -2.650246,-1.89303 -1.127016,-2.60622 -0.810042,-4.14707 8.118031,-3.05526 0.08805,-3.79488 0.69558,1.91065 2.623835,-0.12327 1.408769,1.22387 0.757213,-1.15343 2.201202,1.12701 0.396216,-2.16598 2.306864,2.07794 -0.334583,1.06538 2.817529,3.45148 0.264144,-0.79243 2.835148,0.72199 6.81492,-1.71693 2.87917,2.09554 1.78737,-1.60248 z">
<title
   id="title480">Radeberg     absolute Anzahl: 65 relativ zur Einwohnerzahl: 0,35 %
</title>
</path>

    <!-- Gemeinde   -->
<path
   style="fill:#821212;fill-opacity:1;stroke:#000000;stroke-width:0.88048059;stroke-linecap:butt"
   onmouseout="style.opacity = 1;"
   onmouseover="style.opacity = 0.5;"
   id="490"
   class="st5"
   d="m 288.91004,518.16757 0.96853,-0.44024 -0.22012,-1.8226 3.45149,-5.53822 6.25141,-14.34303 11.49027,3.15212 1.0918,-4.15587 3.10809,-3.4867 -2.18359,-7.17592 -0.009,-1.89303 1.42637,-2.07793 1.30311,-0.28176 2.14838,-3.28419 3.95336,-8.15325 6.18097,-1.37355 1.13582,-2.73829 2.45654,-1.99869 2.21001,0.20251 1.43518,1.93705 0.0704,8.0476 1.36474,1.6553 0.39622,2.58861 -0.92451,-0.0352 -0.39621,1.23268 1.76096,1.98108 1.17984,-0.22893 -2.71188,11.52549 -2.7471,2.96722 0.36981,1.98989 2.43893,2.07793 0.0792,6.38349 -6.45392,5.18603 -0.0969,-1.67291 -4.49925,0.75721 -1.18865,1.54964 0.0264,3.23137 -2.14837,1.47921 -1.99869,-0.25534 0.63395,1.78737 -0.99495,0.5459 -0.0264,1.47921 3.82129,0.15848 1.54084,1.02136 1.2855,2.5622 -2.81754,1.55845 1.93706,0.088 1.26789,2.45654 -1.93706,0.64275 -0.88048,1.50562 -1.8314,-0.15848 -1.87542,8.89285 -1.35594,-0.26414 -0.79243,3.14331 -1.10061,-0.26414 -0.90689,1.26789 -0.98614,3.73324 -4.84264,0.9157 -2.1924,-2.60623 -3.3018,0.0176 1.15343,6.92058 -1.53204,2.24523 -4.05901,-2.09555 0.22892,-1.4792 -1.50562,-0.22893 -0.0176,1.17104 -0.90689,0.0528 0.46665,-1.25909 -0.86287,0.53709 0.21131,-0.71319 -2.72949,-1.92825 -2.62383,1.4528 -1.17104,2.10434 0.97734,0.70439 -0.5371,1.30311 -3.24016,-1.95467 1.11821,-0.53709 -0.73961,-2.05152 -0.63394,0.9245 -2.11316,-1.82259 -2.50056,2.28044 -1.54965,-1.30311 -2.05152,1.56726 -2.40371,-1.69933 0.60753,-4.66655 3.52192,0.92451 0.98614,-4.51687 -0.64275,-2.18359 5.02755,1.0918 1.2855,-7.17592 -0.57232,-2.60622 -1.06538,-0.31698 2.94081,-5.72312 z">
<title
   id="title490">Radibor     absolute Anzahl: 23 relativ zur Einwohnerzahl: 0,74 %
</title>
</path>

<!-- Gemeinde Ralbitz-Rosenthal  -->
<path
   style="fill:#961212;fill-opacity:1;stroke:#000000;stroke-width:0.88048059;stroke-linecap:butt"
   onmouseout="style.opacity = 1;"
   onmouseover="style.opacity = 0.5;"
   id="500"
   class="st6"
   d="m 244.46955,466.94209 3.09048,7.67779 0.40502,6.48034 -0.14968,4.34077 -2.17479,8.29412 -0.33458,11.84247 -2.19239,2.10435 0.16729,2.48295 -2.67666,1.85782 0.0264,2.18359 -3.20495,-0.58112 -0.29056,1.42638 -1.79618,-0.52829 1.60248,1.13582 -1.88423,-0.52829 -0.69558,3.05527 -1.44399,-0.14088 0.1761,-6.4099 -1.22387,-0.009 0.9157,-1.37355 -0.79243,-1.72574 -2.76471,0.71319 -4.3936,3.71562 -1.75216,-0.32577 -1.11821,-7.8803 -2.42132,-4.70177 0.44905,-6.34827 -5.72313,-7.21113 -0.44904,3.68041 -1.35594,0.9245 -3.0993,-0.1849 -2.50937,1.50562 -1.45279,-0.61633 -0.044,-1.34714 1.60247,-1.32072 -0.26414,-1.4704 0.70438,-2.76471 9.98465,-6.80612 1.31192,-0.49307 2.21881,2.04272 2.23642,-1.22387 -0.5459,-7.31679 5.28289,-1.50562 4.93069,-2.5534 0.44904,-1.14462 1.44399,0.82765 z">
<title
   id="title500">Ralbitz-Rosenthal     absolute Anzahl: 7 relativ zur Einwohnerzahl: 0,41 %
</title>
</path>

    <!-- Gemeinde   -->
<path
   style="fill:#6e1212;fill-opacity:1;stroke:#000000;stroke-width:0.88048059;stroke-linecap:butt"
   onmouseout="style.opacity = 1;"
   onmouseover="style.opacity = 0.5;"
   id="510"
   class="st11"
   d="m 171.90738,580.71339 -3.36344,2.10435 -0.53709,-1.20626 1.94586,-1.47921 -0.38741,-1.43518 2.79993,-0.50188 4.15587,1.98109 0.81004,-1.41758 0.87167,0.57231 1.50563,-2.50056 4.12945,2.7471 10.88274,9.28026 -0.28175,2.43013 2.23642,0.44905 -4.34077,5.88161 0.83646,5.79356 -7.33441,2.40371 -4.16467,-2.23642 -5.81998,-7.7042 0.77482,-4.82504 -0.9245,-6.03129 -3.91814,0.0528 0.88048,-1.8226 z">
<title
   id="title510">Rammenau     absolute Anzahl: 11 relativ zur Einwohnerzahl: 0,82 %
</title>
</path>

    <!-- Gemeinde   -->
<path
   style="fill:#6e1212;fill-opacity:1;stroke:#000000;stroke-width:0.88048059;stroke-linecap:butt"
   onmouseout="style.opacity = 1;"
   onmouseover="style.opacity = 0.5;"
   id="525"
   class="st5"
   d="m 310.81288,625.8706 11.52549,-0.16729 1.25909,2.23642 2.56219,0.48426 0.48427,1.32953 2.2012,0.81004 0.25534,-1.61128 2.91439,-0.96853 5.24767,0.15849 -0.52829,5.6791 -2.62384,1.40877 -0.11446,1.08299 2.91439,4.3936 4.13826,0.99494 -0.26414,7.89791 -5.23886,1.79618 -0.95973,2.50937 1.10941,1.49682 -3.64519,0.67797 -1.03016,-2.57101 -5.92564,-1.09179 -8.60229,2.19239 1.54964,3.82129 -3.73323,2.23642 -2.76471,-0.9157 -3.09049,0.38741 -6.9646,-3.69802 -3.00244,-2.92319 -1.52323,-4.00619 8.31174,-4.89547 0.42263,-1.8314 2.571,-1.91945 -1.35594,-0.50187 0.83646,-1.06538 0.16729,-4.32316 1.4704,-1.55845 0.74841,-7.74823 z">
<title
   id="title525">Schirgiswalde-Kirschau     absolute Anzahl: 48 relativ zur Einwohnerzahl: 0,78 %
</title>
</path>

   <!-- Gemeinde   -->
<path
   style="fill:#961212;fill-opacity:1;stroke:#000000;stroke-width:0.88048059;stroke-linecap:butt"
   onmouseout="style.opacity = 1;"
   onmouseover="style.opacity = 0.5;"
   id="530"
   class="st4"
   d="m 247.6833,612.77873 -0.50187,1.35594 1.45279,2.29806 0.60753,5.96965 0.22893,1.04778 0.82765,-0.15849 0.26414,2.28925 -4.72818,1.23267 -0.1761,6.47153 -1.32072,1.97228 -0.12326,2.3773 1.63769,2.44774 -1.62008,0.27294 -0.3522,3.67161 5.51181,6.73567 -3.06407,5.20365 -4.24392,3.39865 -3.74204,0.84526 0.75721,-3.15212 -1.90183,-1.4616 0.21131,-1.48801 -1.74335,-3.24897 -5.08918,-1.26789 0.81885,-1.28551 -2.06033,-1.19745 -12.2827,-5.17723 -0.58112,0.7308 -7.19352,-1.91064 -2.21001,3.89172 -2.02511,-0.62514 0.38742,-0.90689 -1.40877,-0.81004 1.8314,-3.02886 -2.62384,-0.95092 0.63395,-0.7396 1.98989,0.65156 0.28175,-0.75722 -4.13826,-1.25028 0.94212,-1.23267 3.89172,0.28175 -1.18865,-6.24261 1.19745,-1.03896 -1.13582,-0.25534 2.40372,-2.21001 4.36718,-0.65155 2.10435,1.93705 2.89678,-0.0969 2.08674,1.30311 5.19484,-8.99851 -0.722,-0.76602 0.75721,-1.23267 -1.98108,-2.46535 -2.69427,-1.17984 0.85407,-2.61503 3.61877,-1.76976 -0.5547,-1.40877 4.2087,2.85275 5.25647,-0.42263 2.65905,2.04272 5.15081,-1.00375 z">
<title
   id="title530">Schmölln-Putzkau     absolute Anzahl: 13 relativ zur Einwohnerzahl: 0,43 %
</title>
</path>

    <!-- Gemeinde   -->
<path
   style="fill:#821212;fill-opacity:1;stroke:#000000;stroke-width:0.88048059;stroke-linecap:butt"
   onmouseout="style.opacity = 1;"
   onmouseover="style.opacity = 0.5;"
   id="550"
   class="st11"
   d="m 90.038541,462.23504 -1.206259,-5.56464 1.355931,-2.7559 -1.232664,-4.65774 -4.833843,2.5798 -3.988579,-12.02736 2.976027,-1.89303 0.625141,0.63394 1.884229,-0.81004 1.32072,1.0918 4.226303,-1.35594 -0.369802,-3.24017 9.095365,-2.22762 2.79993,-1.98989 1.48801,0.28176 6.06651,-5.29169 3.54834,-0.30817 4.96591,2.7471 -1.06538,12.29151 13.03991,2.36849 4.69297,5.62627 -3.90934,3.90053 -3.63638,6.99982 1.77857,2.9232 3.3018,3.27539 8.17086,-1.48801 4.3936,2.89678 5.03635,-0.1761 -1.01255,1.00375 -0.98614,5.83758 -2.21881,2.25403 -4.69297,0.68678 -12.61728,8.77839 -1.14463,-0.24653 -1.39996,1.4704 -4.54328,0.37861 -1.73455,2.05152 -1.03897,-2.66786 4.22631,-2.36849 -2.43012,-0.25534 -2.51818,-2.03391 -0.15849,1.49681 -3.51311,-2.2012 -4.97472,-0.0352 -2.87037,-2.03391 -6.49794,-0.45785 -3.363438,-12.89023 z">
<title
   id="title550">Schwepnitz     absolute Anzahl: 16 relativ zur Einwohnerzahl: 0,65 %
</title>
</path>

    <!-- Gemeinde   -->
<path
   style="fill:#821212;fill-opacity:1;stroke:#000000;stroke-width:0.88048059;stroke-linecap:butt"
   onmouseout="style.opacity = 1;"
   onmouseover="style.opacity = 0.5;"
   id="560"
   class="st13"
   d="m 290.96244,675.63008 -5.23886,-4.70177 4.61372,-13.97323 8.15325,-3.44267 3.00244,2.932 6.9646,3.69801 3.08168,-0.38741 2.76471,0.9157 3.74205,-2.24522 -1.54965,-3.82129 8.59349,-2.18359 5.92564,1.08299 1.03896,2.571 3.64519,-0.67797 1.88423,1.40877 -0.44904,0.58112 4.69296,2.932 -2.39491,8.59349 2.79112,0.48427 v 3.17853 l 1.34714,5.44137 -0.76602,8.56708 -7.99476,-1.53204 0.44024,-2.76471 -2.15718,-0.99494 -2.05152,-3.07288 -5.18603,-0.44904 -8.21488,6.12814 -1.39116,2.50057 -5.35333,2.97602 -4.52567,0.15849 -9.47397,-4.59611 -1.98108,-2.16598 -0.16729,-7.04385 z">
<title
   id="title560">Sohland a. d. Spree     absolute Anzahl: 42 relativ zur Einwohnerzahl: 0,62 %
</title>
</path>

   <!-- Gemeinde   -->
<path
   style="fill:#821212;fill-opacity:1;stroke:#000000;stroke-width:0.88048059;stroke-linecap:butt"
   onmouseout="style.opacity = 1;"
   onmouseover="style.opacity = 0.5;"
   id="570"
   class="st4"
   d="m 325.82771,326.53625 1.14463,1.56726 0.69558,6.74448 -5.47659,12.81099 8.48783,0.22892 6.35707,1.71694 0.044,7.24636 4.68415,1.96347 -2.08674,1.68172 -2.34207,-0.65156 -1.34714,6.65643 1.93706,1.36475 -0.1761,2.35088 -1.59367,2.40371 -0.80124,-0.5547 2.57981,3.94456 4.59611,2.21 -1.14462,1.30311 2.52698,3.05527 2.00749,0.24654 -3.61877,2.85275 -1.56726,4.41121 3.1169,1.59367 6.76209,0.10566 1.6377,3.04646 -0.55471,4.38479 5.99608,0.7308 0.75721,1.80499 -0.81885,2.7559 -0.96853,-0.11446 -4.2263,7.6954 1.1006,3.22256 -3.02005,-0.044 0.0616,1.75215 -7.95074,1.02136 1.66411,-12.59087 -3.28419,0.66036 -4.00619,-1.76977 -1.16223,-1.99869 -2.9232,-0.72199 -3.06407,-4.98352 -2.55339,2.81753 0.1937,1.4528 -1.4704,0.93331 -14.61598,-0.0793 -5.57344,-2.43012 1.32953,-7.47528 -1.10061,-0.19371 0.10566,-1.6465 -3.34582,-0.0176 0.0616,2.16598 -6.65643,-0.41382 -0.66917,-2.76471 -1.42638,-0.12327 -3.38104,1.56726 -3.90934,4.2175 0.13208,-1.84901 -2.08674,-0.81885 -3.81248,0.64275 -0.7308,1.53204 -5.81998,-9.49158 2.24522,-0.94211 -0.5635,-0.76602 -6.92938,-1.41758 -1.30312,0.74841 -0.31697,-1.17984 -4.67535,0.14968 -0.0969,-3.36344 -1.53204,-0.3698 1.4616,-1.2943 0.12326,-8.82242 7.89792,3.94455 -0.0704,2.33328 7.37842,4.66654 4.33197,-7.36081 0.88048,-3.81249 -3.20495,-0.81884 -3.4779,-3.1081 -0.0264,-2.86156 1.53203,-1.22387 -2.87917,-3.24897 -3.36343,-1.23267 0.68677,-1.8314 1.00375,0.0704 -0.1761,-2.72949 2.21001,1.72575 3.37224,-1.72575 1.42638,-7.1495 -1.34714,0.009 0.29937,-2.33328 7.1583,-0.60753 8.52306,-7.84508 4.19108,-0.20251 -0.009,-5.40615 5.23005,-0.14088 4.71057,3.3018 2.35089,-1.63769 11.45505,-3.46909 z">
<title
   id="title570">Spreetal     absolute Anzahl: 12 relativ zur Einwohnerzahl: 0,65 %
</title>
</path>

    <!-- Gemeinde   -->
<path
   style="fill:#821212;fill-opacity:1;stroke:#000000;stroke-width:0.88048059;stroke-linecap:butt"
   onmouseout="style.opacity = 1;"
   onmouseover="style.opacity = 0.5;"
   id="580"
   class="st16"
   d="m 145.89798,551.63728 8.17967,-0.81004 2.11315,2.65905 -1.14462,1.67291 0.29055,1.54965 4.06782,-0.86287 3.53954,5.55583 3.89172,0.14968 4.69296,2.34208 0.99495,1.22387 -3.41627,3.8477 -5.77595,3.68921 -8.9721,-3.42507 -4.50806,-0.32578 -2.29805,-1.82259 0.86287,-1.61128 -1.21507,-1.55845 -3.62758,-1.8226 -2.97602,-0.29056 -0.79243,-1.76096 -1.17985,0.22012 -1.04777,-1.61128 -0.22012,-6.68284 -1.17984,-0.32578 -2.47415,-6.62122 0.63394,-0.81884 9.05134,-0.79243 z">
<title
   id="title580">Steina     absolute Anzahl: 12 relativ zur Einwohnerzahl: 0,74 %
</title>
</path>

    <!-- Gemeinde   -->
<path
   style="fill:#821212;fill-opacity:1;stroke:#000000;stroke-width:0.88048059;stroke-linecap:butt"
   onmouseout="style.opacity = 1;"
   onmouseover="style.opacity = 0.5;"
   id="590"
   class="st11"
   d="m 264.95921,651.22404 0.64275,-2.33328 4.25272,-2.57981 0.58112,-1.56725 9.06895,-2.62383 3.6628,-0.73961 4.33196,0.61634 3.1081,3.92694 6.35707,3.59236 1.52323,3.99739 -8.14444,3.44268 -4.61372,13.97322 -6.64763,2.63264 -0.75721,1.68172 -3.59237,-0.009 -4.31435,-5.60866 -0.10566,-1.62008 -3.78606,-3.75966 0.46665,-1.36474 -1.02136,-2.64144 -2.45654,0.44024 -1.01255,-1.29431 2.64144,-0.11446 0.82765,0.88928 1.69053,-4.91308 z">
<title
   id="title590">Steinigtwolmsdorf     absolute Anzahl: 19 relativ zur Einwohnerzahl: 0,68 %
</title>
</path>

    <!-- Gemeinde   -->
<path
   style="fill:#961212;fill-opacity:1;stroke:#000000;stroke-width:0.88048059;stroke-linecap:butt"
   onmouseout="style.opacity = 1;"
   onmouseover="style.opacity = 0.5;"
   id="600"
   class="st11"
   d="m 72.057799,565.8271 -1.752156,-0.44024 -0.572313,-1.16223 3.108097,-1.61128 3.997382,-0.38741 4.41121,-2.48296 4.32316,0.47546 2.23642,-0.50187 3.662795,0.97733 1.699328,-1.13582 2.007496,0.63395 -1.804986,2.44773 -2.967219,0.70439 2.799928,2.35088 2.104349,-1.00375 3.337021,2.932 0.836457,6.07532 -2.447736,4.08543 1.127015,1.13582 -1.100601,1.52323 -0.193706,4.49045 1.047772,3.03766 2.430128,0.66036 3.76846,-4.05901 11.14688,6.10173 0.86287,-0.66036 3.78607,3.4955 0.45785,-0.86287 2.49176,0.82765 0.49307,2.26284 -1.18865,1.76096 -1.84901,0.009 -0.0704,2.71188 -5.89922,2.64144 0.0792,2.04271 -0.98613,-1.25908 -1.05658,0.14968 -4.34077,2.43893 -1.12702,-1.39997 -1.78737,1.60248 -2.87917,-2.09554 -6.806118,1.71693 -2.843952,-0.72199 -0.264145,0.79243 -2.817529,-3.45148 0.334583,-1.06538 -2.306864,-2.07794 -0.396216,2.16598 -2.201201,-1.12701 -0.757214,1.15343 -1.408769,-1.22387 -2.623835,0.12327 -0.695579,-1.91065 -1.849009,-0.44024 0.369801,-1.91064 -1.743351,-0.67797 -0.06163,-1.33833 -0.89809,-0.26414 0.669165,-1.21507 -1.822595,-0.51068 -0.810042,-1.52323 -3.222559,1.17104 -3.715628,-2.87917 -0.906895,-4.41121 1.470403,1.91065 -1.188649,-3.49551 -0.827652,-0.0528 -0.316973,-2.7383 0.783628,-1.43518 3.275388,-0.66036 0.369801,-5.72312 z">
<title
   id="title600">Wachau     absolute Anzahl: 16 relativ zur Einwohnerzahl: 0,37 %
</title>
</path>

    <!-- Gemeinde   -->
<path
   style="fill:#5a1212;fill-opacity:1;stroke:#000000;stroke-width:0.88048059;stroke-linecap:butt"
   onmouseout="style.opacity = 1;"
   onmouseover="style.opacity = 0.5;"
   id="610"
   class="st5"
   d="m 402.85832,544.93946 2.86156,5.09799 0.19371,-0.88049 1.33833,0.0793 0.65155,-2.87917 2.41252,-2.86157 1.59367,-0.22892 1.73455,3.35463 -1.33833,1.18865 -0.81885,4.34077 1.74335,-0.0352 0.58992,1.51443 2.26284,0.96852 -0.35219,0.80124 2.97602,1.6465 3.20495,-0.0969 0.28175,-1.32953 1.06539,0.34339 -0.14969,0.9245 4.44643,-0.12326 -1.38235,3.42507 0.23773,3.65399 -2.78232,1.6377 1.11821,2.5798 -4.0238,1.67292 2.99364,0.68677 0.47545,0.96853 1.03017,-0.84526 -0.41383,0.57231 2.41252,1.31192 -1.94586,0.27295 0.95972,0.88048 4.7634,1.05657 2.30686,-0.54589 -1.34714,0.94211 2.72949,2.59742 -0.13207,0.84526 -2.47415,0.68677 -0.11446,1.19746 -3.08168,2.65024 1.27669,1.86662 -0.95972,0.7308 0.26414,2.26284 -2.91439,-1.22387 0.76602,0.95972 -1.86662,0.51068 0.0793,2.04272 -1.37355,0.76601 0.12326,1.47041 2.15718,1.08299 -1.07419,3.88292 1.18865,0.67797 -0.0616,2.06913 -3.06407,0.0352 0.65155,-1.75216 -0.87167,0.0264 -0.22893,1.8226 -1.39996,-0.0969 0.50187,-1.55845 -2.3861,-0.5459 -0.28175,-2.22762 -0.49307,0.64275 -2.17479,-2.16598 -0.59873,0.9157 -1.39116,-0.95972 -2.7471,3.1169 -0.74841,-0.29056 0.58112,0.88048 -1.1094,3.16092 -1.69053,0.009 -0.81884,1.62008 -0.22893,-0.75721 -1.71694,1.32953 -0.73079,-3.74205 -1.92826,-0.14087 -0.20251,-5.21245 1.02136,-4.44643 -3.96216,-0.11446 -1.01256,-3.90053 -1.15342,-0.28175 -0.1761,2.80873 -1.62009,1.90184 -4.19989,-0.64275 0.59873,-2.95842 -1.24148,-1.33833 -0.14088,-2.13956 2.3773,-2.96722 -1.39116,-1.97228 1.86662,0.0352 -3.02005,-3.16093 -3.68921,1.53204 -0.27295,-2.65025 -0.78363,-0.32577 -1.18865,3.53072 -3.8565,3.44268 -1.18865,-0.59872 -0.94211,2.72068 -2.1836,0.38741 -0.78362,-0.85406 -1.34714,3.24016 -4.13826,-0.51948 -3.16092,2.34208 -2.64144,0.87168 -1.62889,-1.19746 -0.0176,-1.14462 1.91944,-3.53073 -0.7396,-3.8477 1.43518,0.27295 0.21132,-1.05658 0.9245,0.10566 0.33459,-2.34208 -1.4528,0.29056 2.17479,-1.07419 0.29056,-4.00618 0.86287,-0.19371 -0.7308,-6.37468 1.84021,-1.53203 -0.1761,-1.94587 3.57475,0.89809 0.77482,1.1006 2.50057,-2.21 1.32072,1.17984 0.9157,-0.31697 0.49307,1.32952 2.0163,-0.3786 0.48426,2.35969 3.18734,1.98988 1.38236,0.41383 2.31566,-1.13582 0.29936,-2.35969 1.22387,0.37861 2.49176,-2.50057 0.7308,-7.25516 1.8226,0.27295 1.4792,-2.94961 1.25029,0.76602 -1.51443,-1.70813 2.28044,-6.06652 z">
<title
   id="title610">Weißenberg     absolute Anzahl: 50 relativ zur Einwohnerzahl: 1,61 %
</title>
</path>

   <!-- Gemeinde   -->
<path
   style="fill:#6e1212;fill-opacity:1;stroke:#000000;stroke-width:0.88048059;stroke-linecap:butt"
   onmouseout="style.opacity = 1;"
   onmouseover="style.opacity = 0.5;"
   id="630"
   class="st11"
   d="m 290.78459,616.18267 3.38104,0.51948 0.9069,1.11821 2.00749,-0.51948 -0.23773,1.76096 0.85407,0.46666 6.62121,1.39996 0.45785,2.47415 3.68041,0.35219 1.67291,1.91065 -0.7396,7.74823 -1.47921,1.55845 -0.15848,4.32316 -0.83646,1.06538 1.35594,0.51068 -2.57981,1.91944 -0.41382,1.8226 -8.31174,4.90428 -6.35707,-3.59237 -3.1081,-3.93574 -4.33196,-0.60754 -3.6628,0.7308 -1.07419,-1.13582 0.52829,-3.44268 -0.81004,-1.81379 1.52323,-0.85406 -0.16729,-8.61991 4.54328,-0.0792 5.09798,1.75216 z">
<title
   id="title630">Wilthen     absolute Anzahl: 48 relativ zur Einwohnerzahl: 0,98 %
</title>
</path>
   <!-- Gemeinde   -->

<path
   style="fill:#6e1212;fill-opacity:1;stroke:#000000;stroke-width:0.88048059;stroke-linecap:butt"
   onmouseout="style.opacity = 1;"
   onmouseover="style.opacity = 0.5;"
   id="640"
   class="st5"
   d="m 245.38436,409.85173 5.56464,1.77857 1.62009,3.27539 3.83009,-1.56726 2.79993,2.15718 5.35332,-2.66786 v 5.75834 l 2.21,1.90184 -0.85406,2.06913 2.64144,3.52192 -0.76602,4.92189 -1.19745,1.19745 -0.5371,-1.02135 -2.28924,1.92825 -0.80124,-2.44774 -1.44399,0.29937 -1.81379,0.82765 0.009,1.47921 -5.8728,1.15343 -0.74841,1.46159 0.7396,9.43876 5.60867,13.44493 -6.48915,3.89173 -8.54946,3.39865 0.0704,0.88929 -9.75573,-0.22012 -1.44399,-0.82765 -0.44904,1.14462 -4.93069,2.5534 -5.28289,1.50562 -1.59367,-2.13077 -1.11821,0.64276 -0.29056,-5.46779 -1.44399,-4.62252 -1.60247,-1.97228 5.32691,-5.6879 1.23267,-5.56464 -0.88928,-4.42001 -5.83759,1.39996 -8.55827,4.49926 -2.43013,-3.293 -0.98614,-4.10304 -2.03391,-2.13076 -1.96347,-5.14201 1.54084,-1.40877 h 2.97603 l 0.67797,-1.84901 -1.25029,-1.24148 1.86662,-4.43762 2.78232,-3.1169 2.571,-0.58112 1.49682,-2.21881 h 3.4779 l 1.6465,-1.30311 h 5.32691 l -0.11447,1.40877 0.98614,0.13207 1.20626,-1.54084 6.72687,5.65269 -0.0704,1.80498 3.05527,-0.14088 2.3861,-2.94961 -0.0528,-4.33196 3.39865,0.0881 -0.45785,-6.38349 z">
<title
   id="title640">Wittichenau     absolute Anzahl: 57 relativ zur Einwohnerzahl: 0,99 %
</title>
</path>

<g
   transform="matrix(0.8804806,0,0,0.8804806,-20.436248,126.4805)"
   id="g3848"><rect
     style="fill:none;stroke:none;stroke-width:0.75;stroke-linecap:round;stroke-linejoin:round"
     id="rect2088"
     class="st17"
     height="126.51"
     width="256.50699"
     y="677.96271"
     x="299.104"
     v:rectContext="foreign" /><rect
     style="fill:none;stroke:none;stroke-width:0.75;stroke-linecap:round;stroke-linejoin:round"
     id="rect2607"
     class="st17"
     height="126.51"
     width="256.50699"
     y="677.96271"
     x="299.104"
     v:rectContext="foreign" /></g>
	
	  <!-- Legende   -->
	<rect
   style="fill:#d7fcc8;fill-opacity:1;stroke-width:0.23965096"
   y="715.89954"
   x="5.8176346"
   height="13.42934"
   width="28.335367"
   id="RE_d7fcc8">
<title
   id="TRE_D7FCC8">#D7FCC8</title></rect>

<!-- Legende   -->
<rect
   style="fill:#fbf77b;fill-opacity:1;stroke-width:0.23965096"
   y="742.75824"
   x="5.8176346"
   height="13.42934"
   width="28.335367"
   id="rect4574">
<title
   id="TRE_FBF77B">#fbf77b</title></rect>

<!-- Legende   -->
<rect
   style="fill:#fdfecd;fill-opacity:1;stroke-width:0.23965096"
   y="729.32892"
   x="5.8176346"
   height="13.42934"
   width="28.335367"
   id="RE_FDFECD">
<title
   id="TRE_FDFECD">#FDFECD</title></rect>

<!-- Legende   -->
<rect
   style="fill:#ffb534;fill-opacity:1;stroke-width:0.23965096"
   y="756.18762"
   x="5.8176346"
   height="13.42934"
   width="28.335367"
   id="RE_FFB534">
<title
   id="TRE_FFB534">#FFB534</title></rect>

<!-- Legende   -->
<rect
   style="fill:#b42215;fill-opacity:1;stroke-width:0.23965096"
   y="783.04633"
   x="5.8176346"
   height="13.42934"
   width="28.335367"
   id="RE_B42215">
<title
   id="TRE_B42215">#B42215</title></rect>

<!-- Legende   -->
<rect
   style="fill:#be311d;fill-opacity:1;stroke-width:0.23965096"
   y="769.617"
   x="5.8176346"
   height="13.42934"
   width="28.335367"
   id="RE_BE311D">
<title
   id="TRE_BE311D">#BE311D</title></rect>

<!-- Legende   -->
<rect
   style="fill:#a51412;fill-opacity:1;stroke-width:0.23965096"
   y="796.47565"
   x="5.8176346"
   height="13.42934"
   width="28.335367"
   id="RE_A51412">
<title
   id="TRE_A51412">#A51412</title></rect>

<!-- Legende   -->
<rect
   style="fill:#821212;fill-opacity:1;stroke-width:0.23965096"
   y="823.33435"
   x="5.8176346"
   height="13.42934"
   width="28.335367"
   id="RE_821212">
<title
   id="TRE_821212">#821212</title></rect>

<!-- Legende   -->
<rect
   style="fill:#961212;fill-opacity:1;stroke-width:0.23965096"
   y="809.90503"
   x="5.8176346"
   height="13.42934"
   width="28.335367"
   id="RE_961212">
<title
   id="TRE_961212">#961212</title></rect>

<!-- Legende   -->
<rect
   style="fill:#6e1212;fill-opacity:1;stroke-width:0.24557836"
   y="716.37262"
   x="157.47743"
   height="13.42934"
   width="29.754513"
   id="RE_6E1212">
<title
   id="TRE_6E1212">#6E1212</title></rect>

<!-- Legende   -->
<rect
   style="fill:#5f1212;fill-opacity:1;stroke-width:0.24557836"
   y="743.23132"
   x="157.47743"
   height="13.42934"
   width="29.754513"
   id="RE_5F1212">
<title
   id="TRE_5F1212">#5F1212</title></rect>

<!-- Legende   -->
<rect
   style="fill:#671212;fill-opacity:1;stroke-width:0.24557836"
   y="729.802"
   x="157.47743"
   height="13.42934"
   width="29.754513"
   id="RE_671212">
<title
   id="TRE_671212">#671212</title></rect>

<!-- Legende   -->
<rect
   style="fill:#5a1212;fill-opacity:1;stroke-width:0.24557836"
   y="756.66071"
   x="157.47743"
   height="13.42934"
   width="29.754513"
   id="RE_5A1212">
<title
   id="TRE_5A1212">#5A1212</title></rect>

<!-- Legende   -->
<rect
   style="fill:#501212;fill-opacity:1;stroke-width:0.24557836"
   y="783.51941"
   x="157.47743"
   height="13.42934"
   width="29.754513"
   id="RE_501212">
<title
   id="TRE_501212">#501212</title></rect>

<!-- Legende   -->
<rect
   style="fill:#551212;fill-opacity:1;stroke-width:0.24557836"
   y="770.09009"
   x="157.47743"
   height="13.42934"
   width="29.754513"
   id="RE_551212">
<title
   id="TRE_551212">#551212</title></rect>

<!-- Legende   -->
<rect
   style="fill:#321212;fill-opacity:1;stroke-width:0.24557836"
   y="796.94873"
   x="157.47743"
   height="13.42934"
   width="29.754513"
   id="RE_321212">
<title
   id="TRE_321212">#321212</title></rect>

<rect
   style="fill:#141212;fill-opacity:1;stroke-width:0.24557836"
   y="810.37811"
   x="157.47743"
   height="13.42934"
   width="29.754513"
   id="RE_141212">
<title
   id="TRE_141212">#141212</title></rect>

<rect
   style="fill:#ed2083;fill-opacity:1;stroke-width:0.24557836"
   y="823.80743"
   x="157.47743"
   height="13.42934"
   width="29.754513"
   id="RE_ED2083">
<title
   id="TRE_ED2083">#ED2083</title></rect>

<text
   id="text5722"
   y="724.01587"
   x="42.052441"
   style="font-style:normal;font-weight:normal;font-size:26.41441727px;line-height:1.25;font-family:sans-serif;fill:#000000;fill-opacity:1;stroke:none;stroke-width:0.66036135"
   xml:space="preserve"><tspan
   style="font-style:normal;font-variant:normal;font-weight:normal;font-stretch:normal;font-size:7.04385328px;font-family:sans-serif;font-variant-ligatures:normal;font-variant-caps:normal;font-variant-numeric:normal;stroke-width:0.66036135"
   y="724.01587"
   x="42.052441"
   id="tspan5720">keine Daten	 </tspan>	 </text>

	
	 <text
   id="text5726"
   y="736.55884"
   x="41.794487"
   style="font-style:normal;font-weight:normal;font-size:26.41441727px;line-height:1.25;font-family:sans-serif;fill:#000000;fill-opacity:1;stroke:none;stroke-width:0.66036135"
   xml:space="preserve"><tspan
   style="font-style:normal;font-variant:normal;font-weight:normal;font-stretch:normal;font-size:7.04385328px;font-family:sans-serif;font-variant-ligatures:normal;font-variant-caps:normal;font-variant-numeric:normal;stroke-width:0.66036135"
   y="736.55884"
   x="41.794487"
   id="tspan5724">&gt;0,0000% &lt;=0,0100 %	 </tspan>	 </text>

	
	 <text
   id="text5730"
   y="750.26776"
   x="41.794487"
   style="font-style:normal;font-weight:normal;font-size:26.41441727px;line-height:1.25;font-family:sans-serif;fill:#000000;fill-opacity:1;stroke:none;stroke-width:0.66036135"
   xml:space="preserve"><tspan
   style="font-style:normal;font-variant:normal;font-weight:normal;font-stretch:normal;font-size:7.04385328px;font-family:sans-serif;font-variant-ligatures:normal;font-variant-caps:normal;font-variant-numeric:normal;stroke-width:0.66036135"
   y="750.26776"
   x="41.794487"
   id="tspan5728">&gt;0,0100% &lt;=0,0500 %</tspan></text>

<text
   id="text5734"
   y="763.97668"
   x="41.794487"
   style="font-style:normal;font-weight:normal;font-size:26.41441727px;line-height:1.25;font-family:sans-serif;fill:#000000;fill-opacity:1;stroke:none;stroke-width:0.66036135"
   xml:space="preserve"><tspan
     style="font-style:normal;font-variant:normal;font-weight:normal;font-stretch:normal;font-size:7.04385328px;font-family:sans-serif;font-variant-ligatures:normal;font-variant-caps:normal;font-variant-numeric:normal;stroke-width:0.66036135"
     y="763.97668"
     x="41.794487"
     id="tspan5732">&gt;0,0500% &lt;=0,1000 %</tspan></text>
<text
   id="text5738"
   y="777.68555"
   x="41.794487"
   style="font-style:normal;font-weight:normal;font-size:26.41441727px;line-height:1.25;font-family:sans-serif;fill:#000000;fill-opacity:1;stroke:none;stroke-width:0.66036135"
   xml:space="preserve"><tspan
     style="font-style:normal;font-variant:normal;font-weight:normal;font-stretch:normal;font-size:7.04385328px;font-family:sans-serif;font-variant-ligatures:normal;font-variant-caps:normal;font-variant-numeric:normal;stroke-width:0.66036135"
     y="777.68555"
     x="41.794487"
     id="tspan5736">&gt;0,1000% &lt;=0,1500 %</tspan></text>
<text
   id="text5742"
   y="791.39795"
   x="41.794487"
   style="font-style:normal;font-weight:normal;font-size:26.41441727px;line-height:1.25;font-family:sans-serif;fill:#000000;fill-opacity:1;stroke:none;stroke-width:0.66036135"
   xml:space="preserve"><tspan
     style="font-style:normal;font-variant:normal;font-weight:normal;font-stretch:normal;font-size:7.04385328px;font-family:sans-serif;font-variant-ligatures:normal;font-variant-caps:normal;font-variant-numeric:normal;stroke-width:0.66036135"
     y="791.39795"
     x="41.794487"
     id="tspan5740">&gt;0,1500% &lt;=0,2000 %</tspan></text>
<text
   id="text5746"
   y="805.11023"
   x="41.794487"
   style="font-style:normal;font-weight:normal;font-size:26.41441727px;line-height:1.25;font-family:sans-serif;fill:#000000;fill-opacity:1;stroke:none;stroke-width:0.66036135"
   xml:space="preserve"><tspan
     style="font-style:normal;font-variant:normal;font-weight:normal;font-stretch:normal;font-size:7.04385328px;font-family:sans-serif;font-variant-ligatures:normal;font-variant-caps:normal;font-variant-numeric:normal;stroke-width:0.66036135"
     y="805.11023"
     x="41.794487"
     id="tspan5744">&gt;0,2000% &lt;=0,2500 %</tspan></text>
<text
   id="text5750"
   y="818.82257"
   x="41.794487"
   style="font-style:normal;font-weight:normal;font-size:26.41441727px;line-height:1.25;font-family:sans-serif;fill:#000000;fill-opacity:1;stroke:none;stroke-width:0.66036135"
   xml:space="preserve"><tspan
     style="font-style:normal;font-variant:normal;font-weight:normal;font-stretch:normal;font-size:7.04385328px;font-family:sans-serif;font-variant-ligatures:normal;font-variant-caps:normal;font-variant-numeric:normal;stroke-width:0.66036135"
     y="818.82257"
     x="41.794487"
     id="tspan5748">&gt;0,2500% &lt;=0,5000 %</tspan></text>
<text
   id="text5754"
   y="832.53143"
   x="41.794487"
   style="font-style:normal;font-weight:normal;font-size:26.41441727px;line-height:1.25;font-family:sans-serif;fill:#000000;fill-opacity:1;stroke:none;stroke-width:0.66036135"
   xml:space="preserve"><tspan
     style="font-style:normal;font-variant:normal;font-weight:normal;font-stretch:normal;font-size:7.04385328px;font-family:sans-serif;font-variant-ligatures:normal;font-variant-caps:normal;font-variant-numeric:normal;stroke-width:0.66036135"
     y="832.53143"
     x="41.794487"
     id="tspan5752">&gt;0,5000% &lt;=0,7500 %</tspan></text>
<text
   id="text5762"
   y="724.49451"
   x="191.44292"
   style="font-style:normal;font-weight:normal;font-size:26.41441727px;line-height:1.25;font-family:sans-serif;fill:#000000;fill-opacity:1;stroke:none;stroke-width:0.66036135"
   xml:space="preserve"><tspan
     style="font-style:normal;font-variant:normal;font-weight:normal;font-stretch:normal;font-size:7.04385328px;font-family:sans-serif;font-variant-ligatures:normal;font-variant-caps:normal;font-variant-numeric:normal;stroke-width:0.66036135"
     y="724.49451"
     x="191.44292"
     id="tspan5760">&gt;0,7500% &lt;=1,0000 %</tspan></text>
<text
   id="text5766"
   y="738.04712"
   x="191.44292"
   style="font-style:normal;font-weight:normal;font-size:26.41441727px;line-height:1.25;font-family:sans-serif;fill:#000000;fill-opacity:1;stroke:none;stroke-width:0.66036135"
   xml:space="preserve"><tspan
     style="font-style:normal;font-variant:normal;font-weight:normal;font-stretch:normal;font-size:7.04385328px;font-family:sans-serif;font-variant-ligatures:normal;font-variant-caps:normal;font-variant-numeric:normal;stroke-width:0.66036135"
     y="738.04712"
     x="191.44292"
     id="tspan5764">&gt;1,0000% &lt;=1,2500 %</tspan></text>
<text
   id="text5770"
   y="751.59967"
   x="191.44292"
   style="font-style:normal;font-weight:normal;font-size:26.41441727px;line-height:1.25;font-family:sans-serif;fill:#000000;fill-opacity:1;stroke:none;stroke-width:0.66036135"
   xml:space="preserve"><tspan
     style="font-style:normal;font-variant:normal;font-weight:normal;font-stretch:normal;font-size:7.04385328px;font-family:sans-serif;font-variant-ligatures:normal;font-variant-caps:normal;font-variant-numeric:normal;stroke-width:0.66036135"
     y="751.59967"
     x="191.44292"
     id="tspan5768">&gt;1,2500% &lt;=1,5000 %</tspan></text>
<text
   id="text5774"
   y="765.14874"
   x="191.44292"
   style="font-style:normal;font-weight:normal;font-size:26.41441727px;line-height:1.25;font-family:sans-serif;fill:#000000;fill-opacity:1;stroke:none;stroke-width:0.66036135"
   xml:space="preserve"><tspan
     style="font-style:normal;font-variant:normal;font-weight:normal;font-stretch:normal;font-size:7.04385328px;font-family:sans-serif;font-variant-ligatures:normal;font-variant-caps:normal;font-variant-numeric:normal;stroke-width:0.66036135"
     y="765.14874"
     x="191.44292"
     id="tspan5772">&gt;1,5000% &lt;=1,7500 %</tspan></text>
<text
   id="text5778"
   y="778.70142"
   x="191.44292"
   style="font-style:normal;font-weight:normal;font-size:26.41441727px;line-height:1.25;font-family:sans-serif;fill:#000000;fill-opacity:1;stroke:none;stroke-width:0.66036135"
   xml:space="preserve"><tspan
     style="font-style:normal;font-variant:normal;font-weight:normal;font-stretch:normal;font-size:7.04385328px;font-family:sans-serif;font-variant-ligatures:normal;font-variant-caps:normal;font-variant-numeric:normal;stroke-width:0.66036135"
     y="778.70142"
     x="191.44292"
     id="tspan5776">&gt;1,7500% &lt;=2,0000 %</tspan></text>
<text
   id="text5782"
   y="792.25397"
   x="191.44292"
   style="font-style:normal;font-weight:normal;font-size:26.41441727px;line-height:1.25;font-family:sans-serif;fill:#000000;fill-opacity:1;stroke:none;stroke-width:0.66036135"
   xml:space="preserve"><tspan
     style="font-style:normal;font-variant:normal;font-weight:normal;font-stretch:normal;font-size:7.04385328px;font-family:sans-serif;font-variant-ligatures:normal;font-variant-caps:normal;font-variant-numeric:normal;stroke-width:0.66036135"
     y="792.25397"
     x="191.44292"
     id="tspan5780">&gt;2,0000% &lt;=4,0000 %</tspan></text>
<text
   id="text5786"
   y="805.81683"
   x="191.44292"
   style="font-style:normal;font-weight:normal;font-size:26.41441727px;line-height:1.25;font-family:sans-serif;fill:#000000;fill-opacity:1;stroke:none;stroke-width:0.66036135"
   xml:space="preserve"><tspan
     style="font-style:normal;font-variant:normal;font-weight:normal;font-stretch:normal;font-size:7.04385328px;font-family:sans-serif;font-variant-ligatures:normal;font-variant-caps:normal;font-variant-numeric:normal;stroke-width:0.66036135"
     y="805.81683"
     x="191.44292"
     id="tspan5784">&gt;4,0000% &lt;=8,0000 %</tspan></text>
<text
   id="text5790"
   y="819.3797"
   x="191.44292"
   style="font-style:normal;font-weight:normal;font-size:26.41441727px;line-height:1.25;font-family:sans-serif;fill:#000000;fill-opacity:1;stroke:none;stroke-width:0.66036135"
   xml:space="preserve"><tspan
     style="font-style:normal;font-variant:normal;font-weight:normal;font-stretch:normal;font-size:7.04385328px;font-family:sans-serif;font-variant-ligatures:normal;font-variant-caps:normal;font-variant-numeric:normal;stroke-width:0.66036135"
     y="819.3797"
     x="191.44292"
     id="tspan5788">&gt;8,0000% </tspan></text>

</g>
</svg>